<?xml version="1.0"?>
<svg xmlns="http://www.w3.org/2000/svg" version="1.2" baseProfile="tiny" width="800" height="715" viewBox="0 0 800 715" stroke-linecap="round" stroke-linejoin="round" fill="#B8C4D6">
<g id="DISTRICTS_2018">
<path d="M 736.1289 224.4574 736.1941 224.4574 735.019 226.3171 726.14 236.5751 715.4982 248.7528 712.6909 252.0522 712.6256 261.0504 712.7562 263.6899 712.3645 266.3294 710.7976 268.609 710.4059 270.1087 710.6017 271.4884 711.2546 274.6079 712.038 277.1274 712.3645 279.8868 712.8868 282.3464 714.4537 284.8659 715.4982 287.2654 716.0858 289.665 717.718 294.4041 718.7626 296.2037 720.2642 295.5439 725.226 292.3045 727.7069 290.2649 728.4903 290.0849 729.4043 291.6446 728.4903 292.3045 724.312 294.944 716.9998 299.7431 710.0142 303.8823 706.6845 306.1019 699.7641 309.1013 702.3103 313.8404 708.1861 312.8806 708.9043 313.2405 709.9489 314.7402 712.2339 317.7396 716.0205 322.7787 716.4775 324.0384 722.0269 329.5574 725.1607 333.3966 725.0301 334.2965 726.3358 335.3763 728.8167 338.3157 729.9919 340.4753 731.4935 342.6349 735.019 341.1352 736.9776 340.8952 738.7403 341.3151 740.0461 341.7351 740.5031 341.0752 741.0254 340.8952 741.6782 341.2552 742.2005 341.855 745.5954 342.4549 748.4028 343.6547 752.3853 345.0344 757.6082 346.5941 759.1751 348.5138 762.1783 352.2331 764.9856 355.4724 777.1289 352.293 778.3041 352.293 780.3933 352.593 782.4172 353.0129 785.6162 353.7928 788.2277 353.9127 792.5366 359.8516 790.8392 360.8114 787.7707 362.2511 785.6162 363.3309 784.2452 363.5709 782.0907 363.4509 783.2659 366.0904 784.6369 369.5098 788.8153 377.9682 791.8185 384.6869 795.2134 390.8657 797.4984 396.1447 798.7389 398.2443 797.0414 398.5442 794.6911 399.3841 789.4028 401.0638 784.7022 402.3235 783.7229 402.8634 780.2627 404.3631 777.8471 406.1628 775.3009 408.3824 773.5382 410.002 774.9092 412.6415 775.0398 413.9013 773.277 414.5612 772.4283 415.1011 772.4936 415.461 772.6242 416.6008 772.4936 417.0207 771.8407 417.2007 771.2531 417.2007 766.4872 421.3399 768.1847 424.7592 769.9474 427.2788 771.9713 429.9782 774.5175 432.4978 775.6926 432.0179 780.5891 429.9183 783.984 428.6585 788.0971 427.3987 792.9936 425.5991 797.6943 424.1594 799 426.5589 796.3885 428.2986 792.2755 431.418 791.4267 431.7179 788.5541 432.6777 784.1799 434.2374 785.0286 434.8373 788.2277 437.7168 791.2309 440.5962 792.7978 442.9958 792.863 444.4355 792.9283 446.4751 792.9283 447.6149 792.2755 448.9946 790.7739 450.3744 788.8806 452.114 787.9013 453.6737 787.3137 455.3534 787.1178 457.9929 786.7261 459.6726 785.4856 461.8322 784.8328 462.4321 782.3519 465.0116 778.957 468.191 776.9984 469.8706 775.6926 471.0104 774.2563 472.1502 772.7547 473.9499 771.6448 476.7693 771.0573 478.269 770.4044 480.7286 769.621 482.2883 768.4458 483.488 767.4665 484.0279 765.8996 484.3879 764.0063 484.4479 762.9617 484.8678 761.5907 486.0076 759.9585 486.7274 758.0652 487.7472 756.1066 488.5271 754.148 489.7868 749.9696 492.3664 748.4028 492.8463 746.1177 493.1462 745.0731 493.5061 743.5063 493.9261 741.2212 494.5259 739.5238 495.1258 737.9569 496.0856 736.7817 496.7455 735.019 498.1852 733.5174 499.7449 732.0158 501.1847 730.5795 502.3844 728.6209 503.5242 726.6623 504.964 723.1368 506.9436 722.1575 507.8434 721.5699 509.0432 721.4393 510.4829 721.1129 511.8026 721.2435 512.6425 721.8963 513.9022 722.0269 514.8021 721.5699 517.0217 720.5906 519.0013 718.4361 520.8609 716.2817 522.4206 713.1479 524.0403 711.581 525.54 710.6017 527.6396 709.5571 529.1993 706.554 533.1586 703.9425 535.3182 697.5444 541.9769 691.1463 549.7754 687.1638 554.3345 683.6383 557.214 687.4249 560.3334 692.6479 563.8727 689.9058 565.9123 684.7482 568.4319 682.1367 569.9316 678.1542 571.4313 676.9791 572.0312 675.9998 574.4907 675.8692 576.9502 676.9138 580.7295 677.8278 583.0091 677.8931 584.0889 677.2402 585.0487 674.1064 587.4482 671.1032 589.8478 667.643 590.8076 664.6399 592.6672 667.643 596.4465 670.5157 601.3056 678.2848 595.8466 681.8103 599.4459 685.2705 604.1251 686.9026 605.9247 689.3835 607.4244 691.538 609.0441 693.9536 611.3237 698.3931 615.8828 701.8533 620.382 700.2864 621.2218 691.2769 625.541 692.1909 627.1007 689.6447 628.2405 688.5348 626.7407 687.0985 627.4606 689.0571 630.82 687.2291 632.8596 686.8374 632.9796 686.4456 633.0395 682.9854 633.5194 676.5873 626.4408 664.1829 635.0192 658.0459 639.2784 651.6478 643.6575 649.7545 644.9773 646.3596 646.8969 641.1366 651.0961 640.8755 651.696 641.0061 655.7152 641.1366 658.4147 640.4185 661.8341 640.4185 664.7735 640.4185 666.5132 634.0204 669.5726 633.6287 669.7525 633.3022 669.9325 626.4471 673.8918 623.3786 675.6914 622.8563 675.8714 622.2035 676.1113 619.2003 676.8912 618.1557 677.1911 617.4375 677.611 616.5235 682.7101 615.9359 685.9495 607.3834 688.7689 603.205 690.1487 600.6588 690.9885 599.092 691.7084 597.6556 692.4282 595.8276 689.9687 590.8658 692.4282 589.1684 693.3281 587.6015 694.8878 587.5362 695.0077 584.1413 697.8272 581.9215 700.4067 581.8563 700.4667 580.9422 701.0066 577.5473 703.2862 577.5473 704.186 576.9597 704.6659 575.654 704.9058 573.8913 707.7853 573.826 707.8453 573.0425 708.4452 571.3451 708.2052 571.2145 708.2052 570.8228 708.2052 569.1906 708.0852 567.9502 708.5052 567.232 709.0451 565.7957 710.1848 565.5346 710.2448 565.0123 710.3048 563.5107 710.0049 563.3801 709.9449 563.0537 709.8849 559.1365 708.8051 557.9613 708.7451 557.7002 708.8051 556.5903 708.9851 549.474 713.0643 547.4501 713.5442 546.732 713.6642 546.3403 713.6642 545.0345 713.5442 543.7941 712.8243 543.0759 713.3642 542.5536 713.7242 540.8562 712.2844 540.3339 712.2844 539.6157 712.7643 539.4852 712.8243 539.2893 712.8843 538.767 712.9443 537.4613 711.9245 536.8737 710.9647 536.4167 710.2448 536.482 710.0649 536.8737 709.465 533.6746 705.8657 533.0218 705.9856 532.8912 705.8057 532.7606 705.6257 533.7399 703.7661 533.8052 703.5861 533.7399 703.2262 533.6746 703.0462 530.2797 698.3671 530.802 695.9675 530.5409 695.9675 529.6269 696.0275 527.9294 693.628 527.0154 692.4282 526.6889 692.6682 526.0361 693.0881 519.9644 697.8872 515.9819 701.1266 513.1746 703.3461 510.4978 705.5057 508.2128 707.3054 507.8211 707.4854 507.4294 707.6653 506.3848 707.2454 505.7319 706.8255 505.2749 706.5255 501.6188 703.7661 499.2032 701.7864 496.7223 699.8068 493.001 696.2075 492.4134 694.7078 490.5854 691.1085 488.0392 688.0491 484.4484 683.7899 481.1188 680.6705 477.528 676.9512 476.8752 674.7316 475.7653 671.0123 475.1777 669.1527 474.9818 668.8527 474.1331 667.353 472.1745 665.6133 470.7382 663.5137 470.0853 662.6739 468.8449 662.5539 466.8863 662.7339 466.0376 663.0938 463.4261 664.1736 460.8146 664.9535 459.0519 665.4934 453.8942 666.7531 451.2827 666.8731 448.3448 667.0531 448.149 667.0531 447.8878 667.113 445.1458 667.7129 443.2525 668.7327 442.3385 669.2726 440.7716 670.1125 440.5757 670.2325 440.184 670.1725 434.1776 669.6926 432.2843 670.1125 431.2397 670.3524 426.5391 672.0321 425.1028 672.692 424.4499 672.9919 424.3846 672.8719 424.1235 672.1521 423.2094 670.9523 421.7078 669.8725 419.0311 671.6722 418.9658 671.7322 418.0518 672.632 417.7906 672.9319 417.5295 673.1719 416.4196 674.3117 417.7254 675.2715 413.9387 677.611 412.9594 678.5709 412.176 678.7508 411.9148 678.8708 411.3925 679.1707 411.1967 679.6507 411.3925 679.9506 412.6983 681.0304 412.8288 681.6303 412.633 681.8102 412.5677 681.9302 411.8495 681.9302 411.5884 681.9902 411.4578 682.1102 411.5231 683.25 410.2174 685.0496 409.6951 685.5295 407.9976 686.9093 406.1696 687.3892 400.4244 689.8487 401.0772 690.8085 398.531 691.8283 397.5517 691.8283 396.1807 691.6484 394.2874 688.229 393.961 688.109 392.4594 687.6891 391.0884 684.3898 389.1298 683.9098 385.8654 683.01 383.5804 682.2902 382.4052 681.9302 382.4052 681.8102 381.6218 677.911 379.0103 673.4118 376.5294 669.0327 374.8972 666.0932 373.8527 664.7135 372.9386 664.0536 372.0899 663.3938 371.3065 662.9738 370.3272 662.4339 369.4132 661.6541 368.238 659.8544 367.5851 659.0146 367.7157 658.9546 368.3033 658.6547 368.695 658.3547 369.2826 657.8748 369.3479 657.3349 369.0214 656.735 368.9561 656.675 368.0421 655.8352 366.867 654.8754 366.4753 654.1555 366.2794 653.7956 365.6918 652.2359 365.2348 651.0361 365.0389 650.7962 361.0565 648.4566 360.9912 648.2766 360.73 647.4368 360.7953 647.3768 361.0565 645.8771 361.0565 645.8171 361.187 645.2772 360.9912 644.1974 359.9466 642.3978 359.8813 641.4379 359.0326 639.2784 357.8574 638.0186 357.2045 637.4787 354.7889 635.2591 350.937 632.1997 342.9067 625.541 342.7109 625.0611 339.9688 622.1216 337.1615 618.0424 334.8112 614.5631 334.2236 613.7832 333.0484 611.6836 331.6121 609.2241 329.8494 606.8245 327.9561 604.9049 326.4545 603.0453 325.9322 603.4052 324.9529 604.0051 322.2761 601.6055 321.2315 602.2654 318.6853 604.0051 318.2283 604.0651 317.9672 603.8251 316.9879 602.8053 315.878 601.8455 315.0946 601.5455 314.1806 601.6055 313.9847 601.6655 312.8095 601.9055 310.9815 602.5653 310.1981 602.8653 307.5866 603.7651 305.9544 604.185 304.0611 604.0651 302.1678 603.4652 301.7108 603.2852 298.7729 602.0255 298.6423 602.0854 298.577 602.0854 298.3159 602.2654 297.4019 602.7453 295.7044 603.6451 295.1821 603.7651 285.2585 604.425 285.2585 605.1449 285.2585 605.3848 285.2585 605.5648 285.2585 605.8647 285.128 605.9247 285.0627 605.9847 284.8015 606.1047 284.4751 606.2846 282.3206 607.1845 279.5786 608.3842 274.7474 609.884 274.0945 610.0639 273.1152 610.3039 272.4623 610.5438 272.1359 610.7238 270.8954 611.2637 268.741 611.3237 266.4559 611.6236 265.2155 612.1035 263.9098 612.7034 263.6486 612.8234 263.5833 612.8834 262.4082 613.4233 260.4496 608.9841 260.319 608.6842 260.1884 608.3243 258.6215 604.485 258.3604 603.7051 258.1645 603.5252 254.7696 600.2258 248.5674 592.3073 245.76 593.5071 245.1072 593.807 244.5196 594.047 242.6263 594.8268 242.1693 595.3067 242.104 595.3667 242.0387 595.4267 241.8428 595.6067 241.4511 595.9666 239.8189 596.9264 239.5578 596.8664 238.7744 596.8664 238.7091 596.8664 238.5132 596.8664 238.4479 596.8664 238.4479 596.8064 237.8603 596.7465 236.5546 596.5665 236.0323 595.4867 236.0976 595.3667 236.0976 595.0068 236.0976 594.8868 236.2282 594.047 237.7951 591.8274 237.3381 588.888 235.6406 585.2287 235.053 583.9089 235.053 583.8489 234.9877 583.7289 235.053 583.6689 235.1836 583.549 235.4447 583.369 236.7505 582.2292 235.967 576.7703 234.7266 566.0323 234.596 564.5926 234.5307 563.9927 234.2043 561.0533 233.225 552.5349 229.8954 553.6747 226.8922 555.4743 225.9129 556.0742 225.3253 556.3742 222.061 558.2938 211.2886 562.7929 208.3507 563.6328 207.6979 563.8127 204.6947 564.7126 201.8221 565.5524 196.5991 566.8722 195.3587 567.1721 194.7711 567.3521 193.5959 567.652 193.4654 567.592 191.572 567.412 189.8746 567.1721 189.8093 567.1721 189.8093 566.7522 189.8093 566.1523 189.744 564.4126 189.5481 558.1738 188.5036 557.154 188.7647 556.7941 189.1564 556.2542 189.287 556.0142 190.8539 553.8546 191.3109 544.3165 190.5274 538.9775 190.7233 538.9175 190.9192 538.7975 191.0497 538.6775 191.5067 538.3176 191.115 537.7177 190.3316 537.2978 190.2663 537.2978 190.0052 537.4178 189.0911 537.6577 188.7647 537.7777 188.6994 537.7777 186.2838 535.3182 185.8268 534.8383 185.5004 534.4783 185.2392 534.2384 184.8475 533.5785 184.4558 532.9186 183.6071 531.4789 181.9096 528.7194 182.693 528.4195 184.0641 527.9396 184.5211 527.7596 190.0052 525.84 188.373 509.703 188.4383 508.8032 188.5036 508.6233 188.5688 507.4835 188.83 504.964 191.572 500.3448 189.6134 497.2854 188.6994 496.0257 188.6994 495.9657 188.6341 495.8457 183.9335 495.7857 182.0402 495.7857 180.6691 495.7257 180.0816 495.7257 172.1166 495.5457 166.6325 494.406 157.6229 491.9464 146.5895 490.3867 138.4286 489.8468 139.1468 482.5882 136.3394 475.0297 133.2057 462.492 136.3394 461.7122 140.9095 460.5124 142.0194 460.2125 142.4111 460.0925 144.5656 458.8327 145.1532 458.4728 145.6754 458.1129 145.806 458.0529 143.1293 455.0535 142.9987 454.8735 142.2152 454.0337 138.6898 450.0744 131.1165 439.7564 138.2328 435.1373 140.9748 433.6375 142.7375 432.6177 143.9127 431.9579 144.9573 431.358 144.892 431.178 144.8267 430.7581 144.6309 430.0982 143.6516 426.079 143.1946 422.4797 142.0194 413.6014 142.4764 411.0219 142.7375 410.422 143.1946 409.4022 143.3251 409.0422 143.7821 408.0224 144.3697 397.3445 141.3012 394.345 141.1054 394.1651 141.1054 394.1051 135.8824 397.7644 128.048 387.4463 123.3474 381.8674 120.54 378.628 120.4095 378.4481 114.7948 373.649 113.7502 374.6088 113.6197 374.7888 113.5544 374.8487 113.3585 375.0287 109.833 370.8295 109.7677 370.7695 103.5002 371.0095 100.8234 370.5296 100.6929 370.4696 94.6212 365.9704 89.9858 361.8912 86.7868 357.572 81.4333 350.9733 74.6435 343.7747 69.3552 335.4363 67.5272 332.2569 67.3313 331.8369 66.7438 330.8771 66.0909 329.6774 65.5033 328.1776 63.4794 326.498 63.0224 326.078 62.9571 326.0181 62.8266 325.9581 59.3011 321.8189 58.7135 320.799 58.5829 320.5591 57.93 319.3593 57.2119 317.9796 54.274 311.0209 51.7931 305.8019 51.2708 303.3424 51.2055 302.9824 51.0749 302.5625 50.8138 301.2428 45.852 303.7023 43.3058 299.5031 41.8695 299.923 37.2341 301.2428 31.5542 302.6825 25.1561 304.9621 17.7134 308.0815 14.3185 309.1613 13.6003 309.4012 13.4045 308.8013 9.6179 303.8823 4.4602 295.2439 1 290.2049 3.6768 287.5654 5.7659 285.2858 6.1577 284.9259 7.8551 283.1262 8.3121 282.2264 9.0956 280.6667 9.3567 278.4471 9.422 278.2072 6.7452 271.7284 6.1577 270.1087 4.9825 266.6894 4.9825 266.4494 4.9825 265.4896 5.3742 265.1896 5.8312 264.8897 10.0096 263.6899 11.9029 263.15 10.4013 260.3306 13.1433 259.4307 11.707 255.5915 12.9475 255.1716 14.6449 254.6317 15.1019 253.7318 16.2118 251.8122 17.7787 250.4924 18.2357 250.1925 18.8886 249.7726 19.0844 249.1727 18.2357 248.0929 17.1258 245.5134 15.4284 242.6939 14.6449 241.4342 14.1879 240.5943 14.2532 239.5145 14.1879 239.3346 13.7309 237.4149 13.1433 233.8156 13.1433 232.076 13.1433 230.6962 12.8822 230.2163 11.707 228.2367 9.5526 225.9571 7.594 224.0375 5.1131 220.9181 3.0239 219.7783 1.3917 218.5185 1.1306 217.7387 3.0892 215.3991 4.2643 214.2594 4.3949 214.1394 7.9857 210.72 13.6003 206.1609 16.473 204.0613 16.5382 204.0013 17.3217 203.5814 21.2389 201.4218 22.3488 200.582 27.8329 196.5027 28.9427 195.4229 28.4857 193.0234 28.8774 192.0636 29.5303 191.6437 30.379 191.1038 31.5542 190.3839 32.6641 189.724 33.6434 188.7042 35.145 187.6244 35.2755 187.6244 36.973 186.8446 43.6323 185.2249 50.6179 184.3251 52.903 183.6652 56.1673 182.8253 59.7581 181.5656 65.438 179.1061 67.5925 177.9663 68.3759 177.5464 68.6371 177.5464 70.4651 177.5464 70.7263 177.5464 76.0145 175.6267 76.6021 175.5067 77.1896 175.3268 77.5814 175.2668 78.9524 177.3664 84.2406 175.1468 85.8728 175.1468 87.1785 174.6669 87.3091 174.6069 87.7661 174.4269 88.3537 174.247 89.7247 173.7071 90.0511 173.5871 89.7247 172.1474 89.7247 171.3675 92.7932 170.0478 96.9715 168.2481 104.1531 165.2487 106.8951 163.689 108.3314 163.3291 108.7884 163.1491 109.833 162.9091 116.2311 163.2091 117.7327 163.3291 117.8633 164.6488 117.9939 166.1485 118.0592 166.5684 124.2614 167.2283 131.7694 168.848 135.1643 168.668 135.556 168.668 135.6213 168.668 135.8171 168.668 135.9477 168.6081 136.9923 168.5481 141.8888 168.0082 147.3729 166.4485 147.5688 166.4485 147.9605 166.3285 153.5751 163.9889 154.4239 163.629 154.685 163.509 154.8156 163.509 155.2073 163.3891 157.2965 162.9091 159.908 162.3692 160.1038 162.3093 160.1691 162.3093 163.7599 160.6296 172.2472 156.7903 172.7042 156.6103 173.4876 156.2504 180.4733 153.191 189.3523 150.4315 191.7026 149.7117 192.6166 149.4117 197.0561 148.092 203.4542 145.5125 203.8459 145.3325 204.2377 145.2125 204.4988 145.0925 206.1963 144.4927 209.4606 143.2929 210.3093 142.9929 215.5323 142.3931 215.5976 142.3331 216.1851 141.7332 215.3364 135.7343 214.8794 132.195 218.1437 131.8951 218.209 131.8951 218.3396 129.6755 221.1469 129.3755 222.7791 127.6359 222.8444 127.5759 222.9097 127.5159 223.432 126.0762 222.3221 124.2765 222.1262 121.457 220.6899 114.5584 217.2297 110.2992 214.553 107.3597 214.2918 107.1198 213.9001 106.6999 217.1644 104.7802 217.4909 104.6602 218.4049 104.1203 224.346 100.941 225.3253 102.2607 225.3906 102.3807 225.5211 102.5606 227.4798 101.9008 229.4384 101.2409 230.4177 100.881 231.1358 100.701 233.0291 100.1011 236.881 98.9013 237.2075 98.6614 237.5339 98.3614 242.561 94.2222 244.1932 93.1424 244.5196 92.9025 245.5642 92.2426 247.1311 91.7627 247.1964 91.7027 247.3922 91.4028 248.1757 90.143 250.3301 88.1634 251.7011 86.8436 253.268 85.7638 254.1167 85.4639 254.4432 85.3439 255.4878 85.164 256.0101 85.044 256.1406 85.044 256.2059 85.044 256.5324 84.984 259.2091 84.5641 260.9719 84.1442 261.0371 84.0842 261.233 83.9642 261.7553 82.2845 261.1677 80.1249 260.3843 78.2653 262.5387 77.0055 261.4289 74.0061 262.0164 73.6462 262.147 73.5262 262.8652 73.0463 260.8413 68.7271 262.2776 67.9472 261.233 66.2676 260.5148 65.0078 260.2537 64.6479 258.3604 61.6484 258.6215 61.5285 260.319 60.5087 260.7107 60.2687 260.9719 60.0887 262.5387 59.3089 266.8477 57.0293 268.5451 56.0695 276.6407 52.1702 282.0595 49.1708 282.3206 49.0508 287.2171 46.8313 287.413 46.7713 294.7251 43.7119 294.7251 43.6519 294.7904 43.5919 297.4672 42.0922 297.4019 41.9122 297.0754 41.0124 296.4879 39.3927 295.6391 37.713 295.378 37.1731 297.5977 35.2535 300.0786 33.1539 301.0579 32.254 301.5802 32.0141 302.1678 31.6542 302.3637 31.5942 304.714 30.6943 304.9098 30.5144 305.6933 29.9145 306.4114 29.3146 306.999 28.4748 307.2602 27.9949 307.7825 27.095 308.8923 24.9954 309.6758 24.3955 310.2634 23.9756 310.6551 23.6757 313.136 22.056 313.7236 21.6961 317.3143 19.7764 319.7952 18.5167 323.0596 17.1969 325.8016 15.9971 329.9147 14.2575 334.3542 12.6378 334.4195 12.3378 334.4195 12.2779 334.4847 11.378 339.4465 9.2184 345.3876 6.399 350.1536 4.8393 351.0676 7.7787 356.7475 6.6389 356.2905 5.6191 358.1185 4.7193 359.4896 4.1194 360.5342 3.6995 361.187 3.3995 362.2316 3.0396 363.0151 2.7397 366.0835 1.5999 367.8463 1 369.4132 2.5597 372.4816 6.8789 375.4195 11.1381 375.4848 11.258 375.6807 11.498 377.4434 14.3175 380.5772 18.4567 383.9721 21.816 387.2364 25.0554 388.6727 25.8353 389.5868 26.6151 390.3049 26.975 390.6314 26.9151 390.8272 26.9151 390.8925 26.9151 390.9578 26.9151 391.6107 26.8551 391.9371 26.7951 392.4594 26.9151 392.5247 26.9151 392.59 26.9151 392.6552 26.975 392.9164 27.155 393.047 27.275 393.2428 27.5749 393.7651 27.9349 394.2221 28.1748 395.5279 28.4148 397.4865 28.7147 398.7922 28.9547 398.9228 29.0147 398.9881 29.0147 399.1186 29.0147 402.2524 29.1946 403.6234 29.1346 407.3448 29.9145 409.5645 30.5144 409.8257 30.5744 410.4785 30.7543 411.6537 31.1143 412.5677 31.4142 414.3957 31.9541 416.9419 32.9739 417.0072 32.9739 419.5534 33.3338 420.5327 33.8737 420.7285 34.0537 420.7938 34.0537 420.9897 34.1737 421.055 34.1737 422.1649 34.7136 423.9276 34.9535 425.8209 34.6536 427.9754 34.4736 428.8241 34.4136 429.02 34.4136 429.477 34.4136 429.8034 34.4136 429.8687 34.3536 430.2604 34.3536 432.5454 39.9326 434.7652 45.6915 435.0263 46.3514 435.3528 46.9512 435.5486 47.3112 436.3321 48.9909 438.9435 54.3298 443.0566 62.8482 447.3655 72.5664 450.5646 79.645 452.3273 83.7242 452.7191 84.744 452.8496 85.044 452.9802 85.3439 453.3719 86.6637 453.6984 87.7435 449.7812 87.7435 449.1936 87.8035 448.9977 87.8035 440.641 88.6433 437.2461 89.3632 435.7445 89.6631 434.3082 90.023 431.0439 90.9229 424.9722 92.3626 416.6808 94.3422 416.4849 94.3422 416.4849 94.4022 416.289 94.4622 411.9148 96.1419 411.0661 96.5018 414.8527 104.4803 414.918 104.6003 416.2238 107.7197 418.6394 113.3586 419.1617 114.6183 429.5423 136.2742 429.6075 136.3942 431.8926 136.6941 432.2843 136.7541 432.4149 136.7541 434.8958 136.6941 441.9467 136.5742 451.9356 136.3942 460.684 136.4542 460.7493 136.4542 470.9993 136.0343 472.3704 139.0937 476.5487 147.6121 476.614 148.5719 476.614 149.7716 476.8099 154.5107 477.528 154.4508 477.6586 154.4508 478.3115 148.6319 478.442 148.152 478.442 148.032 478.5073 147.912 478.5726 146.4123 479.7478 145.6924 482.4245 144.3727 490.3242 140.4134 501.3577 134.9545 502.0106 134.6545 502.5981 134.4146 502.9246 134.2946 514.4803 133.3948 514.4803 133.3348 514.4803 132.9748 514.4803 132.9149 514.4803 132.8549 514.4803 132.7949 514.2845 132.4949 513.6969 131.2952 513.044 130.2754 512.4564 129.4355 512.2606 129.1356 512.13 128.9556 511.9994 128.8356 511.9341 128.6557 511.8689 128.4757 511.7383 128.2358 511.7383 127.8158 511.7383 127.6959 511.8036 127.4559 511.8036 127.3959 511.8036 127.2159 512.0647 127.096 512.1953 126.976 512.3911 126.796 512.8482 126.676 512.9787 126.6161 513.2399 126.4961 513.3704 126.4961 513.501 126.4361 514.415 126.2561 515.5902 125.9562 515.8513 125.8962 516.1125 125.8362 516.2431 125.8362 516.6348 125.7762 517.6794 125.5363 519.2463 125.2363 519.5727 125.0564 520.1603 124.8164 520.8131 124.5165 522.7065 122.9568 524.1428 121.817 524.6651 121.517 524.9262 121.517 525.7749 121.3371 526.3625 121.2171 528.1253 120.7972 528.1905 120.7372 528.2558 120.6772 528.7781 120.0173 529.431 118.3376 530.4103 116.238 532.3689 114.1384 534.9151 112.3388 535.5679 111.8589 535.8291 111.6189 536.0902 111.4989 537.0695 110.7791 539.3546 109.1594 540.4645 108.7395 541.6396 108.1996 543.3371 107.4797 543.7288 107.3597 545.6874 106.8198 546.6014 106.6399 548.1683 105.74 548.9517 105.2601 549.0823 105.2001 549.931 104.5403 550.5839 104.0604 550.9756 103.7604 551.4326 103.4605 551.9549 103.1005 553.7177 103.0406 554.5664 103.2205 554.8928 103.3405 554.9581 103.4005 555.0887 103.4005 555.5457 103.8804 555.7416 104.1803 557.3084 103.1005 558.2224 102.6806 558.9406 102.3207 559.267 102.2007 559.4629 102.1407 561.4215 101.3609 561.7479 101.1809 561.8132 101.1809 561.8785 101.1209 562.2049 101.0609 561.9438 100.521 561.9438 100.461 561.8785 100.3411 561.4215 99.0813 561.5521 99.0213 562.9884 98.6014 563.0537 98.9613 563.119 99.3213 563.2495 99.9211 563.3801 99.8012 563.9677 99.2613 564.3594 98.9613 564.7511 98.7214 565.0776 98.4814 565.3387 98.3614 565.3387 98.4214 566.6444 99.5012 568.4072 98.4814 569.1906 97.8815 570.2352 97.1017 570.2352 97.0417 570.3005 97.0417 570.3658 96.9817 570.8228 96.5618 571.2798 96.1419 571.5409 95.9019 571.6062 95.7819 572.0632 95.422 573.3037 94.2822 574.0871 93.3224 574.9359 92.4226 576.3069 91.5827 576.568 91.4628 578.0043 89.3632 578.2002 89.1832 578.5919 88.9432 578.7878 88.7633 581.8563 87.5035 583.8801 86.4237 586.0346 87.1436 589.2337 88.5233 592.041 89.7831 593.6079 88.2834 594.783 87.0836 594.8483 87.0236 598.4391 84.3841 599.0267 84.5641 599.3531 84.6841 599.8101 84.804 600.1365 84.984 600.3324 85.104 600.92 85.4039 602.291 86.2438 604.3149 88.1034 605.7512 89.6631 607.1875 91.8227 609.5378 93.8023 617.5681 94.3422 622.4646 94.8221 625.7942 95.302 626.1207 95.362 626.643 95.542 626.7083 95.602 626.7735 95.602 627.1 95.9019 627.3611 96.1419 627.9487 96.6818 627.9487 96.7418 627.8834 97.3416 627.6223 98.1815 627.557 98.5414 627.4917 98.6014 627.4917 98.7214 627.4264 98.7814 627.0347 100.1611 626.1207 102.3207 625.5331 104.1803 625.5331 104.9002 625.5331 104.9602 625.5331 105.2601 625.9248 106.5199 625.9901 106.5199 625.9901 106.5799 626.5124 108.0196 626.3818 109.3394 626.3818 109.3993 625.9901 110.3592 625.9248 110.4191 625.5331 110.8391 625.1414 111.199 624.1621 111.7389 623.4439 112.2788 623.1828 112.3988 623.1175 112.4588 622.3993 112.8187 622.334 112.8787 622.2688 112.8787 621.6159 113.1786 621.5506 113.2386 621.5506 113.2986 621.5506 113.5386 622.0729 113.7785 623.5092 113.1786 623.5745 113.1186 623.6398 112.9987 623.7051 112.9987 624.6844 112.6987 627.0347 112.3988 628.6016 112.2788 630.8213 112.2788 632.7146 112.4588 633.7592 112.8787 633.8898 112.8787 634.4121 113.2986 634.4121 113.3586 634.4774 113.7785 634.6732 114.7383 634.2815 115.8181 634.2162 116.0581 634.1509 116.178 633.7592 117.5578 633.1064 119.4174 632.0618 121.817 632.0618 121.877 631.9965 122.1769 631.6048 123.4367 631.4742 123.9166 631.4089 124.3365 631.3436 124.4565 631.1478 124.8164 631.0172 124.9964 629.6462 127.156 626.3818 131.2352 626.3165 131.2952 624.9455 133.3948 624.3579 133.8747 624.2926 133.9347 622.334 134.4746 620.1796 135.3144 619.4614 135.3744 619.3309 135.4344 618.678 135.4944 618.5474 135.5544 618.0251 135.6143 617.5681 135.7343 612.8675 137.414 611.0394 138.0739 609.9948 138.7337 610.1254 139.7536 609.7337 139.9935 608.9503 140.5934 607.5792 141.5532 604.5108 143.2929 601.7687 144.7926 599.6795 145.0325 598.4391 145.3325 598.1127 145.5724 597.9821 145.6924 597.3945 146.1123 596.4152 147.1921 595.6318 147.972 595.24 148.152 594.9136 148.2719 594.8483 148.3319 593.8037 148.2119 592.5633 148.5119 592.498 148.5119 591.4534 148.9318 591.3228 148.9318 590.9964 148.9918 590.2782 149.0518 589.4295 148.6919 588.7114 148.5119 587.5362 148.4519 584.6636 149.6517 577.4168 152.8911 573.4343 154.4508 571.0839 155.6505 569.9088 156.1904 569.5171 156.3704 569.1906 156.5504 567.8196 157.0903 567.4932 156.9103 566.9709 156.6703 565.7957 156.9703 564.7511 157.6901 563.9677 158.29 563.5107 158.59 560.3769 160.5096 559.9852 160.6896 559.2018 161.0495 557.3084 161.9493 555.8721 163.509 555.611 163.809 555.4804 163.869 555.2193 164.2289 554.8275 164.8888 554.0441 165.9686 553.3912 166.8684 553.8482 167.4683 557.6349 172.7473 559.8546 175.7467 562.7925 178.9261 565.4693 181.8055 568.8642 185.4648 583.0967 203.9413 583.3578 204.3013 601.3117 226.2571 607.6445 233.5157 607.8404 233.7556 607.8404 233.8156 608.6891 234.8954 609.342 234.7155 611.3006 234.1156 611.4312 233.9956 611.7576 233.8756 612.6063 233.4557 613.1939 233.2157 614.1079 232.7958 616.7194 231.716 619.2656 229.9764 620.3102 229.2565 621.0936 228.7166 624.0315 225.5972 623.9662 222.4778 623.9662 221.9379 623.9662 221.8179 625.3372 215.879 625.5331 214.8592 625.6637 214.3193 625.9248 213.1196 626.4471 211.2599 626.7083 210.1801 626.7735 210.0002 627.6876 208.7404 628.6669 207.9606 628.9933 207.5406 629.9726 206.0409 630.8213 204.8412 632.1923 202.1417 633.1716 200.0421 633.2369 199.9221 633.2369 199.8621 634.5427 197.1626 635.065 195.6629 635.7178 192.9634 635.979 191.3437 636.3054 190.3239 636.3054 190.2639 636.3707 190.084 637.4153 190.084 643.7481 190.024 649.428 189.784 650.4726 189.724 652.823 189.6041 659.8086 188.7642 660.6574 182.9453 672.1478 176.5865 679.46 182.8253 688.2737 190.024 689.3835 190.9238 690.1017 191.5237 698.5237 198.6023 701.2004 200.642 707.2068 205.1411 711.2546 208.2005 723.0062 217.2588 729.9919 222.8977 733.5174 225.8371 734.4314 226.557 734.562 226.437 734.6273 226.437 735.019 226.2571 736.1289 224.4574 Z"/>
</g>
</svg>