<?xml version="1.0"?>
<svg xmlns="http://www.w3.org/2000/svg" version="1.2" baseProfile="tiny" width="800" height="158" viewBox="0 0 800 158" stroke-linecap="round" stroke-linejoin="round" fill="#B8C4D6">
<g id="DISTRICTS_2018">
<path d="M 766.3659 156.698 766.5099 155.8616 766.4309 155.4349 766.561 154.5174 767.1508 152.9172 768.0285 150.3441 768.4372 149.6187 768.674 149.5802 768.9434 148.5646 768.8459 148.2318 768.9945 147.2461 769.2267 145.7099 769.3149 143.5037 769.0827 142.9319 768.9806 141.8224 769.2871 140.7172 769.5518 140.3161 770.1787 139.6419 770.0673 138.7415 769.8908 138.6391 769.7561 138.0801 769.4032 137.4656 769.4403 136.625 769.222 134.2695 769.1756 133.9622 769.0363 133.1045 768.9248 131.5171 769.431 130.2113 769.8072 129.1787 770.0301 128.1545 770.1276 127.7406 770.5503 126.8232 770.7592 125.7265 770.9125 125.4449 771.7856 124.3354 772.3568 122.9699 773.1417 122.3981 773.7361 121.7751 774.1169 121.071 774.507 120.7765 775.2036 120.4394 776.0303 119.842 777.5861 119.0227 778.5474 118.3527 779.7363 117.4396 779.8663 117.4225 780.0335 117.5462 780.9066 118.1863 781.2503 118.4424 781.2642 118.4509 781.5568 118.5789 781.7472 118.6301 782.1559 118.7453 782.7875 118.8819 783.5584 118.9459 784.2411 119.0739 784.7751 119.0867 785.351 119.0611 785.7643 119.0355 786.2334 119.1336 786.656 119.2361 787.5244 119.5006 787.8681 119.586 788.43 119.714 789.0059 119.7396 789.1499 119.7225 789.6003 119.6756 790.297 119.5348 790.9518 119.4238 791.1793 119.411 791.4069 119.3982 791.5927 119.3726 791.8481 119.4238 792.0896 119.4878 792.3171 119.7012 792.4983 119.9103 792.6608 120.1279 792.6608 120.6698 792.5493 121.2715 792.3636 122.0908 792.3171 122.4023 792.3311 122.7821 792.3636 123.0638 792.4054 123.3753 792.5261 123.7166 792.6469 124.105 792.7908 124.3695 792.9395 124.5573 793.2181 124.7834 793.5153 125.0096 794.0215 125.2614 794.6345 125.7478 795.02 126.0892 795.5401 126.5799 795.4008 126.6994 795.1454 126.9981 794.9875 127.1261 794.8342 127.2542 794.616 127.4846 794.3513 127.7108 794.0169 127.9199 793.9797 128.1033 793.9379 128.2058 793.6639 128.4191 793.6175 128.5301 793.5525 128.6154 793.5478 128.6965 793.5107 128.8032 793.1809 128.7776 792.8744 128.9056 792.7072 128.9525 792.5447 128.9653 792.2661 128.944 792.006 128.8629 791.7181 128.7392 790.7196 128.3594 790.5617 128.338 790.3713 128.2868 790.2923 128.2527 790.1205 128.0009 790.0462 127.9113 789.7211 127.7876 789.2753 127.698 789.1777 127.6596 789.0802 127.6211 789.0384 127.5059 789.0431 127.3523 789.0013 127.2627 788.7737 126.9896 788.5461 126.8232 788.4022 126.7464 788.2721 126.4477 788.091 126.3111 787.5616 126.0892 787.4826 126.0807 787.4455 126.1191 787.2458 126.4733 787.0879 126.8274 786.6792 127.2926 786.577 127.4462 786.3866 127.6681 785.6296 128.2826 785.4996 128.4661 785.3417 128.833 785.1792 129.4432 785.142 129.5713 784.9888 130.2412 784.933 130.4034 784.7891 130.7106 783.6373 132.5711 783.5909 132.6138 782.2673 133.0448 782.0723 133.1557 781.998 133.3008 781.9376 133.6123 781.9376 133.8214 781.8122 134.039 781.7332 134.2225 781.6404 134.3164 781.4314 134.4231 781.371 134.47 781.3431 134.5383 781.3199 134.7645 781.2921 134.8455 781.2317 134.8754 781.032 134.8669 781.0041 134.9096 781.0041 134.9949 780.9623 135.2211 780.888 135.3064 780.7998 135.4643 780.7394 135.6478 780.6233 135.7673 780.5629 136.2281 780.5629 136.5695 780.7255 136.7274 780.8787 136.7957 780.9809 136.8127 781.8122 137.1626 782.063 137.1712 782.3323 137.2053 782.6388 137.4059 782.7224 137.4229 782.9128 137.376 783.1822 137.4229 783.3122 137.3547 783.4516 137.2309 783.5723 137.2053 783.7581 137.2693 783.8742 137.3376 784.19 137.4229 784.5011 137.4443 784.7148 137.5638 784.9562 137.5595 785.0398 137.6022 785.1234 137.7131 785.1281 137.8241 785.1606 137.9009 785.4485 138.2551 785.56 138.4641 785.6343 138.5452 785.6482 138.5623 785.6807 138.5794 785.769 138.5836 786.1312 138.5452 786.2659 138.5495 786.3913 138.5196 786.5863 138.3361 786.7071 138.2636 787.0693 138.2422 787.269 138.1612 787.348 138.0929 787.4223 137.9862 787.478 137.8326 787.543 137.504 787.5895 137.4528 787.673 137.3973 787.9517 137.3717 788.0306 137.3973 788.235 137.4016 788.4904 137.4485 788.9223 137.4528 789.2102 137.4229 789.3078 137.3845 789.4982 137.3504 789.5911 137.3163 789.749 137.0517 789.8976 136.7018 790.088 136.3945 790.1716 136.3476 790.3991 136.3049 790.5849 136.2025 790.7846 136.1769 791.0818 136.2025 791.1933 136.2409 791.3001 136.3903 791.4766 136.4756 792.0339 136.4842 792.5261 136.5439 792.9395 136.5439 793.1299 136.5226 793.6175 136.4031 793.8822 136.2964 793.9333 136.1855 793.9333 136.1086 794.0494 135.699 794.1237 135.6051 794.2955 135.5283 794.3931 135.5155 794.4999 135.4856 794.6345 135.4728 794.7042 135.4643 794.876 135.5112 794.9921 135.5966 795.4891 135.7203 795.8467 135.6819 795.9628 135.7033 796.0464 135.7502 796.0974 135.8142 796.2693 135.8483 796.5526 135.9038 796.9798 136.4329 797.5 136.9877 797.4721 137.0816 797.4767 137.1797 797.5464 137.376 797.9226 137.6918 798.5309 137.9137 798.8514 138.0801 798.9721 138.1228 799 138.174 798.8653 138.4855 798.7399 138.7799 798.3452 139.4328 798.1455 139.8083 798.0758 139.9961 798.0805 140.0558 798.387 140.0729 798.6517 140.1028 798.6749 140.1625 798.6285 140.6148 798.5031 141.3189 798.4009 141.7328 798.2895 141.8011 798.1316 141.8011 797.8576 141.8865 797.5418 141.9462 797.4535 142.023 797.3142 142.2321 797.1749 142.518 797.003 142.7399 796.5711 143.0898 796.1857 143.333 795.7677 143.5549 795.7166 143.5507 795.6748 143.4824 795.5401 143.3629 795.4705 143.3586 795.3544 143.3928 795.2987 143.4525 795.2058 143.5976 795.0339 143.7854 794.9782 143.8664 794.7089 144.067 794.5417 144.1395 794.3559 144.2462 794.2444 144.2889 794.1841 144.3444 794.0587 144.3785 793.8451 144.3273 793.6361 144.3188 793.5896 144.3358 793.5107 144.4084 793.4457 144.4126 793.2181 144.2761 792.9395 144.0713 792.8977 144.0755 792.8233 144.131 792.7816 144.131 792.6933 144.1011 792.5447 144.003 792.3264 144.0713 792.1639 144.1779 792.0106 144.2505 791.876 144.37 791.8388 144.4681 791.8063 144.6388 791.602 144.7967 791.5091 144.8479 791.2351 144.8479 791.2258 144.8479 791.1329 144.8308 791.0447 144.8522 790.9518 144.8948 790.8682 144.8479 790.6313 144.8223 790.5988 144.8607 790.6035 144.9418 790.622 145.0314 790.6406 145.2917 790.6964 145.6416 790.7242 146.0683 790.8217 146.8492 790.9378 147.468 790.9889 147.5747 791.105 147.7197 791.6716 148.044 791.9363 148.3172 792.2568 148.6031 792.3079 148.6671 792.2939 149.3199 792.2475 149.6101 792.215 149.6571 792.2289 149.7381 792.6097 149.9984 793.3853 150.5745 793.7522 150.6684 793.9519 150.7495 794.277 150.9714 795.3172 151.4536 795.8838 151.7437 795.9999 151.8333 796.0464 151.8845 796.0417 151.9358 795.986 151.9955 795.9581 152.0894 795.8699 152.2515 795.6005 152.6185 795.5123 152.691 795.373 152.7764 795.1547 152.8276 794.7599 152.977 794.4163 153.1988 794.0355 153.5957 793.8961 153.8944 793.8172 154.1419 793.7104 154.7777 793.5525 154.7777 793.1577 154.7436 792.4983 154.718 792.2475 154.7265 792.0013 154.7393 791.6763 154.7948 791.2536 154.8247 790.6778 154.91 790.0555 155.1191 789.749 155.2471 789.4471 155.3794 789.0616 155.6098 788.7226 155.7634 788.3186 155.8957 788.2025 155.9085 787.961 155.8403 787.8635 155.8275 787.7474 155.7762 786.9393 155.6098 786.108 155.3111 785.3881 155.2556 784.6312 155.1575 784.2921 155.0551 783.8788 154.9271 783.8602 154.9057 783.6652 154.5857 783.6048 154.3339 783.5909 154.1803 783.6234 154.0651 783.5955 153.9883 783.3587 153.8005 783.2937 153.7749 783.1915 153.7664 782.9268 153.8005 782.8293 153.8347 782.3138 153.8517 782.1837 153.8816 782.1187 153.9243 782.0119 154.0779 781.9237 154.1035 781.4267 154.1163 781.2085 154.1547 780.9066 154.2272 780.7766 154.3041 780.5304 154.4875 780.2518 154.7735 780.1496 154.9953 780.1217 155.0209 779.8292 154.9484 779.6155 154.8716 779.4019 154.7905 778.0505 154.4022 776.8569 154.1078 776.5969 154.0395 776.0442 153.8944 775.4405 153.8731 775.2919 153.9115 774.7903 154.2272 774.3398 154.4022 774.1169 154.4577 773.7036 154.5046 773.5364 154.4961 772.5472 154.4406 772.1803 154.5132 771.7624 154.8503 770.7778 155.8061 770.5503 155.9896 769.993 156.6297 769.5471 156.89 769.2267 157.0223 768.9016 157.1546 768.6601 157.2015 768.3304 157.2271 767.9263 157.1247 767.6988 157.018 766.3659 156.698 Z"/>
<path d="M 52.7027 11.2285 52.582 11.2883 52.2941 11.3309 51.8947 11.3779 51.3792 11.4931 50.6315 11.7918 50.116 12.0606 49.8652 12.1289 49.8002 12.1289 49.7073 12.1332 49.633 12.1374 49.2522 12.4404 49.0293 12.5855 48.8667 12.658 48.5138 12.897 47.6314 13.5584 47.4085 13.7163 46.9998 14.0705 46.4657 14.6892 46.345 14.8898 46.201 15.2098 46.0431 15.5853 45.8202 15.9737 45.5973 16.3748 45.4812 16.6266 45.1654 16.8954 44.9192 17.0874 44.6592 17.8427 44.5756 18.342 44.8449 18.4999 45.3372 18.5297 45.6019 18.662 45.8806 18.6108 46.7119 19.3618 46.828 19.3405 47.088 19.3789 47.0741 19.5112 47.3388 19.588 47.506 19.7758 47.9565 19.763 47.9472 19.6307 48.0076 19.5283 48.2398 19.5027 48.8342 19.6093 48.8574 19.3362 49.0757 19.3405 49.0711 19.4984 49.1361 19.5496 49.1779 19.6008 49.1732 19.6989 49.15 19.7928 49.0803 19.8654 48.9642 19.8398 48.9039 19.8782 48.7831 20.0062 48.7274 20.0873 48.7506 20.2323 48.7228 20.3476 48.6577 20.4585 48.6066 20.5183 48.5509 20.6207 48.4348 20.7103 48.3698 20.7786 48.2351 20.8511 48.1562 20.8596 48.0819 20.9023 48.0076 20.9578 47.9379 21.0389 47.8404 21.2138 47.7428 21.3973 47.6035 21.5552 47.4688 21.6107 47.3574 21.6576 47.297 21.6875 47.1345 21.6875 47.0509 21.7216 46.9533 21.76 46.8605 21.7984 46.7583 21.8795 46.6933 21.9264 46.6097 21.9392 46.5168 21.9179 46.475 21.8496 46.4471 21.7899 46.3682 21.7685 46.2567 21.807 46.1871 21.871 46.1174 21.9094 46.0199 22.0032 45.9363 22.0715 45.8341 22.1483 45.7598 22.1825 45.653 22.2678 45.5973 22.3148 45.4254 22.2891 45.3558 22.2422 45.2815 22.1995 45.2118 22.1441 45.0818 22.0758 44.9982 22.0246 44.9192 21.9776 44.831 21.935 44.7195 21.9136 44.6592 21.9606 44.5849 22.0502 44.5756 22.1398 44.5616 22.2123 44.5106 22.2934 44.4548 22.3574 44.4037 22.4086 44.3387 22.4556 44.2783 22.4556 44.2366 22.4086 44.1576 22.3617 44.0415 22.3318 43.9765 22.3446 43.9068 22.3873 43.8093 22.4684 43.7443 22.5452 43.6653 22.6305 43.5771 22.7073 43.5028 22.7372 43.4238 22.7884 43.3263 22.8311 43.2334 22.878 43.1591 22.9292 43.0059 23.0103 42.8758 23.0914 42.769 23.1469 42.6947 23.2151 42.5461 23.3175 42.4764 23.3645 42.3928 23.4157 42.286 23.4541 42.2071 23.501 42.1142 23.5608 42.0631 23.5906 41.9935 23.5992 41.9191 23.6291 41.8681 23.6845 41.8309 23.7528 41.7845 23.8211 41.7427 23.868 41.7009 23.9022 41.608 23.9448 41.5198 23.9704 41.4315 24.0259 41.3386 24.1326 41.2365 24.2734 41.1482 24.3758 41.1297 24.4697 41.0321 24.6532 40.8742 24.7428 40.8046 24.9391 40.656 25.1183 40.4563 25.1396 40.3402 25.1055 40.1869 25.0415 40.1637 24.8409 40.2101 24.5465 40.2008 24.4569 40.1405 24.427 39.9779 24.4142 39.755 24.4228 39.676 24.4697 39.416 24.4697 39.1373 24.4142 39.0027 24.4313 38.9005 24.4526 38.7147 24.4185 38.5475 24.363 38.4314 24.1966 38.4779 24.043 38.4918 23.868 38.4082 23.7571 38.3385 23.6504 38.2457 23.4498 38.1992 23.2322 38.0599 23.1554 37.837 23.1213 37.5816 23.0871 37.0754 23.0829 36.8757 23.1725 36.4391 23.1426 36.2859 23.2407 36.193 23.4157 36.0397 23.5266 35.8865 23.5864 35.6868 23.6419 35.4778 23.6888 35.3663 23.6973 35.2781 23.6973 35.1991 23.6461 35.1248 23.6035 35.0412 23.5864 34.8323 23.6035 34.7719 23.5821 34.7208 23.548 34.6047 23.4242 34.5815 23.3047 34.5443 23.1853 34.4561 23.1298 34.3446 23.1511 34.275 23.1895 34.196 23.1853 34.0799 23.1682 33.9359 23.181 33.857 23.2194 33.7362 23.356 33.6759 23.4626 33.6062 23.5266 33.453 23.5864 33.2161 23.6291 32.8864 23.7955 32.7145 23.8979 32.5288 24.0046 32.3152 24.1113 32.1155 24.2179 31.8275 24.3161 31.6325 24.3929 31.4328 24.4441 31.1913 24.4185 31.038 24.41 30.8894 24.3417 30.6293 24.2051 30.4993 24.043 30.4482 23.915 30.4575 23.7443 30.425 23.5906 30.3553 23.5736 30.1556 23.676 30.0535 23.7101 29.9002 23.6376 29.8398 23.5565 29.8213 23.4669 29.7934 23.3602 29.7098 23.2877 29.6309 23.4072 29.4683 23.612 29.4405 23.6675 29.3894 23.7571 29.2826 23.7741 29.2222 23.7613 29.1432 23.6632 29.0411 23.6333 28.9714 23.6632 28.8599 23.6632 28.7113 23.6589 28.5209 23.5736 28.3584 23.501 28.2887 23.4712 28.1215 23.5266 28.0194 23.6163 27.9776 23.6589 27.8986 23.6803 27.7593 23.6163 27.6757 23.5736 27.6153 23.4882 27.5457 23.4541 27.4249 23.4456 27.1927 23.3389 27.0905 23.2578 26.9744 23.2066 26.863 23.1853 26.6679 23.1511 26.4032 23.0572 26.2918 22.9847 26.1849 22.9762 26.0224 22.9762 25.7902 22.9676 25.6509 22.9378 25.4883 22.8652 25.3815 22.75 25.3304 22.6604 25.3304 22.5708 25.4001 22.5068 25.4976 22.4086 25.5812 22.255 25.5766 22.1313 25.4605 22.0118 25.2793 21.9136 24.9357 21.8155 24.5967 21.7003 24.1323 21.5637 23.5332 21.3973 23.1802 21.3077 22.8783 21.2479 22.5858 21.2095 22.3071 21.1583 21.8427 21.1498 21.4898 21.1669 21.0671 21.2266 20.6399 21.3162 20.2637 21.4314 19.9108 21.504 19.8086 21.504 19.4649 21.5936 19.177 21.6747 18.9727 21.696 18.7265 21.7173 18.485 21.7813 18.2342 21.8539 17.9835 21.9606 17.6212 22.191 17.4122 22.366 17.2683 22.5324 17.05 22.7329 16.9153 22.8482 16.8271 22.9207 16.5763 23.2877 16.3766 23.9064 16.3905 24.299 16.5206 24.5636 16.5717 24.6788 16.6088 24.8025 16.567 24.9178 16.423 24.9903 16.3023 25.0671 16.2326 25.1226 16.2326 25.1781 16.3023 25.2122 16.3673 25.1781 16.423 25.1567 16.5345 25.1396 16.8271 25.1311 16.9989 25.0884 17.0779 25.0756 17.1475 25.1781 17.0593 25.3402 16.8503 25.5194 16.4834 25.656 16.3534 25.7243 16.2234 25.8779 16.1026 26.0144 15.9029 26.104 15.6939 26.1851 15.4896 26.168 15.2202 26.087 15.0577 26.04 14.9276 25.9931 14.9184 25.9035 14.9462 25.7883 14.9973 25.7157 15.0577 25.6517 15.1088 25.5365 15.1088 25.4469 15.0159 25.3146 14.9369 25.2207 14.7744 25.1226 14.5979 25.1055 14.4632 25.1311 14.3564 25.1567 14.2543 25.1951 14.2125 25.2421 14.2543 25.3146 14.4122 25.4085 14.4725 25.4725 14.4261 25.528 14.4122 25.609 14.2914 25.6645 14.1753 25.6816 13.9431 25.6645 13.6134 25.6218 13.3347 25.6389 13.2047 25.6474 13.0654 25.6474 12.94 25.7115 12.7821 25.7669 12.5824 25.8181 12.4105 25.8395 12.1876 25.8736 11.7325 25.9547 11.6164 26.0272 11.4539 26.0102 11.1102 26.087 10.8966 26.104 10.6179 26.1211 10.4368 26.1382 10.3532 26.1382 10.1535 26.1296 10.0513 26.087 9.8795 26.0059 9.782 25.9718 9.6194 25.9718 9.5312 25.9675 9.2758 25.7883 9.2386 25.6901 9.2386 25.592 9.2897 25.5024 9.3965 25.4128 9.4569 25.3402 9.4987 25.225 9.5684 25.1525 9.6612 25.0799 9.7681 25.0458 9.8609 25.0244 9.9445 24.9988 10.0049 24.9647 10.0421 24.8708 10.0421 24.794 9.9631 24.6404 9.9027 24.4868 9.8145 24.3459 9.6659 24.2009 9.4848 24.0856 9.3547 23.9491 9.2015 23.8083 9.0529 23.6547 8.8717 23.5565 8.5699 23.3858 8.2169 23.2066 7.7618 22.989 6.7773 22.6177 6.4429 22.5281 6.2803 22.494 5.9506 22.4044 5.6302 22.3404 5.5187 22.3404 5.2772 22.3489 4.8871 22.3105 4.367 22.2635 3.8933 22.255 3.3824 22.2891 2.7369 22.2379 2.4815 22.2123 1.9799 22.1526 1.8174 22.1441 1.5759 22.1697 1.3158 22.1867 1.2276 22.2422 1.1022 22.2934 1 22.3446 1.0046 22.2465 1.1393 21.3674 1.1718 21.0389 1.2508 20.4628 1.3808 20.0873 1.4876 19.9038 1.6734 19.6477 2.0635 19.2893 2.24 19.1527 2.3468 18.9863 2.5604 18.7559 2.6672 18.6321 2.6997 18.1884 2.6997 17.9409 2.7601 17.5525 2.9505 17.16 3.0759 16.9893 3.2152 16.8143 3.3964 16.6436 3.5868 16.4559 3.7725 16.3065 4.0419 16.1188 4.2834 15.9822 4.5342 15.8414 4.8871 15.7091 5.3097 15.5085 5.4676 15.4659 5.9413 15.3165 6.2711 15.2312 6.6008 15.1928 6.7308 15.1842 7.1952 15.1458 7.4228 15.116 7.9801 15.0818 8.5049 15.0733 8.8671 15.0349 9.378 14.9879 9.8006 14.941 10.1071 14.8599 10.2557 14.8258 10.5994 14.7276 11.1752 14.5612 11.5793 14.4076 12.0483 14.2497 12.457 14.1601 12.7589 14.062 12.9818 13.9723 13.2697 13.7974 13.4926 13.6822 13.6319 13.5883 13.9617 13.4304 14.1474 13.3579 14.3193 13.2981 14.8115 13.2725 15.2342 13.2597 15.6382 13.2341 15.9633 13.2 16.1908 13.1914 16.2884 13.1274 16.4556 13.0976 16.5949 13.0464 16.7063 12.9866 16.8457 12.8202 16.985 12.6367 17.0825 12.4831 17.18 12.3337 17.2636 12.1929 17.3751 12.0564 17.4819 11.8899 17.677 11.7235 17.8813 11.5614 18.0763 11.412 18.1553 11.3565 18.1832 10.9853 18.3457 9.6966 18.3782 9.3893 18.3968 9.24 18.4107 9.0778 18.5733 9.1589 18.8473 9.3851 18.9959 9.5344 19.0841 9.6411 19.2513 9.7563 19.3721 9.8203 19.5207 9.8459 19.7482 9.8715 19.8318 9.8715 20.0129 9.991 20.0733 10.1617 20.1244 10.4476 20.208 10.6652 20.2962 10.8487 20.4356 11.045 20.6306 11.2371 20.7839 11.3267 20.9185 11.412 21.1089 11.4504 21.3411 11.476 21.6059 11.4888 21.8845 11.4547 22.1539 11.4461 22.4929 11.4333 22.6786 11.4077 23.1802 11.5614 23.366 11.7534 23.5703 11.9326 23.9372 12.274 24.2669 12.5002 24.7406 12.769 25.0982 12.9653 25.2979 13.1104 25.6044 13.2341 25.9992 13.2426 26.2453 13.1744 26.5658 13.0976 26.8165 12.9866 27.0302 12.897 27.267 12.8074 27.5875 12.7306 28.024 12.6026 28.3212 12.5343 28.6185 12.4575 28.925 12.3807 29.2315 12.3807 29.8166 12.402 30.4064 12.3807 30.973 12.3636 31.3074 12.3081 31.7579 12.2527 32.148 12.0948 32.7285 11.9625 33.0721 11.7961 33.5133 11.6723 33.7734 11.587 34.0102 11.523 34.2239 11.5443 34.4375 11.6424 34.614 11.8003 34.9344 12.1673 35.1945 12.4916 35.3617 12.7818 35.3849 12.9695 35.4174 13.217 35.4174 13.3749 35.4453 13.7547 35.5614 14.0363 35.6821 14.2156 35.775 14.3393 35.919 14.4076 36.0815 14.4631 36.3555 14.4716 36.7456 14.4631 37.1264 14.4631 37.4655 14.4972 37.5537 14.51 37.9206 14.5868 38.4639 14.685 39.0677 14.8727 39.3788 14.9837 39.5785 15.0306 39.899 15.1629 40.0662 15.3293 40.3727 15.6067 40.7024 15.9651 40.9764 16.1913 41.2272 16.4004 41.6266 16.7076 41.8774 16.8399 41.9842 16.9295 42.1467 17.0533 42.3278 17.0661 42.4346 17.0661 42.5647 16.9637 42.6483 16.729 42.7644 16.1614 42.8387 15.7176 43.0291 14.8983 43.0755 14.6764 43.1684 14.3905 43.2984 14.0022 43.3588 13.7803 43.5028 13.5371 43.6932 13.3024 43.9068 13.1445 44.1437 13.0336 44.4734 12.9653 44.7938 12.9226 45.2072 12.8757 45.3511 12.8458 45.5044 12.7092 45.6251 12.577 45.6948 12.4105 45.862 12.1801 46.0663 12.0606 46.2567 12.0052 46.54 11.9838 46.8465 11.9838 47.0741 11.9155 47.3435 11.7278 47.4735 11.5827 47.6407 11.3565 47.8079 11.156 47.9751 10.9213 47.9983 10.789 48.0679 10.7122 48.2723 10.6098 48.5184 10.5458 48.8017 10.4348 49.0525 10.2343 49.2893 10.0806 49.4426 9.9014 49.503 9.624 49.5262 9.4576 49.633 9.4107 49.8002 9.432 50.8172 9.5643 50.9241 9.7393 51.7832 10.4476 51.8622 10.5116 51.9365 10.5714 52.0061 10.6354 52.7027 11.2285 Z M 109.5929 2.6685 109.2493 2.7538 109.1657 2.6685 109.1285 2.4679 109.2353 2.2887 109.4861 2.0327 109.6394 1.8065 109.5326 1.559 109.3979 1.4779 109.2261 1.3883 109.1425 1.3158 109.161 1.128 109.3468 1 109.5326 1.0512 109.5651 1.1408 109.5744 1.2176 109.5883 1.303 109.658 1.5078 109.7369 1.6486 109.8298 1.7425 110.1131 1.8961 110.2245 2.0625 110.2663 2.293 110.2013 2.4253 110.0806 2.5618 109.8762 2.5746 109.7926 2.5831 109.5929 2.6685 Z"/>
</g>
</svg>