<?xml version="1.0"?>
<svg xmlns="http://www.w3.org/2000/svg" version="1.2" baseProfile="tiny" width="800" height="700" viewBox="0 0 800 700" stroke-linecap="round" stroke-linejoin="round" fill="#B8C4D6">
<g id="DISTRICTS_2018">
<path d="M 490.0141 582.7866 490.1029 582.816 490.2861 582.8249 490.3388 583.0021 490.3805 583.0774 490.4207 583.1692 490.4693 583.2189 490.5706 583.261 490.5775 583.3388 490.54 583.6257 490.5137 583.7468 490.4637 584.0082 490.207 583.9891 489.9988 583.9687 489.9905 584.0567 489.7893 584.0069 489.6699 584.3015 489.5922 584.4864 489.527 584.6114 489.4854 584.693 489.3119 584.5961 489.1495 584.4469 489.0246 584.3091 488.8553 584.0337 488.8081 583.9738 488.693 583.8412 488.7138 583.4561 488.729 583.3451 488.7734 583.0684 488.8456 582.5737 488.8456 582.5724 489.0718 582.5571 489.1412 582.5584 489.255 582.5405 489.3147 582.5571 489.4992 582.6298 489.6921 582.714 489.9475 582.7764 489.9974 582.7841 490.0141 582.7866 Z M 491.7238 581.7143 491.9889 582.6757 490.7371 582.5941 490.8079 581.6186 491.7238 581.7143 Z M 504.2635 580.3129 504.2621 580.3256 504.251 580.4225 504.2316 580.5284 504.1511 580.7273 504.1441 580.7592 504.1108 580.8153 504.0622 580.9071 504.0137 581.0219 503.997 581.1022 503.9762 581.2221 503.936 581.4184 503.886 581.6046 503.843 581.7525 503.7791 581.9782 503.7292 582.1478 503.6806 582.3136 503.6418 582.4283 503.6209 582.4883 503.5835 582.6655 503.5446 582.8338 503.503 583.048 503.4558 583.1998 503.4086 583.3872 503.3809 583.5058 503.3795 583.5147 503.3712 583.567 503.3462 583.6537 503.3462 583.6843 503.3309 583.7302 503.317 583.8093 503.2865 583.9113 503.2587 584.0197 503.2421 584.1549 503.1991 584.378 503.1533 584.5795 503.1325 584.7248 503.0978 584.9021 503.0658 584.9977 503.07 585.0372 503.0492 585.2145 503.0284 585.4019 502.9923 585.6264 502.9673 585.7666 502.9423 585.9655 502.9423 585.9643 502.5454 585.9043 502.1014 585.838 502.0958 585.838 502.0223 585.8266 501.6781 585.7577 501.6032 585.7437 501.5504 585.8686 501.4436 586.0242 501.3742 586.079 501.2271 586.1007 501.1438 586.4539 501.1383 586.4756 500.9259 586.473 500.7441 586.4093 500.493 586.3175 500.468 586.3825 500.3528 586.3481 500.2376 586.3315 500.1335 586.3494 500.0669 586.3328 500.0045 586.2933 500.0086 586.2486 499.9698 586.241 499.9323 586.204 499.924 586.1415 499.9226 586.1071 499.9198 586.0727 499.9545 585.9732 499.9781 585.9043 499.9781 585.8929 499.9781 585.8635 499.9781 585.8495 499.9504 585.7666 499.9684 585.722 499.9892 585.6837 500.0336 585.6493 499.9837 585.4874 499.831 585.5613 499.7713 585.5333 499.7672 585.3446 499.4244 585.2158 499.3966 585.2451 499.3758 585.268 499.3689 585.2744 499.3467 585.2744 499.2995 585.2744 499.2828 585.3025 499.1496 585.3101 499.1011 585.365 498.9651 585.3382 498.922 585.5078 498.8499 585.5945 498.8568 585.6493 498.8429 585.7909 498.7347 585.7807 498.7278 585.7807 498.718 585.7998 498.6528 585.9145 498.5376 586.0255 498.5418 586.1594 498.5099 586.1938 498.4474 586.2014 498.4363 586.2614 498.4322 586.2882 498.4086 586.4437 498.3461 586.6426 498.3461 586.6936 498.3461 586.6949 498.3447 586.7944 498.292 587.0022 498.2545 587.1527 498.1546 587.1667 498.045 587.1387 497.8673 587.1132 497.7008 587.1272 497.5287 587.066 497.3997 586.9869 497.0985 586.8416 496.9945 586.7867 496.814 586.6924 496.6267 586.5929 496.6003 586.5802 496.499 586.533 496.4102 586.5011 496.3478 586.4896 496.2298 586.4896 496.0036 586.5177 495.8593 586.5343 495.6775 586.5304 495.4263 586.5164 495.3403 586.5024 495.2737 586.4858 495.1834 586.4373 495.1099 586.408 494.9892 586.3787 494.7532 586.3098 494.6533 586.2576 494.5798 586.2065 494.5215 586.1441 494.4396 586.0472 494.3161 585.8878 494.2467 585.7985 494.0136 586.0242 493.9067 585.94 493.7888 585.8406 493.6916 585.7564 493.6514 585.7233 493.6056 585.6837 493.4002 585.5103 493.2573 585.3879 493.1948 585.3318 493.1282 585.2527 493.2115 584.9901 493.3114 584.6891 493.3155 584.6904 493.4196 584.6981 493.514 584.6917 493.6458 584.6713 493.6569 584.6369 493.6666 584.5463 493.6764 584.5425 493.7874 584.5438 493.9428 584.554 494.0677 584.5706 494.2148 584.6063 494.3591 584.6675 494.3577 584.6318 494.3563 584.5081 494.3675 584.4749 494.441 584.3653 494.3355 584.2989 494.3328 584.2326 494.3439 584.0618 494.3938 583.919 494.4035 583.8986 494.5867 583.9113 494.6422 583.9113 494.6506 583.8845 494.6769 583.5772 494.6783 583.5657 494.627 583.5288 494.5673 583.4956 494.5326 583.4382 494.5257 583.3719 494.5312 583.2406 494.5576 583.0353 494.559 583.0264 495.0003 583.0608 495.1876 583.0748 495.1793 583.1666 495.3319 583.1539 495.6012 583.1488 495.8759 583.159 495.8954 582.9868 495.8981 582.8032 495.8995 582.7879 495.8676 582.779 495.8024 582.7497 495.751 582.7152 495.7177 582.6515 495.708 582.5686 495.7066 582.4883 495.7469 582.3709 495.7719 582.3136 495.7663 582.274 495.7566 582.2383 495.7108 582.1975 495.6525 582.1657 495.5568 582.1248 495.5443 582.0203 495.547 581.7219 495.5262 581.458 495.5137 581.4006 495.3985 581.3878 495.3972 581.2514 495.4332 580.8739 495.4846 580.3295 495.1848 579.9622 495.1377 579.9112 495.1571 579.8844 495.189 579.8844 495.2265 579.8895 495.2723 579.8997 495.3042 579.9036 495.3278 579.9023 495.3861 579.9023 495.4527 579.8959 495.5151 579.887 495.5498 579.8819 495.6456 579.8857 495.8551 579.8946 496.0452 579.9023 496.1674 579.915 496.166 579.8972 496.1563 579.8105 496.0758 579.5287 496.0189 579.2877 495.9939 579.0582 496.0758 579.0467 496.0883 579.0862 496.1007 579.1806 496.1105 579.2048 496.1341 579.2086 496.1535 579.2022 496.1798 579.1767 496.2159 579.1398 496.252 579.1232 496.2714 579.1347 496.2839 579.1767 496.2784 579.2163 496.3061 579.252 496.3367 579.2749 496.4407 579.2992 496.5101 579.3094 496.6017 579.2953 496.6614 579.2928 496.7197 579.3081 496.7877 579.3412 496.8515 579.3693 496.9167 579.3871 496.9986 579.3986 497.0833 579.4024 497.1721 579.4216 497.3997 579.4713 497.6522 579.66 497.6453 579.7148 497.7383 579.7442 497.8757 579.7888 497.8993 579.7365 498.224 579.8424 498.2254 579.9214 498.4169 579.9507 498.4766 579.9852 498.4946 580.0336 498.6931 580.0706 498.8138 580.1127 498.9484 580.1879 498.9859 580.2083 499.1011 580.2734 499.1954 580.2899 499.2509 580.2899 499.2565 580.3091 499.2606 580.3282 499.2648 580.3652 499.3037 580.3894 499.3231 580.3945 499.3425 580.3996 499.3439 580.4174 499.3564 580.5054 499.3453 581.1047 499.3273 581.3406 499.3189 581.4031 499.3162 581.4197 499.3356 581.4248 499.6409 581.5115 499.6492 581.5867 499.8962 581.5982 499.9212 581.5995 499.9184 581.5778 499.9129 581.5217 499.9101 581.5 499.9295 581.5026 500.0295 581.5192 500.0392 581.5918 500.2626 581.5906 500.2751 581.4682 500.2765 581.4605 500.2806 581.4401 500.3001 581.3432 500.2973 581.171 500.2959 581.1545 500.3167 581.157 500.3722 581.1634 500.4208 581.0882 500.393 581.0614 500.4541 580.9007 500.4597 580.888 500.4833 580.888 500.6262 580.8841 500.6387 580.8854 500.7025 580.7796 500.7206 580.7515 500.7691 580.6686 500.7941 580.6355 500.8163 580.6074 500.8496 580.5615 500.8912 580.5271 501.1077 580.5118 501.1577 580.5118 501.1868 580.5118 501.2299 580.5118 501.2992 580.5322 501.3478 580.5501 501.3867 580.536 501.4491 580.5246 501.5227 580.5756 501.5685 580.6036 501.6448 580.5717 501.7183 580.5858 501.8252 580.6087 501.8446 580.6125 501.8516 580.6253 501.9501 580.8051 502.0528 580.8051 502.1222 580.8918 502.193 580.8497 502.4552 580.99 502.5343 581.0168 502.6148 580.9989 502.8244 580.9058 502.8868 580.8956 502.9118 580.8994 502.9396 580.9058 502.9409 580.9058 502.9715 580.93 502.9715 580.9313 502.9812 580.9568 502.9798 580.9594 502.9604 580.9913 502.9826 581.0282 502.9923 581.0907 502.8743 581.1838 502.8632 581.2106 502.8535 581.2361 502.8549 581.2386 502.9063 581.3177 502.9618 581.3521 503.0464 581.3827 503.1227 581.3712 503.1436 581.3687 503.1519 581.3636 503.2102 581.3202 503.2407 581.231 503.2449 581.0333 503.2449 581.0168 503.2601 581.0078 503.342 580.9607 503.4433 580.8803 503.4808 580.8535 503.4947 580.8433 503.5016 580.8255 503.5127 580.7949 503.5335 580.7184 503.5155 580.6533 503.4169 580.5271 503.392 580.4889 503.3823 580.4085 503.2782 580.3409 503.138 580.3205 502.9645 580.3473 502.8077 580.4391 502.7342 580.4493 502.7023 580.4519 502.6856 580.4531 502.6898 580.4251 502.7064 580.3231 502.7092 580.3116 502.7231 580.3091 502.8771 580.2836 503.0436 580.2479 503.0894 580.2415 503.1561 580.2198 503.2143 580.1815 503.2421 580.1433 503.249 580.1331 503.2435 580.1152 503.224 580.0617 503.1658 579.8232 503.1602 579.8041 503.163 579.7952 503.1783 579.7493 503.231 579.7059 503.3254 579.7187 503.3947 579.748 503.4156 579.7569 503.4239 579.7646 503.4836 579.8283 503.5224 579.9724 503.5543 580.0617 503.596 580.179 503.6973 580.2721 503.8416 580.3091 503.9776 580.3154 504.1386 580.3103 504.2524 580.3129 504.2635 580.3129 Z M 486.2422 579.2328 486.2922 579.3196 486.3643 579.3527 486.5475 579.405 486.8972 579.5223 487.0873 579.5924 487.1831 579.6396 487.1984 579.7391 487.1914 579.8742 487.1581 579.9967 487.1206 580.1216 487.0943 580.2581 487.0582 580.3983 486.9999 580.5501 486.9472 580.661 486.9083 580.7554 486.9139 580.7974 486.9472 580.8535 486.9971 580.9084 487.0596 581.0027 487.215 581.1685 487.2886 581.245 487.3996 581.3062 487.5592 581.3585 487.7923 581.3967 487.9588 581.4184 488.2003 581.4707 488.3044 581.4886 488.2947 582.2205 488.3002 582.5138 487.8575 582.4972 487.6105 582.4997 487.5828 582.5023 487.5272 582.5393 487.4565 582.6247 487.4079 582.7038 487.3843 582.7267 487.2997 582.7165 487.1442 582.6744 487.0499 582.6604 486.9805 582.7369 486.9361 582.7497 486.8917 582.7446 486.7904 582.6617 486.6932 582.6221 486.4601 582.5915 486.3185 582.5737 486.1742 582.5724 486.084 582.5558 485.9799 582.501 485.8273 582.464 485.565 582.4475 485.5553 582.3773 485.3679 582.348 485.3735 582.2919 485.3915 582.2167 485.4262 582.1287 485.4429 582.0114 485.4484 581.9425 485.3304 581.9196 485.2153 581.8877 485.2333 581.8035 485.1528 581.7538 485.1376 581.6492 485.0571 581.6301 484.9169 581.6059 484.7851 581.5906 484.7393 581.574 484.7448 581.4222 484.749 581.3865 484.8198 581.3559 484.8447 581.3445 484.8711 581.3075 484.8947 581.2692 484.9155 581.2412 484.978 581.208 485.0099 581.1876 485.021 581.1583 485.0307 581.0639 485.0279 581.0002 485.0501 580.9096 485.0751 580.7923 485.0959 580.6788 485.1181 580.6036 485.1278 580.5692 485.1334 580.5297 485.1376 580.5029 485.1556 580.4353 485.1695 580.304 485.25 580.2249 485.3096 580.1407 485.3235 580.0591 485.318 580.0183 485.2999 579.8921 485.3055 579.6817 485.2611 579.6664 485.3263 579.2915 485.472 579.2941 485.4887 579.062 485.7093 579.0824 485.9827 579.113 486.0313 579.1512 486.1076 579.2086 486.2269 579.2086 486.2422 579.2328 Z M 491.6627 575.586 491.6516 575.7619 491.6239 575.98 491.6169 576.2439 491.6128 576.4696 491.5975 576.6673 491.5864 576.7871 491.5753 577.0575 491.3338 577.1327 491.2103 577.1608 491.227 576.9924 491.2506 576.7871 491.2936 576.3319 491.3436 575.8333 491.3477 575.5554 491.5656 575.6025 491.6128 575.5235 491.6502 575.5401 491.6627 575.586 Z M 483.5305 574.7125 483.9816 574.7406 484.0038 574.2726 484.0163 574.0775 484.0232 573.9155 484.0135 573.8671 484.0149 573.8237 484.0884 573.8773 484.1536 573.9066 484.3549 573.9423 484.6532 574.0418 484.7601 574.0788 484.7601 574.1553 484.742 574.2637 484.7115 574.5442 484.6838 574.7865 484.8905 574.8018 485.1459 574.7903 485.2319 574.7814 485.3762 574.789 485.6177 574.8183 485.6288 575.0874 485.6288 575.2149 485.6385 575.4419 485.6399 575.8104 485.633 575.9685 485.7829 575.9698 486.0229 575.9864 486.1728 575.9953 486.3213 576.0068 486.5725 576.0131 486.7085 576.0157 486.7154 576.1789 486.7904 576.1866 486.8819 576.1866 486.8889 576.2924 486.9777 576.3 486.9846 576.3153 487.0166 576.3396 487.0651 576.3459 487.1304 576.3345 487.1831 576.3396 487.2941 576.3485 487.301 576.4033 487.2983 576.5525 487.3663 576.5614 487.3843 576.8547 487.3857 576.8726 487.3857 576.8841 487.376 577.0549 487.3732 577.0549 487.1664 577.0626 487.1789 577.2781 487.1206 577.2832 487.0554 577.4234 486.9472 577.5956 486.8181 577.806 486.739 577.9437 486.7265 578.0113 486.7251 578.0648 486.6113 578.0814 486.603 578.1337 486.3713 578.1566 486.2477 578.1719 486.2422 578.2599 486.2103 578.2867 486.1312 578.3186 486.0354 578.3377 485.8314 578.3441 485.6358 578.353 485.5608 578.3556 485.4595 578.3581 485.4595 578.2905 485.2416 578.2663 484.9682 578.214 484.6449 578.1477 484.5242 578.1184 484.2647 578.0572 484.0565 578.0189 483.8289 577.996 483.543 577.9488 483.2891 577.9246 483.0823 577.8799 483.0296 577.8187 483.0462 577.7205 483.074 577.5816 483.0865 577.3508 483.1059 577.1442 483.135 576.754 483.1309 576.6418 483.278 576.5844 483.2766 576.3562 483.2613 576.2197 483.2752 576.0552 483.1517 576.0501 482.931 576.0743 482.7936 576.096 482.5536 576.0705 482.1775 576.0131 482.2372 576.1955 482.2302 576.3817 482.2261 576.7565 482.208 576.893 481.9208 576.8981 481.7514 576.8739 481.5766 576.8484 481.5669 576.8841 481.3615 576.9032 481.3865 577.0103 481.2227 577.0804 481.1214 577.1353 481.1519 577.1735 481.0881 577.1875 480.823 577.1952 480.7689 577.2118 480.6426 577.3304 480.5899 577.3597 480.5399 577.3699 480.4789 577.3648 480.4234 577.3622 480.3276 577.3954 480.1569 577.4655 480.175 577.3023 480.2069 577.0192 480.2097 576.9529 480.2124 576.8955 480.2249 576.7986 480.2679 576.629 480.2777 576.4633 480.2915 576.3294 480.2888 576.2006 480.2707 576.0246 480.243 575.8295 480.1014 575.8907 480.0792 575.8907 479.9876 575.3654 479.9266 575.3462 479.9085 575.1983 479.8933 574.8744 479.8766 574.6781 479.8461 574.5085 479.9377 574.5123 480.0223 574.5187 480.1389 574.5518 480.2624 574.599 480.3748 574.6475 480.4955 574.7189 480.5566 574.775 480.6204 574.8579 480.6912 574.9535 480.7231 574.9956 480.7786 575.03 480.8022 575.0491 480.8175 575.0989 480.8591 575.1958 480.8855 575.2226 480.9244 575.2098 481.0451 575.155 481.2977 574.9905 481.5863 574.7788 481.7292 574.6628 481.8819 574.5072 481.9804 574.3988 481.9901 574.344 482.0332 574.3376 482.0609 574.3147 482.0845 574.2751 482.0928 574.2369 482.0901 574.191 482.0845 574.1489 482.1012 574.1132 482.147 574.1106 482.1497 574.0545 482.1692 574.0137 482.4148 573.6133 482.8547 573.5891 482.8575 573.7727 483.099 573.8008 483.1267 573.8046 483.4237 573.8416 483.4043 573.9321 483.4043 574.0201 483.432 574.2088 483.4459 574.3045 483.4403 574.4511 483.414 574.701 483.5305 574.7125 Z M 490.0946 563.8968 490.225 564.2411 490.2472 564.3074 490.2514 564.3266 490.2375 564.3623 490.1501 564.5255 490.0849 564.6645 490.0099 564.8723 489.9544 564.9756 489.8517 565.2115 489.7837 565.4028 489.8323 565.4359 489.7976 565.6514 489.7809 565.7815 489.7671 565.8554 489.7324 565.8886 489.731 565.9447 489.7421 566.1041 489.7837 566.1232 489.7893 566.187 489.867 566.1895 489.8739 566.2303 489.8129 566.2571 489.6533 566.2686 489.6588 566.3527 489.5686 566.3719 489.4174 566.4267 489.3591 566.4178 489.2467 566.5415 489.0899 566.6422 488.94 566.6792 488.9247 566.8041 488.5681 566.8207 488.5403 566.8768 488.4473 566.8628 488.371 566.8411 488.3641 566.8105 488.3419 566.7901 488.2641 566.7646 488.2558 566.7136 488.2183 566.7034 488.1295 566.6753 488.0379 566.6715 487.9117 566.6677 487.7646 566.6422 487.5869 566.567 487.5064 566.5351 487.4259 566.5211 487.3788 566.5236 487.2539 566.5593 487.1304 566.5619 487.1151 566.6027 487.0443 566.6001 486.9957 566.5988 486.9819 566.6192 486.8362 566.6231 486.8264 566.5466 486.8209 566.4981 486.789 566.4968 486.7737 566.4892 486.7806 566.3476 486.7654 566.3323 486.6641 566.3374 486.628 566.3043 486.5766 566.2813 486.4184 566.2622 486.3726 566.2354 486.3518 566.2189 486.3324 566.1895 486.3102 566.1232 486.2339 565.9013 486.1326 565.7075 486.202 565.4946 486.2505 565.3785 486.313 565.39 486.3019 565.4793 486.3144 565.5175 486.5184 565.5494 486.6335 565.6106 486.8944 565.6578 486.9777 565.6425 486.993 565.3785 487.036 565.1516 487.2039 565.1541 487.2358 564.9131 487.2566 564.7843 487.2899 564.6632 487.2622 564.4847 487.2344 564.3801 487.58 564.4439 487.8062 564.4783 487.9019 564.4859 487.945 564.4783 487.9727 564.4643 488.0171 564.4439 488.1046 564.4464 488.3224 564.4847 488.3752 564.5127 488.4598 564.5382 488.6194 564.5255 488.7277 564.5255 488.7415 564.4732 488.9386 564.4974 488.9497 564.4094 489.0663 564.4133 489.1398 564.0639 489.348 564.055 489.3674 563.9389 489.5645 563.9415 490.0946 563.8968 Z M 508.2116 565.9396 508.1991 565.983 508.1561 566.1984 508.0992 566.4025 508.0659 566.5083 508.0187 566.6409 507.9826 566.7646 507.9688 566.8335 507.9549 566.9125 507.9438 567.0298 507.9313 567.1395 507.9063 567.2275 507.8869 567.2632 507.8716 567.29 507.8633 567.341 507.8591 567.4187 507.8522 567.522 507.848 567.6508 507.8411 567.7465 507.8189 567.8752 507.7731 568.0308 507.762 568.092 507.7661 568.1392 507.7731 568.1775 507.78 568.2591 507.78 568.3164 507.7564 568.4185 507.7245 568.5613 507.6718 568.727 507.6426 568.8852 507.619 569.0127 507.583 569.1835 507.5566 569.3021 507.5358 569.3697 507.4678 569.6732 507.4386 569.7867 507.4317 569.8058 507.4137 569.8224 507.3692 569.9435 507.3068 570.1373 507.2457 570.335 507.193 570.4765 507.1708 570.5479 507.1292 570.6984 507.0626 570.9292 507.0195 571.1268 506.9682 571.3105 506.9363 571.4622 506.9266 571.5081 506.8558 571.8103 506.8239 572.0028 506.767 572.2107 506.7392 572.3191 506.7198 572.4364 506.6782 572.6455 506.649 572.7985 506.5713 572.9745 506.5213 573.102 506.4436 573.3226 506.3728 573.5968 506.2799 574.0775 506.2257 574.4524 506.1938 574.7877 506.1564 575.0211 506.1494 575.0734 506.1383 575.1065 506.1272 575.169 506.1022 575.2634 506.0703 575.3526 506.0259 575.4419 505.9829 575.5362 505.9191 575.6332 505.8802 575.7033 505.8427 575.7683 505.8288 575.7874 505.808 575.8206 505.7442 575.9277 505.722 575.9902 505.6845 576.0692 505.654 576.1853 505.6276 576.2758 505.5902 576.3817 505.5707 576.4429 505.518 576.5398 505.4625 576.6622 505.4222 576.7655 505.3848 576.8407 505.357 576.9057 505.3334 576.9733 505.2585 577.1518 505.221 577.2551 505.1849 577.3559 505.1669 577.412 505.1516 577.4604 505.1128 577.5599 505.0809 577.6619 505.06 577.7384 505.024 577.8251 505.0073 577.8876 504.9865 577.9348 504.9615 578.0062 504.9365 578.0852 504.9254 578.1286 504.9046 578.1566 504.8893 578.2178 504.8782 578.265 504.8297 578.4129 504.8172 578.455 504.8061 578.4792 504.7991 578.4907 504.7922 578.5137 504.7644 578.5876 504.7478 578.6361 504.727 578.7241 504.6867 578.8516 504.6645 578.9434 504.6396 579.0135 504.609 579.1155 504.5785 579.2354 504.5535 579.3068 504.5327 579.3387 504.5077 579.4037 504.4744 579.5057 504.4369 579.6422 504.4064 579.7493 504.3759 579.864 504.3537 579.9558 504.2468 579.9201 504.2038 579.8972 504.1774 579.7404 504.1649 579.6575 504.1552 579.5006 504.158 579.3565 504.1677 579.3081 504.201 579.2481 504.2704 579.1551 504.3495 579.0429 504.3662 578.9995 504.3981 578.9345 504.344 578.7623 504.208 578.7151 504.0775 578.6616 504.0553 578.6527 504.0525 578.6348 504.04 578.543 504.0373 578.4639 504.0359 578.4537 504.0165 578.4397 503.7972 578.2905 503.8125 578.1158 503.818 578.0572 503.7569 578.0113 503.75 578.0062 503.75 577.9832 503.75 577.9067 503.6889 577.8481 503.614 577.871 503.5807 577.8264 503.5127 577.7575 503.3448 577.7792 503.0006 577.7868 502.8285 577.7754 502.7994 577.8162 502.6537 577.8034 502.297 577.7588 502.254 577.755 502.2124 577.7499 502.1083 577.7346 501.9126 577.7142 501.7628 577.7065 501.5851 577.6874 501.481 577.6874 501.3506 577.6861 501.2854 577.6989 501.2659 577.7129 501.2521 577.755 501.2285 577.8634 501.1605 578.2217 501.141 578.3301 501.1244 578.4257 501.1161 578.4894 501.1008 578.5991 500.9828 578.6246 500.8982 578.659 500.8344 578.7228 500.8024 578.7687 500.7636 578.8261 500.7303 578.8707 500.6956 578.9408 500.6845 578.9816 500.6914 579.062 500.6775 579.0696 500.665 579.0862 500.6664 579.127 500.6623 579.2813 500.6609 579.4649 500.6664 579.5695 500.6678 579.6154 500.6567 579.6613 500.597 579.7391 500.554 579.7595 500.493 579.8079 500.4333 579.864 500.3722 579.9405 500.3306 579.9558 500.1918 579.9507 500.0572 579.9112 499.985 579.8806 499.8296 579.7914 499.6936 579.6944 499.5215 579.5453 499.4535 579.4891 499.4161 579.4267 499.3744 579.3553 499.3536 579.2813 499.3481 579.2163 499.3453 579.1653 499.3397 579.0416 499.3273 579.0008 499.3037 578.909 499.2676 578.8248 499.2398 578.7457 499.2024 578.6947 499.1718 578.6705 499.1038 578.6272 498.9859 578.566 499.1011 578.2191 499.1066 578.1617 499.1274 578.1592 499.2371 578.1656 499.3078 578.1707 499.3342 578.149 499.3467 578.0967 499.3758 577.9666 499.4064 577.8634 499.4175 577.7932 499.4397 577.7129 499.4855 577.616 499.5424 577.4783 499.5493 577.4362 499.5923 577.4362 499.6895 577.4426 499.7019 577.3916 499.7658 577.4005 499.8477 577.4043 499.874 577.3253 499.9073 577.2054 499.9226 577.1518 499.9268 577.1072 499.9448 577.0664 499.9698 577.0587 500.0017 577.0587 500.0086 577.046 500.0059 577.0001 500.0031 576.9491 499.992 576.9083 499.9823 576.8917 499.9698 576.879 499.9462 576.87 499.9295 576.8598 499.9309 576.7731 499.9351 576.6367 499.8879 576.629 499.8213 576.6048 499.8199 576.541 499.8185 576.3498 499.813 576.3064 499.874 576.3 499.8824 576.2159 499.8976 575.957 499.899 575.8805 499.9087 575.6918 499.9073 575.628 499.9157 575.5005 499.917 575.484 499.8976 575.484 499.8713 575.484 499.806 575.4546 499.7811 575.424 499.7602 575.3883 499.7325 575.3297 499.7033 575.3258 499.6117 575.3284 499.5451 575.3233 499.4827 575.3118 499.4286 575.2889 499.4091 575.2838 499.3855 575.2978 499.337 575.3462 499.2634 575.3845 499.2315 575.3003 499.1996 575.206 499.1205 575.2098 499.0372 575.2149 498.9165 575.2111 498.8138 575.2175 498.8096 575.2353 498.786 575.322 498.7652 575.3513 498.7416 575.3552 498.6986 575.3577 498.607 575.3488 498.4918 575.3335 498.428 575.3131 498.4266 575.4087 498.4294 575.461 498.4335 575.5834 498.4488 575.6357 498.4696 575.7543 498.5043 575.8257 498.5251 575.8244 498.5834 575.8219 498.5862 575.8372 498.5834 575.9711 498.5751 576.2057 498.2004 576.2784 498.2004 576.337 498.1532 576.3472 498.131 576.3523 498.1241 576.36 498.0256 576.4849 498.0256 576.4824 497.9964 576.4824 497.9964 576.5104 498.0256 576.5104 498.0256 576.5066 498.0922 576.5181 498.0852 576.5844 498.0769 576.6482 498.0755 576.6966 498.0575 576.6966 498.0589 576.7157 498.0172 576.7106 497.9936 576.7081 497.9936 576.7234 497.9936 576.9542 498.0158 576.9746 498.0464 576.981 498.0686 576.9848 498.0686 577.0014 498.063 577.0791 498.0561 577.1161 497.9922 577.2067 497.9839 577.3406 497.9867 577.4094 497.995 577.4948 497.9811 577.5331 497.9867 577.5675 498.0006 577.6772 498.0131 577.7346 498.0242 577.843 498.0214 577.8838 497.9964 577.9054 497.9853 577.9309 497.9909 577.9679 498.0103 578.0674 498.0367 578.1745 498.0367 578.2357 498.02 578.2357 498.02 578.2637 498.0353 578.2637 498.0158 578.3632 497.9922 578.4078 497.9423 578.4372 497.8604 578.5098 497.7758 578.5711 497.6772 578.6119 497.6009 578.6208 497.4968 578.6131 497.4011 578.4869 497.3997 578.4856 497.2998 578.4856 497.2484 578.4869 497.1735 578.4894 497.0625 578.5022 496.9334 578.5341 496.7877 578.5647 496.7433 578.5749 496.7349 578.543 496.6961 578.3607 496.6683 578.2319 496.6669 578.1911 496.7336 578.1707 496.7363 578.0483 496.8557 578.0342 496.8418 577.7741 496.8238 577.5879 496.814 577.4336 496.8016 577.3686 496.7821 577.3061 496.7696 577.236 496.746 577.1939 496.703 577.1557 496.6434 577.097 496.6267 577.06 496.6225 577.032 496.6225 576.9402 496.6198 576.9019 496.6073 576.8726 496.5712 576.8279 496.4782 576.7387 496.3977 576.6749 496.3436 576.6558 496.3047 576.6494 496.0702 576.6418 495.9134 576.6239 495.6719 576.5716 495.5193 576.541 495.5082 576.8879 495.5082 576.9006 495.3319 576.907 495.1113 576.9121 494.8754 576.9312 494.7491 576.9478 494.6894 576.9414 494.6283 576.9351 494.5048 576.9198 494.3702 576.9006 494.2287 576.8994 494.1593 576.907 494.1079 577.1327 493.983 577.5229 493.9636 577.5841 493.965 577.6453 493.9817 577.8455 493.9969 578.0074 493.9969 578.0113 493.9914 578.0202 493.8984 577.9909 493.8346 577.9615 493.7624 577.8901 493.6888 577.806 493.6347 577.732 493.5917 577.6581 493.5182 577.4999 493.4932 577.4528 493.4307 577.3329 493.3738 577.2513 493.3128 577.171 493.2545 577.1225 493.2739 576.8611 493.2725 576.7897 493.2614 576.7349 493.1726 576.6074 493.1671 576.5436 493.1698 576.4199 493.1559 576.4148 492.9991 576.3842 492.9991 576.3753 492.9866 576.3051 492.9728 576.2745 492.9436 576.2529 492.9075 576.2503 492.852 576.2439 492.8173 576.2248 492.8035 576.1917 492.7618 576.1611 492.7119 576.1419 492.648 576.133 492.6494 575.9545 492.6758 575.5375 492.6758 575.5362 492.6897 575.3067 492.7077 575.1027 492.7188 574.979 492.7549 574.6424 492.7674 574.5429 492.784 574.3312 492.7868 574.2649 492.7993 574.2076 492.816 574.1808 492.8562 574.1553 492.8826 574.1259 492.9006 574.0762 492.9256 574.0125 492.9353 573.9576 492.9353 573.9564 492.8423 573.9245 492.8617 573.8084 492.8604 573.7791 492.852 573.7676 492.8312 573.7574 492.7937 573.7587 492.7604 573.7651 492.6952 573.7778 492.63 573.7791 492.6231 573.7791 492.4968 573.7753 492.1887 573.774 492.0083 573.7766 491.8015 573.7702 491.6308 573.7791 491.6225 573.8288 491.4587 573.8327 491.3061 573.8403 491.2825 573.9487 491.2742 574.066 491.0521 574.0864 490.7163 574.0877 490.5623 574.0941 490.479 574.0928 490.4526 574.0966 490.4096 574.103 490.3541 574.1068 490.3014 574.0953 490.2569 574.0851 490.1889 574.0813 490.0932 574.0902 490.0405 574.103 489.9128 574.1412 489.8823 574.1502 489.8739 574.1616 489.8823 574.1744 489.9142 574.191 489.9503 574.2101 489.9627 574.2254 489.9766 574.2458 489.9836 574.2764 489.9808 574.3057 489.9683 574.3389 489.9544 574.3682 489.935 574.409 489.9239 574.4447 489.9225 574.4881 489.9253 574.5786 489.9183 574.7342 489.9183 574.738 489.8434 574.7367 489.3174 574.7508 488.9594 574.7597 488.6236 574.7673 488.6194 574.7686 488.6139 574.6577 488.6041 574.4116 488.5889 574.1718 488.5986 573.978 488.6028 573.7995 488.6014 573.519 488.6014 573.4846 488.7457 573.4922 489.0357 573.4922 489.341 573.4693 489.6561 573.4425 489.6338 573.8174 489.7199 573.8148 489.8684 573.8097 489.9919 573.8059 490.1293 573.8046 490.139 573.57 490.1473 573.4999 490.1584 573.3698 490.1667 573.1403 490.2125 573.139 490.3263 573.1288 490.429 573.1186 490.5511 573.1097 490.7052 573.1135 490.8773 573.1301 490.88 573.0918 490.8884 573.0854 491.134 573.1109 491.1493 572.8508 491.1534 572.6787 491.1659 572.4007 491.1756 572.2145 491.3963 572.2132 491.4088 572.1125 491.4296 571.9416 491.3921 571.934 491.4074 571.7261 491.4116 571.605 491.159 571.5706 491.1576 571.5234 491.1659 571.4711 491.1701 571.4533 491.1853 571.3972 491.1881 571.3525 491.177 571.2786 491.1507 571.2084 491.1326 571.1804 491.1271 571.0746 491.1465 570.896 491.177 570.6805 491.1812 570.6193 491.202 570.4191 491.2256 570.2674 491.2298 570.2444 491.2894 570.2444 491.5226 570.2457 491.9403 570.2457 492.2137 570.247 492.3635 570.2559 492.4662 570.2623 492.4968 570.2253 492.6564 570.2215 492.9408 570.2266 493.4946 570.2432 493.6514 570.2483 493.8706 570.2597 493.8248 570.6104 493.8096 570.7672 493.786 570.9279 493.3724 570.9241 493.1671 570.9075 493.0991 570.905 493.0519 570.9037 492.9325 570.8986 492.8701 570.9024 492.6897 570.8986 492.4524 570.8973 492.451 571.1383 492.4621 571.5298 492.4537 571.8881 492.5342 571.9302 492.6314 571.9608 492.7285 571.9926 492.68 572.3127 492.5495 572.3216 492.4968 572.5129 492.3885 572.5741 492.3594 572.7488 492.3386 572.912 492.2969 573.2129 492.3691 573.2244 492.476 573.2423 492.5537 573.2563 492.6591 573.2793 492.6994 573.2895 492.7396 573.2984 492.7854 573.3213 492.7896 573.3252 492.8187 573.3583 492.791 573.3787 492.7937 573.3864 492.7993 573.4272 492.8007 573.4488 492.8076 573.4603 492.8257 573.4782 492.9034 573.5368 492.9617 573.5776 492.9922 573.5904 493.0352 573.5955 493.063 573.5891 493.0824 573.5764 493.0991 573.556 493.1143 573.5088 493.1213 573.4858 493.1337 573.4705 493.1546 573.4603 493.1754 573.4629 493.199 573.4744 493.217 573.4973 493.2281 573.5279 493.2462 573.5483 493.2642 573.5547 493.285 573.5521 493.3017 573.5407 493.3169 573.5152 493.3308 573.4973 493.3419 573.4871 493.3641 573.4807 493.3891 573.4782 493.421 573.482 493.4571 573.4807 493.4835 573.4756 493.514 573.4603 493.5362 573.4437 493.557 573.4157 493.5764 573.3825 493.5903 573.3672 493.607 573.3532 493.6319 573.3456 493.6625 573.3456 493.6916 573.3583 493.711 573.3736 493.7305 573.3889 493.7846 573.4386 493.7957 573.4591 493.8262 573.533 493.8623 573.5955 493.8887 573.6235 493.9095 573.6325 493.9373 573.6337 493.9817 573.6235 494.0302 573.6121 494.0719 573.607 494.1149 573.6082 494.1412 573.6146 494.2092 573.6503 494.219 573.6554 494.2661 573.6745 494.4216 573.6707 494.9475 573.6567 495.0488 573.6541 495.071 573.6529 495.0724 573.6503 495.0766 573.6388 495.0808 573.621 495.1293 573.5254 495.1501 573.4795 495.2625 573.4705 495.2612 573.3927 495.2639 573.2984 495.2653 573.227 495.2695 572.9311 495.2792 572.7335 495.2861 572.4836 495.2834 572.365 495.2875 572.263 495.3403 572.2617 495.3569 572.1214 495.6039 572.0768 495.6067 572.0207 495.7177 572.022 495.8135 572.0233 495.8801 572.022 496.0008 572.0233 496.0869 572.0169 496.1535 572.0067 496.2132 571.9914 496.2936 571.9557 496.3478 571.9327 496.4213 571.8881 496.4602 571.8588 496.4449 571.8333 496.2465 571.5974 496.0633 571.3908 495.9911 571.3258 495.8551 571.2021 495.6816 571.0491 495.5956 571.0044 495.511 570.9407 495.4638 570.8858 495.3874 570.794 495.343 570.7213 495.2015 570.5033 495.1238 570.4115 495.0252 570.2891 494.8962 570.0851 494.8504 570.0238 494.7866 569.9167 494.781 569.9091 494.7213 569.8262 494.6755 569.7752 494.4868 569.6311 494.2856 569.4768 494.0372 569.3021 494.0302 569.297 493.8484 569.1848 493.7374 569.0904 493.7582 568.9566 493.8013 568.7844 493.7707 568.7615 493.8359 568.546 493.9026 568.3203 493.9289 568.2387 493.9678 568.0576 494.0108 567.874 494.0441 567.7299 494.0788 567.5386 494.0982 567.4404 494.1135 567.3563 494.1315 567.2198 493.8318 567.0961 493.5182 566.9635 493.4141 566.9227 493.2711 566.8692 493.1296 566.7978 493.1157 566.7901 493.0227 566.7353 492.8146 566.6243 492.7799 566.748 492.7466 566.9125 492.6508 566.8921 492.6564 567.0069 492.6064 567.0133 492.6189 567.2249 492.6147 567.3486 492.6106 567.5692 492.6175 567.6266 492.6328 567.7057 492.655 567.7694 492.7188 567.9263 492.7438 567.9977 492.7563 568.0652 492.7757 568.1405 492.7951 568.2093 492.8715 568.3674 492.9617 568.5319 492.995 568.6097 492.9492 568.5931 492.8118 568.5179 492.6675 568.4593 492.5356 568.4172 492.4857 568.3866 492.4551 568.3636 492.444 568.3381 492.4413 568.3113 492.444 568.2858 492.4468 568.2667 492.4537 568.1902 492.4537 568.1558 492.444 568.1162 492.3635 567.9824 492.3205 567.9148 492.29 567.8727 492.2386 567.8255 492.1804 567.7758 492.1276 567.7452 492.0693 567.7248 492 567.7108 491.9625 567.7069 491.8764 567.6916 491.8653 567.6279 491.5531 567.6011 491.3602 567.5896 491.3047 567.4927 491.2672 567.4022 491.2464 567.3129 491.2242 567.2963 491.2006 567.2632 491.1923 567.2211 491.184 566.9342 491.177 566.8896 491.0091 566.7595 490.9675 566.7238 490.9772 566.6664 490.9369 566.6498 490.9536 566.595 490.844 566.5389 490.6955 566.465 490.7038 566.4114 490.7094 566.3833 490.744 566.2023 490.7954 566.0008 490.8426 565.7471 490.9161 565.7662 490.9689 565.5736 491.0313 565.3645 491.1271 565.1108 491.1687 564.9845 491.1687 564.9832 491.1715 564.9858 491.2422 565.084 491.3227 565.2153 491.4379 565.3862 491.5253 565.3097 491.6322 565.2038 491.696 565.1133 491.7349 565.112 491.7987 565.1286 491.8362 565.0483 491.8987 564.8672 491.9292 564.8698 491.9736 564.8749 492.0124 564.8749 492.0444 564.8506 492.1082 564.8009 492.0471 564.7155 491.9819 564.6186 492.1235 564.602 492.3608 564.6058 492.3899 564.6951 492.5592 564.7282 492.7188 564.7563 492.877 564.7639 492.9478 564.588 492.9728 564.5931 492.9936 564.6007 493.0116 564.5969 493.0186 564.5688 493.0505 564.5535 493.0991 564.5574 493.3419 564.6224 493.3683 564.528 493.4432 564.5459 493.5223 564.3151 493.5584 564.1519 493.5598 564.1442 493.5195 564.1021 493.396 564.0116 493.396 563.9491 493.3142 563.9708 493.2017 563.8994 493.1962 563.856 493.1337 563.8446 493.1199 563.7527 493.1129 563.7515 492.9547 563.7323 492.9464 563.601 492.8992 563.5972 492.7813 563.587 492.766 563.5844 492.7785 563.5717 492.8243 563.5258 492.8951 563.4544 492.9186 563.3906 492.9575 563.2274 493.0047 562.9813 493.0657 562.6982 493.1337 562.3386 493.1351 562.331 493.1365 562.322 493.1462 562.322 493.1559 562.3233 493.3988 562.3412 493.3822 562.5082 493.5445 562.5235 493.6111 562.4215 493.7555 562.2468 493.9192 562.0492 493.9567 562.0058 493.965 561.9688 493.99 561.7967 494.0053 561.7419 494.0594 561.6475 494.0913 561.6003 494.0955 561.5952 494.2703 561.6067 494.3938 561.6233 494.4299 561.548 495.0044 561.645 495.0905 561.4919 495.2584 561.5366 495.4013 561.5697 495.4305 561.5009 495.6012 561.5327 495.6067 561.534 495.6594 561.3848 495.7663 561.0393 495.8843 561.0342 495.8926 560.9895 496.0272 560.9895 496.0244 560.9245 496.0855 560.9194 496.1049 560.6465 496.1063 560.6299 496.1216 560.6299 496.3672 560.6325 496.3783 560.5891 496.3866 560.5891 496.5351 560.5981 496.5518 560.5802 496.5573 560.278 496.6364 560.2997 496.6517 560.3048 496.6683 560.3061 496.7752 560.3175 496.8168 560.3137 496.8418 560.2857 496.8765 560.2245 496.9265 560.0447 496.9542 560.0051 497.0305 559.9363 497.1429 559.8381 497.1846 559.8534 497.2665 559.8827 497.3983 559.8814 497.7411 560.0115 497.748 560.0141 497.9353 560.1135 498.0824 560.1811 498.199 560.2283 498.3919 560.2869 498.496 560.2818 498.6029 560.2857 499.0095 560.4247 498.9942 560.5356 498.9859 560.5789 498.9859 560.5802 498.9997 560.7498 499.015 560.9143 499.0067 561.2114 498.997 561.3593 498.9775 561.5225 498.9734 561.5493 498.9734 561.5506 498.954 561.6284 498.9123 561.7865 498.7805 562.0109 498.7236 562.0364 498.5113 562.0708 498.3808 562.1129 498.2559 562.0963 498.2032 562.118 498.1685 562.155 498.0658 562.3731 497.9562 562.3756 497.9395 562.3769 497.9353 562.3935 497.909 562.5006 497.9062 562.5184 497.8868 562.5184 497.7938 562.5222 497.7841 562.5681 497.7799 562.5898 497.7563 562.586 497.5745 562.5516 497.5676 562.5503 497.5454 562.549 497.4025 562.5452 497.3997 562.5452 497.3345 562.5337 497.1832 562.711 497 562.9175 496.8904 563.0208 496.8154 563.1088 496.7724 563.1713 496.7183 563.3281 496.7141 563.3434 496.7114 563.3511 496.6073 563.3664 496.5226 563.3434 496.4005 563.3077 496.4033 563.2618 496.2326 563.2287 496.1313 563.2146 495.9731 563.2121 495.8718 563.1955 495.851 563.1879 495.7954 563.1394 495.7191 563.0552 495.7066 563.0425 495.69 563.0323 495.6414 563.003 495.5595 562.9685 495.4374 562.9188 495.4221 562.8755 495.4277 562.7913 495.3083 562.7836 495.2959 562.7173 495.2306 562.7148 495.2306 562.66 495.2306 562.6281 495.2181 562.5937 495.1821 562.5605 495.1543 562.5426 495.1543 562.512 495.1751 562.4725 495.1918 562.461 495.2417 562.4547 495.2459 562.4559 495.2514 562.3947 495.0669 562.3884 495.0544 562.3871 494.8643 562.4011 494.806 562.4126 494.7893 562.4151 494.7852 562.4317 494.7227 562.6829 494.6769 562.8551 494.6048 563.0361 494.552 563.1534 494.5173 563.1534 494.4715 563.2631 494.4549 563.323 494.4396 563.4391 494.4479 563.5398 494.4549 563.6227 494.459 563.6724 494.4743 563.7795 494.4993 563.856 494.5298 563.9364 494.5576 564.0652 494.559 564.1098 494.559 564.1238 494.5742 564.1238 494.6922 564.1187 494.8906 564.1315 495.0752 564.1646 495.1599 564.1901 495.2237 564.2194 495.3416 564.2845 495.4485 564.3431 495.5401 564.3903 495.6136 564.4184 495.6303 564.4235 495.7483 564.4604 495.9079 564.5102 496.0966 564.5765 496.4172 564.6874 496.6101 564.7524 496.7474 564.7945 496.9112 564.8608 496.9209 564.8953 496.9417 564.9769 496.9917 565.2638 497.0444 565.5316 497.0874 565.7305 497.0999 565.8044 497.1596 566.1181 497.2026 566.3285 497.2928 566.8029 497.3081 566.8794 497.4011 567.3269 497.4011 567.332 497.4094 567.8166 497.4482 567.9989 497.4163 568.0066 497.4219 568.2285 497.4344 568.5383 497.4566 568.9655 497.4649 569.2919 497.4649 569.2983 497.4677 569.4092 497.4746 569.7663 497.4746 569.8236 497.4746 569.8517 497.4746 569.8925 497.5398 569.9053 497.5454 569.8351 497.6078 569.8428 497.6328 569.8453 497.6342 569.8606 497.6411 569.9448 497.6689 569.9473 497.6856 569.9486 497.6869 569.9626 497.6911 570.0595 497.6911 570.08 497.6731 570.08 497.5884 570.0812 497.587 570.1577 497.68 570.1539 497.7091 570.1526 497.7855 570.1488 497.9839 570.1361 498.138 570.1195 498.292 570.1016 498.2948 569.8338 498.2948 569.8198 498.3017 569.7089 498.3073 569.6464 498.1574 569.6286 498.1518 569.4577 498.1518 569.4398 498.1671 569.4398 498.2906 569.4373 498.3114 569.436 498.3128 569.4207 498.317 569.3212 498.4002 569.3263 498.4072 569.2039 498.4072 569.1861 498.4211 569.1861 498.5113 569.1874 498.5404 569.1874 498.6112 569.1886 498.8526 569.1529 498.9886 569.1427 498.9859 568.875 498.8471 568.889 498.8124 568.7334 498.7902 568.4669 498.7791 568.2744 498.7805 568.1864 498.7805 568.1583 498.7805 567.9785 498.7902 567.8982 498.7874 567.7885 498.7083 567.7949 498.7069 567.6751 498.7055 567.6661 498.7069 567.6457 498.7083 567.4914 498.7236 567.3728 499.0469 567.3881 499.1496 567.3053 499.1885 567.3053 499.2176 567.3053 499.3384 567.304 499.4702 567.3129 499.5521 567.3167 499.5812 567.318 499.7852 567.3269 500.085 567.3384 500.1682 567.04 500.2543 566.887 500.2793 566.7455 500.2834 566.7276 500.2987 566.7302 500.3292 566.734 500.3542 566.646 500.3584 566.632 500.3792 566.6345 500.5068 566.6511 500.536 566.442 500.5388 566.4254 500.5513 566.4241 500.6512 566.4165 500.6914 566.2342 500.6984 566.2048 500.7025 566.1844 500.7136 566.1857 500.9981 566.1997 501.0203 566.201 501.0245 566.1806 501.0633 566.0391 501.08 565.9574 501.0828 565.937 501.0939 565.9281 501.1702 565.8631 501.1827 565.8529 501.3062 565.8644 501.4727 565.8809 501.4908 565.8835 501.4991 565.8605 501.5421 565.7228 501.6254 565.492 501.6365 565.4601 501.9251 565.4232 501.9862 565.4155 502.0264 565.404 502.0445 565.4002 502.0514 565.4219 502.0708 565.4793 502.3373 565.4908 502.4608 565.5175 502.7064 565.6629 502.9465 565.7713 503.1574 565.8389 503.5849 566.076 503.8263 566.2507 504.0303 566.2367 504.0345 565.9983 504.0248 565.8618 504.0123 565.4754 504.0498 565.1133 504.0498 565.0712 504.1261 564.7792 504.1566 564.6747 504.1955 564.5012 504.2801 564.3304 504.2954 564.296 504.3107 564.2564 504.4189 563.9797 504.4689 563.8841 504.5868 563.6546 504.7034 563.5296 504.7686 563.4709 504.8422 563.4059 504.9157 563.3409 505.0698 563.2848 505.2932 563.2172 505.3487 563.207 505.4375 563.2452 505.5541 563.3064 505.6096 563.3409 505.6693 563.4658 505.7428 563.6469 505.772 563.7999 505.8094 563.9109 505.8746 564.1264 505.8941 564.1761 505.9551 564.273 505.9857 564.3253 506.0106 564.4655 506.0384 564.6237 506.0412 564.7078 506.0606 564.7665 506.1411 564.8889 506.2327 565.0202 506.3118 565.1528 506.3271 565.2115 506.3576 565.2651 506.4991 565.3722 506.6754 565.5163 506.8253 565.6412 506.9057 565.7037 507.1111 565.7828 507.2901 565.8529 507.4359 565.872 507.5094 565.8707 507.7717 565.8835 508.0104 565.9103 508.1492 565.923 508.2116 565.9396 Z M 500.5388 571.9123 500.5124 572.2834 500.1391 572.2745 500.1419 572.1826 499.8879 572.1724 499.8185 572.2936 499.8116 572.4211 500.2446 572.4466 500.2418 572.6149 500.1516 572.5983 500.0961 572.8865 499.9684 573.57 500.017 573.6439 500.0128 573.6439 500.0128 573.6733 500.0308 573.6733 500.0225 573.737 500.0059 573.7855 500.0128 573.8709 500.0295 573.9436 500.035 573.9678 500.0378 573.9717 500.1155 574.0979 500.1433 574.2178 500.1363 574.2369 500.1197 574.2369 500.1197 574.2649 500.0322 574.3504 500.0045 574.3771 500.0059 574.3784 500.0197 574.4256 500.0267 574.446 500.0406 574.4435 500.1433 574.423 500.3042 574.4588 500.3237 574.4639 500.3223 574.4792 500.307 574.6016 500.3015 574.7903 500.2668 575.0147 500.2598 575.2162 500.2432 575.3819 500.2404 575.4113 500.3112 575.4177 500.3639 575.257 500.4999 575.1358 500.6359 575.0593 500.7233 575.0797 500.876 575.1065 500.9592 575.1333 500.9884 575.1065 501.0439 575.095 501.0272 575.1958 501.0272 575.2608 501.0869 575.3807 501.0675 575.6523 501.0717 575.7454 501.0231 575.9889 500.9926 576.1687 500.9884 576.1929 500.9731 576.1942 500.9454 576.198 500.9176 576.2082 500.9148 576.2529 500.8996 576.2988 500.8968 576.3077 500.8843 576.3281 500.8288 576.4123 500.8205 576.425 500.8399 576.4276 500.8968 576.4314 500.8982 576.5614 500.8982 576.8024 500.8996 576.8279 500.9121 576.8305 501.1605 576.8777 501.2104 576.8713 501.2229 576.8241 501.2271 576.805 501.2437 576.8075 501.3534 576.8216 501.3603 576.8739 501.6656 576.8598 501.685 576.8586 501.6892 576.8407 501.8738 576.184 501.9043 576.0042 501.8779 575.8537 501.9293 575.6344 501.9334 575.6191 501.9473 575.6153 502.0195 575.5936 502.0348 575.5885 502.0375 575.5643 502.0514 575.447 502.1291 575.4011 502.1638 575.3666 502.1957 575.2404 502.2096 575.1843 502.2859 575.1665 502.2929 575.2251 502.5371 575.2213 502.5607 575.1027 502.4705 575.0899 502.4872 574.905 502.5066 574.812 502.5815 574.6781 502.5968 574.65 502.637 574.5926 502.6606 574.5161 502.662 574.4537 502.6634 574.4218 502.6828 574.3963 502.8077 574.2369 502.8091 574.2343 502.8091 574.2088 502.8063 574.0941 502.8355 573.9079 502.8369 573.9015 502.8424 573.8798 502.8854 573.6924 502.9229 573.5037 502.9895 573.3736 503.0506 573.1696 503.0381 572.9452 503.0506 572.7207 503.0214 572.5116 502.8757 572.5741 502.7231 572.6187 502.601 572.7335 502.44 572.7756 502.3248 572.8381 502.1083 572.8801 501.9834 572.8699 501.8308 572.7169 501.7072 572.5996 501.5546 572.4874 501.4991 572.4453 501.3839 572.3484 501.3062 572.2285 501.2576 572.1737 501.1743 572.1431 501.1355 572.0921 501.0717 572.0131 501.03 571.9863 500.9426 571.9518 500.8316 571.9391 500.6775 571.9149 500.5388 571.9123 Z M 502.7758 557.7086 502.9396 557.7175 503.0992 557.7124 503.2282 557.6997 503.3323 557.701 503.478 557.7137 503.6057 557.7061 503.7098 557.701 503.8125 557.7086 503.8582 557.7277 503.9901 557.8119 504.0442 557.8451 504.065 557.8604 504.0734 557.8833 504.0692 557.9114 504.0553 557.9407 504.0303 557.9687 504.0303 557.9917 504.0442 558.0389 504.0817 558.1001 504.09 558.1409 504.0734 558.183 504.0428 558.2046 504.0026 558.2199 503.9526 558.2263 503.9249 558.2314 503.9332 558.2671 503.9429 558.3143 503.929 558.3653 503.9193 558.3857 503.8888 558.4048 503.818 558.4303 503.7805 558.4418 503.7139 558.4967 503.6376 558.5757 503.571 558.6203 503.5557 558.6548 503.5488 558.7517 503.2449 558.753 503.095 558.7491 502.9687 558.7377 502.8285 558.707 502.6426 558.6522 502.5607 558.6293 502.3692 558.5681 502.236 558.5349 502.0667 558.4852 502.1638 558.299 502.2054 558.1626 502.2041 557.9509 502.2027 557.8004 502.1916 557.5875 502.1819 557.4906 502.2832 557.5097 502.372 557.5378 502.4233 557.5569 502.5094 557.6321 502.6093 557.6691 502.7758 557.7086 Z M 483.2044 557.0086 483.3723 557.0838 483.4487 557.0634 483.4903 557.0774 483.6249 557.0966 483.7401 557.1641 483.747 557.1731 483.8053 557.2215 483.8733 557.2585 483.908 557.2649 483.9122 557.2598 483.9663 557.2534 484.0149 557.2598 484.026 557.2674 484.0648 557.2559 484.13 557.3516 484.1509 557.3554 484.1828 557.3924 484.3396 557.6028 484.4381 557.539 484.5339 557.4906 484.6393 557.4574 484.767 557.4459 484.9669 557.4727 485.1001 557.502 485.2375 557.5811 485.3971 557.6997 485.4762 557.7711 485.5997 557.8349 485.7856 557.9165 485.8536 557.9356 485.9008 557.9853 485.9646 558.1243 485.9702 558.2391 485.6219 558.452 485.5442 558.7593 485.5192 558.8307 485.6205 558.8307 485.4637 559.1686 485.5067 559.2898 485.4345 559.3 485.4082 559.6647 485.3374 560.0804 485.1376 560.0995 485.0016 560.5789 484.9738 560.644 484.953 560.7026 484.9016 560.8289 484.8545 560.8952 484.8031 560.9373 484.7712 560.9551 484.631 560.9564 484.4437 560.9411 484.298 560.9347 484.2771 560.9921 484.2105 560.9768 484.18 561.0839 484.1578 561.2127 484.1703 561.2509 484.2355 561.2981 484.3007 561.367 484.3313 561.4295 484.409 561.4817 484.5672 561.5697 484.6269 561.6067 484.5852 561.7521 484.5977 561.7521 484.6005 561.8974 484.6282 561.8987 484.6269 562.0951 484.5977 562.155 484.5256 562.1384 484.4409 562.3578 484.366 562.5528 484.3202 562.7658 484.3202 562.8053 484.316 562.8589 484.3118 562.9826 484.2716 563.1624 484.2022 563.3549 484.5145 563.4799 484.6602 563.5436 484.6657 563.6482 484.6727 563.828 484.6865 563.8943 484.7282 563.9338 484.7323 563.9976 484.7448 564.1353 484.7892 564.1748 484.7851 564.2233 484.9224 564.2653 485.0584 564.3074 485.2069 564.3686 485.3277 564.4184 485.4526 564.4885 485.558 564.551 485.6066 564.588 485.5983 564.653 485.5872 564.6989 485.5664 564.7703 485.5386 564.8672 485.5192 564.9667 485.5206 565.0891 485.54 565.2395 485.497 565.3989 485.49 565.4627 485.5053 565.5456 485.5261 565.6323 485.4956 565.7024 485.4359 565.8261 485.4387 565.895 485.4512 565.9243 485.5025 565.9804 485.4845 566.2214 485.1459 566.1882 484.8891 566.1666 484.8517 566.6549 484.8461 566.8794 484.9141 566.9444 484.928 567.1867 484.9336 567.355 484.9447 567.5514 485.175 567.3652 485.2347 567.3269 485.3415 567.29 485.4609 567.2708 485.5539 567.2657 485.5802 567.2632 485.6469 567.281 485.7426 567.2963 485.8578 567.3397 486.034 567.3792 486.0424 567.2275 486.0451 567.1829 486.0535 567.1216 486.066 567.0133 486.1201 567.0094 486.1367 566.8781 486.1423 566.8398 486.1548 566.8347 486.5822 566.8513 486.6696 566.8539 486.6696 566.8845 486.6502 566.9214 486.5864 566.938 486.5808 566.9572 486.5822 566.9903 486.6197 567.0413 486.6724 567.1089 486.6821 567.1982 486.6974 567.2173 486.7668 567.2339 486.8139 567.2632 486.8139 567.42 486.8126 567.5743 486.9042 567.5896 486.9111 567.6189 487.0249 567.6355 487.0207 567.7758 487.0637 567.7975 487.061 568.1443 487.4717 568.1507 487.4662 567.9964 487.8645 568.0716 488.0726 568.0971 488.1046 568.3266 488.1864 568.3279 488.1961 568.3917 488.1212 568.393 488.142 568.509 488.1934 568.662 488.1309 568.6607 488.1268 568.7882 488.2322 568.7908 488.2197 568.9974 488.142 568.9986 488.1365 569.26 488.074 569.26 488.0699 569.4092 488.0379 569.4449 488.0352 569.7675 488.0324 570.0876 488.0213 570.3388 487.8034 570.3388 487.6036 570.3541 487.4995 570.3771 487.2997 570.4281 487.2802 570.576 487.097 570.5887 487.1095 570.7213 487.2941 570.7226 487.2886 570.9649 487.0859 570.9674 486.7779 570.9866 486.5142 570.9878 486.5031 571.3117 486.5059 571.4278 486.4962 571.5706 486.3449 571.591 486.1534 571.5961 486.0562 571.5935 485.7981 571.5974 485.5372 571.5974 485.1598 571.5935 484.8947 571.5872 484.7531 571.6012 484.7282 571.9442 484.7018 572.2451 484.5783 572.2311 484.477 572.2553 484.266 572.3331 483.6998 572.3548 483.6318 572.3471 483.4334 572.3178 483.1461 572.2018 482.9907 572.1559 482.8963 572.1457 482.9491 571.8945 482.9699 571.8078 482.9782 571.7784 483.0337 571.4698 483.067 571.3959 483.1198 571.2569 483.1628 570.9853 483.2266 570.5887 483.2461 570.3567 483.2613 570.2801 483.2627 570.2585 483.2558 570.2024 483.228 570.1182 483.1864 570.0404 483.1295 569.9716 483.0656 569.9193 483.0532 569.9167 482.9407 569.9053 482.8658 569.8696 482.8047 569.839 482.6063 569.7153 482.208 569.5036 482.0914 569.436 482.1317 569.042 482.1456 568.9464 482.0928 568.94 482.1192 568.7372 482.0651 568.727 482.0776 568.5957 482.0942 568.4032 482.0928 568.2667 482.0276 568.2654 482.0595 568.0831 482.0901 567.8727 482.1178 567.6955 482.1483 567.4213 482.3829 567.4404 482.5064 567.443 482.5716 567.4239 482.6341 567.4187 482.7187 567.4404 482.7923 567.4443 482.8367 567.4353 482.9865 567.3333 483.1406 567.2543 483.2752 567.1905 483.2613 567.1395 483.2683 566.9495 483.2863 566.5784 483.2974 566.1474 483.3016 565.8733 483.2988 565.807 483.2988 565.7891 483.296 565.5061 483.2599 565.4844 483.2377 565.4614 483.2252 565.4181 483.203 565.3428 483.1475 565.2727 483.1212 565.2153 483.1114 565.1745 483.1087 565.1082 483.0795 565.047 483.0629 565.0088 483.0545 564.973 483.0532 564.8838 483.0712 564.8009 483.0865 564.7448 483.1447 564.5395 483.1558 564.5 483.0629 564.4732 482.8783 564.4209 482.6993 564.3801 482.5688 564.3597 482.5619 564.2883 482.1039 564.2806 482.1053 564.2169 482.1067 564.1735 482.2774 564.032 482.505 563.8407 482.8061 563.5679 482.8075 563.4416 482.7603 563.4403 482.7617 563.272 482.7145 563.2682 482.7229 563.1012 482.7687 563.0948 482.7881 562.8882 482.369 562.813 482.3662 562.7416 482.3662 562.6345 482.2441 562.6345 482.2441 562.5273 482.0359 562.5222 482.0345 562.4317 481.9693 562.433 481.9721 562.3616 481.9735 562.3118 482.0193 562.3118 482.0234 562.1843 481.9499 562.1818 481.9374 561.9727 482.3357 561.9982 482.6993 562.0071 482.7423 561.8936 482.7936 561.7049 482.8159 561.5251 482.8436 561.3517 482.938 561.0584 482.999 560.7919 483.0115 560.7014 482.8256 560.7052 482.4675 560.6963 482.233 560.6975 482.2344 560.5993 482.1456 560.5955 482.1456 560.5777 482.14 560.5177 482.1664 560.3073 482.2247 560.2487 482.2566 560.1811 482.2663 559.8253 482.3412 559.6251 482.4092 559.541 482.4259 559.5219 482.4037 559.4045 482.3898 559.147 482.3912 559.0641 482.6007 559.0501 482.7256 559.045 482.8811 559.022 483.0115 558.9531 483.1836 558.7568 483.3418 558.5948 483.364 558.5489 483.2599 557.9139 483.1642 557.9509 483.117 557.9445 483.1336 557.5492 483.0434 557.5518 483.0393 557.4141 482.9505 557.3898 482.9685 557.1743 482.8963 557.1769 482.8991 557.0315 483.0282 556.9958 483.2044 557.0086 Z M 491.0993 556.5648 491.0979 556.6617 491.27 556.5878 491.3574 556.839 491.5531 556.8568 491.5573 556.7484 491.6183 556.7459 491.7682 556.7421 491.8126 556.8428 491.882 556.8428 491.8875 556.8645 492.068 556.8683 492.1026 556.9945 492.2428 556.9856 492.2955 557.386 492.3039 557.5033 492.2942 557.5569 492.2373 557.7941 492.1942 557.9216 492.1651 558.1473 492.1443 558.2544 492.1651 558.3844 492.1179 558.4189 492.1013 558.6382 492.0902 558.8116 492.0541 558.8397 492.0527 558.9251 492.0347 559.1023 492.0138 559.4441 492.1179 559.453 492.1165 559.5359 492.2456 559.5321 492.2498 559.5971 492.3358 559.5958 492.3372 559.7654 492.5495 559.8292 492.5467 559.9197 492.7452 559.935 492.7702 560.241 492.988 560.3163 492.9797 560.4757 493.0269 560.4731 493.0283 560.5802 493.1962 560.5789 493.2239 560.6032 493.4599 560.7218 493.4502 560.8187 493.5001 560.8403 493.4946 560.9589 493.7402 561.0112 493.7305 561.2191 493.8429 561.3121 493.829 561.3989 493.8013 561.5786 493.9914 561.5825 493.9886 561.6666 493.7721 561.659 493.7666 561.7291 493.8193 561.738 493.8068 561.8286 493.7888 561.8732 493.6139 561.8758 493.5445 561.8681 493.3849 561.8413 493.2795 561.8031 493.2586 561.7954 493.0213 561.6794 492.7355 561.5544 492.5287 561.4473 492.4884 561.4129 492.4066 561.3899 492.34 561.3861 492.3205 561.4575 492.086 561.4409 491.9444 561.4346 491.9403 561.5213 491.8723 561.5213 491.8515 561.7023 491.7071 561.6781 491.6919 561.7227 491.4934 561.7011 491.3713 561.696 491.0563 561.6921 491.0466 561.798 490.973 561.798 490.9661 561.8872 490.9231 561.8898 490.9203 561.9344 490.8204 561.937 490.6649 561.9523 490.4707 561.9229 490.3125 561.877 490.1293 561.8082 489.9683 561.7317 489.9156 561.8617 489.8378 561.9574 489.799 561.9905 489.7199 562.0262 489.7088 562.0798 489.6991 562.1512 489.6616 562.2761 489.5575 562.4368 489.4937 562.4432 489.4701 562.6115 489.4423 562.6867 489.4299 562.7046 489.2897 562.5796 489.1259 562.4037 489.0926 562.3641 489.0538 562.3029 489.0149 562.1984 488.9511 562.0619 488.8831 561.9663 488.7485 561.7788 488.693 561.6692 488.6527 561.5761 488.6236 561.4346 488.6083 561.3274 488.5028 561.3491 488.4695 561.3529 488.3974 561.3619 488.3419 561.4103 488.3002 561.4919 488.2364 561.5544 488.1975 561.585 488.1379 561.5978 488.049 561.6335 488.0005 561.6654 487.9311 561.7176 487.8672 561.775 487.8339 561.8158 487.7521 561.8311 487.5897 561.8643 487.419 561.8796 487.376 561.9025 487.3163 561.9714 487.2775 561.9803 487.2303 561.9765 487.1831 561.965 487.1595 561.9701 487.1165 562.002 487.0818 562.016 487.0624 562.0109 487.0624 561.9778 487.061 561.9574 487.0651 561.9178 487.0457 561.8936 486.9819 561.8707 486.8972 561.8553 486.8556 561.84 486.832 561.8043 486.8126 561.7903 486.7515 561.7878 486.6627 561.7661 486.6197 561.738 486.5961 561.6539 486.6169 561.4983 486.6585 561.2701 486.6974 561.0839 486.7557 560.8964 486.7973 560.7995 486.8681 560.607 486.8833 560.5777 486.9277 560.4604 486.8375 560.4438 486.8611 560.3239 486.782 560.3035 486.8084 560.2092 486.9028 559.8993 486.9999 559.9235 487.0332 559.7386 487.1401 559.3 487.1595 559.3102 487.2428 559.3421 487.4481 559.3752 487.6216 559.3994 487.802 559.4734 487.8964 559.5193 488.0601 559.5945 488.1656 559.6137 488.4182 559.606 488.4348 559.5729 488.5403 559.1087 488.7054 558.9149 488.7207 558.6701 488.9178 558.2097 489.2383 558.2059 489.8226 558.1944 489.9239 557.9738 490.0044 557.7788 490.089 557.7214 490.1015 557.599 490.2098 557.6015 490.2181 557.5008 490.3527 557.5097 490.4304 557.3286 490.6455 557.3784 490.7107 557.043 490.8315 556.5967 491.0993 556.5648 Z M 510.1503 559.9452 510.1253 559.935 509.956 559.8559 509.7118 559.7641 509.4606 559.6545 509.2843 559.5792 509.1483 559.5282 508.9124 559.4415 508.7279 559.3688 508.4364 559.2732 508.1991 559.1852 508.2421 558.9736 508.256 558.8473 508.2865 558.7121 508.349 558.503 508.4475 558.2977 508.4919 558.1613 508.5114 557.9853 508.5183 557.6385 508.5239 557.3643 508.535 556.8747 508.5377 556.7357 508.5488 556.6872 508.6085 556.5623 508.6751 556.4169 508.7015 556.2346 508.7487 556.0675 508.8111 555.926 509.0401 555.3522 509.1789 554.9671 509.2913 554.6534 509.4814 554.7427 509.7048 554.8153 509.9782 554.9199 511.0329 555.2999 511.3257 555.3828 511.6727 555.4861 511.6518 555.5409 512.0196 555.6939 512.0848 555.722 512.1167 555.7347 512.0931 555.7997 512.0335 555.9591 511.8697 556.3417 511.7504 556.5521 511.6907 556.677 511.5519 556.9996 511.4215 557.2496 511.3812 557.3274 511.2064 557.6844 510.9635 558.1868 510.815 558.5222 510.6735 558.8167 510.5208 559.1202 510.3848 559.4326 510.271 559.717 510.1503 559.9452 Z"/>
<path d="M 504.5604 692.6584 504.2982 692.7158 504.2482 692.703 504.1316 692.5322 504.1427 692.4646 504.2329 692.3804 504.3051 692.3473 504.5105 692.3511 504.5785 692.3728 504.6382 692.476 504.6104 692.6138 504.5604 692.6584 Z M 496.3519 687.7083 496.2478 687.7109 496.2465 687.6637 496.2992 687.6471 496.2812 687.5719 496.3214 687.5642 496.3242 687.6063 496.3519 687.6395 496.3519 687.7083 Z M 494.305 685.686 494.3425 685.7127 494.3411 685.8313 494.2703 685.8377 494.2703 685.9474 494.2259 685.9588 494.2176 685.8466 494.0552 685.8313 494.0649 685.7038 494.2162 685.7115 494.2259 685.5738 494.2967 685.5789 494.305 685.686 Z M 509.8325 680.282 509.8186 680.514 509.8034 680.704 509.7936 680.8073 509.7825 680.9081 509.7867 680.9603 509.7909 681.0636 509.8131 681.1593 509.8214 681.2562 509.7964 681.5341 509.7853 681.6655 509.8117 681.8312 509.8242 681.983 509.8061 682.1908 509.8103 682.3183 509.82 682.4841 509.8228 682.5262 509.7409 682.6818 509.7409 682.734 509.7381 682.8832 509.7423 683.0209 509.7201 683.2377 509.7256 683.5463 509.7201 683.888 509.7312 684.0717 509.7284 684.2412 509.7145 684.3726 509.7118 684.7016 509.7159 685.0165 509.6951 685.394 509.6965 685.6872 509.6729 686.2305 509.6549 686.5148 509.6341 686.8043 509.6493 686.9433 509.6452 687.0491 509.6341 687.1358 509.616 687.271 509.6243 687.3296 509.6632 687.6038 509.6757 687.8422 509.6979 688.0934 509.6951 688.2286 509.6923 688.2911 509.6909 688.337 509.6771 688.3842 509.6021 688.4492 509.6132 688.6315 509.6077 688.6915 509.6479 688.6927 509.6382 688.8445 509.6438 689.3137 509.6479 689.681 509.6299 689.9666 509.6396 690.1145 509.6243 690.279 509.5994 690.3887 509.5216 690.6539 509.5286 690.9331 509.5161 691.1053 509.5397 691.2213 509.5896 691.4457 509.591 691.5299 509.5355 691.637 509.4467 691.7467 509.4273 691.7735 509.4412 691.8959 509.5203 691.7403 509.6049 691.7008 509.6646 691.7161 509.6812 691.8181 509.6493 692.2095 509.6493 692.3434 509.6923 692.5781 509.727 692.7579 509.6618 693.1021 509.6368 693.4566 509.6202 693.6759 509.6299 693.7703 509.5966 693.982 509.6118 694.1643 509.6229 694.302 509.6077 694.6157 509.6341 694.742 509.6771 695.1066 509.7048 695.7021 509.6979 695.9929 509.6812 696.2045 509.6313 696.2989 509.5633 696.3142 509.5383 696.3142 509.412 696.3129 509.4189 696.3805 509.4231 696.4494 509.5647 696.42 509.6576 696.4685 509.616 696.7108 509.591 696.9696 509.5966 697.0971 509.6007 697.1966 509.6535 697.5957 509.6368 697.9094 509.5869 698.2078 509.5203 698.3965 509.5022 698.4475 509.4245 698.4194 509.412 698.4934 509.4078 698.5202 509.4023 698.5559 508.2949 698.5431 508.0021 698.5737 507.5677 698.5674 507.0834 698.6082 507.0404 698.3761 506.989 698.0343 506.9307 697.6365 506.9668 697.4465 506.8974 697.4465 506.8821 697.3432 506.9904 697.3254 506.8933 696.8396 506.8308 696.5361 506.7836 696.3767 506.7337 695.9878 506.6185 696.063 506.6102 696.1535 506.5144 696.1739 506.402 696.3091 506.3062 696.3116 506.2479 696.3295 506.2188 696.3563 506.0481 696.4506 505.9829 696.4621 505.9093 696.471 505.858 696.4239 505.7386 696.3002 505.6942 696.2568 505.7164 696.0515 505.5013 695.9839 505.4458 696.0031 505.3917 696.0069 505.382 695.9967 505.2696 695.9495 505.2182 695.9457 505.0489 695.9546 504.956 695.8858 504.8991 695.8271 504.8713 695.7684 504.8144 695.7047 504.6645 695.6435 504.616 695.6039 504.5424 695.4892 504.4952 695.4369 504.405 695.3591 504.3828 695.3323 504.3648 695.289 504.3606 695.2418 504.387 695.2074 504.3911 695.164 504.3925 695.0709 504.3537 694.9396 504.3176 694.8873 504.312 694.8172 504.2898 694.7942 504.2898 694.77 504.2954 694.6208 504.312 694.1337 504.43 694.1273 504.4286 694.1133 504.4411 694.0865 504.4994 694.0891 504.566 694.1069 504.5591 694.1975 504.5563 694.311 504.5979 694.4219 504.6798 694.501 504.7089 694.5928 504.8061 694.8146 505.024 694.7063 505.2987 694.5609 505.4528 694.4347 505.5444 694.3683 505.5777 694.3645 505.6554 694.3709 505.6929 694.3543 505.722 694.325 505.7567 694.3122 505.9371 694.2867 506.1092 694.2855 506.1591 694.2753 506.2743 694.237 506.359 694.2064 506.3479 693.7117 506.3284 693.6849 506.2091 693.6632 506.173 693.5918 506.1286 693.4592 506.1022 693.3967 506.0842 693.3062 506.0842 693.2424 506.0662 693.0996 506.0245 693.0868 505.8219 693.0907 505.4195 693.0907 505.4 693.0766 505.3029 693.0205 505.1697 692.9861 504.9962 692.9721 504.9962 692.9389 504.7367 692.9427 504.7006 692.6711 504.7256 692.5309 504.7367 692.4352 504.7603 692.383 504.8505 692.3944 504.9365 692.4008 505.0198 692.3715 505.1017 692.3779 505.2862 692.3932 505.364 692.3702 505.432 692.3485 505.5138 692.36 505.5721 692.3702 505.7012 692.4276 505.7858 692.411 505.8164 692.3944 505.8358 692.3562 505.901 692.2631 506.0259 692.309 506.1147 692.3944 506.1522 692.3817 506.1799 692.36 506.2008 692.3243 506.2271 692.2975 506.3173 692.3562 506.3312 692.3766 506.3506 692.3638 506.3839 692.3039 506.4228 692.258 506.6573 692.2504 506.7309 692.221 506.7878 692.1764 506.8294 692.0846 506.8183 692.0145 506.7919 691.9775 506.6879 691.8959 506.6213 691.8704 506.5241 691.8602 506.4089 691.8971 506.2563 691.9316 506.1675 691.9201 505.9995 691.8487 505.8094 691.7403 505.6304 691.6651 505.5055 691.6268 505.3986 691.6243 505.228 691.6294 505.1391 691.6204 505.0545 691.5771 504.9407 691.5159 504.8241 691.4406 504.7658 691.4292 504.6964 691.4496 504.4689 691.558 504.3606 691.5656 504.2676 691.5414 504.1441 691.4967 504.1164 691.3437 504.0775 691.2583 504.0192 691.1843 503.9401 691.1219 503.8707 691.1741 503.6889 691.1729 503.6654 691.2264 503.5585 691.2353 503.5418 691.331 503.521 691.3488 503.4253 691.3731 503.4211 691.5503 503.4058 691.558 503.3143 691.5809 503.2726 691.5439 503.2199 691.5057 503.1685 691.4942 503.1116 691.4967 502.9715 691.4993 502.8063 691.5363 502.8022 691.5133 502.8077 691.4916 502.8133 691.4738 502.9007 691.3284 502.9271 691.294 502.8757 691.1474 502.6967 691.104 502.6842 691.0709 502.6356 690.8987 502.5857 690.8209 502.5357 690.7916 502.4081 690.7368 502.3373 690.6794 502.297 690.673 502.2707 690.6998 502.254 690.7482 502.2512 690.8044 502.2776 691.0938 502.261 691.192 502.2512 691.206 502.2096 691.2175 502.1596 691.2277 502.1458 691.2621 502.1166 691.2736 501.9099 691.2749 501.896 691.2864 501.8391 691.3425 501.8113 691.3412 501.7336 691.4037 501.7114 691.3935 501.6129 691.3476 501.5907 691.4126 501.574 691.4279 501.5296 691.433 501.5102 691.4266 501.4908 691.3705 501.4519 691.3093 501.4047 691.271 501.3381 691.2162 501.3284 691.1958 501.3367 691.1129 501.3506 691.002 501.3631 690.9 501.3548 690.7546 501.3464 690.6845 501.3672 690.6424 501.3797 690.6207 501.4283 690.6093 501.6281 690.5901 502.0014 690.5991 502.0459 690.5838 502.075 690.5748 502.1097 690.5276 502.1513 690.4805 502.1999 690.455 502.2762 690.4524 502.3179 690.4728 502.3817 690.5327 502.4039 690.5455 502.4164 690.5276 502.4844 690.4142 502.5066 690.3326 502.5427 690.2586 502.6093 690.2267 502.6801 690.2344 502.7092 690.2242 502.7147 690.2025 502.5288 690.0801 502.4899 690.0431 502.4455 689.9105 502.3997 689.7154 502.4025 689.584 502.4108 689.5381 502.415 689.5024 502.4802 689.5483 502.5565 689.6045 502.6939 689.7281 502.8077 689.8225 502.8813 689.7575 502.891 689.7498 502.662 689.5254 502.5801 689.4004 502.5385 689.329 502.4733 689.2436 502.3761 689.1735 502.3067 689.125 502.2276 689.0918 502.1763 689.0778 502.1333 689.0791 502.0278 689.0918 501.9168 689.1327 501.8446 689.1684 501.7725 689.2155 501.6837 689.2512 501.4866 689.3035 501.3298 689.3367 501.2937 689.3303 501.2687 689.3201 501.1938 689.25 501.1424 689.1696 501.1147 689.0867 501.0925 689.051 501.0689 689.0345 501.005 689.0192 500.7761 689.0192 500.7344 689.2334 500.8815 689.264 500.8593 689.3341 500.9912 689.3622 500.9912 689.4514 500.7219 689.4361 500.6914 689.4349 500.7275 690.265 500.7275 690.2866 500.7261 690.4754 500.5055 690.4805 500.3847 690.4945 500.1904 690.4766 499.3342 690.5085 499.3495 690.7329 499.5063 690.747 499.5424 690.7725 499.5535 690.8133 499.5798 690.8222 499.6506 690.8299 499.6617 690.9574 499.6215 690.9472 499.5784 690.9306 499.4341 690.9178 499.226 690.928 499.2037 690.9459 499.2593 690.9612 499.2648 690.9765 499.2565 690.9994 499.2315 691.0109 499.1885 691.016 499.1441 691.0096 499.0927 690.9905 499.0317 690.951 498.9692 690.9357 498.8513 690.9408 498.7291 690.9382 498.5349 690.9242 498.478 691.0734 498.292 691.0403 498.3073 691.0071 498.3544 690.9331 498.3461 690.8847 498.31 690.8439 498.2781 690.8171 498.2434 690.798 498.2407 690.7062 498.4238 690.6042 498.4086 690.7036 498.471 690.6845 498.4766 690.6042 498.4932 690.5646 498.5682 690.5685 498.5848 690.5634 498.5973 690.5429 498.5918 690.5187 498.546 690.446 498.5723 690.3989 498.6209 690.4422 498.6486 690.4333 498.6806 690.4639 498.7097 690.4486 498.7222 690.4193 498.7236 690.3925 498.7319 690.3568 498.7708 690.3338 498.8332 690.3032 498.9068 690.2981 499.0081 690.307 498.997 690.1642 499.0566 690.1642 499.0719 690.1183 499.1482 690.1018 499.1496 690.0954 499.1274 690.0367 499.0858 690.0087 499.0011 689.9908 498.9664 689.9615 498.9526 689.8888 498.9304 689.8671 498.8887 689.8646 498.8332 689.9589 498.8402 689.9934 498.8707 690.0061 499.0233 690.0214 499.0039 690.0673 498.9345 690.1591 498.8804 690.1923 498.8415 690.1923 498.8388 690.1591 498.8887 690.1477 498.922 690.1196 498.9137 690.0941 498.8971 690.0941 498.8721 690.1018 498.8235 690.1043 498.8124 690.024 498.7624 690.015 498.7652 690.1158 498.7527 690.1145 498.7222 690.126 498.7236 690.1974 498.7083 690.2433 498.682 690.2675 498.6126 690.2713 498.4932 690.2624 498.4419 690.5009 498.378 690.4856 498.4197 690.3326 498.4474 690.2242 498.4793 689.8467 498.5432 689.8684 498.539 689.9207 498.5793 689.9232 498.5765 689.9538 498.6417 689.9615 498.6681 689.8518 498.6362 689.6797 498.6264 689.658 498.5626 689.542 498.5182 689.4833 498.4599 689.4208 498.4419 689.3405 498.4363 689.2627 498.4419 689.148 498.4807 689.0625 498.5127 689 498.5543 688.949 498.6667 688.8241 498.7333 688.7297 498.8429 688.6149 498.9123 688.5716 498.9234 688.5652 499.0164 688.5295 499.0566 688.5231 499.0691 688.5168 499.0775 688.5078 499.0886 688.4964 499.0886 688.49 499.0858 688.4811 499.083 688.4709 499.0136 688.3803 498.9581 688.3459 498.8679 688.3025 498.7999 688.2707 498.7638 688.2452 498.7 688.1712 498.607 688.1189 498.5251 688.1189 498.4169 688.1521 498.3642 688.1546 498.3031 688.1483 498.1838 688.1534 498.07 688.1648 498.0547 688.1776 498.0436 688.2248 497.995 688.4199 497.7827 688.402 497.5565 688.3842 497.4982 688.3931 497.4025 688.4199 497.3844 688.4211 497.2554 688.4122 497.0791 688.3727 496.9653 688.3637 496.7433 688.3446 496.7683 688.1891 496.9473 688.1865 496.9528 688.1023 496.9376 687.9583 496.9556 687.8843 496.982 687.8511 497.0056 687.804 496.9251 687.8014 496.9015 687.8626 496.8016 687.8728 496.7433 688.0144 496.6656 688.0054 496.5809 687.9608 496.6253 687.8562 496.7877 687.8307 496.7433 687.3934 496.7252 687.2149 496.6878 687.183 496.6114 687.1549 496.5393 687.1498 496.3727 687.1613 496.302 687.183 496.3117 687.2773 496.2784 687.2863 496.2784 687.336 496.1937 687.336 496.1979 687.2506 496.2825 687.1205 496.2798 686.9802 496.1604 686.9904 496.0647 687.0606 496.1618 687.1638 495.826 687.1702 495.801 687.0389 495.8024 687.0185 495.8371 686.9522 495.8621 686.8438 495.7302 686.8438 495.6622 686.7762 495.5429 686.7494 495.5151 686.7711 495.4707 686.8068 495.418 686.8349 495.3736 686.8412 495.3361 686.8451 495.3555 686.7622 495.2889 686.7431 495.2251 686.8718 495.1626 686.84 495.2112 686.7341 495.1307 686.7711 495.1085 686.7278 495.0697 686.7061 494.9503 686.7201 494.9073 686.7341 494.8559 686.7316 494.6714 686.6614 494.595 686.6653 494.5715 686.5824 494.5631 686.5531 494.5964 686.4931 494.577 686.3159 494.6547 686.2917 494.6769 686.0634 494.7685 686.0596 494.8296 685.9499 494.9073 685.9525 494.9337 686.0711 495.1196 686.0749 495.103 685.7956 494.8088 685.8122 494.7977 685.9078 494.6464 685.8989 494.663 685.8224 494.5895 685.8224 494.5645 685.9002 494.491 685.9027 494.491 685.9665 494.3897 685.969 494.391 685.8326 494.5298 685.8173 494.5798 685.7166 494.8532 685.6936 494.867 685.6286 494.7352 685.5202 494.6159 685.5738 494.6367 685.4603 494.5784 685.4029 494.6339 685.3162 494.6297 685.2461 494.5728 685.3085 494.5409 685.2869 494.5492 685.2473 494.4826 685.2218 494.5035 685.153 494.5451 685.1734 494.5798 685.0879 494.6436 685.0127 494.7283 684.977 494.799 684.9438 494.867 684.9183 494.9517 684.9107 495.1085 684.9438 495.1654 684.8737 495.2834 684.8661 495.2667 684.6773 495.3666 684.5855 495.3694 684.4937 496.0175 684.319 495.9883 684.2349 495.987 684.1711 495.9967 684.1099 496.0661 683.9097 495.9481 683.86 495.9772 683.3525 495.7399 683.3117 495.7427 683.3895 495.5817 683.4009 495.5776 683.494 495.6442 683.5042 495.6123 683.6113 495.4929 683.5642 495.4818 683.6343 495.504 683.9186 495.4874 684.0551 495.4027 684.0104 495.3292 684.064 495.2265 684.0359 495.1654 684.1201 495.1238 684.0946 495.164 684.0283 495.1321 684.013 495.0225 684.0627 494.8823 684.0615 494.8712 683.999 494.8129 683.9939 494.7782 684.0525 494.6908 684.0053 494.6686 684.0474 494.6145 684.0257 494.6117 684.0755 494.5562 684.0755 494.5479 684.027 494.527 684.0015 494.4618 683.9811 494.4466 684.0321 494.2995 684.0385 494.2592 683.9441 494.1787 684.0411 494.1648 683.9505 494.119 683.9416 494.1038 683.9977 494.008 683.9352 493.9844 683.8332 493.9858 683.772 494.1759 683.7745 494.1759 683.5437 494.0844 683.5399 494.0732 683.4736 494.126 683.4723 494.1274 683.4175 493.9789 683.4137 494.0025 683.6687 493.9719 683.6687 493.9539 683.6088 493.8817 683.494 493.9414 683.4685 493.9039 683.3729 494.0261 683.2543 494.0497 682.9725 494.0857 682.8412 494.0746 682.7583 494.0899 682.6767 494.1107 682.5045 494.1093 682.3247 494.0719 682.2775 493.9733 682.1998 493.9428 682.099 493.9442 682.0276 494.0982 682.0353 494.1357 681.946 494.2148 681.9549 494.1954 682.0569 494.2523 682.0608 494.3175 681.9588 494.4049 681.9575 494.4368 682.0136 494.484 681.8861 494.6034 681.8899 494.5853 681.9817 494.7116 681.983 494.7421 681.9205 494.8393 681.9473 495.189 681.9129 495.2501 681.7904 495.3153 681.7879 495.3111 681.8529 495.3666 681.8491 495.3972 681.9294 495.4693 681.9218 495.4735 681.8618 495.5554 681.9422 495.7899 681.9167 495.7802 682.0378 495.7094 682.0901 495.7816 682.1526 495.9134 682.1296 496.0161 682.1041 496.0952 682.1105 496.2021 682.1539 496.2478 682.2036 496.2451 682.3579 496.2895 682.3655 496.2825 682.4828 496.4047 682.493 496.4172 682.391 496.574 682.2571 496.66 682.3324 496.7349 682.2533 496.7821 682.3107 496.8543 682.3247 496.9306 682.2992 497.1096 682.4293 497.0694 682.5096 497.093 682.6881 496.9972 682.6996 496.9792 683.4175 497.1263 683.4558 497.1318 683.3831 497.1665 683.3359 497.2512 683.3027 497.3567 683.2925 497.4025 683.267 497.4482 683.2237 497.4802 683.1982 497.519 683.2033 497.6148 683.2364 497.6897 683.2607 497.7688 683.267 497.8438 683.2479 497.8757 683.2211 497.9326 683.1701 497.9687 683.1548 498.0283 683.151 498.1088 683.1765 498.1962 683.2033 498.2296 683.2046 498.2823 683.1803 498.3059 683.1536 498.3267 683.1077 498.3628 683.0413 498.3989 683.0337 498.4516 683.0324 498.5168 683.0337 498.5529 682.9865 498.5945 682.947 498.6486 682.9419 498.6889 682.9712 498.7319 683.012 498.7902 683.0464 498.8304 683.049 498.8749 683.049 498.922 683.0222 498.9553 682.9967 499.0178 682.9942 499.0511 683.0146 499.1011 683.0528 499.1538 683.0694 499.1732 683.0566 499.194 683.0439 499.2037 683.012 499.2037 682.9878 499.1843 682.9648 499.1233 682.9279 499.0927 682.8998 499.065 682.8654 499.0636 682.822 499.0553 682.7723 499.0428 682.6971 498.9859 682.59 498.9345 682.4599 498.9276 682.428 498.922 682.326 498.9331 682.2673 498.9415 682.2763 498.997 682.3732 499.058 682.2482 499.022 682.2087 498.9345 682.1296 498.8596 682.1003 498.7971 682.0646 498.7708 682.0123 498.7444 681.9307 498.7125 681.7892 498.6792 681.6145 498.6639 681.5839 498.6473 681.5826 498.6167 681.6043 498.564 681.626 498.5265 681.6183 498.4738 681.5941 498.4377 681.5813 498.4016 681.5494 498.3447 681.4997 498.3003 681.5163 498.224 681.5558 498.1602 681.6004 498.1144 681.6196 498.088 681.6004 498.088 681.566 498.0838 681.5265 498.1005 681.4691 498.1324 681.4258 498.1352 681.3556 498.1158 681.2332 498.0408 681.1146 497.9853 681.0215 497.8868 681.0305 497.8701 680.931 498.1102 680.9144 498.2101 680.9042 498.224 680.7232 498.546 680.6887 498.5626 680.5153 498.5751 680.3113 498.5598 680.2552 498.5473 680.2488 498.5099 680.2424 498.3989 680.259 498.3891 680.2488 498.3544 680.2182 498.3142 680.2004 498.2434 680.2131 498.2212 680.2501 498.1824 680.3087 498.1518 680.3202 497.8937 680.3279 497.8951 680.0563 497.9076 679.8752 497.8993 679.7681 497.859 679.7222 497.7771 679.7107 497.7202 679.6992 497.6384 679.6699 497.5024 679.6661 497.3997 679.6865 497.3678 679.6916 497.272 679.7145 497.2595 679.7069 497.2429 679.689 497.2484 679.6814 497.2873 679.6584 497.3234 679.6112 497.3428 679.559 497.3678 679.4825 497.3691 679.4467 497.3539 679.3256 497.3469 679.258 497.3234 679.179 497.3275 679.0527 497.365 678.9354 497.3914 678.8653 497.3886 678.8232 497.3705 678.8003 497.34 678.7467 497.3317 678.734 497.3331 678.725 497.3511 678.6052 497.3858 678.5605 497.2554 678.1461 497.1971 678.0798 497.1763 678.011 497.222 677.9701 497.2956 677.9574 497.3567 677.9472 497.3997 677.9395 497.5038 677.9676 497.5634 677.9791 497.6564 677.9867 497.7563 677.9791 497.8438 677.9536 497.9104 677.9561 497.9811 677.9765 498.0367 678.011 498.0672 678.0122 498.0852 677.9995 498.1324 677.9179 498.1796 677.8885 498.2379 677.8745 498.2989 677.8745 498.3544 677.9115 498.3822 677.9931 498.3933 678.0199 498.4141 678.0301 498.4641 678.0301 498.5182 678.0505 498.5973 678.0951 498.6403 678.1461 498.6681 678.178 498.7111 678.2545 498.725 678.3055 498.7222 678.3999 498.7361 678.4292 498.768 678.4317 498.8096 678.4101 498.8596 678.3297 498.8929 678.2558 498.9387 678.178 498.9803 678.155 499.0275 678.1691 499.0594 678.1984 499.0664 678.2277 499.0719 678.2851 499.1122 678.419 499.2149 678.4407 499.2995 678.4343 499.3092 678.4509 499.3134 678.5146 499.4286 678.544 499.5007 678.5631 499.5146 678.6268 499.5285 678.6256 499.5646 678.6128 499.6173 678.5835 499.6492 678.572 499.7186 678.558 499.7699 678.5924 499.8185 678.6166 499.9157 678.6383 499.9906 678.646 500.0295 678.6396 500.0919 678.5809 500.1419 678.5491 500.1988 678.5503 500.4097 678.5873 500.5665 678.6064 500.6484 678.5988 500.7025 678.5911 500.7816 678.5401 500.8663 678.4879 500.9162 678.47 500.9731 678.47 501.0647 678.4776 501.0855 678.4993 501.0717 678.5274 501.0175 678.5733 500.9703 678.6345 500.944 678.6702 500.9565 678.6829 501.012 678.711 501.1175 678.7429 501.2368 678.7671 501.3381 678.8194 501.4325 678.887 501.5019 678.9278 501.5366 678.9227 501.5518 678.915 501.5615 678.901 501.5588 678.8742 501.5574 678.8513 501.5463 678.8168 501.5324 678.7811 501.4991 678.7033 501.5657 678.6817 501.6157 678.6562 501.6795 678.6358 501.7364 678.6294 501.7947 678.623 501.8502 678.6383 501.8807 678.6613 501.9015 678.7008 501.8988 678.734 501.8974 678.7811 501.921 678.8372 502.0431 679.0119 502.0819 679.0986 502.1208 679.1955 502.1444 679.2657 502.143 679.3435 502.0486 679.3906 501.9806 679.4251 501.9376 679.4212 501.8349 679.3932 501.803 679.3957 501.7933 679.4238 501.7905 679.4557 501.7974 679.4876 501.8335 679.536 501.9071 679.5947 502.0292 679.6763 502.0847 679.7082 502.0528 679.7872 502.0972 679.814 502.1971 679.8076 502.2249 679.8191 502.2415 679.8382 502.2568 679.8573 502.279 679.8854 502.3539 679.9441 502.3997 679.9721 502.4039 679.981 502.4164 680.0218 502.4455 680.1149 502.4872 680.1468 502.6245 680.2322 502.7175 680.3024 502.7592 680.3126 502.8063 680.3189 502.9298 680.3151 502.9881 680.3253 503.0256 680.3317 503.1713 680.3725 503.3018 680.3291 503.3698 680.3304 503.3323 680.0983 503.3156 680.0448 503.3129 680.0116 503.324 679.9708 503.342 679.9428 503.3809 679.9109 503.4183 679.8918 503.4711 679.879 503.5335 679.8561 503.5696 679.8318 503.5974 679.791 503.6473 679.7145 503.6765 679.698 503.7223 679.675 503.7819 679.675 503.8291 679.7171 503.8527 679.7706 503.8694 679.8331 503.886 679.8548 503.8957 679.8561 503.9096 679.8459 503.9151 679.8318 503.9179 679.8038 503.9249 679.624 503.8638 679.6036 503.861 679.5985 503.8735 679.5615 503.8888 679.4723 503.904 679.4353 503.9415 679.4353 503.9679 679.4238 503.9804 679.3753 503.972 679.3537 503.9485 679.3345 503.9068 679.2988 503.8791 679.2644 503.8818 679.2427 503.9027 679.2249 503.9776 679.17 504.0317 679.1611 504.0609 679.1726 504.0817 679.2172 504.1025 679.2682 504.133 679.2389 504.1566 679.179 504.1691 679.1433 504.1497 679.105 504.1011 679.0604 504.0067 679.0132 503.8374 678.9265 503.8138 678.878 503.8 678.8372 503.8125 678.7837 503.8624 678.6855 503.9346 678.5911 504.0151 678.4968 504.133 678.4343 504.1955 678.4164 504.2593 678.3807 504.3898 678.3272 504.4883 678.3297 504.6021 678.345 504.7478 678.3897 504.9004 678.4228 504.9795 678.4139 505.0573 678.3693 505.0795 678.345 505.1155 678.3081 505.1572 678.2111 505.1808 678.1436 505.1475 678.0913 505.092 677.9867 505.2238 677.8771 505.2946 677.8694 505.3973 677.9026 505.4972 678.0339 505.5374 678.1436 505.561 678.1805 505.704 678.4152 505.772 678.4879 505.8622 678.5299 505.9149 678.5287 505.9426 678.521 505.9635 678.4981 505.9829 678.4483 505.9968 678.3705 506.0231 678.2685 506.0648 678.2303 506.1355 678.2239 506.1883 678.2456 506.2327 678.2724 506.2854 678.331 506.3562 678.419 506.4159 678.4827 506.463 678.5121 506.5061 678.5248 506.7156 678.5338 506.7462 678.5172 506.7614 678.4879 506.7711 678.4458 506.7531 678.3297 506.7753 678.2328 506.8183 678.1461 506.8391 678.1028 506.8891 678.0632 507.0015 678.0441 507.1875 677.9816 507.3443 677.9893 507.5191 678.0365 507.7106 678.0862 507.8702 678.1321 507.9382 678.1334 508.077 678.1181 508.1672 678.0722 508.1505 678.3348 508.1367 678.4917 508.0937 678.6434 508.0687 678.8028 508.4184 678.8105 508.4434 678.836 508.467 678.9112 508.485 678.929 508.5405 678.9341 508.7362 678.9125 508.8777 678.8819 508.9291 678.8691 509.0526 678.9596 509.0998 678.9673 509.1442 678.9686 509.3912 678.9724 509.4495 678.9839 509.4592 678.9852 509.4897 679.0272 509.523 679.1267 509.5314 679.1841 509.5286 679.2045 509.5175 679.2249 509.4981 679.2619 509.4606 679.3167 509.3926 679.4608 509.3884 679.522 509.4148 679.6253 509.412 679.6508 509.4023 679.6941 509.387 679.7617 509.3884 679.7974 509.4245 679.8803 509.48 679.9759 509.5341 680.0639 509.5383 680.2131 509.8325 680.282 Z"/>
<path d="M 2.1699 596.7302 2.131 596.669 2.0769 596.6052 2.0339 596.5364 2.0158 596.4943 1.9936 596.4561 1.9797 596.4255 1.9645 596.3949 1.9312 596.3043 1.8826 596.2125 1.8535 596.1794 1.8257 596.1577 1.7605 596.1105 1.723 596.0671 1.7008 596.0353 1.68 595.9639 1.6564 595.9154 1.6245 595.8912 1.562 595.8644 1.476 595.8325 1.4302 595.8019 1.408 595.7815 1.4024 595.7484 1.4149 595.6553 1.4621 595.5443 1.662 595.4321 1.7758 595.3033 1.8743 595.0458 1.9173 594.9259 2.0838 594.8494 2.2781 594.8443 2.3877 594.857 2.5099 594.9272 2.7028 595.135 2.8249 595.2549 2.9304 595.3531 3.0344 595.4245 3.0899 595.4525 3.0775 595.4742 2.9956 595.6157 2.8957 595.6974 2.8568 595.7407 2.8346 595.8223 2.8346 595.8708 2.7846 596.0404 2.768 596.1283 2.768 596.15 2.7846 596.1666 2.8068 596.1666 2.7902 596.2418 2.768 596.2418 2.7624 596.275 2.7846 596.2801 2.7666 596.363 2.7846 596.4548 2.7624 596.4548 2.7069 596.4178 2.5848 596.4331 2.4904 596.5032 2.1699 596.7302 Z M 2.3308 588.6331 2.3628 588.6446 2.378 588.6624 2.3864 588.6994 2.3947 588.8027 2.3836 588.8741 2.3961 588.9366 2.4183 588.9532 2.4446 588.9557 2.4599 588.9341 2.4752 588.8971 2.4835 588.8652 2.5529 588.9085 2.6556 588.9851 2.7347 589.0322 2.8055 589.0424 2.9193 589.0399 2.9984 589.0577 3.0664 589.0947 3.1219 589.161 3.1538 589.2133 3.194 589.2554 3.2495 589.3038 3.2731 589.3306 3.2884 589.3612 3.305 589.3931 3.3106 589.4263 3.2995 589.4479 3.2495 589.5168 3.1593 589.6099 3.1094 589.6889 3.0886 589.7884 3.0747 589.8751 3.1496 589.9924 3.1746 590.1059 3.1621 590.2079 3.1455 590.3558 3.1302 590.4617 3.1052 590.5751 3.0719 590.6223 3.0317 590.7549 2.9928 590.9016 2.9609 590.9411 2.9428 590.9794 2.972 591.0469 2.9845 591.126 2.9317 591.2752 2.8998 591.3823 2.8957 591.4945 2.8554 591.6386 2.8513 591.6718 2.9026 591.7776 2.9581 591.9752 3.108 591.9497 3.1274 591.9791 3.1663 592.1767 3.4632 592.2634 3.8449 592.3922 4.1363 592.5707 4.4263 592.7607 4.3944 592.9329 4.3778 593.0884 4.3459 593.1586 4.3417 593.2363 4.3944 593.4608 4.3001 593.6316 4.3014 593.7094 4.2362 593.7375 3.9781 593.7375 3.9254 593.7592 3.849 593.8522 3.7575 593.981 3.652 593.9823 3.5715 594.0104 3.5465 594.0652 3.5451 594.1621 3.534 594.194 3.4979 594.2054 3.4494 594.1838 3.423 594.1493 3.3883 594.032 3.287 594.0333 3.2787 593.9644 3.2051 593.9338 3.0858 593.9517 3.058 594.0167 3.0317 594.0818 2.9886 594.0652 2.965 594.1009 2.9248 594.0843 2.8679 594.0448 2.8304 594.1519 2.7666 594.1774 2.7388 594.1736 2.65 594.1493 2.496 594.0971 2.428 594.0869 2.31 594.1315 2.2781 594.0371 2.2753 593.8446 2.2712 593.7898 2.2462 593.7579 2.2254 593.7362 2.1713 593.7375 2.0866 593.8012 2.0033 593.8688 1.9478 593.9211 1.9395 593.9657 1.9187 594.0167 1.8535 594.0512 1.7216 594.0996 1.6897 594.1583 1.7147 594.2093 1.7397 594.2577 1.798 594.3291 1.7827 594.3585 1.8743 594.3763 1.884 594.3967 1.934 594.4044 1.9506 594.4541 2.0103 594.4031 2.0935 594.4605 2.1255 594.4617 2.1962 594.4337 2.2212 594.4299 2.249 594.4592 2.2462 594.4975 2.2351 594.5446 2.2892 594.565 2.2837 594.5867 2.2212 594.6007 2.1796 594.6135 2.1213 594.6823 1.8868 594.7295 1.7286 594.7958 1.6869 594.8188 1.5051 594.7997 1.6203 594.9705 1.5329 595.0254 1.4718 594.9897 1.4552 594.9667 1.3109 594.9501 1.2456 594.9208 1.2498 594.8749 1.451 594.8201 1.4871 594.7002 1.5038 594.4069 1.6661 594.3661 1.6231 594.1672 1.5398 594.1353 1.4427 594.1328 1.2845 594.032 1.2567 594.032 1.2276 594.0486 1.2054 594.1098 1.1873 594.1328 1.1513 594.1136 1.1527 594.0078 1.1721 593.9402 1.1721 593.8382 1.0888 593.6699 1.0624 593.5845 1.1207 593.4812 1.0624 593.4595 1.093 593.3549 1.0791 593.2491 1.0389 593.1853 1.0305 593.1471 1.0347 593.0566 1.0153 593.0311 1 592.9443 1.0236 592.8895 1.0749 592.8436 1.1568 592.7569 1.1887 592.5911 1.3261 592.4368 1.3886 592.3756 1.5038 592.3756 1.5273 592.2813 1.6217 591.9561 1.7383 591.9689 2.1171 592.0785 2.1171 591.9689 2.3059 591.9459 2.6015 591.9332 2.6584 591.6769 2.6986 591.4652 2.7597 591.4512 2.7333 591.339 2.7708 591.1872 2.7957 591.0622 2.7708 590.9143 2.7472 590.7894 2.7097 590.7282 2.6875 590.6593 2.6736 590.5356 2.6375 590.3061 2.5446 590.2946 2.4849 590.2232 2.4433 590.227 2.2823 590.2933 2.2837 590.0727 2.2559 590.0485 2.1171 589.995 2.0006 589.9083 1.9381 589.7999 1.9215 589.7259 1.9215 589.6494 1.9242 589.4467 1.8979 589.3957 1.8562 589.3255 1.8188 589.3064 1.6717 589.2669 1.6078 589.235 1.5676 589.1878 1.544 589.124 1.5815 589.0692 1.6522 589.0246 1.7452 588.9953 1.859 588.9417 1.9298 588.8894 1.9673 588.8818 2.0214 588.8792 2.0533 588.8716 2.0852 588.8473 2.0963 588.818 2.0963 588.7785 2.0963 588.739 2.0963 588.7071 2.1171 588.6765 2.1407 588.6599 2.1726 588.6522 2.1962 588.6522 2.2198 588.6599 2.2753 588.6624 2.2989 588.6522 2.3308 588.6331 Z"/>
<path d="M 788.6779 1.2512 788.7112 1.1772 788.7557 1.102 788.8167 1.0408 788.8722 1 788.9291 1.0038 788.9319 1.0051 789.0207 1.1262 789.0221 1.1275 789.0277 1.1352 789.2039 1.3341 789.2372 1.38 789.3454 1.5317 789.376 1.6554 789.3829 1.7 789.2206 1.862 789.1248 1.9117 788.968 1.9436 788.85 1.9347 788.7126 1.8888 788.6627 1.8862 788.5031 1.927 788.4989 1.9359 788.4712 1.9895 788.4823 2.0227 788.5669 2.14 788.5877 2.1846 788.5919 2.1973 788.5947 2.2433 788.5933 2.256 788.5877 2.2943 788.5725 2.3376 788.535 2.3899 788.5086 2.4103 788.4615 2.4294 788.4059 2.4498 788.3449 2.4728 788.3144 2.4881 788.2908 2.5098 788.2644 2.5659 788.1839 2.738 788.1437 2.826 788.1048 2.8668 788.0424 2.9152 788.0063 2.9586 787.9646 3.016 787.8869 3.1027 787.8564 3.1358 787.8023 3.2404 787.7745 3.2876 787.7468 3.3475 787.7468 3.3513 787.7398 3.3883 787.737 3.4508 787.7606 3.5923 787.769 3.6497 787.7759 3.7046 787.7759 3.7556 787.7593 3.8423 787.7537 3.8729 787.7273 4.0004 787.7079 4.1253 787.6871 4.2325 787.676 4.2911 787.7329 4.2911 787.7815 4.2988 787.8786 4.3294 787.9619 4.3485 788.0881 4.397 788.281 4.4658 788.4226 4.5296 788.5933 4.601 788.7557 4.6839 788.8056 4.6992 788.8764 4.7451 788.9263 4.7731 788.9888 4.8037 789.0318 4.8139 789.0721 4.8152 789.1151 4.8318 789.1595 4.8407 789.2081 4.8496 789.3219 4.8662 789.3454 4.87 789.3857 4.893 789.4273 4.9389 789.4703 5.0014 789.5106 5.0409 789.5689 5.0779 789.6466 5.1136 789.741 5.1569 789.8534 5.1965 790.0199 5.2602 790.0726 5.2857 790.1045 5.3036 790.2267 5.3533 790.5042 5.4515 790.6041 5.4859 790.6583 5.5038 790.7318 5.5242 790.8706 5.5305 790.9774 5.5395 791.0094 5.5446 791.1093 5.5229 791.187 5.514 791.2938 5.5012 791.3424 5.5012 791.3577 5.5025 791.4992 5.5344 791.6963 5.593 791.8156 5.6249 791.8836 5.6338 791.9863 5.6287 792.2236 5.6912 792.3458 5.7333 792.4484 5.7435 792.608 5.7231 792.7773 5.6772 793.084 5.5331 793.1437 5.5165 793.1923 5.5229 793.2644 5.5471 793.3352 5.5752 793.4615 5.5866 793.6377 5.5892 793.8279 5.5803 793.8973 5.565 793.9319 5.542 793.9888 5.4821 794.0457 5.4069 794.197 5.1263 794.2511 5.0575 794.3094 5.0116 794.4204 4.958 794.5537 4.921 794.716 4.9006 794.9256 4.9057 795.0713 4.9159 795.2947 4.9542 795.6597 5.0485 795.7735 5.0664 795.8692 5.0728 795.9664 5.0638 796.0705 5.0409 796.169 5.0077 796.3314 4.8777 796.423 4.8037 796.5284 4.6367 796.5895 4.5614 796.6519 4.4684 796.6866 4.4288 796.7491 4.3944 796.7754 4.3651 797.0072 3.9162 797.01 3.9086 797.035 3.8486 797.0572 3.7938 797.2084 3.5579 797.411 3.2736 797.4763 3.1307 797.4943 3.0925 797.5096 3.0721 797.5984 2.9471 797.6775 2.8604 797.7025 2.7661 797.7316 2.7138 797.7399 2.6998 797.8079 2.6385 797.8981 2.5824 797.9703 2.5276 798.0244 2.469 798.098 2.6526 798.2131 2.8872 798.3103 3.1282 798.4213 3.4062 798.4865 3.5515 798.5573 3.7046 798.6295 3.8639 798.6919 4.0348 798.71 4.082 798.7141 4.096 798.7336 4.1687 798.7377 4.221 798.771 4.2873 798.8598 4.4021 798.914 4.4684 798.9376 4.4977 798.9792 4.5844 799 4.6877 798.9986 4.6941 798.9944 4.7897 798.9778 4.8764 798.9403 5.0116 798.8654 5.2258 798.7835 5.4018 798.7211 5.5752 798.6003 5.9373 798.5629 6.0062 798.4546 6.1668 798.3838 6.2472 798.2034 6.4423 797.9772 6.6871 797.8079 6.8478 797.7399 6.9026 797.5762 7.0186 797.2584 7.2099 797.1238 7.303 797.0724 7.3553 796.9947 7.4318 796.7296 7.6103 796.4729 7.7442 796.2217 7.8577 796.0483 7.9125 795.7346 7.9584 795.5348 7.9915 795.1254 8.0196 795.0394 8.0489 794.8839 8.1178 794.7063 8.2147 794.4635 8.3792 794.3261 8.448 794.1221 8.5246 794.0402 8.5539 793.8209 8.6597 793.6142 8.7528 793.5545 8.7732 793.4671 8.7719 793.3089 8.6941 792.9813 8.4786 792.7302 8.2823 792.3444 7.975 792.0474 7.734 791.7601 7.507 791.724 7.4815 791.2938 7.1755 790.9483 6.886 790.6333 6.6017 790.6069 6.5736 790.2114 6.2255 790.0143 6.163 789.6452 6.0648 789.4828 6.0062 789.4232 6.0036 788.9527 6.0457 788.5864 6.061 788.306 6.0763 788.0049 6.0648 787.7315 6.0393 787.515 6.0164 787.2486 6.0125 787.0099 6.0125 786.5255 6.0725 786.427 6.0942 786.2633 6.0942 786.0676 6.0584 785.7151 5.9475 785.4209 5.8379 785.0143 5.653 784.8464 5.5981 784.845 5.3176 784.863 5.0409 784.8769 4.9593 784.8769 4.9567 784.8991 4.8841 784.9685 4.7425 785.0282 4.5946 784.8838 4.601 784.7562 4.592 784.5716 4.6035 784.3954 4.615 784.2052 4.6175 784.0179 4.6163 784.0137 4.5997 784.0096 4.5755 783.9901 4.5015 783.9679 4.3689 783.9652 4.3536 783.9568 4.2044 783.961 4.1253 783.9735 3.9315 783.9763 3.915 783.9971 3.8193 784.0137 3.7811 784.115 3.767 784.2191 3.7785 784.2538 3.8027 784.3412 3.9239 784.3773 3.929 784.4911 3.8716 784.5411 3.8423 784.5855 3.8486 784.7173 3.906 784.8256 3.9252 784.9116 3.9519 785.1017 4.0106 785.2474 4.0514 785.3654 4.0629 785.568 4.0718 785.7054 4.059 785.7998 4.0501 785.8733 4.0616 785.9371 4.0922 785.9899 4.0922 786.0718 4.0552 786.1078 4.0399 786.1522 4.0476 786.2369 4.0807 786.2563 4.0845 786.2771 4.0743 786.3077 4.0374 786.4548 3.8002 786.5602 3.6153 786.6407 3.4559 786.6282 3.4113 786.5006 3.3284 786.5006 3.3258 786.5061 3.2901 786.5103 3.2646 786.4992 3.2047 786.4798 3.1715 786.4451 3.1256 786.4159 3.0976 786.5297 2.9854 786.6088 2.9101 786.7476 2.8145 786.8197 2.752 786.8697 2.6844 786.9141 2.599 786.9322 2.5353 786.9322 2.534 786.9349 2.4677 786.9308 2.3389 786.9419 2.2535 786.9557 2.219 786.9696 2.2012 787.0224 2.1349 787.0307 2.1285 787.0848 2.0813 787.1306 2.0494 787.1889 2.0214 787.2291 1.9997 787.2902 1.95 787.3263 1.941 787.361 1.9423 787.3804 1.95 787.3998 1.9614 787.4206 1.9959 787.4553 2.052 787.5317 2.0877 787.5899 2.0979 787.6094 2.1043 787.6149 2.1055 787.6649 2.1259 787.7024 2.1374 787.7218 2.1527 787.7495 2.168 787.7759 2.1884 787.8273 2.2229 787.8675 2.2394 787.8953 2.2445 787.9286 2.2407 787.9563 2.2292 787.9757 2.2088 787.9827 2.1922 787.9827 2.1897 787.9841 2.1871 787.9841 2.1833 787.9771 2.1616 787.9522 2.1349 787.941 2.1068 787.941 2.0609 788.0007 1.9933 788.1006 1.9168 788.1478 1.8684 788.1784 1.8046 788.2353 1.6656 788.2769 1.547 788.2769 1.5458 788.2783 1.4871 788.2561 1.468 788.2241 1.4565 788.1867 1.4603 788.1242 1.4897 788.0479 1.5509 788.0215 1.5649 788.0063 1.5649 787.9855 1.556 787.9785 1.5368 787.9813 1.5037 788.016 1.4463 788.0576 1.3838 788.1187 1.3099 788.1201 1.3099 788.1492 1.3099 788.2075 1.3456 788.3019 1.4654 788.331 1.5228 788.4462 1.5534 788.5184 1.547 788.6086 1.505 788.6544 1.3978 788.6779 1.2512 Z"/>
</g>
</svg>