<?xml version="1.0" encoding="UTF-8"?>
<svg width="14px" height="14px" viewBox="0 0 16 16" version="1.1" xmlns="http://www.w3.org/2000/svg" xmlns:xlink="http://www.w3.org/1999/xlink">
    <!-- Generator: sketchtool 52.5 (67469) - http://www.bohemiancoding.com/sketch -->
    <title>E6205D09-89C8-4953-8D1A-C86DB54A1255@1x</title>
    <desc>Created with sketchtool.</desc>
    <g id="Page-1" stroke="none" stroke-width="1" fill="none" fill-rule="evenodd">
        <g id="B_Summary-View-Initial" transform="translate(-555.000000, -428.000000)">
            <g id="TOTAL-CONTENT" transform="translate(83.000000, 112.000000)">
                <g id="Content" transform="translate(0.000000, 155.000000)">
                    <g id="National-Level">
                        <g id="1" transform="translate(367.333333, 141.000000)">
                            <g id="info-more" transform="translate(102.666667, 20.000000)">
                                <rect id="Rectangle" fill-opacity="0" fill="#D8D8D8" x="0" y="0" width="16" height="16"></rect>
                                <path d="M10,0 C5.58173832,0 2,3.58168944 2,8 C2,12.4182617 5.58173832,16 10,16 C14.4182617,16 18,12.4182617 18,8 C18,3.58168944 14.4182617,0 10,0 Z M9.2,3.2 L10.8,3.2 L10.8,4.8 L9.2,4.8 L9.2,3.2 Z M11.6,12 L8.4,12 L8.4,10.4 L9.2,10.4 L9.2,8 L8.4,8 L8.4,6.4 L10.8,6.4 L10.8,10.4 L11.6,10.4 L11.6,12 Z" id="Shape" fill="#4A90E2" fill-rule="nonzero"></path>
                            </g>
                        </g>
                    </g>
                </g>
            </g>
        </g>
    </g>
</svg>