<?xml version="1.0" encoding="UTF-8"?>
<svg width="10px" height="14px" viewBox="0 0 10 14" version="1.1" xmlns="http://www.w3.org/2000/svg" xmlns:xlink="http://www.w3.org/1999/xlink">
    <!-- Generator: sketchtool 59.1 (101010) - https://sketch.com -->
    <title>73B0F80A-717D-44B3-88DD-505A9B894361@1x</title>
    <desc>Created with sketchtool.</desc>
    <g id="Page-1" stroke="none" stroke-width="1" fill="none" fill-rule="evenodd">
        <g id="RWRK_Outcome-TableView_Default" transform="translate(-670.000000, -135.000000)" fill="#B9C4D6" fill-rule="nonzero">
            <g id="Total-COntainer" transform="translate(40.000000, 36.000000)">
                <g id="Right-Container" transform="translate(384.000000, 0.000000)">
                    <g id="Table" transform="translate(24.000000, 85.000000)">
                        <g id="State-VERT" transform="translate(143.000000, -1.000000)">
                            <g id="2">
                                <path d="M80.0020045,22.9497389 L87.9014834,22.9497389 C88.7923888,22.9497389 89.2385539,24.0268807 88.608589,24.6568455 L84.6588505,28.606584 C84.2683266,28.9971098 83.6351612,28.9971098 83.2446373,28.606584 L79.294898,24.6568455 C78.6649331,24.0268807 79.1111001,22.9497389 80.0020045,22.9497389 Z M80.0020045,20.9497389 L87.9014834,20.9497389 C88.7923888,20.9497389 89.2385539,19.8725971 88.608589,19.2426323 L84.6588506,15.2928929 C84.2683267,14.902369 83.6351613,14.902369 83.2446374,15.2928929 L79.294898,19.2426323 C78.6649331,19.8725971 79.1111001,20.9497389 80.0020045,20.9497389 Z" id="No-sort-2"></path>
                            </g>
                        </g>
                    </g>
                </g>
            </g>
        </g>
    </g>
</svg>