<?xml version="1.0"?>
<svg xmlns="http://www.w3.org/2000/svg" version="1.2" baseProfile="tiny" width="800" height="1788" viewBox="0 0 800 1788" stroke-linecap="round" stroke-linejoin="round" fill="#B8C4D6">
<g id="DISTRICTS_2018">
<path d="M 440.0792 1779.7234 440.165 1779.7234 440.2018 1779.7234 440.2692 1779.746 440.3611 1779.8192 440.4101 1779.8811 440.4653 1779.9712 440.5511 1780.0782 440.6124 1780.1176 440.6614 1780.1345 440.7533 1780.1288 440.8268 1780.1176 440.8759 1780.157 440.882 1780.2077 440.8881 1780.2471 440.8942 1780.2809 440.8636 1780.3766 440.8146 1780.4779 440.7288 1780.5568 440.6491 1780.6131 440.5633 1780.6187 440.4347 1780.5962 440.3795 1780.5511 440.1834 1780.416 440.0547 1780.1795 439.9934 1780.0106 439.9628 1779.8867 439.9567 1779.7966 439.9567 1779.746 439.9873 1779.7234 440.0792 1779.7234 Z M 441.887 1767.1954 441.8441 1767.2123 441.8012 1767.2123 441.7828 1767.1954 441.7092 1767.1335 441.7031 1767.0603 441.746 1767.0096 441.8257 1766.9871 441.8686 1766.9983 441.9115 1767.0434 441.9053 1767.1109 441.9053 1767.156 441.887 1767.1954 Z M 462.7523 1782.0826 462.4153 1782.6288 461.637 1783.4396 461.1284 1784.059 460.8159 1784.6558 459.8783 1785.7763 459.2778 1786.3056 458.7202 1786.5927 457.7458 1786.8067 456.8328 1786.9362 454.4245 1786.7786 453.3338 1786.7166 451.1339 1786.3788 449.0137 1785.6806 447.4143 1785.2752 446.6177 1784.9542 445.7843 1784.5995 445.4472 1784.4306 445.0183 1784.1603 444.8161 1783.9914 444.4913 1783.7099 444.4361 1783.5579 444.4484 1783.0061 444.2707 1782.3473 444.0072 1781.5196 443.8846 1781.1705 443.854 1781.0016 443.8601 1780.8833 443.9337 1780.7707 444.0378 1780.6806 444.1604 1780.6637 444.2829 1780.6919 444.4116 1780.7538 444.5648 1780.8721 444.7487 1781.0635 444.8774 1781.1592 445.0734 1781.2381 445.2695 1781.2944 445.4289 1781.3619 445.5943 1781.514 445.7536 1781.6604 445.8762 1782.0376 445.9497 1782.2065 446.0233 1782.336 446.1397 1782.4599 446.201 1782.5838 446.201 1782.6795 446.1519 1782.7358 446.0662 1782.7358 445.9559 1782.657 445.8333 1782.4768 445.6372 1782.2966 445.4718 1782.0883 445.3553 1781.9869 445.1163 1781.8236 445.0183 1781.7054 444.8651 1781.5196 444.7364 1781.407 444.6506 1781.3281 444.5158 1781.3056 444.4239 1781.3507 444.3994 1781.4408 444.4055 1781.5534 444.5097 1781.7054 444.7303 1781.9025 444.8528 1782.077 444.9509 1782.3417 445.0673 1782.5387 445.294 1782.7414 445.9007 1783.0905 446.3235 1783.2369 446.8015 1783.2876 447.7636 1783.3383 449.2894 1783.3889 449.7858 1783.3383 451.8509 1782.7977 452.1327 1782.7245 452.4575 1782.6795 453.8301 1782.6063 454.2714 1782.6513 455.0986 1782.7865 455.5582 1782.6851 456.8144 1782.3529 457.7949 1781.9813 458.8918 1781.3676 459.431 1780.9791 459.7006 1780.6412 459.9335 1780.4216 460.5034 1780.0162 461.8331 1778.9633 462.8381 1778.1807 463.6041 1777.5726 464.321 1776.3563 464.8542 1775.4104 465.4547 1774.487 465.853 1773.6537 466.8028 1772.4375 467.673 1771.424 468.1264 1770.6976 468.3348 1770.1289 468.4267 1769.3069 468.5431 1768.4904 468.8189 1767.2123 468.9721 1766.7844 469.5481 1765.5118 469.9096 1764.5772 470.1425 1764.0366 470.2773 1763.5017 470.9024 1762.3756 471.6806 1761.0524 472.6733 1759.2901 473.2432 1758.057 473.5373 1757.5277 474.193 1756.6831 474.7629 1756.0862 475.1428 1755.7372 475.2593 1755.6302 475.3512 1755.6302 475.3757 1755.7372 475.3757 1755.8385 475.1673 1756.0187 474.9038 1756.2158 474.2849 1756.9196 473.8805 1757.5671 473.4638 1758.513 472.7959 1759.7349 470.9881 1762.9161 470.4918 1763.8846 469.3765 1766.7956 469.2049 1767.6008 468.9843 1768.2765 468.9476 1768.6931 468.9047 1769.0985 468.9476 1769.487 468.9843 1769.8361 468.8679 1770.5118 468.6963 1771.4859 468.6841 1772.1109 468.6718 1772.7584 468.8311 1773.7719 468.9843 1774.1717 469.0763 1774.4757 469.1314 1775.2359 469.0517 1775.6694 468.8924 1776.0579 468.4635 1776.6379 466.5087 1778.4171 465.951 1778.8957 464.223 1780.5624 463.1935 1781.4971 462.9607 1781.7561 462.7523 1782.0826 Z M 762.3003 850.3621 762.1961 850.3958 762.1348 850.3621 762.1471 850.3058 762.2267 850.272 762.2758 850.2663 762.3187 850.2832 762.3248 850.317 762.3003 850.3621 Z M 761.9449 850.2607 761.9755 850.2945 761.9755 850.3564 761.8958 850.3902 761.8223 850.3958 761.7978 850.317 761.8468 850.2663 761.8897 850.2663 761.9449 850.2607 Z M 762.6986 850.2382 762.6373 850.2607 762.5883 850.2551 762.5576 850.2157 762.6005 850.1481 762.6986 850.0805 762.7476 850.0749 762.7782 850.0974 762.7844 850.1425 762.7537 850.1819 762.6986 850.2382 Z M 761.8407 850.1931 761.7426 850.2213 761.6814 850.165 761.7365 850.1031 761.81 850.0805 761.8591 850.1087 761.8407 850.1931 Z M 762.1838 850.2326 762.0245 850.2494 761.9449 850.1425 761.9571 850.0299 762.0368 849.9904 762.0919 849.951 762.1961 849.9172 762.3309 849.9004 762.5331 849.8947 762.6496 849.9961 762.6067 850.0805 762.4167 850.1988 762.1838 850.2326 Z M 762.9498 850.0017 762.8763 850.0186 762.8089 850.0073 762.8089 849.9454 762.8518 849.8722 762.9069 849.8666 762.956 849.8666 762.9743 849.9454 762.9498 850.0017 Z M 762.1164 849.8947 762.0184 849.9285 761.9387 849.9004 761.9632 849.8272 762.0306 849.7877 762.0552 849.7652 762.1042 849.7708 762.1532 849.7708 762.1838 849.799 762.1655 849.844 762.1164 849.8947 Z M 762.717 849.799 762.6373 849.844 762.5638 849.844 762.5025 849.8272 762.4596 849.8046 762.4657 849.7708 762.5147 849.7314 762.5944 849.7145 762.6557 849.7089 762.7047 849.7596 762.717 849.799 Z M 763.4217 849.692 763.2623 849.9341 763.0356 849.9341 762.9682 849.8215 762.9988 849.6132 763.1949 849.388 763.2256 849.3711 763.3052 849.3204 763.3726 849.3711 763.4033 849.5175 763.4217 849.692 Z M 764.0712 848.5152 763.7648 848.5828 763.6484 848.4195 763.6239 848.183 763.7587 848.0929 763.9487 848.0873 764.0345 848.0873 764.1754 848.1098 764.2183 848.1605 764.2305 848.3576 764.0712 848.5152 Z M 760.7254 847.3722 760.7928 847.4229 761.0012 847.3272 761.1115 847.4229 760.9338 847.665 760.7928 847.7945 760.658 848.0028 760.272 848.1774 759.9962 848.2112 759.8001 848.0197 759.7511 847.8396 759.8982 847.6819 760.1923 847.4229 760.3516 847.2596 760.5477 847.102 760.7438 847.0513 760.8725 847.0851 760.9889 847.147 760.9338 847.2315 760.7438 847.3103 760.7254 847.3722 Z M 761.8591 847.0738 761.7671 847.1526 761.7059 847.147 761.6691 847.1357 761.6385 847.0682 761.6446 847.04 761.6446 846.9837 761.6814 846.8936 761.7917 846.7923 761.8836 846.7416 761.9449 846.7191 762 846.7247 762.0184 846.7923 761.9939 846.8993 761.9449 846.9893 761.8591 847.0738 Z M 770.9589 848.0479 771.057 849.129 771.057 850.5028 771.0263 850.9195 771.0754 851.6121 771.057 852.3553 771.008 852.8339 770.9405 853.4645 770.9405 854.2359 770.8302 854.8496 770.7016 855.1875 770.4871 855.4746 770.1317 855.7956 769.8253 855.9926 769.3534 856.0546 768.7039 856.0884 768.0237 856.0546 767.5518 855.942 767.08 855.5703 766.7736 855.2663 766.6756 854.9454 766.6939 854.5737 766.9513 854.1852 766.9513 853.96 766.8104 853.5433 766.5285 852.8508 766.3385 852.2708 766.0934 851.7416 765.8789 851.2404 765.6093 850.6436 765.1804 850.0974 764.7759 849.4724 764.5308 849.0501 764.4389 848.8643 764.347 848.656 764.4389 848.4927 764.6718 848.4927 765.1681 848.6729 765.4929 848.8474 765.8667 849.022 766.3385 849.0389 766.792 848.9094 767.1842 848.7179 767.4661 848.3801 767.7234 847.9803 767.7786 847.9296 768.0482 847.6706 768.373 847.3047 768.5691 846.8993 768.8326 846.4826 769.0716 846.049 769.1573 845.6774 769.2493 845.227 769.4147 844.7202 769.6108 844.2529 769.8375 843.4984 769.9785 842.7608 770.291 841.888 770.7261 840.9252 770.9344 840.3509 771.1795 839.7428 771.2776 839.2079 771.3389 838.3746 771.4737 837.8228 771.7127 837.2935 771.9088 836.8092 772.1048 836.3757 772.2151 836.0829 772.399 835.3903 772.5889 834.3937 772.6563 833.735 772.687 833.1043 772.7544 832.7158 772.8647 832.7665 772.8831 832.9298 773.0118 833.5097 772.9995 833.8476 772.9321 834.6021 772.7667 835.4523 772.2519 836.9894 772.1722 837.4737 772.0068 838.1831 771.9394 838.8419 771.7984 839.5795 771.7372 840.3509 771.7249 840.6212 771.6085 841.0885 771.5595 841.522 771.3021 842.2653 771.1244 842.8621 770.9896 843.4364 770.9283 844.388 770.8793 845.1031 770.7996 845.5423 770.7506 845.9252 770.8793 846.6684 770.9099 847.5355 770.9589 848.0479 Z M 773.4407 829.2643 773.3243 829.2924 773.2017 829.2023 773.1404 829.0334 773.1527 828.887 773.2385 828.7969 773.3488 828.7969 773.4285 828.8814 773.4897 828.9602 773.502 829.1122 773.4407 829.2643 Z M 63.02 864.2527 62.7749 864.3315 62.6095 864.2809 62.5727 864.1851 62.5604 864.1063 62.5972 863.9993 62.7075 863.8192 62.873 863.5827 62.9771 863.3631 63.0874 863.0647 63.1977 862.693 63.2835 862.4059 63.4367 862.1243 63.7002 861.6007 64.0801 861.0883 64.5214 860.728 64.6807 860.5647 64.8339 860.2775 65.1096 859.996 65.2935 859.8214 65.3915 859.7651 65.943 858.2055 66.1514 858.0872 66.3046 858.0478 66.2678 858.3406 65.8695 859.1908 65.6734 859.8383 65.7285 860.6604 65.7163 860.7617 65.655 860.8744 65.6244 861.0039 65.5876 861.184 65.5631 861.3698 65.4712 861.6626 65.3425 861.978 65.1648 862.1581 64.9503 862.4509 64.7052 862.8169 64.4723 863.2842 64.1476 863.6052 63.8718 863.791 63.3693 864.1964 63.02 864.2527 Z M 777.5035 805.5933 777.5709 806.0888 777.767 806.8489 777.8466 807.4289 777.9447 808.0876 778.1347 808.8253 778.3307 809.3714 778.7352 810.0471 778.87 810.3343 779.1457 811.1451 779.3847 811.9164 779.5012 812.3669 779.4828 813.1101 779.3051 813.7351 779.109 814.7993 778.9803 815.2047 778.8026 815.8635 778.6065 816.3646 778.3614 817.0065 778.1653 817.8286 778.0366 818.2171 777.7792 818.4254 777.5648 818.538 777.3258 818.5549 777.2951 818.4873 777.289 818.4085 777.5648 818.2002 777.7486 817.8792 777.7792 817.3443 777.8283 816.7813 777.9569 816.2182 778.153 815.5763 778.3185 815.0583 778.4104 814.3657 778.4778 813.6056 778.5575 812.6259 778.4778 811.8545 778.3614 811.2408 778.153 810.5482 777.8099 809.7881 777.5035 808.966 777.2951 808.5325 777.0684 807.8399 776.9704 807.3557 776.9826 806.8208 776.8233 806.4041 776.6088 806.0325 776.5475 805.7622 776.4801 805.7622 776.4495 805.9706 776.5108 806.1451 776.4985 806.3872 776.3514 806.4829 776.2228 806.3872 776.1676 806.1789 776.1554 806.1564 776.1431 805.7679 776.2534 805.3343 776.4495 805.1541 776.8417 804.9627 777.1297 804.9176 777.3932 805.0134 777.4728 805.2217 777.5035 805.5933 Z M 90.6567 830.9816 90.3074 831.4883 90.2951 831.4715 90.1174 831.9106 89.7559 832.6088 89.3759 833.0705 89.1676 833.2789 89.0328 833.2451 89.1247 832.9636 89.5782 832.3949 89.7926 831.8431 90.0316 831.2631 90.2216 830.6156 89.9642 830.0188 89.9397 829.833 90.1726 829.7879 90.3441 829.9399 90.5709 830.1877 90.7853 830.3848 90.7853 830.5987 90.6567 830.9816 Z M 87.9972 818.0819 88.1259 818.2396 88.181 818.3353 88.2116 818.5493 88.2852 818.7351 88.4506 818.8758 88.5242 819.0166 88.5119 819.1067 88.4568 819.1799 88.371 819.2193 88.2545 819.2306 88.132 819.1855 87.9972 818.904 87.8869 818.7295 87.7766 818.6394 87.5866 818.4704 87.3415 818.3072 86.9861 818.234 86.7777 818.2677 86.6184 818.3184 86.4101 818.3916 86.2446 818.4367 85.9934 818.4536 85.6625 818.4141 85.5031 818.3297 85.4173 818.234 85.3683 818.1157 85.3499 817.8342 85.3744 817.7328 85.4541 817.6202 85.5767 817.5076 85.6747 817.4232 85.7666 817.2711 85.8892 816.9614 85.9137 816.8488 85.9321 816.7362 85.9321 816.5223 85.9014 815.8973 85.8769 815.6439 85.785 815.3342 85.7053 814.895 85.6196 814.6304 85.5644 814.4108 85.5583 814.1912 85.5522 814.0392 85.6257 813.8477 85.6992 813.707 85.8034 813.6281 85.9014 813.5944 85.9627 813.5831 86.024 813.6056 86.0424 813.6225 86.0546 813.6619 86.0608 813.7182 86.0608 813.7689 86.0485 813.8871 86.0485 813.9885 86.0914 814.0842 86.2262 814.2531 86.3672 814.3995 86.4958 814.5065 86.6307 814.7486 86.7226 814.9232 86.7961 815.1315 86.8451 815.368 86.9493 815.6664 87.1577 816.0943 87.3905 816.3421 87.6111 816.4997 87.6969 816.6067 87.7459 816.7587 87.7643 817.0009 87.8256 817.3443 87.8685 817.6934 87.9298 817.9074 87.9972 818.0819 Z M 249.8951 585.3869 250.177 585.4544 250.2812 585.4206 250.4344 585.37 250.5385 585.3756 250.6488 585.3812 250.7591 585.3981 250.8265 585.4094 251.0471 585.3418 251.2065 585.3587 251.4148 585.522 251.7028 585.8767 251.8867 586.1245 252.1195 586.361 252.4872 586.8227 252.8304 587.3576 253.1184 587.9826 253.3757 588.6076 253.4738 589.0805 253.6025 589.6943 253.6576 590.0884 253.6086 590.3812 253.4615 590.8373 253.2838 591.3271 253.247 591.4454 253.1429 591.8057 253.0939 592.0704 253.0632 592.2956 253.0081 592.594 252.9161 592.8586 252.7752 593.0613 252.5485 593.2584 252.3401 593.4048 251.8989 593.7258 251.5435 593.9904 251.1942 594.21 250.8265 594.3508 250.2567 594.5647 249.889 594.5929 249.6316 594.6266 249.4233 594.6604 248.9821 594.8012 248.5041 595.0489 248.069 595.2854 247.7871 595.46 247.3704 595.6233 247.1682 595.6514 246.9108 595.7077 246.5861 595.8147 246.1694 596.0456 245.7956 596.2314 245.336 596.5579 244.858 596.9464 243.6202 597.9149 242.9032 598.4723 242.2353 598.9453 241.6041 599.4521 240.5134 600.2629 240.2192 600.4712 239.9312 600.6852 239.5942 600.9723 239.3797 601.2651 239.2817 601.496 239.1714 601.6818 238.963 601.9183 238.7302 602.166 238.5034 602.4081 238.2951 602.6052 238.1664 602.7854 238.0009 602.9881 237.8294 603.1795 237.6517 603.3541 237.5168 603.4836 237.4065 603.5736 237.2411 603.6694 237.0021 603.8608 236.6896 604.0691 236.5057 604.1592 236.3587 604.2099 236.1994 604.2324 236.0278 604.2155 235.9052 604.1592 235.7704 604.0522 235.654 603.889 235.5559 603.7369 235.5253 603.5399 235.5069 603.3709 235.5253 603.1851 235.5743 603.0613 235.7581 602.8586 235.893 602.7122 236.0584 602.4588 236.2055 602.273 236.4261 602.0196 236.5425 601.907 236.7938 601.8282 236.9347 601.7437 237.143 601.7043 237.2901 601.6705 237.4004 601.6086 237.523 601.4791 237.67 601.389 237.8294 601.3327 237.9887 601.2876 238.1358 601.2538 238.2093 601.1975 238.387 601.1131 238.4912 601.0793 238.6321 601.1356 238.7669 601.1525 238.8772 601.1412 239.0549 601.1243 239.104 601.0849 239.2817 600.8991 239.5574 600.5725 239.8087 600.2629 239.8883 600.1671 240.0354 599.9532 240.2437 599.6153 240.3173 599.4577 240.5869 598.9172 240.6849 598.7145 240.8381 598.4104 240.973 598.2133 241.2119 597.8811 241.5857 597.3631 242.076 596.6199 242.4743 595.978 242.8848 595.4318 243.1851 595.0264 243.5405 594.5197 243.755 594.103 244.0185 593.6694 244.1227 593.4949 244.4474 593.0388 245.1399 591.9465 245.7282 590.8542 245.9794 590.4431 246.1878 590.1278 246.3348 589.9476 246.6045 589.4071 246.7454 589.0073 246.8986 588.6188 246.9537 588.54 247.1498 588.1627 247.3459 587.8643 247.4011 587.8305 247.4011 587.7799 247.5665 587.4589 247.5849 587.3576 247.7075 586.8959 247.6768 586.8508 247.7075 586.6537 247.9158 586.0907 248.0506 585.7022 248.1242 585.3869 248.0568 585.0321 248.0629 584.9083 248.118 584.8576 248.308 584.852 248.4306 584.852 248.6083 584.9026 248.933 585.0152 249.4294 585.2179 249.8951 585.3869 Z M 781.5172 461.1875 782.0565 461.2776 782.3996 461.4014 782.7612 461.576 782.8163 461.5873 783.184 461.4746 783.5333 461.4859 783.9806 461.5197 784.6057 461.5309 785.0898 461.576 785.3716 461.6773 785.6719 461.8125 785.9109 461.8406 786.2357 461.6999 786.6156 461.4183 787.0078 461.4127 787.3877 461.4465 787.6206 461.4577 787.9147 461.5422 788.3069 461.7111 788.6072 461.7224 789.3609 461.6886 789.9982 461.6999 790.6171 461.7449 790.9725 461.8012 791.1992 461.8125 791.3892 461.8012 791.4566 461.7449 791.7324 461.6999 791.8917 461.6436 792.0571 461.5985 792.2839 461.5816 792.4555 461.5366 793.2276 461.4972 793.5768 461.5535 793.8281 461.5985 794.2877 461.6436 795.0659 461.621 795.7277 461.6436 796.2608 461.6773 797.1371 461.7787 797.7989 461.8012 798.2463 461.8463 798.6139 462.0433 798.8652 462.2573 798.9877 462.5557 799 462.8767 798.8529 463.1526 798.8162 463.2032 798.8345 463.2821 798.8529 463.451 798.7488 463.603 798.5772 463.7607 798.2585 464.0366 798.0073 464.2224 797.6519 464.3519 797.4803 464.2956 797.1126 464.4025 796.2731 464.6052 795.8503 464.7291 795.2865 464.9149 794.8453 465.0613 794.4225 465.1458 794.257 465.2077 793.8649 465.3429 793.0437 465.63 791.8672 466.2156 790.758 466.6717 789.9063 467.0827 789.4589 467.2291 788.3069 467.5275 787.6757 467.6795 786.7688 467.9611 786.3215 468.1244 785.5187 468.237 784.9672 468.282 784.1032 468.2708 783.423 468.237 782.7673 468.1694 782.3567 468.1131 781.8604 468.0286 781.1434 467.8935 780.3591 467.7246 779.2499 467.3586 778.6126 466.9138 777.9753 466.3338 777.816 466.0242 777.4606 465.3203 777.2216 464.5996 777.099 464.0084 777.0807 463.4116 777.0868 463.0737 777.1358 462.7866 777.2706 462.4318 777.4361 462.1109 777.6812 461.8012 778.0489 461.5253 778.3124 461.4521 778.8516 461.3451 779.207 461.2888 779.8566 461.2888 780.1262 461.21 780.6532 461.1762 781.5172 461.1875 Z M 3.0651 462.5276 3.0099 462.6233 2.9303 462.8147 2.8874 463.0287 2.9303 463.1638 2.967 463.2258 3.0467 463.2989 3.1386 463.3778 3.1999 463.4397 3.2305 463.5242 3.1876 463.5861 3.1325 463.6255 3.0283 463.6593 2.9425 463.6649 2.8016 463.6762 2.6606 463.6818 2.5381 463.6818 2.3604 463.6875 2.1704 463.6649 1.8885 463.6593 1.6741 463.6593 1.3248 463.6931 1.19 463.6818 1.098 463.6312 1.0429 463.5692 1 463.4735 1.0552 463.3215 1.1777 463.2089 1.3554 463.0568 1.5699 462.8935 1.8334 462.7528 1.9805 462.6571 2.2685 462.5895 2.3849 462.5782 2.5013 462.5782 2.6484 462.5726 2.771 462.5219 2.8629 462.4487 2.9732 462.3924 3.0528 462.3699 3.0957 462.3981 3.0957 462.4318 3.0651 462.5276 Z M 21.5222 429.5267 21.6386 429.5267 21.847 429.4986 22.1534 429.4704 22.3372 429.4817 22.4843 429.5267 22.6129 429.6619 22.662 429.8026 22.6742 430.0166 22.6129 430.3544 22.5455 430.6359 22.3862 430.9963 22.0676 431.6157 21.6938 432.342 21.3935 432.9839 21.1178 433.6033 20.7623 434.2846 20.5295 434.6449 20.2231 435.1235 19.9718 435.5345 19.5858 436.2947 19.2978 436.8296 18.9117 437.4321 18.4521 438.1415 17.8945 439.0142 17.4901 439.5886 17.1653 440.1291 16.7608 440.7316 16.5402 441.0469 16.2829 441.4523 15.9029 441.9647 15.6272 442.3757 15.2718 442.9275 14.9347 443.4343 14.6529 443.834 14.3649 444.3014 14.1136 444.6617 13.6908 445.3487 13.2373 446.1763 12.9248 446.7281 12.6552 447.218 12.4468 447.584 12.2324 448.0063 11.8708 448.6257 11.6441 448.9635 11.3009 449.7124 11.0129 450.2979 10.8904 450.4781 10.6207 450.9229 10.3817 451.4241 10.1795 451.8069 9.9222 452.3756 9.7567 452.8261 9.6587 453.1695 9.4932 453.6707 9.34 454.0535 9.1746 454.3294 9.0091 454.7742 8.764 455.326 8.3841 455.8215 8.0164 456.3058 7.7284 456.6605 7.4342 457.0434 7.1891 457.3643 7.0359 457.5501 6.8092 457.826 6.5457 458.1808 6.3864 458.3835 6.08 458.7832 5.7491 459.1999 5.5101 459.4645 5.3018 459.7292 5.1976 459.8699 4.9831 460.0895 4.5051 460.5287 4.26 460.7201 4.0884 460.7877 3.8801 460.8553 3.7759 460.8496 3.7392 460.6807 4.0578 460.2078 4.1742 460.0388 4.2784 459.8868 4.4745 459.5659 5.3018 458.5186 5.8104 457.781 6.2516 457.2123 6.6254 456.7506 7.1524 456.013 7.5813 455.4443 7.9367 455.022 8.4331 454.2731 8.7762 453.5749 9.1929 452.8035 9.3584 452.4432 9.818 451.4184 10.1244 450.7596 10.4614 449.7743 10.823 449.0423 11.0987 448.5356 11.5093 447.8655 11.6563 447.6234 11.975 446.9872 12.2936 446.3847 12.5755 445.8385 12.8451 445.2923 13.1454 444.7068 13.3047 444.2563 13.4457 443.8002 13.5682 443.1865 13.7827 442.3138 13.9911 441.6944 14.2607 440.9455 14.4384 440.3149 14.5916 439.735 14.7141 439.1381 14.7632 438.9298 14.849 438.4287 14.9715 437.9444 15.0512 437.6911 15.2779 437.128 15.4066 436.7395 15.4863 436.396 15.7069 435.4501 15.7681 435.2023 15.8846 434.8195 16.1726 434.1269 16.3932 433.5132 16.5219 433.2598 16.7241 433.0008 17.0489 432.6066 17.2695 432.3702 17.4288 432.2238 17.8577 431.7395 18.0906 431.4411 18.3541 431.0808 18.9362 430.4839 19.1507 430.2474 19.6532 429.5943 19.8064 429.4141 19.8493 429.3578 19.9351 429.3409 20.1067 429.3409 20.3334 429.4028 20.5785 429.4592 20.8297 429.5098 20.9952 429.538 21.1484 429.538 21.2893 429.538 21.5222 429.5267 Z M 65.4344 394.223 65.6121 394.3131 65.8327 394.2849 66.1207 394.2849 66.3536 394.2624 66.4761 394.2905 67.0583 394.2849 67.4689 394.3187 67.714 394.3131 67.8181 394.375 67.8365 394.4538 67.7385 394.5101 67.5853 394.4876 67.285 394.4763 66.9541 394.4313 66.7151 394.4595 66.5926 394.4482 66.4761 394.4482 66.3413 394.5439 66.1759 394.7297 65.9369 395.0619 65.8021 395.3998 65.7898 395.7489 65.9675 396.2669 66.0901 396.7567 66.2004 397.1621 66.3107 397.5788 66.4639 397.9279 66.7887 398.2151 67.1196 398.5304 67.3095 398.75 67.4382 399.0033 67.4505 399.1891 67.3402 399.2961 67.1318 399.3186 66.9664 399.3975 66.758 399.5495 66.3658 399.6903 66.0778 399.7916 65.7898 399.8479 65.5018 399.8592 65.177 399.8367 64.7542 399.7466 64.3927 399.6396 64.0066 399.5833 63.786 399.5608 63.5777 399.4594 63.4183 399.3412 63.3325 399.1328 63.2774 398.8851 63.3632 398.5867 63.5225 398.2657 63.6206 397.911 63.7309 397.393 63.8963 397.0214 63.9944 396.6723 64.1292 396.2275 64.1966 395.8784 64.264 395.2534 64.3927 394.7917 64.5336 394.3187 64.6807 394.0259 64.8277 393.8908 64.9442 393.8908 65.2015 394.0372 65.4344 394.223 Z M 84.4675 392.2523 84.1366 392.4944 83.7689 392.8547 83.389 393.2151 82.7578 393.7556 82.3166 394.1385 81.8816 394.482 81.569 394.6622 80.9808 395.0169 80.4048 395.2984 79.9697 395.5743 79.6694 395.7601 79.3691 395.777 79.2159 395.7432 79.1792 395.6081 79.1914 395.4673 79.1792 395.259 79.1363 394.9831 79.1485 394.7072 79.2037 394.4426 79.2037 394.2793 79.2037 394.0146 79.2282 393.7444 79.3569 393.3559 79.5591 393.0405 79.7675 392.821 80.0738 392.5957 80.2087 392.5394 80.417 392.5225 80.7111 392.5 80.9746 392.4719 81.3055 392.4606 81.7958 392.4437 82.2247 392.4268 82.911 392.3536 83.4503 392.2523 84.204 392.1002 84.584 391.8806 84.921 391.7399 85.1232 391.6273 85.2458 391.6273 85.2887 391.7117 85.16 391.8356 84.8903 392.0101 84.4675 392.2523 Z M 88.4445 391.4189 88.2362 391.4921 88.0707 391.6329 87.8807 391.7906 87.7582 391.9707 87.6724 392.0833 87.5498 392.1228 87.4273 392.1115 87.2863 392.0608 87.1699 391.9764 87.0657 391.7962 86.9677 391.6442 86.9738 391.5597 87.0535 391.5372 87.2863 391.5259 87.4089 391.5147 87.5192 391.4865 87.6418 391.4527 87.7521 391.3457 87.9849 391.1712 88.2545 390.9966 88.4016 390.9403 88.5977 390.9629 88.659 391.0248 88.6651 391.098 88.5732 391.2557 88.5119 391.3739 88.4445 391.4189 Z M 89.3147 389.741 89.2901 389.9043 89.2289 390.0845 89.2044 390.2816 89.1676 390.4674 89.0941 390.6419 88.9776 390.7602 88.8918 390.8277 88.806 390.8277 88.757 390.7658 88.7693 390.6588 88.8306 390.518 88.8244 390.4054 88.757 390.3097 88.6896 390.2647 88.6161 390.2478 88.4751 390.2196 88.3465 390.1521 88.2729 390.0845 88.3097 389.9494 88.3465 389.8593 88.4139 389.8086 88.5058 389.7692 88.6283 389.8086 88.7877 389.8424 88.9347 389.8536 89.0205 389.8536 89.0757 389.803 89.1431 389.7354 89.186 389.6791 89.2718 389.6735 89.3147 389.741 Z M 89.5414 389.1104 89.3821 389.1892 89.1737 389.1949 89.0573 389.0935 89.0205 388.9077 89.0328 388.7163 89.0573 388.4404 89.045 388.2264 89.0021 388.0631 88.9592 387.9674 88.898 387.8491 88.8918 387.714 88.947 387.6127 89.0205 387.5958 89.1002 387.6352 89.1921 387.7591 89.3208 387.9336 89.4924 388.0856 89.6027 388.3503 89.6639 388.5248 89.6578 388.7726 89.6333 388.9865 89.5414 389.1104 Z M 289.4259 307.298 289.3401 307.3769 289.1685 307.3262 289.0153 307.1911 288.8193 306.8926 288.6232 306.5998 288.3168 306.3014 288.0104 305.9974 287.943 305.744 287.7101 305.1809 287.5263 304.4152 287.5201 304.1843 287.5385 303.931 287.5201 303.2947 287.5569 302.9062 287.704 302.1911 287.9614 301.5999 288.3842 300.699 288.5374 300.3781 288.9786 299.6742 289.4504 299.083 289.8058 298.7452 290.3512 298.3173 290.9456 297.8837 291.4787 297.5515 291.8648 297.3488 292.2447 297.1461 292.7595 296.7914 293.3416 296.2959 293.6664 295.9918 294.0892 295.6934 294.5059 295.502 294.7755 295.4513 295.0329 295.44 295.468 295.4569 295.9643 295.5414 296.1298 295.5808 296.3872 295.654 296.5771 295.7948 296.761 296.1382 296.8529 296.4254 296.8161 296.7013 296.6752 297.2643 296.3994 298.1146 296.1604 298.6832 295.9521 299.1787 295.6886 300.0233 295.1187 301.2114 294.6775 301.8758 293.9973 302.878 293.1088 303.9422 292.8085 304.2069 291.73 305.164 290.339 306.2733 289.7813 306.7237 289.524 306.9996 289.4259 307.298 Z M 311.143 271.5213 311.0205 271.5607 310.9531 271.5607 310.9592 271.5044 310.996 271.3974 311.1798 271.1891 311.3024 271.0202 311.3881 270.8738 311.4494 270.7105 311.523 270.3727 311.5597 270.1193 311.5842 269.9898 311.7742 269.0213 311.7803 268.6385 311.7681 268.3626 311.7436 268.1317 311.7129 267.6137 311.7681 267.1464 311.8171 266.7241 311.909 266.1892 312.0071 265.8344 312.1603 265.2826 312.3502 264.5619 312.4789 264.1396 312.6321 263.661 312.8343 263.25 313.0059 262.884 313.2204 262.3547 313.4226 261.8649 313.6309 261.4201 313.8515 260.9752 313.9741 260.6993 314.0783 260.3446 314.1641 260.0293 314.2437 259.7703 314.354 259.4212 314.495 259.0777 314.5991 258.8018 314.734 258.419 314.8933 258.0023 315.0465 257.5293 315.2058 257.0395 315.4632 256.4088 315.6102 255.9133 315.7144 255.5755 315.935 254.9561 316.1985 254.2523 316.3517 253.8526 316.4007 253.6555 316.4375 253.4472 316.4559 253.0755 316.511 252.7095 316.6642 252.3323 316.8358 251.9776 316.9951 251.5778 317.1116 251.285 317.179 251.0598 317.2525 250.5756 317.3628 250.1533 317.614 249.4889 317.8408 248.7907 317.9878 248.2163 318.1839 247.6871 318.2575 247.3549 318.3494 246.9213 318.5148 246.2682 318.7354 245.57 318.8948 244.945 319.0786 244.3369 319.2379 243.633 319.3973 243.2108 319.4769 242.9912 319.5443 242.6815 319.6424 242.2648 319.7282 241.9495 319.8446 241.5779 319.9733 241.1669 320.0591 240.8628 320.1632 240.4968 320.4022 240.0407 320.5432 239.7705 320.7883 239.1961 321.015 238.7401 321.4317 237.9124 321.5849 237.5464 321.8116 237.0959 322.0445 236.4428 322.2712 236.0036 322.3938 235.7502 322.547 235.3674 322.7676 234.8212 323.0249 234.3201 323.2578 233.6388 323.5029 233.0476 323.7787 232.6253 324.0667 232.2199 324.2934 231.9777 324.4098 231.8933 324.514 231.8539 324.7407 231.7976 324.9859 231.6061 325.3106 231.364 325.4761 231.2683 325.6048 231.2458 325.7457 231.2514 325.856 231.319 325.9295 231.4259 325.9418 231.5442 325.856 232.0172 325.8683 232.4 325.8438 232.659 325.7763 232.8899 325.7518 233.1602 325.7396 233.3572 325.6844 233.5768 325.6415 233.8021 325.4883 234.0104 325.3964 234.2075 325.2677 234.5734 325.0778 235.0971 324.8817 235.4856 324.6059 236.0543 324.416 236.5498 324.1341 237.1354 323.8767 237.6252 323.6377 238.2221 323.509 238.6387 323.2884 239.1624 323.1414 239.5452 322.982 239.8324 322.7737 240.2547 322.6389 240.6432 322.5899 240.8459 322.4489 241.454 322.3876 241.6398 322.3141 241.865 322.2222 242.1241 322.0138 242.5013 321.8055 243.0587 321.6646 243.5092 321.5604 243.7963 321.4562 244.1905 321.3153 244.6297 321.2295 244.9788 321.1253 245.2941 320.9537 245.7051 320.8067 246.0373 320.7025 246.4089 320.6106 246.8368 320.5922 247.1747 320.5064 247.4844 320.3164 248.0474 320.1877 248.5767 320.0345 249.0497 319.9304 249.4889 319.8323 249.9506 319.7036 250.3954 319.6056 250.7726 319.575 251.0429 319.4953 251.3582 319.4892 251.5947 319.4585 251.8481 319.3176 252.4055 319.0909 253.0474 318.9315 253.5823 318.7109 254.1341 318.4965 254.5733 318.1901 255.1307 317.8714 255.598 317.3077 256.4539 316.8848 257 316.5846 257.3717 316.2598 257.8277 315.886 258.3514 315.6102 258.7681 315.3345 259.1791 315.0587 259.6633 314.9055 260.0743 314.7278 260.6825 314.4766 261.3581 314.3173 261.7692 314.017 262.67 313.8454 263.1318 313.7106 263.5203 313.6677 263.7905 313.6126 264.0608 313.4594 264.4268 313.3245 264.7308 313.2265 265.0968 313.0549 265.5022 312.9385 265.75 312.6934 266.5157 312.4605 267.1858 312.2706 267.8277 312.1174 268.3851 311.9458 269.438 311.8845 269.7758 311.8293 270.1531 311.6639 270.8344 311.572 271.0709 311.4372 271.2905 311.2962 271.42 311.143 271.5213 Z M 438.9517 122.6431 438.7985 122.6769 438.6576 122.6713 438.5044 122.6149 438.3389 122.5361 438.3022 122.4854 438.2593 122.3954 438.2593 122.2208 438.2899 122.035 438.3328 121.9111 438.3941 121.8098 438.4983 121.6746 438.6576 121.5395 438.8046 121.41 438.8537 121.3312 438.8537 121.2298 438.8353 121.0891 438.7679 120.892 438.584 120.4866 438.4492 120.0756 438.3451 119.8334 438.0877 119.3717 437.8855 118.9494 437.671 118.3695 437.5484 117.8627 437.4994 117.5868 437.3952 116.8323 437.3707 116.6634 437.2175 116.1736 437.0705 115.74 436.9602 115.2952 436.8805 114.7321 436.8131 114.2929 436.7518 113.7243 436.6538 113.3583 436.5373 112.7502 436.4087 112.2547 436.28 111.7479 436.0778 111.0835 436.0165 110.8639 435.9429 110.5937 435.8755 110.481 435.7836 110.3741 435.6365 110.2671 435.4772 110.2051 435.2566 110.1488 434.9502 110.1376 434.7848 110.0756 434.5948 109.9405 434.4355 109.7209 434.3558 109.5576 434.2945 109.338 434.1536 109.1128 433.9085 108.7356 433.7185 108.5103 433.645 108.3865 433.6266 108.2682 433.6634 108.1612 433.7921 108.0486 434.0678 107.891 434.3558 107.7558 434.5151 107.7108 434.9564 107.6826 435.3056 107.7052 435.6856 107.8121 436.1145 107.998 436.3535 108.15 436.6783 108.4202 437.0827 108.7525 437.3462 109.0452 437.6771 109.4394 437.9039 109.7434 438.2348 110.3009 438.5718 111.0554 438.9395 111.8099 439.3807 112.57 439.4787 112.7558 439.7545 113.3808 439.7483 114.0902 439.7361 114.7941 439.73 115.5035 439.7545 116.2242 439.7912 116.9449 439.8954 117.6826 440.0118 118.4145 440.0547 118.651 440.1038 118.8425 440.2263 119.1916 440.5021 120.0136 440.741 120.8526 440.7104 121.0496 440.6246 121.2242 440.4776 121.4325 440.2386 121.669 439.4665 122.3109 439.1907 122.508 438.9517 122.6431 Z M 14.3158 55.4365 14.3281 55.5547 14.2484 55.5998 13.9972 55.6166 13.8195 55.5998 13.5131 55.5772 13.2864 55.5885 13.0167 55.6166 12.6184 55.6504 12.3978 55.6279 12.2814 55.5547 12.2691 55.4815 12.2569 55.3576 12.2385 55.1493 12.214 55.0254 12.165 54.8115 12.0179 54.575 11.8034 54.3216 11.6747 54.1808 11.6441 54.0908 11.6809 54.0288 11.7483 53.9781 11.8034 53.9331 11.9076 53.9106 12.0547 53.8993 12.1833 53.8824 12.3365 53.9106 12.6552 54.0682 12.9248 54.1865 13.2496 54.3272 13.5253 54.4849 13.703 54.6088 13.8379 54.7608 14.1197 55.1324 14.2178 55.2732 14.3158 55.4365 Z M 285.1916 9.9639 284.6033 10.8197 284.0518 11.6305 283.5493 12.126 282.722 12.126 281.858 12.126 281.7661 11.9459 281.7661 11.6305 281.9928 11.135 282.2257 10.9098 282.4953 10.9098 283.0039 10.6902 283.4574 10.2792 283.7331 9.5134 284.0947 7.8468 284.3275 6.9009 284.6462 6.2252 285.2406 5.1441 285.6083 4.4234 285.9759 3.7477 286.0188 3.1621 286.2027 2.6216 286.748 1.9009 287.2934 1.2703 287.4773 1 287.6611 1.7658 287.802 2.4414 287.9368 4.2432 287.9368 5.7804 287.6611 6.4504 287.2505 7.3063 286.4294 8.3423 285.835 9.1531 285.1916 9.9639 Z"/>
</g>
</svg>