<?xml version="1.0" encoding="UTF-8" standalone="no"?>
<svg width="304px" height="162px" viewBox="0 0 304 162" version="1.1" xmlns="http://www.w3.org/2000/svg" xmlns:xlink="http://www.w3.org/1999/xlink">
    <!-- Generator: sketchtool 50.2 (55047) - http://www.bohemiancoding.com/sketch -->
    <title>75A44FAD-50AB-45AC-8925-0ECF68C083E7</title>
    <desc>Created with sketchtool.</desc>
    <defs></defs>
    <g id="Page-1" stroke="none" stroke-width="1" fill="none" fill-rule="evenodd">
        <g id="Rev1.3-iPad-Map-View-Landing-Page-Copy-7" transform="translate(-70.000000, -149.000000)" fill="#FFFFFF">
            <g id="Agra-Landing-page" transform="translate(70.000000, 149.000000)">
                <path d="M64.0061764,121.687157 C63.9442505,121.661568 63.881301,121.637002 63.8152808,121.617554 C63.643833,121.568423 63.5936781,121.40977 63.6300148,121.27517 C62.2006007,118.276625 57.4051798,117.080585 57.3565603,117.069325 L57.0837791,117.002793 L57.1748768,116.736665 C58.6104323,112.574834 56.1866209,109.211898 56.1615434,109.178632 L56.1119003,109.111076 L56.1119003,104.326914 C55.1753347,104.672881 54.4312,105.362766 54.0453145,106.86383 C52.9797791,105.991238 52.1542707,105.314659 51.5375704,104.809015 C48.9208162,106.469244 46.4325199,108.055776 43.936035,109.629002 C42.7144054,110.399238 41.1519273,110.892086 40.3218128,111.96018 C38.9819609,113.682847 37.7460013,114.239157 36.243402,112.980167 C34.83753,114.34049 33.7008566,116.431642 32.343604,116.586201 C25.5737185,117.356436 19.7398869,120.6815 13.5519003,122.981972 C11.4326007,123.77012 8.94225724,125.190322 7.98931448,127.029675 C7.01743569,128.905366 6.34495084,129.475494 5.10182626,129.013864 C3.35510572,130.517999 1.9384862,131.737069 0.3555367,133.09944 C-0.455129966,135.991534 0.0223649832,138.886699 2.81005522,141.161581 C4.36485657,142.429271 4.58952997,143.976396 3.90425051,145.953931 C2.94516633,148.721662 2.37350303,151.62348 1.42721347,155.274039 C3.12275556,154.746389 4.12892391,154.324679 5.17705859,154.135319 C6.32089697,153.929069 7.50311919,153.93777 8.66896431,153.852302 C8.70120673,155.050901 9.0062303,156.327292 8.6955771,157.429675 C8.32606869,158.742914 7.42839865,159.90876 6.67761077,161.289042 C11.7514424,161.375534 15.664035,158.68713 16.6845333,154.696234 C14.0247892,152.682874 13.8205872,151.416207 14.7003448,148.144881 C15.5058936,145.149918 16.0842101,142.050551 16.3426613,138.962443 C16.6292606,135.540652 17.0171933,135.196221 20.3146209,136.832908 C20.2450182,137.39843 20.1180956,137.969581 20.1134896,138.54278 C20.0889239,141.695884 20.9676579,142.316167 24.0941495,141.808477 C25.4764795,141.584315 26.9355771,141.815642 28.3593616,141.869891 C29.1060552,141.898039 29.970971,142.268059 30.5753886,142.006026 C33.4265401,140.770066 36.2060418,139.369312 39.1866747,137.942968 C39.5142168,138.338066 40.0367488,138.969608 40.8898936,139.999319 C42.2957657,136.023265 45.7590114,135.771978 48.8409778,134.849743 C49.9822572,134.508382 51.2105401,134.31851 52.2315502,133.755036 C53.1317791,133.258605 53.8605603,132.392665 54.5524929,131.592234 C55.2853684,130.744719 55.7224323,129.292275 56.5878599,129.004652 C57.4727354,128.710888 58.720466,129.509783 59.1380822,129.632611 C61.2676175,128.779978 62.9723717,128.097258 65.1786747,127.21443 C64.9202236,126.134564 64.5599273,124.728692 64.2543919,123.311561 C64.1407758,122.784423 63.962163,122.198941 64.0061764,121.687157" id="Fill-1" opacity="0.300000012"></path>
                <path d="M101.850492,98.7768162 L101.72101,98.7322909 L101.685697,98.5997387 C101.542909,98.0608296 100.337145,93.2986747 101.93596,92.179402 C103.184202,91.3057859 103.902747,90.0908094 104.066519,89.7939744 L103.562923,86.154163 L102.060323,85.5906882 L101.262963,87.2990249 L96.4352997,86.5922505 L94.0877441,89.5263111 L92.6752189,89.1414492 L87.5860337,89.1414492 L83.0024916,95.252668 L80.0837845,94.3237791 L80.0837845,94.3012606 L76.5734545,92.7085872 L75.5340202,94.143631 L72.2458047,94.143631 C72.4336296,94.9829576 72.6040539,95.7450047 72.7381414,96.3448162 C71.6255219,97.7465939 70.5748283,98.6176512 70.1280404,99.7307825 C69.269266,101.86953 67.9376027,102.185301 65.8873939,101.705247 C64.9052795,101.474944 63.704633,101.684776 62.7281481,102.039442 C61.3975084,102.523079 60.2224512,103.798446 58.91433,103.902338 C58.0217778,103.972964 57.1609562,104.012884 56.4055623,104.22988 L56.6235825,104.22988 L56.6235825,108.944951 C56.9838788,109.465947 58.9962155,112.632358 57.7443906,116.642702 C58.8181145,116.94619 62.7455488,118.227187 64.0930774,121.056843 L64.0122155,121.095227 C64.056229,121.109557 64.0992189,121.126446 64.1422088,121.142823 C65.1156229,118.204156 67.4729024,116.885288 70.4775892,117.523995 C70.6106532,117.422149 70.7810774,117.341799 70.8660337,117.208735 C71.0466936,116.922648 71.1869226,116.610971 71.3368754,116.306459 C72.7140875,113.512116 74.0846465,113.402082 76.4219663,115.605314 C77.5652929,116.682109 79.0550976,117.391442 80.1482694,118.108964 C81.251165,117.518877 82.1391111,116.618136 82.8110842,116.758365 C85.4902761,117.31621 88.1126599,118.16219 90.7355556,118.968251 C94.1941953,120.030715 96.926101,122.219106 99.502936,124.672601 C100.895502,125.998634 101.848444,125.678257 102.27732,123.783119 C102.490734,122.840924 102.645805,121.892587 102.78501,120.990311 C102.606909,120.880789 102.430855,120.765638 102.242519,120.667375 C102.125832,120.606473 102.086424,120.507187 102.092054,120.408412 L102.052135,120.448843 C101.945172,120.34188 99.4420337,117.805988 99.8161481,115.308991 C99.9916902,114.141611 100.763973,113.187644 102.113037,112.472681 C103.798343,111.579106 104.713926,110.63691 104.760498,109.747941 C104.80963,108.821099 103.898141,108.195698 103.888929,108.189557 L103.82598,108.129166 C103.75996,108.041139 102.223071,105.942311 102.80497,104.139806 C103.098222,103.232412 103.867946,102.575793 105.092646,102.187348 C105.818357,101.957557 106.219596,101.679146 106.222667,101.404318 C106.230855,100.620776 103.670909,99.3960754 101.850492,98.7768162" id="Fill-4" opacity="0.5"></path>
                <path d="M149.179044,114.32877 C147.808997,113.620972 147.684633,112.649605 147.732741,111.530333 L141.841077,111.530333 L140.342061,109.925376 L134.854707,109.925376 L134.808646,109.727828 C134.08703,106.645349 133.193966,105.804488 132.572148,105.641228 C131.898128,105.462615 131.354613,106.04605 131.348983,106.051679 L131.266074,106.142265 L131.143246,106.134077 C130.773737,106.108999 122.078007,105.45238 121.463354,99.6103596 C120.892714,94.192097 116.761589,93.5416189 116.586047,93.5165414 L115.533306,93.3665886 L116.538963,93.021134 C117.001616,92.8624808 117.689966,92.4771071 117.698155,92.1551946 C117.701226,92.0333899 117.593239,91.7043125 116.52668,91.2774842 C114.015354,90.2728512 113.865401,88.8465077 113.927327,88.2451609 C111.893495,87.8710465 110.785481,87.2395044 110.565414,86.3131744 C110.326411,85.3090532 111.264,84.3305212 111.759407,83.8955044 L111.062869,83.4599758 L110.550572,82.3330263 L104.790438,84.7701441 L104.061145,86.0204337 L104.595448,89.8844067 L104.560135,89.9555448 C104.528404,90.0190061 103.763798,91.5246761 102.229468,92.5984 C101.154721,93.351235 101.777051,96.8748714 102.146559,98.3375515 C103.166545,98.6932418 106.748525,100.041794 106.734195,101.409282 C106.728566,101.946144 106.24237,102.359666 105.247461,102.674925 C104.189603,103.010656 103.53196,103.555706 103.292444,104.295747 C102.825185,105.738467 104.031973,107.533296 104.214168,107.79277 C104.422976,107.944259 105.3273,108.668434 105.272027,109.770818 C105.216754,110.865013 104.23464,111.926454 102.352808,112.924434 C101.155232,113.559558 100.472512,114.387114 100.322559,115.384582 C99.9858047,117.628757 102.389657,120.062292 102.41371,120.086858 L102.404498,120.09607 C102.45363,120.095046 102.503785,120.102723 102.556498,120.13036 C102.670626,120.189727 102.779636,120.257282 102.887111,120.325861 C102.947502,119.928205 103.006869,119.542831 103.067259,119.180488 C104.741818,119.53976 106.227529,120.160043 107.676902,120.084299 C109.166195,120.006508 110.112997,120.280312 110.810559,121.593552 C111.982034,123.798831 113.458532,123.614589 115.07833,122.057228 C115.538936,121.614023 116.061468,121.234791 116.570694,120.814104 C118.962263,124.551154 118.87833,124.428326 122.470545,121.973807 C123.474667,121.288016 125.508498,120.966615 126.393886,121.533673 C127.552566,122.27576 128.127811,124.025552 128.776242,125.424259 C129.061306,126.038912 128.623219,127.236488 129.000916,127.518993 C130.905266,128.947383 129.742492,130.098387 128.973279,131.444892 C128.603771,132.091275 128.629872,132.963356 128.412875,134.054993 C134.48264,130.875275 135.091152,126.1817 133.626936,121.29774 C137.762155,118.666656 140.219232,121.846373 143.00897,123.589511 C143.328323,122.736878 143.571933,122.086912 143.863138,121.310023 C144.835529,122.104312 145.548444,122.687747 146.261872,123.270669 C146.454303,123.146306 146.647246,123.020919 146.839677,122.896555 C146.584808,122.064905 146.265455,121.247073 146.090424,120.399046 C145.826343,119.120097 145.663596,117.820164 145.457859,116.529444 C146.71736,116.590858 147.976862,116.65176 149.429818,116.722387 C149.375057,116.034036 149.604337,114.548838 149.179044,114.32877" id="Fill-6" opacity="0.200000003"></path>
                <path d="M115.469743,76.6751461 C115.482026,76.6751461 115.494308,76.6761697 115.506591,76.6771933 C115.787561,76.7038061 115.975898,76.9463919 116.066484,77.3993212 C116.153487,77.834338 116.376113,77.8803987 116.558308,77.8665805 C117.3961,77.8174492 118.852638,76.3900822 118.919682,75.5533145 C118.9335,75.378796 118.899723,75.2073481 118.560409,75.131604 C118.138699,75.0379475 117.807063,74.804062 117.563965,74.4473481 L115.016813,74.4473481 L115.016813,70.6698667 C114.729191,70.5224727 114.158039,70.1509172 114.022416,69.4779205 C113.876558,68.7506747 114.288544,67.9241428 115.247116,67.0218667 C115.91346,66.3949306 116.200059,65.8606276 116.077231,65.4778128 C115.896059,64.9174088 114.870443,64.6640754 114.490187,64.6144323 L114.347911,64.5949845 L113.689756,63.1154155 C113.645231,63.0151057 113.572558,62.8938128 113.481972,62.8897185 C113.478901,62.8892067 113.476342,62.8892067 113.473271,62.8892067 C113.122187,62.8892067 112.422578,63.8114424 112.048975,64.4849508 L111.969648,64.6272269 L107.807305,64.3298801 L105.152679,72.1458532 L101.286659,75.8573145 L99.6653253,75.8573145 L98.9790222,74.1914559 L98.9790222,71.8106343 L96.1836552,71.8106343 L95.6754532,69.6089374 L96.2419987,66.9184862 L93.6252444,65.9005468 L92.4675879,61.5601024 L90.2802209,62.4618667 L88.4168135,66.3437522 L87.0227125,65.7244929 L85.5518438,67.5966007 L85.5518438,69.3791461 L84.2396283,71.5107286 L81.5251232,71.5107286 L76.7445441,77.7693414 L76.7445441,79.2995771 L79.1299717,80.9700418 L78.5961805,82.4378397 L78.1140795,84.1057455 L77.224598,85.7572741 L75.1800189,85.7572741 L74.5602478,88.7507017 L77.2522343,90.2000754 L78.7031434,88.6381091 L80.5952108,88.4927623 L80.5952108,93.9499205 L82.8112377,94.6551596 L87.3302949,88.6294088 L92.7767057,88.6386209 L93.8985374,88.944668 L96.2189684,86.0438734 L100.96014,86.7373414 L101.796908,84.9450721 L103.683345,85.65287 L104.434133,84.3652202 L110.810457,81.667604 L111.465029,83.1077657 L112.031063,83.4619205 L112.5321,81.3574626 C113.117069,79.9142303 114.538295,76.6751461 115.469743,76.6751461" id="Fill-8" opacity="0.400000006"></path>
                <path d="M77.3582761,90.8381684 L73.9820337,89.0203098 L74.7630168,85.2453872 L76.919165,85.2453872 L77.6505051,83.8871111 L78.1095758,82.279596 L78.5149091,81.1639057 L76.232862,79.5666263 L76.232862,77.9386397 L75.0388687,77.9386397 L73.997899,75.5972256 L74.9487946,72.6247811 L74.9487946,70.4026128 L73.6493737,70.0029091 L71.3837037,70.0029091 L70.9783704,68.2464646 L71.1052929,66.9762155 L72.477899,64.8548687 L72.5771852,64.8308148 C73.2542761,64.6660202 74.2297374,64.2412391 74.2783569,63.8128754 C74.3111111,63.5206465 73.8842828,63.1296431 73.1063704,62.7411987 C70.0940067,61.2334815 68.597037,63.4868687 68.5351111,63.583596 L68.447596,63.7197306 L68.2868956,63.699771 L61.8476229,62.8645387 L60.4217912,59.8936296 L58.8971852,59.0230842 L55.2502088,58.4350438 L54.1068822,57.3869091 C53.9451582,57.4836364 53.6759596,57.410963 53.6672593,57.1612121 C53.6652121,57.0890505 53.648835,57.0194478 53.6304108,56.9508687 C51.3775354,58.4437441 48.4588283,59.0292256 46.1276498,58.1172256 C43.861468,57.2308148 42.3813872,58.3884714 42.0871111,60.8179125 C41.9499529,61.9489562 41.1423569,63.1588148 40.3050774,64.0007003 C39.453468,64.8574276 38.6990976,65.260202 39.5860202,66.6696566 C40.2922828,67.7930236 40.5573872,69.3360539 38.560404,69.8442559 C33.9589495,71.0162424 28.9813333,70.9845118 25.0180741,74.2271785 C24.578963,74.586963 23.5472054,74.3622896 22.8301953,74.2159192 C20.52,73.746101 19.2528215,74.6197172 18.7748148,77.1243906 C22.6131987,77.5496835 22.6131987,77.5496835 21.8557576,82.5605657 C23.3865051,82.9930236 24.8220606,84.2392189 26.4316229,82.457697 C28.2858182,80.4054411 30.6210909,80.3261145 33.3903569,82.0938182 C32.8099933,84.6297104 32.2178586,87.2131987 31.6247003,89.8028283 C31.7352458,89.8355825 31.9112997,89.9548283 32.0382222,89.9159327 C35.6376027,88.8115017 36.0813199,88.9803906 38.1642828,91.8929562 C38.4472997,92.2885657 39.1525387,92.6422088 39.6249158,92.5997306 C42.1587609,92.3719865 44.3665993,92.7220471 45.3783973,95.529697 C48.5647677,92.3325791 48.5647677,92.3325791 50.1794478,92.7394478 C53.8202828,93.6570774 53.8202828,93.6570774 55.5572795,90.2245387 C55.7497104,89.8442828 55.8582088,89.3632054 56.1581145,89.1088485 C56.6688754,88.6758788 57.5430034,87.9619394 57.8306263,88.1262222 C58.4058721,88.4542761 59.075798,89.3371044 59.0154074,89.9195152 C58.8475421,91.5357306 59.2011852,92.6892929 60.6050101,93.6125522 C61.08967,93.9308822 61.3859933,94.6995825 61.5477172,95.3203771 C62.5984108,99.355798 62.9535892,99.6116902 67.2479731,99.1101414 C67.1440808,92.731771 68.1487138,90.9466667 71.6431785,91.4523098 C71.8084848,92.190303 71.9737912,92.9298316 72.1309091,93.632 L75.2722424,93.632 L76.403798,92.0695219 L80.0835286,93.7394747 L80.0835286,89.0453872 L78.9417374,89.1329024 L77.3582761,90.8381684 Z" id="Fill-10" opacity="0.300000012"></path>
                <path d="M102.074653,47.3249697 C101.228162,46.6596498 100.757832,45.9600404 100.677481,45.2455892 C100.637051,44.8893872 100.704094,44.5971582 100.785468,44.386303 C100.768067,44.3509899 100.75732,44.3100471 100.75732,44.2619394 L100.75732,42.134963 C100.198963,41.6958519 99.7061145,41.0740337 99.4092795,40.4900875 C97.7214141,37.164 99.1185859,34.287771 101.033172,31.9535219 C100.447178,30.9673131 100.114007,30.2021953 99.595569,29.5957306 C99.1446869,29.0680808 98.486532,28.3587475 97.9158923,28.355165 C95.802734,28.340835 93.6470976,28.3950842 91.5938182,28.830101 C90.8118114,28.9959192 89.8215084,30.2037306 89.7145455,31.0379394 C89.5651044,32.1986667 90.1567273,33.4545859 90.4463973,34.7355825 C90.8041347,34.8553401 91.1956498,35.0349764 91.6066128,35.1153266 C94.7361751,35.724862 94.8610505,36.1025589 92.7330505,38.6241212 C92.5677441,38.8196229 92.4387744,39.1046869 92.2279192,39.192202 C91.1992323,39.6215892 89.7493468,40.6154747 89.1940606,40.256202 C88.236,39.6369428 87.5138721,38.2320943 87.2584916,37.0360539 C86.7318653,34.5687407 86.5778182,32.022101 86.1944916,28.8858855 C83.4968754,31.5272054 79.5110976,31.7933333 79.3350438,35.9971313 C79.3217374,36.3205791 78.3483232,36.7642963 77.7674478,36.8768889 C74.2141279,37.567798 73.0943434,38.7674209 72.4479596,42.3268822 C72.1946263,43.7235421 71.4289966,44.8371852 69.7877037,43.5858721 C67.6934815,41.9901279 65.5782761,41.8099798 63.0761616,42.780835 C62.0433805,43.1810505 60.5807003,42.5275017 59.3258047,42.2879865 C57.8298586,42.001899 56.3467071,41.6451852 54.8584377,41.3191785 C54.7760404,41.5638114 54.6936431,41.8089562 54.6112458,42.0535892 C54.266303,41.6139663 53.9218721,41.1743434 53.6823569,40.8693199 C51.1674478,41.6600269 50.9136027,43.6897643 50.5768485,45.7763098 C50.0952593,48.7641077 50.2134815,48.986734 53.2452929,48.9514209 C55.1486195,48.9294141 57.3794882,51.6065589 56.7807003,53.1936027 C56.2724983,54.5390842 55.3031785,55.7074882 54.1030438,56.6123232 C54.1199327,56.6522424 54.1378451,56.6916498 54.1516633,56.7336162 L55.4828148,57.9542222 L59.1108552,58.5550572 L60.8140741,59.5289832 L62.1887273,62.3924175 L68.2032189,63.1723771 C68.6218586,62.6401212 70.3557845,60.7946263 73.3353939,62.2834074 C74.3743165,62.8023569 74.8492525,63.3218182 74.7868148,63.870963 C74.6895758,64.7292256 73.2294545,65.1857374 72.7980202,65.3024242 L71.6019798,67.1499663 L71.4960404,68.2134545 L71.7908283,69.4913805 L73.7632458,69.5026397 L75.460835,70.0246599 L75.4485522,72.7427475 L74.5447407,75.5672862 L75.3712727,77.4265993 L76.3620875,77.4265993 L81.2721481,70.9990976 L83.9533872,70.9990976 L85.0399057,69.2344646 L85.0399057,67.4196768 L86.8659529,65.0946397 L88.1704916,65.6744916 L89.9039057,62.0628283 L92.5001886,60.9937104 L95.8180875,57.9424512 L96.1087811,55.059569 C95.9265859,55.0140202 95.7873805,54.9352054 95.8088754,54.7407273 C95.8406061,54.4479865 95.8436768,54.4239327 98.3524444,54.5892391 C100.142667,54.7217912 101.626842,52.9423165 102.317239,51.1403232 C102.955434,49.4734411 102.858195,47.9401347 102.074653,47.3249697" id="Fill-12" opacity="0.400000006"></path>
                <path d="M137.545209,62.0213226 C137.494031,61.9025886 137.272428,61.8345212 136.937721,61.8345212 C136.002179,61.8345212 135.455593,61.6564202 135.267768,61.2904943 C135.178206,61.1164875 135.192024,60.9378747 135.237061,60.7991811 L132.390516,57.32007 C131.501546,58.4439488 130.367943,58.9618747 129.387364,58.9618747 C128.927782,58.9623865 128.503001,58.8508175 128.153452,58.6379152 C127.262947,58.0954236 126.699472,56.7826963 127.787014,54.7253226 C129.790651,50.9345347 127.82028,47.8945347 127.799809,47.8648512 L127.756819,47.8003663 L127.756819,44.3171609 C127.495297,44.1252418 126.9569,43.5960566 126.712778,42.3769859 C126.499876,41.3124741 124.545371,41.0335515 123.810448,41.0161508 L123.674314,41.0125684 L122.15022,38.6435178 C119.98793,37.9142249 119.07593,38.1619286 118.69158,38.5022653 C118.303647,38.8446492 118.342543,39.3769051 118.364038,39.5329993 C118.751459,40.113363 120.242799,42.4798545 119.504805,43.4640162 C119.152698,43.9338343 118.428523,43.9860364 117.292873,43.6195987 C113.918166,42.5346155 113.239539,40.0145886 113.103916,38.9326761 C112.919162,38.883033 112.783539,38.6445414 112.961129,38.4689993 C113.585506,37.8543461 114.406408,37.2494168 114.82556,36.4505212 C115.09527,34.7785212 115.355768,33.1628175 115.615243,31.5512081 C114.275903,32.2364875 113.601371,33.4448108 112.572684,34.0471811 C109.579768,35.8000431 109.050071,37.2130801 110.786556,40.2807165 C111.488213,41.5202586 111.480024,42.0033832 109.914987,42.6374842 C107.084819,43.7849051 104.370826,43.457363 101.676792,42.6456727 C101.556523,42.609336 101.436253,42.5586694 101.317007,42.4987906 L101.317007,44.2618882 C101.317007,44.2690532 101.313937,44.274171 101.313425,44.2808242 L101.384051,44.3371205 C101.348226,44.3821576 100.53756,45.4661172 102.391243,46.9221441 C103.366704,47.6893091 103.525358,49.4165818 102.795041,51.3234909 C102.0376,53.3005145 100.3569,55.2381306 98.3189737,55.1004606 C97.4678761,55.0441643 96.9468795,55.0180633 96.6285495,55.0078276 L96.3076606,58.1875448 L92.9273239,61.2961239 L94.0532498,65.5178343 L96.8322397,66.5982114 L96.1996741,69.6039219 L96.5911892,71.2989522 L99.4909603,71.2989522 L99.4909603,74.139868 L100.003768,75.3456323 L101.080563,75.3456323 L104.708603,71.8629387 L107.449721,63.7910734 L111.683203,64.093538 C111.973896,63.5991542 112.783539,62.3560296 113.504644,62.3785481 C113.699122,62.3872485 113.970368,62.4860229 114.157681,62.9072215 L114.701196,64.1303865 C115.1183,64.207666 116.297964,64.4978478 116.56358,65.3197737 C116.755499,65.912932 116.430516,66.6110061 115.597842,67.3945481 C114.789735,68.1550599 114.418179,68.8398276 114.523607,69.3741306 C114.644388,69.9852013 115.35628,70.2636121 115.363445,70.266171 L115.527728,70.3291205 L115.528752,73.935666 L117.308738,73.935666 C116.801048,72.4837333 117.406489,70.2492822 117.435661,70.1453899 L117.468415,70.0266559 L117.582543,69.9785481 C117.666987,69.9422114 119.6696,69.1069791 120.695728,69.9202047 C121.201371,70.320932 121.371795,71.0236121 121.201883,72.0082855 C121.118462,72.4929455 121.099014,73.1357468 121.47927,73.4458882 C121.799647,73.7089455 122.38564,73.7120162 123.043284,73.4540768 C123.890287,73.123464 124.587337,72.4673562 124.664105,71.9284471 C124.778233,71.1310869 125.113964,70.0389387 126.066395,69.3649185 C126.85096,68.8101441 127.894489,68.6586559 129.168832,68.9130128 C129.71593,69.0220229 130.431916,69.0742249 130.738987,68.7042047 C131.062947,68.3126896 130.856186,67.5409185 130.749223,67.2768377 L130.710327,67.181134 L131.526624,65.1380902 L134.464267,65.7031003 L134.464267,63.4231003 L136.824617,63.4231003 C137.209479,62.991666 137.666502,62.302804 137.545209,62.0213226" id="Fill-14" opacity="0.5"></path>
                <path d="M157.160477,52.1684471 C156.2495,51.7544135 155.726457,49.8848646 156.073446,48.9779825 C156.241312,48.5378478 156.606726,48.3587232 157.051978,48.4974168 C157.111857,48.5173764 157.192719,48.5260768 157.283305,48.4278141 C157.500302,48.1939286 157.582187,47.5736458 157.306847,46.8858074 C157.030484,46.193363 156.007426,44.559235 152.498632,44.336097 C149.594766,44.1518545 147.849581,43.5730263 147.310672,42.6154774 C146.98876,42.0422788 147.234416,41.5586424 147.245164,41.538171 L147.276382,41.4921104 C147.285595,41.4803394 147.536881,41.1645684 147.389999,40.7643529 C147.243628,40.3641374 146.586497,39.6148848 143.836679,39.0959354 C141.542861,38.6629657 140.08018,37.9265077 139.489581,36.9060094 C139.07043,36.1818343 139.270026,35.5856054 139.278726,35.5605279 L139.333999,35.401363 L147.076275,34.8419825 C146.335211,33.8429791 144.656558,31.3188579 145.788625,30.3132013 C146.797352,29.4175785 146.399696,28.7297401 146.382295,28.7010801 C145.750241,27.9405684 145.55218,27.2302114 145.814726,26.6170936 C146.277891,25.533134 148.200154,24.8626963 151.526753,24.6252283 C153.965918,24.4512215 156.26383,20.9219556 156.301191,20.3165145 C156.070376,19.8057535 155.999238,17.4781576 155.979278,16.4771071 L155.977231,16.375262 L156.04581,16.3000296 C159.890335,12.0706424 157.021783,7.28699259 155.480288,5.29000943 C153.935211,6.27980067 152.243251,7.07562559 150.812302,8.20564579 C149.516463,9.22870303 148.523601,9.67804983 146.961635,8.81876364 C146.248207,8.42622492 145.190349,8.69337643 144.299332,8.57924848 C143.244544,8.44413737 141.994255,8.51885791 141.197406,7.96920135 C139.831453,7.02598249 139.149756,7.26856835 138.332436,8.56645387 C137.982376,9.12276364 137.146632,9.76607677 136.580086,9.72308687 C134.471022,9.5634101 133.704881,10.7205549 133.166995,13.054804 C134.270914,13.054804 135.280665,12.8117064 136.092867,13.1080296 C137.558106,13.6418209 138.905123,14.4990599 140.301271,15.2211879 C139.794605,16.1122047 139.299197,17.0098747 138.778201,17.8921912 C138.316059,18.6752215 137.826793,19.4418747 137.142026,20.5519354 C136.174241,19.9623596 135.242281,19.4920296 134.420867,18.8748175 C132.724302,17.6009859 131.445864,17.8486896 130.538982,19.7218209 C129.081931,22.730602 126.51482,24.1190734 123.638079,23.7772013 C121.797702,23.5586694 119.910241,23.7362586 117.35183,23.7362586 C118.057581,25.8197333 118.371817,27.3852822 119.098039,28.7292283 C120.016692,30.4304 120.223453,32.0015785 118.896396,33.4294572 C117.820113,34.5876256 116.585689,35.6060768 115.325675,36.709996 C114.922901,37.467437 114.211009,38.0621306 113.584073,38.6496593 C113.625015,39.41273 114.018578,42.0294842 117.449581,43.1328916 C118.313985,43.4102788 118.898443,43.4189791 119.09548,43.1569455 C119.494672,42.6246896 118.642039,40.8569859 117.908652,39.7725145 L117.870268,39.6819286 C117.862079,39.6425212 117.676302,38.7161912 118.352369,38.1184269 C119.067332,37.4868848 120.429191,37.5099152 122.400585,38.1885414 L122.484517,38.2172013 L123.959992,40.5110195 C124.564921,40.5468444 126.916059,40.7827771 127.214941,42.2771879 C127.481581,43.6119219 128.115682,43.9435582 128.121824,43.946629 L128.268706,44.0152081 L128.268706,47.6488781 C128.574241,48.147868 130.2401,51.1791677 128.239022,54.9643259 C127.468275,56.4229118 127.537366,57.6629657 128.419682,58.2003394 C129.338847,58.761767 130.926914,58.4219421 132.061029,56.9172956 L132.031857,56.8819825 L132.216611,56.7187232 C132.30515,56.640932 134.370712,54.8599219 137.651251,55.0103865 C137.884113,54.4622653 138.514632,53.1265077 139.317622,53.1746155 C139.760315,53.1930397 140.109864,53.5968377 140.383157,54.4080162 C142.564894,54.0958276 142.724571,54.4448646 142.785985,54.5789522 C142.842281,54.7012687 142.853541,54.8942114 142.588436,55.1214438 C142.093029,55.5462249 142.483521,56.7847434 142.72713,57.3548714 L145.730793,57.3548714 L145.801931,57.4961239 C145.805002,57.5012418 145.932436,57.7248916 146.322416,57.8124067 C146.884867,57.9383057 147.977015,57.7883529 149.97451,56.3527973 C153.095372,54.1101576 156.404059,54.0170128 157.551992,54.061538 C157.656396,53.334804 157.664585,52.3977266 157.160477,52.1684471" id="Fill-16" opacity="0.300000012"></path>
                <path d="M161.481115,105.385029 L161.481115,101.471925 L163.054853,98.3244498 L156.834624,94.2757226 L156.834624,85.1613522 L158.271714,87.1987663 L165.538543,80.0593724 L166.099459,74.4614734 C166.012455,74.3934061 165.951553,74.2879785 165.971512,74.1528673 C166.084617,73.3816081 166.411647,72.7121939 166.875836,72.1190357 C166.829263,72.0673455 166.78525,72.0110492 166.739189,71.9583354 C166.439284,71.9834128 166.132213,71.9583354 165.831795,71.9547529 C165.79597,71.9547529 165.765775,71.945029 165.737115,71.9347933 L165.733021,71.9557764 L162.165883,71.2310896 L158.492294,74.3110088 L158.492294,76.8412714 L154.750125,77.9779448 L153.069937,75.8576215 L150.659432,75.8576215 L149.460321,78.4421333 L148.197748,78.4421333 L143.696092,82.5840054 L139.463122,84.2775003 L136.540321,82.7088808 L135.536199,85.2903219 L130.212617,85.5948337 L128.686987,86.9065374 L125.043593,86.2596418 C124.54358,87.8589684 123.835782,89.6537966 123.176603,89.6537966 L123.16995,89.6537966 C122.775364,89.6461199 122.648954,89.1650424 122.607499,89.0063892 C122.246691,87.6342949 120.484105,86.7315071 119.661667,86.377864 C119.687257,86.7212714 119.636078,87.1880189 119.294718,87.6066586 C118.584361,88.4761805 116.943068,88.7156956 114.432765,88.3303219 C114.39694,88.7945104 114.555593,89.9383488 116.716859,90.8027529 C117.734287,91.2096215 118.223041,91.6564094 118.209735,92.1687057 C118.197964,92.621635 117.772159,92.9711838 117.374502,93.1994397 C118.714866,93.6585104 121.507162,95.1360323 121.972374,99.5563152 C122.506677,104.633218 130.054987,105.518605 131.066785,105.613797 C131.297088,105.406524 131.921977,104.941312 132.701937,105.146026 C133.777196,105.428019 134.636994,106.863574 135.259836,109.413285 L140.564482,109.413285 L142.063499,111.018753 L147.76222,111.018753 C147.784738,110.676881 147.80828,110.324773 147.806233,109.963453 C149.501263,109.818618 151.142556,109.37183 152.673304,109.616463 C155.186166,110.018214 157.514785,110.982416 160.215472,111.011588 C162.356267,111.034618 164.436159,112.842241 166.631714,113.602241 C167.37329,113.858645 168.456738,113.48146 169.251539,113.110416 C169.311418,113.081756 169.368226,113.046443 169.425034,113.010106 L169.425034,106.917312 L167.057519,105.385029 L161.481115,105.385029 Z" id="Fill-18" opacity="0.5"></path>
                <path d="M183.800754,5.38018586 C182.059152,5.12685253 180.917872,5.11508148 179.881508,4.77986263 C177.286249,3.94002424 174.774411,2.82433401 172.154586,2.08736431 C171.044525,1.77517576 169.703138,2.36116902 168.540875,2.14417239 C165.415407,1.56124983 162.33037,0.765424916 158.990465,-0.000204713805 C158.911138,0.414852525 158.941845,1.13186263 158.637845,1.65439461 C158.021145,2.71481212 157.403421,3.90727003 156.462249,4.61609158 C156.281589,4.75273805 156.094276,4.88119596 155.906963,5.00914209 C157.525226,7.12076498 160.467987,12.1029872 156.493468,16.5677953 C156.527758,18.1323205 156.635232,19.8539636 156.761131,20.0934788 C156.836875,20.2168189 156.874747,20.4271623 156.563582,21.0341387 C155.914128,22.301829 153.836283,24.9733441 151.562936,25.1360916 C148.530613,25.3520646 146.656458,25.949829 146.284902,26.8188391 C146.104242,27.2410613 146.276714,27.773829 146.796687,28.4023003 C146.842747,28.4703677 147.477872,29.498031 146.128296,30.6961185 C145.296646,31.4346236 147.07868,34.0457481 147.768054,34.9024754 L148.074613,35.2827313 L139.736108,35.8851017 C139.724337,36.0519434 139.745832,36.3359838 139.94338,36.6676202 C140.30163,37.2705024 141.284768,38.0934519 143.931717,38.5929535 C146.228094,39.026435 147.55464,39.7014788 147.874505,40.5991488 C148.08536,41.1912835 147.785455,41.6631488 147.692822,41.7895596 C147.669791,41.8484148 147.594559,42.0874182 147.76396,42.3770882 C148.023434,42.8213172 148.988148,43.600765 152.530721,43.8254384 C156.331232,44.0670007 157.469441,45.9130074 157.782141,46.6960377 C158.102519,47.4959569 158.05134,48.3516606 157.659313,48.77593 C157.455111,48.9970209 157.177724,49.0737886 156.899313,48.9862734 C156.713024,48.9289535 156.622949,48.9739906 156.5513,49.1602801 C156.302061,49.8128054 156.743219,51.416738 157.372202,51.7028256 C158.185428,52.072334 158.186451,53.2356202 158.072835,54.0616404 L163.34268,53.1649939 L164.462976,53.6557953 C164.50136,53.6337886 164.544862,53.6174114 164.600135,53.6174114 L165.171798,53.6174114 C165.111919,53.5764687 165.056646,53.5334788 164.996256,53.492536 C165.824323,51.9459232 166.718411,50.4126168 167.475852,48.8148256 C168.009131,47.6894114 168.942626,46.3127111 168.669845,45.3352027 C168.016296,43.0004418 168.235852,41.1411286 170.101818,39.7286034 C164.750088,36.7704889 169.397603,33.6296673 169.645818,30.5814788 C168.859717,30.117802 167.796741,29.8245495 167.316687,29.1285226 C166.632431,28.1366842 166.321778,26.8643879 166.004983,25.6709064 C165.965576,25.5224889 166.862222,25.1258559 167.441051,24.7737481 C167.850478,25.5629199 168.14629,26.1330478 168.398088,26.6192431 C169.302923,26.0337616 170.266613,24.9201185 170.907367,25.0823542 C173.382869,25.7087785 174.35833,24.0695327 175.614761,22.1063273 C176.107098,23.6196741 176.394721,24.764536 176.848162,25.8397953 C177.615838,27.6591892 180.516633,28.8951488 181.101603,27.6919434 C182.16202,25.5102061 183.866263,22.8606976 183.381091,20.8759973 C182.46602,17.13127 184.762909,14.2437818 185.067933,10.8864754 C185.319731,8.11720943 184.952781,6.58032054 183.800754,5.38018586" id="Fill-20" opacity="0.400000006"></path>
                <path d="M165.916291,54.1776108 L164.600493,54.1776108 C164.569786,54.1776108 164.545732,54.1683987 164.520143,54.1612337 L164.491483,54.2277657 L163.278042,53.694998 L157.978001,54.5972741 C157.944224,54.7523448 157.913516,54.8664727 157.900722,54.9135569 L157.407873,54.7758869 C157.423227,54.7195906 157.440116,54.6494761 157.458028,54.573732 C156.309584,54.5466074 153.168251,54.6878599 150.273597,56.768264 C148.523294,58.0262303 147.143011,58.5426209 146.174203,58.3036175 C145.779106,58.2058667 145.553921,58.0052471 145.439793,57.8665535 L142.401328,57.8665535 L142.331725,57.7217185 C142.227833,57.5072808 141.368547,55.6505266 142.17819,54.8060822 C141.791281,54.7676983 140.955537,54.8367892 140.243644,54.9463111 L140.023065,54.9800889 L139.959604,54.7656512 C139.666352,53.7773953 139.378217,53.6893684 139.296843,53.6857859 L139.287119,53.6857859 C138.896116,53.6857859 138.323941,54.6863246 138.057301,55.3695569 L137.989234,55.545099 L137.800897,55.5317926 C135.189261,55.3434559 133.333018,56.5226074 132.749584,56.950971 L135.859187,60.7514828 L135.745059,60.9106478 C135.74557,60.9106478 135.690809,60.9976512 135.723564,61.0580418 C135.747106,61.1020552 135.917018,61.3226343 136.937516,61.3226343 C137.510715,61.3226343 137.87357,61.4894761 138.015335,61.8190653 C138.322917,62.5319811 137.326473,63.6399946 137.123806,63.8549441 L137.04755,63.9347825 L134.975846,63.9347825 L134.975846,66.322769 L131.845261,65.7209104 L131.260291,67.1841024 C131.36623,67.4932202 131.62724,68.4313212 131.134392,69.0290855 C130.758742,69.484062 130.063739,69.6140552 129.068318,69.4144593 C127.937786,69.1892741 127.026809,69.3121024 126.362001,69.7824323 C125.5585,70.3515367 125.270877,71.3029441 125.171079,72.0005064 C125.048762,72.8536512 124.078931,73.5993212 123.229368,73.9309576 C122.384412,74.260035 121.628506,74.2283044 121.155618,73.8429306 C120.696547,73.4677926 120.5425,72.8214088 120.69757,71.9211798 C120.833193,71.1350788 120.725719,70.5966815 120.377705,70.3213414 C119.766123,69.8361697 118.475914,70.1816242 117.898109,70.4027152 C117.768628,70.9293414 117.306486,73.0445468 117.938028,74.096264 C118.112035,74.3854222 118.352062,74.5609643 118.671415,74.6321024 C119.192924,74.7477657 119.469288,75.0988498 119.42988,75.5942572 C119.343389,76.6751461 117.669853,78.3138801 116.588453,78.3773414 C116.054149,78.4126545 115.682082,78.0886949 115.564372,77.4991192 C115.510634,77.2309441 115.444614,77.1823246 115.443591,77.1818128 C115.083294,77.2084256 113.965045,79.1900552 113.018244,81.5135569 L112.364183,84.2736108 L112.21423,84.1799542 C111.737759,84.569934 110.886149,85.4496916 111.063739,86.1953616 C111.23621,86.9185131 112.3432,87.4697051 114.265463,87.7900822 C117.335146,88.3003313 118.478985,87.7957118 118.898136,87.2829037 C119.336735,86.7460418 119.083402,86.0669037 119.080843,86.0602505 L118.885341,85.5510249 L119.401732,85.7260552 C119.530702,85.7695569 122.562001,86.8187152 123.102446,88.8766007 C123.139806,89.0193886 123.176143,89.092062 123.198149,89.1263515 C123.497543,88.9318734 124.132668,87.4952943 124.62091,85.8939205 L124.686931,85.6769239 L128.537597,86.3596444 L130.010001,85.0940013 L135.178513,84.7987017 L136.27322,81.9843987 L139.494392,83.7137185 L143.462257,82.1266747 L147.997692,77.9305535 L149.133341,77.9305535 L150.332453,75.34553 L153.317692,75.34553 L154.934931,77.3875502 L157.98056,76.4612202 L157.98056,74.0722101 L162.026217,70.6801024 L165.701853,71.426796 C165.73819,71.4078599 165.780156,71.3945535 165.831846,71.3950653 C165.977705,71.3966007 166.126634,71.405301 166.275564,71.4104189 C166.158877,71.2691663 166.042702,71.127402 165.919362,70.9902438 C166.63023,70.5521562 167.232601,70.1806007 168.002836,69.7061764 C167.330352,68.9477118 166.808331,68.3591596 166.286823,67.7711192 C170.039739,65.1318465 171.327389,58.5630923 165.916291,54.1776108" id="Fill-23" opacity="0.200000003"></path>
                <path d="M218.086325,102.797139 C218.11089,102.759267 218.141086,102.726513 218.184587,102.70553 C218.290015,101.696803 218.279779,101.112857 218.547442,100.745395 C220.248102,98.409099 219.263941,96.4750653 217.938931,94.4274155 C216.980358,92.9452875 216.06887,91.3582438 215.540197,89.690338 C214.799644,87.3489239 213.175752,85.9860418 211.013974,85.7542034 C207.821974,85.4118195 205.530715,83.9409508 203.430863,81.6522505 C200.65085,78.6204391 200.553611,78.7130721 197.350863,80.7049374 C197.248506,80.7689104 197.036628,80.6558061 196.876439,80.6225401 C195.855941,77.7698532 196.441934,76.6869172 199.239348,76.1490316 C199.896479,76.0226209 200.909301,75.9361293 201.10685,75.5205603 C202.336668,72.9416781 204.339281,72.6376781 206.847025,73.0542707 C207.357274,73.1392269 208.024641,72.2835232 208.619335,71.861301 C208.185853,71.3162505 207.863941,70.5623919 207.300466,70.2619744 C204.714419,68.8847623 201.801853,69.4973684 199.864749,71.7707152 C199.378042,72.3418667 199.098607,73.0885603 198.6119,73.9539879 C197.694782,72.8700283 197.359052,72.5092202 197.062729,72.1171933 C195.243335,69.7092471 195.028897,69.8044391 192.766298,71.7952808 C190.763685,73.5568431 191.810284,75.753934 191.437193,77.7478465 C191.268816,78.6460283 190.936668,79.9715502 190.325597,80.2151596 C189.528749,80.532466 188.124924,80.280668 187.434527,79.7182168 C185.809611,78.3942303 184.520937,76.6643987 182.955389,75.2544323 C182.20716,74.5799003 181.139577,74.260035 180.215806,73.7799811 C180.075577,74.041503 179.935348,74.3030249 179.795119,74.5645468 C180.444062,75.2784862 181.094028,75.9929374 181.742971,76.7068768 C181.674392,76.9540687 181.605813,77.2012606 181.536722,77.4489643 C180.434338,77.2462976 179.331954,77.043631 178.209611,76.83687 C178.202958,76.9074963 178.304803,77.4085333 178.123631,77.5502976 C176.733624,78.6439811 175.407079,80.1030788 173.813382,80.5350249 C172.974055,80.762769 170.64083,79.0723448 170.699173,78.3967892 C170.94483,75.5625266 169.40487,74.1177589 167.474419,72.6857859 C167.421705,72.6458667 167.375133,72.5967354 167.324466,72.5537455 C166.955469,73.0419879 166.70623,73.5875502 166.596708,74.2129508 L166.638163,74.2170451 L166.029139,80.2939744 L158.200884,87.9866074 L157.346203,86.7747017 L157.346203,93.9980283 L163.716897,98.1445064 L161.992695,101.592399 L161.992695,104.873449 L167.208291,104.873449 L169.937126,106.638594 L169.937126,112.570688 C170.270809,112.214998 170.617799,111.748251 171.109112,111.232372 C172.123469,112.589112 172.941813,113.780035 173.872749,114.875766 C174.200803,115.261139 174.815968,115.647025 175.280156,115.625018 C176.12153,115.585099 176.958298,115.417234 177.873368,115.239644 L180.973247,107.066958 L181.253193,107.346904 C181.311537,107.404735 182.676978,108.783483 182.676978,109.925786 C182.676978,110.550163 184.001476,111.286621 184.866392,111.618257 L191.556439,111.618257 L192.273961,110.181678 L194.902486,108.944695 C195.101059,108.879698 195.545288,108.671914 195.612331,108.33823 C195.676304,108.021436 195.4112,107.601772 194.84619,107.123254 C194.495106,106.825907 194.159887,106.479941 194.337988,106.166729 C194.423456,106.018311 194.680372,105.564358 197.942486,106.68619 L199.87089,107.647833 L201.110944,105.805409 L203.35819,107.87353 C205.452412,107.924708 208.884951,108.12021 209.146473,108.854109 C209.183321,108.95749 209.209422,109.162715 208.96786,109.3705 C208.300493,109.942675 208.248803,110.61516 208.271321,110.943213 C209.027227,110.903294 211.477139,110.689368 212.171631,109.596197 C212.411146,109.220547 212.408587,108.774271 212.164978,108.231779 C211.461786,106.669301 211.85023,105.736318 212.300601,105.229139 C213.076978,104.353476 214.652251,104.094513 216.221894,104.584803 C216.783321,104.760345 217.182001,104.758298 217.345261,104.577638 C217.524897,104.380089 217.477301,103.966055 217.393368,103.63186 C217.304318,103.557651 217.253651,103.437382 217.299712,103.322742 C217.285382,103.283335 217.271052,103.245974 217.259281,103.217826 L217.471671,103.127752 C217.652331,102.962958 217.844762,102.8432 218.086325,102.797139" id="Fill-25" opacity="0.400000006"></path>
                <path d="M218.314683,133.64316 C218.389915,133.492183 218.54038,133.305382 218.730764,133.068426 C219.036299,132.688681 219.604892,131.980884 219.471828,131.702985 C219.445215,131.6472 219.299356,131.465005 218.543451,131.465005 C217.987141,131.465005 217.641174,131.296628 217.514252,130.964479 C217.197969,130.136412 218.687774,128.542203 219.54143,127.71823 L218.774265,127.71823 L216.982508,126.673166 C215.894454,126.734069 214.141592,126.726904 213.958885,126.072331 C213.852945,125.691052 214.202494,125.322055 215.126777,124.837395 C218.046508,123.308695 217.487127,121.567092 217.480986,121.550203 L217.467679,121.479577 C217.443114,121.001059 217.274225,116.780884 218.753794,116.101745 C219.291679,115.856601 219.934481,116.085368 220.668892,116.784978 C222.422265,118.455442 223.282063,118.576224 223.635706,118.498432 C223.847585,118.452884 223.946871,118.322378 223.983208,118.260453 L223.983208,116.141153 L224.028757,116.075644 L229.724407,107.831308 L229.778656,107.86918 C229.890225,107.779618 229.995141,107.685961 230.091356,107.584628 C229.349269,107.411133 228.453646,107.449516 227.515033,107.541126 C225.686939,107.718203 225.075868,106.884506 225.194602,105.15058 C225.291329,103.739079 225.21405,102.316318 225.21405,100.848008 C222.877754,101.73186 220.790185,102.521543 218.078238,103.547671 C218.088986,103.480628 218.095127,103.422796 218.104339,103.358823 C218.023989,103.387995 217.953875,103.438661 217.888878,103.498028 C217.999424,103.927927 218.069026,104.541045 217.725107,104.921301 C217.410871,105.267267 216.854562,105.318446 216.068972,105.073813 C214.710696,104.649032 213.318131,104.852722 212.683518,105.568708 C212.181969,106.13423 212.163545,106.982257 212.631828,108.021692 C212.947599,108.72386 212.937875,109.345678 212.603679,109.871793 C211.634871,111.39384 208.200797,111.461907 208.055451,111.463954 L207.855343,111.467025 L207.804164,111.27357 C207.790346,111.220857 207.479693,109.985921 208.618925,108.995618 C208.144501,108.68087 205.534912,108.434702 203.249282,108.383011 L203.153067,108.380453 L201.202656,106.585112 L200.044999,108.306244 L197.74504,107.156776 C196.667222,106.788291 195.362683,106.445907 194.8857,106.445907 L194.878023,106.445907 C194.932272,106.50988 195.023881,106.603537 195.176905,106.732506 C195.904663,107.348183 196.21941,107.923429 196.113471,108.44289 C195.970683,109.141476 195.123168,109.409139 195.086319,109.420399 L192.652784,110.568843 L191.872312,112.130298 L184.729336,112.113921 C184.466791,112.015146 182.165296,111.117476 182.165296,109.92553 C182.165296,109.30883 181.581349,108.49151 181.164245,108.006338 L178.462535,115.129867 C178.608393,115.102742 178.74811,115.075106 178.898575,115.049005 C178.956919,115.457921 178.865309,116.115052 179.099195,116.266028 C181.202629,117.617651 180.257363,118.653503 178.865309,119.750769 C178.561309,119.990284 178.330494,120.448843 178.262427,120.840358 C177.869376,123.099887 176.407208,124.092237 174.295073,124.571267 C173.693215,124.708426 173.243356,125.501692 172.715706,125.985328 C172.039639,126.604587 171.448528,127.418325 170.652703,127.782203 C169.526777,128.296547 168.247828,128.475671 167.045646,128.795537 C166.323518,127.936762 165.63875,127.123025 164.954494,126.309288 L164.196541,126.741234 C166.167424,130.504897 167.455073,134.953328 170.322602,137.822392 C172.721848,140.224197 176.448151,142.177166 180.687774,142.276453 C180.687774,140.71551 180.679585,139.530217 180.688286,138.345436 C180.720528,134.303362 184.89976,130.275618 188.89475,130.720358 C191.764326,131.039712 194.399504,130.962944 197.055666,129.579591 C199.254804,128.433705 201.725188,129.557584 202.597269,131.616493 C203.401794,133.515213 204.250333,135.396533 205.113201,137.269665 C207.032905,141.434567 207.041605,141.430473 211.348784,140.390527 C212.462939,140.121328 213.384663,140.002594 214.182023,140.053772 C214.976312,138.61054 216.909323,137.929867 217.49378,137.753301 C217.607908,136.982554 218.03269,134.206634 218.314683,133.64316" id="Fill-27" opacity="0.300000012"></path>
                <path d="M255.109686,156.380568 C254.959222,156.40104 254.849188,156.313525 254.795962,156.204003 L248.963154,154.722898 C248.690373,154.987491 247.99537,155.575531 247.413982,155.316057 C246.855114,155.067841 246.666265,154.205996 246.818777,152.604622 C247.189821,148.704824 246.555208,148.134185 244.671841,146.439666 L244.388312,146.183774 C243.010589,144.937578 243.664137,143.247666 244.355046,141.458979 C244.814117,140.272151 245.288541,139.045403 245.209215,137.867275 C245.118629,136.502858 245.706158,135.503343 246.82236,135.124622 C247.487679,134.897902 248.275316,134.939356 248.771747,135.180407 C248.711868,134.479262 248.643801,133.309834 249.262548,132.713094 C249.568595,132.418306 249.991329,132.303666 250.523585,132.369174 C250.988797,132.427518 251.311222,132.343073 251.479087,132.118912 C251.869578,131.595356 251.501094,130.390104 251.292797,129.881902 C250.669444,129.491922 248.414009,127.984716 248.723639,126.809659 C248.899181,126.143828 249.803504,125.790696 251.487787,125.731841 C256.869201,125.542993 256.970023,122.977929 256.971558,122.86943 L257.031437,122.86943 C257.134306,122.316191 257.380474,121.873498 257.727464,121.502966 C257.329296,120.930791 256.813929,120.424636 256.30675,119.893403 C255.207949,118.741888 255.281134,117.689147 255.660878,116.204972 C256.250966,113.897848 258.780716,111.825632 256.809834,109.08605 C256.71976,108.960663 256.967976,108.621861 256.998683,108.375181 C257.100528,107.561956 257.482319,106.18372 257.203908,106.031208 C256.236124,105.500999 254.702306,104.817767 253.98376,105.232312 C251.321969,106.766642 249.273296,105.857201 247.273242,104.191855 C245.505026,102.718939 244.176945,103.033174 242.991653,105.117673 C245.135006,105.777875 246.546508,106.998993 246.192353,109.371114 C246.106373,109.945848 245.643208,110.463774 245.35405,111.007801 C244.914427,110.516488 244.13805,110.052811 244.096084,109.530279 C243.940501,107.571168 242.773632,107.285592 241.275127,107.665336 C239.492582,108.117754 238.140959,107.56605 236.895275,106.338791 C236.292905,105.745632 235.616326,105.14838 234.858885,104.808555 C233.424865,104.166265 232.082454,104.110993 231.572205,106.187814 C234.339424,107.608016 234.314858,109.937659 233.889053,113.024743 C233.003154,112.080501 231.979073,111.481713 232.00978,110.942804 C232.115208,109.105498 231.562481,108.198104 230.656622,107.780488 C230.464191,108.017444 230.236959,108.223181 229.988232,108.412541 C229.966225,108.42943 229.94473,108.43506 229.923235,108.44376 L224.495248,116.301188 L224.479383,118.406669 C224.417457,118.577094 224.197902,118.892353 223.765444,118.993686 C222.95836,119.184582 221.796609,118.565834 220.316016,117.155356 C219.925525,116.783801 219.374844,116.379491 218.967464,116.566804 C218.093848,116.967531 217.896811,119.743962 217.976649,121.422615 C218.063653,121.731222 218.462844,123.667814 215.365013,125.291195 C214.504191,125.741565 214.45506,125.945255 214.454036,125.953956 C214.586077,126.123356 215.791841,126.231855 217.029336,126.157646 L217.106615,126.15304 L218.912191,127.206292 L220.863114,127.206292 L220.362589,127.65308 C219.084151,128.795383 217.814413,130.315895 217.992514,130.781619 C218.033969,130.890629 218.234589,130.953067 218.543706,130.953067 C219.308312,130.953067 219.763289,131.12605 219.933201,131.48174 C220.205982,132.050333 219.609242,132.79242 219.1297,133.389161 C218.972582,133.585174 218.823653,133.769929 218.772474,133.872286 C218.566225,134.284784 218.18341,136.561201 217.976137,137.990615 L217.952084,138.159504 L217.786265,138.201982 C217.762211,138.208124 215.629605,138.773134 214.73603,140.120151 C216.319491,140.413915 217.382467,141.540353 218.52477,143.791693 C219.025296,144.779949 219.419881,145.839855 220.047329,146.738548 C220.495141,147.380326 221.184003,148.128555 221.880541,148.273902 C225.107855,148.946387 228.35871,149.657255 231.634642,149.894211 C234.036447,150.068218 235.801592,150.817982 237.39836,152.610764 C238.211585,153.524811 239.598521,153.970063 240.782791,154.502831 C242.289996,155.181457 243.98605,155.527424 245.357121,156.398481 C246.777323,157.300245 253.448945,158.29976 254.840488,157.332999 C255.144488,157.121632 255.397821,156.767477 255.584622,156.383127 C255.430575,156.363679 255.273457,156.35805 255.109686,156.380568" id="Fill-29" opacity="0.300000012"></path>
                <path d="M302.146931,138.540579 C299.36487,135.07631 296.510648,131.670896 293.688156,128.239892 C288.067227,129.898074 288.067227,129.898074 288.843092,126.499825 C287.773463,125.344215 286.713045,124.480323 286.029301,123.382545 C285.30052,122.212606 284.927941,120.82004 284.399779,119.525226 L283.515415,119.425428 C282.889503,120.705912 282.350594,122.041158 281.601341,123.245387 C281.209314,123.876929 280.444197,124.702949 279.853086,124.697832 C278.531146,124.687084 277.213301,124.210613 275.662082,123.873347 C274.753153,122.319057 273.608803,120.363017 272.381543,118.2647 C271.557059,118.850182 270.818554,119.375785 270.013005,119.94796 C268.949516,119.301576 267.896264,118.661333 265.997543,117.507771 C265.997543,120.550842 265.979631,122.943434 266.004197,125.336539 C266.020574,127.004956 265.766729,128.116552 263.670971,127.104754 C262.994392,126.778747 262.003577,126.685091 261.297314,126.916418 C259.107389,127.633428 257.985045,126.058667 258.303375,124.709603 C258.57155,123.573441 258.406244,122.719785 258.0265,121.993051 C257.784426,122.280673 257.610931,122.618451 257.557705,123.039138 C257.545934,123.13433 257.494756,123.201886 257.429759,123.246411 C257.22658,124.092902 256.244978,126.076579 251.505853,126.243933 C249.589732,126.310976 249.26782,126.753158 249.218688,126.93996 C249.051335,127.574061 250.528857,128.812067 251.630729,129.489158 L251.699308,129.531125 L251.731038,129.604822 C251.816506,129.800323 252.54887,131.541414 251.88918,132.425266 C251.603604,132.808081 251.120479,132.958034 250.460277,132.877172 C250.084628,132.831623 249.809288,132.897131 249.61788,133.081374 C249.140897,133.541468 249.238648,134.65204 249.291873,135.248269 C249.328722,135.671003 249.347658,135.882882 249.121449,135.962209 C248.980708,136.010828 248.850715,135.950438 248.737611,135.780525 C248.593799,135.566088 247.801557,135.333226 246.986796,135.608566 C246.355254,135.823003 245.623914,136.382896 245.720129,137.833293 C245.806109,139.124525 245.311213,140.40501 244.832695,141.643017 C244.179146,143.333441 243.61516,144.793562 244.731873,145.803825 L245.014378,146.058694 C246.9305,147.783407 247.723766,148.496835 247.328668,152.653549 C247.153126,154.490343 247.508816,154.797926 247.621921,154.848081 C247.879348,154.963232 248.415187,154.568646 248.695133,154.26567 L248.798513,154.153077 L255.279752,155.799488 L255.272075,155.828148 C255.449665,155.824566 255.622648,155.836848 255.790001,155.866532 C255.812008,155.796929 255.832479,155.727838 255.84988,155.659771 C256.797193,151.904808 256.771604,151.898667 260.646836,152.986721 C261.220547,153.147933 261.791698,153.315798 262.365921,153.476498 C266.426931,154.611125 266.899308,154.326572 268.302109,150.40835 C268.68083,149.350492 269.24021,147.766519 270.022729,147.555152 C272.342648,146.928215 274.815079,146.865266 277.325382,146.569966 C277.444116,147.636013 277.428762,148.330505 277.618123,148.963582 C277.820789,149.642209 278.082311,150.635071 278.5639,150.807542 C279.062378,150.986155 279.858715,150.355636 280.517382,150.062384 C281.37718,149.679057 282.627981,148.72765 283.004143,148.999919 C283.821463,149.590519 284.209395,150.791165 284.737557,151.761508 C285.149543,152.517926 285.507793,153.303003 286.10351,154.506209 C287.487887,151.256889 288.470513,148.657535 289.71722,146.192269 C290.119483,145.396444 291.131281,144.657939 292.01155,144.401535 C295.155442,143.485953 297.189274,145.889293 299.813193,147.608377 C300.527644,146.727596 301.113638,145.873939 301.828601,145.146182 C304.615267,142.310896 304.695106,141.712108 302.146931,138.540579" id="Fill-31" opacity="0.300000012"></path>
            </g>
        </g>
    </g>
</svg>