<?xml version="1.0" encoding="UTF-8"?>
<svg width="21px" height="22px" viewBox="0 0 21 22" version="1.1" xmlns="http://www.w3.org/2000/svg" xmlns:xlink="http://www.w3.org/1999/xlink">
    <!-- Generator: sketchtool 50.2 (55047) - http://www.bohemiancoding.com/sketch -->
    <title>1D2BF73D-2A51-4D81-A57C-ED7A91F8637C@1.5x</title>
    <desc>Created with sketchtool.</desc>
    <defs></defs>
    <g id="Page-1" stroke="none" stroke-width="1" fill="none" fill-rule="evenodd">
        <g id="Rev1.4-Summary-1" transform="translate(-287.000000, -126.000000)" fill="#0A0B09">
            <path d="M291.861212,131.288637 L289.73684,131.288637 C289.54671,131.288637 289.392641,131.441605 289.392641,131.630281 C289.392641,131.818914 289.54671,131.971883 289.73684,131.971883 L291.861255,131.971883 C292.051385,131.971883 292.205455,131.818914 292.205455,131.630281 C292.205411,131.441605 292.051342,131.288637 291.861212,131.288637 Z M304.430909,147.316754 C303.123766,147.316754 302.060346,146.261184 302.060346,144.963699 C302.060346,143.666215 303.123766,142.610645 304.430909,142.610645 C305.738095,142.610645 306.801558,143.666215 306.801558,144.963699 C306.801558,146.261184 305.738095,147.316754 304.430909,147.316754 Z M302.060303,134.224262 C302.060303,132.926777 303.123723,131.871164 304.430866,131.871164 C305.738052,131.871164 306.801515,132.926777 306.801515,134.224262 C306.801515,135.521746 305.738052,136.577359 304.430866,136.577359 C303.123723,136.577359 302.060303,135.521746 302.060303,134.224262 Z M293.172424,147.316754 C291.865238,147.316754 290.801775,146.261184 290.801775,144.963699 C290.801775,143.666215 291.865238,142.610645 293.172424,142.610645 C294.47961,142.610645 295.543117,143.666215 295.543117,144.963699 C295.543117,146.261184 294.47961,147.316754 293.172424,147.316754 Z M288.188355,131.630281 C288.188355,128.902453 290.424199,126.683246 293.172424,126.683246 C295.920649,126.683246 298.156407,128.902453 298.156407,131.630281 C298.156407,134.358066 295.920563,136.577316 293.172424,136.577316 C290.424242,136.577316 288.188355,134.358152 288.188355,131.630281 Z M304.775108,141.947121 L304.775108,137.24084 C306.300346,137.070512 307.489913,135.782996 307.489913,134.224305 C307.489913,132.55007 306.117662,131.188004 304.430909,131.188004 C302.744242,131.188004 301.371991,132.55007 301.371991,134.224305 C301.371991,135.782996 302.561602,137.070512 304.086753,137.24084 L304.086753,141.947164 C302.674589,142.104902 301.550779,143.220457 301.391861,144.622098 L296.211558,144.622098 C296.052641,143.220457 294.928788,142.104902 293.51658,141.947164 L293.51658,137.249906 C296.484675,137.072703 298.844719,134.620133 298.844719,131.630324 C298.844719,128.525703 296.30013,126 293.172424,126 C290.044632,126 287.5,128.525703 287.5,131.630281 C287.5,134.62009 289.86013,137.07266 292.828182,137.249863 L292.828182,141.947121 C291.302944,142.117492 290.113377,143.405008 290.113377,144.963699 C290.113377,146.637934 291.485628,148 293.172381,148 C294.742684,148 296.039913,146.819262 296.211515,145.305301 L301.391861,145.305301 C301.563506,146.819262 302.860606,148 304.430909,148 C306.117662,148 307.489913,146.637934 307.489913,144.963699 C307.489913,143.405051 306.300303,142.117535 304.775108,141.947121 Z M293.51658,135.040367 L293.51658,132.931719 C293.51658,132.743086 293.362554,132.590117 293.172424,132.590117 C292.982294,132.590117 292.828225,132.743086 292.828225,132.931719 L292.828225,135.040367 C292.828225,135.229043 292.982294,135.381969 293.172424,135.381969 C293.362468,135.381969 293.51658,135.229043 293.51658,135.040367 Z M291.414719,130.368805 C291.481948,130.435535 291.57,130.468879 291.658139,130.468879 C291.74619,130.468879 291.834286,130.435535 291.901515,130.368805 C292.035931,130.235387 292.035931,130.019082 291.901515,129.885707 L290.986494,128.977434 C290.852035,128.844016 290.634156,128.844016 290.49974,128.977434 C290.365325,129.110852 290.365325,129.327156 290.49974,129.460531 L291.414719,130.368805 Z M291.414719,132.891801 L290.49974,133.800031 C290.365325,133.933449 290.365325,134.149754 290.49974,134.283129 C290.56697,134.349816 290.655065,134.383203 290.743117,134.383203 C290.831212,134.383203 290.919307,134.349859 290.986537,134.283129 L291.901515,133.374855 C292.035931,133.24148 292.035931,133.025133 291.901515,132.891801 C291.767056,132.758383 291.549177,132.758383 291.414719,132.891801 Z M294.68671,130.468836 C294.774762,130.468836 294.8629,130.435492 294.93013,130.368762 L295.845108,129.460531 C295.979524,129.327113 295.979524,129.110809 295.845108,128.977434 C295.710649,128.844016 295.492771,128.844016 295.358355,128.977434 L294.443333,129.885664 C294.308918,130.019082 294.308918,130.235387 294.443333,130.368762 C294.510563,130.435492 294.598658,130.468836 294.68671,130.468836 Z M294.930043,132.891801 C294.795671,132.758383 294.577792,132.75834 294.443333,132.891801 C294.308918,133.025176 294.308918,133.241523 294.443333,133.374855 L295.358312,134.283129 C295.425541,134.349859 295.513593,134.383203 295.601688,134.383203 C295.68974,134.383203 295.777879,134.349859 295.845108,134.283129 C295.979524,134.149711 295.979524,133.933406 295.845108,133.800031 L294.930043,132.891801 Z M294.483506,131.971883 L296.607965,131.971883 C296.798095,131.971883 296.952121,131.818914 296.952121,131.630281 C296.952121,131.441605 296.798095,131.288637 296.607965,131.288637 L294.483506,131.288637 C294.293377,131.288637 294.139351,131.441605 294.139351,131.630281 C294.139351,131.818914 294.293377,131.971883 294.483506,131.971883 Z M293.172424,130.670488 C293.362554,130.670488 293.51658,130.51752 293.51658,130.328844 L293.51658,128.220238 C293.51658,128.031563 293.362554,127.878594 293.172424,127.878594 C292.982294,127.878594 292.828225,128.031563 292.828225,128.220238 L292.828225,130.328844 C292.828225,130.51752 292.982294,130.670488 293.172424,130.670488 Z" id="insight"></path>
        </g>
    </g>
</svg>