<?xml version="1.0" encoding="UTF-8"?>
<svg width="27px" height="34px" viewBox="0 0 27 34" version="1.1" xmlns="http://www.w3.org/2000/svg" xmlns:xlink="http://www.w3.org/1999/xlink">
    <!-- Generator: sketchtool 63.1 (101010) - https://sketch.com -->
    <title>1D34A58C-7C80-4DD6-B30F-B67FA0DA4042@1x</title>
    <desc>Created with sketchtool.</desc>
    <defs>
        <linearGradient x1="79.1297111%" y1="-21.6981495%" x2="50%" y2="100%" id="linearGradient-1">
            <stop stop-color="#ACC4F8" offset="0%"></stop>
            <stop stop-color="#738DD8" offset="100%"></stop>
        </linearGradient>
    </defs>
    <g id="Page-1" stroke="none" stroke-width="1" fill="none" fill-rule="evenodd">
        <g id="A_HomePage_Idle" transform="translate(-602.000000, -656.000000)" fill="url(#linearGradient-1)" fill-rule="nonzero">
            <path d="M603.856933,656.001217 L603.856933,656.003289 C603.313444,656.057746 602.899773,656.515385 602.900281,657.061596 L602.900281,686.542788 C602.900281,686.547607 602.900281,686.552426 602.900281,686.557245 L602.900281,686.590574 C602.902289,686.614178 602.905061,686.637709 602.908617,686.661128 C602.911169,686.701488 602.916022,686.741669 602.923154,686.781476 C603.042172,688.56575 604.530709,690 606.342947,690 L627.785133,690 C628.068345,690.001063 628.340268,689.889034 628.540529,689.688771 C628.74079,689.488509 628.852817,689.216585 628.851745,688.933374 L628.851745,684.175132 L628.851745,684.173052 L628.851745,657.061644 C628.851171,656.779501 628.738416,656.509167 628.53833,656.310243 C628.338244,656.111319 628.067258,656 627.785117,656.001217 L603.958611,656.001217 C603.924737,655.999594 603.890806,655.999594 603.856932,656.001217 L603.856933,656.001217 Z M609.432777,661.516872 C609.46665,661.51525 609.500582,661.51525 609.534456,661.516872 L622.217573,661.516872 C622.801097,661.519202 623.273559,661.991663 623.275897,662.575187 L623.275897,669.806972 C623.278123,670.393731 622.804329,670.871234 622.217571,670.873575 L609.534454,670.873575 C608.947701,670.871227 608.473915,670.393726 608.476141,669.806972 L608.476141,662.575187 C608.475613,662.028973 608.889284,661.57133 609.432777,661.516872 Z M610.601069,663.64179 L610.601069,668.746582 L621.150968,668.746582 L621.150968,663.64179 L610.601069,663.64179 Z M606.334622,685.241691 C606.337393,685.241702 606.340164,685.241702 606.342934,685.241691 L626.726804,685.241691 L626.726804,687.875019 L606.34293,687.875019 C605.597583,687.875019 605.029517,687.309607 605.025225,686.565621 C605.025225,686.56281 605.025225,686.559999 605.025225,686.557188 C605.025225,686.370865 605.060562,686.19458 605.124832,686.036337 C605.125055,686.035787 605.124609,686.034807 605.124832,686.034265 C605.308999,685.586566 605.731836,685.281791 606.249552,685.247791 C606.278223,685.246188 606.305385,685.241366 606.334622,685.241366 L606.334622,685.241691 Z" id="manual"></path>
        </g>
    </g>
</svg>