<?xml version="1.0" encoding="UTF-8"?>
<svg width="35px" height="35px" viewBox="0 0 35 35" version="1.1" xmlns="http://www.w3.org/2000/svg" xmlns:xlink="http://www.w3.org/1999/xlink">
    <!-- Generator: Sketch 52.6 (67491) - http://www.bohemiancoding.com/sketch -->
    <title>Degrowth-large</title>
    <desc>Created with Sketch.</desc>
    <g id="Page-1" stroke="none" stroke-width="1" fill="none" fill-rule="evenodd">
        <g id="Rev1.3-iPad-Map-View-Executive-dashboard-2" transform="translate(-338.000000, -658.000000)" fill="#528A2E" fill-rule="nonzero">
            <g id="Score-Copy-4" transform="translate(216.000000, 408.000000)">
                <g id="Group-5" transform="translate(10.000000, 250.000000)">
                    <g id="arrow-circle-up-copy" transform="translate(112.000000, 0.000000)">
                        <path d="M0,17.5 C0,7.83266129 7.83266129,0 17.5,0 C27.1673387,0 35,7.83266129 35,17.5 C35,27.1673387 27.1673387,35 17.5,35 C7.83266129,35 0,27.1673387 0,17.5 Z M10.1330645,19.5393145 L15.2419355,14.2116935 L15.2419355,27.0967742 C15.2419355,28.0352823 15.9969758,28.7903226 16.9354839,28.7903226 L18.0645161,28.7903226 C19.0030242,28.7903226 19.7580645,28.0352823 19.7580645,27.0967742 L19.7580645,14.2116935 L24.8669355,19.5393145 C25.5231855,20.2237903 26.6169355,20.2379032 27.2872984,19.5675403 L28.0564516,18.7913306 C28.7197581,18.1280242 28.7197581,17.0554435 28.0564516,16.3991935 L18.6995968,7.03528226 C18.0362903,6.37197581 16.9637097,6.37197581 16.3074597,7.03528226 L6.93649194,16.3991935 C6.27318548,17.0625 6.27318548,18.1350806 6.93649194,18.7913306 L7.70564516,19.5675403 C8.38306452,20.2379032 9.47681452,20.2237903 10.1330645,19.5393145 Z" id="Degrowth-large" transform="translate(17.500000, 17.500000) scale(1, -1) translate(-17.500000, -17.500000) "></path>
                    </g>
                </g>
            </g>
        </g>
    </g>
</svg>