<?xml version="1.0" encoding="UTF-8"?>
<svg width="35px" height="35px" viewBox="0 0 35 35" version="1.1" xmlns="http://www.w3.org/2000/svg" xmlns:xlink="http://www.w3.org/1999/xlink">
    <!-- Generator: Sketch 52.6 (67491) - http://www.bohemiancoding.com/sketch -->
    <title>rowth -large</title>
    <desc>Created with Sketch.</desc>
    <g id="Page-1" stroke="none" stroke-width="1" fill="none" fill-rule="evenodd">
        <g id="Rev1.3-iPad-Map-View-Executive-dashboard-2" transform="translate(-161.000000, -656.000000)" fill="#9B2F2D" fill-rule="nonzero">
            <g id="Score-Copy-3" transform="translate(36.000000, 408.000000)">
                <g id="arrow-circle-up" transform="translate(15.000000, 248.000000)">
                    <g id="Group-6">
                        <path d="M110,17.5 C110,7.83266129 117.832661,0 127.5,0 C137.167339,0 145,7.83266129 145,17.5 C145,27.1673387 137.167339,35 127.5,35 C117.832661,35 110,27.1673387 110,17.5 Z M120.133065,19.5393145 L125.241935,14.2116935 L125.241935,27.0967742 C125.241935,28.0352823 125.996976,28.7903226 126.935484,28.7903226 L128.064516,28.7903226 C129.003024,28.7903226 129.758065,28.0352823 129.758065,27.0967742 L129.758065,14.2116935 L134.866935,19.5393145 C135.523185,20.2237903 136.616935,20.2379032 137.287298,19.5675403 L138.056452,18.7913306 C138.719758,18.1280242 138.719758,17.0554435 138.056452,16.3991935 L128.699597,7.03528226 C128.03629,6.37197581 126.96371,6.37197581 126.30746,7.03528226 L116.936492,16.3991935 C116.273185,17.0625 116.273185,18.1350806 116.936492,18.7913306 L117.705645,19.5675403 C118.383065,20.2379032 119.476815,20.2237903 120.133065,19.5393145 Z" id="rowth--large"></path>
                    </g>
                </g>
            </g>
        </g>
    </g>
</svg>