<?xml version="1.0" encoding="UTF-8"?>
<svg width="111px" height="90px" viewBox="0 0 111 90" version="1.1" xmlns="http://www.w3.org/2000/svg" xmlns:xlink="http://www.w3.org/1999/xlink">
    <!-- Generator: Sketch 52.6 (67491) - http://www.bohemiancoding.com/sketch -->
    <title>NHM Logo</title>
    <desc>Created with Sketch.</desc>
    <g id="Page-1" stroke="none" stroke-width="1" fill="none" fill-rule="evenodd">
        <g id="DD-Forget-password" transform="translate(-184.000000, -109.000000)" fill="#FFFFFF" fill-rule="nonzero">
            <g id="Group-3" transform="translate(63.822715, 108.767313)">
                <g id="NHM-Logo" transform="translate(120.664820, 0.000000)">
                    <path d="M55.0416667,78.3333333 C44.2083333,78.3333333 33.375,78.3333333 22.5833333,78.3333333 C22,78.3333333 21.5833333,78.1666667 21.25,77.7083333 C18.7916667,74.375 16.6666667,70.9166667 15.2083333,67 C14.2083333,64.2916667 13.4583333,61.5 13.0833333,58.625 C12.625,55.2083333 12.625,51.8333333 13.0833333,48.4166667 C13.7083333,43.5 15.25,38.875 17.625,34.5416667 C19.5416667,31 22.0416667,27.875 24.9583333,25.0833333 C30.3333333,20.0416667 36.4583333,16.375 43.6666667,14.5416667 C47.4166667,13.5833333 51.1666667,12.9166667 55,13 C60.75,13.125 66.3333333,13.9583333 71.6666667,16.1666667 C75.9166667,17.9166667 79.875,20.25 83.375,23.25 C90.25,29.125 94.8333333,36.375 96.7083333,45.25 C98.4583333,53.5416667 97.625,61.6666667 94.125,69.4166667 C92.875,72.2083333 91.1666667,74.75 89.4583333,77.25 C88.9166667,78.0833333 88.2083333,78.4166667 87.1666667,78.4166667 C76.4166667,78.2916667 65.7083333,78.3333333 55.0416667,78.3333333 Z M45.0833333,46.1666667 C45.125,46.25 45.2083333,46.375 45.2916667,46.4583333 C46.75,48.25 48.2083333,50.0416667 49.6666667,51.8333333 C49.9166667,52.125 50.1666667,52.4583333 50.4583333,52.7083333 C50.8333333,53.0416667 51.2916667,53.0833333 51.7083333,52.7916667 C52.125,52.4583333 52.5,52.0833333 52.8333333,51.7083333 C53.125,51.3333333 53.125,50.875 52.875,50.4166667 C52.75,50.1666667 52.5416667,49.9583333 52.375,49.75 C50.5416667,47.4583333 48.75,45.2083333 46.9166667,42.9583333 C46.6666667,42.6666667 46.375,42.375 46.0833333,42.125 C45.6666667,41.7916667 45.1666667,41.7916667 44.75,42.1666667 C43.6666667,43.125 43.1666667,43.5 44.0416667,45 C44.0416667,45 44.0416667,45.0416667 43.9583333,45.1666667 C43.625,44.5833333 43.375,44.0416667 43.0416667,43.5 C42.9166667,43.3333333 42.6666667,43.125 42.5,43.125 C41.125,43.0833333 39.75,43.0416667 38.375,43.0833333 C38.2083333,43.0833333 37.9583333,43.2083333 37.875,43.3333333 C37.3333333,44 36.9166667,44.7916667 36.3333333,45.4166667 C35.4166667,46.3333333 35.1666667,47.4166667 35.1666667,48.6666667 C35.2083333,50.25 35.25,51.875 35.25,53.4583333 C35.25,54.375 35.25,55.25 35.25,56.1666667 C35.2916667,57.7916667 35.9583333,58.625 37.5416667,58.7916667 C39.2083333,58.9583333 40.9166667,58.9583333 42.5833333,58.9166667 C43.7916667,58.875 44.625,58 44.8333333,56.8333333 C44.9166667,56.2916667 44.9583333,55.75 44.9583333,55.2083333 C44.9583333,52.875 44.9583333,50.5 44.9583333,48.1666667 C45.0833333,47.375 45.0833333,46.7916667 45.0833333,46.1666667 Z M80.4583333,65.4583333 C80.375,65.125 80.3333333,64.8333333 80.2083333,64.5416667 C79.1666667,61.5 78.1666667,58.4166667 77.125,55.375 C76.0833333,52.2916667 75.0833333,49.2083333 74.0416667,46.125 C73.9583333,45.875 73.6666667,45.7083333 73.5,45.5 C73.2916667,45.6666667 73.0416667,45.8333333 72.9166667,46.0416667 C72.6666667,46.5833333 72.5,47.1666667 72.3333333,47.75 C70.5,53.1666667 68.6666667,58.5833333 66.8333333,64 C66.6666667,64.4583333 66.5416667,64.9166667 66.4166667,65.4583333 C71.125,65.4583333 75.75,65.4583333 80.4583333,65.4583333 Z M51.7916667,69.8333333 C55.7916667,69.8333333 59.6666667,69.8333333 63.5416667,69.8333333 C63.5,69.6666667 63.4583333,69.5416667 63.4166667,69.4166667 C61.7916667,65.9583333 60.1666667,62.5 58.5,59.0416667 C58.3333333,58.7083333 57.9583333,58.4583333 57.7083333,58.1666667 C57.4166667,58.4583333 57.0833333,58.75 56.9166667,59.0833333 C55.4583333,62.0416667 54.0416667,65 52.5833333,68 C52.2916667,68.5833333 52.0833333,69.1666667 51.7916667,69.8333333 Z M55.125,36.5416667 C55.3333333,35.0833333 55.5416667,33.8333333 55.7916667,32.4166667 C56.2083333,32.75 56.5416667,33 56.9583333,33.3333333 C57,32.8333333 57.0416667,32.375 57.125,31.7916667 C58,32.4166667 58.75,32.9166667 59.5,33.4583333 C59.5416667,33.4166667 59.625,33.375 59.6666667,33.2916667 C59.1666667,32.4583333 58.7083333,31.625 58.1666667,30.7083333 C58.6666667,30.6666667 59.0833333,30.5833333 59.5833333,30.5416667 C59.2916667,30.0833333 59,29.7083333 58.75,29.2916667 C59.9583333,29 61.1666667,29.0416667 62.4166667,28.4583333 C61.0833333,28.2083333 59.9583333,28 58.75,27.75 C59.0833333,27.2916667 59.3333333,26.9166667 59.625,26.4583333 C59.0833333,26.4166667 58.6666667,26.375 58.125,26.3333333 C58.7083333,25.375 59.2083333,24.5 59.7083333,23.6666667 C59.6666667,23.625 59.625,23.5833333 59.5416667,23.5416667 C58.7916667,24.0833333 58,24.625 57.1666667,25.25 C57.0833333,24.6666667 57.0416667,24.2083333 56.9583333,23.625 C56.5833333,23.9583333 56.2916667,24.25 55.8333333,24.6666667 C55.625,23.2916667 55.4166667,22 55.2083333,20.75 C55.125,20.75 55.0833333,20.75 55,20.75 C54.8333333,22 54.625,23.2916667 54.4583333,24.7083333 C54,24.2916667 53.6666667,24.0416667 53.3333333,23.75 C53.25,24.2916667 53.1666667,24.7083333 53.0833333,25.2083333 C52.2083333,24.625 51.4583333,24.0833333 50.7083333,23.5833333 C50.6666667,23.625 50.625,23.6666667 50.5416667,23.7083333 C51.0416667,24.5416667 51.5416667,25.375 52.0833333,26.2916667 C51.5833333,26.375 51.1666667,26.4166667 50.625,26.5 C50.9583333,26.9583333 51.2083333,27.2916667 51.5416667,27.7083333 C50.25,27.9583333 49.0833333,28.2083333 47.875,28.4583333 C47.875,28.5 47.875,28.5 47.875,28.5416667 C49.0833333,28.7916667 50.25,29.0416667 51.5,29.2916667 C51.1666667,29.7916667 50.9166667,30.125 50.5833333,30.5416667 C51.125,30.5833333 51.5,30.625 52.0416667,30.6666667 C51.5,31.6666667 51,32.5416667 50.5,33.4166667 C50.5416667,33.4583333 50.5416667,33.4583333 50.5833333,33.5 C51.375,32.9583333 52.2083333,32.375 53.0833333,31.7916667 C53.125,32.375 53.2083333,32.8333333 53.25,33.375 C53.625,33.0416667 53.9166667,32.75 54.3333333,32.375 C54.625,33.8333333 54.875,35.125 55.125,36.5416667 Z M36.4166667,35.625 C36.4166667,37 36.7083333,38.1666667 37.375,39.25 C38.7916667,41.4166667 41.4583333,41.4166667 42.9166667,39.2916667 C44.2916667,37.3333333 44.25,34.4166667 42.8333333,32.4583333 C41.5,30.625 39.4166667,30.4583333 37.7916667,32.0416667 C36.7916667,33.0416667 36.4583333,34.3333333 36.4166667,35.625 Z M41.4166667,67.0833333 C41.4583333,67.0833333 41.4583333,67.0833333 41.4166667,67.0833333 C41.4583333,68.8333333 41.4166667,70.625 41.4583333,72.375 C41.4583333,72.7916667 41.5416667,73.25 41.6666667,73.625 C41.9166667,74.375 42.5833333,74.8333333 43.2916667,74.7916667 C44.1666667,74.75 44.7916667,74.2083333 44.9583333,73.375 C45.0416667,73 45.0833333,72.625 45.0833333,72.25 C45.0833333,68.7916667 45.0833333,65.2916667 45.0833333,61.8333333 C45.0833333,61.375 45,60.9166667 44.8333333,60.4583333 C44.5833333,59.75 44,59.375 43.375,59.4166667 C42.625,59.4583333 41.9583333,59.75 41.7083333,60.5416667 C41.5416667,61 41.5,61.5 41.5,61.9583333 C41.4166667,63.7083333 41.4166667,65.4166667 41.4166667,67.0833333 Z M76.7916667,39.2083333 C76.7916667,37.7083333 76.2916667,36.4166667 75.2083333,35.375 C74.2916667,34.5 73.1666667,34.375 72.0416667,34.9583333 C71.2083333,35.375 70.5833333,36 70.2083333,36.875 C69.375,38.875 69.5416667,40.8333333 70.7916667,42.5833333 C72.0416667,44.375 74.2083333,44.4166667 75.625,42.75 C76.4583333,41.7083333 76.7916667,40.5 76.7916667,39.2083333 Z M38.9166667,67.1666667 C38.875,67.1666667 38.875,67.1666667 38.9166667,67.1666667 C38.9166667,65.4583333 38.9166667,63.7083333 38.9166667,62 C38.9166667,61.625 38.875,61.25 38.7916667,60.875 C38.5833333,59.9166667 37.9583333,59.4166667 37.1666667,59.4583333 C36.2083333,59.5 35.5,60.1666667 35.375,61.125 C35.3333333,61.5 35.3333333,61.875 35.3333333,62.25 C35.2916667,64.7083333 35.2916667,67.1666667 35.25,69.625 C35.25,70.9583333 35.0833333,72.3333333 35.5416667,73.625 C35.8333333,74.4583333 36.3333333,74.8333333 37.0416667,74.7916667 C38,74.75 38.5833333,74.2916667 38.75,73.375 C38.8333333,72.9166667 38.875,72.4583333 38.875,71.9583333 C38.9166667,70.4166667 38.9166667,68.7916667 38.9166667,67.1666667 Z M36.8333333,43.9166667 C36.7916667,43.125 36.4166667,42.75 36,42.375 C35.125,41.5416667 34.7083333,41.5416667 33.9166667,42.4583333 C31.9166667,44.875 29.9166667,47.3333333 27.9166667,49.75 C27.0833333,50.75 27.25,51.7083333 28.2916667,52.4583333 C29.0416667,53 29.6666667,52.9583333 30.25,52.25 C31.125,51.2083333 31.9583333,50.1666667 32.7916667,49.0833333 C33.9583333,47.6666667 35.125,46.25 36.2916667,44.7916667 C36.5416667,44.5416667 36.7083333,44.1666667 36.8333333,43.9166667 Z M71.5833333,46.5 C71.5833333,45.7916667 71.1666667,45.1666667 70.5833333,44.9166667 C70.0416667,44.6666667 69.625,44.8333333 69.2916667,45.25 C68.625,46.0416667 67.9583333,46.875 67.2916667,47.7083333 C66.1666667,49.0416667 65.0833333,50.4166667 63.9583333,51.75 C63.375,52.4166667 63.4166667,52.9166667 64,53.5416667 C64.75,54.3333333 65.25,54.3333333 66.0416667,53.5833333 C66.1666667,53.4583333 66.2916667,53.3333333 66.4166667,53.1666667 C68,51.2083333 69.625,49.25 71.2083333,47.25 C71.375,46.9583333 71.5,46.625 71.5833333,46.5 Z M82.9583333,52.5833333 C82.6666667,52.0833333 82.375,51.5416667 82,51.0833333 C80.375,49.0833333 78.7083333,47.0833333 77.0416667,45.125 C76.875,44.9583333 76.5416667,44.75 76.3333333,44.7916667 C75.7083333,44.9166667 75.1666667,45.25 74.9166667,45.875 C74.6666667,46.4583333 74.9583333,46.875 75.3333333,47.2916667 C77.0833333,49.375 78.7916667,51.5 80.5416667,53.5833333 C80.875,54 81.2083333,54.25 81.75,54.0833333 C82.25,53.875 82.875,53.125 82.9583333,52.5833333 Z M68.5,71.5833333 C68.5,71.5833333 68.5,71.5833333 68.5,71.5833333 C68.5,72.2083333 68.5,72.875 68.5,73.5 C68.5416667,74.625 69.2083333,75.375 70.25,75.4166667 C71.2083333,75.4583333 71.9583333,74.8333333 72.0416667,73.7083333 C72.125,72.1666667 72.0833333,70.625 72.0416667,69.125 C72,68.3333333 71.3333333,67.7916667 70.5416667,67.7083333 C69.5,67.625 68.625,68.375 68.5416667,69.5416667 C68.4583333,70.1666667 68.5,70.875 68.5,71.5833333 Z M78.3333333,71.4166667 C78.2916667,71.4166667 78.25,71.4166667 78.2083333,71.4166667 C78.2083333,70.7916667 78.2083333,70.1666667 78.2083333,69.5416667 C78.1666667,68.9583333 78.0416667,68.375 77.5416667,68 C76.5,67.1666667 74.875,67.7916667 74.75,69.2083333 C74.625,70.7916667 74.6666667,72.375 74.75,73.9583333 C74.7916667,74.7916667 75.5416667,75.375 76.375,75.375 C77.2083333,75.4166667 77.9166667,74.9583333 78.0833333,74.125 C78.25,73.25 78.25,72.3333333 78.3333333,71.4166667 Z M60.0833333,54.5 C60.0833333,53 59.0833333,51.75 57.875,51.7083333 C56.5,51.6666667 55.25,52.9166667 55.25,54.3333333 C55.25,55.7916667 56.3333333,57.0416667 57.625,57.0416667 C59.0416667,57.0416667 60.0833333,55.9583333 60.0833333,54.5 Z M51.875,53.625 C51.7916667,53.625 51.6666667,53.625 51.5833333,53.625 C50.7916667,53.625 50.7916667,53.625 50.8333333,54.4166667 C50.9166667,56.375 51.7916667,58 53.3333333,59.2083333 C53.75,59.5416667 54.2916667,59.75 54.7916667,59.9166667 C55.4166667,60.125 55.875,59.7916667 56.0416667,59.2916667 C56.25,58.5 56.0416667,57.9166667 55.375,57.75 C54.25,57.4166667 53.4166667,56.7916667 53.25,55.5416667 C53.2083333,55.25 53.1666667,55 53.0833333,54.7083333 C52.875,53.625 52.875,53.625 51.875,53.625 Z M63.4583333,54.9583333 C63.0833333,54.8333333 62.875,55.0416667 62.75,55.5416667 C62.4583333,56.7083333 61.7916667,57.5416667 60.4583333,57.7083333 C60.2916667,57.7083333 60.0833333,57.8333333 60.0416667,57.9583333 C59.9583333,58.4166667 59.875,58.9166667 59.9583333,59.3333333 C60.0416667,59.7916667 60.5416667,59.9583333 60.9583333,59.875 C61.4166667,59.7916667 61.875,59.7083333 62.2916667,59.5 C63.5,58.8333333 64.25,57.7916667 64.6666667,56.5 C65.0833333,55.2083333 64.9166667,55 63.4583333,54.9583333 Z M58.3333333,72.9583333 C58.3333333,72.9583333 58.3333333,72.9583333 58.3333333,72.9583333 C58.3333333,73.5 58.375,74.0416667 58.4583333,74.5833333 C58.5416667,75 58.7083333,75.375 59.1666667,75.4166667 C59.6666667,75.4583333 60,75.1666667 60.125,74.7083333 C60.4583333,73.7083333 60.5,72.6666667 60.1666667,71.6666667 C60.0416667,71.25 59.8333333,70.8333333 59.2916667,70.875 C58.7916667,70.9166667 58.375,71.3333333 58.3333333,71.875 C58.3333333,72.25 58.3333333,72.5833333 58.3333333,72.9583333 Z M55.0833333,72.9166667 C55.125,73.5416667 55.1666667,74.0833333 55.25,74.5833333 C55.3333333,75 55.5,75.375 56,75.375 C56.5,75.4166667 56.7916667,75.125 56.9166667,74.7083333 C57.25,73.6666667 57.3333333,72.6666667 56.9583333,71.625 C56.8333333,71.2083333 56.625,70.8333333 56.125,70.875 C55.625,70.9166667 55.2916667,71.25 55.2083333,71.75 C55.125,72.1666667 55.0833333,72.5833333 55.0833333,72.9166667 Z" id="Shape"></path>
                    <path d="M38.2916667,85.0833333 C37.7916667,85.0833333 37.375,85.0416667 37,85.0833333 C36.75,85.125 36.4166667,85.3333333 36.2916667,85.5416667 C35.9166667,86.2083333 36.375,87.4166667 37.125,87.5833333 C37.375,87.625 37.7916667,87.4166667 38,87.1666667 C38.2916667,86.8333333 38.4583333,86.7916667 38.875,87.1666667 C38.5,87.5 38.125,87.7916667 37.7083333,88.125 C38,88.5833333 38.3333333,89.0833333 38.7083333,89.625 C37.6666667,89.875 37.75,88.7916667 37.2083333,88.5 C36.6666667,88.7916667 36.7083333,89.875 35.625,89.6666667 C36,89.125 36.375,88.5833333 36.7083333,88.125 C36.2916667,87.6666667 35.875,87.2083333 35.4166667,86.7083333 C35.2083333,86.75 34.8333333,86.7916667 34.5,86.7916667 C33.8333333,86.75 33.4166667,86.3333333 33.4166667,85.6666667 C33.375,85.125 33.375,84.625 33.4166667,84.0833333 C33.4583333,83.5833333 33.25,83.4583333 32.7916667,83.5 C32.625,83.5416667 32.4166667,83.5 32.1666667,83.5 C32.1666667,85.0833333 32.1666667,86.625 32.1666667,88.2083333 C31.9166667,88.2083333 31.75,88.25 31.4583333,88.25 C31.4583333,87.7083333 31.4583333,87.2083333 31.4583333,86.7083333 C31.4583333,85.8333333 31.4166667,84.9583333 31.4583333,84.0416667 C31.4583333,83.5833333 31.3333333,83.375 30.875,83.4583333 C30.7083333,83.5 30.5,83.4583333 30.2916667,83.4583333 C29.9583333,84.2916667 30.75,85.5833333 29.125,85.8333333 C29.5416667,86.5416667 29.9583333,87.25 30.375,87.9166667 C30.1666667,88.25 29.875,88.3333333 29.6666667,87.9583333 C29.0833333,86.9583333 28.5416667,85.9583333 28.0416667,84.9583333 C28,84.875 28.1666667,84.6666667 28.2083333,84.5 C28.3333333,84.5833333 28.5,84.625 28.625,84.7083333 C28.625,84.7083333 28.625,84.75 28.6666667,84.75 C28.875,84.9583333 29.0416667,85.1666667 29.25,85.3333333 C29.375,85.0416667 29.5833333,84.7916667 29.5833333,84.5 C29.625,83.4166667 29.625,83.4166667 28.5,83.4166667 C28.25,83.4166667 27.9583333,83.4166667 27.7083333,83.4166667 C27.625,83.4166667 27.5416667,83.3333333 27.4166667,83.2916667 C27.4166667,83.25 27.4583333,83.2083333 27.4583333,83.125 C30.9583333,83.125 34.4583333,83.125 37.875,83.125 C37.9166667,82.5833333 37.8333333,82.0833333 37.9583333,81.625 C38.1666667,80.8333333 39.0833333,80.5833333 39.625,81.2083333 C40,81.5833333 40.25,82.0833333 40.5,82.5833333 C40.6666667,82.9583333 40.875,83.0833333 41.2916667,83.0833333 C42.7083333,83.0416667 44.125,83.0833333 45.625,83.0833333 C45.5833333,83.2083333 45.5833333,83.375 45.5833333,83.375 C45.0416667,83.375 45.0833333,83.75 45.0833333,84.125 C45.0833333,85.4583333 45.0833333,86.7916667 45.0833333,88.1666667 C44.8333333,88.1666667 44.6666667,88.1666667 44.4166667,88.1666667 C44.4166667,87.7916667 44.4166667,87.4166667 44.4166667,87.0416667 C43.7083333,87.1666667 43,87.2916667 42.5,86.7083333 C42.2083333,86.375 42.0833333,85.875 41.875,85.4583333 C41.9583333,85.4583333 42.0416667,85.4583333 42.125,85.5 C42.375,85.2916667 42.8333333,85.125 42.8333333,84.9166667 C42.875,84.5 42.7083333,84.0416667 42.5833333,83.5833333 C42.5416667,83.5 42.3333333,83.4583333 42.2083333,83.4583333 C41.7916667,83.4583333 41.3333333,83.4583333 40.8333333,83.4583333 C40.8333333,85.0416667 40.8333333,86.5833333 40.8333333,88.1666667 C40.5833333,88.1666667 40.4166667,88.1666667 40.1666667,88.2083333 C40.1666667,86.625 40.1666667,85.0833333 40.1666667,83.5 C39.875,83.4583333 39.6666667,83.4166667 39.4583333,83.375 C39.4583333,83.3333333 39.4166667,83.2916667 39.4166667,83.25 C39.5833333,83.1666667 39.7916667,83.125 40.0833333,83 C39.7083333,82.4166667 39.375,81.875 39,81.2916667 C38.3333333,81.7916667 38.3333333,82.1666667 39.0416667,83.4166667 C38.7916667,83.4583333 38.5416667,83.4583333 38.25,83.5 C38.2916667,84.0416667 38.2916667,84.5416667 38.2916667,85.0833333 Z M37.5416667,83.5833333 C36.4166667,83.5833333 35.3333333,83.5833333 34.1666667,83.5833333 C34.6666667,84.25 35.0833333,84.7916667 35.5833333,85.4583333 C36,84.4166667 36.875,84.8333333 37.5833333,84.625 C37.5833333,84.375 37.5833333,84.125 37.5833333,83.9166667 C37.5833333,83.8333333 37.5416667,83.7083333 37.5416667,83.5833333 Z M43.3333333,83.5416667 C43.4166667,83.75 43.4583333,83.875 43.5,84.0416667 C43.75,84.875 43.6666667,85.2083333 42.9583333,85.75 C42.875,85.8333333 42.7916667,86.0833333 42.875,86.1666667 C43.0833333,86.4166667 43.4166667,86.875 43.5833333,86.8333333 C43.9166667,86.75 44.3333333,86.375 44.375,86.0833333 C44.5,85.25 44.4166667,84.375 44.4166667,83.5416667 C44,83.5416667 43.7083333,83.5416667 43.3333333,83.5416667 Z M34.2083333,84.5 C34.1666667,84.5 34.125,84.5416667 34.0833333,84.5416667 C34.0833333,84.9166667 34.0833333,85.2916667 34.0833333,85.6666667 C34.0833333,85.8333333 34.1666667,86.0416667 34.2916667,86.1666667 C34.5,86.4166667 34.75,86.4166667 35.0416667,86.2083333 C35.3333333,86 35.2083333,85.7916667 35.0416667,85.5833333 C34.75,85.25 34.5,84.875 34.2083333,84.5 Z" id="Shape"></path>
                    <path d="M61.2083333,83.4166667 C60.9583333,83.4583333 60.7083333,83.5416667 60.4166667,83.5833333 C60.4166667,84.125 60.4166667,84.6666667 60.4166667,85.3333333 C60.6666667,85.3333333 60.875,85.3333333 61.125,85.3333333 C61.4166667,85.375 61.8333333,85.1666667 61.9166667,85.6666667 C61.9166667,85.7083333 62.2083333,85.75 62.3333333,85.7083333 C63.0416667,85.5 63.2916667,84.25 62.7083333,83.7916667 C62.625,83.7083333 62.375,83.75 62.2083333,83.75 C62.2083333,84 62.1666667,84.2916667 62.2083333,84.5 C62.25,84.6666667 62.4583333,84.7916667 62.6666667,85 C62,85.1666667 61.625,85.0416667 61.4583333,84.5416667 C61.2916667,84.0833333 61.375,83.625 61.8333333,83.3333333 C62.25,83.0416667 62.9583333,83.1666667 63.2916667,83.5 C63.7083333,83.9583333 63.75,84.5416667 63.625,85.125 C63.5,85.625 63.0833333,85.9166667 62.5416667,86 C62.4166667,86 62.3333333,86.0416667 62.2083333,86.0833333 C62.6666667,87 63.375,87.0833333 64,86.3333333 C64.2083333,86.0833333 64.375,85.8333333 64.5833333,85.5833333 C64.6666667,85.5 64.7916667,85.4166667 64.875,85.4166667 C65.375,85.3333333 65.5833333,85.0833333 65.5416667,84.5416667 C65.5,83.9166667 65.2083333,83.5416667 64.75,83.5416667 C64.5416667,83.5416667 64.3333333,83.5416667 64.0416667,83.5416667 C64.25,83.1666667 66.9583333,83.0416667 68.2916667,83.375 C68.125,83.4583333 67.9583333,83.5416667 67.7083333,83.6666667 C67.7083333,85.1666667 67.7083333,86.6666667 67.7083333,88.25 C67.4583333,88.25 67.2916667,88.25 67.0416667,88.25 C67.0416667,87.875 67.0416667,87.5 67.0416667,87.0833333 C66.0833333,87.3333333 65.2916667,87.25 64.8333333,86.4583333 C64.375,86.75 63.9583333,87.125 63.5,87.2083333 C62.625,87.4166667 61.9583333,87 61.5416667,86.1666667 C61.2916667,85.7083333 60.625,85.5 60.1666667,85.75 C60,85.8333333 59.7916667,85.9166667 59.5416667,86.0416667 C59.9166667,86.6666667 60.2916667,87.2916667 60.6666667,87.9166667 C60.375,88.3333333 60.1666667,88.375 59.9166667,87.9583333 C59.375,86.9583333 58.8333333,85.9583333 58.3333333,84.9583333 C58.7083333,84.5416667 58.9166667,84.5 59.125,85 C59.2083333,85.1666667 59.3333333,85.3333333 59.4166667,85.5 C59.5,85.5 59.5416667,85.5 59.625,85.5 C59.6666667,85.1666667 59.7083333,84.8333333 59.7083333,84.5416667 C59.7083333,83.4583333 59.7083333,83.4583333 58.625,83.4583333 C58.2083333,83.4583333 57.7916667,83.4583333 57.3333333,83.4583333 C57.3333333,85.0833333 57.3333333,86.625 57.3333333,88.2083333 C57.0833333,88.2083333 56.9166667,88.2083333 56.6666667,88.2083333 C56.6666667,87.25 56.6666667,86.2916667 56.6666667,85.3333333 C56.6666667,84.875 56.6666667,84.4166667 56.6666667,84 C56.6666667,83.625 56.5833333,83.4166667 56.1666667,83.4583333 C55.9166667,83.5 55.6666667,83.4583333 55.375,83.4583333 C55.375,85.0416667 55.375,86.625 55.375,88.2083333 C55.125,88.2083333 54.9583333,88.2083333 54.7083333,88.2083333 C54.7083333,87.8333333 54.6666667,87.4583333 54.6666667,87.0833333 C54.3333333,87.0833333 54.0833333,87.125 53.7916667,87.125 C53.2083333,87.0833333 52.7916667,86.75 52.75,86.125 C52.7083333,85.7083333 52.5,85.5833333 52.125,85.625 C51.625,85.7083333 51.125,85.75 50.5,85.8333333 C50.9166667,86.5416667 51.25,87.0416667 51.5416667,87.625 C51.625,87.75 51.5416667,87.9583333 51.5416667,88.125 C51.375,88.0833333 51.0833333,88.125 51,88 C50.4583333,87.0416667 49.9583333,86.0416667 49.4583333,85.0416667 C49.4166667,84.9583333 49.5833333,84.75 49.6666667,84.625 C49.7916667,84.7083333 49.9583333,84.75 50.0416667,84.8333333 C50.2083333,85.0416667 50.2916667,85.25 50.5,85.4583333 C50.875,84.7916667 50.625,84.125 50.75,83.4166667 C50.0833333,83.4166667 49.5,83.4166667 48.9166667,83.4166667 C48.9166667,83.3333333 48.9166667,83.2916667 48.875,83.2083333 C49.0416667,83.1666667 49.1666667,83.0833333 49.3333333,83.0833333 C50.4166667,83.0833333 51.4583333,83.0833333 52.5416667,83.0833333 C55.2083333,83.0833333 57.875,83.0833333 60.5416667,83.0833333 C60.75,83.0833333 60.9583333,83.0833333 61.1666667,83.0833333 C61.1666667,83.25 61.2083333,83.3333333 61.2083333,83.4166667 Z M54.6666667,84.7083333 C54.6666667,84.2916667 54.6666667,83.9583333 54.6666667,83.5416667 C53.625,83.5416667 52.6666667,83.5416667 51.6666667,83.5416667 C51.5833333,83.5416667 51.4166667,83.7083333 51.4166667,83.7916667 C51.375,84.2916667 51.4166667,84.7916667 51.4166667,85.2916667 C52.125,85.2916667 52.7083333,85.5416667 53.125,84.7083333 C53.2916667,84.25 54.125,84.2916667 54.6666667,84.7083333 Z M65.375,85.875 C65.5,86.375 65.7083333,86.875 66.2083333,86.8333333 C66.5,86.7916667 66.9583333,86.3333333 67,86 C67.125,85.2083333 67.0416667,84.4166667 67.0416667,83.5833333 C66.6666667,83.5833333 66.3333333,83.5833333 66,83.5833333 C66.4166667,85.0833333 66.3333333,85.3333333 65.375,85.875 Z M54.6666667,85.0416667 C54.4166667,84.9583333 54.25,84.8333333 54.125,84.875 C53.9166667,84.9166667 53.5416667,85.0416667 53.5416667,85.1666667 C53.5,85.625 53.5,86.0833333 53.625,86.5 C53.7083333,86.8333333 54.0416667,86.8333333 54.3333333,86.625 C54.9166667,86.1666667 54.625,85.5833333 54.6666667,85.0416667 Z" id="Shape"></path>
                    <path d="M91.4166667,15.4166667 C89.7916667,17.2083333 88.125,18.9583333 86.4583333,20.75 C86.0833333,20.3333333 85.875,20.125 85.5833333,19.8333333 C87.625,17.8333333 89.75,15.75 91.8333333,13.7083333 C92.25,14.125 92.6666667,14.5416667 93.0833333,14.9166667 C91.875,17.25 90.6666667,19.5833333 89.4166667,22.0416667 C89.6666667,21.9166667 89.8333333,21.875 89.9583333,21.8333333 C92,20.875 94.0833333,19.9166667 96.125,18.9166667 C96.5833333,18.7083333 96.875,18.7083333 97.1666667,19.0833333 C97.3333333,19.2916667 97.625,19.4166667 97.875,19.625 C95.6666667,21.7916667 93.5416667,23.8333333 91.5,25.875 C91.25,25.625 91,25.375 90.7916667,25.2083333 C92.4166667,23.5 94.0416667,21.75 95.6666667,20.0833333 C95.5833333,20.125 95.4166667,20.1666667 95.2916667,20.25 C93.2916667,21.1666667 91.3333333,22.0833333 89.3333333,23.0416667 C88.9583333,23.2083333 88.75,23.25 88.4166667,22.9166667 C88.125,22.5833333 88.1666667,22.375 88.3333333,22.0416667 C89.3333333,20.0833333 90.3333333,18.0833333 91.3333333,16.125 C91.4166667,15.9583333 91.5,15.7916667 91.5833333,15.625 C91.5416667,15.5416667 91.4583333,15.4583333 91.4166667,15.4166667 Z" id="Shape"></path>
                    <path d="M79.9166667,85.3333333 C78.5,85.2916667 78.125,84.8333333 78.4166667,83.5 C78.125,83.5 77.8333333,83.5416667 77.5833333,83.5 C77.2083333,83.4583333 77.0833333,83.625 77.0833333,84 C77.125,85.25 77.0833333,86.5 77.0833333,87.7916667 C77.0833333,87.9166667 77.0833333,88.0416667 77.0833333,88.2083333 C76.875,88.2083333 76.6666667,88.2083333 76.4166667,88.2083333 C76.4166667,87.375 76.4166667,86.5833333 76.4166667,85.75 C76.0416667,85.75 75.7083333,85.75 75.2916667,85.75 C75.25,86 75.25,86.2916667 75.2083333,86.7083333 C74.9583333,86.625 74.6666667,86.625 74.5416667,86.4583333 C74.3333333,86.2083333 74.1666667,85.875 74.0833333,85.5416667 C74.0833333,85.5 74.375,85.3333333 74.5833333,85.2083333 C74.5833333,84.6666667 74.5833333,84.125 74.5833333,83.5416667 C74.0833333,83.5416667 73.5833333,83.5416667 73,83.5416667 C73,84.3333333 73,85.125 73,85.9166667 C73,86.6666667 73,87.4583333 73,88.25 C72.7916667,88.25 72.5833333,88.2916667 72.3333333,88.2916667 C72.3333333,87.4583333 72.3333333,86.7083333 72.3333333,85.9166667 C72.3333333,85.1666667 72.3333333,84.375 72.3333333,83.5833333 C72.0833333,83.5416667 71.875,83.5 71.6666667,83.4583333 C71.6666667,83.4166667 71.625,83.3333333 71.625,83.2916667 C71.8333333,83.25 72.0416667,83.1666667 72.2916667,83.0833333 C72.2916667,82.9166667 72.25,82.7083333 72.2083333,82.5416667 C72.0833333,81.3333333 73.0833333,80.5 74.1666667,81.0416667 C74.9166667,81.4166667 75.5833333,82.0833333 76.1666667,82.7083333 C76.5,83.0416667 76.75,83.2083333 77.2083333,83.1666667 C80.25,83.1666667 83.2916667,83.1666667 86.3333333,83.1666667 C86.5416667,83.1666667 86.75,83.1666667 86.9583333,83.1666667 C86.9583333,83.25 87,83.2916667 87,83.375 C86.7916667,83.4583333 86.625,83.5416667 86.3333333,83.625 C86.3333333,85.125 86.3333333,86.6666667 86.3333333,88.25 C86.0833333,88.25 85.9166667,88.25 85.625,88.25 C85.625,87.2916667 85.625,86.3333333 85.625,85.375 C85.2083333,85.375 84.875,85.375 84.4583333,85.375 C84.4166667,85.75 84.4166667,86.0833333 84.375,86.4166667 C83.8333333,86.5 83.0416667,85.6666667 83.2083333,85.2083333 C83.25,85.0833333 83.5,85 83.625,85 C84.25,84.9583333 84.875,85 85.5416667,85 C85.5416667,84.5 85.5416667,84.0833333 85.5416667,83.5416667 C84.4583333,83.5416667 83.4166667,83.5416667 82.3333333,83.5416667 C82.25,83.5416667 82.0833333,83.8333333 82.0833333,83.9583333 C82.0416667,85.1666667 82.0833333,86.375 82.0833333,87.5833333 C82.0833333,87.7916667 82.0833333,88 82.0833333,88.25 C81.875,88.25 81.6666667,88.25 81.4166667,88.25 C81.4166667,86.7083333 81.4166667,85.1666667 81.4166667,83.5833333 C80.9583333,83.5833333 80.5833333,83.5833333 80.2083333,83.5833333 C80.7083333,85.4166667 80.4583333,86.125 79.125,86.6666667 C79.5416667,87.0833333 79.9166667,87.5416667 80.3333333,87.9583333 C80.1666667,88.375 79.9166667,88.4583333 79.5833333,88.0833333 C79.125,87.5416667 78.625,87.0416667 78.125,86.5 C78.0416667,86.4166667 78,86.2083333 78.0416667,86.1666667 C78.125,86.0833333 78.2916667,86 78.4166667,86 C78.625,86 78.9166667,86.2083333 79.0416667,86.0833333 C79.4583333,85.9166667 79.6666667,85.625 79.9166667,85.3333333 Z M75.6666667,83.2083333 C75.7083333,83.125 75.75,83.0416667 75.7916667,83 C75.1666667,82.5 74.5416667,81.9583333 73.875,81.5 C73.4583333,81.2083333 73.1666667,81.5 72.9583333,81.875 C72.75,82.2916667 72.7916667,83.0833333 73.0416667,83.2083333 C73.0833333,83.25 73.1666667,83.25 73.25,83.25 C74.0416667,83.2083333 74.875,83.2083333 75.6666667,83.2083333 Z M76.375,85.3333333 C76.375,84.7083333 76.375,84.1666667 76.375,83.5416667 C76,83.5416667 75.6666667,83.5416667 75.2916667,83.5416667 C75.2916667,84.1666667 75.2916667,84.7083333 75.2916667,85.3333333 C75.6666667,85.3333333 76,85.3333333 76.375,85.3333333 Z M78.875,84.1666667 C79.0833333,84.4166667 79.2083333,84.625 79.375,84.7916667 C79.5416667,84.625 79.8333333,84.4166667 79.8333333,84.25 C79.7916667,84 79.5416667,83.7916667 79.375,83.5833333 C79.2083333,83.7916667 79.0416667,83.9583333 78.875,84.1666667 Z" id="Shape"></path>
                    <path d="M9.125,58.9166667 C9.54166667,59.6666667 9.375,60.1666667 8.79166667,60.7083333 C7.16666667,62.2916667 5.58333333,63.9166667 4,65.5416667 C3.875,65.6666667 3.75,65.7916667 3.5,66.0833333 C5.875,65.5833333 8.08333333,65.125 10.375,64.6666667 C10.4583333,65.0416667 10.5,65.375 10.5833333,65.75 C7.66666667,66.3333333 4.79166667,66.9166667 1.95833333,67.5 C1.58333333,66.75 1.70833333,66.2083333 2.33333333,65.6666667 C3.95833333,64.125 5.5,62.5 7.04166667,60.9166667 C7.16666667,60.7916667 7.33333333,60.625 7.375,60.375 C5.16666667,60.8333333 2.95833333,61.2916667 0.708333333,61.75 C0.625,61.4166667 0.541666667,61.0833333 0.458333333,60.7083333 C3.41666667,60.0833333 6.25,59.5 9.125,58.9166667 Z" id="Shape"></path>
                    <path d="M20.0833333,24.375 C19.75,25.4583333 19,25.3333333 18.2083333,25.2916667 C15.875,25.0833333 13.5416667,24.9583333 11.125,24.875 C12.9166667,26.2916667 14.7083333,27.6666667 16.5416667,29.0833333 C16.3333333,29.375 16.125,29.625 15.875,29.9583333 C13.5416667,28.125 11.2083333,26.3333333 8.91666667,24.5416667 C9.25,23.7916667 9.70833333,23.5416667 10.5,23.625 C12.9583333,23.875 15.4166667,24 17.9166667,24.0833333 C16.125,22.6666667 14.3333333,21.2916667 12.5,19.875 C12.7083333,19.5833333 12.9166667,19.3333333 13.1666667,19 C15.4583333,20.7916667 17.75,22.5833333 20.0833333,24.375 Z" id="Shape"></path>
                    <path d="M109.625,60.6666667 C109.708333,61.5416667 109.291667,61.9583333 108.541667,62.2083333 C106.416667,63 104.291667,63.9166667 102.166667,64.75 C102.041667,64.7916667 101.916667,64.875 101.666667,65 C104,65.5 106.208333,65.9583333 108.458333,66.4166667 C108.375,66.7916667 108.333333,67.125 108.25,67.5 C105.333333,66.875 102.5,66.2916667 99.625,65.7083333 C99.625,64.5833333 99.625,64.5833333 100.5,64.25 C102.708333,63.375 104.916667,62.4583333 107.125,61.5833333 C107.208333,61.5416667 107.333333,61.5 107.583333,61.375 C105.208333,60.875 103,60.4166667 100.75,59.9166667 C100.833333,59.5416667 100.875,59.25 100.958333,58.875 C103.916667,59.4583333 106.75,60.0416667 109.625,60.6666667 Z" id="Shape"></path>
                    <path d="M13.625,33.0833333 C13.5416667,36.4583333 10.75,38.375 7.83333333,37.3333333 C6.29166667,36.7916667 5,35.875 4.58333333,34.1666667 C3.75,31.0833333 6.54166667,28.25 9.66666667,28.9583333 C10.875,29.25 11.9583333,29.7916667 12.75,30.7916667 C13.375,31.5416667 13.6666667,32.375 13.625,33.0833333 Z M9.375,36.5 C10.875,36.5 11.9166667,35.7916667 12.375,34.625 C12.8333333,33.4583333 12.625,32.2083333 11.7083333,31.375 C10.8333333,30.5416667 9.79166667,30.0833333 8.58333333,30 C7.375,29.9166667 6.41666667,30.4583333 5.875,31.5416667 C5.29166667,32.625 5.25,33.75 6.04166667,34.7083333 C6.95833333,35.8333333 8.20833333,36.375 9.375,36.5 Z" id="Shape"></path>
                    <path d="M105.75,57.25 C103.375,57.25 101.75,56.125 101.208333,54.2083333 C100.458333,51.5 102.25,48.9583333 105.041667,48.7916667 C106.416667,48.7083333 107.75,48.875 108.833333,49.8333333 C110.125,50.9583333 110.541667,52.75 109.958333,54.4583333 C109.458333,56 108,57.0833333 106.25,57.2083333 C106.083333,57.25 105.875,57.25 105.75,57.25 Z M105.75,56.125 C106,56.0833333 106.375,56.0833333 106.75,56 C108.25,55.7083333 109.208333,54.6666667 109.291667,53.1666667 C109.375,51.7916667 108.541667,50.4583333 107.208333,50.1666667 C106.375,50 105.5,49.9166667 104.666667,50.0416667 C103.416667,50.1666667 102.5,50.9166667 102.166667,52.1666667 C101.833333,53.375 102.125,54.4583333 103.083333,55.2916667 C103.791667,55.9166667 104.708333,56.0833333 105.75,56.125 Z" id="Shape"></path>
                    <path d="M46.2083333,8.95833333 C48.0416667,8.70833333 49.7916667,8.45833333 51.625,8.16666667 C51.6666667,8.5 51.7083333,8.79166667 51.7916667,9.16666667 C49.5833333,9.5 47.4583333,9.79166667 45.25,10.125 C44.8333333,7.20833333 44.4166667,4.33333333 43.9583333,1.33333333 C46.0416667,1.04166667 48.125,0.708333333 50.25,0.416666667 C50.2916667,0.75 50.375,1.04166667 50.4166667,1.375 C48.6666667,1.625 46.9583333,1.875 45.2083333,2.16666667 C45.3333333,3.08333333 45.4583333,4 45.625,4.91666667 C47.25,4.66666667 48.8333333,4.45833333 50.4583333,4.20833333 C50.5,4.54166667 50.5833333,4.83333333 50.625,5.16666667 C48.9583333,5.41666667 47.375,5.66666667 45.75,5.875 C45.875,6.95833333 46.0416667,7.91666667 46.2083333,8.95833333 Z" id="Shape"></path>
                    <path d="M106.416667,41.9166667 C106.291667,41.5833333 106.166667,41.25 106.041667,40.9583333 C106.208333,40.875 106.333333,40.75 106.458333,40.6666667 C106.916667,40.3333333 107.25,39.8333333 107.166667,39.2916667 C107.041667,38.625 106.833333,37.9583333 106.541667,37.3333333 C106.291667,36.7916667 105.666667,36.5833333 105.125,36.75 C104.541667,36.9166667 104.333333,37.3333333 104.333333,37.9166667 C104.333333,38.625 104.375,39.2916667 104.416667,40 C104.416667,40.375 104.458333,40.7916667 104.416667,41.1666667 C104.333333,42.2083333 103.875,43 102.833333,43.3333333 C101.791667,43.6666667 100.875,43.375 100.166667,42.5833333 C99.2083333,41.5 98.875,40.1666667 99.0833333,38.75 C99.25,37.6666667 99.9583333,36.9583333 101,36.5416667 C101.125,36.875 101.25,37.1666667 101.375,37.4583333 C99.875,38.625 99.625,40.1666667 100.666667,41.625 C101.125,42.25 101.75,42.5416667 102.375,42.3333333 C102.958333,42.1666667 103.291667,41.6666667 103.25,40.875 C103.25,39.9583333 103.166667,39.0416667 103.166667,38.125 C103.166667,37.125 103.5,36.2083333 104.541667,35.8333333 C105.458333,35.5 106.291667,35.6666667 106.958333,36.375 C107.916667,37.375 108.291667,38.5833333 108.125,39.9583333 C108,40.875 107.416667,41.5 106.416667,41.9166667 Z" id="Shape"></path>
                    <path d="M102.916667,30.7916667 C102.625,30.5416667 102.416667,30.3333333 102.166667,30.1666667 C102.75,28.5416667 102.375,27.5 100.916667,26.7083333 C100.333333,26.4166667 99.75,26.4583333 99.3333333,26.8333333 C98.9166667,27.2083333 98.8333333,27.6666667 99.2083333,28.3333333 C99.5416667,28.9583333 99.9166667,29.5833333 100.291667,30.1666667 C100.458333,30.5 100.666667,30.8333333 100.791667,31.1666667 C101.166667,32.0833333 101.125,32.9166667 100.458333,33.7083333 C99.75,34.5 98.8333333,34.7083333 97.8333333,34.375 C96.3333333,33.875 95.375,32.8333333 94.9166667,31.3333333 C94.5833333,30.3333333 94.875,29.4166667 95.625,28.625 C95.9166667,28.8333333 96.125,29.0416667 96.4166667,29.25 C96.3333333,29.4166667 96.2083333,29.5416667 96.2083333,29.6666667 C96.125,30.1666667 95.9166667,30.7083333 96.0416667,31.1666667 C96.3333333,32.25 97.0833333,33 98.125,33.375 C98.6666667,33.5833333 99.1666667,33.4583333 99.5833333,33.0416667 C100,32.625 100.083333,32.125 99.8333333,31.625 C99.5,31 99.125,30.375 98.7916667,29.75 C98.5,29.2083333 98.1666667,28.6666667 98.0416667,28.0833333 C97.6666667,26.6666667 98.7916667,25.3333333 100.291667,25.4166667 C101.916667,25.5 103.75,27.4583333 103.708333,29.0416667 C103.583333,29.7083333 103.375,30.25 102.916667,30.7916667 Z" id="Shape"></path>
                    <path d="M75.9166667,13.9583333 C75.5416667,13.75 75.25,13.625 74.9166667,13.4166667 C76.3333333,10.7916667 77.7083333,8.20833333 79.125,5.58333333 C79.4583333,5.75 79.7916667,5.91666667 80.125,6.125 C79.5416667,7.20833333 79,8.25 78.4166667,9.375 C79.7916667,10.125 81.125,10.8333333 82.5,11.5833333 C83.0833333,10.5 83.625,9.45833333 84.25,8.375 C84.5833333,8.54166667 84.9166667,8.70833333 85.25,8.91666667 C83.8333333,11.5416667 82.4583333,14.125 81.0416667,16.75 C80.7083333,16.5833333 80.375,16.4166667 80.0416667,16.2083333 C80.7083333,14.9583333 81.3333333,13.7916667 82,12.5 C80.625,11.75 79.2916667,11.0416667 77.9166667,10.2916667 C77.2083333,11.5 76.5833333,12.7083333 75.9166667,13.9583333 Z" id="Shape"></path>
                    <path d="M34.125,4.125 C34.5,4 34.7916667,3.91666667 35.2083333,3.79166667 C35.5416667,4.95833333 35.875,6.08333333 36.25,7.33333333 C37.75,6.91666667 39.2083333,6.5 40.7083333,6.04166667 C40.375,4.83333333 40.0416667,3.70833333 39.7083333,2.5 C40.0833333,2.375 40.375,2.29166667 40.7916667,2.16666667 C41.625,5 42.4166667,7.83333333 43.25,10.7083333 C42.875,10.8333333 42.5416667,10.9166667 42.1666667,11.0416667 C41.7916667,9.70833333 41.375,8.375 41,7 C39.5,7.41666667 38.0416667,7.83333333 36.5416667,8.29166667 C36.9166667,9.625 37.2916667,10.9583333 37.6666667,12.2916667 C37.3333333,12.4166667 37,12.5 36.5833333,12.625 C35.75,9.83333333 34.9583333,7.04166667 34.125,4.125 Z" id="Shape"></path>
                    <path d="M8.91666667,49.5833333 C8.95833333,49.625 8.95833333,49.6666667 8.95833333,49.6666667 C9.04166667,50.75 9.04166667,50.75 8.04166667,51.1666667 C7.58333333,51.3333333 7.08333333,51.5 6.625,51.75 C6.45833333,51.8333333 6.29166667,52.0416667 6.29166667,52.2083333 C6.25,53.2083333 6.29166667,54.25 6.29166667,55.25 C6.29166667,55.4166667 6.5,55.6666667 6.66666667,55.75 C7.20833333,56 7.79166667,56.2083333 8.375,56.3333333 C8.91666667,56.4583333 9.08333333,56.7916667 9,57.2916667 C9,57.4166667 9,57.5416667 8.95833333,57.75 C8.75,57.6666667 8.54166667,57.625 8.375,57.5416667 C5.75,56.5416667 3.125,55.5416667 0.5,54.5416667 C0.166666667,54.4166667 0.0833333333,54.2083333 0.125,53.9166667 C0.166666667,53.5833333 -0.0416666667,53.1666667 0.458333333,52.9583333 C3.20833333,51.8333333 5.95833333,50.7083333 8.75,49.5833333 C8.79166667,49.5833333 8.875,49.5833333 8.91666667,49.5833333 Z M5.375,52.2083333 C3.91666667,52.75 2.58333333,53.25 1.16666667,53.7916667 C2.58333333,54.2916667 3.95833333,54.7916667 5.375,55.25 C5.375,54.25 5.375,53.2916667 5.375,52.2083333 Z" id="Shape"></path>
                    <path d="M60.75,9.375 C59.5,9.5 59.5,9.5 59.1666667,8.41666667 C59.0416667,8.04166667 58.875,7.66666667 58.7916667,7.29166667 C58.6666667,6.75 58.375,6.58333333 57.8333333,6.58333333 C56.9583333,6.58333333 56.0833333,6.58333333 55.2083333,6.5 C54.875,6.5 54.7083333,6.625 54.5833333,6.91666667 C54.375,7.45833333 54.125,7.95833333 53.9583333,8.5 C53.7916667,9 53.5416667,9.25 53,9.125 C52.875,9.08333333 52.7083333,9.08333333 52.5,9.08333333 C52.5833333,8.91666667 52.625,8.75 52.7083333,8.58333333 C53.7916667,5.95833333 54.9166667,3.375 56,0.75 C56.125,0.458333333 56.25,0.208333333 56.5833333,0.333333333 C56.9166667,0.416666667 57.3333333,0.125 57.5416667,0.666666667 C58.625,3.58333333 59.6666667,6.45833333 60.75,9.375 Z M55.125,5.625 C56.1666667,5.625 57.125,5.625 58.1666667,5.625 C57.7083333,4.25 57.25,2.875 56.7916667,1.41666667 C56.25,2.83333333 55.7083333,4.16666667 55.125,5.625 Z" id="Shape"></path>
                    <path d="M27,18.125 C26.0833333,19 26.0833333,19 25.0833333,18.4583333 C24.7916667,18.2916667 24.5,18.2083333 24.25,18 C23.75,17.625 23.3333333,17.625 22.875,18.125 C22.2916667,18.75 21.625,19.25 20.9583333,19.7916667 C20.7083333,20 20.6666667,20.2083333 20.7916667,20.5 C21.0416667,21.0416667 21.2083333,21.5833333 21.4583333,22.125 C21.6666667,22.5833333 21.6666667,22.9166667 21.2083333,23.2083333 C21.0833333,23.2916667 20.9583333,23.4166667 20.8333333,23.5416667 C20.75,23.375 20.6666667,23.25 20.625,23.0833333 C19.625,20.4166667 18.6666667,17.7083333 17.6666667,15.0416667 C17.5416667,14.75 17.5416667,14.5416667 17.8333333,14.375 C18.125,14.2083333 18.25,13.6666667 18.75,13.9166667 C21.4583333,15.3333333 24.2083333,16.7083333 27,18.125 Z M20.2916667,19.1666667 C21.0833333,18.5 21.8333333,17.8333333 22.625,17.1666667 C21.25,16.4166667 19.9583333,15.7083333 18.6666667,15 C19.2083333,16.4166667 19.75,17.75 20.2916667,19.1666667 Z" id="Shape"></path>
                    <path d="M70.9166667,11.875 C70.5416667,11.75 70.2083333,11.625 69.8333333,11.5 C70.6666667,9 71.5,6.54166667 72.3333333,4.04166667 C71.4166667,3.70833333 70.5,3.41666667 69.5833333,3.08333333 C69.6666667,2.79166667 69.7916667,2.5 69.875,2.125 C72.0833333,2.875 74.2916667,3.58333333 76.5416667,4.375 C76.4166667,4.70833333 76.3333333,5 76.2083333,5.33333333 C75.25,5.04166667 74.375,4.70833333 73.4166667,4.41666667 C72.5833333,6.95833333 71.75,9.41666667 70.9166667,11.875 Z" id="Shape"></path>
                    <path d="M1.66666667,45.9583333 C1.5,46.9583333 1.33333333,47.875 1.20833333,48.8333333 C0.875,48.7916667 0.583333333,48.75 0.208333333,48.7083333 C0.583333333,46.375 0.958333333,44.125 1.33333333,41.7916667 C1.66666667,41.8333333 1.95833333,41.875 2.33333333,41.9166667 C2.16666667,42.875 2.04166667,43.8333333 1.875,44.8333333 C4.45833333,45.25 7.04166667,45.6666667 9.66666667,46.0833333 C9.58333333,46.4583333 9.54166667,46.8333333 9.5,47.2083333 C6.83333333,46.7916667 4.29166667,46.375 1.66666667,45.9583333 Z" id="Shape"></path>
                    <path d="M27.8333333,17.7083333 C26.2916667,15.1666667 24.75,12.6666667 23.2083333,10.125 C23.5416667,9.91666667 23.8333333,9.75 24.1666667,9.54166667 C25.5416667,11.7916667 26.875,14 28.25,16.2916667 C29.5,15.5416667 30.75,14.7916667 32,14 C32.1666667,14.2916667 32.3333333,14.5416667 32.5,14.875 C31,15.75 29.4583333,16.7083333 27.8333333,17.7083333 Z" id="Shape"></path>
                    <path d="M63.375,0.958333333 C63.75,1.04166667 64.0833333,1.08333333 64.5,1.16666667 C64,3.75 63.5416667,6.29166667 63.0416667,8.91666667 C64.5,9.20833333 65.875,9.45833333 67.2916667,9.75 C67.25,10.0833333 67.2083333,10.375 67.125,10.75 C65.2916667,10.4166667 63.5416667,10.0833333 61.7083333,9.70833333 C62.2916667,6.75 62.8333333,3.875 63.375,0.958333333 Z" id="Shape"></path>
                    <path d="M99.9583333,22.625 C100.208333,22.9583333 100.375,23.25 100.583333,23.5833333 C98.125,25.25 95.7083333,26.9166667 93.2916667,28.625 C93.0833333,28.2916667 92.875,28 92.625,27.7083333 C95.0833333,26 97.5,24.3333333 99.9583333,22.625 Z" id="Shape"></path>
                    <path d="M109.375,44.5 C109.458333,44.875 109.5,45.2083333 109.583333,45.625 C106.666667,46.0833333 103.75,46.5416667 100.833333,47.0416667 C100.75,46.625 100.708333,46.3333333 100.666667,45.9166667 C103.541667,45.4583333 106.416667,45 109.375,44.5 Z" id="Shape"></path>
                    <path d="M2.125,39.0833333 C2.25,38.7083333 2.33333333,38.375 2.45833333,38 C5.29166667,38.875 8.08333333,39.75 10.9166667,40.6666667 C10.7916667,41.0416667 10.7083333,41.375 10.5833333,41.75 C7.75,40.875 4.95833333,40 2.125,39.0833333 Z" id="Shape"></path>
                </g>
            </g>
        </g>
    </g>
</svg>