<?xml version="1.0" encoding="UTF-8"?>
<svg width="38px" height="38px" viewBox="0 0 38 38" version="1.1" xmlns="http://www.w3.org/2000/svg" xmlns:xlink="http://www.w3.org/1999/xlink">
    <!-- Generator: Sketch 51.2 (57519) - http://www.bohemiancoding.com/sketch -->
    <title>GIS</title>
    <desc>Created with Sketch.</desc>
    <defs></defs>
    <g id="Page-1" stroke="none" stroke-width="1" fill="none" fill-rule="evenodd">
        <g id="Rev1.3-iPad-Login-New-S2" transform="translate(-586.000000, -317.000000)">
            <g id="GIS" transform="translate(586.000000, 317.000000)">
                <circle id="Oval-11-Copy-3" fill="#29B38F" cx="19" cy="19" r="19"></circle>
                <g id="Group" transform="translate(9.000000, 9.000000)" fill="#000000">
                    <path d="M16.5237891,16.5627344 C16.3080859,16.5627344 16.1331641,16.7376172 16.1331641,16.9533594 L16.1331641,17.50125 L15.3282812,19.4604687 C15.2462891,19.6600391 15.3416406,19.8882422 15.5411719,19.9702344 C15.5897266,19.9901953 15.64,19.9996094 15.6894531,19.9996094 C15.8431641,19.9996094 15.9889062,19.9083203 16.0509375,19.7573437 L16.8851172,17.7267969 C16.9044531,17.6796875 16.9144141,17.6292578 16.9144141,17.5783594 L16.9144141,16.9533594 C16.9144141,16.7376172 16.7394922,16.5627344 16.5237891,16.5627344" id="Fill-1"></path>
                    <path d="M16.5238281,15.0392969 C16.4210938,15.0392969 16.3203125,15.0810937 16.2476563,15.15375 C16.1750391,15.2264062 16.1332031,15.3271875 16.1332031,15.4299219 C16.1332031,15.5326562 16.175,15.6334375 16.2476563,15.7060937 C16.3203125,15.77875 16.4210938,15.8205469 16.5238281,15.8205469 C16.6265625,15.8205469 16.7273438,15.77875 16.8,15.7060937 C16.8726172,15.6334375 16.9144531,15.5326562 16.9144531,15.4299219 C16.9144531,15.3271875 16.8726563,15.2264062 16.8,15.15375 C16.7273438,15.0810937 16.6265625,15.0392969 16.5238281,15.0392969" id="Fill-2"></path>
                    <path d="M11.7465625,7.39265625 C12.1613281,6.27804687 11.8860938,5.01460937 11.0454297,4.17386719 C9.85742188,2.98585937 7.92441406,2.98589844 6.73644531,4.17386719 C5.86277344,5.04757812 5.60285156,6.35007812 6.074375,7.4921875 C6.1365625,7.64285156 6.28210938,7.73386719 6.43558594,7.73386719 C6.48523438,7.73386719 6.53574219,7.72433594 6.58449219,7.70421875 C6.78390625,7.62191406 6.87882813,7.39351562 6.79652344,7.19410156 C6.44585938,6.34472656 6.63917969,5.37605469 7.28890625,4.72632812 C8.17226563,3.84296875 9.60960938,3.84292969 10.4929688,4.72632812 C11.1182031,5.3515625 11.3228125,6.29125 11.014375,7.12023437 C10.9391406,7.32242187 11.0420703,7.54734375 11.2442578,7.62253906 C11.4463281,7.69773437 11.6713281,7.59488281 11.7465625,7.39265625" id="Fill-3"></path>
                    <g id="Group-7">
                        <path d="M19.21875,12.5002344 L16.7785547,12.5002344 C16.5442187,11.9934766 16.0313281,11.6408594 15.4373438,11.6408594 C15.1198047,11.6408594 14.8255469,11.7419141 14.5844531,11.913125 C14.3413281,11.4300391 13.8410937,11.0976562 13.2644141,11.0976562 C12.9175,11.0976562 12.5983594,11.2181641 12.3460156,11.4191406 C12.0850781,11.0001172 11.6203906,10.7204687 11.0914453,10.7204687 C10.8385937,10.7204687 10.6004688,10.7844141 10.3921875,10.8968359 L10.3921875,6.97289062 C10.3921875,6.15441406 9.72628906,5.48851562 8.9078125,5.48851562 C8.08933594,5.48851562 7.4234375,6.15441406 7.4234375,6.97289062 L7.4234375,12.5002344 L0.78125,12.5002344 L0.78125,6.64085937 L1.953125,6.64085937 C2.16882813,6.64085937 2.34375,6.46597656 2.34375,6.25023437 L2.34375,4.68773437 C2.34375,4.47199219 2.16882813,4.29710937 1.953125,4.29710937 L0.78125,4.29710937 L0.78125,0.781484375 L19.21875,0.781484375 L19.21875,12.5002344 Z M6.35789063,16.4064844 L6.62949219,16.1349219 C6.78203125,15.9823828 6.78203125,15.7350391 6.62949219,15.5825 C6.47695313,15.4299609 6.2296875,15.4299609 6.07703125,15.5825 L5.80542969,15.8540625 L4.5665625,14.6151953 C4.41902344,14.4676562 4.33773438,14.2714453 4.33773438,14.0627734 C4.33773438,13.8541016 4.41902344,13.6578906 4.5665625,13.5103516 C4.87117187,13.2057422 5.36675781,13.2057422 5.67136719,13.5103516 L7.42339844,15.2623437 L7.42339844,17.4720312 L6.35789063,16.4064844 Z M7.42339844,14.1574219 L6.54746094,13.2814844 L7.42339844,13.2814844 L7.42339844,14.1574219 Z M0.78125,5.85960937 L1.5625,5.85960937 L1.5625,5.07835937 L0.78125,5.07835937 L0.78125,5.85960937 Z M19.609375,0.000234375 L0.390625,0.000234375 C0.174921875,0.000234375 0,0.175117187 0,0.390859375 L0,12.8908594 C0,13.1066016 0.174921875,13.2814844 0.390625,13.2814844 L3.76550781,13.2814844 C3.629375,13.5164453 3.55648438,13.7839062 3.55648438,14.0627344 C3.55648438,14.4801172 3.71902344,14.8724609 4.01414062,15.1676172 L8.73210938,19.8855859 C8.80839844,19.961875 8.90835937,20 9.00832031,20 C9.10828125,20 9.20824219,19.9618359 9.28453125,19.8855859 C9.43707031,19.7330469 9.43707031,19.4857031 9.28453125,19.3331641 L8.20046875,18.2491016 C8.20292969,18.2314062 8.20464844,18.2134766 8.20464844,18.1950781 L8.20464844,13.7697656 L8.63433594,13.7697656 C8.85003906,13.7697656 9.02496094,13.5948828 9.02496094,13.3791406 C9.02496094,13.1633984 8.85003906,12.9885156 8.63433594,12.9885156 L8.20464844,12.9885156 L8.20464844,11.5016797 L8.63433594,11.5016797 C8.85003906,11.5016797 9.02496094,11.3267969 9.02496094,11.1110547 C9.02496094,10.8953125 8.85003906,10.7204297 8.63433594,10.7204297 L8.20464844,10.7204297 L8.20464844,8.76972656 L8.63433594,8.76972656 C8.85003906,8.76972656 9.02496094,8.59484375 9.02496094,8.37910156 C9.02496094,8.16335937 8.85003906,7.98847656 8.63433594,7.98847656 L8.20464844,7.98847656 L8.20464844,6.97285156 C8.20464844,6.58515625 8.52007812,6.26972656 8.90777344,6.26972656 C9.29546875,6.26972656 9.61089844,6.58515625 9.61089844,6.97285156 L9.61089844,13.3400391 C9.61089844,13.3584766 9.61261719,13.3765234 9.61507813,13.3942969 C9.623125,13.6029297 9.79433594,13.7697266 10.0049219,13.7697266 C10.220625,13.7697266 10.3955469,13.5948437 10.3955469,13.3791016 L10.3955469,12.1975 C10.3955469,11.8138281 10.7076953,11.5016797 11.0913672,11.5016797 C11.4750391,11.5016797 11.7871875,11.8138281 11.7871875,12.1975 L11.7871875,13.3791016 C11.7871875,13.5948437 11.9621094,13.7697266 12.1778125,13.7697266 C12.3935156,13.7697266 12.5684375,13.5948437 12.5684375,13.3791016 L12.5684375,12.5747266 C12.5684375,12.1910547 12.8805859,11.8789062 13.2642969,11.8789062 C13.6479688,11.8789062 13.9601172,12.1910547 13.9601172,12.5747266 L13.9601172,13.3791406 C13.9601172,13.5948828 14.1350391,13.7697656 14.3507422,13.7697656 C14.5664453,13.7697656 14.7413672,13.5948828 14.7413672,13.3791406 L14.7413672,13.1179297 C14.7413672,12.7342578 15.0535156,12.4221094 15.4371875,12.4221094 C15.8208594,12.4221094 16.1330078,12.7342578 16.1330078,13.1179297 L16.1330078,14.0627344 C16.1330078,14.2784766 16.3079297,14.4533594 16.5236328,14.4533594 C16.7393359,14.4533594 16.9142578,14.2784766 16.9142578,14.0627344 L16.9142578,13.2814844 L19.609375,13.2814844 C19.8250781,13.2814844 20,13.1066016 20,12.8908594 L20,0.390859375 C20,0.175117187 19.8250781,0.000234375 19.609375,0.000234375 Z" id="Fill-6"></path>
                    </g>
                    <path d="M16.09375,4.29710937 L17.5,4.29710937 L17.5,2.89085937 L16.09375,2.89085937 L16.09375,4.29710937 Z M15.703125,5.07835937 L17.890625,5.07835937 C18.1063281,5.07835937 18.28125,4.90347656 18.28125,4.68773437 L18.28125,2.50023437 C18.28125,2.28449219 18.1063281,2.10960937 17.890625,2.10960937 L15.703125,2.10960937 C15.4874219,2.10960937 15.3125,2.28449219 15.3125,2.50023437 L15.3125,4.68773437 C15.3125,4.90347656 15.4874219,5.07835937 15.703125,5.07835937 Z" id="Fill-8"></path>
                    <path d="M16.71875,10.3908594 L17.5,10.3908594 L17.5,9.60960937 L16.71875,9.60960937 L16.71875,10.3908594 Z M17.890625,8.82835937 L16.328125,8.82835937 C16.1124219,8.82835937 15.9375,9.00324219 15.9375,9.21898437 L15.9375,10.7814844 C15.9375,10.9972266 16.1124219,11.1721094 16.328125,11.1721094 L17.890625,11.1721094 C18.1063281,11.1721094 18.28125,10.9972266 18.28125,10.7814844 L18.28125,9.21898437 C18.28125,9.00324219 18.1063281,8.82835937 17.890625,8.82835937 Z" id="Fill-9"></path>
                    <path d="M15.2095312,7.50023437 L15.9907812,7.50023437 L15.9907812,6.71898437 L15.2095312,6.71898437 L15.2095312,7.50023437 Z M14.8189062,8.28148437 L16.3814062,8.28148437 C16.5971094,8.28148437 16.7720312,8.10660156 16.7720312,7.89085937 L16.7720312,6.32835937 C16.7720312,6.11261719 16.5971094,5.93773437 16.3814062,5.93773437 L14.8189062,5.93773437 C14.6032031,5.93773437 14.4282812,6.11261719 14.4282812,6.32835937 L14.4282812,7.89085937 C14.4282812,8.10660156 14.6032031,8.28148437 14.8189062,8.28148437 Z" id="Fill-10"></path>
                    <path d="M2.109375,2.89085937 L2.890625,2.89085937 L2.890625,2.10960937 L2.109375,2.10960937 L2.109375,2.89085937 Z M1.71875,3.67210937 L3.28125,3.67210937 C3.49695313,3.67210937 3.671875,3.49722656 3.671875,3.28148437 L3.671875,1.71898437 C3.671875,1.50324219 3.49695313,1.32835937 3.28125,1.32835937 L1.71875,1.32835937 C1.50304688,1.32835937 1.328125,1.50324219 1.328125,1.71898437 L1.328125,3.28148437 C1.328125,3.49722656 1.50304688,3.67210937 1.71875,3.67210937 Z" id="Fill-11"></path>
                    <path d="M2.49730469,10.3941016 L3.90355469,10.3941016 L3.90355469,8.98785156 L2.49730469,8.98785156 L2.49730469,10.3941016 Z M4.29417969,8.20660156 L2.10667969,8.20660156 C1.89097656,8.20660156 1.71605469,8.38148437 1.71605469,8.59722656 L1.71605469,10.7847266 C1.71605469,11.0004687 1.89097656,11.1753516 2.10667969,11.1753516 L4.29417969,11.1753516 C4.50988281,11.1753516 4.68480469,11.0004687 4.68480469,10.7847266 L4.68480469,8.59722656 C4.68480469,8.5884375 4.6840625,8.57980469 4.68347656,8.57113281 C4.90253906,8.98082031 5.18335938,9.36035156 5.52113281,9.698125 C5.59742188,9.77441406 5.69738281,9.81253906 5.79734375,9.81253906 C5.89730469,9.81253906 5.99726563,9.774375 6.07355469,9.698125 C6.22609375,9.54558594 6.22609375,9.29824219 6.07355469,9.14570312 C5.32097656,8.39316406 4.90652344,7.39261719 4.90652344,6.32832031 C4.90652344,5.26402344 5.32097656,4.26351562 6.07355469,3.5109375 C6.82609375,2.75835937 7.82664063,2.34394531 8.8909375,2.34394531 C9.95519531,2.34394531 10.9557422,2.75839844 11.7082813,3.5109375 C12.9301563,4.7328125 13.2269141,6.58855469 12.4466016,8.12871094 C12.3491406,8.32113281 12.4260938,8.55621094 12.6185156,8.65367187 C12.8109766,8.75113281 13.0459766,8.67421875 13.1435156,8.48175781 C14.0768359,6.63945312 13.7220703,4.41984375 12.2606641,2.95847656 C11.3605469,2.05835937 10.1637891,1.56265625 8.89085938,1.56265625 C7.61789063,1.56265625 6.42113281,2.05835937 5.52101563,2.95847656 C4.62089844,3.85859375 4.12519531,5.05535156 4.12519531,6.32828125 C4.12519531,7.02132812 4.27246094,7.69167969 4.55164063,8.30398437 C4.48292969,8.24359375 4.39296875,8.20660156 4.29417969,8.20660156 Z" id="Fill-12"></path>
                </g>
            </g>
        </g>
    </g>
</svg>