<?xml version="1.0" encoding="UTF-8"?>
<svg width="38px" height="38px" viewBox="0 0 38 38" version="1.1" xmlns="http://www.w3.org/2000/svg" xmlns:xlink="http://www.w3.org/1999/xlink">
    <!-- Generator: Sketch 51.2 (57519) - http://www.bohemiancoding.com/sketch -->
    <title>MULTI DATA resource</title>
    <desc>Created with Sketch.</desc>
    <defs></defs>
    <g id="Page-1" stroke="none" stroke-width="1" fill="none" fill-rule="evenodd">
        <g id="Rev1.3-iPad-Login-New-S2" transform="translate(-744.000000, -318.000000)">
            <g id="MULTI-DATA-resource" transform="translate(744.000000, 318.000000)">
                <circle id="Oval-11-Copy-4" fill="#8DC700" cx="19" cy="19" r="19"></circle>
                <g id="Group" transform="translate(9.000000, 7.000000)">
                    <polygon id="Fill-1" fill="#A42500" points="11.6129032 18.7096774 12.2580645 18.7096774 12.2580645 18.0645161 11.6129032 18.0645161"></polygon>
                    <polygon id="Fill-2" fill="#A42500" points="10.3225806 18.7096774 10.9677419 18.7096774 10.9677419 18.0645161 10.3225806 18.0645161"></polygon>
                    <polygon id="Fill-3" fill="#A42500" points="9.03225806 18.7096774 9.67741935 18.7096774 9.67741935 18.0645161 9.03225806 18.0645161"></polygon>
                    <polygon id="Fill-4" fill="#A42500" points="11.6129032 14.8387097 12.2580645 14.8387097 12.2580645 14.1935484 11.6129032 14.1935484"></polygon>
                    <polygon id="Fill-5" fill="#A42500" points="10.3225806 14.8387097 10.9677419 14.8387097 10.9677419 14.1935484 10.3225806 14.1935484"></polygon>
                    <polygon id="Fill-6" fill="#A42500" points="9.03225806 14.8387097 9.67741935 14.8387097 9.67741935 14.1935484 9.03225806 14.1935484"></polygon>
                    <polygon id="Fill-7" fill="#A42500" points="5.16129032 10.9677419 5.80645161 10.9677419 5.80645161 10.3225806 5.16129032 10.3225806"></polygon>
                    <polygon id="Fill-8" fill="#A42500" points="3.87096774 10.9677419 4.51612903 10.9677419 4.51612903 10.3225806 3.87096774 10.3225806"></polygon>
                    <polygon id="Fill-9" fill="#000000" points="2.58064516 10.9677419 3.22580645 10.9677419 3.22580645 10.3225806 2.58064516 10.3225806"></polygon>
                    <path d="M19.6774194,9.03225806 L13.2258065,9.03225806 C13.0478226,9.03225806 12.9032258,9.17685484 12.9032258,9.35483871 L12.9032258,11.9354839 C12.9032258,12.1134677 13.0478226,12.2580645 13.2258065,12.2580645 L18.7096774,12.2580645 L18.7096774,16.1290323 L18.0186694,16.1290323 C17.9013306,15.6777823 17.5480242,15.3244758 17.0967742,15.2071371 L17.0967742,14.1935484 C17.0967742,14.0155645 16.9521774,13.8709677 16.7741935,13.8709677 L13.5483871,13.8709677 L13.5483871,13.2258065 C13.5483871,13.0478226 13.4037903,12.9032258 13.2258065,12.9032258 L10.3225806,12.9032258 L10.3225806,11.8896371 C10.8775,11.7455242 11.2903226,11.2444758 11.2903226,10.6451613 C11.2903226,10.0458468 10.8775,9.54479839 10.3225806,9.40068548 L10.3225806,7.09677419 L14.8387097,7.09677419 C15.9061694,7.09677419 16.7741935,6.22875 16.7741935,5.16129032 C16.7741935,4.09383065 15.9061694,3.22580645 14.8387097,3.22580645 C14.7222984,3.22580645 14.6071774,3.23653226 14.4939113,3.25810484 C14.5087097,3.13995968 14.516129,3.02169355 14.516129,2.90322581 C14.516129,1.30262097 13.2135081,0 11.6129032,0 C10.4819758,0 9.4616129,0.665483871 8.98879032,1.66580645 C8.62225806,1.42120968 8.19258065,1.29032258 7.74193548,1.29032258 C6.59572581,1.29032258 5.64608871,2.14907258 5.50262097,3.25685484 C5.39,3.23620968 5.27612903,3.22580645 5.16129032,3.22580645 C4.09383065,3.22580645 3.22580645,4.09383065 3.22580645,5.16129032 C3.22580645,6.22875 4.09383065,7.09677419 5.16129032,7.09677419 L9.67741935,7.09677419 L9.67741935,9.40068548 C9.1225,9.54479839 8.70967742,10.0458468 8.70967742,10.6451613 C8.70967742,11.2444758 9.1225,11.7455242 9.67741935,11.8896371 L9.67741935,12.9032258 L6.77419355,12.9032258 C6.59620968,12.9032258 6.4516129,13.0478226 6.4516129,13.2258065 L6.4516129,13.8709677 L3.22580645,13.8709677 C3.04782258,13.8709677 2.90322581,14.0155645 2.90322581,14.1935484 L2.90322581,15.2071371 C2.45197581,15.3244758 2.09866935,15.6777823 1.98133065,16.1290323 L1.29032258,16.1290323 L1.29032258,12.2580645 L6.77419355,12.2580645 C6.95217742,12.2580645 7.09677419,12.1134677 7.09677419,11.9354839 L7.09677419,9.35483871 C7.09677419,9.17685484 6.95217742,9.03225806 6.77419355,9.03225806 L0.322580645,9.03225806 C0.144596774,9.03225806 0,9.17685484 0,9.35483871 L0,11.9354839 C0,12.1134677 0.144596774,12.2580645 0.322580645,12.2580645 L0.64516129,12.2580645 L0.64516129,16.4516129 C0.64516129,16.6295968 0.789758065,16.7741935 0.967741935,16.7741935 L1.98133065,16.7741935 C2.09866935,17.2254435 2.45197581,17.57875 2.90322581,17.6960887 L2.90322581,18.7096774 C2.90322581,18.8876613 3.04782258,19.0322581 3.22580645,19.0322581 L6.4516129,19.0322581 L6.4516129,19.6774194 C6.4516129,19.8554032 6.59620968,20 6.77419355,20 L13.2258065,20 C13.4037903,20 13.5483871,19.8554032 13.5483871,19.6774194 L13.5483871,19.0322581 L16.7741935,19.0322581 C16.9521774,19.0322581 17.0967742,18.8876613 17.0967742,18.7096774 L17.0967742,17.6960887 C17.5480242,17.57875 17.9013306,17.2254435 18.0186694,16.7741935 L19.0322581,16.7741935 C19.2102419,16.7741935 19.3548387,16.6295968 19.3548387,16.4516129 L19.3548387,12.2580645 L19.6774194,12.2580645 C19.8554032,12.2580645 20,12.1134677 20,11.9354839 L20,9.35483871 C20,9.17685484 19.8554032,9.03225806 19.6774194,9.03225806 Z M5.16129032,6.4516129 C4.44967742,6.4516129 3.87096774,5.87290323 3.87096774,5.16129032 C3.87096774,4.44967742 4.44967742,3.87096774 5.16129032,3.87096774 C5.33927419,3.87096774 5.51491935,3.90879032 5.68266129,3.98326613 C5.78645161,4.02943548 5.90552419,4.01004032 5.99846774,3.94451613 C6.09120968,3.87931452 6.14225806,3.76258065 6.13423387,3.64935484 C6.13153226,3.61580645 6.12903226,3.58258065 6.12903226,3.5483871 C6.12903226,2.65907258 6.85262097,1.93548387 7.74193548,1.93548387 C8.18125,1.93548387 8.59233871,2.11 8.89931452,2.42677419 C8.97995968,2.50959677 9.09870968,2.54346774 9.20991935,2.51512097 C9.32193548,2.48677419 9.40995968,2.40092742 9.44133065,2.29004032 C9.71459677,1.32165323 10.6073387,0.64516129 11.6129032,0.64516129 C12.8580242,0.64516129 13.8709677,1.65810484 13.8709677,2.90322581 C13.8709677,3.1571371 13.8264113,3.41104839 13.7383468,3.65834677 C13.6933065,3.78544355 13.7318952,3.92733871 13.8355242,4.01383065 C13.9390323,4.10060484 14.0854839,4.11383065 14.2025403,4.04645161 C14.4061694,3.93004032 14.6199194,3.87096774 14.8387097,3.87096774 C15.5503226,3.87096774 16.1290323,4.44967742 16.1290323,5.16129032 C16.1290323,5.87290323 15.5503226,6.4516129 14.8387097,6.4516129 L10.3225806,6.4516129 L10.3225806,5.76060484 C10.7738306,5.64326613 11.1271371,5.28995968 11.2444758,4.83870968 L12.5806452,4.83870968 L12.5806452,4.19354839 L11.2444758,4.19354839 C11.1003629,3.63862903 10.5993145,3.22580645 10,3.22580645 C9.40068548,3.22580645 8.8996371,3.63862903 8.75552419,4.19354839 L7.41935484,4.19354839 L7.41935484,4.83870968 L8.75552419,4.83870968 C8.8728629,5.28995968 9.22616935,5.64326613 9.67741935,5.76060484 L9.67741935,6.4516129 L5.16129032,6.4516129 Z M10,5.16129032 C9.64419355,5.16129032 9.35483871,4.87193548 9.35483871,4.51612903 C9.35483871,4.16032258 9.64419355,3.87096774 10,3.87096774 C10.3558065,3.87096774 10.6451613,4.16032258 10.6451613,4.51612903 C10.6451613,4.87193548 10.3558065,5.16129032 10,5.16129032 Z M9.35483871,10.6451613 C9.35483871,10.2893548 9.64419355,10 10,10 C10.3558065,10 10.6451613,10.2893548 10.6451613,10.6451613 C10.6451613,11.0009677 10.3558065,11.2903226 10,11.2903226 C9.64419355,11.2903226 9.35483871,11.0009677 9.35483871,10.6451613 Z M1.93548387,11.6129032 L6.4516129,11.6129032 L6.4516129,9.67741935 L1.93548387,9.67741935 L1.93548387,11.6129032 Z M0.64516129,11.6129032 L1.29032258,11.6129032 L1.29032258,9.67741935 L0.64516129,9.67741935 L0.64516129,11.6129032 Z M7.74193548,16.7741935 L12.2580645,16.7741935 L12.2580645,16.1290323 L7.74193548,16.1290323 L7.74193548,16.7741935 Z M8.38709677,15.483871 L12.9032258,15.483871 L12.9032258,13.5483871 L8.38709677,13.5483871 L8.38709677,15.483871 Z M7.09677419,15.483871 L7.74193548,15.483871 L7.74193548,13.5483871 L7.09677419,13.5483871 L7.09677419,15.483871 Z M2.58064516,16.4516129 C2.58064516,16.0958065 2.87,15.8064516 3.22580645,15.8064516 C3.5816129,15.8064516 3.87096774,16.0958065 3.87096774,16.4516129 C3.87096774,16.8074194 3.5816129,17.0967742 3.22580645,17.0967742 C2.87,17.0967742 2.58064516,16.8074194 2.58064516,16.4516129 Z M6.4516129,17.0967742 L6.4516129,18.3870968 L3.5483871,18.3870968 L3.5483871,17.6960887 C4.10330645,17.5519758 4.51612903,17.0509274 4.51612903,16.4516129 C4.51612903,15.8522984 4.10330645,15.35125 3.5483871,15.2071371 L3.5483871,14.516129 L6.4516129,14.516129 L6.4516129,15.8064516 C6.4516129,15.9844355 6.59620968,16.1290323 6.77419355,16.1290323 L7.09677419,16.1290323 L7.09677419,16.7741935 L6.77419355,16.7741935 C6.59620968,16.7741935 6.4516129,16.9187903 6.4516129,17.0967742 Z M7.09677419,19.3548387 L7.74193548,19.3548387 L7.74193548,17.4193548 L7.09677419,17.4193548 L7.09677419,19.3548387 Z M8.38709677,19.3548387 L12.9032258,19.3548387 L12.9032258,17.4193548 L8.38709677,17.4193548 L8.38709677,19.3548387 Z M13.5483871,18.3870968 L13.5483871,17.0967742 C13.5483871,16.9187903 13.4037903,16.7741935 13.2258065,16.7741935 L12.9032258,16.7741935 L12.9032258,16.1290323 L13.2258065,16.1290323 C13.4037903,16.1290323 13.5483871,15.9844355 13.5483871,15.8064516 L13.5483871,14.516129 L16.4516129,14.516129 L16.4516129,15.2071371 C15.8966935,15.35125 15.483871,15.8522984 15.483871,16.4516129 C15.483871,17.0509274 15.8966935,17.5519758 16.4516129,17.6960887 L16.4516129,18.3870968 L13.5483871,18.3870968 Z M16.7741935,17.0967742 C16.4183871,17.0967742 16.1290323,16.8074194 16.1290323,16.4516129 C16.1290323,16.0958065 16.4183871,15.8064516 16.7741935,15.8064516 C17.13,15.8064516 17.4193548,16.0958065 17.4193548,16.4516129 C17.4193548,16.8074194 17.13,17.0967742 16.7741935,17.0967742 Z M13.5483871,11.6129032 L14.1935484,11.6129032 L14.1935484,9.67741935 L13.5483871,9.67741935 L13.5483871,11.6129032 Z M14.8387097,11.6129032 L19.3548387,11.6129032 L19.3548387,9.67741935 L14.8387097,9.67741935 L14.8387097,11.6129032 Z" id="Fill-11" fill="#000000"></path>
                    <polygon id="Fill-13" fill="#000000" points="18.0645161 10.9677419 18.7096774 10.9677419 18.7096774 10.3225806 18.0645161 10.3225806"></polygon>
                    <polygon id="Fill-14" fill="#000000" points="16.7741935 10.9677419 17.4193548 10.9677419 17.4193548 10.3225806 16.7741935 10.3225806"></polygon>
                    <polygon id="Fill-15" fill="#000000" points="15.483871 10.9677419 16.1290323 10.9677419 16.1290323 10.3225806 15.483871 10.3225806"></polygon>
                </g>
            </g>
        </g>
    </g>
</svg>