<?xml version="1.0" encoding="UTF-8"?>
<svg width="52px" height="52px" viewBox="0 0 52 52" version="1.1" xmlns="http://www.w3.org/2000/svg" xmlns:xlink="http://www.w3.org/1999/xlink">
    <!-- Generator: sketchtool 63.1 (101010) - https://sketch.com -->
    <title>2667BA5E-3B50-49A8-B829-C5FC348418C1@1x</title>
    <desc>Created with sketchtool.</desc>
    <g id="Page-1" stroke="none" stroke-width="1" fill="none" fill-rule="evenodd">
        <g id="A_Homepage" transform="translate(-85.000000, -8.000000)" fill="#FFFFFF" fill-rule="nonzero">
            <g id="Group-19">
                <g id="Group-16">
                    <g id="Main-Header">
                        <g id="Seal-of-Uttar-Pradesh" transform="translate(111.000000, 34.000000) scale(-1, 1) rotate(-180.000000) translate(-111.000000, -34.000000) translate(85.000000, 8.000000)">
                            <path d="M23.7075269,51.8695341 C11.2387097,50.9003584 0.950537634,40.5562724 0.0745519713,28.0874552 C-0.838709677,15.2272401 7.21290323,3.93261649 19.5698925,0.801433692 C33.4365591,-2.72114695 47.6014337,5.70322581 51.1240143,19.6071685 C54.2551971,31.9641577 47.9369176,44.7870968 36.1763441,49.8752688 C34.0329749,50.7885305 30.7713262,51.6458781 28.7956989,51.7949821 C27.9942652,51.8508961 26.9691756,51.925448 26.5032258,51.962724 C26.037276,52 24.7885305,51.944086 23.7075269,51.8695341 Z M29.6157706,51.2172043 C34.8903226,50.4530466 39.6616487,48.1232975 43.4824373,44.4702509 C45.7562724,42.3082437 47.3405018,40.1462366 48.7756272,37.2573477 C50.1175627,34.5548387 50.7698925,32.5232975 51.1799283,29.6530466 C51.962724,24.4716846 51.1612903,19.5139785 48.7756272,14.7053763 C47.3405018,11.8164875 45.7562724,9.65448029 43.4824373,7.49247312 C35.8781362,0.242293907 24.5648746,-1.58422939 15.1526882,2.88888889 C7.66021505,6.44874552 2.46021505,13.121147 0.838709677,21.2659498 C0.391397849,23.521147 0.391397849,28.4415771 0.838709677,30.6967742 C3.54121864,44.190681 16.1777778,53.2301075 29.6157706,51.2172043 Z" id="Shape"></path>
                            <path d="M21.8250896,49.372043 C11.8351254,47.4896057 4.26810036,39.8293907 2.53476703,29.8207885 C2.0874552,27.2860215 2.25519713,22.7756272 2.88888889,20.3526882 C4.06308244,15.8795699 6.05734767,12.3569892 9.18853047,9.22580645 C12.3010753,6.11326165 15.7677419,4.13763441 20.3154122,2.90752688 C21.9928315,2.46021505 22.4028674,2.42293907 25.944086,2.42293907 C29.4853047,2.42293907 29.8953405,2.46021505 31.5727599,2.90752688 C36.7168459,4.30537634 40.9476703,6.95197133 44.097491,10.7354839 C46.4831541,13.6057348 47.9741935,16.5505376 49.0179211,20.3526882 C49.465233,22.0301075 49.502509,22.4401434 49.502509,25.981362 C49.502509,29.5225806 49.465233,29.9326165 49.0179211,31.6100358 C46.6136201,40.5003584 40.3885305,46.725448 31.5727599,49.0365591 C30.0444444,49.446595 29.2616487,49.521147 26.5032258,49.5770609 C24.2107527,49.6143369 22.8315412,49.5584229 21.8250896,49.372043 Z M29.9139785,48.9992832 C39.6243728,47.3032258 47.2659498,39.6616487 48.9620072,29.9512545 C49.316129,27.9010753 49.316129,24.0616487 48.9620072,22.0114695 C47.6759857,14.6494624 42.9605735,8.34982079 36.2322581,5.01362007 C30.9763441,2.42293907 24.5275986,1.93835125 18.8243728,3.72759857 C13.009319,5.55412186 7.92114695,9.89677419 5.14408602,15.4136201 C3.41075269,18.8430108 2.64659498,22.0673835 2.64659498,25.981362 C2.64659498,29.8953405 3.41075269,33.1197133 5.14408602,36.5491039 C8.40573477,43.0351254 14.6681004,47.6946237 21.8250896,48.9806452 C23.7634409,49.334767 27.9383513,49.353405 29.9139785,48.9992832 Z" id="Shape"></path>
                            <path d="M20.0544803,47.8623656 C20.1103943,47.6946237 20.1663082,47.5082437 20.1663082,47.4150538 C20.1663082,47.3218638 20.4458781,47.3032258 20.8,47.3591398 C21.1541219,47.4150538 21.5827957,47.3777778 21.7691756,47.2659498 C22.0860215,47.0982079 22.0673835,47.0609319 21.5641577,46.9491039 C19.8681004,46.5577061 18.190681,45.9799283 16.5878136,45.2344086 C14.9663082,44.4702509 14.7985663,44.3584229 15.0035842,44.0415771 C15.1713262,43.7806452 15.2645161,43.7620072 15.4695341,43.9111111 C15.655914,44.078853 15.7677419,44.0602151 15.8982079,43.8551971 C15.9913978,43.7060932 16.0659498,43.5383513 16.0659498,43.4637993 C16.0659498,43.1655914 16.6996416,42.7555556 17.1469534,42.7555556 L17.6501792,42.7369176 L17.0537634,42.1964158 C16.4759857,41.674552 16.4573477,41.637276 16.8114695,41.4508961 C17.1096774,41.2831541 17.2587814,41.4136201 17.9297491,42.3268817 C18.5634409,43.2215054 18.7125448,43.3333333 18.7870968,43.0164875 C18.8802867,42.6623656 19.8494624,42.1218638 20.0358423,42.3268817 C20.0917563,42.3641577 19.8494624,43.0351254 19.4953405,43.7806452 C19.1412186,44.5448029 18.8616487,45.2344086 18.8616487,45.3275986 C18.8616487,45.4394265 19.5512545,45.7003584 20.4086022,45.9240143 C21.2473118,46.1476703 22.0860215,46.3713262 22.2724014,46.4272401 C22.5333333,46.5017921 22.6078853,46.4272401 22.5519713,46.1849462 C22.5146953,45.9612903 22.2351254,45.7935484 21.7691756,45.7003584 C20.4458781,45.4207885 20.1849462,44.8430108 21.0050179,44.0602151 C21.3218638,43.7620072 21.7132616,43.6129032 22.3096774,43.5942652 C22.7569892,43.5756272 23.2602151,43.4451613 23.409319,43.3333333 C23.6143369,43.1655914 23.7820789,43.1469534 24.0243728,43.2960573 C24.3412186,43.4824373 24.3225806,43.5010753 23.9498208,43.6129032 C23.465233,43.7433692 23.427957,43.8924731 23.7261649,44.190681 C23.8379928,44.302509 23.8752688,44.4888889 23.8193548,44.6007168 C23.5956989,44.9548387 22.6265233,44.8243728 22.2351254,44.4143369 C21.8437276,43.9856631 21.2845878,44.0415771 21.2845878,44.4888889 C21.2845878,44.7684588 21.9182796,45.0853047 22.9060932,45.2716846 C23.446595,45.3835125 23.483871,45.4207885 23.316129,45.8494624 C23.0365591,46.5949821 23.0924731,46.6695341 23.9125448,46.6695341 C24.5275986,46.6695341 24.6580645,46.725448 24.5648746,46.9677419 C24.5089606,47.1354839 24.4530466,47.3032258 24.4530466,47.3405018 C24.4530466,47.3964158 24.0430108,47.3777778 23.5584229,47.3032258 C22.7942652,47.2100358 22.5706093,47.2659498 21.9555556,47.6759857 C21.1168459,48.2351254 19.8681004,48.3655914 20.0544803,47.8623656 Z M18.0415771,43.6129032 C17.8738351,43.3519713 17.6315412,43.1283154 17.5010753,43.1283154 C17.2774194,43.1283154 16.5132616,44.4143369 16.6623656,44.5261649 C16.6996416,44.5448029 16.9792115,44.6939068 17.2774194,44.8616487 C17.8179211,45.1412186 17.8365591,45.1412186 18.097491,44.6193548 C18.321147,44.153405 18.321147,44.0229391 18.0415771,43.6129032 Z" id="Shape"></path>
                            <path d="M25.4594982,47.4150538 C24.5275986,47.0422939 24.9189964,45.9240143 26,45.9240143 C26.5591398,45.9240143 26.5591398,45.9240143 26.2236559,45.5512545 C25.981362,45.2903226 25.8136201,45.2344086 25.6831541,45.3648746 C25.3663082,45.6817204 24.6394265,45.5885305 24.6394265,45.2157706 C24.6394265,44.7684588 24.9935484,44.4329749 25.4781362,44.4329749 C25.7017921,44.4329749 26.055914,44.190681 26.2795699,43.8738351 C26.5218638,43.5756272 26.8387097,43.3146953 26.9878136,43.3146953 C27.2114695,43.3146953 27.1741935,43.4451613 26.8200717,43.9111111 L26.3541219,44.5075269 L26.8946237,45.0107527 C28.1060932,46.1476703 26.9691756,48.0487455 25.4594982,47.4150538 Z M26.6896057,46.5763441 C26.6896057,46.1103943 26.2609319,45.9240143 26.037276,46.2967742 C25.8508961,46.5949821 26.074552,47.0422939 26.4100358,47.0422939 C26.5777778,47.0422939 26.6896057,46.874552 26.6896057,46.5763441 Z" id="Shape"></path>
                            <path d="M27.7519713,47.0422939 C27.6774194,46.762724 27.7519713,46.6695341 28.0129032,46.6695341 C28.3670251,46.6695341 28.3670251,46.5763441 28.2551971,45.2716846 C28.1433692,44.0602151 28.1806452,43.8179211 28.4602151,43.5010753 C28.9634409,42.9419355 29.1125448,43.0351254 29.1125448,43.9483871 C29.1125448,44.3956989 29.1684588,45.1412186 29.2243728,45.6071685 C29.3362007,46.3899642 29.3921147,46.4645161 29.7648746,46.3713262 C30.0817204,46.2967742 30.2121864,46.3713262 30.2681004,46.6322581 C30.3612903,46.9677419 30.2494624,47.0236559 29.4107527,47.1354839 C28.8888889,47.2100358 28.3297491,47.2845878 28.1620072,47.3405018 C27.9569892,47.3964158 27.8265233,47.2845878 27.7519713,47.0422939 Z" id="Path"></path>
                            <path d="M33.5111111,45.6258065 C33.4365591,45.4207885 33.5670251,45.2716846 33.9584229,45.1225806 C34.5175627,44.9175627 34.6853047,44.5634409 34.3311828,44.3397849 C34.2193548,44.265233 34.0143369,44.321147 33.865233,44.4329749 C33.1383513,45.0293907 33.0078853,43.4451613 33.6602151,41.9354839 C34.0702509,40.9663082 34.2566308,41.2086022 33.902509,42.2709677 C33.6415771,43.0351254 33.6415771,43.0910394 33.9397849,43.1842294 C34.1261649,43.2215054 34.4802867,43.1096774 34.7225806,42.9232975 C34.9648746,42.7369176 35.3189964,42.5691756 35.5053763,42.5691756 C35.6917563,42.5691756 35.8222222,42.5132616 35.7849462,42.4387097 C35.7476703,42.3455197 35.6172043,42.0845878 35.4867384,41.8236559 C35.3003584,41.4508961 35.2817204,41.2272401 35.4494624,40.7985663 L35.6544803,40.2394265 L36.511828,41.7863799 L37.3505376,43.3146953 L38.1146953,42.7555556 C39.8853047,41.4508961 39.9784946,41.3577061 39.6430108,41.0222222 C39.3634409,40.7240143 39.3075269,40.7426523 38.916129,41.2086022 C38.3756272,41.8422939 38.0587814,41.637276 38.0587814,40.6494624 C38.0587814,39.8853047 38.4874552,37.9842294 38.6924731,37.7605735 C38.972043,37.4810036 38.990681,37.9655914 38.7297491,38.8602151 C38.5620072,39.4007168 38.4315412,39.8666667 38.4315412,39.9039427 C38.4315412,39.9412186 38.7111111,39.9598566 39.065233,39.9598566 C39.5498208,39.9598566 39.7921147,40.0903226 40.0716846,40.4444444 L40.4258065,40.9476703 L41.581362,39.5684588 C43.1096774,37.7605735 43.1842294,37.6114695 42.7182796,37.3505376 C42.3827957,37.1827957 42.3455197,37.2014337 42.3455197,37.6301075 C42.3455197,37.8910394 42.1777778,38.2637993 41.9727599,38.4688172 C41.655914,38.7856631 41.525448,38.8043011 41.2086022,38.6551971 C40.6308244,38.3383513 40.4071685,37.5741935 40.7612903,37.0523297 C40.9103943,36.8100358 41.1340502,36.6050179 41.2458781,36.6050179 C41.3577061,36.6050179 41.2645161,36.455914 41.0408602,36.2695341 C40.7612903,36.0458781 40.6494624,35.7849462 40.7053763,35.4494624 L40.7612903,34.9462366 L41.581362,35.5053763 L42.3827957,36.0645161 L42.8301075,35.6544803 C43.3519713,35.1698925 43.1469534,34.7412186 42.4200717,34.7412186 C42.0659498,34.7412186 41.9727599,34.6480287 41.9727599,34.2939068 C41.9727599,33.921147 42.0473118,33.865233 42.4014337,33.9397849 C43.4078853,34.2007168 43.8738351,35.2071685 43.3519713,35.9899642 C43.1096774,36.381362 43.0910394,36.49319 43.2960573,36.6236559 C43.6315412,36.8286738 44.0415771,36.288172 44.7311828,34.7225806 L45.2716846,33.4924731 L44.0043011,33.0824373 C42.9792115,32.7469534 42.6623656,32.5605735 42.4387097,32.1132616 C42.0659498,31.4236559 42.1964158,31.4236559 44.097491,32.1318996 C44.9175627,32.4301075 45.6071685,32.6537634 45.6258065,32.6351254 C45.7749104,32.4487455 46.2594982,29.9885305 46.1849462,29.7835125 C45.9985663,29.2802867 45.5326165,29.5039427 45.4767025,30.1189964 C45.4021505,31.0136201 44.8802867,31.0322581 44.3584229,30.1562724 C43.7060932,29.0752688 43.1096774,27.5842294 43.2401434,27.3792115 C43.2960573,27.2860215 43.5569892,27.6587814 43.7992832,28.2179211 C44.3584229,29.4853047 44.321147,29.4666667 44.7684588,29.0566308 C45.0293907,28.8143369 45.3089606,28.7584229 45.7749104,28.8329749 C46.3713262,28.9261649 46.4086022,28.9075269 46.5204301,28.2924731 C46.6136201,27.8265233 46.744086,27.6587814 47.0050179,27.6587814 C47.4150538,27.6587814 47.4150538,27.5842294 46.89319,30.3240143 C45.7376344,36.455914 41.4695341,42.0659498 35.6917563,45.0480287 C33.809319,46.0172043 33.678853,46.0544803 33.5111111,45.6258065 Z M36.0086022,44.116129 C36.9777778,43.5569892 36.0645161,42.7928315 35.0580645,43.3146953 C34.7225806,43.5010753 34.7225806,43.5383513 35.0021505,43.9670251 C35.3562724,44.5261649 35.3376344,44.5075269 36.0086022,44.116129 Z M41.7863799,37.6860215 C42.4200717,36.9964158 42.2150538,36.7354839 41.4508961,37.2759857 C41.0408602,37.5555556 40.8917563,38.0960573 41.2272401,38.0960573 C41.3204301,38.0960573 41.562724,37.9096774 41.7863799,37.6860215 Z" id="Shape"></path>
                            <path d="M22.3655914,42.5691756 C17.3519713,41.525448 12.972043,38.0587814 10.6795699,33.3433692 C8.66666667,29.2430108 8.44301075,24.1175627 10.1017921,19.8681004 C11.7232975,15.69319 15.2831541,12.0215054 19.4021505,10.30681 C23.446595,8.62939068 28.4415771,8.62939068 32.4860215,10.30681 C36.511828,11.9842294 40.0344086,15.562724 41.711828,19.6444444 C43.2587814,23.446595 43.2587814,28.516129 41.711828,32.3182796 C40.5003584,35.2817204 38.0587814,38.3010753 35.4121864,40.0716846 C31.6473118,42.5878136 26.8387097,43.5197133 22.3655914,42.5691756 Z M25.2544803,41.637276 C24.7885305,40.7985663 24.6580645,40.7053763 24.0802867,40.7053763 C22.3096774,40.6867384 20.4086022,39.8666667 18.6939068,38.3756272 C18.0229391,37.7792115 16.7369176,36.9405018 15.711828,36.437276 C13.8293907,35.4867384 12.916129,34.8530466 13.121147,34.6480287 C13.1770609,34.5734767 13.4752688,34.6480287 13.7734767,34.7971326 C15.0408602,35.4494624 15.1154122,35.4308244 20.5390681,33.1756272 L25.6645161,31.0508961 L25.7204301,29.9698925 L25.7763441,28.9075269 L24.9935484,29.5971326 C23.7448029,30.7340502 21.8623656,31.5168459 18.6193548,32.2250896 C14.9849462,33.0451613 13.7734767,33.4924731 12.8229391,34.3684588 L12.0774194,35.0580645 L12.7483871,35.9713262 C15.4695341,39.6802867 20.4645161,42.3268817 25.1612903,42.5505376 L25.7763441,42.5691756 L25.2544803,41.637276 Z M29.7648746,42.0659498 C33.3247312,41.2645161 37.0150538,38.878853 39.121147,35.9899642 L39.7921147,35.0953405 L39.4193548,34.5921147 C38.916129,33.902509 36.9405018,32.9333333 35.1698925,32.5232975 C30.4544803,31.4050179 29.5784946,31.162724 28.572043,30.6408602 C27.9569892,30.3426523 27.1555556,29.8207885 26.7827957,29.5039427 L26.111828,28.9075269 L26.1677419,29.9885305 L26.2236559,31.0508961 L31.3491039,33.1756272 C36.7541219,35.4121864 36.8659498,35.4494624 38.1146953,34.7971326 C38.4129032,34.6480287 38.7111111,34.5734767 38.7670251,34.6480287 C38.972043,34.8530466 38.0587814,35.4867384 36.1763441,36.437276 C35.1512545,36.9405018 33.865233,37.7792115 33.1942652,38.3756272 C31.4795699,39.8666667 29.5784946,40.6867384 27.8078853,40.7053763 C27.2114695,40.7053763 27.0996416,40.7985663 26.6150538,41.655914 L26.074552,42.6250896 L27.2673835,42.4946237 C27.9197133,42.4200717 29.0379928,42.2336918 29.7648746,42.0659498 Z M26.3727599,41.0781362 C26.6896057,40.5376344 26.6896057,40.5003584 26.3727599,39.9598566 C26.2050179,39.6616487 26,39.4007168 25.944086,39.4007168 C25.888172,39.4007168 25.6831541,39.6430108 25.5154122,39.9598566 C25.2172043,40.4630824 25.1985663,40.5562724 25.4781362,41.0781362 C25.8322581,41.7863799 25.962724,41.7863799 26.3727599,41.0781362 Z M24.9935484,39.8480287 C25.2172043,39.4752688 25.3849462,39.1397849 25.3476703,39.121147 C25.3103943,39.102509 24.8258065,39.027957 24.2666667,38.972043 L23.2415771,38.878853 L23.2415771,39.6057348 C23.2229391,40.1835125 23.297491,40.3326165 23.6143369,40.3885305 C24.4530466,40.5562724 24.6207885,40.5003584 24.9935484,39.8480287 Z M28.1247312,40.4071685 C28.609319,40.3139785 28.665233,40.2207885 28.646595,39.5870968 L28.646595,38.878853 L27.6215054,38.972043 C27.0623656,39.027957 26.5777778,39.102509 26.5405018,39.121147 C26.4473118,39.1956989 27.2860215,40.5189964 27.4351254,40.5189964 C27.5096774,40.5189964 27.8265233,40.4630824 28.1247312,40.4071685 Z M22.9620072,39.4566308 L22.9433692,38.5620072 L22.6078853,39.3075269 C22.3842294,39.8293907 22.3283154,40.0903226 22.4774194,40.1835125 C22.8688172,40.4630824 22.9620072,40.3139785 22.9620072,39.4566308 Z M29.4107527,40.1835125 C29.5598566,40.0903226 29.5039427,39.8293907 29.2802867,39.3075269 L28.9448029,38.5620072 L28.9261649,39.4566308 C28.9261649,40.3139785 29.0193548,40.4630824 29.4107527,40.1835125 Z M22.3096774,39.3634409 L22.5706093,38.7483871 L21.2473118,38.1519713 C20.5204301,37.8164875 19.9053763,37.5369176 19.8867384,37.5369176 C19.8494624,37.5369176 19.7376344,37.7792115 19.6444444,38.0774194 C19.4207885,38.7111111 19.4580645,38.7483871 20.725448,39.4752688 C21.8064516,40.0903226 21.9928315,40.0903226 22.3096774,39.3634409 Z M30.8458781,39.6616487 C31.181362,39.4939068 31.6659498,39.1956989 31.9455197,38.990681 C32.3928315,38.6738351 32.4301075,38.5806452 32.2437276,38.0960573 C32.1505376,37.7792115 32.0387097,37.5369176 32.0014337,37.5369176 C31.9827957,37.5369176 31.3677419,37.8164875 30.6408602,38.1519713 L29.3175627,38.7483871 L29.5784946,39.3634409 C29.8767025,40.0530466 30.0258065,40.0716846 30.8458781,39.6616487 Z M25.7577061,34.9835125 C25.7577061,31.5913978 25.7390681,31.3491039 25.4408602,31.4609319 C25.2544803,31.5354839 23.0365591,32.4487455 20.5017921,33.4924731 L15.8982079,35.3749104 L16.8673835,35.6358423 C17.4078853,35.7663082 18.3770609,36.1949821 19.0480287,36.6050179 C21.1168459,37.8537634 22.7569892,38.5060932 24.1734767,38.6365591 C24.9003584,38.7111111 25.5340502,38.7297491 25.6272401,38.6924731 C25.7017921,38.6551971 25.7577061,36.9964158 25.7577061,34.9835125 Z M30.3426523,37.9283154 C31.0508961,37.5928315 32.1691756,37.0150538 32.8401434,36.6050179 C33.5111111,36.1949821 34.4802867,35.7663082 35.0207885,35.6358423 L35.9899642,35.3749104 L31.3863799,33.4924731 C28.8516129,32.4487455 26.6336918,31.5354839 26.4659498,31.4609319 C26.1491039,31.3491039 26.1304659,31.5913978 26.1304659,34.9648746 C26.1304659,36.9591398 26.1677419,38.6365591 26.2236559,38.6738351 C26.4845878,38.953405 29.1498208,38.4501792 30.3426523,37.9283154 Z M19.5326165,37.2200717 C19.4953405,37.1641577 19.3275986,37.3691756 19.1598566,37.6860215 C19.0107527,37.9842294 18.9362007,38.3010753 19.0107527,38.3756272 C19.0853047,38.4315412 19.2530466,38.2265233 19.3835125,37.9096774 C19.5139785,37.5741935 19.5885305,37.2759857 19.5326165,37.2200717 Z M32.7283154,37.7046595 C32.5792115,37.3878136 32.4114695,37.1641577 32.3555556,37.2014337 C32.2064516,37.3505376 32.6910394,38.4688172 32.8587814,38.3569892 C32.9519713,38.3010753 32.8960573,38.0028674 32.7283154,37.7046595 Z M18.9921147,37.4437276 C19.1971326,36.9964158 19.1598566,36.9405018 18.321147,36.5304659 C17.8365591,36.2695341 16.9605735,35.9526882 16.3827957,35.8035842 C14.8731183,35.4121864 14.9849462,35.8035842 16.6250896,36.5863799 C17.3333333,36.9405018 18.0602151,37.3878136 18.227957,37.5741935 C18.6379928,38.0215054 18.7311828,38.0028674 18.9921147,37.4437276 Z M33.6415771,37.5741935 C33.809319,37.3878136 34.5362007,36.9591398 35.2630824,36.6050179 C36.9032258,35.8035842 37.0336918,35.4121864 35.5053763,35.8035842 C34.9089606,35.9526882 34.0329749,36.288172 33.5670251,36.5491039 C32.7655914,36.9777778 32.7096774,37.0336918 32.9146953,37.4623656 C33.1569892,38.0028674 33.2501792,38.0028674 33.6415771,37.5741935 Z M12.5433692,33.883871 C13.3261649,33.0451613 14.7053763,32.5046595 18.078853,31.7218638 C21.6759857,30.9017921 23.5956989,30.1562724 24.7512545,29.0939068 C25.6086022,28.3297491 26.2050179,28.3111111 27.0810036,29.0566308 C28.3670251,30.1189964 29.9512545,30.7154122 33.865233,31.5727599 C36.6982079,32.2064516 38.3569892,32.8587814 39.4007168,33.790681 L40.0716846,34.3684588 L40.4817204,33.716129 C40.7053763,33.3433692 40.8358423,32.9333333 40.7799283,32.7842294 C40.6681004,32.4487455 39.009319,31.4982079 37.7232975,31.0136201 C37.1827957,30.8086022 35.5426523,30.3053763 34.0516129,29.8953405 C28.8702509,28.478853 27.0623656,27.1928315 27.0623656,24.9003584 C27.0623656,24.5089606 26.8759857,23.2415771 26.6709677,22.0673835 C26.2050179,19.5885305 26.2795699,17.6874552 26.8759857,15.2645161 C27.2301075,13.8107527 27.3792115,10.9218638 27.1369176,10.0086022 C27.0250896,9.6172043 26.8946237,9.57992832 25.90681,9.57992832 C24.9003584,9.57992832 24.8071685,9.6172043 24.9376344,9.91541219 C25.0121864,10.0831541 25.1240143,11.0896057 25.1612903,12.1333333 C25.2172043,13.8666667 25.1799283,14.1835125 24.6394265,15.8982079 C24.0057348,17.8924731 24.0057348,17.8738351 24.5275986,20.6695341 C24.6767025,21.4896057 24.8071685,22.8315412 24.8071685,23.6329749 C24.8258065,25.4781362 24.4716846,26.3168459 23.0738351,27.6215054 C21.5641577,29.0566308 20.5390681,29.5039427 16.9046595,30.2867384 C15.8795699,30.4917563 14.5749104,30.8645161 13.9971326,31.10681 C12.7670251,31.5913978 11.0336918,32.6910394 11.0336918,32.9706093 C11.0336918,33.2501792 11.7419355,34.3684588 11.9283154,34.3684588 C12.0215054,34.3684588 12.2824373,34.1448029 12.5433692,33.883871 Z M12.7670251,31.0695341 C14.1089606,30.3985663 14.8731183,30.1562724 17.5569892,29.5412186 C20.3526882,28.8888889 21.0422939,28.627957 22.2537634,27.7146953 C24.2666667,26.1677419 24.6021505,25.0867384 24.1548387,21.6946237 L23.8566308,19.3462366 L23.334767,19.8494624 C22.8501792,20.3340502 21.5827957,20.744086 21.3405018,20.5017921 C21.2845878,20.4458781 21.4523297,20.2222222 21.7132616,19.9985663 C22.0860215,19.7189964 22.2164875,19.4394265 22.2164875,18.9921147 C22.2164875,18.6379928 22.1419355,18.302509 22.0301075,18.246595 C21.9369176,18.190681 21.8437276,18.0229391 21.8437276,17.9111111 C21.8623656,17.7806452 22.0301075,17.8924731 22.2351254,18.153405 C22.5146953,18.4888889 22.5892473,18.7498208 22.4960573,19.1971326 C22.3469534,20.0358423 22.6451613,20.1290323 23.2229391,19.4394265 C24.0057348,18.5075269 23.7448029,16.9978495 22.6078853,16.0473118 L22.1046595,15.637276 L22.6265233,14.9103943 C23.0179211,14.3512545 23.1483871,13.9784946 23.1483871,13.3075269 C23.1483871,12.1892473 22.8315412,11.3132616 22.3655914,11.0523297 C22.0114695,10.8659498 21.9928315,10.8845878 22.0860215,11.4623656 C22.2351254,12.3942652 21.8623656,13.4379928 21.1541219,14.0716846 C20.5390681,14.6121864 20.4831541,14.9849462 21.0236559,14.9849462 C21.3591398,14.9849462 22.1978495,14.1089606 22.4215054,13.5125448 C22.5146953,13.2702509 22.6451613,13.121147 22.7010753,13.1770609 C22.9060932,13.3634409 22.0114695,14.8172043 21.5641577,15.0222222 C21.2286738,15.1713262 21.0982079,15.3763441 21.0982079,15.7491039 C21.0982079,16.0286738 21.1913978,16.3268817 21.2845878,16.3827957 C21.4336918,16.4759857 21.4150538,16.5878136 21.2659498,16.7741935 C21.0795699,16.9978495 21.0982079,17.1096774 21.3218638,17.3333333 C21.5455197,17.5569892 21.5827957,17.7992832 21.4709677,18.283871 C21.2659498,19.1412186 21.1354839,19.2344086 20.8,18.7498208 C20.4086022,18.172043 20.1663082,18.246595 20.1663082,18.8989247 C20.1663082,19.5326165 20.1290323,19.5512545 19.6071685,19.2344086 C19.2903226,19.0293907 19.1412186,19.0480287 18.7125448,19.2716846 C17.9297491,19.7189964 17.4824373,20.818638 17.4637993,22.4401434 L17.4265233,23.8379928 L15.488172,23.8939068 C13.9039427,23.9311828 13.3448029,23.8752688 12.4315412,23.5584229 C10.6050179,22.9247312 10.6050179,22.9247312 10.6982079,23.2043011 C10.8286738,23.6329749 13.046595,24.2666667 14.4071685,24.2666667 C15.0781362,24.2666667 15.8050179,24.3598566 16.0286738,24.4716846 C16.5318996,24.7326165 17.7433692,24.2853047 17.7433692,23.8566308 C17.7433692,23.502509 18.0415771,23.465233 18.227957,23.7820789 C18.302509,23.8939068 18.190681,24.1362007 17.9483871,24.3225806 C17.5942652,24.6021505 17.5756272,24.7326165 17.7433692,25.0494624 C17.9297491,25.3849462 17.8738351,25.5713262 17.5010753,26.1304659 C17.2587814,26.5032258 16.8301075,27.1928315 16.5691756,27.6587814 C16.1964158,28.3297491 14.2021505,30.3240143 14.2021505,30.0258065 C14.2021505,29.9885305 14.3326165,29.6716846 14.5003584,29.3548387 C14.7426523,28.8888889 14.7799283,28.478853 14.6867384,27.6028674 C14.5749104,26.6896057 14.5935484,26.5032258 14.7799283,26.6709677 C14.8917563,26.7827957 15.0408602,27.3232975 15.0967742,27.8451613 C15.1526882,28.4229391 15.2645161,28.7584229 15.3949821,28.721147 C15.7491039,28.609319 16.8114695,26.6709677 16.8114695,26.1304659 C16.8114695,25.3290323 16.2709677,25.1612903 13.6989247,25.1426523 C11.0150538,25.1426523 10.6982079,25.2917563 11.0523297,26.3727599 C11.3505376,27.1928315 12.1706093,28.2924731 13.2516129,29.2802867 C14.3512545,30.3053763 13.9784946,30.3240143 12.8229391,29.3175627 C11.8351254,28.4415771 11.0150538,27.3046595 10.6982079,26.3727599 C10.5677419,26.018638 10.30681,25.6086022 10.0831541,25.4594982 C9.69175627,25.1985663 9.69175627,25.1985663 10.2136201,24.6580645 L10.7354839,24.1175627 L10.325448,23.5770609 C9.93405018,23.0365591 9.93405018,22.9992832 10.2508961,22.7756272 C10.437276,22.6451613 10.7354839,22.0673835 10.9218638,21.5082437 C11.5555556,19.5139785 12.8415771,17.9856631 15.3390681,16.2150538 C16.4759857,15.4136201 16.7369176,15.1526882 16.7741935,14.6867384 C16.8114695,14.3326165 16.7182796,14.0157706 16.5505376,13.8666667 C16.3827957,13.7362007 16.2523297,13.5311828 16.2523297,13.4007168 C16.2523297,13.027957 17.7620072,13.2888889 18.246595,13.7362007 C18.6379928,14.0903226 18.6752688,14.0903226 18.7870968,13.7734767 C18.8616487,13.5870968 18.8243728,13.1956989 18.7125448,12.897491 C18.5448029,12.4688172 18.5634409,12.3383513 18.7870968,12.2451613 C19.2157706,12.0960573 19.9799283,12.7111111 20.1103943,13.3261649 C20.2594982,14.1089606 20.5390681,14.1835125 21.0236559,13.5870968 C21.5641577,12.897491 21.7132616,11.9283154 21.3591398,11.1082437 C21.0422939,10.344086 21.0982079,10.2322581 21.7691756,10.4 C22.9060932,10.6982079 23.8939068,12.4315412 23.6143369,13.6989247 C23.5397849,13.9784946 23.278853,14.5376344 23.0365591,14.9103943 L22.5706093,15.581362 L23.1483871,16.1591398 C23.446595,16.4759857 23.7075269,16.8301075 23.7261649,16.9232975 C23.7448029,17.1283154 23.9498208,16.4759857 24.5275986,14.4258065 C24.9003584,13.121147 24.9003584,11.7792115 24.5462366,10.5491039 C24.2107527,9.44946237 24.0616487,9.39354839 22.2164875,9.82222222 C17.1842294,11.0150538 12.7111111,14.7612903 10.7541219,19.4580645 C9.76630824,21.8064516 9.44946237,23.372043 9.46810036,25.981362 C9.46810036,28.3111111 9.74767025,29.9326165 10.418638,31.7032258 L10.7168459,32.5046595 L11.2759857,32.0200717 C11.5741935,31.7591398 12.2637993,31.3304659 12.7670251,31.0695341 Z M42.0100358,30.0630824 C42.6064516,27.8451613 42.6064516,24.1362007 42.0100358,21.9182796 C40.3326165,15.69319 35.2444444,10.8845878 29.0939068,9.71039427 L27.6960573,9.44946237 L27.7706093,11.5182796 C27.8265233,13.1956989 27.7706093,13.9039427 27.4351254,15.2645161 C26.8759857,17.5756272 26.7641577,19.7749104 27.1182796,21.5082437 C27.2860215,22.2724014 27.4537634,23.446595 27.5283154,24.1175627 C27.6960573,25.8695341 27.7519713,26.074552 28.2924731,26.7268817 C29.1684588,27.7706093 30.4731183,28.2924731 36.0645161,29.8953405 C38.2451613,30.5103943 39.9225806,31.274552 40.6681004,31.9827957 L41.1340502,32.4114695 L41.3577061,32.0200717 C41.488172,31.7964158 41.7677419,30.9204301 42.0100358,30.0630824 Z M17.2774194,25.2544803 C17.2215054,25.1426523 17.0164875,25.0494624 16.8487455,25.0494624 C16.5691756,25.0681004 16.5691756,25.0867384 16.8860215,25.3290323 C17.2774194,25.6272401 17.4824373,25.5713262 17.2774194,25.2544803 Z M11.6673835,24.7698925 C12.0215054,24.4903226 12.0215054,24.4903226 11.6487455,24.4903226 C11.4437276,24.4903226 11.1641577,24.6207885 11.0336918,24.7698925 C10.7168459,25.1426523 11.1641577,25.1426523 11.6673835,24.7698925 Z M17.0910394,22.0673835 C17.3706093,19.7189964 18.172043,18.3770609 19.9612903,17.2028674 C20.2781362,17.0164875 20.3713262,16.8114695 20.2967742,16.6064516 C19.9612903,15.69319 17.7620072,16.9046595 16.3268817,18.7684588 C15.3577061,20.0358423 14.7612903,21.6387097 14.7612903,22.9806452 C14.7612903,23.5956989 15.0594982,23.7261649 16.2523297,23.6702509 L16.9046595,23.6516129 L17.0910394,22.0673835 Z M14.2021505,23.1670251 C14.2021505,22.7197133 13.7734767,22.7756272 13.6802867,23.2415771 C13.6430108,23.427957 13.7362007,23.5584229 13.9039427,23.5584229 C14.0903226,23.5584229 14.2021505,23.390681 14.2021505,23.1670251 Z M13.2702509,23.2415771 C13.2702509,23.1483871 13.1770609,22.9620072 13.083871,22.8129032 C12.953405,22.6078853 12.8602151,22.5892473 12.6924731,22.7569892 C12.5806452,22.8688172 12.5433692,23.0551971 12.5992832,23.1670251 C12.7483871,23.390681 13.2702509,23.446595 13.2702509,23.2415771 Z M11.9655914,22.7383513 C11.9655914,22.4401434 11.6301075,22.1605735 11.4623656,22.3283154 C11.3132616,22.4774194 11.5555556,22.9992832 11.7792115,22.9992832 C11.8724014,22.9992832 11.9655914,22.8874552 11.9655914,22.7383513 Z M13.7362007,22.2537634 C13.7362007,22.1232975 13.6243728,21.9741935 13.5125448,21.9369176 C13.3634409,21.8810036 13.2702509,22.0114695 13.2702509,22.2537634 C13.2702509,22.4960573 13.3634409,22.6265233 13.5125448,22.5892473 C13.6243728,22.5333333 13.7362007,22.3842294 13.7362007,22.2537634 Z M12.5247312,21.9741935 C12.5247312,21.8250896 12.4501792,21.6946237 12.3569892,21.6946237 C12.1146953,21.6946237 11.9469534,21.9928315 12.0960573,22.1419355 C12.3010753,22.3469534 12.5247312,22.2537634 12.5247312,21.9741935 Z M14.5749104,21.8623656 C14.5749104,21.7691756 14.5003584,21.6946237 14.3885305,21.6946237 C14.2953405,21.6946237 14.2021505,21.8250896 14.2021505,21.9928315 C14.2021505,22.1419355 14.2953405,22.2164875 14.3885305,22.1605735 C14.5003584,22.1046595 14.5749104,21.9741935 14.5749104,21.8623656 Z M12.1146953,21.2473118 C12.1706093,21.0236559 12.0960573,20.9304659 11.9283154,20.9863799 C11.7978495,21.0422939 11.6487455,21.2286738 11.6301075,21.3964158 C11.5741935,21.6200717 11.6487455,21.7132616 11.8164875,21.6573477 C11.9469534,21.6014337 12.0960573,21.4150538 12.1146953,21.2473118 Z M13.9039427,21.0050179 C13.9039427,20.688172 13.7921147,20.4831541 13.6243728,20.4831541 C13.3448029,20.4831541 13.3261649,20.6322581 13.5498208,21.2659498 C13.7362007,21.8250896 13.9412186,21.6759857 13.9039427,21.0050179 Z M13.083871,21.3218638 C13.083871,21.2286738 13.009319,21.1354839 12.897491,21.1354839 C12.8043011,21.1354839 12.7111111,21.2286738 12.7111111,21.3218638 C12.7111111,21.4336918 12.8043011,21.5082437 12.897491,21.5082437 C13.009319,21.5082437 13.083871,21.4336918 13.083871,21.3218638 Z M12.8602151,20.4272401 C12.8229391,20.2408602 12.916129,20.0172043 13.083871,19.8867384 C13.2888889,19.7189964 13.3075269,19.6258065 13.1397849,19.4580645 C13.027957,19.3275986 12.8415771,19.2716846 12.7483871,19.3462366 C12.5247312,19.4767025 12.3010753,20.5577061 12.4501792,20.781362 C12.5992832,21.0422939 12.934767,20.762724 12.8602151,20.4272401 Z M14.0530466,19.9240143 C14.0530466,19.8308244 13.9598566,19.7189964 13.8480287,19.6817204 C13.7362007,19.6444444 13.6430108,19.7562724 13.6430108,19.9240143 C13.6430108,20.0917563 13.7362007,20.2035842 13.8480287,20.1663082 C13.9598566,20.1290323 14.0530466,20.0172043 14.0530466,19.9240143 Z M14.9476703,19.9240143 C14.9476703,19.7749104 14.8731183,19.6444444 14.7612903,19.6444444 C14.6681004,19.6444444 14.5749104,19.7749104 14.5749104,19.9240143 C14.5749104,20.0731183 14.6681004,20.2035842 14.7612903,20.2035842 C14.8731183,20.2035842 14.9476703,20.0731183 14.9476703,19.9240143 Z M15.3949821,19.2530466 C15.3390681,19.1598566 15.2086022,19.1225806 15.1154122,19.1971326 C15.0222222,19.2530466 14.9849462,19.3835125 15.0594982,19.4767025 C15.1154122,19.5698925 15.2458781,19.6071685 15.3390681,19.5326165 C15.4322581,19.4767025 15.4695341,19.3462366 15.3949821,19.2530466 Z M14.5749104,19.1784946 C14.5749104,19.0293907 14.5003584,18.8989247 14.3885305,18.8989247 C14.2953405,18.8989247 14.2021505,19.0293907 14.2021505,19.1784946 C14.2021505,19.3275986 14.2953405,19.4580645 14.3885305,19.4580645 C14.5003584,19.4580645 14.5749104,19.3275986 14.5749104,19.1784946 Z M13.7362007,18.9362007 C13.7362007,18.6007168 13.3634409,18.6566308 13.3075269,19.0107527 C13.2516129,19.1971326 13.3261649,19.2903226 13.4939068,19.2344086 C13.6243728,19.1784946 13.7362007,19.0480287 13.7362007,18.9362007 Z M15.8795699,18.7125448 C15.8795699,18.6193548 15.8050179,18.5261649 15.69319,18.5261649 C15.6,18.5261649 15.50681,18.6193548 15.50681,18.7125448 C15.50681,18.8243728 15.6,18.8989247 15.69319,18.8989247 C15.8050179,18.8989247 15.8795699,18.8243728 15.8795699,18.7125448 Z M15.1340502,18.5261649 C15.1340502,18.4329749 15.0594982,18.3397849 14.9476703,18.3397849 C14.8544803,18.3397849 14.7612903,18.4329749 14.7612903,18.5261649 C14.7612903,18.6379928 14.8544803,18.7125448 14.9476703,18.7125448 C15.0594982,18.7125448 15.1340502,18.6379928 15.1340502,18.5261649 Z M19.6071685,18.5261649 C19.6071685,18.4329749 19.5139785,18.3397849 19.4021505,18.3397849 C19.3089606,18.3397849 19.2716846,18.4329749 19.3275986,18.5261649 C19.3835125,18.6379928 19.4767025,18.7125448 19.5326165,18.7125448 C19.5698925,18.7125448 19.6071685,18.6379928 19.6071685,18.5261649 Z M14.4817204,18.153405 C14.6867384,17.8365591 14.3885305,17.5569892 14.0903226,17.7992832 C13.9412186,17.9111111 13.8293907,18.078853 13.8293907,18.172043 C13.8293907,18.3956989 14.3326165,18.3770609 14.4817204,18.153405 Z M15.50681,17.7806452 C15.50681,17.6874552 15.4322581,17.5942652 15.3204301,17.5942652 C15.2272401,17.5942652 15.1340502,17.6874552 15.1340502,17.7806452 C15.1340502,17.8924731 15.2272401,17.9670251 15.3204301,17.9670251 C15.4322581,17.9670251 15.50681,17.8924731 15.50681,17.7806452 Z M20.911828,17.7806452 C20.911828,17.6874552 20.874552,17.5942652 20.837276,17.5942652 C20.781362,17.5942652 20.688172,17.6874552 20.6322581,17.7806452 C20.5763441,17.8924731 20.6136201,17.9670251 20.70681,17.9670251 C20.818638,17.9670251 20.911828,17.8924731 20.911828,17.7806452 Z M16.3641577,17.3892473 C16.5505376,17.0724014 16.1218638,16.7182796 15.8609319,16.9792115 C15.637276,17.2028674 15.7863799,17.5942652 16.0659498,17.5942652 C16.1591398,17.5942652 16.2896057,17.5010753 16.3641577,17.3892473 Z M15.1340502,17.2215054 C15.1340502,17.1283154 15.0967742,17.0351254 15.0594982,17.0351254 C15.0035842,17.0351254 14.9103943,17.1283154 14.8544803,17.2215054 C14.7985663,17.3333333 14.8358423,17.4078853 14.9290323,17.4078853 C15.0408602,17.4078853 15.1340502,17.3333333 15.1340502,17.2215054 Z M17.6501792,16.8487455 C17.7060932,16.7555556 17.6688172,16.6623656 17.5756272,16.6623656 C17.4637993,16.6623656 17.3706093,16.7555556 17.3706093,16.8487455 C17.3706093,16.9605735 17.4078853,17.0351254 17.4451613,17.0351254 C17.5010753,17.0351254 17.5942652,16.9605735 17.6501792,16.8487455 Z M16.9978495,16.3641577 C16.9978495,16.2150538 16.9232975,16.1405018 16.8114695,16.1964158 C16.7182796,16.2523297 16.6250896,16.4387097 16.6250896,16.5878136 C16.6250896,16.7369176 16.7182796,16.8114695 16.8114695,16.7555556 C16.9232975,16.6996416 16.9978495,16.5132616 16.9978495,16.3641577 Z M16.2523297,16.4759857 C16.2523297,16.3827957 16.1777778,16.2896057 16.0845878,16.2896057 C15.9727599,16.2896057 15.8422939,16.3827957 15.7863799,16.4759857 C15.7304659,16.5878136 15.8050179,16.6623656 15.9541219,16.6623656 C16.1218638,16.6623656 16.2523297,16.5878136 16.2523297,16.4759857 Z M20.725448,15.8422939 C20.5204301,15.1713262 19.9799283,14.5562724 19.9799283,14.9663082 C19.9799283,15.3017921 20.744086,16.7182796 20.855914,16.6064516 C20.911828,16.5505376 20.855914,16.2150538 20.725448,15.8422939 Z M18.4888889,15.9913978 C18.4888889,15.8422939 18.4143369,15.7677419 18.302509,15.8236559 C18.209319,15.8795699 18.116129,16.0659498 18.116129,16.2150538 C18.116129,16.3641577 18.209319,16.4387097 18.302509,16.3827957 C18.4143369,16.3268817 18.4888889,16.1405018 18.4888889,15.9913978 Z M17.7433692,15.9913978 C17.7433692,15.8422939 17.6501792,15.7677419 17.5569892,15.8236559 C17.4451613,15.8982079 17.4078853,16.0286738 17.4637993,16.1218638 C17.6315412,16.3827957 17.7433692,16.3268817 17.7433692,15.9913978 Z M17.0910394,15.7304659 C17.1469534,15.637276 17.1096774,15.544086 17.0164875,15.544086 C16.9046595,15.544086 16.8114695,15.637276 16.8114695,15.7304659 C16.8114695,15.8422939 16.8487455,15.9168459 16.8860215,15.9168459 C16.9419355,15.9168459 17.0351254,15.8422939 17.0910394,15.7304659 Z M18.9734767,15.2272401 C18.7870968,15.0408602 18.6193548,15.3204301 18.7870968,15.562724 C18.8989247,15.7677419 18.9362007,15.7677419 19.0107527,15.562724 C19.0480287,15.4322581 19.0293907,15.2831541 18.9734767,15.2272401 Z M17.7620072,14.5562724 C17.7806452,14.2394265 17.7992832,14.2207885 17.8738351,14.4817204 C17.9483871,14.7985663 18.302509,14.7612903 18.302509,14.4258065 C18.302509,14.1462366 17.5010753,13.4752688 17.3333333,13.6430108 C17.1469534,13.8293907 17.3706093,15.1899642 17.5756272,15.0594982 C17.6688172,15.0035842 17.7620072,14.7799283 17.7620072,14.5562724 Z M19.9799283,14.1462366 C19.9799283,13.9039427 19.9053763,13.4939068 19.7935484,13.2329749 C19.5698925,12.6179211 19.1412186,12.5620072 19.3275986,13.1770609 C19.4021505,13.4007168 19.4767025,13.8107527 19.5139785,14.1089606 C19.5885305,14.8172043 19.5885305,14.8358423 19.7935484,14.7053763 C19.9053763,14.6494624 19.9799283,14.3885305 19.9799283,14.1462366 Z" id="Shape"></path>
                            <path d="M12.2824373,27.1369176 C12.0960573,26.9505376 11.9655914,26.7455197 11.9655914,26.6709677 C11.9655914,26.5032258 12.5247312,25.981362 12.7111111,25.981362 C12.916129,25.981362 13.4566308,26.5218638 13.4566308,26.7268817 C13.4566308,26.9318996 12.916129,27.4724014 12.7297491,27.4724014 C12.6551971,27.4724014 12.4501792,27.3232975 12.2824373,27.1369176 Z M12.972043,26.7082437 C12.916129,26.6150538 12.7856631,26.5777778 12.6924731,26.6523297 C12.5992832,26.7082437 12.5620072,26.8387097 12.6365591,26.9318996 C12.6924731,27.0250896 12.8229391,27.0623656 12.916129,26.9878136 C13.009319,26.9318996 13.046595,26.8014337 12.972043,26.7082437 Z" id="Shape"></path>
                            <path d="M36.5304659,29.0939068 C35.9713262,28.553405 35.3003584,27.7519713 35.0767025,27.2860215 C34.8344086,26.8200717 34.4989247,26.2609319 34.3125448,26.018638 C34.0516129,25.6831541 34.0143369,25.4781362 34.1634409,25.1053763 C34.2939068,24.7326165 34.2566308,24.5835125 33.921147,24.3225806 C33.697491,24.1362007 33.5856631,23.8939068 33.6602151,23.7820789 C33.846595,23.465233 34.1448029,23.502509 34.1448029,23.8566308 C34.1448029,24.2853047 35.3562724,24.7326165 35.8594982,24.4716846 C36.0831541,24.3598566 36.8100358,24.2666667 37.4810036,24.2666667 C38.8415771,24.2666667 41.0594982,23.6329749 41.1899642,23.2043011 C41.2831541,22.9247312 41.2831541,22.9247312 39.4566308,23.5584229 C38.5433692,23.8752688 37.9842294,23.9311828 36.4,23.8939068 L34.4616487,23.8379928 L34.4243728,22.4401434 C34.4057348,20.818638 33.9584229,19.7189964 33.1756272,19.2716846 C32.7469534,19.0480287 32.5978495,19.0293907 32.2810036,19.2344086 C31.7591398,19.5512545 31.7218638,19.5326165 31.7218638,18.8989247 C31.7218638,18.246595 31.4795699,18.172043 31.088172,18.7498208 C30.7526882,19.2344086 30.6222222,19.1412186 30.4172043,18.283871 C30.3053763,17.7992832 30.3426523,17.5569892 30.5663082,17.3333333 C30.7899642,17.1096774 30.8086022,16.9978495 30.6222222,16.7741935 C30.4731183,16.5878136 30.4544803,16.4759857 30.6035842,16.3827957 C30.6967742,16.3268817 30.7899642,16.0286738 30.7899642,15.7491039 C30.7899642,15.3763441 30.6594982,15.1713262 30.3240143,15.0222222 C30.0817204,14.9103943 29.7089606,14.4817204 29.4853047,14.0716846 C29.0566308,13.2143369 29.0379928,13.121147 29.2989247,13.121147 C29.4107527,13.121147 29.4853047,13.2702509 29.4853047,13.4566308 C29.4853047,13.8666667 30.4917563,14.9849462 30.8645161,14.9849462 C31.4050179,14.9849462 31.3491039,14.6121864 30.7154122,14.0530466 C30.0071685,13.4379928 29.7462366,12.6738351 29.8394265,11.5741935 C29.8953405,10.9032258 29.8580645,10.8659498 29.5225806,11.0523297 C29.0566308,11.3132616 28.7397849,12.1892473 28.7397849,13.3075269 C28.7397849,13.9784946 28.8702509,14.3512545 29.2616487,14.9103943 L29.7835125,15.637276 L29.2802867,16.0473118 C28.1433692,17.0164875 27.9010753,18.6566308 28.7584229,19.5698925 C29.2802867,20.1290323 29.5598566,19.9612903 29.4107527,19.1784946 C29.3175627,18.7311828 29.3921147,18.4702509 29.6530466,18.134767 C29.8580645,17.8924731 30.0258065,17.7806452 30.0444444,17.9111111 C30.0444444,18.0229391 29.9698925,18.190681 29.8580645,18.246595 C29.4853047,18.4702509 29.6530466,19.4580645 30.1562724,19.9612903 C30.4172043,20.2222222 30.5849462,20.4645161 30.5290323,20.5204301 C30.3426523,20.725448 29.1311828,20.3713262 28.646595,19.9799283 C27.3605735,18.9734767 27.4910394,17.2960573 28.9448029,15.9354839 L29.3362007,15.562724 L28.9448029,15.0594982 C28.0129032,13.8666667 28.0688172,12.0774194 29.1125448,11.0523297 C29.5971326,10.5677419 30.5103943,10.1763441 30.7154122,10.362724 C30.7526882,10.418638 30.6594982,10.7727599 30.5103943,11.1455197 C30.1749104,11.9283154 30.3612903,12.953405 30.9577061,13.6989247 C31.3491039,14.2021505 31.6286738,14.0716846 31.7777778,13.3261649 C31.9082437,12.7111111 32.6724014,12.0960573 33.1010753,12.2451613 C33.3247312,12.3383513 33.3433692,12.4688172 33.1756272,12.897491 C33.0637993,13.1956989 33.0265233,13.5870968 33.1010753,13.7734767 C33.2129032,14.0903226 33.2501792,14.0903226 33.6415771,13.7362007 C34.1261649,13.2888889 35.6358423,13.027957 35.6358423,13.4007168 C35.6358423,13.5311828 35.5053763,13.7362007 35.3376344,13.8666667 C35.1698925,14.0157706 35.0767025,14.3326165 35.1139785,14.6867384 C35.1512545,15.1526882 35.4121864,15.4136201 36.5491039,16.2150538 C39.027957,17.9856631 40.5376344,19.7749104 41.0408602,21.6387097 C41.1899642,22.1232975 41.4508961,22.6451613 41.637276,22.7756272 C41.9541219,22.9992832 41.9541219,23.0365591 41.562724,23.5770609 L41.1526882,24.1175627 L41.674552,24.6580645 C42.1964158,25.1985663 42.1964158,25.1985663 41.8050179,25.4594982 C41.581362,25.6086022 41.3204301,26.018638 41.1899642,26.3727599 C40.8731183,27.3046595 40.0530466,28.4415771 39.065233,29.3175627 C37.8537634,30.3799283 37.5741935,30.2681004 38.7297491,29.1870968 C39.8480287,28.1433692 40.5189964,27.2487455 40.8358423,26.3727599 C41.1899642,25.2917563 40.8731183,25.1426523 38.1892473,25.1426523 C35.6172043,25.1612903 35.0767025,25.3290323 35.0767025,26.1304659 C35.0767025,26.6709677 36.1390681,28.609319 36.49319,28.721147 C36.6236559,28.7584229 36.7354839,28.4229391 36.7913978,27.8451613 C36.8473118,27.3232975 36.9964158,26.7827957 37.1082437,26.6709677 C37.2946237,26.5032258 37.3132616,26.6896057 37.2014337,27.6028674 C37.1082437,28.478853 37.1455197,28.8888889 37.3878136,29.3548387 C37.5555556,29.6903226 37.6673835,29.9885305 37.6301075,30.0071685 C37.5928315,30.0444444 37.1082437,29.6344086 36.5304659,29.0939068 Z M35.1885305,25.1053763 C35.0394265,24.9562724 34.5175627,25.1985663 34.5175627,25.4222222 C34.5175627,25.5526882 34.6293907,25.5526882 34.9089606,25.4222222 C35.1139785,25.2917563 35.2444444,25.1612903 35.1885305,25.1053763 Z M41.0408602,24.8817204 C41.0408602,24.6953405 40.5935484,24.4903226 40.1462366,24.4903226 C39.9039427,24.4903226 39.9225806,24.5462366 40.2207885,24.7698925 C40.6121864,25.0681004 41.0408602,25.1240143 41.0408602,24.8817204 Z M36.5491039,23.6329749 C37.0523297,23.521147 37.1268817,23.427957 37.1268817,22.9247312 C37.1268817,20.4645161 34.9648746,17.2215054 32.8215054,16.4759857 C31.5354839,16.0100358 31.0508961,16.6996416 32.1691756,17.4078853 C33.716129,18.3584229 34.6107527,19.9240143 34.8157706,22.1046595 C34.8716846,22.8501792 34.9835125,23.521147 35.0207885,23.6143369 C35.1139785,23.7820789 35.7663082,23.7820789 36.5491039,23.6329749 Z M38.2078853,23.2415771 C38.1146953,22.7756272 37.6860215,22.7197133 37.6860215,23.1670251 C37.6860215,23.390681 37.7978495,23.5584229 37.9842294,23.5584229 C38.1519713,23.5584229 38.2451613,23.427957 38.2078853,23.2415771 Z M39.2888889,23.1670251 C39.3448029,23.0551971 39.3075269,22.8688172 39.1956989,22.7569892 C39.027957,22.5892473 38.934767,22.6078853 38.8043011,22.8129032 C38.7111111,22.9620072 38.6179211,23.1483871 38.6179211,23.2415771 C38.6179211,23.446595 39.1397849,23.390681 39.2888889,23.1670251 Z M40.4444444,22.5519713 C40.5003584,22.3283154 40.4258065,22.2351254 40.2580645,22.2910394 C40.1275986,22.3469534 39.9784946,22.5333333 39.9598566,22.7010753 C39.9039427,22.9247312 39.9784946,23.0179211 40.1462366,22.9620072 C40.2767025,22.9060932 40.4258065,22.7197133 40.4444444,22.5519713 Z M38.6179211,22.2537634 C38.6179211,21.8623656 38.3383513,21.7505376 38.1519713,22.0673835 C38.0215054,22.2910394 38.1892473,22.6265233 38.4501792,22.6265233 C38.5433692,22.6265233 38.6179211,22.4587814 38.6179211,22.2537634 Z M37.6114695,21.7505376 C37.4250896,21.5641577 37.2573477,21.8437276 37.4250896,22.0860215 C37.5369176,22.2910394 37.5741935,22.2910394 37.6487455,22.0860215 C37.6860215,21.9555556 37.6673835,21.8064516 37.6114695,21.7505376 Z M39.7734767,21.9741935 C39.7734767,21.8810036 39.6802867,21.7691756 39.5684588,21.7318996 C39.4566308,21.6946237 39.3634409,21.8064516 39.3634409,21.9741935 C39.3634409,22.1419355 39.4566308,22.2537634 39.5684588,22.2164875 C39.6802867,22.1792115 39.7734767,22.0673835 39.7734767,21.9741935 Z M38.4501792,20.5204301 C38.0774194,20.1476703 37.8724014,20.725448 38.0401434,21.6946237 C38.0587814,21.7505376 38.1892473,21.5455197 38.3383513,21.2473118 C38.5247312,20.911828 38.5620072,20.6322581 38.4501792,20.5204301 Z M40.2953405,21.4336918 C40.2953405,21.2845878 40.2207885,21.1168459 40.1275986,21.0422939 C39.9039427,20.911828 39.6802867,21.2659498 39.8293907,21.5082437 C39.9971326,21.7878136 40.2953405,21.7318996 40.2953405,21.4336918 Z M39.1770609,21.3218638 C39.1770609,21.2286738 39.102509,21.1354839 38.990681,21.1354839 C38.897491,21.1354839 38.8043011,21.2286738 38.8043011,21.3218638 C38.8043011,21.4336918 38.897491,21.5082437 38.990681,21.5082437 C39.102509,21.5082437 39.1770609,21.4336918 39.1770609,21.3218638 Z M39.4566308,20.1476703 C39.2888889,19.3648746 39.046595,19.1412186 38.7670251,19.4394265 C38.5620072,19.6258065 38.5806452,19.7189964 38.8415771,19.9053763 C39.027957,20.0358423 39.121147,20.2035842 39.065233,20.2594982 C38.878853,20.4458781 39.1584229,20.9863799 39.3820789,20.855914 C39.4939068,20.781362 39.5125448,20.4831541 39.4566308,20.1476703 Z M37.3132616,19.9240143 C37.3132616,19.7749104 37.2387097,19.6444444 37.1268817,19.6444444 C37.0336918,19.6444444 36.9405018,19.7749104 36.9405018,19.9240143 C36.9405018,20.0731183 37.0336918,20.2035842 37.1268817,20.2035842 C37.2387097,20.2035842 37.3132616,20.0731183 37.3132616,19.9240143 Z M38.2451613,19.9240143 C38.2451613,19.7749104 38.1706093,19.6444444 38.0774194,19.6444444 C37.8351254,19.6444444 37.6673835,19.9426523 37.8164875,20.0917563 C38.0215054,20.2967742 38.2451613,20.2035842 38.2451613,19.9240143 Z M36.8286738,19.2530466 C36.7727599,19.1598566 36.6422939,19.1225806 36.5491039,19.1971326 C36.455914,19.2530466 36.418638,19.3835125 36.49319,19.4767025 C36.5491039,19.5698925 36.6795699,19.6071685 36.7727599,19.5326165 C36.8659498,19.4767025 36.9032258,19.3462366 36.8286738,19.2530466 Z M37.6860215,19.1784946 C37.6860215,19.0293907 37.6114695,18.8989247 37.4996416,18.8989247 C37.4064516,18.8989247 37.3132616,19.0293907 37.3132616,19.1784946 C37.3132616,19.3275986 37.4064516,19.4580645 37.4996416,19.4580645 C37.6114695,19.4580645 37.6860215,19.3275986 37.6860215,19.1784946 Z M38.6179211,19.0107527 C38.6179211,18.8616487 38.5433692,18.6939068 38.4501792,18.6193548 C38.2265233,18.4888889 38.0028674,18.8430108 38.1519713,19.0853047 C38.3197133,19.3648746 38.6179211,19.3089606 38.6179211,19.0107527 Z M36.381362,18.7125448 C36.381362,18.6193548 36.30681,18.5261649 36.1949821,18.5261649 C36.1017921,18.5261649 36.0086022,18.6193548 36.0086022,18.7125448 C36.0086022,18.8243728 36.1017921,18.8989247 36.1949821,18.8989247 C36.30681,18.8989247 36.381362,18.8243728 36.381362,18.7125448 Z M32.5605735,18.5261649 C32.6164875,18.4329749 32.5792115,18.3397849 32.4860215,18.3397849 C32.3741935,18.3397849 32.2810036,18.4329749 32.2810036,18.5261649 C32.2810036,18.6379928 32.3182796,18.7125448 32.3555556,18.7125448 C32.4114695,18.7125448 32.5046595,18.6379928 32.5605735,18.5261649 Z M37.1268817,18.5261649 C37.1268817,18.4329749 37.0523297,18.3397849 36.9405018,18.3397849 C36.8473118,18.3397849 36.7541219,18.4329749 36.7541219,18.5261649 C36.7541219,18.6379928 36.8473118,18.7125448 36.9405018,18.7125448 C37.0523297,18.7125448 37.1268817,18.6379928 37.1268817,18.5261649 Z M38.0587814,18.172043 C38.0587814,18.078853 37.9469534,17.9111111 37.7978495,17.7992832 C37.4996416,17.5569892 37.2014337,17.8365591 37.4064516,18.153405 C37.5555556,18.3770609 38.0587814,18.3956989 38.0587814,18.172043 Z M31.3491039,17.8924731 C31.3491039,17.8365591 31.274552,17.7433692 31.162724,17.6874552 C31.0695341,17.6315412 30.9763441,17.6688172 30.9763441,17.7620072 C30.9763441,17.8738351 31.0695341,17.9670251 31.162724,17.9670251 C31.274552,17.9670251 31.3491039,17.9297491 31.3491039,17.8924731 Z M36.7541219,17.7806452 C36.7541219,17.6874552 36.6795699,17.5942652 36.5677419,17.5942652 C36.474552,17.5942652 36.381362,17.6874552 36.381362,17.7806452 C36.381362,17.8924731 36.474552,17.9670251 36.5677419,17.9670251 C36.6795699,17.9670251 36.7541219,17.8924731 36.7541219,17.7806452 Z M36.1204301,17.3892473 C36.30681,17.0724014 35.8781362,16.7182796 35.6172043,16.9792115 C35.3935484,17.2028674 35.5426523,17.5942652 35.8222222,17.5942652 C35.9154122,17.5942652 36.0458781,17.5010753 36.1204301,17.3892473 Z M37.1268817,17.2215054 C37.1268817,17.1283154 37.0523297,17.0351254 36.9405018,17.0351254 C36.8473118,17.0351254 36.7541219,17.1283154 36.7541219,17.2215054 C36.7541219,17.3333333 36.8473118,17.4078853 36.9405018,17.4078853 C37.0523297,17.4078853 37.1268817,17.3333333 37.1268817,17.2215054 Z M34.5175627,16.8487455 C34.5175627,16.7555556 34.4243728,16.6623656 34.3125448,16.6623656 C34.2193548,16.6623656 34.1820789,16.7555556 34.2379928,16.8487455 C34.2939068,16.9605735 34.3870968,17.0351254 34.4430108,17.0351254 C34.4802867,17.0351254 34.5175627,16.9605735 34.5175627,16.8487455 Z M35.0953405,16.2336918 C34.9462366,16.0845878 34.8903226,16.1032258 34.8903226,16.3082437 C34.8903226,16.6810036 35.1326165,16.9419355 35.2258065,16.6623656 C35.2817204,16.5318996 35.2071685,16.3455197 35.0953405,16.2336918 Z M31.5354839,15.8982079 C31.9827957,15.0408602 31.9455197,14.4817204 31.4795699,15.1713262 C31.162724,15.674552 30.8645161,16.6623656 31.0508961,16.6623656 C31.10681,16.6623656 31.3304659,16.3268817 31.5354839,15.8982079 Z M36.1949821,16.4759857 C36.1949821,16.3827957 36.0645161,16.2896057 35.9154122,16.2896057 C35.7663082,16.2896057 35.6358423,16.3827957 35.6358423,16.4759857 C35.6358423,16.5878136 35.7663082,16.6623656 35.9154122,16.6623656 C36.0645161,16.6623656 36.1949821,16.5878136 36.1949821,16.4759857 Z M33.6043011,15.8609319 C33.4551971,15.711828 33.3992832,15.7304659 33.3992832,15.9354839 C33.3992832,16.3082437 33.6415771,16.5691756 33.734767,16.2896057 C33.790681,16.1591398 33.716129,15.9727599 33.6043011,15.8609319 Z M34.4243728,16.1218638 C34.4802867,16.0286738 34.4430108,15.8982079 34.3311828,15.8236559 C34.2379928,15.7677419 34.1448029,15.8422939 34.1448029,15.9913978 C34.1448029,16.3268817 34.2566308,16.3827957 34.4243728,16.1218638 Z M35.0767025,15.7304659 C35.0767025,15.637276 34.9835125,15.544086 34.8716846,15.544086 C34.7784946,15.544086 34.7412186,15.637276 34.7971326,15.7304659 C34.8530466,15.8422939 34.9462366,15.9168459 35.0021505,15.9168459 C35.0394265,15.9168459 35.0767025,15.8422939 35.0767025,15.7304659 Z M33.2129032,15.3390681 C33.2129032,15.2458781 33.1383513,15.1713262 33.0265233,15.1713262 C32.9333333,15.1713262 32.8401434,15.3017921 32.8401434,15.4695341 C32.8401434,15.618638 32.9333333,15.69319 33.0265233,15.637276 C33.1383513,15.581362 33.2129032,15.4508961 33.2129032,15.3390681 Z M34.5548387,13.6430108 C34.3870968,13.4752688 33.5856631,14.1275986 33.5856631,14.4258065 C33.5856631,14.7612903 33.9584229,14.8172043 33.9770609,14.4817204 C33.9770609,14.2207885 34.0143369,14.2207885 34.0888889,14.4258065 C34.3498208,15.2086022 34.3870968,15.2272401 34.5548387,14.5376344 C34.6293907,14.1275986 34.6480287,13.7362007 34.5548387,13.6430108 Z M32.3928315,14.0903226 C32.4114695,13.8107527 32.4860215,13.3820789 32.5605735,13.1397849 C32.6724014,12.8043011 32.6537634,12.7111111 32.4487455,12.7856631 C32.1318996,12.897491 31.8150538,14.0716846 31.9827957,14.5189964 C32.1505376,14.9476703 32.3741935,14.7053763 32.3928315,14.0903226 Z" id="Shape"></path>
                            <path d="M38.7297491,27.1741935 C38.5620072,27.0250896 38.4315412,26.8200717 38.4315412,26.7268817 C38.4315412,26.6336918 38.5620072,26.4286738 38.7297491,26.2795699 C38.878853,26.111828 39.083871,25.981362 39.1770609,25.981362 C39.2702509,25.981362 39.4752688,26.111828 39.6243728,26.2795699 C39.7921147,26.4286738 39.9225806,26.6336918 39.9225806,26.7268817 C39.9225806,26.8200717 39.7921147,27.0250896 39.6243728,27.1741935 C39.4752688,27.3419355 39.2702509,27.4724014 39.1770609,27.4724014 C39.083871,27.4724014 38.878853,27.3419355 38.7297491,27.1741935 Z M39.2516129,26.7082437 C39.1956989,26.6150538 39.065233,26.5777778 38.972043,26.6523297 C38.878853,26.7082437 38.8415771,26.8387097 38.916129,26.9318996 C38.972043,27.0250896 39.102509,27.0623656 39.1956989,26.9878136 C39.2888889,26.9318996 39.3261649,26.8014337 39.2516129,26.7082437 Z" id="Shape"></path>
                            <path d="M10.7354839,41.0408602 C8.94623656,39.1956989 7.809319,37.6114695 6.78422939,35.5799283 C5.42365591,32.8401434 4.58494624,29.6157706 5.23727599,29.6157706 C5.40501792,29.6157706 5.61003584,30.1189964 5.85232975,31.144086 C6.18781362,32.5978495 6.5046595,33.0451613 6.97060932,32.7655914 C7.15698925,32.6537634 7.08243728,32.0014337 6.84014337,31.3677419 C6.7655914,31.162724 6.84014337,31.0322581 7.10107527,30.9577061 C7.41792115,30.8831541 7.5297491,30.9949821 7.71612903,31.5913978 C7.95842294,32.4114695 8.48028674,32.5232975 8.5734767,31.7964158 C8.66666667,31.181362 8.20071685,30.5849462 7.32473118,30.1749104 C6.89605735,29.9885305 6.56057348,29.7275986 6.56057348,29.5784946 C6.56057348,29.2243728 8.68530466,30.3053763 9.05806452,30.8645161 C9.48673835,31.4795699 9.44946237,32.6351254 8.98351254,32.8774194 C8.72258065,33.0265233 8.49892473,33.0265233 8.21935484,32.8587814 C7.90250896,32.6910394 7.790681,32.7283154 7.5483871,33.0637993 C7.36200717,33.3247312 7.13835125,33.4365591 6.89605735,33.3806452 C6.61648746,33.3060932 6.56057348,33.3433692 6.67240143,33.678853 C6.85878136,34.3311828 8.48028674,37.3505376 8.62939068,37.3505376 C9.07670251,37.3505376 8.92759857,36.8100358 8.18207885,35.5799283 C7.5483871,34.5548387 7.39928315,34.1820789 7.58566308,34.1075269 C7.73476703,34.0516129 7.90250896,34.1634409 7.95842294,34.3870968 C8.0702509,34.7225806 8.10752688,34.7225806 8.48028674,34.4616487 C8.94623656,34.1448029 9.67311828,34.1075269 10.362724,34.3684588 C10.9591398,34.5921147 11.0150538,35.0021505 10.437276,34.8157706 C9.20716846,34.4057348 8.70394265,34.8903226 9.26308244,35.9340502 C9.46810036,36.30681 9.67311828,36.6050179 9.72903226,36.6050179 C9.78494624,36.6050179 10.0645161,36.455914 10.344086,36.2508961 C10.8473118,35.9340502 11.6860215,35.9154122 11.8724014,36.2322581 C11.9283154,36.325448 11.3318996,36.7541219 10.5677419,37.2014337 C9.80358423,37.6301075 9.16989247,38.0587814 9.16989247,38.1333333 C9.16989247,38.3383513 11.0336918,40.5189964 11.2014337,40.5189964 C11.2946237,40.5189964 11.4623656,40.4071685 11.5741935,40.2580645 C11.7419355,40.0530466 11.6860215,39.9412186 11.3132616,39.6989247 C10.7168459,39.3075269 10.7168459,38.878853 11.3132616,38.7297491 C11.8164875,38.5992832 14.1462366,38.953405 14.5749104,39.2143369 C15.0967742,39.5498208 14.5935484,39.6057348 13.5684588,39.3448029 L12.5247312,39.065233 L12.5247312,39.6802867 C12.5247312,40.1275986 12.3942652,40.4071685 12.0587814,40.6867384 L11.5741935,41.0594982 L12.2265233,41.562724 C12.7111111,41.9541219 12.8229391,42.1405018 12.6738351,42.3268817 C12.5620072,42.4573477 12.4129032,42.5691756 12.3569892,42.5691756 C12.2824373,42.5691756 11.5555556,41.8795699 10.7354839,41.0408602 Z" id="Path"></path>
                            <path d="M12.953405,11.3691756 C12.990681,10.6795699 12.953405,10.6236559 12.3383513,10.455914 L11.6860215,10.2695341 L12.3383513,10.0458781 C12.953405,9.84086022 12.990681,9.76630824 12.953405,9.0953405 C12.916129,8.40573477 12.916129,8.38709677 13.1956989,8.74121864 C13.3448029,8.94623656 13.5498208,9.22580645 13.6430108,9.37491039 C13.7548387,9.59856631 13.8853047,9.59856631 14.3698925,9.39354839 C15.1340502,9.07670251 15.2458781,9.22580645 14.6681004,9.76630824 L14.2207885,10.1949821 L14.7053763,10.8100358 L15.1713262,11.4437276 L14.4817204,11.1455197 C13.8853047,10.9032258 13.7362007,10.9032258 13.6243728,11.1082437 C13.5498208,11.2387097 13.3448029,11.5182796 13.1956989,11.7232975 C12.916129,12.0774194 12.916129,12.0587814 12.953405,11.3691756 Z M13.6616487,10.2695341 C13.6430108,10.0458781 13.3820789,10.1017921 13.3075269,10.344086 C13.2516129,10.455914 13.3261649,10.5304659 13.4566308,10.49319 C13.5684588,10.437276 13.6616487,10.344086 13.6616487,10.2695341 Z" id="Shape"></path>
                            <path d="M38.2451613,11.2387097 C37.9469534,10.8473118 37.7419355,10.7168459 37.5182796,10.7913978 C37.3505376,10.8659498 37.0523297,10.9777778 36.8473118,11.0336918 C36.511828,11.1268817 36.511828,11.0896057 36.9218638,10.6422939 C37.3691756,10.1390681 37.3691756,9.98996416 36.8286738,9.24444444 L36.5304659,8.8344086 L37.1455197,9.0953405 C37.7605735,9.37491039 37.7978495,9.3562724 38.2637993,8.79713262 L38.7670251,8.20071685 L38.7297491,8.90896057 C38.7111111,9.57992832 38.7670251,9.65448029 39.3448029,9.84086022 L39.9784946,10.0645161 L39.3448029,10.2508961 C38.7670251,10.418638 38.7111111,10.49319 38.7297491,11.1268817 C38.7483871,11.4996416 38.7297491,11.8164875 38.6924731,11.8164875 C38.6738351,11.8164875 38.4688172,11.5555556 38.2451613,11.2387097 Z M38.4315412,9.93405018 C38.4315412,9.84086022 38.3010753,9.76630824 38.1519713,9.76630824 C37.8724014,9.76630824 37.7792115,9.98996416 37.9842294,10.1949821 C38.1333333,10.344086 38.4315412,10.1763441 38.4315412,9.93405018 Z" id="Shape"></path>
                        </g>
                    </g>
                </g>
            </g>
        </g>
    </g>
</svg>