<?xml version="1.0" encoding="UTF-8"?>
<svg width="36px" height="39px" viewBox="0 0 36 39" version="1.1" xmlns="http://www.w3.org/2000/svg" xmlns:xlink="http://www.w3.org/1999/xlink">
    <!-- Generator: sketchtool 63.1 (101010) - https://sketch.com -->
    <title>A643BC6E-B90D-4B10-851E-197FDC0475C5@1x</title>
    <desc>Created with sketchtool.</desc>
    <g id="Page-1" stroke="none" stroke-width="1" fill="none" fill-rule="evenodd">
        <g id="A_Homepage" transform="translate(-932.000000, -465.000000)" fill="#FF8E05">
            <g id="Group-7" transform="translate(-0.000000, 0.000000)">
                <g id="Chunk-1" transform="translate(83.000000, 156.000000)">
                    <g id="Group-6" transform="translate(0.000000, 90.000000)">
                        <g id="Group" transform="translate(0.000000, 196.000000)">
                            <g id="Card-1-Copy" transform="translate(816.000000, 0.000000)">
                                <g id="A" transform="translate(29.000000, 23.000000)">
                                    <g id="Group-9" transform="translate(4.000000, 0.000000)">
                                        <polygon id="Amethi" points="18.4897959 8 19.4897959 7 19.4897959 9 21.4897959 9 20.4897959 10 23.4897959 13 24.4897959 12 24.4897959 14 26.4897959 14 25.4897959 17 23.4897959 17 24.4897959 20 26.4897959 20 32.4897959 27 34.4897959 27 33.4897959 29 35.4897959 31 27.4897959 31 22.4897959 34 21.4897959 31 19.4897959 30 19.4897959 32 15.4897959 26 15.4897959 28 13.4897959 28 10.4897959 33 12.4897959 33 11.4897959 34 13.4897959 34 12.4897959 35 14.4897959 37 9.48979592 37 9.48979592 39 7.48979592 39 0.489795918 33 3.48979592 30 3.48979592 20 5.48979592 18 3.48979592 17 5.48979592 17 5.48979592 13 2.48979592 7 4.48979592 4 11.4897959 7 12.4897959 0 16.4897959 2 16.4897959 4 18.4897959 4 18.4897959 7"></polygon>
                                    </g>
                                </g>
                            </g>
                        </g>
                    </g>
                </g>
            </g>
        </g>
    </g>
</svg>