<?xml version="1.0" encoding="UTF-8"?>
<svg width="5px" height="12px" viewBox="0 0 5 12" version="1.1" xmlns="http://www.w3.org/2000/svg" xmlns:xlink="http://www.w3.org/1999/xlink">
    <!-- Generator: sketchtool 57.1 (101010) - https://sketch.com -->
    <title>D201BAA1-02DB-4A04-B178-DB4245AEC630@1x</title>
    <desc>Created with sketchtool.</desc>
    <g id="Page-1" stroke="none" stroke-width="1" fill="none" fill-rule="evenodd">
        <g id="A_Programs-Home" transform="translate(-255.000000, -261.000000)" fill="#9B9B9B" fill-rule="nonzero">
            <g id="Group-5" transform="translate(9.000000, 142.000000)">
                <g id="Card-1">
                    <g id="c2a" transform="translate(185.000000, 104.000000)">
                        <g id="Group-2" transform="translate(0.000000, 10.000000)">
                            <path d="M58.9853857,13.9137573 C59.4282892,13.9162025 61.4437799,14.1639015 65.0318577,14.6568542 C65.3767157,14.6568542 65.6568542,14.3767157 65.6568542,14.0318577 C65.6568542,13.6869985 65.3767143,13.4068572 65.0318577,13.4068572 L59.613962,12.6997505 L58.9068552,7.28185475 C58.9068552,6.93699685 58.6267127,6.65685425 58.2818547,6.65685425 C57.9369968,6.65685425 57.6568542,6.93699685 57.6568542,7.28185475 L58.363961,13.288751 C58.363961,13.6329318 58.6417051,13.912091 58.9853857,13.9137573 Z" id="Path" transform="translate(61.656854, 10.656854) scale(-1, 1) rotate(-315.000000) translate(-61.656854, -10.656854) "></path>
                        </g>
                    </g>
                </g>
            </g>
        </g>
    </g>
</svg>