<?xml version="1.0" encoding="UTF-8"?>
<svg width="23px" height="22px" viewBox="0 0 23 22" version="1.1" xmlns="http://www.w3.org/2000/svg" xmlns:xlink="http://www.w3.org/1999/xlink">
    <!-- Generator: sketchtool 50.2 (55047) - http://www.bohemiancoding.com/sketch -->
    <title>9C0592DC-3806-4744-82FF-BC18BB551203@1.5x</title>
    <desc>Created with sketchtool.</desc>
    <defs>
        <polygon id="path-1" points="0.00260869565 0.0271304348 22.2608696 0.0271304348 22.2608696 22 0.00260869565 22"></polygon>
    </defs>
    <g id="Page-1" stroke="none" stroke-width="1" fill="none" fill-rule="evenodd">
        <g id="Rev1.4-Summary-1" transform="translate(-17.000000, -126.000000)">
            <g id="calendar" transform="translate(17.000000, 126.000000)">
                <g id="Group-3">
                    <mask id="mask-2" fill="white">
                        <use xlink:href="#path-1"></use>
                    </mask>
                    <g id="Clip-2"></g>
                    <path d="M21.0892609,21.1154348 L1.17165217,21.1154348 C1.01256522,21.1154348 0.87873913,20.980087 0.87873913,20.8204783 L0.87873913,7.0636087 L21.3821304,7.0636087 L21.3821304,20.8204783 C21.3821304,20.980087 21.2476522,21.1154348 21.0892609,21.1154348 Z M0.87873913,2.95908696 C0.87873913,2.79913043 1.01256522,2.66413043 1.17165217,2.66413043 L4.97586957,2.66413043 L4.97586957,4.30382609 C4.97586957,4.54808696 5.17273913,4.74608696 5.41526087,4.74608696 C5.65778261,4.74608696 5.8546087,4.54808696 5.8546087,4.30382609 L5.8546087,2.66413043 L16.4027826,2.66413043 L16.4027826,4.30382609 C16.4027826,4.54808696 16.5996087,4.74608696 16.8421304,4.74608696 C17.0846522,4.74608696 17.2815217,4.54808696 17.2815217,4.30382609 L17.2815217,2.66413043 L21.0893043,2.66413043 C21.2477826,2.66413043 21.3821739,2.79917391 21.3821739,2.95908696 L21.3821739,6.17895652 L0.87873913,6.17895652 L0.87873913,2.95908696 Z M21.0892609,1.77921739 L17.2814348,1.77921739 L17.2814348,0.469391304 C17.2814348,0.225130435 17.0846087,0.0271304348 16.842087,0.0271304348 C16.5995652,0.0271304348 16.4027391,0.225130435 16.4027391,0.469391304 L16.4027391,1.77956522 L5.8546087,1.77956522 L5.8546087,0.469391304 C5.8546087,0.225130435 5.65778261,0.0271304348 5.41526087,0.0271304348 C5.17273913,0.0271304348 4.97586957,0.225130435 4.97586957,0.469391304 L4.97586957,1.77956522 L1.17165217,1.77956522 C0.526956522,1.77956522 0,2.3106087 0,2.95908696 L0,20.8204783 C0,21.4692609 0.526956522,22 1.17165217,22 L21.0892174,22 C21.7333478,22 22.2608696,21.4689565 22.2608696,20.8204783 L22.2608696,2.95908696 C22.2608696,2.31030435 21.7333478,1.77921739 21.0892609,1.77921739 Z" id="Fill-1" fill="#0776FF" mask="url(#mask-2)"></path>
                </g>
                <path d="M10.111087,9.98469565 L8.06134783,9.98469565 C7.81882609,9.98469565 7.622,10.183 7.622,10.4272609 C7.622,10.6715217 7.81882609,10.8698696 8.06134783,10.8698696 L10.111087,10.8698696 C10.3536087,10.8698696 10.5504783,10.6715217 10.5504783,10.4272609 C10.5504783,10.183 10.3536087,9.98469565 10.111087,9.98469565" id="Fill-4" fill="#0776FF"></path>
                <path d="M14.2117826,9.98469565 L12.1613913,9.98469565 C11.9188696,9.98469565 11.7220435,10.183 11.7220435,10.4272609 C11.7220435,10.6715217 11.9188696,10.8698696 12.1613913,10.8698696 L14.2117826,10.8698696 C14.4543043,10.8698696 14.6511304,10.6715217 14.6511304,10.4272609 C14.6511304,10.183 14.4543043,9.98469565 14.2117826,9.98469565" id="Fill-5" fill="#0776FF"></path>
                <path d="M18.3124348,9.98469565 L16.262087,9.98469565 C16.0195652,9.98469565 15.8227391,10.183 15.8227391,10.4272609 C15.8227391,10.6715217 16.0195652,10.8698696 16.262087,10.8698696 L18.3124348,10.8698696 C18.555,10.8698696 18.7518261,10.6715217 18.7518261,10.4272609 C18.7518261,10.183 18.555,9.98469565 18.3124348,9.98469565" id="Fill-6" fill="#0776FF"></path>
                <path d="M10.111087,12.6208696 L8.06134783,12.6208696 C7.81882609,12.6208696 7.622,12.8191739 7.622,13.0634348 C7.622,13.3076957 7.81882609,13.506 8.06134783,13.506 L10.111087,13.506 C10.3536087,13.506 10.5504783,13.3076957 10.5504783,13.0634348 C10.5504783,12.8191739 10.3536087,12.6208696 10.111087,12.6208696" id="Fill-7" fill="#0776FF"></path>
                <path d="M14.2117826,12.6208696 L12.1613913,12.6208696 C11.9188696,12.6208696 11.7220435,12.8191739 11.7220435,13.0634348 C11.7220435,13.3076957 11.9188696,13.506 12.1613913,13.506 L14.2117826,13.506 C14.4543043,13.506 14.6511304,13.3076957 14.6511304,13.0634348 C14.6511304,12.8191739 14.4543043,12.6208696 14.2117826,12.6208696" id="Fill-8" fill="#0776FF"></path>
                <path d="M18.3124348,12.6208696 L16.262087,12.6208696 C16.0195652,12.6208696 15.8227391,12.8191739 15.8227391,13.0634348 C15.8227391,13.3076957 16.0195652,13.506 16.262087,13.506 L18.3124348,13.506 C18.555,13.506 18.7518261,13.3076957 18.7518261,13.0634348 C18.7518261,12.8191739 18.555,12.6208696 18.3124348,12.6208696" id="Fill-9" fill="#0776FF"></path>
                <path d="M5.71782609,12.6208696 L3.66747826,12.6208696 C3.42495652,12.6208696 3.22808696,12.8191739 3.22808696,13.0634348 C3.22808696,13.3076957 3.42495652,13.506 3.66747826,13.506 L5.71782609,13.506 C5.95978261,13.506 6.15721739,13.3076957 6.15721739,13.0634348 C6.15713043,12.8191739 5.96004348,12.6208696 5.71782609,12.6208696" id="Fill-10" fill="#0776FF"></path>
                <path d="M10.111087,15.2573043 L8.06134783,15.2573043 C7.81882609,15.2573043 7.622,15.4553043 7.622,15.6995652 C7.622,15.9438696 7.81882609,16.1421739 8.06134783,16.1421739 L10.111087,16.1421739 C10.3536087,16.1421739 10.5504783,15.9438696 10.5504783,15.6995652 C10.5504783,15.4553043 10.3536087,15.2573043 10.111087,15.2573043" id="Fill-11" fill="#0776FF"></path>
                <path d="M14.2117826,15.2573043 L12.1613913,15.2573043 C11.9188696,15.2573043 11.7220435,15.4553043 11.7220435,15.6995652 C11.7220435,15.9438696 11.9188696,16.1421739 12.1613913,16.1421739 L14.2117826,16.1421739 C14.4543043,16.1421739 14.6511304,15.9438696 14.6511304,15.6995652 C14.6511304,15.4553043 14.4543043,15.2573043 14.2117826,15.2573043" id="Fill-12" fill="#0776FF"></path>
                <path d="M18.3124348,15.2573043 L16.262087,15.2573043 C16.0195652,15.2573043 15.8227391,15.4553043 15.8227391,15.6995652 C15.8227391,15.9438696 16.0195652,16.1421739 16.262087,16.1421739 L18.3124348,16.1421739 C18.555,16.1421739 18.7518261,15.9438696 18.7518261,15.6995652 C18.7518261,15.4553043 18.555,15.2573043 18.3124348,15.2573043" id="Fill-13" fill="#0776FF"></path>
                <path d="M5.71782609,15.2573043 L3.66747826,15.2573043 C3.42495652,15.2573043 3.22808696,15.4553043 3.22808696,15.6995652 C3.22808696,15.9438696 3.42495652,16.1421739 3.66747826,16.1421739 L5.71782609,16.1421739 C5.95978261,16.1421739 6.15721739,15.9438696 6.15721739,15.6995652 C6.15721739,15.4553043 5.96004348,15.2573043 5.71782609,15.2573043" id="Fill-14" fill="#0776FF"></path>
                <path d="M5.71782609,17.8934783 L3.66747826,17.8934783 C3.42495652,17.8934783 3.22808696,18.0914783 3.22808696,18.3357391 C3.22808696,18.58 3.42495652,18.7783043 3.66747826,18.7783043 L5.71782609,18.7783043 C5.95978261,18.7783043 6.15721739,18.58 6.15721739,18.3357391 C6.15713043,18.0914783 5.96004348,17.8934783 5.71782609,17.8934783" id="Fill-15" fill="#0776FF"></path>
                <path d="M9.81821739,17.8934783 L7.76847826,17.8934783 C7.52595652,17.8934783 7.32908696,18.0914783 7.32908696,18.3357391 C7.32908696,18.58 7.52595652,18.7783043 7.76847826,18.7783043 L9.81821739,18.7783043 C10.0607391,18.7783043 10.2575652,18.58 10.2575652,18.3357391 C10.2575652,18.0914783 10.0607391,17.8934783 9.81821739,17.8934783" id="Fill-16" fill="#0776FF"></path>
                <path d="M13.9188696,17.8934783 L11.8685217,17.8934783 C11.626,17.8934783 11.4291304,18.0914783 11.4291304,18.3357391 C11.4291304,18.58 11.626,18.7783043 11.8685217,18.7783043 L13.9188696,18.7783043 C14.1613913,18.7783043 14.3582609,18.58 14.3582609,18.3357391 C14.3582609,18.0914783 14.1613913,17.8934783 13.9188696,17.8934783" id="Fill-17" fill="#0776FF"></path>
            </g>
        </g>
    </g>
</svg>