<?xml version="1.0" encoding="UTF-8"?>
<svg width="36px" height="41px" viewBox="0 0 36 41" version="1.1" xmlns="http://www.w3.org/2000/svg" xmlns:xlink="http://www.w3.org/1999/xlink">
    <!-- Generator: sketchtool 63.1 (101010) - https://sketch.com -->
    <title>9194C26E-B35C-481D-A4D3-46F4E8D9AC38@1x</title>
    <desc>Created with sketchtool.</desc>
    <g id="Page-1" stroke="none" stroke-width="1" fill="none" fill-rule="evenodd">
        <g id="A_Homepage" transform="translate(-112.000000, -459.000000)" fill-rule="nonzero">
            <g id="Group-7" transform="translate(-0.000000, 0.000000)">
                <g id="Chunk-1" transform="translate(83.000000, 156.000000)">
                    <g id="Group-6" transform="translate(0.000000, 90.000000)">
                        <g id="Group" transform="translate(0.000000, 196.000000)">
                            <g id="Card-1-Copy">
                                <g id="A" transform="translate(29.000000, 17.000000)">
                                    <g id="Group-9">
                                        <g id="Cm-dashboard" transform="translate(0.253080, 0.500000)">
                                            <circle id="Oval" fill="#A39A94" cx="17.618807" cy="7.74241353" r="7.74241353"></circle>
                                            <path d="M6.16752551,40 C6.5730356,37.1088882 7.17838178,34.4620704 7.98086962,32.1210692 C8.2121406,31.4465663 8.46002717,30.7985585 8.72228397,30.1774949 L8.72228397,40 L26.353665,40 L26.353665,29.9138909 C26.6671157,30.6288101 26.9621546,31.380104 27.2356382,32.1686706 C28.0421677,34.5002414 28.6515555,37.1313417 29.0624544,40 L35.236716,40 C33.8261875,29.0889495 29.863595,21.0079373 23.891864,17.4360356 C23.0000112,16.9020915 22.0780708,16.487151 21.140862,16.1903158 L20.5862607,19.0010441 L17.6241959,16.0389793 L14.661682,19.0010441 L14.1003447,16.1575337 C13.1325991,16.455267 12.1814691,16.8778418 11.2617741,17.4279524 C5.32641766,20.9809931 1.39301472,29.0655979 7.10542736e-15,40 L6.16752551,40 Z M20.4510907,19.6858756 L19.0845711,34.0305143 C19.0140671,31.9935334 18.7940229,22.8087075 18.4850628,21.6519035 L20.4510907,19.6858756 Z M16.7624308,21.6519035 C16.4534707,22.8087075 16.2329774,31.9939825 16.1633716,34.0314124 L14.7973011,19.6863247 L16.7624308,21.6519035 Z" id="Shape" fill="#0072FF"></path>
                                        </g>
                                    </g>
                                </g>
                            </g>
                        </g>
                    </g>
                </g>
            </g>
        </g>
    </g>
</svg>