<?xml version="1.0" encoding="UTF-8"?>
<svg width="30px" height="40px" viewBox="0 0 30 40" version="1.1" xmlns="http://www.w3.org/2000/svg" xmlns:xlink="http://www.w3.org/1999/xlink">
    <!-- Generator: sketchtool 63.1 (101010) - https://sketch.com -->
    <title>0FD61868-4391-4860-9F66-9CF9B3482DE2@1x</title>
    <desc>Created with sketchtool.</desc>
    <g id="Page-1" stroke="none" stroke-width="1" fill="none" fill-rule="evenodd">
        <g id="A_Homepage" transform="translate(-524.000000, -267.000000)">
            <g id="Group-7" transform="translate(-0.000000, 0.000000)">
                <g id="Chunk-1" transform="translate(83.000000, 156.000000)">
                    <g id="Group-6" transform="translate(0.000000, 90.000000)">
                        <g id="Group-15">
                            <g id="Card-1-Copy" transform="translate(408.000000, 0.000000)">
                                <g id="A" transform="translate(29.000000, 21.000000)">
                                    <g id="Group-9" transform="translate(4.000000, 0.000000)">
                                        <g id="Cmo-Cms" transform="translate(0.500000, 0.000000)">
                                            <path d="M19.425,20.665 C19.425,24.295 16.53,39.4 16.53,39.4 L15.5,25.335 L13.445,25.335 L12.38,39.4 C12.38,39.4 9.575,24.46 9.575,20.665 C7.94,20.705 5.075,21.475 3.89,22.715 C0.815,25.89 0.115,34.92 0,40 L29,40 C28.865,34.905 28.155,25.85 25.065,22.685 C23.885,21.46 21.045,20.705 19.425,20.665 Z" id="Path" fill="#FF8E05" fill-rule="nonzero"></path>
                                            <path d="M23,29 L22.9997279,30.608 L24.6087279,30.6087279 L24.6087279,32.3912721 L22.9997279,32.391 L23,34 L21.2174558,34 L21.2167279,32.391 L19.6087279,32.3912721 L19.6087279,30.6087279 L21.2167279,30.608 L21.2174558,29 L23,29 Z" id="Combined-Shape" fill="#FFFFFF"></path>
                                            <path d="M14.5013465,-1.42108547e-14 C10.6913465,-1.42108547e-14 7.12634647,2.65 6.50134647,6.115 C6.33134647,7 6.04134647,9.455 7.37634647,14.5 C8.15134647,17.43 10.6913465,19.78 14.5013465,19.78 C18.3113465,19.78 20.8463465,17.435 21.6213465,14.5 C22.9563465,9.45 22.6663465,7 22.5063465,6.11 C21.8713465,2.65 18.3063465,-1.42108547e-14 14.5013465,-1.42108547e-14" id="Path" fill="#A39A94" fill-rule="nonzero"></path>
                                            <polygon id="Path" fill="#0072FF" fill-rule="nonzero" points="12.325 21.46 16.39 21.46 15.475 24.12 13.445 24.115"></polygon>
                                        </g>
                                    </g>
                                </g>
                            </g>
                        </g>
                    </g>
                </g>
            </g>
        </g>
    </g>
</svg>