<?xml version="1.0" encoding="UTF-8"?>
<svg width="12px" height="12px" viewBox="0 0 12 12" version="1.1" xmlns="http://www.w3.org/2000/svg" xmlns:xlink="http://www.w3.org/1999/xlink">
    <!-- Generator: sketchtool 56.2 (101010) - https://sketch.com -->
    <title>8A759D64-715E-4B80-AE10-EA8ED766C5E0@1x</title>
    <desc>Created with sketchtool.</desc>
    <g id="Page-1" stroke="none" stroke-width="1" fill="none" fill-rule="evenodd">
        <g id="NEW_Score-Matrix_-Page" transform="translate(-1028.000000, -54.000000)" fill="#B9C4D6" fill-rule="nonzero">
            <g id="Total-Header">
                <g id="Compare" transform="translate(194.000000, 34.000000)">
                    <path d="M845.73868,21.5350226 C846.086528,21.187175 846.085838,20.6225129 845.739125,20.2758004 L845.7242,20.2608745 C845.376598,19.9132729 844.813635,19.9126624 844.464977,20.2613198 L840.629834,24.0964634 C840.281986,24.444311 839.718824,24.4451209 839.370166,24.0964634 L835.535023,20.2613198 C835.187175,19.9134722 834.622513,19.914162 834.2758,20.2608745 L834.260875,20.2758004 C833.913273,20.6234021 833.912662,21.1863652 834.26132,21.5350226 L838.096463,25.3701662 C838.444311,25.7180138 838.445121,26.2811763 838.096463,26.6298338 L834.26132,30.4649774 C833.913472,30.812825 833.914162,31.3774871 834.260875,31.7241996 L834.2758,31.7391255 C834.623402,32.0867271 835.186365,32.0873376 835.535023,31.7386802 L839.370166,27.9035366 C839.718014,27.555689 840.281176,27.5548791 840.629834,27.9035366 L844.464977,31.7386802 C844.812825,32.0865278 845.377487,32.085838 845.7242,31.7391255 L845.739125,31.7241996 C846.086727,31.3765979 846.087338,30.8136348 845.73868,30.4649774 L841.903537,26.6298338 C841.555689,26.2819862 841.554879,25.7188237 841.903537,25.3701662 L845.73868,21.5350226 Z" id="compare-cross"></path>
                </g>
            </g>
        </g>
    </g>
</svg>