<?xml version="1.0" encoding="UTF-8"?>
<svg width="15px" height="15px" viewBox="0 0 15 15" version="1.1" xmlns="http://www.w3.org/2000/svg" xmlns:xlink="http://www.w3.org/1999/xlink">
    <!-- Generator: Sketch 52.6 (67491) - http://www.bohemiancoding.com/sketch -->
    <title>Degrowth</title>
    <desc>Created with Sketch.</desc>
    <g id="Page-1" stroke="none" stroke-width="1" fill="none" fill-rule="evenodd">
        <g id="Rev1.3-iPad-Map-View-Executive-dashboard-2A" transform="translate(-408.000000, -211.000000)" fill="#9B2F2D" fill-rule="nonzero">
            <g id="Group-3" transform="translate(20.000000, 155.000000)">
                <path d="M388,63.5 C388,59.3568548 391.356855,56 395.5,56 C399.643145,56 403,59.3568548 403,63.5 C403,67.6431452 399.643145,71 395.5,71 C391.356855,71 388,67.6431452 388,63.5 Z M392.342742,64.3739919 L394.532258,62.0907258 L394.532258,67.6129032 C394.532258,68.015121 394.855847,68.3387097 395.258065,68.3387097 L395.741935,68.3387097 C396.144153,68.3387097 396.467742,68.015121 396.467742,67.6129032 L396.467742,62.0907258 L398.657258,64.3739919 C398.938508,64.6673387 399.407258,64.6733871 399.694556,64.3860887 L400.024194,64.0534274 C400.308468,63.7691532 400.308468,63.3094758 400.024194,63.0282258 L396.014113,59.015121 C395.729839,58.7308468 395.270161,58.7308468 394.988911,59.015121 L390.972782,63.0282258 C390.688508,63.3125 390.688508,63.7721774 390.972782,64.0534274 L391.302419,64.3860887 C391.592742,64.6733871 392.061492,64.6673387 392.342742,64.3739919 Z" id="Degrowth" transform="translate(395.500000, 63.500000) scale(1, -1) translate(-395.500000, -63.500000) "></path>
            </g>
        </g>
    </g>
</svg>