<?xml version="1.0" encoding="UTF-8"?>
<svg width="20px" height="25px" viewBox="0 0 20 25" version="1.1" xmlns="http://www.w3.org/2000/svg" xmlns:xlink="http://www.w3.org/1999/xlink">
    <!-- Generator: Sketch 52.6 (67491) - http://www.bohemiancoding.com/sketch -->
    <title>Executive Summary-whitte</title>
    <desc>Created with Sketch.</desc>
    <g id="Symbols" stroke="none" stroke-width="1" fill="none" fill-rule="evenodd">
        <g id="Executive-Summary-whitte" fill="#FFFFFF">
            <path d="M13.9634359,17.0683077 C13.7509744,17.0683077 13.5788205,17.2404615 13.5788205,17.4529231 L13.5788205,18.1604103 C13.5788205,18.3409744 13.4655385,18.5053846 13.2968718,18.5695897 C13.098359,18.6451795 12.9987179,18.8673846 13.0743077,19.0658974 C13.1327179,19.2193846 13.2787692,19.3137436 13.4337949,19.3137436 C13.4792821,19.3137436 13.5255897,19.305641 13.5706154,19.2884615 C14.0355897,19.1114359 14.3480513,18.6581026 14.3480513,18.1604615 L14.3480513,17.4529744 C14.3480513,17.2404615 14.1758462,17.0683077 13.9634359,17.0683077 Z" id="Path"></path>
            <path d="M8.13179487,20.5978974 L1.24112821,20.5978974 C0.999948718,20.5978974 0.803692308,20.401641 0.803692308,20.1604103 L0.803692308,6.08533333 C0.803692308,5.87287179 0.631538462,5.70071795 0.419076923,5.70071795 C0.206615385,5.70071795 0.0344615385,5.87287179 0.0344615385,6.08533333 L0.0344615385,20.1604103 C0.0344615385,20.8258462 0.575794872,21.3671282 1.24112821,21.3671282 L8.13179487,21.3671282 C8.34425641,21.3671282 8.51641026,21.1949744 8.51641026,20.9825128 C8.51641026,20.7700513 8.34420513,20.5978974 8.13179487,20.5978974 Z" id="Path"></path>
            <path d="M0.418974359,4.84564103 C0.631435897,4.84564103 0.803589744,4.67348718 0.803589744,4.46102564 L0.803589744,3.4 C0.803589744,3.15876923 0.999794872,2.9625641 1.24102564,2.9625641 L4.00723077,2.9625641 L4.00723077,3.50225641 C4.00723077,3.92046154 4.34748718,4.26071795 4.76569231,4.26071795 L9.61661538,4.26071795 C10.0348205,4.26071795 10.3750769,3.92046154 10.3750769,3.50225641 L10.3750769,2.9625641 L13.1410256,2.9625641 C13.3825128,2.9625641 13.5789744,3.15882051 13.5789744,3.4 L13.5789744,5.51184615 C13.5789744,5.72430769 13.7511282,5.89646154 13.9635897,5.89646154 C14.1760513,5.89646154 14.3482051,5.72430769 14.3482051,5.51184615 L14.3482051,3.4 C14.3482051,2.73461538 13.8066667,2.19333333 13.1410256,2.19333333 L10.3665128,2.19333333 C10.3138974,1.82610256 9.99815385,1.54266667 9.61661538,1.54266667 L9.07979487,1.54266667 C8.90107692,0.663589744 8.12225641,0 7.19123077,0 C6.26020513,0 5.48138462,0.663589744 5.30261538,1.54261538 L4.76574359,1.54261538 C4.38420513,1.54261538 4.06846154,1.82610256 4.01584615,2.19328205 L1.24107692,2.19328205 C0.575692308,2.19328205 0.0344102564,2.73461538 0.0344102564,3.39994872 L0.0344102564,4.46097436 C0.0343589744,4.67348718 0.206564103,4.84564103 0.418974359,4.84564103 Z M7.19123077,0.769230769 C7.69497436,0.769230769 8.12466667,1.09261538 8.28358974,1.54261538 L6.09887179,1.54261538 C6.25779487,1.09261538 6.68748718,0.769230769 7.19123077,0.769230769 Z M4.77651282,2.31184615 L5.64861538,2.31184615 L8.73384615,2.31184615 L9.60589744,2.31184615 L9.60589744,2.57297436 C9.60589744,2.57461538 9.60564103,2.57625641 9.60564103,2.57794872 C9.60564103,2.57964103 9.60584615,2.58123077 9.60589744,2.58292308 L9.60589744,3.49153846 L4.77651282,3.49153846 L4.77651282,2.31184615 Z" id="Shape" fill-rule="nonzero"></path>
            <path d="M14.3480513,8.68758974 L14.3480513,7.42764103 C14.3480513,7.21517949 14.1758974,7.04302564 13.9634359,7.04302564 C13.7509744,7.04302564 13.5788205,7.21517949 13.5788205,7.42764103 L13.5788205,8.68758974 C13.5788205,8.90005128 13.7509744,9.07220513 13.9634359,9.07220513 C14.1758974,9.07220513 14.3480513,8.90005128 14.3480513,8.68758974 Z" id="Path"></path>
            <path d="M13.9634359,15.4678974 C12.4270769,15.4678974 11.1771282,16.7177949 11.1771282,18.2541538 C11.1771282,19.7905128 12.4270769,21.0404615 13.9634359,21.0404615 C15.4997949,21.0404615 16.7496923,19.7905128 16.7496923,18.2541538 C16.7496923,16.7177949 15.4997949,15.4678974 13.9634359,15.4678974 Z M13.9634359,20.2712308 C12.8512308,20.2712308 11.946359,19.366359 11.946359,18.2541538 C11.946359,17.1419487 12.8512308,16.2371282 13.9634359,16.2371282 C15.075641,16.2371282 15.9804615,17.142 15.9804615,18.2541538 C15.9804615,19.3664103 15.0755897,20.2712308 13.9634359,20.2712308 Z" id="Shape" fill-rule="nonzero"></path>
            <path d="M19.6391795,16.8429744 L18.5673846,16.6789744 C18.5010769,16.4850769 18.4227179,16.295641 18.3328718,16.112359 L18.9746667,15.2385641 C19.0870769,15.0855385 19.0709744,14.8732821 18.9367179,14.7389744 L18.7997436,14.6019487 C18.6495385,14.4517436 18.4060513,14.451641 18.2557949,14.6018462 C18.1406667,14.7169744 18.1137436,14.8870256 18.1751282,15.0277436 L17.5710256,15.8502564 C17.482,15.9714872 17.4717436,16.1335385 17.5449744,16.2650256 C17.6961538,16.5366154 17.8164615,16.8271282 17.9024615,17.1284615 C17.9437436,17.2730256 18.0654872,17.3803077 18.2141026,17.4030769 L19.1964615,17.5534359 L19.1964615,18.9548718 L18.2141026,19.1052308 C18.0654872,19.128 17.9437436,19.2352821 17.9024615,19.3798462 C17.8164615,19.6811795 17.6962051,19.9716923 17.5449744,20.2433333 C17.4717436,20.3747692 17.4819487,20.5368718 17.5710256,20.6581026 L18.1592821,21.4589744 L17.168359,22.4499487 L16.3674359,21.861641 C16.246359,21.7727179 16.0842051,21.7624103 15.9526154,21.8355897 C15.6811282,21.9868205 15.3906667,22.1070769 15.0892821,22.1930769 C14.9446667,22.2343077 14.8373846,22.3561026 14.8146154,22.5047179 L14.6641538,23.4871795 L13.2627179,23.4871795 L13.112359,22.5047692 C13.0895897,22.3561538 12.9822564,22.234359 12.837641,22.1931282 C12.536359,22.1071795 12.2458974,21.9869231 11.9742564,21.835641 C11.8428205,21.7625128 11.6806667,21.7726154 11.5594872,21.8616923 L10.7586154,22.45 L9.76764103,21.4590256 L10.3559487,20.6581538 C10.4449744,20.5369231 10.4552308,20.3748718 10.382,20.2433846 C10.2307179,19.9715897 10.1104103,19.6810769 10.0245128,19.38 C9.98328205,19.2353846 9.86148718,19.1280513 9.71287179,19.1052821 L8.73046154,18.9549231 L8.73046154,17.5534872 L9.71287179,17.4031282 C9.86148718,17.380359 9.98328205,17.2730769 10.0245128,17.1284615 C10.1104615,16.8273333 10.2307179,16.5368718 10.382,16.2650769 C10.4552308,16.133641 10.4450256,15.9715385 10.3559487,15.8502564 L9.76764103,15.0494359 L10.7586154,14.0584615 L11.5594872,14.6467179 C11.6806667,14.7357436 11.8427692,14.7459487 11.9742564,14.6727692 C12.2458974,14.5215897 12.5364103,14.4012821 12.8377436,14.3152821 C12.9823077,14.274 13.0895897,14.1522564 13.112359,14.003641 L13.2627179,13.0212821 L14.6641538,13.0212821 L14.8145128,14.003641 C14.8372821,14.1522564 14.9445641,14.274 15.0891282,14.3152821 C15.3904615,14.4012821 15.6809744,14.5215385 15.9525641,14.6727692 C16.0841026,14.7459487 16.2461538,14.7357949 16.3673333,14.6467179 L17.1683077,14.0584103 C17.3188718,14.2042564 17.5590256,14.2027692 17.7078462,14.0541026 C17.8580513,13.9038462 17.8580513,13.660359 17.7078462,13.5101538 L17.4787179,13.2810256 C17.3444103,13.1467179 17.1321538,13.1306667 16.9790769,13.2430256 L16.1052308,13.8848205 C15.9219487,13.7949744 15.7325128,13.7166154 15.5386154,13.6503077 L15.3746154,12.5785128 C15.3458462,12.3907692 15.184359,12.2521026 14.9944103,12.2521026 L14.3480513,12.2521026 L14.3480513,11.2702051 C14.3480513,11.0577436 14.1758974,10.8855897 13.9634359,10.8855897 C13.7509744,10.8855897 13.5788205,11.0577436 13.5788205,11.2702051 L13.5788205,12.2521026 L12.9324615,12.2521026 C12.7425128,12.2521026 12.5809744,12.3907692 12.5522564,12.5785128 L12.3882564,13.6503077 C12.194359,13.7165641 12.0048718,13.7949744 11.8215897,13.8848205 L10.9477949,13.2430256 C10.7947179,13.1306667 10.5824615,13.1467179 10.4481538,13.2810256 L8.99015385,14.7390256 C8.85584615,14.8733333 8.83969231,15.085641 8.95215385,15.2387179 L9.594,16.1124615 C9.50410256,16.2957949 9.42574359,16.4852308 9.35948718,16.6790769 L8.28764103,16.8430769 C8.09989744,16.8718462 7.96123077,17.0333333 7.96123077,17.2232821 L7.96123077,19.2851795 C7.96123077,19.4751282 8.09989744,19.6366667 8.28764103,19.6653846 L9.35948718,19.8293846 C9.42569231,20.0232308 9.50410256,20.2126667 9.594,20.3960513 L8.95215385,21.2698462 C8.83974359,21.4228718 8.85584615,21.6351795 8.99015385,21.7694872 L10.4481538,23.2274872 C10.5825128,23.3617949 10.7947692,23.3778974 10.9477949,23.2654872 L11.8215897,22.623641 C12.0048718,22.7135385 12.194359,22.7918974 12.3882564,22.8581538 L12.5522564,23.93 C12.5810256,24.1177436 12.7425128,24.2564103 12.9324615,24.2564103 L14.994359,24.2564103 C15.1843077,24.2564103 15.3458462,24.1177436 15.3745641,23.93 L15.5385641,22.8581538 C15.7325128,22.7918974 15.9219487,22.7135385 16.1051795,22.623641 L16.9790256,23.2654872 C17.1320513,23.3777949 17.3443077,23.3617949 17.4786667,23.2274359 L18.9366154,21.7694359 C19.0709231,21.6351795 19.0870769,21.4229231 18.9746154,21.2698462 L18.3328205,20.3960513 C18.4226667,20.2127692 18.5010769,20.0232821 18.5673333,19.8293846 L19.6391282,19.6653846 C19.8268718,19.6366154 19.9655385,19.4751282 19.9655385,19.2851795 L19.9655385,17.2232821 C19.965641,17.0332308 19.8269231,16.8717436 19.6391795,16.8429744 Z" id="Path"></path>
            <path d="M9.43071795,6.98384615 C9.42969231,6.97435897 9.42825641,6.96502564 9.42712821,6.95553846 C9.42358974,6.92548718 9.41969231,6.89553846 9.41497436,6.86584615 C9.4134359,6.85641026 9.41153846,6.84702564 9.40989744,6.83758974 C9.40482051,6.80815385 9.39938462,6.77882051 9.39317949,6.74974359 C9.39102564,6.73989744 9.38861538,6.73010256 9.38635897,6.72025641 C9.37989744,6.692 9.37307692,6.66389744 9.36558974,6.63605128 C9.36266667,6.62533333 9.35953846,6.61466667 9.35646154,6.604 C9.34892308,6.57758974 9.34102564,6.55128205 9.33251282,6.52528205 C9.32861538,6.51328205 9.32451282,6.50138462 9.32035897,6.48948718 C9.31205128,6.4654359 9.3034359,6.44153846 9.29430769,6.41784615 C9.28912821,6.40430769 9.28379487,6.39082051 9.27830769,6.37738462 C9.26964103,6.35605128 9.26066667,6.33497436 9.25138462,6.314 C9.24461538,6.29871795 9.23779487,6.28348718 9.23071795,6.26835897 C9.22215385,6.25020513 9.21328205,6.23220513 9.20425641,6.21430769 C9.19558974,6.19702564 9.18692308,6.17979487 9.17784615,6.16276923 C9.17005128,6.14825641 9.16189744,6.13394872 9.15384615,6.11964103 C9.14276923,6.1 9.13174359,6.08035897 9.12010256,6.06102564 C9.11435897,6.05153846 9.10825641,6.04225641 9.10241026,6.03282051 C9.03194872,5.91984615 8.95153846,5.81276923 8.86123077,5.71302564 C8.85979487,5.7114359 8.85841026,5.70974359 8.85697436,5.70815385 C8.83733333,5.6865641 8.81697436,5.66553846 8.79641026,5.64461538 C8.79010256,5.63820513 8.78389744,5.63169231 8.77753846,5.62533333 C8.75902564,5.60697436 8.74005128,5.58902564 8.72087179,5.57128205 C8.71164103,5.56271795 8.70241026,5.55420513 8.69307692,5.54579487 C8.68446154,5.53810256 8.67630769,5.53 8.66753846,5.52235897 C8.66389744,5.51902564 8.66015385,5.51569231 8.65641026,5.51251282 C8.65164103,5.50841026 8.64676923,5.50446154 8.64379487,5.50210256 C8.62646154,5.48753846 8.60902564,5.47307692 8.59251282,5.46005128 C8.58405128,5.45328205 8.57558974,5.44666667 8.56764103,5.44051282 C8.55789744,5.43302564 8.54810256,5.42579487 8.53835897,5.41851282 C8.53815385,5.41835897 8.53789744,5.41815385 8.53769231,5.418 C8.53133333,5.41323077 8.52497436,5.40830769 8.51861538,5.40369231 C8.50876923,5.39641026 8.49882051,5.38928205 8.48938462,5.38261538 C8.47430769,5.37194872 8.45917949,5.36164103 8.44230769,5.35030769 L8.40882051,5.32815385 C8.39533333,5.31953846 8.38174359,5.31107692 8.36810256,5.30266667 C8.36764103,5.30241026 8.36410256,5.30025641 8.36369231,5.29994872 C8.36194872,5.29887179 8.36010256,5.29779487 8.35835897,5.29671795 C8.35830769,5.29666667 8.35825641,5.29666667 8.35825641,5.29661538 C8.34810256,5.29041026 8.33794872,5.28425641 8.32697436,5.27779487 C8.31471795,5.27061538 8.30235897,5.26374359 8.29235897,5.25820513 C8.28584615,5.25451282 8.27882051,5.25076923 8.27215385,5.24707692 C8.26769231,5.24461538 8.26328205,5.24215385 8.25882051,5.23969231 C8.25333333,5.23671795 8.24825641,5.23374359 8.2425641,5.23071795 L8.21871795,5.2185641 C8.21358974,5.21589744 8.20825641,5.21369231 8.20307692,5.21112821 C8.17297436,5.19589744 8.14246154,5.18138462 8.11158974,5.16753846 C8.10502564,5.1645641 8.09851282,5.16148718 8.09189744,5.15861538 C7.93502564,5.08989744 7.76887179,5.03876923 7.59589744,5.00728205 C7.59148718,5.00646154 7.58702564,5.00569231 7.5825641,5.00492308 C7.54579487,4.99846154 7.50876923,4.99292308 7.4714359,4.98825641 C7.46405128,4.98733333 7.45666667,4.98630769 7.44928205,4.9854359 C7.41466667,4.98148718 7.37984615,4.97841026 7.34482051,4.97605128 C7.33615385,4.9754359 7.32753846,4.9745641 7.31882051,4.97405128 C7.27661538,4.97169231 7.23415385,4.97020513 7.19138462,4.97020513 C5.9494359,4.97020513 4.93907692,5.9805641 4.93907692,7.22246154 L4.93907692,7.39512821 L4.93907692,8.12287179 C4.93907692,9.36482051 5.9494359,10.3751795 7.19138462,10.3751795 C8.43328205,10.3751795 9.44364103,9.36482051 9.44364103,8.12287179 L9.44364103,7.57497436 L9.44364103,7.22241026 C9.44364103,7.18230769 9.44251282,7.14241026 9.44041026,7.10282051 C9.43994872,7.09394872 9.43897436,7.08512821 9.43835897,7.07625641 C9.43620513,7.04538462 9.43394872,7.01446154 9.43071795,6.98384615 Z M7.27333333,5.74189744 C7.28430769,5.74251282 7.29517949,5.74353846 7.30610256,5.74441026 C7.32194872,5.74558974 7.33774359,5.74687179 7.35348718,5.7485641 C7.36692308,5.75005128 7.38030769,5.75184615 7.39364103,5.75369231 C7.40661538,5.7554359 7.41953846,5.75733333 7.43246154,5.7594359 C7.44671795,5.76179487 7.46092308,5.76430769 7.47502564,5.76702564 C7.48712821,5.76938462 7.49917949,5.77194872 7.51117949,5.77461538 C7.52517949,5.77769231 7.53923077,5.78082051 7.55307692,5.78430769 C7.56676923,5.78774359 7.58030769,5.79164103 7.59389744,5.79548718 C7.60558974,5.79876923 7.61733333,5.80189744 7.62892308,5.8054359 C7.65405128,5.81328205 7.67907692,5.82164103 7.70384615,5.83087179 C7.7074359,5.83220513 7.71092308,5.83374359 7.71451282,5.83507692 C7.73728205,5.84374359 7.75994872,5.85287179 7.78235897,5.86271795 C7.78671795,5.86461538 7.79102564,5.86666667 7.79538462,5.86861538 C7.8174359,5.87851282 7.83933333,5.88892308 7.86107692,5.9 C7.87174359,5.90538462 7.88246154,5.91066667 7.89292308,5.91630769 C7.8974359,5.91876923 7.90230769,5.92148718 7.90728205,5.92430769 C7.92210256,5.93251282 7.93676923,5.94092308 7.95128205,5.94964103 L7.96441026,5.95758974 C7.96579487,5.95846154 7.96702564,5.95923077 7.96846154,5.96010256 C7.98384615,5.96964103 7.99912821,5.97933333 8.01415385,5.9894359 L8.01487179,5.98989744 C8.01989744,5.99323077 8.02502564,5.99687179 8.03005128,6.00035897 C8.04379487,6.00979487 8.0574359,6.0194359 8.07082051,6.02933333 C8.07615385,6.03328205 8.08153846,6.03738462 8.08692308,6.0414359 C8.09989744,6.05133333 8.11271795,6.06138462 8.12538462,6.07164103 C8.13071795,6.07594872 8.13605128,6.08030769 8.14138462,6.08476923 C8.15153846,6.09323077 8.1614359,6.10194872 8.17128205,6.11066667 C8.18035897,6.11866667 8.18933333,6.12666667 8.19815385,6.13487179 C8.20733333,6.14338462 8.21630769,6.152 8.22528205,6.16071795 C8.23292308,6.16815385 8.2405641,6.17564103 8.24805128,6.18323077 C8.25764103,6.19297436 8.26702564,6.20287179 8.27630769,6.21287179 C8.28287179,6.21989744 8.2894359,6.22697436 8.29584615,6.23410256 C8.30548718,6.24482051 8.31487179,6.25579487 8.32415385,6.26676923 C8.33,6.27364103 8.33579487,6.28051282 8.34148718,6.28748718 C8.35071795,6.29887179 8.35974359,6.31041026 8.36866667,6.32205128 C8.37415385,6.32917949 8.37964103,6.33635897 8.38497436,6.34358974 C8.3934359,6.35507692 8.40164103,6.36671795 8.40979487,6.37846154 C8.41523077,6.38630769 8.42071795,6.39410256 8.426,6.40205128 C8.4334359,6.41317949 8.4405641,6.42451282 8.44769231,6.43584615 C8.45333333,6.44482051 8.45897436,6.45374359 8.46441026,6.46276923 C8.4705641,6.47302564 8.47646154,6.48348718 8.48235897,6.49394872 C8.48825641,6.50441026 8.49425641,6.51482051 8.49989744,6.5254359 C8.50476923,6.53451282 8.50933333,6.54379487 8.514,6.55297436 C8.52020513,6.56512821 8.52641026,6.57728205 8.53220513,6.58964103 C8.53579487,6.59717949 8.53912821,6.60487179 8.5425641,6.61251282 C8.54897436,6.62671795 8.55538462,6.64087179 8.56138462,6.65523077 C8.56369231,6.66076923 8.56574359,6.66646154 8.568,6.67205128 C8.57461538,6.6885641 8.58117949,6.70507692 8.58717949,6.72184615 C8.58825641,6.72487179 8.58923077,6.72794872 8.59030769,6.73097436 C8.62476923,6.82887179 8.64876923,6.93061538 8.66205128,7.03466667 C8.66323077,7.04379487 8.6645641,7.05287179 8.66553846,7.06205128 C8.47923077,6.96528205 8.31866667,6.82066667 8.20035897,6.63835897 C8.13528205,6.53810256 8.02733333,6.47379487 7.90820513,6.46430769 C7.78969231,6.45482051 7.67230769,6.50128205 7.59225641,6.59 C7.2425641,6.97753846 6.74328205,7.19974359 6.22251282,7.19974359 C6.04789744,7.19974359 5.87687179,7.17564103 5.71164103,7.12784615 C5.71225641,7.11789744 5.71307692,7.10805128 5.71389744,7.09815385 C5.71487179,7.08646154 5.71569231,7.07476923 5.71697436,7.06317949 C5.71835897,7.05020513 5.72020513,7.03733333 5.72189744,7.02441026 C5.7234359,7.01317949 5.72476923,7.00184615 5.72651282,6.99066667 C5.72861538,6.97748718 5.73112821,6.96451282 5.73353846,6.9514359 C5.73553846,6.94066667 5.73733333,6.92984615 5.73953846,6.91917949 C5.74230769,6.90589744 5.74558974,6.89276923 5.74871795,6.87958974 C5.75112821,6.86938462 5.75333333,6.85902564 5.756,6.84892308 C5.75964103,6.83502564 5.76374359,6.82138462 5.76774359,6.80769231 C5.77041026,6.79846154 5.77287179,6.78912821 5.77574359,6.78 C5.78102564,6.76307692 5.78687179,6.74641026 5.79276923,6.72979487 C5.79482051,6.72410256 5.7965641,6.71825641 5.79866667,6.7125641 C5.80682051,6.69035897 5.81548718,6.66841026 5.82466667,6.64676923 C5.82769231,6.63964103 5.83107692,6.63271795 5.83420513,6.62564103 C5.84061538,6.61112821 5.84697436,6.59661538 5.85379487,6.58235897 C5.858,6.57364103 5.8625641,6.56512821 5.86692308,6.55651282 C5.87317949,6.54415385 5.87928205,6.53174359 5.88584615,6.51958974 C5.89071795,6.51051282 5.896,6.50169231 5.90107692,6.49276923 C5.90758974,6.48133333 5.914,6.46979487 5.92076923,6.4585641 C5.92620513,6.44953846 5.93194872,6.44076923 5.93758974,6.43189744 C5.94451282,6.42097436 5.95133333,6.41005128 5.95846154,6.39933333 C5.96441026,6.39046154 5.97066667,6.38179487 5.97676923,6.37307692 C5.98405128,6.36271795 5.99123077,6.35230769 5.99876923,6.34215385 C6.00517949,6.33348718 6.01189744,6.32502564 6.01851282,6.31646154 C6.02620513,6.3065641 6.03384615,6.29661538 6.04179487,6.28687179 C6.04866667,6.27846154 6.05569231,6.27030769 6.06271795,6.26205128 C6.07082051,6.2525641 6.07887179,6.24307692 6.08723077,6.23374359 C6.09451282,6.22564103 6.102,6.21769231 6.1094359,6.20969231 C6.11789744,6.20066667 6.12635897,6.19164103 6.13507692,6.18282051 C6.14276923,6.17502564 6.15061538,6.16733333 6.15851282,6.15969231 C6.16733333,6.15112821 6.17620513,6.1425641 6.18528205,6.13420513 C6.19333333,6.12671795 6.20158974,6.1194359 6.20979487,6.11215385 C6.21902564,6.104 6.22830769,6.09589744 6.23769231,6.08794872 C6.24610256,6.08087179 6.25466667,6.07389744 6.26323077,6.06702564 C6.27282051,6.05928205 6.28251282,6.05164103 6.29230769,6.04415385 C6.30107692,6.0374359 6.30989744,6.03087179 6.31882051,6.02435897 C6.32876923,6.01707692 6.33882051,6.00994872 6.34892308,6.00292308 C6.358,5.99661538 6.36712821,5.99046154 6.37635897,5.98435897 C6.38666667,5.97753846 6.39707692,5.97087179 6.40758974,5.96430769 C6.41692308,5.95846154 6.42630769,5.95266667 6.43584615,5.94702564 C6.44651282,5.94066667 6.45728205,5.93451282 6.46815385,5.92841026 C6.47779487,5.92302564 6.4874359,5.91764103 6.49717949,5.91246154 C6.50820513,5.90661538 6.51933333,5.90097436 6.53051282,5.89538462 C6.54035897,5.89046154 6.55020513,5.88553846 6.56015385,5.88087179 C6.57153846,5.87548718 6.58302564,5.87035897 6.5945641,5.86528205 C6.60461538,5.86082051 6.61466667,5.85635897 6.62487179,5.85215385 C6.6365641,5.84728205 6.64846154,5.84271795 6.66030769,5.83815385 C6.6705641,5.83420513 6.68076923,5.83020513 6.69112821,5.82651282 C6.70323077,5.82215385 6.71553846,5.81810256 6.72779487,5.81410256 C6.73810256,5.81066667 6.74841026,5.80717949 6.75882051,5.804 C6.77133333,5.80020513 6.78405128,5.79671795 6.79671795,5.79323077 C6.80712821,5.79035897 6.81748718,5.78733333 6.828,5.78466667 C6.84097436,5.78138462 6.85410256,5.7785641 6.86717949,5.77558974 C6.87758974,5.77323077 6.88794872,5.77076923 6.89846154,5.76866667 C6.912,5.76594872 6.92569231,5.76369231 6.93938462,5.76133333 C6.94964103,5.75958974 6.95979487,5.75758974 6.97015385,5.75605128 C6.98461538,5.75389744 6.99928205,5.75225641 7.01389744,5.75046154 C7.02353846,5.74928205 7.03312821,5.74789744 7.04287179,5.74692308 C7.05923077,5.74528205 7.07579487,5.74425641 7.09230769,5.74312821 C7.10046154,5.74261538 7.10851282,5.74174359 7.11671795,5.74133333 C7.14148718,5.74010256 7.16641026,5.7394359 7.19148718,5.7394359 C7.21876923,5.73953846 7.24610256,5.74046154 7.27333333,5.74189744 Z M7.19123077,9.60605128 C6.37348718,9.60605128 5.70815385,8.94071795 5.70815385,8.12297436 L5.70815385,7.91784615 C5.87641026,7.95153846 6.04810256,7.96902564 6.22235897,7.96902564 C6.81266667,7.96902564 7.38328205,7.76769231 7.84148718,7.40635897 C8.07528205,7.63358974 8.3605641,7.79933333 8.67420513,7.88989744 L8.67420513,8.12292308 C8.67425641,8.94076923 8.00897436,9.60605128 7.19123077,9.60605128 Z" id="Shape" fill-rule="nonzero"></path>
            <path d="M10.3384103,12.9334872 C10.2341538,12.0400513 9.62107692,11.2764103 8.77215385,10.978359 C8.7614359,10.973641 8.75041026,10.9693846 8.73912821,10.965641 C8.7114359,10.956359 8.68379487,10.9476923 8.65605128,10.9395385 C8.65317949,10.9386154 8.65030769,10.9377949 8.64728205,10.9368718 C8.6414359,10.9350256 8.63553846,10.9332821 8.62958974,10.9316923 L8.55994872,10.9133333 C8.53287179,10.9065128 8.50471795,10.9002564 8.47692308,10.8945128 C8.4725641,10.8934359 8.46815385,10.8924615 8.46374359,10.8915385 C8.43441026,10.8855897 8.40451282,10.8801538 8.3745641,10.8753846 C8.34646154,10.8704103 8.31789744,10.8660513 8.28851282,10.862359 L8.27394872,10.8604615 C8.24323077,10.8568205 8.21266667,10.8537436 8.18020513,10.8511795 C8.15661538,10.8493846 8.13302564,10.8476923 8.10723077,10.846359 C8.09446154,10.8456923 8.08210256,10.8452308 8.06948718,10.8450256 C8.04266667,10.8439487 8.01523077,10.8434359 7.98789744,10.8434359 L6.39451282,10.8434359 C6.36717949,10.8434359 6.33984615,10.844 6.31292308,10.8450769 C6.30020513,10.8452308 6.28748718,10.8457949 6.27297436,10.8464615 C6.24938462,10.847641 6.22584615,10.8493846 6.20112821,10.8512821 C6.16989744,10.8537436 6.13917949,10.8567692 6.10748718,10.8605641 L6.09379487,10.862359 C6.0645641,10.8660513 6.03589744,10.8704615 6.00779487,10.8753846 C5.97789744,10.8802051 5.948,10.8855897 5.91866667,10.8915385 C5.91425641,10.8924615 5.90984615,10.8934359 5.90548718,10.8945128 C5.87764103,10.9002564 5.84917949,10.9066154 5.81892308,10.9142564 L5.75282051,10.9317436 C5.74702564,10.9332308 5.74128205,10.9349744 5.73558974,10.9367692 C5.73246154,10.9376923 5.72933333,10.9386154 5.72615385,10.939641 C5.69846154,10.9477949 5.67071795,10.9564615 5.64302564,10.9657436 C5.632,10.9694359 5.62123077,10.9735897 5.61066667,10.9782564 C4.76148718,11.2762564 4.14820513,12.04 4.044,12.9335385 C4.02738462,13.0759487 4.09138462,13.2158462 4.21,13.2963077 C5.09117949,13.8944103 6.12205128,14.2105641 7.19117949,14.2105641 C8.26025641,14.2105641 9.29112821,13.8944103 10.172359,13.296359 C10.2910256,13.2157949 10.3550256,13.0758974 10.3384103,12.9334872 Z M7.19123077,13.4412821 C6.36051282,13.4412821 5.55697436,13.2182564 4.85210256,12.7941538 C4.98994872,12.2849231 5.37758974,11.8668718 5.88784615,11.696359 C5.89692308,11.6932821 5.90579487,11.6899487 5.9145641,11.6863077 C5.92523077,11.6829744 5.93594872,11.6797436 5.94661538,11.6766154 C5.94953846,11.6757436 5.95246154,11.6749231 5.95538462,11.6739487 C5.95641026,11.673641 5.95738462,11.6733333 5.95841026,11.6730256 L6.00979487,11.6594359 C6.02882051,11.6546667 6.04866667,11.650359 6.06810256,11.6464103 C6.07210256,11.6455385 6.07610256,11.6447179 6.08005128,11.6437436 C6.09717949,11.6404103 6.1145641,11.6372821 6.13189744,11.6345128 C6.13435897,11.6341538 6.13676923,11.6336923 6.13923077,11.6333333 C6.15605128,11.6303077 6.17323077,11.6276923 6.19528205,11.6248718 L6.19969231,11.6242564 C6.22015385,11.6217949 6.24066667,11.6197436 6.26046154,11.6182051 C6.27784615,11.6169231 6.29517949,11.6155897 6.31302564,11.6146667 L6.32297436,11.6142051 C6.32866667,11.6142051 6.33446154,11.6140513 6.34015385,11.6137949 C6.35805128,11.6129744 6.37630769,11.6126667 6.39461538,11.6126667 L7.988,11.6126667 C8.00625641,11.6126667 8.02461538,11.6130256 8.04251282,11.6137949 C8.04820513,11.6140513 8.05312821,11.6142051 8.05882051,11.6142051 L8.07010256,11.6147179 C8.08748718,11.615641 8.10487179,11.6169231 8.12107692,11.6181026 C8.14194872,11.6197436 8.16246154,11.6217949 8.18661538,11.6247692 C8.18835897,11.6250256 8.19010256,11.6252821 8.19189744,11.6254872 C8.20948718,11.6276923 8.22661538,11.630359 8.24338462,11.6333333 C8.24584615,11.6337436 8.24825641,11.6342051 8.25071795,11.6345128 C8.26805128,11.6372821 8.2854359,11.640359 8.3025641,11.6437436 C8.30651282,11.6447179 8.31051282,11.6455385 8.31451282,11.6464103 C8.33394872,11.650359 8.35379487,11.6546667 8.36948718,11.6585641 L8.42425641,11.6729744 C8.42507692,11.6732308 8.42589744,11.6734872 8.42671795,11.6737436 C8.42989744,11.6747692 8.43302564,11.6756923 8.43615385,11.6766667 C8.44671795,11.6797436 8.45728205,11.6829231 8.46779487,11.6862564 C8.47661538,11.6898974 8.48558974,11.6933333 8.49471795,11.696359 C9.00487179,11.8668718 9.39261538,12.2849744 9.53046154,12.7941538 C8.8254359,13.2183077 8.02194872,13.4412821 7.19123077,13.4412821 Z" id="Shape" fill-rule="nonzero"></path>
            <path d="M11.624,6.08502564 C11.4115385,6.08502564 11.2393846,6.25717949 11.2393846,6.46964103 C11.2393846,6.68210256 11.4115385,6.85425641 11.624,6.85425641 L15.6783077,6.85425641 C15.8450769,7.42451282 16.372359,7.84235897 16.9957436,7.84235897 C17.7526667,7.84235897 18.3684615,7.2265641 18.3684615,6.46964103 C18.3684615,5.71271795 17.7526667,5.09692308 16.9957436,5.09692308 C16.372359,5.09692308 15.8450256,5.51476923 15.6783077,6.08502564 L11.624,6.08502564 Z M16.9957436,5.86620513 C17.3284615,5.86620513 17.5992308,6.13692308 17.5992308,6.46969231 C17.5992308,6.80246154 17.3285128,7.07317949 16.9957436,7.07317949 C16.6629744,7.07317949 16.3922564,6.80246154 16.3922564,6.46969231 C16.3922564,6.13692308 16.6630256,5.86620513 16.9957436,5.86620513 Z" id="Shape" fill-rule="nonzero"></path>
            <path d="M11.2393846,9.6454359 C11.2393846,9.85789744 11.4115385,10.0300513 11.624,10.0300513 L15.6783077,10.0300513 C15.8450769,10.6003077 16.372359,11.0181538 16.9957436,11.0181538 C17.7526667,11.0181538 18.3684615,10.402359 18.3684615,9.6454359 C18.3684615,8.88851282 17.7526667,8.27271795 16.9957436,8.27271795 C16.372359,8.27271795 15.8450256,8.6905641 15.6783077,9.26082051 L11.624,9.26082051 C11.4115897,9.26082051 11.2393846,9.43297436 11.2393846,9.6454359 Z M16.9957436,9.04194872 C17.3284615,9.04194872 17.5992308,9.31266667 17.5992308,9.6454359 C17.5992308,9.97820513 17.3285128,10.2489231 16.9957436,10.2489231 C16.6629744,10.2489231 16.3922564,9.97820513 16.3922564,9.6454359 C16.3922564,9.31266667 16.6630256,9.04194872 16.9957436,9.04194872 Z" id="Shape" fill-rule="nonzero"></path>
        </g>
    </g>
</svg>