<?xml version="1.0" standalone="no"?>
<!DOCTYPE svg PUBLIC "-//W3C//DTD SVG 20010904//EN"
 "http://www.w3.org/TR/2001/REC-SVG-20010904/DTD/svg10.dtd">
<svg version="1.0" xmlns="http://www.w3.org/2000/svg"
 width="225.000000pt" height="225.000000pt" viewBox="0 0 225.000000 225.000000"
 preserveAspectRatio="xMidYMid meet">
<metadata>
Created by potrace 1.15, written by Peter Selinger 2001-2017
</metadata>
<g transform="translate(0.000000,225.000000) scale(0.100000,-0.100000)"
fill="#000000" stroke="none">
<path d="M160 2217 c-35 -18 -49 -61 -29 -95 8 -15 165 -220 347 -455 l332
-428 0 -588 c0 -548 1 -589 18 -603 41 -35 48 -33 316 118 144 81 269 154 278
162 17 14 18 49 18 463 l0 448 293 378 c161 208 316 409 345 446 61 79 67 114
26 146 -27 21 -31 21 -973 21 -739 0 -951 -3 -971 -13z m1754 -139 c-4 -7
-139 -182 -299 -388 -161 -206 -297 -385 -303 -397 -9 -15 -12 -144 -12 -450
l0 -429 -172 -97 -173 -97 -5 537 c-3 296 -6 539 -8 539 -7 4 -602 780 -602
787 0 4 356 7 791 7 629 0 789 -3 783 -12z"/>
</g>
</svg>
