<?xml version="1.0" encoding="UTF-8"?>
<svg width="15px" height="15px" viewBox="0 0 15 15" version="1.1" xmlns="http://www.w3.org/2000/svg" xmlns:xlink="http://www.w3.org/1999/xlink">
    <!-- Generator: Sketch 52.6 (67491) - http://www.bohemiancoding.com/sketch -->
    <title>Growth</title>
    <desc>Created with Sketch.</desc>
    <g id="Page-1" stroke="none" stroke-width="1" fill="none" fill-rule="evenodd">
        <g id="Rev1.3-iPad-Map-View-Executive-dashboard-2A" transform="translate(-311.000000, -211.000000)" fill="#528A2E" fill-rule="nonzero">
            <g id="Group-3" transform="translate(20.000000, 155.000000)">
                <path d="M291,63.5 C291,59.3568548 294.356855,56 298.5,56 C302.643145,56 306,59.3568548 306,63.5 C306,67.6431452 302.643145,71 298.5,71 C294.356855,71 291,67.6431452 291,63.5 Z M295.342742,64.3739919 L297.532258,62.0907258 L297.532258,67.6129032 C297.532258,68.015121 297.855847,68.3387097 298.258065,68.3387097 L298.741935,68.3387097 C299.144153,68.3387097 299.467742,68.015121 299.467742,67.6129032 L299.467742,62.0907258 L301.657258,64.3739919 C301.938508,64.6673387 302.407258,64.6733871 302.694556,64.3860887 L303.024194,64.0534274 C303.308468,63.7691532 303.308468,63.3094758 303.024194,63.0282258 L299.014113,59.015121 C298.729839,58.7308468 298.270161,58.7308468 297.988911,59.015121 L293.972782,63.0282258 C293.688508,63.3125 293.688508,63.7721774 293.972782,64.0534274 L294.302419,64.3860887 C294.592742,64.6733871 295.061492,64.6673387 295.342742,64.3739919 Z" id="Growth"></path>
            </g>
        </g>
    </g>
</svg>