<?xml version="1.0" encoding="UTF-8"?>
<svg width="32px" height="33px" viewBox="0 0 32 33" version="1.1" xmlns="http://www.w3.org/2000/svg" xmlns:xlink="http://www.w3.org/1999/xlink">
    <!-- Generator: sketchtool 63.1 (101010) - https://sketch.com -->
    <title>A7AF2E4D-3438-4EF4-8F78-96BB062202DD@1x</title>
    <desc>Created with sketchtool.</desc>
    <g id="Page-1" stroke="none" stroke-width="1" fill="none" fill-rule="evenodd">
        <g id="A_Homepage" transform="translate(-109.000000, -272.000000)" fill-rule="nonzero">
            <g id="Group-7" transform="translate(-0.000000, 0.000000)">
                <g id="Chunk-1" transform="translate(83.000000, 156.000000)">
                    <g id="Group-6" transform="translate(0.000000, 90.000000)">
                        <g id="Group-15">
                            <g id="Card-1">
                                <g id="A" transform="translate(26.000000, 26.000000)">
                                    <g id="Group-9">
                                        <g id="health-ranking" transform="translate(0.000000, 0.500000)">
                                            <path d="M31.249018,17.0700257 C30.3204479,16.252466 28.9057287,16.3391447 28.0839118,17.2639491 L22.6263546,23.4971997 C22.1424819,24.040833 21.4495344,24.3520295 20.7217503,24.3525402 L15.7039835,24.3525402 C15.3246602,24.3608794 15.000309,24.0813693 14.9525305,23.7049747 C14.9340371,23.5043453 15.0008318,23.3051957 15.1365585,23.1562917 C15.2722853,23.0073876 15.4644115,22.9224783 15.6658914,22.9223555 L20.0464814,22.9223555 C21.2385551,22.9391569 22.2323568,22.0140512 22.3008404,20.8238278 C22.3195995,20.23791 22.0998818,19.6694436 21.6919414,19.2484492 C21.2840011,18.8274548 20.7227352,18.5899461 20.1365173,18.5902463 L14.3672975,18.5902463 C11.0343303,17.2562548 7.22772895,18.023013 4.6711299,20.5433315 L0.0238952741,25.1039932 C0.00864402879,25.1183862 0,25.1384294 0,25.1593999 C0,25.1803703 0.00864402879,25.2004135 0.0238952741,25.2148065 L8.12712108,31.8636072 L9.97978168,30.0109466 L20.6213257,30.0109466 C22.1665196,30.0114561 23.6363762,29.3434542 24.6521611,28.1790635 L31.4671817,20.2351319 C32.2786666,19.3000998 32.1811184,17.8848763 31.249018,17.0700257 Z" id="Path" fill="#0072FF"></path>
                                            <path d="M19.3573609,15.8372273 C1.41598791,6.0510238 14.5092771,-4.98875563 19.3573609,2.42881261 C24.2192964,-4.97490396 37.298734,6.06833839 19.3573609,15.8372273 Z M19.3596413,3.51861364 C19.1304168,3.51861364 18.9271322,3.6663126 18.8551356,3.88442003 L18.8551356,3.88442003 L18.0134103,6.47523987 L15.2891849,6.47523987 C15.0599604,6.47523987 14.8566758,6.62293883 14.7857379,6.84104626 C14.7148001,7.05862431 14.7920906,7.29790722 14.9779054,7.43237151 L14.9779054,7.43237151 L17.1822727,9.03429648 L16.3405474,11.6256457 C16.2696096,11.8432237 16.3469001,12.0825067 16.5327149,12.216971 C16.7185297,12.3530234 16.9699885,12.3519646 17.155274,12.216971 L17.155274,12.216971 L19.3596413,10.6155754 L21.5634793,12.2175003 C21.656122,12.2852619 21.7651757,12.3186136 21.8747588,12.3186136 C21.9838125,12.3186136 22.0933957,12.2852619 22.1860384,12.2175003 C22.3713238,12.083036 22.4491437,11.8437531 22.3782058,11.6261751 L22.3782058,11.6261751 L21.5364806,9.03482587 L23.7408479,7.4329009 C23.9261333,7.29843661 24.0039532,7.0591537 23.932486,6.84104626 C23.8615481,6.62293883 23.6582635,6.47523987 23.429039,6.47523987 L23.429039,6.47523987 L20.7048136,6.47523987 L19.8630883,3.88442003 C19.7921505,3.6663126 19.5888659,3.51861364 19.3596413,3.51861364 Z" id="Combined-Shape" fill="#FF8E05"></path>
                                        </g>
                                    </g>
                                </g>
                            </g>
                        </g>
                    </g>
                </g>
            </g>
        </g>
    </g>
</svg>