<?xml version="1.0" encoding="UTF-8"?>
<svg width="40px" height="40px" viewBox="0 0 40 40" version="1.1" xmlns="http://www.w3.org/2000/svg" xmlns:xlink="http://www.w3.org/1999/xlink">
    <!-- Generator: Sketch 54.1 (76490) - https://sketchapp.com -->
    <title>Maternal Health</title>
    <desc>Created with Sketch.</desc>
    <g id="Maternal-Health" stroke="none" stroke-width="1" fill="none" fill-rule="evenodd">
        <path d="M23.4167258,23.9146932 C23.3808083,24.1166033 23.2826686,24.3093157 23.1230155,24.461831 C22.1584102,25.3833114 20.8722765,25.8919752 19.5476195,25.879615 C16.8792126,25.879615 14.6658803,23.9319921 14.6658803,21.4639628 C14.6658803,20.911678 15.1135956,20.4639628 15.6658803,20.4639628 C16.2181651,20.4639628 16.6658803,20.911678 16.6658803,21.4639628 C16.6658803,21.7227837 16.7158318,21.9741287 16.8086413,22.2107491 C17.0298402,22.0171516 17.2778908,21.8154159 17.5503574,21.613604 C18.6113464,20.8277449 19.7220101,20.2951906 20.8649089,20.134712 C20.9880631,18.7675249 21.8747175,17.6204774 23.0952442,17.1231973 C22.6758326,16.7757736 22.2069285,16.4903782 21.7029576,16.27718 C21.165726,17.8409861 19.6821198,18.9648323 17.9360253,18.9648323 C16.8535533,18.9648323 15.871962,18.532911 15.1541924,17.8320094 C15.1226607,17.9345819 15.0739516,18.0337876 15.0074071,18.1254883 C13.6545139,19.9898265 13.5837155,22.4931441 14.8290767,24.4309657 C16.074438,26.3687873 18.3809456,27.3443043 20.6388198,26.8881453 C22.2944939,26.5536489 23.6754079,25.4995488 24.4501455,24.0662793 C24.0909395,24.0658754 23.7440416,24.012922 23.4167258,23.9146932 Z M21.8342997,22.9370914 C21.6006427,22.689821 21.4016092,22.4094869 21.2449545,22.1038443 C20.4425578,22.1945949 19.5880732,22.5931647 18.740755,23.2207609 C18.5680856,23.3486546 18.4021524,23.4813734 18.2440676,23.6164781 C18.6355983,23.7841872 19.0807813,23.8796455 19.5569173,23.8796582 C20.3698551,23.8872171 21.1536497,23.5772276 21.7414987,23.0156597 C21.771206,22.9872806 21.8022062,22.9610927 21.8342997,22.9370914 Z M26.9368679,23.0748993 C26.2832889,25.983079 23.9790206,28.2537314 21.0348785,28.8485374 C17.9691991,29.4678977 14.8374864,28.1433674 13.1465692,25.5122466 C11.4556521,22.8811258 11.5517802,19.4821901 13.3887013,16.950843 C13.5993737,16.6605285 13.9369926,16.5168359 14.2702541,16.5406388 C14.0666503,16.0621415 13.9539963,15.5356283 13.9539963,14.9828034 C13.9539963,12.7835895 15.7368114,11.0007744 17.9360253,11.0007744 C19.8663229,11.0007744 21.4758289,12.3742467 21.8405825,14.1972308 C23.4309221,14.7069541 24.8132934,15.727784 25.768747,17.1053813 C27.1091562,17.6306563 28.0583441,18.9355926 28.0583441,20.4622237 C28.0583441,21.4905458 27.6276763,22.41828 26.9368679,23.0748993 Z M25.4332923,21.7329718 C25.8134606,21.4396504 26.0583441,20.9795348 26.0583441,20.4622237 C26.0583441,19.7389945 25.5797057,19.1275574 24.9219153,18.9273986 C24.8861332,18.9199053 24.8507675,18.9104636 24.8159903,18.8991135 C24.6997444,18.8723228 24.5786685,18.8581657 24.4542861,18.8581657 C23.5683894,18.8581657 22.8502282,19.5763269 22.8502282,20.4622237 C22.8502282,21.3481204 23.5683894,22.0662816 24.4542861,22.0662816 C24.8118248,22.0662816 25.1420419,21.9493043 25.4087533,21.7515338 C25.4169061,21.7453106 25.4250892,21.7391261 25.4333644,21.7330683 Z M17.9360253,16.9648323 C19.0306696,16.9648323 19.9180542,16.0774477 19.9180542,14.9828034 C19.9180542,13.888159 19.0306696,13.0007744 17.9360253,13.0007744 C16.8413809,13.0007744 15.9539963,13.888159 15.9539963,14.9828034 C15.9539963,16.0774477 16.8413809,16.9648323 17.9360253,16.9648323 Z" id="Maternal-health" fill="#FFFFFF" fill-rule="nonzero"></path>
    </g>
</svg>