<?xml version="1.0" encoding="UTF-8"?>
<svg width="15px" height="15px" viewBox="0 0 15 15" version="1.1" xmlns="http://www.w3.org/2000/svg" xmlns:xlink="http://www.w3.org/1999/xlink">
    <!-- Generator: Sketch 52.6 (67491) - http://www.bohemiancoding.com/sketch -->
    <title>Nochange</title>
    <desc>Created with Sketch.</desc>
    <g id="Page-1" stroke="none" stroke-width="1" fill="none" fill-rule="evenodd">
        <g id="Rev1.3-iPad-Map-View-Executive-dashboard-2A" transform="translate(-585.000000, -211.000000)" fill="#E09C24" fill-rule="nonzero">
            <g id="Group-3" transform="translate(20.000000, 155.000000)">
                <path d="M565,63.5 C565,59.3568548 568.356855,56 572.5,56 C576.643145,56 580,59.3568548 580,63.5 C580,67.6431452 576.643145,71 572.5,71 C568.356855,71 565,67.6431452 565,63.5 Z M573.5,60.5 C573.5,59.9477153 573.052285,59.5 572.5,59.5 C571.947715,59.5 571.5,59.9477153 571.5,60.5 L571.5,67.5 C571.5,68.0522847 571.947715,68.5 572.5,68.5 C573.052285,68.5 573.5,68.0522847 573.5,67.5 L573.5,60.5 Z" id="Nochange" transform="translate(572.500000, 63.500000) rotate(90.000000) translate(-572.500000, -63.500000) "></path>
            </g>
        </g>
    </g>
</svg>