<?xml version="1.0" encoding="UTF-8"?>
<svg width="22px" height="29px" viewBox="0 0 22 29" version="1.1" xmlns="http://www.w3.org/2000/svg" xmlns:xlink="http://www.w3.org/1999/xlink">
    <!-- Generator: sketchtool 50.2 (55047) - http://www.bohemiancoding.com/sketch -->
    <title>34806DD5-97D0-4666-BA0D-B98AA0885EEC@1.5x</title>
    <desc>Created with sketchtool.</desc>
    <defs>
        <rect id="path-1" x="0" y="0" width="22" height="30"></rect>
        <path d="M9.95613694,39.0990446 C5.27480638,39.0990446 1.47976015,35.3039984 1.47976015,30.6226678 C1.47976015,25.9412448 5.27480638,22.146291 9.95613694,22.146291 C14.6374675,22.146291 18.4325137,25.9413373 18.4325137,30.6226678 C18.4284457,35.3023342 14.6358033,39.0949766 9.95613694,39.0990446 Z M4.85255929,18.1373938 L14.5937358,18.1373938 L14.5937358,16.9687485 L4.85255929,16.9687485 L4.85255929,18.1373938 Z M2.00491089,15.4894506 L5.4738644,15.4894506 L5.4738644,1.52487874 L2.00491089,1.52487874 L2.00491089,15.4894506 Z M6.95316227,15.4894506 L12.5005293,15.4894506 L12.5005293,1.52487874 L6.95316227,1.52487874 L6.95316227,15.4894506 Z M13.9798271,15.4894506 L17.4487807,15.4894506 L17.4487807,1.52487874 L13.9798271,1.52487874 L13.9798271,15.4894506 Z M10.6957859,20.7039756 L10.6957859,19.6166917 L14.5937358,19.6166917 C15.410678,19.6166917 16.0730336,18.9544285 16.0730336,18.1373938 L16.0730336,16.9687485 L17.4487807,16.9687485 C18.2657229,16.9687485 18.9280785,16.3064853 18.9280785,15.4894506 L18.9280785,1.52487874 C18.9280785,0.707844031 18.2657229,0.0455808656 17.4487807,0.0455808656 L2.00491089,0.0455808656 C1.18787619,0.0455808656 0.525613024,0.707844031 0.525613024,1.52487874 L0.525613024,15.4894506 C0.525613024,16.3064853 1.18787619,16.9687485 2.00491089,16.9687485 L3.37326142,16.9687485 L3.37326142,18.1373938 C3.37326142,18.9544285 4.03552459,19.6166917 4.85255929,19.6166917 L9.21648801,19.6166917 L9.21648801,20.7039756 C3.73328554,21.1124467 -0.380549377,25.8886373 0.0280142034,31.3717473 C0.436485328,36.8549498 5.21258341,40.9687847 10.6957859,40.5603135 C16.1789883,40.1518424 20.2928233,35.3756519 19.8842597,29.8924494 C19.5181335,24.9774822 15.6108455,21.0701018 10.6957859,20.7039756 Z" id="path-3"></path>
    </defs>
    <g id="Page-1" stroke="none" stroke-width="1" fill="none" fill-rule="evenodd">
        <g id="Rev1.4-Summary-1" transform="translate(-143.000000, -563.000000)">
            <g id="Group-9" transform="translate(143.000000, 548.000000)">
                <g id="Group-17" transform="translate(0.000000, 15.000000)">
                    <mask id="mask-2" fill="white">
                        <use xlink:href="#path-1"></use>
                    </mask>
                    <g id="Mask"></g>
                    <g mask="url(#mask-2)">
                        <g transform="translate(1.000000, -12.000000)">
                            <mask id="mask-4" fill="white">
                                <use xlink:href="#path-3"></use>
                            </mask>
                            <use id="Rank" stroke="#E09C24" stroke-width="0.5" fill="#FFFFFF" fill-rule="evenodd" xlink:href="#path-3"></use>
                            <text id="21" stroke="none" fill="none" font-family="OpenSans-Bold, Open Sans" font-size="10" font-weight="bold" line-spacing="12">
                                <tspan x="4.14705882" y="35" fill="#FFFFFF">21</tspan>
                            </text>
                        </g>
                    </g>
                </g>
            </g>
        </g>
    </g>
</svg>