<?xml version="1.0" encoding="UTF-8" standalone="no"?>
<svg width="38px" height="38px" viewBox="0 0 38 38" version="1.1" xmlns="http://www.w3.org/2000/svg" xmlns:xlink="http://www.w3.org/1999/xlink">
    <!-- Generator: sketchtool 50.2 (55047) - http://www.bohemiancoding.com/sketch -->
    <title>6DFD186E-48F8-479D-AB68-1BA7276E4541</title>
    <desc>Created with sketchtool.</desc>
    <defs></defs>
    <g id="Page-1" stroke="none" stroke-width="1" fill="none" fill-rule="evenodd">
        <g id="Rev1.3-iPad-Login-New-S2" transform="translate(-663.000000, -440.000000)">
            <g id="INSIGHTS" transform="translate(663.000000, 440.000000)">
                <circle id="Oval-11-Copy-6" fill="#FDC200" cx="19" cy="19" r="19"></circle>
                <g id="Group-3" transform="translate(10.000000, 9.000000)" fill="#000000">
                    <g id="Group">
                        <path d="M2.33333333,14.3333333 L3,14.3333333 C3.07166667,14.3333333 3.14166667,14.325 3.209,14.3106667 C3.23,14.306 3.24966667,14.2973333 3.27033333,14.2916667 C3.31566667,14.2786667 3.361,14.2656667 3.40366667,14.2466667 C3.42866667,14.2356667 3.45166667,14.2206667 3.476,14.2073333 C3.51166667,14.188 3.547,14.1686667 3.57966667,14.145 C3.60366667,14.1276667 3.62566667,14.108 3.64833333,14.0883333 C3.678,14.0626667 3.70666667,14.0366667 3.73333333,14.008 C3.74233333,13.9983333 3.75333333,13.991 3.762,13.981 C3.77333333,13.968 3.78033333,13.9523333 3.79066667,13.9386667 C3.81466667,13.9073333 3.83666667,13.8746667 3.857,13.8406667 C3.872,13.8156667 3.886,13.7906667 3.89866667,13.7643333 C3.91633333,13.7276667 3.93066667,13.6893333 3.944,13.6503333 C3.95266667,13.6243333 3.962,13.5986667 3.96833333,13.5716667 C3.97833333,13.531 3.98366667,13.4893333 3.98866667,13.447 C3.992,13.419 3.99633333,13.3916667 3.997,13.3633333 C3.99733333,13.353 4,13.3436667 4,13.3333333 C4,13.3 3.99333333,13.2686667 3.99,13.236 C3.988,13.2133333 3.99,13.1906667 3.98633333,13.1676667 C3.98533333,13.1606667 3.98233333,13.1546667 3.981,13.148 C3.97633333,13.1236667 3.96866667,13.101 3.96233333,13.0773333 C3.95266667,13.0416667 3.94333333,13.006 3.92966667,12.972 C3.91633333,12.9376667 3.89933333,12.9056667 3.88266667,12.8733333 C3.87366667,12.8566667 3.86566667,12.8393333 3.85566667,12.8233333 C3.68066667,12.5313333 3.36433333,12.3333333 3,12.3333333 L2.33333333,12.3333333 L2.33333333,11 L3,11 C3.07166667,11 3.14166667,10.9916667 3.209,10.9773333 C3.23,10.9726667 3.24966667,10.964 3.27033333,10.9583333 C3.31566667,10.9453333 3.361,10.9323333 3.40366667,10.9133333 C3.42866667,10.9023333 3.45166667,10.8873333 3.476,10.874 C3.51166667,10.8546667 3.547,10.8353333 3.57966667,10.8116667 C3.60366667,10.7943333 3.62566667,10.7746667 3.64833333,10.755 C3.678,10.7293333 3.70666667,10.7033333 3.73333333,10.6746667 C3.74233333,10.665 3.75333333,10.6576667 3.762,10.6476667 C3.77333333,10.6346667 3.78033333,10.619 3.79066667,10.6053333 C3.81466667,10.574 3.83666667,10.5413333 3.857,10.5073333 C3.872,10.4823333 3.886,10.4573333 3.89866667,10.431 C3.91633333,10.3943333 3.93066667,10.356 3.944,10.317 C3.95266667,10.291 3.962,10.2653333 3.96833333,10.2383333 C3.97833333,10.1976667 3.98366667,10.156 3.98866667,10.1136667 C3.992,10.0856667 3.99633333,10.0583333 3.997,10.03 C3.99733333,10.0196667 4,10.0103333 4,10 C4,9.96666667 3.99333333,9.93533333 3.99,9.90266667 C3.988,9.88 3.99,9.85733333 3.98633333,9.83433333 C3.98533333,9.82733333 3.98233333,9.82133333 3.981,9.81466667 C3.97633333,9.79033333 3.96866667,9.76766667 3.96233333,9.744 C3.95266667,9.70833333 3.94333333,9.67266667 3.92966667,9.63866667 C3.91633333,9.60433333 3.89933333,9.57233333 3.88266667,9.54 C3.87366667,9.52333333 3.86566667,9.506 3.85566667,9.49 C3.68066667,9.198 3.36433333,9 3,9 L2.33333333,9 L2.33333333,7.66666667 L3,7.66666667 C3.07166667,7.66666667 3.14166667,7.65833333 3.209,7.644 C3.23,7.63933333 3.24966667,7.63066667 3.27033333,7.625 C3.31566667,7.612 3.361,7.599 3.40366667,7.58 C3.42866667,7.569 3.45166667,7.554 3.476,7.54066667 C3.51166667,7.52133333 3.547,7.502 3.57966667,7.47833333 C3.60366667,7.461 3.62566667,7.44133333 3.64833333,7.42166667 C3.678,7.396 3.70666667,7.37 3.73333333,7.34133333 C3.74233333,7.33166667 3.75333333,7.32433333 3.762,7.31433333 C3.77333333,7.30133333 3.78033333,7.28566667 3.79066667,7.272 C3.81466667,7.24066667 3.83666667,7.208 3.857,7.174 C3.872,7.149 3.886,7.124 3.89866667,7.09766667 C3.91633333,7.061 3.93066667,7.02266667 3.944,6.98366667 C3.95266667,6.95766667 3.962,6.932 3.96833333,6.905 C3.97833333,6.86433333 3.98366667,6.82266667 3.98866667,6.78033333 C3.992,6.75233333 3.99633333,6.725 3.997,6.69666667 C3.99733333,6.68633333 4,6.677 4,6.66666667 C4,6.63333333 3.99333333,6.602 3.99,6.56933333 C3.988,6.54666667 3.99,6.524 3.98633333,6.501 C3.98533333,6.494 3.98233333,6.488 3.981,6.48133333 C3.97633333,6.457 3.96866667,6.43433333 3.96233333,6.41066667 C3.95266667,6.375 3.94333333,6.33933333 3.92966667,6.30533333 C3.91633333,6.271 3.89933333,6.239 3.88266667,6.20666667 C3.87366667,6.19 3.86566667,6.17266667 3.85566667,6.15666667 C3.68066667,5.86466667 3.36433333,5.66666667 3,5.66666667 L2.33333333,5.66666667 L2.33333333,4.33333333 L3,4.33333333 C3.07166667,4.33333333 3.14166667,4.325 3.209,4.31066667 C3.23,4.306 3.24966667,4.29733333 3.27033333,4.29166667 C3.31566667,4.27866667 3.361,4.26566667 3.40366667,4.24666667 C3.42866667,4.23566667 3.45166667,4.22066667 3.476,4.20733333 C3.51166667,4.188 3.547,4.16866667 3.57966667,4.145 C3.60366667,4.12766667 3.62566667,4.108 3.64833333,4.08833333 C3.678,4.06266667 3.70666667,4.03666667 3.73333333,4.008 C3.74233333,3.99833333 3.75333333,3.991 3.762,3.981 C3.77333333,3.968 3.78033333,3.95233333 3.79066667,3.93866667 C3.81466667,3.90733333 3.83666667,3.87466667 3.857,3.84066667 C3.872,3.81566667 3.886,3.79066667 3.89866667,3.76433333 C3.91633333,3.72766667 3.93066667,3.68933333 3.944,3.65033333 C3.95266667,3.62433333 3.962,3.59866667 3.96833333,3.57166667 C3.97833333,3.531 3.98366667,3.48933333 3.98866667,3.447 C3.992,3.419 3.99633333,3.39166667 3.997,3.36333333 C3.99733333,3.353 4,3.34366667 4,3.33333333 C4,3.3 3.99333333,3.26866667 3.99,3.236 C3.988,3.21333333 3.99,3.19066667 3.98633333,3.16766667 C3.98533333,3.16066667 3.98233333,3.15466667 3.981,3.148 C3.97633333,3.12366667 3.96866667,3.101 3.96233333,3.07733333 C3.95266667,3.04166667 3.94333333,3.006 3.92966667,2.972 C3.91633333,2.93766667 3.89933333,2.90566667 3.88266667,2.87333333 C3.87366667,2.85666667 3.86566667,2.83933333 3.85566667,2.82333333 C3.68066667,2.53133333 3.36433333,2.33333333 3,2.33333333 L2.33333333,2.33333333 L2.33333333,0.666666667 L16,0.666666667 C16.5513333,0.666666667 17,1.11533333 17,1.66666667 L17,15.3333333 L7.33333333,15.3333333 C7.28833333,15.3333333 7.24333333,15.3423333 7.202,15.3603333 L4.86866667,16.3603333 C4.746,16.4126667 4.66666667,16.5333333 4.66666667,16.6666667 C4.66666667,16.8 4.746,16.9206667 4.86866667,16.973 L7.202,17.973 C7.24333333,17.991 7.28833333,18 7.33333333,18 L17,18 L17,18.3333333 C17,18.8846667 16.5513333,19.3333333 16,19.3333333 L2.33333333,19.3333333 L2.33333333,17.6666667 L3,17.6666667 C3.07166667,17.6666667 3.14166667,17.6583333 3.209,17.644 C3.23,17.6393333 3.24966667,17.6306667 3.27033333,17.625 C3.31566667,17.612 3.361,17.599 3.40366667,17.58 C3.42866667,17.569 3.45166667,17.554 3.476,17.5406667 C3.51166667,17.5213333 3.547,17.502 3.57966667,17.4783333 C3.60366667,17.461 3.62566667,17.4413333 3.64833333,17.4216667 C3.678,17.396 3.70666667,17.37 3.73333333,17.3413333 C3.74233333,17.3316667 3.75333333,17.3243333 3.762,17.3143333 C3.77333333,17.3013333 3.78033333,17.2856667 3.79066667,17.272 C3.81466667,17.2406667 3.83666667,17.208 3.857,17.174 C3.872,17.149 3.886,17.124 3.89866667,17.0976667 C3.91633333,17.061 3.93066667,17.0226667 3.944,16.9836667 C3.95266667,16.9576667 3.962,16.932 3.96833333,16.905 C3.97833333,16.8643333 3.98366667,16.8226667 3.98866667,16.7803333 C3.992,16.7523333 3.99633333,16.725 3.997,16.6966667 C3.99733333,16.6863333 4,16.677 4,16.6666667 C4,16.6333333 3.99333333,16.602 3.99,16.5693333 C3.988,16.5466667 3.99,16.524 3.98633333,16.501 C3.98533333,16.494 3.98233333,16.488 3.981,16.4813333 C3.97633333,16.457 3.96866667,16.4343333 3.96233333,16.4106667 C3.95266667,16.375 3.94333333,16.3393333 3.92966667,16.3053333 C3.91633333,16.271 3.89933333,16.239 3.88266667,16.2066667 C3.87366667,16.19 3.86566667,16.1726667 3.85566667,16.1566667 C3.68066667,15.8646667 3.36433333,15.6666667 3,15.6666667 L2.33333333,15.6666667 L2.33333333,14.3333333 Z M0.666666667,13.3333333 C0.666666667,13.1496667 0.816333333,13 1,13 L2.96433333,13 C3.091,13 3.20533333,13.062 3.272,13.152 C3.27866667,13.1616667 3.286,13.1706667 3.29166667,13.181 C3.302,13.1986667 3.30766667,13.218 3.31366667,13.2373333 C3.32033333,13.2586667 3.325,13.2803333 3.327,13.3033333 C3.329,13.3303333 3.327,13.356 3.32333333,13.382 C3.32033333,13.402 3.318,13.422 3.31166667,13.4403333 C3.30266667,13.4663333 3.28833333,13.4903333 3.27266667,13.5136667 C3.263,13.5283333 3.25533333,13.5443333 3.24333333,13.557 C3.22166667,13.5803333 3.19566667,13.5973333 3.169,13.6133333 C3.157,13.6206667 3.14733333,13.631 3.13433333,13.6366667 C3.09233333,13.6556667 3.047,13.6666667 3,13.6666667 L1,13.6666667 C0.816333333,13.6666667 0.666666667,13.517 0.666666667,13.3333333 Z M0.666666667,10 C0.666666667,9.81633333 0.816333333,9.66666667 1,9.66666667 L2.96433333,9.66666667 C3.091,9.66666667 3.20533333,9.72866667 3.272,9.81866667 C3.27866667,9.82833333 3.286,9.83733333 3.29166667,9.84766667 C3.302,9.86533333 3.30766667,9.88466667 3.31366667,9.904 C3.32033333,9.92533333 3.325,9.947 3.327,9.97 C3.329,9.997 3.327,10.0226667 3.32333333,10.0486667 C3.32033333,10.0686667 3.318,10.0886667 3.31166667,10.107 C3.30266667,10.133 3.28833333,10.157 3.27266667,10.1803333 C3.263,10.195 3.25533333,10.211 3.24333333,10.2236667 C3.22166667,10.247 3.19566667,10.264 3.169,10.28 C3.157,10.2873333 3.14733333,10.2976667 3.13433333,10.3033333 C3.09233333,10.3223333 3.047,10.3333333 3,10.3333333 L1,10.3333333 C0.816333333,10.3333333 0.666666667,10.1836667 0.666666667,10 Z M0.666666667,6.66666667 C0.666666667,6.483 0.816333333,6.33333333 1,6.33333333 L2.96433333,6.33333333 C3.091,6.33333333 3.20533333,6.39533333 3.272,6.48533333 C3.27866667,6.495 3.286,6.504 3.29166667,6.51433333 C3.302,6.532 3.30766667,6.55133333 3.31366667,6.57066667 C3.32033333,6.592 3.325,6.61366667 3.327,6.63666667 C3.329,6.66366667 3.327,6.68933333 3.32333333,6.71533333 C3.32033333,6.73533333 3.318,6.75533333 3.31166667,6.77366667 C3.30266667,6.79966667 3.28833333,6.82366667 3.27266667,6.847 C3.263,6.86166667 3.25533333,6.87766667 3.24333333,6.89033333 C3.22166667,6.91366667 3.19566667,6.93066667 3.169,6.94666667 C3.157,6.954 3.14733333,6.96433333 3.13433333,6.97 C3.09233333,6.989 3.047,7 3,7 L1,7 C0.816333333,7 0.666666667,6.85033333 0.666666667,6.66666667 Z M0.666666667,3.33333333 C0.666666667,3.14966667 0.816333333,3 1,3 L2.96433333,3 C3.091,3 3.20533333,3.062 3.272,3.152 C3.27866667,3.16166667 3.286,3.17066667 3.29166667,3.181 C3.302,3.19866667 3.30766667,3.218 3.31366667,3.23733333 C3.32033333,3.25866667 3.325,3.28033333 3.327,3.30333333 C3.329,3.33033333 3.327,3.356 3.32333333,3.382 C3.32033333,3.402 3.318,3.422 3.31166667,3.44033333 C3.30266667,3.46633333 3.28833333,3.49033333 3.27266667,3.51366667 C3.263,3.52833333 3.25533333,3.54433333 3.24333333,3.557 C3.22166667,3.58033333 3.19566667,3.59733333 3.169,3.61333333 C3.157,3.62066667 3.14733333,3.631 3.13433333,3.63666667 C3.09233333,3.65566667 3.047,3.66666667 3,3.66666667 L1,3.66666667 C0.816333333,3.66666667 0.666666667,3.517 0.666666667,3.33333333 Z M16.3333333,17.3333333 L17,17.3333333 L17,16 L16.3333333,16 L16.3333333,17.3333333 Z M7.66666667,17.3333333 L15.6666667,17.3333333 L15.6666667,16 L7.66666667,16 L7.66666667,17.3333333 Z M7,17.1613333 L5.84633333,16.6666667 L7,16.172 L7,17.1613333 Z M18.6666667,16 C19.0343333,16 19.3333333,16.299 19.3333333,16.6666667 C19.3333333,17.0343333 19.0343333,17.3333333 18.6666667,17.3333333 L17.6666667,17.3333333 L17.6666667,16 L18.6666667,16 Z M0.666666667,16.6666667 C0.666666667,16.483 0.816333333,16.3333333 1,16.3333333 L2.96433333,16.3333333 C3.091,16.3333333 3.20533333,16.3953333 3.272,16.4853333 C3.27866667,16.495 3.286,16.504 3.29166667,16.5143333 C3.302,16.532 3.30766667,16.5513333 3.31366667,16.5706667 C3.32033333,16.592 3.325,16.6136667 3.327,16.6366667 C3.329,16.6636667 3.327,16.6893333 3.32333333,16.7153333 C3.32033333,16.7353333 3.318,16.7553333 3.31166667,16.7736667 C3.30266667,16.7996667 3.28833333,16.8236667 3.27266667,16.847 C3.263,16.8616667 3.25533333,16.8776667 3.24333333,16.8903333 C3.22166667,16.9136667 3.19566667,16.9306667 3.169,16.9466667 C3.157,16.954 3.14733333,16.9643333 3.13433333,16.97 C3.09233333,16.989 3.047,17 3,17 L1,17 C0.816333333,17 0.666666667,16.8503333 0.666666667,16.6666667 Z M1,15.6666667 C0.448666667,15.6666667 0,16.1153333 0,16.6666667 C0,17.218 0.448666667,17.6666667 1,17.6666667 L1.66666667,17.6666667 L1.66666667,19.6666667 C1.66666667,19.8506667 1.816,20 2,20 L16,20 C16.919,20 17.6666667,19.2523333 17.6666667,18.3333333 L17.6666667,18 L18.6666667,18 C19.402,18 20,17.402 20,16.6666667 C20,15.9313333 19.402,15.3333333 18.6666667,15.3333333 L17.6666667,15.3333333 L17.6666667,1.66666667 C17.6666667,0.747666667 16.919,0 16,0 L2,0 C1.816,0 1.66666667,0.149333333 1.66666667,0.333333333 L1.66666667,2.33333333 L1,2.33333333 C0.448666667,2.33333333 0,2.782 0,3.33333333 C0,3.88466667 0.448666667,4.33333333 1,4.33333333 L1.66666667,4.33333333 L1.66666667,5.66666667 L1,5.66666667 C0.448666667,5.66666667 0,6.11533333 0,6.66666667 C0,7.218 0.448666667,7.66666667 1,7.66666667 L1.66666667,7.66666667 L1.66666667,9 L1,9 C0.448666667,9 0,9.44866667 0,10 C0,10.5513333 0.448666667,11 1,11 L1.66666667,11 L1.66666667,12.3333333 L1,12.3333333 C0.448666667,12.3333333 0,12.782 0,13.3333333 C0,13.8846667 0.448666667,14.3333333 1,14.3333333 L1.66666667,14.3333333 L1.66666667,15.6666667 L1,15.6666667 Z" id="Fill-1"></path>
                        <path d="M5.66666667,12.6666667 L7.66666667,12.6666667 L7.66666667,10.6666667 L5.66666667,10.6666667 L5.66666667,12.6666667 Z M5.33333333,13.3333333 L8,13.3333333 C8.184,13.3333333 8.33333333,13.184 8.33333333,13 L8.33333333,10.3333333 C8.33333333,10.1493333 8.184,10 8,10 L5.33333333,10 C5.14933333,10 5,10.1493333 5,10.3333333 L5,13 C5,13.184 5.14933333,13.3333333 5.33333333,13.3333333 Z" id="Fill-4"></path>
                        <polygon id="Fill-5" points="9 11.6666667 15.6666667 11.6666667 15.6666667 11 9 11"></polygon>
                        <polygon id="Fill-6" points="9 12.6666667 15.6666667 12.6666667 15.6666667 12 9 12"></polygon>
                        <polygon id="Fill-7" points="9 13.6666667 15.6666667 13.6666667 15.6666667 13 9 13"></polygon>
                        <path d="M5.66666667,8.33333333 L7.66666667,8.33333333 L7.66666667,6.33333333 L5.66666667,6.33333333 L5.66666667,8.33333333 Z M5.33333333,9 L8,9 C8.184,9 8.33333333,8.85066667 8.33333333,8.66666667 L8.33333333,6 C8.33333333,5.816 8.184,5.66666667 8,5.66666667 L5.33333333,5.66666667 C5.14933333,5.66666667 5,5.816 5,6 L5,8.66666667 C5,8.85066667 5.14933333,9 5.33333333,9 Z" id="Fill-8"></path>
                        <polygon id="Fill-9" points="9 6.66666667 15.6666667 6.66666667 15.6666667 6 9 6"></polygon>
                        <polygon id="Fill-10" points="9 8.66666667 15.6666667 8.66666667 15.6666667 8 9 8"></polygon>
                        <polygon id="Fill-11" points="9 9.66666667 15.6666667 9.66666667 15.6666667 9 9 9"></polygon>
                        <path d="M5.66666667,4 L7.66666667,4 L7.66666667,2 L5.66666667,2 L5.66666667,4 Z M5.33333333,4.66666667 L8,4.66666667 C8.184,4.66666667 8.33333333,4.51733333 8.33333333,4.33333333 L8.33333333,1.66666667 C8.33333333,1.48266667 8.184,1.33333333 8,1.33333333 L5.33333333,1.33333333 C5.14933333,1.33333333 5,1.48266667 5,1.66666667 L5,4.33333333 C5,4.51733333 5.14933333,4.66666667 5.33333333,4.66666667 Z" id="Fill-12"></path>
                        <polygon id="Fill-13" points="9 2.66666667 15.6666667 2.66666667 15.6666667 2 9 2"></polygon>
                        <polygon id="Fill-14" points="9 3.66666667 15.6666667 3.66666667 15.6666667 3 9 3"></polygon>
                        <polygon id="Fill-15" points="9 5.66666667 15.6666667 5.66666667 15.6666667 5 9 5"></polygon>
                    </g>
                </g>
            </g>
        </g>
    </g>
</svg>