<?xml version="1.0" encoding="UTF-8"?>
<svg width="38px" height="38px" viewBox="0 0 38 38" version="1.1" xmlns="http://www.w3.org/2000/svg" xmlns:xlink="http://www.w3.org/1999/xlink">
    <!-- Generator: Sketch 51.2 (57519) - http://www.bohemiancoding.com/sketch -->
    <title>INDICATORS</title>
    <desc>Created with Sketch.</desc>
    <defs>
        <polygon id="path-1" points="0 0 20 0 20 19.9975 0 19.9975"></polygon>
    </defs>
    <g id="Page-1" stroke="none" stroke-width="1" fill="none" fill-rule="evenodd">
        <g id="Rev1.3-iPad-Login-New-S2" transform="translate(-589.000000, -399.000000)">
            <g id="INDICATORS" transform="translate(589.000000, 399.000000)">
                <circle id="Oval-11-Copy-2" fill="#29B8FD" cx="19" cy="19" r="19"></circle>
                <g id="Group" transform="translate(9.000000, 8.000000)">
                    <g id="Group-3">
                        <mask id="mask-2" fill="white">
                            <use xlink:href="#path-1"></use>
                        </mask>
                        <g id="Clip-2"></g>
                        <path d="M10.36,19.3333333 C10.5226667,18.2043333 11.4936667,17.3333333 12.6666667,17.3333333 L19.3333333,17.3333333 L19.3333333,19.3333333 L10.36,19.3333333 Z M0.666666667,17.3333333 L7.33333333,17.3333333 C8.50633333,17.3333333 9.47733333,18.2043333 9.64,19.3333333 L0.666666667,19.3333333 L0.666666667,17.3333333 Z M5.33333333,9.66666667 C3.679,9.66666667 2.33333333,8.32066667 2.33333333,6.66666667 C2.33333333,5.01266667 3.679,3.66666667 5.33333333,3.66666667 C6.98766667,3.66666667 8.33333333,5.01266667 8.33333333,6.66666667 C8.33333333,8.32066667 6.98766667,9.66666667 5.33333333,9.66666667 Z M0.666666667,0.666666667 L7.33333333,0.666666667 C8.61966667,0.666666667 9.66666667,1.71333333 9.66666667,3 L9.66666667,9.862 L9.33333333,10.1953333 L8.14933333,9.01133333 C8.67966667,8.375 9,7.55766667 9,6.66666667 C9,4.645 7.355,3 5.33333333,3 C3.31166667,3 1.66666667,4.645 1.66666667,6.66666667 C1.66666667,8.68833333 3.31166667,10.3333333 5.33333333,10.3333333 C6.22433333,10.3333333 7.04166667,10.013 7.678,9.48266667 L8.862,10.6666667 L8.431,11.0976667 C8.30066667,11.228 8.30066667,11.4386667 8.431,11.569 L9.66666667,12.8046667 L9.66666667,17.783 C9.11633333,17.1026667 8.27466667,16.6666667 7.33333333,16.6666667 L0.666666667,16.6666667 L0.666666667,0.666666667 Z M10,10.4713333 L13.862,14.3333333 L13,15.1953333 L9.138,11.3333333 L10,10.4713333 Z M12.6666667,0.666666667 L19.3333333,0.666666667 L19.3333333,16.6666667 L12.6666667,16.6666667 C11.7253333,16.6666667 10.8836667,17.1026667 10.3333333,17.783 L10.3333333,13.4713333 L12.7643333,15.9023333 C12.8293333,15.9673333 12.9146667,16 13,16 C13.0853333,16 13.1706667,15.9673333 13.2356667,15.9023333 L13.4713333,15.6666667 L18.3333333,15.6666667 L18.3333333,15 L14.138,15 L14.569,14.569 C14.634,14.504 14.6666667,14.4186667 14.6666667,14.3333333 L18.3333333,14.3333333 L18.3333333,13.6666667 L14.138,13.6666667 L13.4713333,13 L18.3333333,13 L18.3333333,12.3333333 L12.8046667,12.3333333 L10.3333333,9.862 L10.3333333,3 C10.3333333,1.71333333 11.3803333,0.666666667 12.6666667,0.666666667 Z M19.6666667,0 L12.6666667,0 C11.5053333,0 10.4983333,0.664333333 10,1.632 C9.50166667,0.664333333 8.49466667,0 7.33333333,0 L0.333333333,0 C0.149,0 0,0.149333333 0,0.333333333 L0,19.6666667 C0,19.8506667 0.149,20 0.333333333,20 L19.6666667,20 C19.851,20 20,19.8506667 20,19.6666667 L20,0.333333333 C20,0.149333333 19.851,0 19.6666667,0 Z" id="Fill-1" fill="#000000" mask="url(#mask-2)"></path>
                    </g>
                    <polygon id="Fill-4" fill="#000000" points="3.66666667 5.66666667 7 5.66666667 7 5 3.66666667 5"></polygon>
                    <polygon id="Fill-5" fill="#000000" points="3.66666667 7 7 7 7 6.33333333 3.66666667 6.33333333"></polygon>
                    <polygon id="Fill-6" fill="#000000" points="3.66666667 8.33333333 7 8.33333333 7 7.66666667 3.66666667 7.66666667"></polygon>
                    <polygon id="Fill-7" fill="#000000" points="3 11.6666667 7.66666667 11.6666667 7.66666667 11 3 11"></polygon>
                    <polygon id="Fill-8" fill="#000000" points="1.66666667 13 7.66666667 13 7.66666667 12.3333333 1.66666667 12.3333333"></polygon>
                    <polygon id="Fill-9" fill="#000000" points="1.66666667 14.3333333 7.66666667 14.3333333 7.66666667 13.6666667 1.66666667 13.6666667"></polygon>
                    <polygon id="Fill-10" fill="#000000" points="1.66666667 15.6666667 7.66666667 15.6666667 7.66666667 15 1.66666667 15"></polygon>
                    <polygon id="Fill-11" fill="#000000" points="13.6666667 3 18.3333333 3 18.3333333 2.33333333 13.6666667 2.33333333"></polygon>
                    <polygon id="Fill-12" fill="#000000" points="12.3333333 4.33333333 18.3333333 4.33333333 18.3333333 3.66666667 12.3333333 3.66666667"></polygon>
                    <polygon id="Fill-13" fill="#000000" points="12.3333333 5.66666667 18.3333333 5.66666667 18.3333333 5 12.3333333 5"></polygon>
                    <polygon id="Fill-14" fill="#000000" points="12.3333333 7 18.3333333 7 18.3333333 6.33333333 12.3333333 6.33333333"></polygon>
                    <polygon id="Fill-15" fill="#000000" points="13.6666667 9 18.3333333 9 18.3333333 8.33333333 13.6666667 8.33333333"></polygon>
                    <polygon id="Fill-16" fill="#000000" points="12.3333333 10.3333333 18.3333333 10.3333333 18.3333333 9.66666667 12.3333333 9.66666667"></polygon>
                    <polygon id="Fill-17" fill="#000000" points="13.6666667 11.6666667 18.3333333 11.6666667 18.3333333 11 13.6666667 11"></polygon>
                    <polygon id="Fill-18" fill="#000000" points="1.66666667 2.33333333 2.33333333 2.33333333 2.33333333 1.66666667 1.66666667 1.66666667"></polygon>
                    <polygon id="Fill-19" fill="#000000" points="3 2.33333333 3.66666667 2.33333333 3.66666667 1.66666667 3 1.66666667"></polygon>
                    <polygon id="Fill-20" fill="#000000" points="4.33333333 2.33333333 5 2.33333333 5 1.66666667 4.33333333 1.66666667"></polygon>
                </g>
            </g>
        </g>
    </g>
</svg>