<?xml version="1.0" encoding="UTF-8"?>
<svg width="31px" height="61px" viewBox="0 0 31 61" version="1.1" xmlns="http://www.w3.org/2000/svg" xmlns:xlink="http://www.w3.org/1999/xlink">
    <!-- Generator: sketchtool 52.6 (67491) - http://www.bohemiancoding.com/sketch -->
    <title>CD2353AD-A2FD-4E8B-A0AC-FE5A84B720AE</title>
    <desc>Created with sketchtool.</desc>
    <g id="Page-1" stroke="none" stroke-width="1" fill="none" fill-rule="evenodd">
        <g id="Rev1.3-IPad-Map-View-Landing-Page-Copy-7" transform="translate(-235.000000, -377.000000)">
            <g id="Group-9" transform="translate(218.000000, 325.000000)">
                <g id="Rank" transform="translate(15.000000, 52.000000)">
                    <g id="Group-17">
                        <polygon id="Mask" points="0.739130435 18.7 33.3478261 18.7 33.3478261 62.9 0.739130435 62.9"></polygon>
                        <g transform="translate(2.695652, 0.500000)" fill="#417505">
                            <path d="M14.7177677,57.6059257 C7.79753986,57.6059257 2.18747153,52.0145576 2.18747153,45.1173973 C2.18747153,38.2201007 7.79753986,32.6288688 14.7177677,32.6288688 C21.6379954,32.6288688 27.2480638,38.2202369 27.2480638,45.1173973 C27.2420501,52.0121057 21.6355353,57.5999321 14.7177677,57.6059257 Z M7.17334852,26.7224269 L21.5733485,26.7224269 L21.5733485,25.0006228 L7.17334852,25.0006228 L7.17334852,26.7224269 Z M2.96378132,22.8211239 L8.09179954,22.8211239 L8.09179954,2.24665467 L2.96378132,2.24665467 L2.96378132,22.8211239 Z M10.2785877,22.8211239 L18.4790433,22.8211239 L18.4790433,2.24665467 L10.2785877,2.24665467 L10.2785877,22.8211239 Z M20.6658314,22.8211239 L25.7938497,22.8211239 L25.7938497,2.24665467 L20.6658314,2.24665467 L20.6658314,22.8211239 Z M15.8111617,30.5038574 L15.8111617,28.9019257 L21.5733485,28.9019257 C22.7810023,28.9019257 23.7601367,27.9261913 23.7601367,26.7224269 L23.7601367,25.0006228 L25.7938497,25.0006228 C27.0015034,25.0006228 27.9806378,24.0248884 27.9806378,22.8211239 L27.9806378,2.24665467 C27.9806378,1.04289021 27.0015034,0.0671558087 25.7938497,0.0671558087 L2.96378132,0.0671558087 C1.75599089,0.0671558087 0.776993166,1.04289021 0.776993166,2.24665467 L0.776993166,22.8211239 C0.776993166,24.0248884 1.75599089,25.0006228 2.96378132,25.0006228 L4.98656036,25.0006228 L4.98656036,26.7224269 C4.98656036,27.9261913 5.96555809,28.9019257 7.17334852,28.9019257 L13.6243736,28.9019257 L13.6243736,30.5038574 C5.51876993,31.1056715 -0.562551253,38.1425923 0.0414123007,46.221041 C0.64523918,54.299626 7.70555809,60.3606761 15.8111617,59.758862 C23.9167654,59.1570478 29.9980866,52.1201271 29.394123,44.0415421 C28.8528929,36.8001572 23.0769021,31.0432834 15.8111617,30.5038574 Z" id="Rank"></path>
                            <ellipse id="Oval" cx="14.7826087" cy="45.6733333" rx="10.3478261" ry="10.3133333"></ellipse>
                        </g>
                    </g>
                </g>
            </g>
        </g>
    </g>
</svg>