<?xml version="1.0" encoding="UTF-8"?>
<svg width="10px" height="10px" viewBox="0 0 10 10" version="1.1" xmlns="http://www.w3.org/2000/svg" xmlns:xlink="http://www.w3.org/1999/xlink">
    <!-- Generator: sketchtool 63.1 (101010) - https://sketch.com -->
    <title>B371D92D-E2B8-4647-A71B-4F4483C80E68@1x</title>
    <desc>Created with sketchtool.</desc>
    <g id="Page-1" stroke="none" stroke-width="1" fill="none" fill-rule="evenodd">
        <g id="A_Homepage" transform="translate(-405.000000, -372.000000)" fill="#586776" fill-rule="nonzero">
            <path d="M405.600491,376.709816 L405.654095,376.648421 L409.720122,372.612087 C409.869574,372.463727 410.113996,372.462717 410.262113,372.608631 L414.364247,376.649766 C414.83284,377.118378 414.125839,377.825379 413.654588,377.354129 L411.8938,375.593149 C411.285441,374.984724 410.508515,375.301786 410.508515,376.162361 L410.508515,381.000101 C410.508515,381.276297 410.284774,381.5 410.008616,381.5 C409.732314,381.5 409.508717,381.276403 409.508717,381.000101 L409.508717,376.162361 C409.508717,375.303938 408.730427,374.986095 408.123393,375.59313 L406.362394,377.354129 C405.911632,377.80489 405.245175,377.177629 405.600491,376.709816 Z" id="forward-arrow" transform="translate(410.009093, 377.000000) rotate(-270.000000) translate(-410.009093, -377.000000) "></path>
        </g>
    </g>
</svg>