<?xml version="1.0" encoding="UTF-8"?>
<svg width="36px" height="28px" viewBox="0 0 36 28" version="1.1" xmlns="http://www.w3.org/2000/svg" xmlns:xlink="http://www.w3.org/1999/xlink">
    <!-- Generator: sketchtool 63.1 (101010) - https://sketch.com -->
    <title>4D8BF8E4-65AA-4DAB-95FF-E3CA87BABD26@1x</title>
    <desc>Created with sketchtool.</desc>
    <defs>
        <linearGradient x1="100%" y1="5.30950317%" x2="50%" y2="81.1657254%" id="linearGradient-1">
            <stop stop-color="#ACC4F8" offset="0%"></stop>
            <stop stop-color="#738DD8" offset="100%"></stop>
        </linearGradient>
    </defs>
    <g id="Page-1" stroke="none" stroke-width="1" fill="none" fill-rule="evenodd">
        <g id="A_HomePage_Idle" transform="translate(-904.000000, -659.000000)" fill="url(#linearGradient-1)" fill-rule="nonzero">
            <path d="M933.124776,659 L910.457777,659 C906.924786,659 904.057897,661.865493 904.057897,665.39988 L904.057897,680.598723 C904.057897,684.133111 906.92339,687 910.457777,687 L933.12338,687 C936.657767,687 939.52326,684.133111 939.52326,680.598723 L939.52326,665.39988 C939.52326,661.865493 936.659163,659 933.124776,659 Z M925.33125,674.891739 C925.33125,674.035721 925.33125,672.633697 925.33125,671.777679 L925.33125,670.495748 C925.33125,669.639731 925.938701,669.290621 926.68021,669.716535 L927.790379,670.357501 C928.533284,670.786208 929.745394,671.485824 930.488299,671.91453 L931.598468,672.5541 C932.338581,672.982806 932.338581,673.683819 931.598468,674.111129 L930.488299,674.753491 C929.745394,675.180801 928.533284,675.88321 927.790379,676.309124 L926.678813,676.951486 C925.937304,677.380193 925.329853,677.031083 925.329853,676.17367 L925.329853,674.891739 L925.33125,674.891739 Z M915.483256,666.377388 C917.005374,666.377388 918.239827,667.610443 918.239827,669.132562 C918.239827,670.654681 917.005374,671.889133 915.483256,671.889133 C913.962534,671.889133 912.729478,670.654681 912.729478,669.132562 C912.729478,667.610443 913.962534,666.377388 915.483256,666.377388 Z M919.661402,679.622612 L911.30511,679.622612 L911.30511,676.955414 C911.30511,674.648496 913.176338,672.778664 915.483256,672.778664 C917.790173,672.778664 919.660005,674.648496 919.660005,676.955414 L919.660005,679.622612 L919.661402,679.622612 Z" id="short-tutorials"></path>
        </g>
    </g>
</svg>