<?xml version="1.0" encoding="UTF-8"?>
<svg width="14px" height="14px" viewBox="0 0 14 14" version="1.1" xmlns="http://www.w3.org/2000/svg" xmlns:xlink="http://www.w3.org/1999/xlink">
    <!-- Generator: Sketch 52.6 (67491) - http://www.bohemiancoding.com/sketch -->
    <title>thumbs-down</title>
    <desc>Created with Sketch.</desc>
    <g id="Page-1" stroke="none" stroke-width="1" fill="none" fill-rule="evenodd">
        <g id="Rev1.3-IPad-Map-View-Landing-Page-Copy-7" transform="translate(-427.000000, -530.000000)" fill="#55A300" fill-rule="nonzero">
            <g id="thumbs-down" transform="translate(434.000000, 536.263158) scale(1, -1) translate(-434.000000, -536.263158) translate(427.000000, 529.263158)">
                <path d="M13.5295824,7.36559494 C13.8431542,7.00297229 14,6.57414605 14,6.0790255 C14,5.63002667 13.837283,5.24151537 13.5129572,4.91321938 C13.1879725,4.58495363 12.803167,4.42091149 12.358451,4.42091149 L9.98952816,4.42091149 C10.0122942,4.34034212 10.0351201,4.27126538 10.0578861,4.21371151 C10.0804424,4.15615764 10.1121351,4.09276673 10.1518857,4.02368998 C10.1916663,3.954583 10.2202736,3.9027452 10.2373182,3.86826731 C10.339915,3.67265069 10.4184577,3.51136073 10.4726768,3.38482085 C10.5268059,3.25803902 10.5806955,3.08540765 10.6350343,2.86665455 C10.6892833,2.64802243 10.7162431,2.4291786 10.7162431,2.2104255 C10.7162431,2.07233251 10.7145955,1.95997695 10.7118996,1.87369151 C10.7092335,1.78734558 10.6947052,1.65778132 10.6692732,1.48505922 C10.6434518,1.31242786 10.6091829,1.16849781 10.5665266,1.05342032 C10.5236906,0.938312576 10.4552128,0.808687831 10.3613031,0.664878765 C10.2671836,0.520797504 10.1532038,0.404389281 10.019094,0.315109709 C9.88501422,0.225890625 9.71402952,0.151067569 9.50593024,0.0906707849 C9.29762127,0.0302135137 9.06256225,0 8.8001241,0 C8.65190541,0 8.5237268,0.0547109573 8.41528871,0.164102628 C8.30127894,0.279210369 8.2041939,0.423110167 8.12445297,0.595741535 C8.04459221,0.768463634 7.98896527,0.91813999 7.95757214,1.04483109 C7.92620897,1.1714617 7.89053224,1.3470872 7.85078159,1.57152613 C7.79928848,1.8134157 7.76097569,1.98743828 7.73515424,2.09392655 C7.70954248,2.20041482 7.65951718,2.33998976 7.58546774,2.51265137 C7.51126853,2.68543396 7.42299034,2.82349671 7.32033362,2.92717231 C7.13221451,3.11710311 6.84431438,3.46251706 6.45651342,3.9632932 C6.17706068,4.33166217 5.88916055,4.67991903 5.59269322,5.0080638 C5.29616597,5.33626906 5.07952944,5.50605751 4.94272371,5.51758038 C4.80028639,5.52907301 4.67767945,5.58807858 4.57502273,5.69462734 C4.47236601,5.80111561 4.42105263,5.92635501 4.42105263,6.07022456 L4.42105263,11.6051346 C4.42105263,11.754811 4.47518181,11.8828328 4.58353003,11.9893211 C4.69181834,12.0959303 4.82011678,12.1520325 4.96836542,12.157809 C5.16789749,12.1635856 5.61833493,12.2900952 6.31967773,12.5378521 C6.7586423,12.6872865 7.10210946,12.8011543 7.35013912,12.8787597 C7.59810887,12.9563652 7.94472133,13.0398985 8.3891078,13.1292385 C8.83391365,13.2184274 9.2443608,13.2631579 9.62056907,13.2631579 L9.76600192,13.2631579 L10.4160313,13.2631579 L10.7238517,13.2631579 C11.4823492,13.2516653 12.043711,13.0270751 12.408746,12.5896899 C12.7393323,12.1924381 12.8789539,11.6714592 12.8278202,11.0267228 C13.0501483,10.8137462 13.2042082,10.5433065 13.2896107,10.2151013 C13.3863962,9.86415272 13.3863962,9.52735824 13.2896107,9.20505052 C13.5518392,8.85389025 13.6744461,8.45957214 13.6572218,8.02206594 C13.6579407,7.83766975 13.6152844,7.61897714 13.5295824,7.36559494 Z" id="Shape"></path>
                <path d="M3.11745424,5.15789474 L0.566911381,5.15789474 C0.413303088,5.15789474 0.280446804,5.2126052 0.16828049,5.32199587 C0.0561141764,5.43132605 0,5.56085889 0,5.71053388 L0,11.2369858 C0,11.386449 0.0561141764,11.5160424 0.16831151,11.6255238 C0.280570882,11.734733 0.413427166,11.7894737 0.5669424,11.7894737 L3.11745424,11.7894737 C3.27093846,11.7894737 3.4037327,11.734733 3.51596106,11.6255238 C3.62812737,11.5160424 3.68421053,11.3864793 3.68421053,11.2369858 L3.68421053,5.71053388 C3.68421053,5.56085889 3.62809635,5.4313563 3.51596106,5.32199587 C3.40376372,5.21257495 3.27096948,5.15789474 3.11745424,5.15789474 Z M2.09893076,10.5244191 C1.98676445,10.6309064 1.85393918,10.6841349 1.70042395,10.6841349 C1.540984,10.6841349 1.40663878,10.6309064 1.29748135,10.5244191 C1.18826189,10.4179318 1.13366766,10.2870078 1.13366766,10.1315563 C1.13366766,9.98191152 1.18823087,9.85234844 1.29748135,9.74301826 C1.4066698,9.63362758 1.540984,9.57885664 1.70042395,9.57885664 C1.85393918,9.57885664 1.98676445,9.63362758 2.09893076,9.74301826 C2.21112809,9.8523182 2.26724227,9.98188127 2.26724227,10.1315563 C2.26724227,10.2870078 2.21125217,10.4179015 2.09893076,10.5244191 Z" id="Shape"></path>
            </g>
        </g>
    </g>
</svg>