<?xml version="1.0" encoding="UTF-8" standalone="no"?>
<svg width="130px" height="65px" viewBox="0 0 130 65" version="1.1" xmlns="http://www.w3.org/2000/svg" xmlns:xlink="http://www.w3.org/1999/xlink">
    <!-- Generator: sketchtool 50.2 (55047) - http://www.bohemiancoding.com/sketch -->
    <title>AF2FFA30-27EF-4113-A84E-AE6302EE611F</title>
    <desc>Created with sketchtool.</desc>
    <defs></defs>
    <g id="Page-1" stroke="none" stroke-width="1" fill="none" fill-rule="evenodd">
        <g id="Rev1.3-iPad-Map-View-Landing-Page-Copy-7" transform="translate(-63.000000, -363.000000)" fill="#FFFFFF">
            <g id="Score" transform="translate(45.000000, 318.000000)">
                <g id="Variable-segments-circle" transform="translate(83.000000, 77.500000) rotate(-90.000000) translate(-83.000000, -77.500000) translate(50.500000, 12.500000)">
                    <path d="M0,0 C23.2245,0 44.681,12.389 56.29,32.5 C67.899,52.611 67.899,77.389 56.29,97.5 C51.7335,105.391 45.578,112.229 38.207,117.585 L30.563,107.068 C45.591,96.148 53.6575,78.039 51.714,59.566 C49.7705,41.093 38.1225,25.0575 21.151,17.498 C14.495,14.534 7.2865,13 0,13 L0,0 Z" id="Segment-80"></path>
                    <path d="M38.207,117.585 C27.105,125.6515 13.728,130 0,130 L0,117 C10.9785,117 21.6775,113.5225 30.563,107.068 L38.207,117.585 Z" id="Segment-20" opacity="0.207548254"></path>
                </g>
            </g>
        </g>
    </g>
</svg>