<?xml version="1.0" encoding="UTF-8"?>
<svg width="152px" height="78px" viewBox="0 0 152 78" version="1.1" xmlns="http://www.w3.org/2000/svg" xmlns:xlink="http://www.w3.org/1999/xlink">
    <!-- Generator: Sketch 50.2 (55047) - http://www.bohemiancoding.com/sketch -->
    <title>Agra</title>
    <desc>Created with Sketch.</desc>
    <defs></defs>
    <g id="Page-1" stroke="none" stroke-width="1" fill="none" fill-rule="evenodd">
        <polyline id="Agra" fill="#F4DDB5" fill-rule="nonzero" points="80.1732906 0.288110213 81.0381733 0.576220425 82.1917218 1.15132846 83.9214872 1.72754888 85.3637014 2.59187952 86.5172499 2.59187952 88.5356811 2.87887734 89.6903441 4.31720361 90.2665611 5.46853207 90.842778 6.90797074 89.4016784 7.77118898 88.5356811 8.92251743 88.5356811 10.3619561 87.9594641 11.2251743 86.5172499 10.6500663 87.6707984 10.3619561 87.0945814 9.49873786 85.6523672 9.78684807 84.4988187 9.49873786 83.0566045 9.21062765 82.4803875 8.05929919 81.3268391 8.05929919 80.4619563 8.3474094 79.8846248 9.49873786 80.1732906 10.6500663 80.1732906 11.5132846 79.5959591 12.3765028 79.3084079 13.5278313 79.5959591 14.3910495 80.7495076 14.9683823 81.6143903 15.2564925 82.7690533 14.9683823 83.633936 16.4067086 83.3452703 18.4212553 82.4803875 19.5736961 82.4803875 21.3001326 82.7690533 22.4514611 81.9041706 23.3146793 82.1917218 24.754118 83.633936 25.9054465 84.210153 27.0567749 84.210153 29.9345399 83.3452703 30.5096479 82.4803875 31.6609763 81.9041706 32.8123048 82.4803875 34.2517435 83.633936 35.4030719 83.633936 35.6911821 85.0761502 37.1295084 86.5172499 37.7068412 86.8059157 35.97818 86.2296987 34.8268515 86.8059157 33.3885252 88.2481299 33.6766354 89.1130126 34.8268515 90.5552268 35.4030719 92.573658 34.2517435 92.8623238 32.8123048 93.728321 31.6609763 94.8818695 32.2371968 95.459201 31.6609763 96.035418 31.3750909 97.1889665 31.3750909 98.3425149 32.525307 96.035418 34.2517435 94.5932038 35.1149617 93.728321 36.5544004 93.149875 37.9927267 94.5932038 38.8570573 96.035418 38.2808369 96.9003007 37.418731 98.3425149 37.1295084 98.9187319 38.2808369 100.07228 38.8570573 101.514495 40.0083857 102.668043 40.5857186 103.821592 41.737047 105.263806 42.5991529 106.417354 45.18992 106.704905 46.3401361 106.993571 47.7806871 108.435785 48.9297908 109.589334 49.2190134 110.454217 49.7941214 111.031548 50.3703418 111.031548 52.0978907 112.761314 52.0978907 113.338645 53.536217 115.644627 53.8243272 117.375507 53.536217 115.933293 52.6729988 115.06841 51.8108929 115.644627 50.0822316 117.086842 49.7941214 118.817722 50.3703418 119.393939 52.0978907 120.837267 53.536217 121.990816 54.1124374 123.43303 54.3994352 123.720581 52.961109 125.451461 52.961109 125.162796 54.6875455 124.297913 55.8388739 125.451461 56.4150943 125.739012 58.1415308 126.316344 59.2917469 127.469892 59.2917469 129.199658 58.7155265 130.354321 57.8534206 132.084086 57.2772002 133.237635 56.1269841 134.679849 56.9913148 136.409614 56.4150943 137.851829 55.8388739 138.428046 56.1269841 139.581594 57.2772002 140.157811 57.5653104 140.735143 57.5653104 141.023808 56.9913148 141.312474 56.1269841 141.600025 55.8388739 141.888691 55.2637659 142.177357 54.9745433 143.04224 55.2637659 143.330905 56.1269841 143.618457 57.2772002 144.195788 58.1415308 144.195788 58.429641 143.907122 59.2917469 144.195788 59.8679673 144.484454 60.1560775 145.060671 60.4441877 145.925553 60.1560775 146.504 59.8679673 147.080216 59.8679673 147.657548 60.1560775 147.657548 61.0192958 147.946214 61.5955162 151.118193 64.7613913 151.406859 65.3364994 151.695525 66.20083 151.695525 67.0629359 150.253311 68.5034869 149.675979 68.7904847 149.099762 68.5034869 148.811096 68.2164891 148.234879 67.9261541 147.368882 67.6391563 147.080216 67.6391563 146.792665 67.9261541 145.925553 67.6391563 145.060671 67.6391563 145.060671 67.9261541 144.195788 68.7904847 144.195788 69.9429256 143.618457 70.5180336 143.04224 71.6704745 141.888691 71.3823643 140.735143 71.6704745 139.292928 72.2466949 138.13938 72.2466949 135.832283 73.3991358 134.679849 73.3991358 133.526301 73.1088008 132.084086 73.6827964 130.930538 74.2601292 129.488324 73.972019 128.334775 73.6827964 126.892561 73.972019 125.739012 74.547127 124.585464 75.4114577 123.144364 75.6995679 121.990816 75.4114577 119.683719 74.2601292 118.529056 73.972019 117.086842 73.6827964 115.933293 72.5336927 114.779745 71.6704745 113.626196 71.3823643 112.472648 70.8072562 111.031548 71.0931417 109.876885 70.8072562 109.012002 69.9429256 108.435785 68.7904847 107.282237 67.9261541 106.128688 67.3510461 104.686474 66.775938 103.245375 67.3510461 102.091826 66.775938 100.649612 66.4900526 99.4960634 65.6246096 99.2073976 64.1840585 98.6311807 63.0349549 97.4776322 62.1706242 96.3240837 62.1706242 93.4385407 62.7457323 92.2849923 63.0349549 91.4201096 63.8981731 90.2665611 64.7613913 89.1130126 65.3364994 87.0945814 66.20083 85.0761502 65.9127198 83.9214872 65.9127198 83.3452703 64.7613913 82.1917218 63.6100629 81.9041706 61.5955162 83.3452703 61.882514 84.4988187 61.882514 86.2296987 60.4441877 87.0945814 59.5809695 88.2481299 59.2917469 88.5356811 58.1415308 89.4016784 56.7020922 89.9778953 54.6875455 89.6903441 54.3994352 89.1130126 53.2469944 87.6707984 53.2469944 86.2296987 53.8243272 85.3637014 52.961109 83.9214872 52.6729988 83.0566045 53.8243272 81.9041706 53.8243272 80.1732906 53.536217 78.7310764 53.2469944 77.2899767 52.6729988 75.5590967 53.2469944 74.1168825 53.8243272 72.6746683 54.9745433 72.387117 56.1269841 72.0984513 57.8534206 71.5222343 59.2917469 70.0800201 59.0058615 68.9264716 58.1415308 67.7729232 58.429641 66.6182601 59.0058615 66.3295944 60.4441877 66.0409286 61.5955162 66.0409286 63.0349549 65.1760459 63.8981731 63.7338317 62.7457323 63.1576147 61.5955162 63.4462805 60.1560775 63.4462805 58.429641 62.0040663 58.429641 59.9856351 59.0058615 58.5434208 59.5809695 57.1012066 59.0058615 55.9476581 58.1415308 54.5065585 58.1415308 53.0643442 57.2772002 51.9107958 56.4150943 50.7572473 56.9913148 50.7572473 58.1415308 49.8923646 59.5809695 48.4501504 58.429641 47.2966019 58.1415308 45.8555022 56.9913148 41.5288595 56.9913148 40.0855308 56.7020922 37.7795484 54.3994352 36.0486684 53.8243272 35.4713369 54.9745433 34.3189029 55.5529885 32.8766887 54.9745433 31.4344745 55.5529885 30.5695918 56.4150943 29.9933748 57.8534206 30.5695918 59.2917469 30.280926 60.732298 28.8398263 61.307406 27.1089464 62.1706242 25.9553979 63.0349549 24.5131837 63.6100629 23.3596352 64.1840585 21.9185355 64.1840585 21.0536528 65.0495016 21.0536528 66.4900526 19.9001043 65.9127198 19.3227728 65.0495016 17.8805586 65.0495016 13.2652502 68.5034869 11.8241505 68.2164891 10.9581532 67.0629359 10.3819362 65.9127198 10.3819362 64.4732811 8.93972202 63.8981731 8.0748393 65.0495016 6.92129083 67.3510461 6.63262508 68.7904847 6.05640811 70.2310358 6.34395932 71.6704745 7.49862234 73.972019 6.92129083 75.6995679 5.76774236 76.5616737 4.90285964 77.4271168 3.74931117 78 2.30709694 77.7130022 1.72976544 76.2757883 2.88442845 75.4114577 3.74931117 74.2601292 2.30709694 73.6827964 0.864882719 73.3991358 0 72.5336927 0 71.3823643 1.15354847 69.9429256 1.72976544 68.7904847 0.864882719 66.775938 0.288665753 65.6246096 0.288665753 63.8981731 1.15354847 62.7457323 1.72976544 61.5955162 3.17197966 60.732298 4.90285964 60.1560775 4.90285964 58.7155265 5.76774236 57.8534206 8.93972202 57.8534206 10.3819362 57.5653104 12.1117017 57.2772002 13.5539159 56.7020922 15.8621274 54.9745433 17.5930074 53.8243272 18.7454413 53.536217 20.1876555 53.2469944 21.341204 52.3848885 22.7834182 52.0978907 25.6667321 50.9465623 26.8202806 50.3703418 29.4160433 50.0822316 31.1458087 49.7941214 32.8766887 48.9297908 33.7415714 48.0676849 34.8951199 46.6293587 35.1837857 45.18992 34.0302372 43.4634835 33.1653545 44.3267017 32.011806 45.18992 30.5695918 44.9018098 29.4160433 43.7504813 28.8398263 42.5991529 27.9738291 41.1597142 26.8202806 41.737047 25.9553979 42.8872631 25.0905152 44.3267017 23.9369667 44.9018098 22.4947525 44.6159244 21.341204 43.7504813 20.4763213 44.6159244 19.0341071 44.6159244 18.4578901 43.1753733 17.3043416 43.7504813 15.8621274 44.0385915 14.7085789 43.1753733 15.5734616 41.737047 16.1507931 40.5857186 16.1507931 39.4310529 13.2652502 39.4310529 12.1117017 40.0083857 10.670602 40.0083857 10.0932705 38.5700595 10.0932705 37.1295084 8.36350505 37.1295084 8.36350505 35.6911821 9.80460474 35.1149617 11.5354847 34.8268515 12.9776989 34.8268515 14.7085789 34.5398537 15.8621274 34.2517435 17.3043416 34.5398537 19.9001043 34.5398537 20.4763213 33.3885252 21.6298697 32.8123048 21.6298697 31.3750909 20.4763213 30.7977581 19.3227728 30.7977581 19.0341071 29.3583194 19.610324 28.2081034 21.6298697 27.6318829 23.072084 27.6318829 24.8018494 27.0567749 26.2440636 26.1924443 26.5316148 25.0411158 26.5316148 23.3146793 25.6667321 22.4514611 24.5131837 21.5882428 24.2256324 20.1488042 24.5131837 18.9974757 24.2256324 18.7093655 25.0905152 17.2710392 26.5316148 16.4067086 28.2624948 16.1197108 29.4160433 16.6948188 30.8582575 16.9840414 32.588023 17.2710392 34.0302372 16.9840414 35.7600026 17.2710392 36.9135511 18.4212553 38.3557653 18.4212553 38.9330968 16.9840414 38.9330968 15.5434904 41.2401938 13.8170539 42.682408 13.239721 44.1246222 12.9516108 44.7008392 14.3910495 45.8555022 14.9683823 47.2966019 14.3910495 47.2966019 11.8013948 48.4501504 11.2251743 49.3150331 12.664613 49.6036988 14.1051641 49.6036988 15.832713 50.7572473 16.9840414 52.1994615 16.9840414 52.7756785 15.2564925 52.7756785 13.8170539 51.9107958 12.9516108 52.7756785 11.8013948 53.929227 13.5278313 55.3714412 14.3910495 56.8136554 13.8170539 57.6785381 12.9516108 58.5434208 11.8013948 58.2547551 10.3619561 59.4083036 8.92251743 60.2743008 9.78684807 62.292732 9.78684807 63.1576147 8.63551962 64.3111632 8.3474094 66.3295944 8.05929919 67.4831429 7.48419116 68.0615889 6.3328627 68.3491401 5.18042185 66.6182601 4.89342404 65.7533774 3.74320798 67.4831429 3.16587516 68.3491401 2.30265691 69.5026886 1.43943867 70.6562371 2.87887734 71.8097855 3.74320798 72.963334 4.31720361 74.1168825 3.45398537 75.5590967 2.87887734 76.7126452 2.01565909 78.4424106 1.15132846 79.5959591 0 80.1732906 0.288110213"></polyline>
    </g>
</svg>