<?xml version="1.0" encoding="UTF-8"?>
<svg width="66px" height="78px" viewBox="0 0 66 78" version="1.1" xmlns="http://www.w3.org/2000/svg" xmlns:xlink="http://www.w3.org/1999/xlink">
    <!-- Generator: Sketch 50.2 (55047) - http://www.bohemiancoding.com/sketch -->
    <title>Jyotiba Phule Nagar</title>
    <desc>Created with Sketch.</desc>
    <defs></defs>
    <g id="Page-1" stroke="none" stroke-width="1" fill="none" fill-rule="evenodd">
        <polyline id="Jyotiba-Phule-Nagar" fill="#F4DDB5" fill-rule="nonzero" points="45.7126335 5.5911736 46.3030328 5.5911736 46.8922923 4.1202911 48.3671508 3.23639652 49.2516099 2.35591465 50.7264684 2.35591465 52.4953867 2.94176499 53.085786 1.47088249 53.085786 2.05900798 53.9702452 2.64827103 55.149904 2.94176499 56.0343631 3.82565957 56.6247624 4.1202911 56.9188223 4.41378506 57.5092216 5.29767964 57.8032814 5.5911736 57.5092216 6.18043665 57.5092216 6.76856214 57.2140219 7.06319366 56.9188223 7.65131915 56.6247624 7.94595068 56.0343631 8.82870769 55.7391635 9.12333922 54.2654448 8.82870769 53.9702452 9.71260227 53.3798459 10.0060962 52.7905864 10.5953593 52.4953867 11.4781163 52.2013268 12.6543673 52.4953867 13.2447679 54.8547043 13.2447679 54.8547043 13.5382618 54.5595047 15.5984074 55.149904 16.1876705 55.7391635 17.365059 56.0343631 17.365059 56.3295628 16.482302 56.9188223 16.1876705 59.8696789 16.1876705 60.4589385 15.3037759 61.3445374 15.5984074 61.6385973 16.482302 61.3445374 17.071565 62.8182561 17.365059 64.8835138 17.954322 65.1775737 18.2489536 63.7027152 19.1317106 63.7027152 20.0144676 62.2289966 21.7811192 62.8182561 22.3692447 64.2931145 23.2520017 63.4086554 25.3132848 64.2931145 27.0787988 65.1775737 27.9615559 64.5883142 28.2550498 63.9979149 28.2550498 63.1134557 29.7282074 62.5230564 30.0217014 62.8182561 31.1990899 63.7027152 32.964604 63.1134557 33.553867 62.5230564 33.553867 62.2289966 34.1431301 61.9337969 34.436624 60.7541381 34.7312556 60.4589385 34.1431301 59.8696789 33.847361 59.2792797 35.319381 58.9829403 35.6140126 58.3936807 35.319381 58.0984811 35.0258871 57.2140219 35.6140126 56.6247624 36.2021381 56.3295628 36.7914011 56.3295628 37.9687897 53.9702452 37.9687897 53.085786 38.5580527 52.7905864 38.5580527 51.6109275 37.6752957 51.0205283 37.0860326 50.4312687 37.0860326 49.8408695 37.3806642 49.2516099 36.2021381 48.3671508 35.6140126 48.0719511 35.319381 47.187492 35.9086441 46.5970927 36.2021381 45.7126335 36.2021381 44.8281744 35.6140126 44.5329747 35.0258871 43.9437152 34.436624 43.0581163 35.6140126 42.7640564 35.9086441 42.1736571 35.6140126 41.8784575 34.7312556 40.9939983 35.319381 39.8143395 36.2021381 40.1095391 37.0860326 40.9939983 37.0860326 40.9939983 37.3806642 41.2891979 38.8515467 39.8143395 40.0289352 39.22508 40.9116922 39.5191399 41.2063237 39.5191399 41.5009553 39.8143395 42.0902183 40.1095391 42.3837123 40.1095391 43.2664693 40.4047388 44.1492263 40.4047388 44.7384894 39.22508 45.9158779 39.22508 46.5062785 40.1095391 47.094404 40.4047388 47.3890355 40.4047388 48.859918 40.1095391 49.4480435 39.5191399 50.0384441 39.22508 51.2146951 39.22508 51.5093266 38.9298803 52.0974521 39.22508 52.9813467 39.5191399 53.5694722 39.22508 54.4522292 39.22508 55.6296177 39.8143395 55.3361238 40.1095391 55.6296177 40.6999384 55.6296177 40.9939983 56.2188808 41.2891979 56.5123748 40.6999384 57.9843948 42.4688567 58.8682894 41.8784575 59.4564149 41.2891979 61.2230665 41.2891979 61.5165604 40.6999384 61.8100544 40.6999384 63.576706 40.9939983 64.1659691 40.6999384 64.459463 40.6999384 64.7540945 40.1095391 65.34222 39.5191399 65.6368515 39.22508 66.5196086 39.5191399 67.1088716 40.4047388 67.6981347 40.4047388 68.8743856 39.8143395 69.7571426 39.8143395 70.6398997 40.1095391 71.5237942 38.9298803 72.7011828 37.7502215 73.2893083 36.8657624 73.5862149 35.9813032 72.7011828 34.5064448 72.4065513 32.7375264 72.7011828 30.6711289 74.7636035 28.9022106 75.6452229 27.7225518 74.7636035 26.2476934 74.7636035 25.0680345 75.6452229 24.4776353 76.8226115 23.0039166 78 22.1183177 78 21.8242578 76.5279799 22.7087169 74.7636035 23.8883757 73.2893083 23.2991162 71.8184258 21.5290581 71.2303003 21.5290581 69.4636487 20.644599 68.8743856 19.1697405 68.2862602 17.6960218 68.8743856 15.9259638 67.6981347 15.6307641 66.2261146 15.3367042 64.459463 14.4511053 62.9885805 14.4511053 61.5165604 15.0415046 60.3391719 14.7463049 58.5736579 14.1559057 55.6296177 13.5666461 54.4522292 14.1559057 53.2748407 14.4511053 51.8039582 14.4511053 50.6265696 14.1559057 49.1545496 14.1559057 47.3890355 13.2714465 45.6235215 10.9121289 44.4438578 10.3228694 42.9729753 10.3228694 41.5009553 10.0276697 40.0289352 9.73247008 38.8515467 9.14321056 37.6752957 8.55281128 36.2021381 8.55281128 35.0258871 8.84801092 33.847361 8.55281128 32.67111 8.2587514 32.081847 7.37429224 30.6109645 7.37429224 29.1389444 7.96355176 27.9615559 8.2587514 26.4895358 7.66835212 25.3132848 6.48869331 24.1347587 6.19463344 22.6638762 5.30789474 21.7811192 5.30789474 21.4864877 5.01383486 20.3090991 4.12823593 18.8370791 4.12823593 17.365059 3.83303629 15.5984074 2.94857713 14.4210189 2.65337749 13.2447679 1.76891832 11.4781163 1.76891832 9.71260227 1.47485845 8.2405822 0.589259519 6.76856214 0.884459162 5.29767964 1.17965881 3.53216562 0 2.35591465 0.294059876 0.293493955 0.589259519 0 1.17965881 0.293493955 3.24377677 0.882757011 4.42343558 1.17625097 7.37429224 2.35591465 7.37429224 3.53216562 9.43841021 4.1202911 10.618069 3.23639652 11.5025282 4.41378506 12.9762469 4.70841659 14.1559057 4.41378506 15.3367042 6.76856214 16.5152233 7.06319366 18.2852814 6.47393061 20.0541997 6.18043665 21.8242578 6.18043665 24.1835754 7.94595068 25.3632342 7.35668762 26.8380926 7.06319366 28.0166117 7.94595068 28.607011 9.12333922 30.0818694 9.41797074 31.2615282 7.94595068 32.4400473 8.2405822 33.9160455 7.94595068 34.8005046 7.06319366 36.2753631 6.18043665 37.7502215 5.88580512 38.9298803 5.5911736 40.1095391 5.00304811 41.5843976 4.70841659 43.3533159 5.29767964 44.5329747 6.18043665 45.7126335 5.5911736"></polyline>
    </g>
</svg>