<?xml version="1.0" encoding="UTF-8"?>
<svg width="93px" height="87px" viewBox="0 0 93 87" version="1.1" xmlns="http://www.w3.org/2000/svg" xmlns:xlink="http://www.w3.org/1999/xlink">
    <!-- Generator: Sketch 50.2 (55047) - http://www.bohemiancoding.com/sketch -->
    <title>Azamgarth</title>
    <desc>Created with Sketch.</desc>
    <defs></defs>
    <g id="Page-1" stroke="none" stroke-width="1" fill="none" fill-rule="evenodd">
        <polyline id="Azamgarth" fill="#F4DDB5" fill-rule="nonzero" points="46.9816646 1.41261058 47.2638564 1.12987013 48.9635702 0.849313006 49.8112396 0.565480896 51.226574 0.282740448 59.7174867 0.282740448 60.5662498 0.565480896 61.9815842 1.41261058 63.113633 1.69425936 63.681298 1.97809147 64.2456817 1.41261058 64.5289674 1.12987013 65.3777305 1.69425936 65.6610162 2.54248071 66.2275874 3.39070205 67.6429218 3.39070205 68.7727831 3.1079616 69.62264 3.95509129 70.7546887 4.80222097 74.150835 4.80222097 74.7174063 5.3666102 75.5661694 5.93099944 76.1316469 7.06086957 76.4149326 7.62635046 76.9815038 8.1907397 77.830267 8.47348014 78.3968382 9.0400527 78.6790301 10.1699228 79.5277932 11.0159609 80.3765564 11.2976096 82.6417477 11.8630905 83.7737965 12.4285714 89.1529422 12.4285714 90.0006116 12.145831 91.1326603 12.145831 92.8301866 12.7113119 92.5479947 13.2757011 91.6981378 14.68722 90.0006116 15.5343497 89.1529422 16.1020139 88.5852772 17.2297007 87.7376078 18.3606625 87.4543222 19.2077922 86.8866571 20.0538302 86.605559 21.184792 86.3211796 22.0330134 85.4724165 22.3146621 84.6225596 22.880143 84.339274 24.5754941 83.2072252 25.7053642 82.6417477 26.5514022 82.6417477 28.8111425 83.4905108 29.9410126 82.3584621 30.7870506 81.5096989 31.3536232 82.0751764 32.1996612 82.3584621 32.1996612 82.6417477 33.330623 82.6417477 34.1777527 81.7918908 34.4604931 80.6609358 34.7421419 79.8121726 35.0270657 78.6790301 35.3076228 77.830267 35.872012 76.9815038 36.1547525 76.9815038 37.5673631 78.1135526 38.1317523 78.6790301 39.2627141 78.9623157 40.1087521 77.830267 40.9580651 76.9815038 40.9580651 75.8494551 40.3914926 74.7174063 40.1087521 73.8686432 40.3914926 73.01988 40.3914926 72.1700231 40.9580651 71.32126 41.8041031 71.32126 42.6512328 72.7365944 43.4983625 73.5853575 43.7821946 74.4352144 44.3476755 73.8686432 45.7602861 72.4533088 47.171805 71.8878313 48.3005835 72.1700231 49.4315453 71.8878313 50.2797666 71.32126 51.1268963 71.0379744 51.974026 70.7546887 53.1028044 71.0379744 53.9521174 72.1700231 53.6671937 73.3020719 53.1028044 73.8686432 52.2545831 74.7174063 51.974026 75.8494551 51.974026 76.4149326 52.2545831 77.830267 53.1028044 78.3968382 53.6671937 78.9623157 54.515415 78.1135526 55.0808959 75.5661694 55.0808959 74.9995982 55.6452851 75.5661694 56.7751553 75.8494551 57.3417278 75.2828838 57.622285 74.4352144 57.9050254 73.8686432 58.7532468 72.4533088 59.3165443 72.1700231 60.1647657 72.4533088 61.012987 73.01988 61.5762846 73.01988 62.1428571 73.3020719 62.4245059 73.01988 63.8360248 73.8686432 63.8360248 75.2828838 64.1187653 76.1316469 64.4015057 76.4149326 66.3785056 76.4149326 66.6601543 74.7174063 66.6601543 73.8686432 67.7900245 72.7365944 68.6371542 72.4533088 69.4853755 72.4533088 70.3335968 71.8878313 71.1796349 71.6045456 72.0289479 70.7546887 72.5922454 69.9059256 72.5922454 69.0582562 72.3105966 68.4905912 71.7462074 67.0763506 71.4645586 66.5097793 70.6152456 65.6610162 70.6152456 64.2456817 71.4645586 63.9623961 70.6152456 63.113633 70.3335968 61.4161067 70.3335968 60.8506292 71.1796349 61.1328211 72.3105966 61.6972048 72.8771692 61.6972048 74.0070393 62.5481555 74.8530774 63.113633 75.700207 63.9623961 76.5462451 63.9623961 77.3966497 64.2456817 78.2426877 63.3969186 78.5265199 62.2659636 78.807077 61.6972048 79.6542067 61.1328211 80.2196876 61.1328211 80.5013363 59.434201 81.0679089 59.1509154 81.6322981 58.866536 82.7610766 58.3021523 83.3276492 57.4522954 83.8909467 56.0380547 84.1736872 55.1881978 84.1736872 55.1881978 85.0219085 54.9049122 86.150687 52.6419084 86.150687 51.5109534 85.8679465 50.3778109 86.150687 49.5290477 87 47.8304277 86.4334274 46.6983789 86.4334274 46.4150933 87 46.4150933 86.7161679 45.5663302 85.8679465 45.5663302 84.7402597 46.4150933 83.6092979 46.1339952 82.4794278 45.5663302 81.6322981 44.7186608 81.6322981 43.586612 82.4794278 43.3033264 81.6322981 42.4534695 80.7840768 41.8890858 79.6542067 41.0392289 79.0898174 39.9060863 79.0898174 39.0573232 80.2196876 38.4918457 80.7840768 37.9263682 81.6322981 37.3597969 82.7610766 36.50994 82.4794278 35.6611769 81.9139469 34.8124137 80.5013363 34.2469362 80.2196876 32.8305081 80.5013363 31.6984593 80.2196876 31.131888 79.3725579 30.8496962 78.5265199 30.000933 78.2426877 28.5866924 78.2426877 27.7368355 78.5265199 26.603693 77.6793902 26.3204073 76.5462451 27.1702642 75.9829475 27.7368355 75.700207 28.302313 74.5703369 27.1702642 74.0070393 26.3204073 73.7221156 24.9061667 73.158818 23.4908323 73.158818 22.6420692 73.4404668 21.7943998 73.4404668 20.662351 73.158818 20.3790654 72.8771692 20.0957797 72.3105966 19.2470166 72.0289479 17.2651109 72.0289479 16.9818253 71.7462074 16.1319684 71.7462074 15.5664909 70.6152456 15.0021072 70.0508564 14.1522503 70.0508564 13.8700584 69.2037267 13.585679 68.0738566 13.3034871 66.9439864 13.0202015 65.8130247 12.454724 64.965895 11.6048671 64.4015057 10.4728183 64.4015057 9.62514896 63.5532844 9.62514896 62.4245059 10.4728183 61.859025 10.756104 60.7291549 10.4728183 59.6003764 10.1895327 58.7532468 10.1895327 57.9050254 10.4728183 56.7751553 10.4728183 55.3625447 9.90734082 54.2326746 9.05857769 53.6671937 8.77419829 52.8222473 8.77419829 50.2797666 8.20762702 49.1498965 7.64105575 48.5844156 7.07776578 47.7372859 7.07776578 46.6063241 6.79229262 45.4753623 5.94352948 44.3476755 5.09367258 43.7821946 3.67943194 43.4983625 3.11395444 42.9328816 3.11395444 41.8041031 3.39614631 41.2386222 3.39614631 40.3914926 2.83066881 39.5443629 1.9808119 38.978882 1.9808119 37.8501035 3.67943194 37.2857143 4.24600321 36.7202334 4.24600321 35.872012 3.11395444 35.3076228 2.83066881 34.4604931 2.83066881 33.330623 2.54738317 32.7662338 2.26409754 31.9180124 1.6997138 31.0708827 1.4153344 29.9410126 1.4153344 27.9629211 1.6997138 27.9629211 2.26409754 26.5514022 2.54738317 25.7053642 2.54738317 24.5754941 2.26409754 23.7272727 1.6997138 22.0330134 1.4153344 20.9042349 0.848763135 20.3376623 0.566571268 19.7743648 0.284379401 18.9261434 0 18.3606625 0.284379401 18.3606625 1.13204877 18.9261434 1.13204877 18.643403 1.6997138 17.5146245 2.83066881 16.3825711 3.67943194 16.1020139 5.09367258 16.1020139 5.66133761 16.6653115 6.50900698 17.2297007 6.50900698 16.3825711 7.64105575 16.3825711 8.20762702 16.9480519 8.20762702 21.4675325 9.05857769 21.7502729 9.90734082 22.3146621 10.1895327 23.1639752 9.90734082 24.291662 10.1895327 25.7053642 11.0393896 26.2697534 12.1714384 26.5514022 14.4344421 25.987013 16.9818253 25.987013 18.1138741 26.2697534 18.9626372 26.8341427 20.0957797 27.3996236 20.662351 26.5514022 22.3587835 25.7053642 22.0754979 25.1387916 22.0754979 24.5754941 21.7943998 23.7272727 20.9445429 23.1639752 20.3790654 22.880143 19.8124941 21.4675325 20.0957797 20.6204028 20.662351 19.7743648 21.5100204 19.7743648 21.7943998 18.643403 21.2267347 17.7951816 21.2267347 16.9480519 20.9445429 16.1020139 20.662351 14.68722 20.9445429 13.841182 21.5100204 13.2757011 21.7943998 12.4285714 21.5100204 11.5814417 20.662351 11.2976096 19.8124941 9.88609072 20.0957797 9.0400527 20.662351 8.47348014 20.9445429 8.1907397 20.662351 7.06086957 20.9445429 7.06086957 22.6420692 5.93099944 23.7741179 4.23674007 23.7741179 3.39070205 24.0574036 2.25974026 25.7560236 0.565480896 26.8869786 0 27.7368355 0.282740448 28.0190274 0.849313006 28.8677905 1.41261058 30.000933 1.69425936 30.8496962 0.849313006 31.9817449 0.849313006 32.5472224 1.97809147 32.2639368 2.82522116 31.6984593 3.67235084 31.9817449 4.52057218 32.8305081 5.08386975 34.8124137 5.08386975 35.6611769 5.3666102 36.7943194 5.3666102 37.3597969 5.93099944 38.4918457 6.78031244 39.3417026 7.06086957 39.9060863 7.62635046 39.3417026 8.1907397 38.7740376 9.32060982 39.0573232 10.4515716 39.6228007 11.2976096 40.4726576 11.5814417 41.6025188 11.2976096 42.4534695 11.5814417 43.018947 12.145831 43.586612 12.9929607 44.4353752 13.841182 46.6983789 13.841182 46.9816646 12.9929607 46.9816646 12.145831 47.2638564 11.0159609 46.9816646 10.1699228 46.6983789 9.0400527 46.1339952 8.1907397 46.4150933 7.06086957 46.9816646 6.49648033 46.9816646 5.65044231 46.4150933 4.52057218 46.6983789 3.67235084 46.9816646 3.1079616 47.2638564 1.97809147 46.9816646 1.41261058"></polyline>
    </g>
</svg>