<?xml version="1.0" encoding="UTF-8"?>
<svg width="53px" height="78px" viewBox="0 0 53 78" version="1.1" xmlns="http://www.w3.org/2000/svg" xmlns:xlink="http://www.w3.org/1999/xlink">
    <!-- Generator: Sketch 50.2 (55047) - http://www.bohemiancoding.com/sketch -->
    <title>Bahraich</title>
    <desc>Created with Sketch.</desc>
    <defs></defs>
    <g id="Page-1" stroke="none" stroke-width="1" fill="none" fill-rule="evenodd">
        <polyline id="Bahraich" fill="#F4DDB5" fill-rule="nonzero" points="6.51276649 15.5996651 6.36790162 15.5996651 5.49983106 15.4556372 4.92037159 15.1664651 4.92037159 14.8778512 5.06523646 14.4446512 5.06523646 14.010893 4.92037159 13.4331069 4.92037159 11.6997488 4.34203077 11.555721 3.7625713 11.6997488 3.32909534 11.9889209 2.75019519 11.6997488 2.60588965 11.2665488 2.60588965 10.8333488 2.75019519 10.4001489 2.60588965 9.82236282 2.46046546 9.53319067 2.02643018 8.95540462 0.723765015 8.08844643 0.579459471 7.51066038 0.723765015 6.93287433 0.868629883 6.64426043 1.01293543 6.06703263 1.30322449 5.48924658 1.15780029 4.91090229 0.868629883 4.62228838 0.579459471 4.18853016 0.579459471 3.61074412 0.43403528 3.17754414 0.43403528 2.74434417 0.144305544 2.16655812 0 1.58877207 0.144305544 1.01098602 0.289170412 0.433199974 0.289170412 0 0.579459471 0.433199974 1.01293543 1.01098602 2.02643018 2.02197204 2.89450074 2.45628851 3.7625713 2.59975809 4.48633631 2.74434417 5.21010133 2.74434417 6.22303675 3.03351631 6.94680177 3.17754414 7.81487233 3.46671629 8.53863734 3.75533019 9.69643764 4.33311624 10.1304729 4.76631621 10.4202027 5.34410226 10.7093731 6.21106046 10.9996621 6.7888465 11.2882732 7.51066038 11.8671734 8.66623247 12.4460735 9.38972109 12.8801088 9.96639064 14.3287575 11.4111349 14.9070983 11.8443349 15.6308633 12.2780931 15.9200337 13.144493 16.2092041 13.7222791 16.4994932 14.4446512 16.2092041 15.1664651 16.4994932 16.6117676 15.9200337 17.1889954 16.6432394 17.3330232 17.3670044 17.1889954 17.9459046 17.0444093 18.6696696 16.7552371 18.8145345 16.032865 18.8145345 15.3110512 19.5382995 15.1664651 20.40637 14.8778512 21.2755592 15.0224373 21.8533407 15.1664651 22.4322409 15.4556372 23.1560059 16.032865 23.5900412 16.4666232 23.8797709 17.1889954 24.0246358 18.0553953 24.1689413 18.6326231 24.4586711 19.3561117 24.8927063 20.0773674 25.3267416 20.5105673 25.9056418 20.7997395 26.6294068 21.0883534 27.3537311 21.5221116 28.0769368 21.8107255 29.2347371 22.3890698 30.103367 22.6771255 30.827132 23.1114419 32.274662 24.2664558 32.708138 24.700214 33.8664976 24.8442418 34.5897033 24.9893861 35.4577739 25.133414 36.1815389 25.278 36.760439 25.7112 37.3393392 26.4330139 37.7744931 27.0113582 38.3522746 27.4445582 39.0760396 28.3109581 39.2214638 28.4555442 38.207969 29.4665302 37.484204 29.6111163 36.9053039 29.3225024 36.760439 28.7441581 36.6155741 27.8777581 36.4718279 27.4445582 36.0361147 27.2999721 35.7480629 27.5891442 35.6026387 28.166372 35.1686034 28.166372 35.0242979 28.8893024 35.0242979 29.7557024 35.1686034 30.1894606 35.1686034 30.6221023 34.4453978 31.3444744 33.2864788 31.0553023 32.998427 31.4885023 32.998427 31.9222605 32.708138 32.2108744 32.1297972 32.0662883 31.2611673 31.7776744 30.9725562 32.0662883 30.5368429 32.0662883 30.103367 31.9222605 29.6693317 31.9222605 29.2347371 32.2108744 29.2347371 32.6440743 29.6693317 33.2218604 29.8136372 33.6556186 30.6822671 34.9552185 30.827132 35.5335628 30.6822671 35.9662046 30.5368429 36.5445489 30.827132 36.8342793 31.2611673 36.9783071 31.6952026 37.266921 31.4060321 37.7006792 31.4060321 38.277907 31.984373 38.4219348 32.4189676 38.9997209 32.708138 39.4334791 32.8530029 40.0112651 32.998427 40.299879 33.5767679 40.5890512 34.155668 40.733079 34.7345682 41.166279 34.879433 41.7446233 34.879433 42.1778233 34.3010922 42.3218511 33.5767679 42.7550511 33.2864788 43.3333954 33.2864788 43.7665953 33.431903 44.0557675 33.431903 44.1997953 33.5767679 45.0661953 33.1421733 45.0661953 32.5638324 45.2107813 32.4189676 45.6445396 32.998427 46.5109395 33.431903 46.7995534 33.7216327 47.2327534 33.8664976 47.6670698 33.7216327 48.2448559 33.7216327 48.3883255 33.431903 48.6774976 33.2864788 49.2547254 33.5767679 49.6890419 34.0108031 49.9776558 34.7345682 50.1222419 35.7480629 50.1222419 36.3264037 50.2668279 36.6155741 50.7005862 38.9311747 50.7005862 39.36521 51.1332279 39.36521 52.1442139 39.5100749 52.722 38.9311747 52.722 38.4976988 52.2888 38.6420043 52.5774139 39.0760396 53.1551999 39.36521 53.4443721 40.0895344 53.4443721 40.524129 53.0111721 41.247894 52.866586 41.5365051 53.4443721 42.1159645 52.866586 42.2602701 52.4333861 42.4051349 51.8561583 43.2737648 51.2783722 43.852665 51.4224 44.1418354 51.7110139 44.1418354 52.866586 44.5758707 53.0111721 45.1547708 52.722 45.5893654 52.5774139 46.02396 52.5774139 46.6023008 52.722 46.747725 53.299786 46.6023008 53.7335442 47.3255065 53.8775721 48.0492716 53.5889582 48.4833068 53.7335442 48.7735959 54.1667442 48.9179014 54.8896746 49.062207 55.321758 49.3519367 56.0441302 49.9308369 55.8995441 50.509737 55.4669024 51.0886372 55.321758 51.5232318 55.321758 52.1015726 55.6109302 52.390743 55.8995441 52.5356079 56.3333023 52.9702025 56.7665023 52.9702025 57.9220744 52.6804727 57.9220744 52.1015726 57.7774883 51.6680966 57.4888744 51.2329427 57.3442883 50.6540426 57.1997023 50.2205666 57.3442883 49.9308369 57.7774883 49.3519367 57.7774883 48.9179014 57.6329022 48.7735959 58.0666605 48.9179014 58.6438883 49.062207 59.0782047 49.062207 60.6664186 48.338442 60.6664186 47.904966 61.0996185 48.0492716 61.5328185 48.338442 61.8219907 48.7735959 61.9660185 48.9179014 62.5438045 48.6281717 62.8329767 46.8914713 63.1221488 46.6023008 63.1221488 45.8785358 63.2661766 45.2996357 63.411321 45.0099059 63.8445209 45.0099059 65.1452374 44.5758707 65.433293 44.1418354 65.5778791 43.852665 65.866493 43.5629352 66.3002512 43.1289 66.5888651 42.695424 66.5888651 41.3921995 65.7230234 40.8132994 65.5778791 40.524129 65.2887069 40.3792641 64.855507 40.0895344 64.5668931 39.9452288 64.1336931 39.5100749 63.7004931 39.2214638 63.555907 38.0631042 63.555907 37.6290689 63.7004931 37.1950336 63.989107 36.4718279 64.1336931 36.760439 64.5668931 37.0507281 65.433293 37.0507281 66.5888651 36.9053039 67.0220651 36.3264037 67.5998511 35.7480629 67.5998511 35.6026387 68.0330511 35.6026387 68.7559815 35.3134683 69.0440371 34.7345682 69.3337675 34.7345682 70.3441953 34.4453978 70.6333674 34.3010922 71.4997674 34.0108031 71.9329674 33.8664976 72.2221395 33.431903 72.5107534 32.8530029 72.6553395 32.5638324 73.2331255 31.984373 73.5217394 31.550897 73.5217394 31.1163024 73.9549394 31.1163024 74.3886976 30.6822671 75.1105115 29.8136372 75.5437115 29.2347371 75.3996837 28.9455667 75.8328836 28.8012611 76.555814 28.0769368 76.555814 27.6429015 76.6992836 27.2088662 76.989014 26.774831 77.422214 26.774831 78 26.6294068 78 26.1953715 77.8554139 25.6164714 77.422214 25.0375712 76.8444279 25.0375712 76.4106697 25.1824361 75.978028 25.0375712 75.5437115 24.7489601 74.9664837 24.4586711 74.6773115 24.3138062 74.2441116 24.1689413 73.6663255 24.0246358 73.2331255 23.734906 72.6553395 23.5900412 72.2221395 23.011141 72.0775534 23.011141 71.6443535 24.1689413 71.6443535 24.8927063 71.3551813 24.7489601 70.7773953 24.6029766 70.2001675 24.4586711 69.7664093 24.1689413 69.3337675 24.0246358 69.0440371 23.734906 68.7559815 23.3014301 68.0330511 23.011141 67.7444372 22.7225299 67.1666512 22.4322409 66.444279 22.4322409 64.7109209 22.1430705 64.2777209 21.7090352 63.989107 21.2755592 63.8445209 20.6960998 63.7004931 20.6960998 63.555907 20.40637 63.411321 20.40637 62.3992185 20.6960998 61.9660185 20.5517942 61.5328185 20.2615052 60.8104464 20.1166403 60.5218325 19.8274699 59.9440464 19.2491291 59.6548743 19.1037049 59.2216743 19.1037049 58.7884743 18.9593993 58.3552744 18.6696696 58.0666605 18.0907694 57.7774883 17.6567342 57.6329022 17.5118693 57.1997023 17.3670044 56.6219162 17.0783933 56.3333023 16.4994932 56.4773301 16.0648986 56.3333023 15.6308633 56.4773301 15.4859984 56.3333023 15.3411336 56.0441302 15.3411336 55.4669024 15.4859984 54.8896746 15.7757282 54.4553581 16.2092041 54.0221581 16.354069 53.5889582 16.2092041 53.0111721 15.4859984 52.2888 15.6308633 51.8561583 16.0648986 51.5664279 15.9200337 50.9892001 15.6308633 50.2668279 15.6308633 49.1106976 15.9200337 48.2448559 15.7757282 47.8110977 15.1962687 46.6549673 15.1962687 46.0777395 14.7622334 45.7885674 14.1833333 45.6445396 13.8941629 45.2107813 13.8941629 44.1997953 14.0384684 43.9111814 14.0384684 42.8996371 13.7498573 42.4664372 14.1833333 42.1778233 14.473063 41.7446233 14.473063 41.3114233 14.3287575 40.8776651 14.0384684 40.4450234 13.7498573 40.155293 13.6038738 39.722093 13.6038738 39.288893 13.3135847 38.855693 13.025533 38.5665209 13.1698385 37.9887349 13.4590089 37.844707 13.6038738 37.266921 13.3135847 36.8342793 13.4590089 36.2553767 13.7498573 35.8221767 14.1833333 35.0992464 14.473063 34.6660464 14.3287575 34.2328464 13.7498573 33.3664465 13.6038738 32.6440743 13.8941629 32.0662883 14.1833333 31.3444744 14.9070983 30.6221023 14.7622334 30.1894606 14.473063 29.7557024 14.3287575 29.3225024 14.473063 28.8893024 14.6173686 28.3109581 14.3287575 27.8777581 13.8941629 27.5891442 13.6038738 27.7331721 13.025533 27.8777581 12.7358032 28.0223442 12.301768 28.0223442 11.8671734 27.8777581 11.5774436 27.5891442 11.4331381 27.0113582 11.5774436 26.5787165 11.5774436 25.9998139 11.2882732 25.5666139 10.9996621 25.278 10.4202027 25.133414 9.98560805 24.9893861 9.55213209 24.700214 8.97267262 24.5556279 8.68350221 24.1224279 8.39377247 23.8332558 8.39377247 23.4000558 8.68350221 22.6771255 8.82836708 22.2439255 8.68350221 21.8107255 8.25002625 21.2329395 8.53863734 20.6551534 8.25002625 20.0773674 8.25002625 19.4995813 8.68350221 18.6326231 8.68350221 17.9108092 8.53863734 17.4776093 8.39377247 16.7552371 8.10460206 16.4666232 7.38083705 15.8888372 6.65763136 15.5996651 6.51276649 15.5996651"></polyline>
    </g>
</svg>