<?xml version="1.0" encoding="UTF-8"?>
<svg width="67px" height="78px" viewBox="0 0 67 78" version="1.1" xmlns="http://www.w3.org/2000/svg" xmlns:xlink="http://www.w3.org/1999/xlink">
    <!-- Generator: Sketch 50.2 (55047) - http://www.bohemiancoding.com/sketch -->
    <title>Bareilly</title>
    <desc>Created with Sketch.</desc>
    <defs></defs>
    <g id="Page-1" stroke="none" stroke-width="1" fill="none" fill-rule="evenodd">
        <polyline id="Bareilly" fill="#F4DDB5" fill-rule="nonzero" points="36.9622252 1.55452053 37.4071075 1.55452053 38.2985929 1.77696297 39.4112287 1.55452053 40.3018536 1.33293694 41.1924785 0.665609619 42.0831035 0.221583589 43.1965997 0.221583589 44.5321069 0 45.6456032 0.221583589 46.5362281 1.10963565 47.6505849 0.665609619 48.5403493 0.221583589 49.6538456 0 49.876717 1.10963565 50.0995883 2.44343144 50.3224597 3.33234235 51.2130846 3.55478479 52.1037095 2.88745747 52.5485917 1.99940541 54.5518524 1.99940541 55.6662092 2.220989 56.3339628 3.10989991 56.778845 2.66587388 56.778845 2.88745747 57.4474591 3.99881082 57.4474591 5.11016417 58.3372235 5.77663264 57.6694699 6.88712714 57.4474591 7.99933935 57.4474591 9.10983385 58.3372235 10.222046 58.3372235 11.554983 57.8923413 12.6654775 57.2237272 13.3336637 56.5559737 14.4441582 56.1110914 15.9995375 55.2204665 16.6668649 54.5518524 17.3333333 54.7755843 19.3327387 55.2204665 20.0000661 55.4433379 20.2216497 54.9975952 21.3338619 54.9975952 22.4434975 55.4433379 23.5548509 55.6662092 24.6662042 56.1110914 25.5542563 57.2237272 25.3326727 58.1152127 25.9991411 59.4507198 26.4431672 60.3413447 26.4431672 60.1184734 27.5545205 59.2278484 28.220989 58.7829662 29.1098999 59.6735912 29.9996697 60.1184734 31.3326066 61.2319696 31.9990751 62.1225946 31.9990751 63.0132195 31.1101642 63.9038444 31.7766326 64.3487266 32.6655436 65.4622229 33.3328709 65.4622229 35.7771612 66.130837 36.8885145 66.130837 38.0007267 65.2393516 38.8887788 64.3487266 39.1112212 64.1267158 40.4441582 63.0132195 40.6657418 61.8997232 40.4441582 61.2319696 41.1106266 60.7870874 42.22198 60.5642161 43.5557758 60.5642161 45.1102963 61.6777124 46.2216497 61.8997232 47.1105606 61.454841 47.9994715 59.895602 48.8883824 60.1184734 49.9988769 60.3413447 51.7766987 61.454841 52.4431672 62.7903481 52.6656096 62.7903481 53.5545205 62.3454659 54.6667327 60.7870874 54.6667327 59.895602 55.3332012 59.2278484 56.2221121 59.6735912 57.3334655 59.0049771 57.7774915 58.5600949 58.8888448 57.8923413 59.5553133 57.4474591 60.4442242 56.778845 61.3331351 55.6662092 61.7771612 55.6662092 62.8885145 54.7755843 65.1103624 54.5518524 66.2217157 54.1069702 67.1106266 54.7755843 67.7770951 55.4433379 68.666006 54.5518524 70.4446867 54.5518524 71.5551812 53.662088 72.4432332 52.7714631 72.2216497 51.435956 71.9992072 51.435956 74.2227728 50.5444705 75.1108248 48.7640812 73.777029 47.6505849 73.5545866 46.7590995 74.4434975 45.867614 74.2227728 44.7549782 74.4434975 44.0872247 74.8883824 43.641482 76.223037 43.641482 77.3335315 43.4186106 78 43.1965997 78 42.3059748 77.3335315 41.1924785 76.6670631 40.524725 75.5557097 41.4153499 74.2227728 42.750857 73.777029 43.1965997 72.8881181 42.9737284 71.9992072 42.3059748 71.1102963 41.1924785 70.8895716 41.8602321 69.5557758 41.8602321 68.4435636 41.4153499 67.5555115 39.8569714 67.5555115 38.5206037 67.3330691 37.4071075 67.1106266 36.5164825 65.9992733 36.2944717 65.9992733 35.6267181 65.3336637 34.7360932 65.5552473 33.6225969 65.9992733 32.5091006 65.5552473 31.172733 65.5552473 29.8372258 65.7768308 29.6143545 65.1103624 29.3923436 64.6663363 26.0509943 64.6663363 25.1603693 64.0007267 24.0477335 64.2214515 22.2664837 64.2214515 21.3758588 63.7774254 20.4852338 63.1100981 17.144745 62.4436296 16.9227341 63.3333994 15.8092378 62.4436296 14.6957416 63.1100981 14.2508593 62.222046 13.5831058 61.3331351 13.1373631 61.1106927 12.4696095 60.6666667 11.5789846 59.7777558 10.911231 58.8888448 11.3561132 57.7774915 12.0247273 56.8885806 11.8018559 55.7772272 10.6883596 55.3332012 9.79773471 54.220989 9.79773471 51.9991411 10.0206061 50.6653454 9.79773471 49.3324084 8.90710978 49.7772933 8.23935621 48.8883824 8.23935621 47.5545866 8.46222757 46.2216497 8.01648485 45.1102963 7.12585993 43.998943 6.01150313 43.3324745 4.675996 42.6668649 4.23111379 41.5555115 3.34048886 41.1106266 2.22699257 41.3330691 1.11349629 41.3330691 0.222871359 41.1106266 0 40.8881842 0.890624927 40.8881842 1.5583785 40.2217157 2.89474614 38.0007267 4.23111379 38.0007267 5.56662092 37.7774254 6.23437449 36.8885145 6.45724585 35.9996036 6.90384908 35.1106927 8.46222757 35.3331351 9.79773471 35.1106927 10.4654883 34.2209229 11.5789846 33.9993393 12.4696095 33.7777558 12.6924809 33.7777558 13.5831058 33.3328709 14.027988 31.9990751 14.6957416 31.3326066 15.3643556 30.4436957 15.3643556 29.1098999 16.4769914 29.1098999 17.8133591 28.8874575 18.703984 27.9994054 19.5946089 27.9994054 20.2623625 27.3329369 20.930116 26.2215836 21.820741 25.5542563 22.4884945 24.6662042 22.9342373 23.3332673 23.3791195 22.2227728 23.8248622 21.3338619 24.9383585 20.8881181 25.8281229 20.4440921 26.0509943 19.1102963 26.496737 17.7773594 26.9416192 15.9995375 27.8339651 15.3330691 28.2788473 14.2217157 28.2788473 13.3336637 29.1694723 12.443035 30.2829685 12.2205926 31.172733 11.999009 32.2862293 11.110957 33.1768542 10.222046 32.731972 9.33227629 32.0642184 8.44336538 33.1768542 7.99933935 33.8454683 8.22092293 34.2903505 8.22092293 35.4038468 7.99933935 35.4038468 6.88712714 34.5132218 5.99993393 34.958104 4.44283685 36.5164825 4.44283685 37.6299788 4.22125326 36.9622252 3.33234235 36.7393539 2.44343144 36.9622252 1.55452053"></polyline>
    </g>
</svg>