<?xml version="1.0" encoding="UTF-8"?>
<svg width="75px" height="78px" viewBox="0 0 75 78" version="1.1" xmlns="http://www.w3.org/2000/svg" xmlns:xlink="http://www.w3.org/1999/xlink">
    <!-- Generator: Sketch 50.2 (55047) - http://www.bohemiancoding.com/sketch -->
    <title>Farrukhabad</title>
    <desc>Created with Sketch.</desc>
    <defs></defs>
    <g id="Page-1" stroke="none" stroke-width="1" fill="none" fill-rule="evenodd">
        <polyline id="Farrukhabad" fill="#F4DDB5" fill-rule="nonzero" points="7.10493852 0 7.78222195 0 9.13417381 0.67467501 11.1647166 1.012665 12.8566177 2.02533001 14.885853 4.051965 16.9163958 4.051965 18.6069893 4.38865001 20.2988904 5.06463 23.6840001 5.06463 24.359976 5.73930501 25.7132354 6.41398002 27.0664947 6.07729501 28.4197541 7.08996001 29.0970375 8.77860501 30.1116552 9.79127001 31.8022487 9.79127001 33.4941498 9.45328002 34.8474092 10.12926 36.2006685 11.141925 37.8925696 10.12926 39.9218049 11.47861 41.613706 11.8166 43.3056071 12.491275 44.3202247 13.843235 44.9962006 15.53188 44.9962006 17.220525 46.6881017 17.558515 48.3800028 16.20786 49.0572862 16.20786 50.0719039 15.53188 52.1011392 15.53188 54.1329894 16.54585 55.4862488 16.882535 57.1781499 17.896505 58.8687435 18.23319 61.2366205 15.86987 60.8992863 14.181225 60.8992863 12.491275 62.2525456 12.15459 62.5898798 10.465945 62.5898798 8.77860501 63.2671633 7.42795001 65.2963986 8.10262502 65.6350403 9.79127001 65.6350403 11.141925 65.9723745 13.16856 65.9723745 15.195195 64.9577568 17.558515 64.6204226 19.921835 64.9577568 21.61048 65.6350403 22.961135 67.6642756 24.648475 66.6496579 26.33712 66.6496579 27.687775 66.9882996 29.375115 68.341559 30.72577 69.6948184 31.73974 71.0480777 32.414415 71.7240536 34.10306 72.4013371 33.76507 72.7399788 34.777735 73.4159547 36.12839 73.4159547 38.155025 73.077313 40.51965 72.4013371 42.543675 73.077313 44.569005 73.077313 45.920965 71.7240536 47.272925 71.3867194 48.960265 71.7240536 50.31092 72.0626954 51.999565 72.0626954 54.024895 73.4159547 55.37555 74.0919307 57.402185 74.0919307 64.154155 72.0626954 65.50481 71.3867194 67.193455 71.3867194 67.531445 71.7240536 68.54411 72.0626954 70.90743 72.4013371 71.24542 72.0626954 71.582105 71.0480777 72.93537 70.709436 74.621405 69.0175349 76.64804 66.9882996 77.660705 65.9723745 76.31005 64.9577568 77.322715 63.6044975 76.64804 62.9285215 74.959395 60.8992863 75.63407 58.8687435 75.63407 57.5154841 76.984725 56.1622247 78 54.4703237 77.322715 53.7930402 74.959395 52.4397809 74.283415 50.4092381 72.596075 49.0572862 71.24542 47.3653851 71.582105 46.0121258 71.920095 44.6588664 72.596075 43.3056071 72.93537 41.613706 72.258085 40.9377301 70.232755 39.245829 70.56944 37.8925696 71.582105 36.877952 72.93537 35.5246926 73.60874 35.5246926 73.945425 32.1408905 72.258085 30.4502969 72.596075 28.7583958 71.920095 27.0664947 69.556775 26.0518771 68.20612 25.3745936 66.18079 25.3745936 64.49345 26.0518771 62.8035 25.0359519 61.45415 22.3307407 59.427515 20.9761738 58.751535 19.6229145 57.73887 18.9456311 57.402185 18.2683476 54.024895 17.9310134 52.67424 18.9456311 51.32489 18.6069893 49.97293 17.25373 49.298255 15.5631364 48.28559 13.8712353 44.906995 13.1939519 43.219655 11.5033583 43.219655 10.8260749 41.53101 12.517976 41.19302 13.8712353 41.53101 15.5631364 40.51965 14.885853 39.16769 15.5631364 37.817035 16.9163958 36.46638 16.9163958 29.375115 17.25373 28.025765 15.2244947 27.687775 13.1939519 28.025765 13.1939519 26.673805 13.8712353 25.324455 13.8712353 23.637115 10.8260749 19.583845 9.13417381 18.57118 8.45819788 17.896505 8.11955617 16.882535 8.11955617 15.53188 6.42896259 13.505245 4.05977808 13.843235 2.70651872 12.829265 2.36918451 11.141925 2.36918451 8.77860501 2.03054279 7.08996001 0 7.08996001 0.338641715 5.40131502 1.01592514 4.38865001 3.04516044 2.70000502 5.07439573 2.36201502 5.75167916 1.012665 7.10493852 0"></polyline>
    </g>
</svg>