<?xml version="1.0" encoding="UTF-8"?>
<svg width="54px" height="87px" viewBox="0 0 54 87" version="1.1" xmlns="http://www.w3.org/2000/svg" xmlns:xlink="http://www.w3.org/1999/xlink">
    <!-- Generator: Sketch 50.2 (55047) - http://www.bohemiancoding.com/sketch -->
    <title>Gorakhpur</title>
    <desc>Created with Sketch.</desc>
    <defs></defs>
    <g id="Page-1" stroke="none" stroke-width="1" fill="none" fill-rule="evenodd">
        <polyline id="Gorakhpur" fill="#F4DDB5" fill-rule="nonzero" points="1.19340873 2.38314521 1.19340873 1.66829377 1.67058763 0.714851443 2.86307339 0 3.1030473 0.476260562 4.05832807 1.42970289 4.53735292 1.66829377 7.40227226 2.38314521 8.11942507 2.38314521 9.55188474 3.09799665 10.0290636 3.57517842 10.5071655 4.29002986 10.7452935 5.0048813 11.2224724 5.72065395 12.4177271 5.48206307 13.1339569 4.76813282 13.8520327 4.29002986 14.8073135 3.8128481 15.5216973 4.52862074 15.5216973 5.48206307 15.2835694 6.43550539 15.2835694 7.15035683 15.7616712 7.62661739 16.716952 7.86612948 17.4331819 6.91176595 17.6722328 6.19691451 17.4331819 5.48206307 17.4331819 4.29002986 17.9103608 3.57517842 18.6275136 3.57517842 19.5827943 3.8128481 19.8209223 3.09799665 20.2990242 2.38314521 21.2543049 1.90688465 21.9705348 1.90688465 22.9267385 1.66829377 24.3582752 1.19203321 25.313556 1.19203321 25.7916579 2.14455433 26.2697597 3.33658754 26.2697597 4.05143898 26.5078877 4.52862074 26.7469386 5.0048813 25.5526069 4.76813282 24.8363771 4.76813282 23.8820193 5.0048813 23.4039174 5.95832363 23.4039174 6.67317507 22.9267385 7.62661739 22.2095857 8.8195718 22.6867646 9.53350204 22.6867646 10.2474323 21.9705348 10.4869444 21.7324068 11.2017958 21.4915099 12.3947502 21.2543049 13.1086805 21.7324068 13.8253743 22.4477137 14.0621228 23.6420454 13.584941 24.3582752 13.1086805 25.076351 13.1086805 26.2697597 14.0621228 27.4640914 14.3007137 28.4193722 14.0621228 29.8518319 14.0621228 30.0899599 14.5411469 30.0899599 15.9690074 30.5680617 16.6847801 31.2842916 16.2085195 32.0014444 15.4936681 32.7167512 15.4936681 33.433904 16.2085195 33.433904 18.1154042 33.672955 19.0697677 34.1510569 19.7836979 34.8663637 20.4976282 35.3463115 20.7362191 36.0616184 20.9748099 37.0168992 21.4519917 38.4484359 21.4519917 39.4055626 20.9748099 40.1217924 20.7362191 41.0770732 20.2608797 41.5542521 21.2134008 41.5542521 21.9291735 40.8380223 22.8816946 41.0770732 23.8351369 41.0770732 25.265761 40.8380223 26.2192033 41.0770732 27.1717244 41.5542521 28.1251668 42.0332769 28.3637577 42.9876347 28.3637577 43.4657366 29.3181212 44.4200944 29.5548697 44.8981963 30.0320514 45.1363242 30.9854937 45.1363242 31.7021876 46.091605 32.1775269 46.8087578 32.4161178 47.0468858 33.1300481 46.330656 33.8467419 46.330656 35.9912962 46.8087578 36.9456598 47.7640386 37.8981809 48.0030895 38.8525444 48.0030895 39.5683171 47.7640386 40.519917 47.7640386 42.6653925 48.0030895 43.8574257 48.0030895 44.5731984 48.2412175 45.7643104 48.2412175 46.4791618 48.4802684 47.1940133 48.4802684 48.1483768 48.7193194 48.8632282 48.7193194 49.8166705 48.4802684 51.2463734 48.7193194 51.9612249 48.9583703 52.9146672 48.7193194 53.3909278 48.2412175 53.6295186 48.0030895 54.8215519 48.4802684 55.774073 48.7193194 56.4907668 48.7193194 56.9661062 48.2412175 58.1581394 46.8087578 58.1581394 46.091605 57.9195485 45.3753752 58.1581394 44.8981963 58.6343999 44.6582224 59.5887635 43.9419925 59.8273544 43.2266857 59.8273544 42.0332769 59.3510938 40.5989713 59.3510938 40.3599204 59.5887635 40.1217924 59.5887635 39.1665117 60.0659452 38.4484359 60.3045361 37.9721799 61.0193876 37.734052 61.734239 38.4484359 62.9262722 38.4484359 65.3103386 38.9265377 66.0251901 38.6893328 67.6934838 37.9721799 68.646005 37.495924 69.3617776 38.4484359 70.076629 39.1665117 70.3152199 39.8836645 69.1231867 40.3599204 68.885517 40.5989713 68.1697444 41.0770732 68.885517 41.0770732 69.6003685 40.8380223 70.7914805 41.793303 71.0300714 42.5095329 70.7914805 43.2266857 71.9835137 44.1810435 71.9835137 44.4200944 71.5072531 44.6582224 71.5072531 44.8981963 70.7914805 45.3753752 70.076629 46.330656 69.8380382 46.8087578 70.076629 46.8087578 71.0300714 46.5706299 71.7449228 47.2859367 71.7449228 48.2412175 71.5072531 48.9583703 72.2211834 47.7640386 73.4141378 47.2859367 74.1289892 47.2859367 75.0815103 48.2412175 75.3201012 49.6736772 76.2735436 49.9127281 77.466498 49.6736772 78.4199403 49.6736772 79.3733826 50.152702 80.0873128 51.1061368 79.6110523 51.8232896 79.1338705 52.3013915 78.4199403 53.2557493 78.8952796 53.7338512 79.6110523 53.4957232 80.3259037 53.0176214 81.7565278 52.5404425 82.4723005 52.3013915 83.1862307 52.3013915 83.9010821 52.0623406 85.0940366 52.0623406 86.2851486 52.3013915 87 51.3470337 87 50.6289579 86.7614091 49.6736772 85.3326274 48.2412175 84.3791851 47.7640386 83.9010821 46.8087578 83.6634125 45.8534771 83.6634125 44.8981963 83.4257428 43.9419925 83.4257428 43.2266857 82.948561 42.5095329 82.7099701 42.0332769 82.7099701 41.793303 82.4723005 40.3599204 81.9951187 39.4055626 81.9951187 38.6893328 82.2327884 34.1510569 82.2327884 33.1957761 81.7565278 31.2842916 81.2784249 30.5680617 81.0407552 29.8518319 80.3259037 29.6137039 79.3733826 29.1346791 78.8952796 28.4193722 78.6566888 27.9412703 78.1804282 27.2250405 76.7507253 26.5078877 76.2735436 26.0307088 75.7963618 23.1648665 75.7963618 22.2095857 75.0815103 21.4915099 74.3675801 20.5389981 74.6052498 19.3446664 74.6052498 18.8656415 73.8903983 18.6275136 73.1755469 17.9103608 72.6983651 17.6722328 72.9360348 17.1950539 73.4141378 16.716952 73.1755469 15.7616712 72.9360348 14.5673395 72.2211834 13.8520327 71.9835137 6.68604243 71.9835137 5.49078774 72.2211834 4.77548088 72.4606955 3.34209824 72.6983651 3.1030473 72.9360348 3.1030473 72.6983651 2.6258684 72.2211834 2.14776653 71.5072531 1.90871559 70.554732 1.43153669 70.076629 1.19340873 69.6003685 0.954357795 68.646005 0.476255921 67.4558142 0 66.9777112 0.715306858 66.7400415 0.715306858 63.4025328 1.67058763 62.4500116 2.38774044 62.6876813 3.1030473 62.2104996 3.58207215 61.4956481 4.29737901 61.2570572 5.01360884 61.4956481 5.73168463 61.2570572 6.44699149 60.5422058 7.16322132 60.5422058 8.11942507 60.7807967 8.83473193 61.4956481 9.7900127 61.734239 10.0290636 60.7807967 9.7900127 59.5887635 9.55188474 58.873912 10.5071655 57.6809576 10.0290636 57.2046971 9.31375678 56.7284365 8.35755303 56.0126639 7.64040022 55.2978124 6.68604243 55.5364033 5.96981259 55.774073 5.49078774 54.8215519 5.73168463 53.8681095 5.96981259 53.1532581 4.53735292 52.1998158 3.82020011 51.9612249 3.34209824 51.0077826 3.34209824 50.2929311 4.05832807 49.5780797 3.1030473 48.1483768 2.86307339 48.1483768 2.14776653 47.6693526 2.38774044 46.4791618 3.1030473 44.3336863 3.1030473 42.189132 2.86307339 41.2356896 2.86307339 40.0436564 3.34209824 38.8525444 4.05832807 37.8981809 4.29737901 37.1842507 4.77548088 36.4675568 4.29737901 35.7527054 3.34209824 35.5150357 2.86307339 34.799263 1.90871559 34.0834904 1.43153669 32.8923784 1.43153669 31.9389361 2.38774044 30.9854937 2.14776653 30.2706423 1.67058763 29.7943817 0.954357795 29.3181212 1.43153669 28.6014273 1.90871559 28.1251668 2.6258684 27.8865759 2.86307339 26.9340548 3.82020011 26.2192033 3.58207215 25.5043519 2.86307339 24.7895004 3.1030473 23.8351369 3.82020011 24.0737278 4.77548088 24.3113975 5.96981259 24.7895004 6.92509336 24.5509096 8.11942507 24.7895004 9.31375678 24.5509096 9.07470585 23.1202855 9.31375678 22.405434 10.0290636 21.6905826 10.2690376 20.9748099 10.5071655 19.7836979 10.0290636 18.8302556 9.55188474 18.1154042 9.31375678 17.1601194 9.31375678 16.4461892 9.7900127 15.732259 10.5071655 15.2550772 10.5071655 14.5411469 10.2690376 13.584941 10.7452935 13.1086805 11.7005742 12.6314987 11.9387022 11.6789776 10.2690376 10.0106838 9.31375678 10.0106838 8.59568099 10.2474323 8.11942507 10.7255352 7.16322132 10.4869444 6.68604243 10.0106838 5.73168463 9.77209292 5.49078774 10.4869444 4.29737901 10.2474323 3.34209824 9.05632028 3.34209824 7.38894771 3.1030473 6.67317507 2.86307339 5.72065395 2.86307339 4.76813282 2.6258684 3.57517842 1.67058763 2.62173609 1.19340873 2.38314521"></polyline>
    </g>
</svg>