<?xml version="1.0" encoding="UTF-8"?>
<svg width="71px" height="78px" viewBox="0 0 71 78" version="1.1" xmlns="http://www.w3.org/2000/svg" xmlns:xlink="http://www.w3.org/1999/xlink">
    <!-- Generator: Sketch 50.2 (55047) - http://www.bohemiancoding.com/sketch -->
    <title>Pilibhit</title>
    <desc>Created with Sketch.</desc>
    <defs></defs>
    <g id="Page-1" stroke="none" stroke-width="1" fill="none" fill-rule="evenodd">
        <polyline id="Pilibhit" fill="#F4DDB5" fill-rule="nonzero" points="31.1645489 16.2698422 32.3624728 16.2698422 33.5622495 16.0303487 34.0412338 15.0742238 34.0412338 13.8776807 34.7601734 13.1592 35.7190683 12.441644 36.1999055 11.4855192 36.1999055 10.527545 35.9590237 9.33192655 36.4380079 8.13630813 37.1569475 6.93884035 38.3567243 6.45985324 38.8357085 5.98086612 39.3146927 6.69934679 40.513543 6.93884035 41.7114669 6.45985324 42.6712883 6.45985324 43.8701386 7.17925859 44.8290335 8.374877 46.0278838 9.09243299 47.4666895 10.0494825 48.9045687 11.4855192 50.1024925 11.9635816 51.7812535 12.2030752 53.2200591 12.441644 54.1780276 12.9206312 55.3768779 13.3986936 56.0958175 14.5952367 56.5766547 15.7917798 56.8156836 16.7479046 57.5346232 17.4654606 58.732547 18.4234349 59.4524131 19.1409908 60.411308 19.8585468 61.1311741 21.0550899 61.3711294 22.0112148 62.3290979 24.404301 63.0480375 25.1227816 63.5279482 25.3613505 63.2870664 25.6008441 62.5681268 26.7964625 62.0891425 27.753512 62.0891425 28.9500551 63.0480375 29.1904734 64.727725 29.1904734 65.4457381 30.1465982 66.6445884 30.6255853 68.0843205 30.8650789 68.8023336 31.5826349 68.5623783 32.779178 68.5623783 33.9747964 70.4810946 34.9318459 70.4810946 36.3678826 70.0002574 37.563501 69.2822443 38.7600441 68.0843205 39.2381065 67.1235726 39.4776001 65.9265752 39.4776001 64.727725 39.2381065 63.2870664 39.2381065 62.0891425 39.4776001 60.8902922 39.9565872 60.1722791 40.9136367 59.6914419 41.8706863 58.732547 42.1092552 60.6503369 43.0672294 61.8491872 43.7838607 62.3290979 44.7409102 62.5681268 45.6979598 63.7669771 46.8945029 63.5279482 48.3305395 63.5279482 49.5261579 64.0069324 50.4832075 64.9667538 51.440257 65.4457381 52.6377248 64.4859167 53.5938497 63.2870664 54.0746861 62.3290979 54.3114056 61.3711294 54.0746861 60.411308 54.0746861 59.6914419 53.5938497 59.6914419 52.8762937 59.2124577 52.1587377 58.732547 52.6377248 58.0136074 52.8762937 57.0547125 52.6377248 56.5766547 52.1587377 56.5766547 51.2007635 55.8558622 51.440257 54.8978937 51.2007635 53.9380723 50.7236257 53.2200591 50.7236257 53.9380723 51.440257 54.1780276 52.3982312 54.1780276 54.0746861 53.9380723 55.0298863 53.459088 55.7474423 52.7401484 56.2264294 50.8223585 55.7474423 49.8643901 54.3114056 49.8643901 53.3552808 49.144524 53.1157872 48.1856291 53.3552808 48.4255844 54.0746861 47.7057184 54.3114056 46.7468234 54.0746861 46.0278838 53.3552808 45.3098707 54.0746861 44.5900046 54.3114056 44.1110204 53.5938497 44.1110204 52.6377248 43.8701386 52.8762937 43.151199 53.1157872 42.1913776 52.6377248 41.2324826 52.6377248 40.2735877 53.1157872 40.0345588 52.6377248 40.0345588 51.440257 39.5555746 50.9612699 38.5957531 50.9612699 38.1158424 51.9183194 37.3978293 52.6377248 35.9590237 52.6377248 35.0010552 51.9183194 34.0412338 50.9612699 32.6024281 51.2007635 31.6444596 51.6797506 31.1645489 52.8762937 30.9245936 53.5938497 30.6846382 53.8333432 29.4867144 53.8333432 29.2476855 54.7903928 29.0068037 55.9869359 29.2476855 57.4220478 29.0068037 58.8580845 29.0068037 60.2931964 29.7257433 61.250246 28.7668483 63.1643451 29.0068037 64.1213946 29.9656986 66.5135561 30.4465358 67.9486681 30.205654 69.3847048 30.9245936 70.5812479 30.9245936 72.9734094 30.4465358 74.1708771 30.4465358 75.3674202 29.9656986 76.8025322 29.9656986 78 28.2887906 77.7595818 27.5689245 76.8025322 26.3700742 76.0849762 24.6931662 76.3244698 23.253434 76.3244698 22.2945391 75.3674202 22.2945391 74.1708771 21.3356441 73.4523965 22.2945391 72.9734094 21.5755995 72.0182092 20.6157781 71.5373727 20.3758227 70.5812479 19.8968385 69.6241983 18.6979882 69.1452112 18.9379435 67.9486681 19.4169278 66.7530497 19.4169278 65.7960001 18.9379435 64.599457 17.9790486 64.3599635 16.7801983 64.8389506 15.8213034 65.7960001 15.8213034 66.9925432 16.3012141 67.9486681 16.5411694 69.6241983 16.0612587 70.8198167 15.1023638 71.5373727 14.1434688 72.0182092 12.2256789 71.7777909 11.0277551 71.2988038 10.0679337 71.0593103 8.87000986 70.1022607 7.91111491 69.1452112 6.95221997 67.7100992 7.19124885 66.5135561 8.39009915 65.7960001 8.6300545 64.8389506 7.43120421 64.599457 5.99332502 64.8389506 5.51341432 63.8819011 5.03443008 62.6862826 5.75336967 61.7292331 6.71226461 61.0107524 8.39009915 61.0107524 8.87000986 59.815134 8.87000986 58.8580845 7.43120421 58.6185909 6.23328038 57.9001103 5.99332502 55.9869359 5.75336967 54.7903928 7.43120421 53.8333432 7.91111491 52.8762937 7.67115956 51.9183194 6.47230926 50.7236257 6.47230926 49.0490202 6.71226461 47.6120588 7.19124885 46.4164404 7.91111491 45.6979598 9.10903874 45.9374533 10.307889 45.6979598 10.5478444 44.2628478 11.5067393 44.0233542 12.4656343 43.0672294 12.4656343 41.8706863 11.7466947 40.6741432 11.7466947 38.0424881 10.5478444 37.3249321 10.0679337 36.3678826 9.10903874 35.6503266 8.15107027 36.6064515 7.19124885 36.6064515 5.99332502 35.8888955 5.51341432 34.4537835 4.55451937 33.496734 5.03443008 32.5396844 5.99332502 31.8221284 6.23328038 30.6255853 5.27438543 30.6255853 3.83557978 30.1465982 2.87668483 29.4290422 1.678761 29.6676111 1.1988503 28.7105616 0.958894945 27.5140185 0.479910707 26.3184001 0.479910707 25.1227816 0.958894945 23.9253139 0.718939592 23.686745 0.239955353 22.969189 0 20.8155964 0.718939592 20.0989651 1.678761 19.3804844 2.15774524 17.7049542 2.87668483 16.5093358 3.59562443 15.7917798 4.07553513 14.5952367 4.07553513 13.1592 3.11664019 11.9635816 3.11664019 10.7670385 3.35659554 9.57049542 4.07553513 8.374877 3.11664019 7.65732102 3.11664019 6.45985324 2.3977006 5.26331014 2.3977006 5.02474127 3.59562443 3.82727348 4.55451937 3.1097175 5.75336967 2.87114863 6.71226461 2.15451733 7.91111491 1.67460553 9.8289048 0.717555985 11.0277551 0.717555985 11.9857236 0.238568871 13.1845739 0 13.9035135 0.957049542 15.581348 1.19561841 16.3012141 1.67460553 16.5411694 2.63165507 16.5411694 4.06676704 16.3012141 5.26331014 16.0612587 6.45985324 15.8213034 7.41782746 15.8213034 8.85293943 16.7801983 9.57049542 17.7390932 9.33192655 18.9379435 8.374877 18.9379435 7.41782746 19.6568831 6.69934679 20.8566599 6.69934679 21.8155548 7.41782746 22.7744498 7.41782746 23.7333447 8.13630813 22.2945391 8.61437056 21.0966153 8.85293943 20.8566599 9.80998897 22.0555102 10.2880514 23.0144051 10.2880514 25.4111793 10.7670385 25.6511346 12.2030752 25.6511346 13.1592 25.89109 14.3557431 26.6100296 15.0742238 26.3700742 16.2698422 27.5689245 16.7479046 28.7668483 16.5093358 29.7257433 16.2698422 31.1645489 16.2698422"></polyline>
    </g>
</svg>