<?xml version="1.0" encoding="UTF-8"?>
<svg width="69px" height="78px" viewBox="0 0 69 78" version="1.1" xmlns="http://www.w3.org/2000/svg" xmlns:xlink="http://www.w3.org/1999/xlink">
    <!-- Generator: Sketch 50.2 (55047) - http://www.bohemiancoding.com/sketch -->
    <title>Sharanpur</title>
    <desc>Created with Sketch.</desc>
    <defs></defs>
    <g id="Page-1" stroke="none" stroke-width="1" fill="none" fill-rule="evenodd">
        <polyline id="Sharanpur" fill="#F4DDB5" fill-rule="nonzero" points="38.6172586 2.29461312 38.8473401 2.29461312 39.536696 1.60658384 39.536696 0 40.226052 0.229638639 41.3755708 0.918554557 42.5250896 1.14730656 43.9038015 2.06497448 44.5931575 2.75300376 45.9727577 2.52336512 47.8116325 4.3595876 48.7310699 4.81797824 49.4213142 5.73564616 50.570833 8.02937265 51.260189 8.71740193 52.4097078 9.17667921 53.7884197 9.63506985 54.9379385 10.3230991 55.6272945 11.0129017 56.3166504 11.929683 57.0068947 12.6177123 58.3856066 13.0778762 59.305044 13.3057415 60.4545628 13.5344935 61.3740002 14.4539347 62.5226307 14.6826867 63.212875 14.2234095 64.5915869 14.2234095 65.2809429 15.1410774 66.2003802 16.0596319 67.120706 16.5180226 68.039255 17.2060519 68.2693364 18.3533584 67.8100619 19.2710263 66.8897362 19.7303036 65.9702988 20.6479715 65.7411057 21.7943915 65.0517498 22.2536687 63.9022309 22.941698 63.4420681 23.8593659 63.212875 25.0057859 62.7527121 25.9243404 62.5226307 26.8411217 62.0633562 27.9884283 61.3740002 28.6764575 61.1439188 29.5941255 60.4545628 30.2830414 59.7643185 31.1998227 58.8457695 31.1998227 57.6962507 31.887852 56.7768133 34.1824651 56.0874573 35.100133 56.0874573 36.0169143 56.3166504 36.9363555 55.1680199 37.6243848 54.2476942 37.6243848 53.7884197 38.5420527 53.5583383 39.6893592 53.0990637 40.6070272 53.0990637 41.7534471 53.5583383 42.9007536 53.3291452 44.0480602 52.1796263 44.5073375 51.9495449 45.4241188 51.0301075 46.5714253 50.3407516 47.2594546 50.570833 48.6355132 51.260189 49.5531811 51.4902704 49.7828197 52.1796263 50.242097 52.8689823 51.3885169 52.6397892 52.7654621 53.7884197 53.6822434 53.7884197 55.9777432 54.2476942 57.3529151 55.1680199 58.5011083 55.1680199 59.6484149 54.478664 60.7948348 55.1680199 61.9412547 55.397213 62.8598093 55.397213 64.0062292 56.3166504 64.6942585 57.2360878 65.1535357 58.6156881 65.3831744 59.5351254 66.0712037 59.9944 66.9888716 59.5351254 66.7592329 58.8457695 67.6769009 58.3856066 68.5945688 57.9263321 69.7418753 57.0068947 69.2834847 56.0874573 69.7418753 55.397213 70.4299046 54.7078571 71.3475726 54.0185011 72.0356018 53.0990637 72.4948791 52.4097078 73.183795 51.260189 73.641299 50.3407516 74.3293283 49.4213142 74.3293283 48.270907 74.7886056 47.5815511 75.7062735 47.3514696 76.8535801 46.4320322 77.542496 44.8232389 78 44.8232389 76.8535801 44.1338829 75.7062735 43.2144456 75.4766349 42.9843641 74.3293283 42.2950082 72.9532698 40.4561334 72.0356018 39.3066146 71.5772112 37.4677398 70.200266 35.628865 71.5772112 34.2501531 71.3475726 33.3307157 71.1179339 32.1811969 70.8882953 31.491841 69.971514 30.802485 68.8242074 28.5034474 66.5304809 27.5831216 66.9888716 27.1238471 67.9065395 26.2044097 68.8242074 25.2849723 69.5122367 23.4460976 70.200266 22.2965787 69.971514 20.457704 70.8882953 19.5382666 70.200266 19.3090735 69.971514 18.6188292 69.7418753 17.2401173 69.7418753 16.3206799 69.2834847 15.8614054 68.3649301 14.9410796 66.7592329 14.7118865 66.9888716 14.0216422 67.4481489 12.8730118 67.6769009 12.1836558 66.7592329 10.8040556 66.5304809 10.1146996 65.612813 9.19526222 64.9247837 8.27582483 65.1535357 7.58646888 65.841565 5.51662432 65.841565 4.3671055 66.3008423 2.75831216 66.3008423 0.919437387 66.0712037 0.919437387 64.6942585 0.230081433 63.7774772 0 62.8598093 0.919437387 61.0244734 3.21758668 59.1891376 3.44766812 58.041831 3.44766812 57.1241631 3.21758668 55.7472179 2.75831216 54.82955 2.75831216 53.6822434 3.21758668 52.5358235 3.90783098 52.0765462 4.59718694 50.9301263 4.3671055 49.7828197 4.13702407 48.8651518 3.67774955 47.9474839 5.51662432 47.029816 5.97678719 46.112148 5.97678719 44.9648415 6.89533623 44.0480602 7.81566197 43.5887829 8.96518079 43.8184216 9.65453674 43.3591443 10.344781 42.442363 10.344781 41.5238084 11.7234929 39.230082 12.6429303 38.5420527 13.1022049 37.6243848 12.8730118 36.2474396 12.8730118 34.8704944 14.0216422 34.1824651 15.1711611 34.1824651 16.5507613 33.4944358 17.6993918 33.4944358 18.6188292 32.5767679 19.078992 31.4294613 19.768348 30.5117934 20.9178668 30.0534027 22.0673856 29.8237641 23.4460976 30.0534027 24.3655349 29.8237641 25.0548909 28.4468189 25.2849723 27.0707603 25.0548909 26.1530924 25.0548909 24.7770339 25.9743283 22.941698 27.1238471 22.941698 28.2733659 22.7120594 28.7335288 21.7943915 29.4228847 20.8767235 29.8830476 19.9590556 30.802485 19.9590556 31.7219224 19.7303036 32.6413598 18.8126357 33.5599088 16.5180226 34.0200717 15.6003547 35.8589465 13.7650188 37.0084653 12.8464643 37.9279027 12.158435 38.6172586 11.4704057 39.0774215 10.5527378 39.0774215 9.40543121 39.536696 8.25901129 39.7667774 7.11170473 39.7667774 6.19403681 39.536696 4.81797824 38.6172586 2.52336512 38.6172586 2.29461312"></polyline>
    </g>
</svg>