<?xml version="1.0" encoding="UTF-8"?>
<svg width="82px" height="78px" viewBox="0 0 82 78" version="1.1" xmlns="http://www.w3.org/2000/svg" xmlns:xlink="http://www.w3.org/1999/xlink">
    <!-- Generator: Sketch 50.2 (55047) - http://www.bohemiancoding.com/sketch -->
    <title>Shahjahanpur</title>
    <desc>Created with Sketch.</desc>
    <defs></defs>
    <g id="Page-1" stroke="none" stroke-width="1" fill="none" fill-rule="evenodd">
        <polyline id="Shahjahanpur" fill="#F4DDB5" fill-rule="nonzero" points="52.101918 2.55741756 52.3156533 1.91826908 52.7431241 0.852472519 53.5964151 0.426648082 54.8780022 0.213324041 55.7329437 1.06579656 56.5862347 1.70494504 57.8678217 1.70494504 58.5073774 1.06579656 58.9348482 0.213324041 59.7897897 0.213324041 60.2164352 0.639148478 60.2164352 1.70494504 60.4293453 2.13076947 61.2834616 1.70494504 62.1384031 1.70494504 62.9925194 2.13076947 63.6337255 1.91826908 63.8474609 1.70494504 63.8474609 2.55741756 64.2741064 3.19656603 64.9153125 2.98488928 65.5548682 2.34409352 66.1952491 2.98488928 67.0493654 3.19656603 67.6905715 2.98488928 67.4768361 2.34409352 68.3309524 2.13076947 68.9721585 2.34409352 68.9721585 3.19656603 69.8254496 4.47568663 71.5336821 4.90151107 72.174063 4.47568663 72.6015338 3.83653816 72.8144439 2.98488928 72.8144439 1.491621 72.6015338 0.639148478 71.9611529 0 72.6015338 0 73.4556501 0.426648082 74.3089411 0.639148478 74.9509725 0.426648082 74.9509725 1.2791206 75.377618 1.70494504 76.230909 1.91826908 76.8712899 1.70494504 77.2987607 1.2791206 77.7262314 1.91826908 77.7262314 2.55741756 78.3666123 2.98488928 79.2215538 2.98488928 80.0756701 3.19656603 80.9281359 2.98488928 81.9968128 2.55741756 81.3564319 3.83653816 80.9281359 4.90151107 80.5014904 6.17980803 80.7152258 7.03228055 80.7152258 8.09807711 79.6473741 8.73722558 78.7932578 9.16469731 78.3666123 10.0163462 77.9391416 11.0813191 77.2987607 11.7204676 76.8712899 12.5729401 76.4446444 13.6403839 76.4446444 14.7045332 77.0858505 15.3445053 77.512496 16.1969779 77.9391416 17.4752748 77.2987607 18.5410714 76.8712899 19.6068679 75.8042635 19.8193683 75.1638826 18.9685431 74.9509725 19.1802198 74.5226765 19.8193683 72.3877984 18.9685431 71.5336821 20.2460164 71.9611529 21.311813 72.6015338 22.803434 72.6015338 23.6550828 72.3877984 25.1475275 72.6015338 26.2125004 72.8144439 27.0649729 72.8144439 28.1307695 71.9611529 28.3440935 71.1070366 28.983242 70.4658305 29.8357145 69.8254496 30.474863 68.9721585 30.0498622 67.9043069 29.8357145 67.0493654 30.2615389 66.8372805 31.3273355 65.7686036 31.5406595 64.9153125 31.9673076 63.4191649 32.8189565 61.2834616 34.0997244 60.0026998 34.7380492 58.721938 35.5905217 57.8678217 36.0171698 56.8007953 37.2954668 55.7329437 38.3604397 55.0917375 39.2129122 54.665092 40.7053569 55.0917375 41.7703298 55.0917375 41.9836538 56.158764 43.4752748 57.0128802 44.1144233 57.2266156 44.9668958 57.6549116 46.0326924 57.6549116 47.3109893 57.2266156 48.3767859 56.8007953 49.2284348 56.8007953 50.5075554 57.2266156 51.7858523 58.0807319 52.6391485 58.5073774 53.491621 59.1485835 54.5582412 58.2944673 55.1973897 57.0128802 55.1973897 55.9450286 54.9840656 55.0917375 54.7707416 54.0238859 55.4107137 53.383505 56.0490386 52.7431241 56.9015111 51.8881826 57.5406595 51.6760977 56.2623626 51.0348915 55.4107137 49.9670399 55.4107137 49.1129236 55.6232141 48.045072 56.6890107 46.7643102 56.4756866 46.123104 57.3281592 45.9101939 58.1806317 44.8423422 58.8197802 43.7744906 58.6064561 43.3478451 59.6722527 43.5615805 60.5239015 43.988226 61.5905217 43.988226 62.8688187 40.9975812 62.8688187 39.9305547 62.2296702 39.2901738 61.3771977 39.2901738 60.3114011 38.4360576 59.6722527 37.3682059 59.4589286 36.5140896 59.0331042 35.6599734 58.1806317 34.5921217 57.5406595 33.3113599 57.1148351 32.4572437 57.1148351 31.8168628 57.7548072 31.8168628 60.7388729 30.7490111 61.1646973 30.3215404 62.4421706 29.6811595 63.2946431 29.2545139 64.3604397 29.6811595 65.2137359 30.1086302 66.2778851 30.5352757 67.1311813 30.9619212 68.1961542 31.6031274 69.2619508 31.8168628 70.1144233 31.8168628 72.8843412 32.2435083 73.9509614 32.2435083 75.4425824 31.8168628 76.508379 31.8168628 77.5733519 31.1756566 77.786676 30.7490111 78 30.3215404 76.9342034 29.4674241 76.508379 28.614133 75.8700542 27.7591915 75.016758 27.5462814 73.9509614 27.5462814 73.0976653 28.1866623 72.0318687 26.9050753 70.9668958 26.4784297 70.1144233 26.2646944 69.0486267 26.4784297 67.5570057 27.1188106 66.0662084 27.1188106 64.7870878 26.9050753 63.5079672 26.9050753 62.6554947 26.6921651 61.5905217 25.4114033 61.1646973 24.9839326 62.0163462 24.9839326 63.0821427 24.7701972 64.1471157 23.9160809 64.3604397 23.9160809 65.4262363 24.1298163 66.4928565 22.6344939 67.9836538 21.5666422 67.7703298 20.4987906 67.1311813 19.6446743 66.9178573 18.3639125 66.2778851 17.0823255 66.2778851 16.4419446 66.7045332 16.0152991 66.7045332 14.9474474 67.5570057 13.8795958 67.3445053 13.8795958 66.2778851 13.4529502 65.2137359 12.8125693 64.3604397 11.7447177 63.9337916 10.676866 63.7212912 9.39610425 62.8688187 8.3282526 63.5079672 7.47413632 62.8688187 6.62002005 62.4421706 5.5521684 62.6554947 4.48514198 62.6554947 3.84393585 62.0163462 3.41729033 60.9513733 2.56234882 60.3114011 1.70823255 60.5239015 0.853291041 60.0980771 0 59.2456046 0 58.1806317 0.212910144 57.1148351 1.28076179 56.6890107 1.92114269 55.8365382 1.70823255 54.7707416 1.49449717 53.491621 1.49449717 52.4258244 1.92114269 51.1467038 2.98899434 50.9350271 4.05767123 50.5075554 4.69805212 49.8684069 5.5521684 50.295055 6.40628467 50.9350271 7.0474908 50.0825546 7.0474908 49.2284348 7.6878717 48.3767859 8.75489812 48.8026103 9.82274977 48.3767859 10.2493953 47.5243134 11.9576278 46.2460164 11.7447177 45.3927202 11.1035116 44.7543954 10.676866 43.9019229 10.0364851 43.0494504 10.0364851 41.7703298 10.8906014 40.9178573 11.9576278 40.4920328 12.598834 39.8528843 12.3850986 38.9995882 11.5309823 37.9346153 11.1035116 36.8688187 11.3172469 35.8038458 11.9576278 34.9513733 11.7447177 33.8855767 12.598834 32.8189565 13.4529502 32.3939557 13.8795958 31.5406595 14.0933311 30.9015111 14.0933311 29.8357145 14.5199767 28.5574176 15.1611828 28.1307695 16.2282092 27.9174454 17.0823255 28.1307695 17.9364418 27.278297 19.0042934 27.4907974 20.712526 28.7707416 21.5666422 27.9174454 21.5666422 25.786676 22.8482293 26 23.7023455 26.2125004 24.5564618 25.3608515 24.5564618 24.2958786 25.4114033 22.5901099 24.7701972 21.7376374 24.1298163 21.0984889 24.5564618 20.2460164 24.7701972 19.1802198 25.6243135 17.0494504 25.6243135 15.9836538 26.6921651 15.5578294 27.332546 14.7045332 27.7591915 13.8528843 28.3995724 13.2129122 28.8270432 12.1471157 29.4674241 11.7204676 29.8948948 12.5729401 31.1756566 12.3596161 32.2435083 12.5729401 32.0297729 13.4262363 30.9619212 14.0662084 30.7490111 15.1311813 31.6031274 16.4103019 32.4572437 17.2619508 33.5242701 18.1160706 34.3792116 18.3277473 35.446238 18.7543954 37.1544705 18.9685431 38.0085868 18.5410714 38.8627031 17.9010992 39.2901738 16.8361263 39.0764385 15.3445053 38.6489677 14.4920328 38.6489677 13.4262363 39.5039092 12.5729401 40.5709356 12.1471157 41.4250519 12.3596161 41.8516974 13.4262363 41.8516974 14.2787088 41.4250519 15.3445053 41.2113165 16.4103019 42.2799934 16.8361263 42.7074642 17.6885989 42.9203743 18.5410714 43.7744906 18.9685431 44.4148715 19.8193683 43.5615805 20.2460164 44.4148715 20.8851649 44.4148715 21.9509614 45.2689878 22.803434 46.5514 22.803434 48.045072 22.5901099 49.1129236 23.2292584 49.7541297 24.0817309 51.2478017 24.2958786 51.2478017 23.2292584 51.6760977 21.9509614 51.6760977 20.8851649 52.101918 19.8193683 52.101918 17.6885989 51.4615371 16.6228023 51.6760977 15.3445053 51.2478017 14.0662084 50.3936854 11.9337916 50.17995 11.0813191 51.0348915 9.37637406 50.3936854 8.52390154 50.3936854 7.24560459 50.608246 5.96730763 50.3936854 4.68818703 50.608246 3.62321412 50.8211562 2.76991795 51.8881826 2.76991795 52.101918 2.55741756"></polyline>
    </g>
</svg>