<?xml version="1.0" encoding="UTF-8"?>
<svg width="101px" height="87px" viewBox="0 0 101 87" version="1.1" xmlns="http://www.w3.org/2000/svg" xmlns:xlink="http://www.w3.org/1999/xlink">
    <!-- Generator: Sketch 50.2 (55047) - http://www.bohemiancoding.com/sketch -->
    <title>Varanasi</title>
    <desc>Created with Sketch.</desc>
    <defs></defs>
    <g id="Page-1" stroke="none" stroke-width="1" fill="none" fill-rule="evenodd">
        <polyline id="Varanasi" fill="#F4DDB5" fill-rule="nonzero" points="50.9767356 7.12202509 53.015805 7.12202509 54.5446146 5.59615776 56.5797438 4.07029043 59.1330133 1.52586733 60.6618228 0.509277885 62.7008923 0.509277885 65.2502216 1.01658945 66.777061 2.03317889 69.3244202 4.57956831 73.4045291 6.61471353 75.9558286 6.61471353 75.4495089 7.63130297 75.4495089 11.1942818 75.9558286 12.7181828 77.4846381 14.7533281 79.0154178 14.7533281 79.5237075 13.2274607 79.5237075 11.7015934 81.5647471 9.66644819 83.6018464 9.15913663 87.1716955 9.15913663 88.6985349 10.1737597 90.2312847 10.1737597 94.3074534 11.1942818 94.8196834 11.1942818 94.8196834 12.7181828 95.3279732 14.2440502 94.8196834 15.7699175 93.2869336 16.7884733 91.2478642 16.7884733 90.2312847 18.3123743 90.2312847 20.8567974 90.7376043 22.384631 91.7581241 24.4197762 92.2703541 24.4197762 93.2869336 25.9476099 94.8196834 26.4549215 97.3670426 27.9807888 98.3836221 29.5066561 99.4041419 30.5232456 99.9163719 32.0530455 100.934922 34.599435 100.934922 39.6863148 100.424662 41.2102158 98.893882 42.2268053 97.8753324 43.7546389 97.3670426 45.2824726 97.3670426 47.3156515 96.3465228 48.8415188 94.3074534 48.8415188 93.2869336 49.8561419 91.2478642 50.3693525 89.7210248 50.876664 87.6839255 50.3693525 85.6409158 51.3879082 84.1121063 52.4025314 82.0730368 52.4025314 81.0525171 50.876664 79.5237075 49.8561419 77.4846381 49.352763 75.4495089 49.8561419 74.4250489 50.3693525 73.4045291 51.8932535 72.8982095 54.4357102 72.3859795 56.4747881 72.3859795 59.0172449 73.4045291 60.5431122 74.4250489 62.5782574 75.4495089 63.5948469 75.9558286 65.1207142 76.4660885 67.1578257 76.4660885 69.1910046 69.8386203 69.1910046 66.2687712 72.7559498 64.7399617 73.7705729 64.2297018 75.2984066 62.1906324 78.3501413 56.5797438 78.3501413 55.0529043 78.8594191 53.015805 79.8760086 50.9767356 79.8760086 49.4479261 80.3852865 47.9171464 80.3852865 46.390307 81.4058086 44.3492674 80.3852865 40.2711286 80.3852865 37.2135095 80.8965307 36.7052197 82.9297096 35.6827299 84.4575432 33.6436604 84.9648548 32.1148509 85.476099 31.6085312 87 30.0757815 86.4926884 28.0327718 85.476099 26.5059324 85.476099 25.4893529 86.4926884 22.9360833 85.9814442 21.4072738 85.476099 20.3887241 82.9297096 20.3887241 80.8965307 22.4277935 80.3852865 24.9771229 79.8760086 25.9976426 78.3501413 28.0327718 76.8262403 28.5469719 74.791095 29.5674917 72.2447056 29.5674917 70.7208046 28.5469719 68.1763815 26.5059324 67.6651373 24.4688331 68.6836931 23.4463432 70.7208046 22.4277935 71.7354277 21.9175337 73.7705729 21.9175337 75.8057182 19.8804344 76.3130297 18.8599146 74.791095 18.8599146 71.2261498 19.8804344 68.6836931 19.8804344 66.1412363 18.8599146 64.6134026 16.8208452 64.1021584 15.8003254 65.1207142 15.8003254 66.6465815 14.2715159 68.1763815 10.1953471 70.2095604 7.64601781 69.1910046 6.11326804 67.1578257 5.09865862 66.1412363 3.05564896 65.6319584 0 65.6319584 0.510259885 64.1021584 0.510259885 61.0523901 1.01854965 60.037767 0 58.507967 0 56.9801333 2.03709931 55.4581987 3.05564896 52.9118092 3.05564896 50.3693525 2.54932931 48.3322409 2.54932931 46.8063736 3.56590885 45.7897842 7.64601781 44.7692621 7.64601781 42.7400158 7.13575793 41.2102158 5.09865862 39.6863148 3.56590885 39.1750706 3.05564896 38.6697254 2.03709931 37.1399254 3.05564896 35.6140581 4.07616873 33.5769465 5.60694839 31.5437677 5.60694839 30.0198667 8.15430758 25.9476099 8.15430758 21.8773195 6.11326804 19.8402079 4.58642862 18.8236185 4.07616873 16.7884733 5.09865862 15.2645723 6.11326804 13.2274607 5.60694839 10.1737597 6.11326804 8.64592609 7.64601781 8.13861453 9.68508724 8.13861453 11.7241567 8.64592609 12.7427063 10.1737597 14.2715159 10.6830376 16.3105853 11.1942818 17.3330752 11.7015934 19.3701745 11.7015934 22.4277935 9.66644819 23.4463432 8.13861453 25.9976426 6.61471353 28.0327718 6.10150299 30.5860414 4.07029043 32.1148509 3.55904622 33.6436604 2.03317889 35.17247 0 38.2320592 1.01658945 40.2711286 2.03317889 41.8019082 2.5444231 43.3307178 2.5444231 44.3492674 1.52586733 46.390307 0.509277885 48.9376662 0.509277885 49.4479261 2.03317889 49.9562158 4.07029043 49.9562158 5.59615776 50.9767356 7.12202509"></polyline>
    </g>
</svg>