<?xml version="1.0"?>
<svg xmlns="http://www.w3.org/2000/svg" version="1.2" baseProfile="tiny" width="800" height="1471" viewBox="0 0 800 1471" stroke-linecap="round" stroke-linejoin="round" fill="#B8C4D6">
<g id="DISTRICTS_2018">
<path d="M 7.1932 1456.5058 7.8664 1456.6648 8.0587 1456.6295 8.7127 1456.6648 9.7128 1456.5765 10.5591 1456.6471 10.9245 1456.8946 11.5208 1457.301 12.5017 1457.8312 12.7709 1457.8666 13.7903 1458.4321 14.0403 1458.6972 13.8672 1459.2097 13.4056 1459.7222 12.7902 1460.058 12.2901 1460.5175 11.7516 1460.9593 11.0399 1461.3658 10.386 1462.0727 9.8667 1462.5322 9.732 1463.027 9.0589 1463.5748 8.6742 1464.5115 8.2318 1465.7486 8.0202 1466.7029 8.0972 1466.968 8.6357 1467.9047 8.9435 1468.2758 9.3089 1468.4525 9.5012 1468.7353 9.0973 1469.1417 8.7511 1469.4068 8.251 1469.4775 7.5202 1469.5659 6.7124 1469.2654 6.0969 1468.7353 5.7699 1468.4348 4.8082 1468.0991 4.6544 1467.9223 4.7505 1467.7279 4.9813 1467.3391 5.5391 1467.074 5.9815 1466.8089 6.2315 1466.3141 6.3277 1465.89 6.1354 1465.077 5.9238 1464.6175 5.3275 1464.2464 5.0967 1463.7339 4.9236 1462.7796 4.7121 1462.5498 4.4428 1462.2847 4.1351 1462.3024 3.6927 1462.4615 3.2696 1462.4791 2.9234 1462.3554 2.5002 1461.9843 1.7501 1461.1183 1.3654 1460.3584 1 1458.9269 1.0192 1458.273 1.3847 1457.195 2.0963 1455.4631 2.7118 1454.1553 2.8849 1453.8195 3.4042 1453.201 3.7312 1453.1656 4.1928 1453.4484 4.7698 1454.1906 4.9813 1454.7208 5.7507 1455.5691 6.1931 1455.8519 6.7508 1456.329 7.1932 1456.5058 Z M 404.9238 48.3275 406.1163 48.3275 406.8471 47.8857 407.4242 47.5676 407.655 47.3732 407.905 47.3555 408.232 48.0801 408.482 48.6279 409.059 50.0771 409.2898 50.678 409.5398 51.1021 409.6745 52.4099 409.8283 52.7987 409.9245 53.0284 410.54 53.5056 410.8477 53.859 411.5594 54.4422 412.6172 55.5026 413.0019 55.9798 413.5212 57.1108 413.5789 57.535 413.6558 58.8427 413.8674 59.4259 413.9828 60.451 414.4636 61.2816 415.0022 61.9001 415.156 62.8191 414.906 63.5614 415.1753 64.9752 415.2522 65.8588 415.2714 65.8588 415.3868 66.8131 415.4061 67.0959 415.4445 67.6261 415.4061 68.0679 415.3291 68.5627 415.2137 69.0222 415.1368 69.2343 415.0406 69.4287 414.8868 69.6584 414.3675 70.224 413.425 71.1076 413.175 71.302 411.7132 72.4861 410.6169 73.3167 410.3861 73.4404 409.0975 75.5434 408.2704 77.6995 407.8473 77.5405 407.5011 77.3284 406.9818 77.0456 406.3278 76.6568 406.1163 76.9219 405.847 77.293 405.3662 77.8409 404.8661 78.6185 404.5968 78.9719 404.443 79.1663 404.2121 79.3961 403.7505 79.8026 403.4428 80.1383 402.9812 80.5625 402.7696 80.7215 402.5581 80.8629 402.3465 80.9336 402.058 81.022 401.8272 81.0927 401.5964 81.2164 401.3271 81.3931 401.1155 81.5522 401.0001 81.6759 400.904 81.7996 400.8078 81.9763 400.7116 82.1884 400.5193 82.6479 400.4616 82.8246 400.2693 83.3724 399.6538 85.0337 399.4615 85.4932 399.4422 85.6169 399.4422 85.7583 399.6923 85.8113 399.673 86.8186 399.6153 87.3665 399.5384 87.826 399.4422 88.1971 399.423 89.2221 399.3461 90.7773 399.2691 92.1911 399.2307 93.2692 399.2114 93.6756 399.1922 94.0291 399.0768 94.3649 398.8268 95.3369 398.7306 95.9554 398.6921 96.1852 398.6537 96.3619 398.4613 96.68 398.1536 97.5813 398.0189 98.0054 397.9612 98.4119 397.8458 98.7477 397.8074 98.8537 397.6727 99.2425 397.4996 100.0378 397.4612 100.3736 397.3842 101.3279 397.2111 101.6814 397.1342 102.3883 397.038 102.9185 397.038 102.9715 396.8265 103.4133 396.4803 104.1379 395.961 104.1202 394.73 104.0848 394.3838 103.9788 393.6529 103.7137 393.1529 103.4486 392.3835 103.1305 391.8834 102.8124 391.0949 102.2115 390.7294 101.8227 390.4602 101.54 390.2678 101.2395 389.8639 100.7977 389.2292 100.0201 388.9215 99.4899 388.556 98.9951 388.306 98.5356 388.1329 98.1998 387.6905 97.2809 387.2482 96.4149 386.902 95.6903 386.4596 95.0364 386.0172 94.4179 385.2094 93.4282 384.4208 92.4562 383.6707 91.6786 383.2283 91.2368 382.8437 90.795 382.3436 90.3355 381.6704 89.77 381.1511 89.2928 380.2856 88.7096 379.3624 87.9673 378.5931 87.4902 377.9199 87.1014 377.9007 87.0837 377.843 87.0837 376.7851 86.7303 375.9773 86.2884 375.5157 85.9703 375.208 85.7406 374.1501 84.7686 373.5731 84.2207 372.9961 83.7966 372.5345 83.4785 371.4766 82.8599 370.7842 82.4004 369.9957 81.7642 369.4571 81.2694 369.0725 80.8806 368.2262 79.8733 367.7069 79.3784 367.0529 78.6185 366.7837 78.2297 366.6298 77.8762 366.5721 77.6465 365.9951 76.6568 365.9566 76.5685 365.8604 76.3034 365.7066 75.7909 365.9374 74.4831 366.8798 73.3167 368.8032 71.8145 369.9187 70.4007 370.9381 68.2976 371.3612 67.3787 371.592 66.0532 372.496 64.4273 372.8999 63.5437 373.3615 62.8191 373.4577 62.6777 373.6693 62.3419 374.4001 61.1048 374.9002 60.2742 375.2272 59.8854 375.708 59.1962 375.8427 58.8781 376.1504 58.4186 376.4966 57.8531 377.2082 57.1462 377.8237 56.3686 378.2469 55.75 378.7854 54.9017 379.1316 54.1948 379.2662 53.9297 379.6509 53.2582 379.9586 51.8797 380.0548 50.1124 380.5164 48.1684 380.2856 47.9033 380.3818 47.002 380.401 46.8253 382.132 46.949 383.3053 46.9667 384.1323 47.0374 385.5364 46.9844 387.6136 47.0374 388.6714 47.0551 390.2871 47.2141 391.191 47.2141 392.4797 47.3201 394.5954 47.3378 395.2108 47.3378 396.0956 47.3025 397.8266 47.4262 398.8268 47.4969 400.1731 47.6559 401.1155 47.6383 401.8657 47.6559 402.9235 47.8857 403.8659 47.921 404.9238 48.3275 Z M 786.1328 391.9908 786.402 392.0615 787.1521 392.2559 790.4411 393.7757 793.2876 394.0938 793.3646 394.1115 793.3646 395.8788 793.0761 398.3353 792.6722 400.6504 792.7299 403.3543 792.3067 406.7121 791.2489 413.7105 791.1912 418.2524 790.268 421.2391 789.3063 425.0741 789.2871 426.2051 789.2871 426.2581 789.3832 426.806 789.6525 428.3789 789.8833 432.9914 789.9218 433.5923 789.9218 433.663 790.191 439.9368 788.5177 443.4183 786.152 448.4374 786.1328 448.4374 784.8056 450.0102 782.6515 452.131 779.7857 456.0897 778.4009 457.5918 777.92 458.0867 775.8236 459.9953 775.6505 460.0307 772.5539 460.7199 768.0725 461.5859 767.8224 461.8156 766.4761 463.0174 764.8027 464.7493 764.3796 465.1381 764.245 465.1204 760.6098 464.5549 759.6289 463.4592 759.0711 462.823 757.1863 461.9747 754.282 461.7803 753.9743 461.7626 753.6473 461.8333 751.32 462.2398 751.3393 462.4165 751.9547 466.1984 752.4356 468.8317 753.0703 469.7683 751.0315 471.8184 750.6853 473.0731 750.3391 474.3986 750.6084 475.5119 751.397 476.7137 751.1854 478.1452 749.4351 481.45 750.3199 484.5427 749.4928 487.7768 748.3773 491.8062 748.3773 492.5308 749.4159 495.4998 750.1083 495.4468 750.1083 496.6308 752.8395 496.1006 755.2052 498.9106 756.59 499.4938 756.9747 499.8296 757.4363 501.915 757.4171 505.5909 756.9939 505.3081 756.9747 506.5275 756.4362 507.3228 756.3977 507.3758 756.2246 507.6232 755.8976 507.6409 755.1283 507.4642 754.3782 506.5452 754.282 506.4392 754.1089 506.1034 753.3973 506.1918 753.378 506.1918 753.3973 506.2801 753.2819 506.4568 752.9549 506.4745 752.9741 506.5452 752.9549 506.5806 752.8587 506.7219 752.5317 506.7396 752.3971 506.7219 751.4547 506.068 751.1469 505.856 750.2237 505.3611 749.3774 505.5555 748.8774 505.8383 748.4927 506.0504 748.3388 506.015 747.6464 505.909 747.2617 505.9267 746.6463 505.856 746.1077 506.4745 745.7231 506.7926 745.5115 506.881 745.2999 507.0577 744.9345 507.2168 744.1459 507.2698 744.069 507.2875 743.9728 507.2344 743.5881 507.0577 743.492 506.9517 743.0496 506.7219 742.6265 506.3331 742.0302 506.2978 741.761 506.6689 741.4725 506.7396 741.357 506.8987 741.3378 506.934 740.7031 507.0931 740.53 507.1461 738.4528 508.1534 738.1258 508.1888 737.1641 508.4892 736.491 508.9487 736.3948 508.984 736.0678 509.2138 735.9909 509.2491 735.7216 509.3375 735.3369 509.744 735.1061 510.0974 735.01 510.2565 734.8946 510.4155 734.7407 510.8397 734.683 510.928 734.3368 511.4405 733.4136 508.8957 732.1634 506.7219 732.298 505.0077 730.7401 504.5128 730.2208 504.3538 728.259 504.7956 726.9896 504.6719 723.2967 503.8943 722.0081 503.5939 721.258 503.4171 720.2963 501.7029 718.4114 498.999 717.796 498.3804 717.3536 497.9386 716.8727 497.9386 714.6416 498.6809 714.1223 498.8929 713.5838 499.1227 711.9874 497.4261 711.4489 495.5351 711.4296 495.323 710.9488 492.407 710.8526 490.4807 710.7565 490.2863 710.1987 489.7031 708.9485 489.0492 708.7754 488.5544 708.2369 487.9359 707.506 487.3527 706.4482 486.8225 705.9481 486.3453 705.775 485.9919 705.3134 485.497 705.2941 485.4794 704.9864 485.3026 704.4671 485.1082 703.9286 484.9845 703.6016 484.9668 703.1015 485.1082 702.6399 485.3203 701.0051 486.2746 700.6973 486.3983 700.3896 486.522 700.0819 486.5397 699.9087 486.5044 699.5433 486.31 699.0625 485.9565 698.7163 484.8255 698.8509 484.1186 699.1202 483.5 699.8703 482.528 699.851 482.2099 699.6972 481.8564 699.601 481.6267 699.4279 481.609 698.9278 481.5207 698.5816 481.5737 697.9662 481.609 697.0814 481.5383 696.9275 480.9728 696.966 480.0538 696.7544 479.5767 696.0428 478.9581 695.7928 478.3749 695.3696 477.2085 695.7158 475.671 695.3889 474.9994 694.5041 474.3809 693.4847 473.2145 692.7923 472.3309 692.1769 471.0408 692.1769 470.1925 692.6 469.4149 693.6194 468.4782 693.9848 467.7536 695.0234 466.8877 695.485 465.7743 695.0042 465.2618 694.7157 464.9437 693.6578 464.2721 692.5423 463.4415 689.8688 462.4518 687.6185 461.4268 687.1377 460.8436 686.6376 460.8259 686.3106 461.7626 686.2914 462.929 686.6184 465.1381 686.6761 466.4459 685.849 467.1351 685.4451 467.3648 685.4067 467.4002 683.0409 468.814 681.9831 468.6903 681.9446 468.6903 680.2713 467.6476 678.1941 465.9687 676.8285 464.7316 676.0399 463.0704 675.8283 461.9923 676.1168 461.4798 675.7129 460.0837 675.5014 459.5358 675.3667 459.2354 674.732 458.7406 673.7127 458.4401 673.4819 458.4578 672.674 459.1647 670.8084 460.985 670.5968 461.038 670.116 461.144 669.5774 461.0734 668.7119 460.7906 667.4617 460.066 666.3462 458.7759 666.0192 457.8746 665.9808 457.0617 666.5578 455.7715 667.6156 454.1103 668.0965 452.2017 668.0965 451.2827 667.3271 449.2326 666.3462 448.1723 665.4615 447.9249 665.2307 447.8542 664.2497 447.7835 663.1534 447.7835 662.461 448.0662 661.5378 448.4374 661.4416 448.5611 660.9223 449.2503 660.8454 449.374 660.3453 451.0706 658.8067 453.4564 657.9027 455.047 656.9987 455.7715 656.8833 455.7715 655.5369 455.8246 653.9213 455.2944 651.9595 454.1103 649.2283 453.3857 648.7475 453.5094 648.5936 453.7038 648.2474 454.1103 647.8435 454.9939 647.7089 455.3121 647.4204 456.3547 646.9973 457.6802 647.1511 459.4475 646.9203 460.6492 646.4395 461.3738 646.2279 461.3031 645.824 461.1794 645.0354 461.1087 643.0159 460.3841 640.4386 459.2531 639.4 459.2531 638.5537 459.5888 638.0729 459.8363 637.7844 459.9953 637.7844 460.0307 638.1306 461.7096 638.4191 464.007 637.996 465.2618 637.2266 465.9333 637.1112 465.9333 636.3226 465.9157 635.1302 465.6506 632.2644 464.3428 630.591 463.6889 629.6101 464.2014 629.4947 464.3075 628.7061 464.926 627.5906 465.8627 627.5906 466.1984 626.6866 467.1174 626.5135 467.1174 626.2443 467.3825 625.8403 467.3825 625.4172 467.3825 624.7248 467.2411 623.3785 466.976 620.8012 465.1381 620.3203 464.6432 618.5124 462.7699 617.3199 461.3031 616.1274 458.935 615.4927 455.9659 616.9544 453.1206 617.0314 450.5581 615.5696 447.6598 614.0309 444.355 613.7424 444.0722 612.8385 443.2239 611.8576 442.3756 608.2993 442.1105 605.0873 442.358 603.5294 442.6231 600.202 443.1709 599.298 442.9058 595.0474 442.2343 592.874 441.386 590.7776 441.0502 586.6616 440.8558 582.3148 440.5377 579.6029 439.7954 577.5064 438.8058 576.9294 438.47 573.5251 436.4199 573.3905 436.3316 573.9675 436.1549 570.9478 434.3346 567.3896 433.1505 564.8315 432.6557 560.3501 432.3906 554.9839 431.5246 553.6376 431.1535 550.4256 428.5733 548.4445 427.9901 547.6175 427.7426 541.5589 427.2832 536.5967 427.0711 533.9809 426.965 533.8655 426.9474 533.7501 427.1948 533.7501 427.2301 533.6732 427.4069 533.327 428.1314 530.8651 433.557 529.1341 438.7704 528.4224 442.5347 529.3841 445.2916 529.4803 445.5567 529.5572 446.8115 528.8456 450.3637 528.8456 451.371 529.1341 453.0853 529.1918 454.5698 529.211 455.1353 528.9802 457.1677 528.9994 458.7582 529.8265 460.2074 529.8265 461.9923 529.1341 464.7493 528.307 472.6666 528.0954 477.8271 528.5186 481.3086 528.7302 483.2349 528.5763 483.3586 527.4607 484.419 527.3838 484.3483 527.2299 484.4897 527.0184 484.4367 526.2106 484.0479 525.095 483.1642 523.5371 482.528 522.5754 482.1392 521.8253 481.3263 521.4022 480.8668 520.7867 480.1952 519.8635 480.0008 518.4402 480.4073 517.6324 481.0612 516.6515 481.7327 516.613 481.7151 516.2091 481.9978 512.6701 480.3896 508.2464 479.1702 507.4194 478.9405 506.4962 478.1629 505.573 477.1025 502.1686 472.0481 497.7834 465.3855 494.0136 460.7376 491.7825 457.9983 490.5516 456.5845 489.6091 455.4888 487.1857 455.4358 484.82 454.2163 484.3776 453.9513 484.2622 453.8629 483.4351 453.3504 481.0694 450.346 480.9155 449.8512 481.0117 448.4904 480.8578 447.6068 479.5692 444.302 478.7999 441.545 476.0879 438.8764 475.4532 438.2402 473.3568 436.685 471.5488 435.2889 466.8751 432.1785 466.5096 431.9311 465.8749 431.4893 465.1056 427.8487 464.3362 423.7663 462.3744 419.8783 462.1244 419.3835 461.4512 417.9873 459.6048 415.6545 459.1047 415.0536 458.6623 414.5058 456.5659 411.9786 455.3734 411.0596 451.469 408.232 447.6607 407.0656 445.8913 406.8005 445.4489 406.7298 444.9873 406.288 444.1025 404.1142 443.7563 399.9788 443.3332 398.4767 441.7176 396.0378 441.256 394.8007 441.0636 394.5533 440.8905 394.2352 440.8713 393.7757 441.0059 393.3339 441.2175 392.9451 441.6406 391.655 441.6791 391.549 442.7177 388.7037 444.1987 387.4842 445.3912 385.8407 445.9874 385.3458 446.1605 385.3105 446.449 385.0808 448.4493 384.6566 451.2382 384.2678 451.3343 384.2678 453.0461 383.0484 453.3346 382.854 456.4505 381.5639 456.5274 381.5285 459.0855 379.938 462.1821 377.994 462.9706 377.4461 463.413 377.1634 462.8937 376.103 462.2398 374.7776 462.2205 374.7069 462.4129 374.6362 462.8168 374.4595 462.8552 374.4418 462.7975 372.6745 462.6821 372.0736 462.4706 370.9072 462.1051 369.4581 461.5281 368.9279 460.5087 368.7158 459.3932 368.8749 458.9508 369.14 458.3931 369.4758 457.3737 369.7055 456.5851 369.2637 455.9119 368.8395 454.5271 368.2563 452.7769 367.4787 451.8921 366.8602 451.0843 366.171 450.3342 365.3403 449.7957 363.8382 449.1417 363.0076 449.1994 362.6364 449.4687 361.5407 449.3148 360.9575 449.0263 360.339 448.9302 360.1799 447.5069 359.2786 445.4296 357.9355 442.1599 356.2743 440.602 355.7971 439.9096 355.585 439.775 355.8324 439.7173 355.9208 439.3903 356.4687 438.5825 358.1652 438.294 358.7661 437.9286 359.7558 435.5436 361.8765 434.5627 363.9972 434.4858 364.6158 434.7358 365.7291 435.6205 369.4758 436.0629 371.7555 436.0052 372.2857 434.9858 375.7319 434.8127 376.6685 433.8895 381.1751 433.0048 385.4519 432.5624 387.9084 431.6584 391.9731 430.6198 396.5327 429.2927 397.9995 429.0619 398.0172 428.8503 398.2646 428.2541 398.3353 426.7154 398.1762 425.446 398.0172 423.5611 398.2469 418.5988 398.6711 414.656 398.8831 414.656 399.2896 414.2136 399.3073 414.2136 399.5547 412.9826 399.59 410.54 399.6607 409.636 399.8198 409.0975 400.1732 408.4051 400.5974 407.7127 401.6401 407.1164 403.2306 406.751 404.2733 406.3855 404.3263 406.3663 404.3617 406.3086 404.5384 405.5585 404.6444 405.02 404.5384 404.8276 404.4324 404.0967 404.0612 402.9235 403.4957 401.731 402.8948 400.1923 402.2409 398.0189 401.7991 397.0957 401.4103 395.9417 400.2086 395.4032 398.7948 395.3647 398.6711 394.8262 397.9288 394.1338 396.7624 393.826 394.9951 393.5375 392.68 392.8451 388.1911 392.8259 387.9437 392.3258 387.8023 392.1527 386.4946 391.8257 385.8937 391.4795 385.6993 389.3061 384.798 388.4022 384.6743 386.6711 384.1794 385.3056 383.4549 385.2479 383.4018 384.8247 383.0307 384.3631 381.9527 383.5168 380.044 382.6898 378.0824 381.2281 376.0147 380.0933 374.4418 379.0162 371.5965 378.4007 369.8646 378.5161 369.6348 378.7085 369.3697 378.8816 369.1223 378.9777 368.9986 379.0931 368.5038 379.1316 368.2033 379.1701 367.9206 379.2278 367.7262 379.2855 367.5318 379.4009 367.0016 379.5355 366.4537 379.5547 366.2063 379.6317 365.9235 379.7086 365.5878 379.7855 365.252 379.8817 364.9339 379.9971 364.6511 380.1317 364.4921 380.2856 364.333 380.4395 364.1209 380.5741 363.9089 380.7472 363.5554 380.8242 363.3964 380.9203 363.2373 381.0357 363.0782 381.1704 362.9192 381.2665 362.6188 381.4012 362.3537 381.4396 362.1239 381.5358 361.9472 381.632 361.5761 381.7474 361.2049 381.9782 360.7985 382.1897 360.3743 382.3244 360.0739 382.4398 359.7558 382.5936 359.4907 382.7283 359.2256 382.8244 358.9782 382.9206 358.7308 382.9398 358.2359 383.8823 357.6704 384.3247 356.6454 384.4785 355.0725 384.767 354.56 385.3633 353.7294 385.9403 353.3759 386.0557 353.0225 386.1903 352.6867 386.3249 352.4216 386.3442 352.2449 386.3634 352.1919 386.4596 351.8561 386.5557 351.5026 386.6327 351.3612 386.7096 351.2022 386.7673 350.9371 387.0943 350.4069 387.4213 349.8767 387.6713 349.541 387.9213 349.2052 388.6907 348.1978 388.8253 348.2332 389.2869 347.5439 389.4408 347.3849 389.7678 347.0314 389.9986 346.8017 390.0563 346.7663 390.3448 346.3069 391.0179 345.4055 391.9604 343.6383 394.2876 340.74 394.5377 340.4218 394.8646 339.9093 395.1147 339.5559 395.4224 339.0787 395.8071 338.4425 396.1725 337.7886 396.3649 337.3645 396.7111 336.6752 397.0188 336.2157 397.2881 335.88 397.6343 335.4028 397.7497 335.1377 397.942 334.6959 398.0382 334.5368 398.1536 334.2187 398.5383 333.7239 398.7691 333.4235 399.0383 333.0877 399.3076 332.6105 399.4999 332.2217 399.7692 331.7622 399.9423 331.5501 400.3077 330.8256 400.5193 330.3131 400.577 329.5708 400.7309 329.0406 400.9617 328.5635 400.7886 327.9626 400.9424 327.3617 401.3271 325.7712 401.481 323.9509 400.6924 323.297 400.6539 323.2263 400.4231 322.7491 400.1346 321.8832 400.0769 320.328 399.9615 315.2913 399.8846 312.5697 399.8269 310.9261 399.7307 308.3989 399.9615 306.2959 399.9615 306.1545 399.5576 306.1015 400.3654 303.6803 401.5772 301.5419 404.7507 297.8306 405.9432 296.3815 406.3086 295.9397 405.2892 293.8896 404.5584 293.5185 401.5002 292.4405 401.0771 292.3874 398.5767 292.6879 398.3651 292.7232 395.7879 291.9103 389.4792 289.7896 385.921 290.7792 382.7475 291.5038 382.0166 291.009 380.4972 288.0223 380.2664 287.4391 380.1702 287.1917 379.9586 286.096 379.8625 284.152 379.7663 281.7308 379.9009 280.2993 380.728 276.2169 380.0548 274.3083 379.1124 270.9505 378.343 268.3526 377.5737 262.5206 377.5737 262.4499 377.9199 260.2762 378.0545 259.3395 378.8046 254.2144 378.8623 253.8433 379.5932 249.6372 379.7278 249.0893 379.9009 248.4178 380.3048 248.0997 380.3625 248.135 381.7089 248.9833 382.8629 248.4708 383.7669 246.8449 385.421 243.6108 386.0557 241.0659 386.0557 236.4534 386.9212 233.0779 387.2289 231.9115 387.8636 230.0735 387.9021 227.3873 388.2291 225.779 387.2482 226.2739 387.6136 223.5346 386.8635 221.9971 384.0939 219.9824 381.0357 217.3668 378.3046 214.5039 376.9005 211.6586 375.7273 208.4068 374.4963 206.9753 370.8227 205.102 367.8415 202.2567 363.4947 200.5071 360.8405 199.1286 355.0127 197.6618 350.6659 195.9829 349.0311 195.0462 345.1844 193.1729 340.4145 191.9182 337.5679 191.8828 334.3559 192.5897 330.5669 192.6958 330.2976 192.7134 330.2014 192.7134 330.1245 191.5294 329.9322 190.8401 329.5667 190.2216 328.0281 189.6561 327.3933 188.6664 326.5278 186.3513 326.6817 184.5663 324.4891 182.693 323.1043 180.0068 323.0273 179.6003 322.9889 179.2822 322.7004 179.0878 321.8926 178.3632 321.681 177.5503 321.4694 176.861 321.3348 176.3839 320.1231 174.3162 318.8537 172.1778 317.7189 171.5062 315.9686 171.5239 313.6606 170.3751 311.968 169.898 311.468 169.7566 310.6217 169.4915 309.66 167.2117 309.7946 166.8053 309.9485 166.3281 309.7946 166.1337 309.6408 165.9393 309.5446 165.8156 309.4869 165.6389 309.4484 165.3914 309.2946 164.7022 309.2561 163.7125 309.2369 163.4298 309.1599 162.8112 309.083 162.1043 307.6405 160.6198 305.5056 159.6301 305.0824 158.0749 304.6208 156.9792 303.813 156.0072 302.3513 153.7805 301.6012 152.0839 300.3702 150.6524 300.1009 150.4934 299.2354 149.9985 299.2354 146.7644 299.2547 146.6937 299.2162 146.0045 299.2162 145.4213 299.197 144.3963 299.2162 143.0178 299.2162 142.1165 299.2354 141.5333 299.3316 141.0385 299.4662 140.632 299.6201 140.0311 299.7932 139.3949 300.5433 139.0768 301.755 139.0945 301.9474 138.5996 302.0243 138.4582 302.1974 138.4759 302.3705 138.5289 302.4474 138.5996 302.4859 138.6526 302.5436 138.7587 302.5436 138.8647 302.6013 138.9354 302.7359 138.9884 302.8129 138.9884 302.909 138.9354 303.0052 138.847 303.0629 138.7587 303.1783 138.6526 303.2745 138.582 303.3899 138.582 303.4283 138.5996 303.563 138.635 303.6014 138.7057 303.6399 138.8117 303.563 139.0238 303.4668 139.1828 303.4283 139.3242 303.4283 139.4302 303.4091 139.554 303.486 139.6953 303.5822 139.7837 303.6976 139.8544 303.8322 139.8721 304.0246 139.8367 304.1592 139.7484 304.2554 139.6423 304.39 139.4656 304.5054 139.2358 304.6401 138.9884 304.7555 138.9177 304.9093 138.8117 305.1401 138.7233 305.3132 138.6173 305.3325 138.5643 305.3517 138.4759 305.3517 138.4229 305.3902 138.3876 305.4863 138.3699 305.5825 138.3876 305.6594 138.4229 305.7171 138.4759 305.7941 138.5289 305.8902 138.5466 306.0633 138.5289 306.2557 138.4759 306.448 138.4582 306.5826 138.4582 306.6596 138.4936 306.698 138.5289 306.7557 138.5996 306.8134 138.6526 306.8327 138.794 306.8711 138.9177 306.9481 138.9884 306.9866 139.0061 307.0443 138.2992 307.1789 137.6453 307.3135 136.85 307.5251 135.2595 308.2367 135.2772 308.4291 135.2595 308.2752 134.1284 308.1983 133.5806 307.9098 132.6616 307.7944 132.1137 307.7174 131.7073 307.6597 131.1064 307.6597 130.5586 307.6213 130.2935 307.5636 129.9577 308.4868 129.834 308.9868 129.7986 309.3715 129.8163 309.6985 129.94 310.0447 129.9223 310.564 129.9223 311.2179 129.7633 312.3142 129.4098 312.6604 129.3215 312.6604 128.8443 312.5258 128.1904 312.5066 127.7663 312.4489 126.918 312.4681 126.8296 312.4873 126.7059 313.199 126.4762 314.0645 125.999 314.3338 126.2994 314.5646 126.7412 315.1031 126.5292 316.1417 126.0343 316.4495 125.7339 316.5841 125.5042 317.1803 125.1684 318.1805 124.6559 318.7575 124.4791 319.0652 124.3731 319.8153 123.9666 320.4693 123.5248 321.027 123.083 321.4886 122.8886 322.1426 122.5528 322.3734 122.4114 322.4503 122.2877 322.5657 121.9519 322.585 121.7222 322.585 121.6162 322.6427 121.5455 322.7581 121.5455 322.8927 121.6515 323.2389 122.0933 323.5082 122.3231 323.5274 122.3231 323.5851 122.3231 323.6236 122.3054 323.8544 122.058 324.1621 121.7399 325.22 120.5205 325.9701 119.6898 326.3547 119.3364 327.1241 118.4174 327.4318 117.9579 328.105 116.9329 328.2973 116.4911 328.7397 115.5898 329.0282 114.9536 329.2782 114.4057 329.3744 114.0523 329.6244 113.1509 329.8745 112.4794 330.0476 111.8962 330.163 111.4544 330.4322 110.8888 330.4707 110.5354 330.6438 110.1643 330.8169 109.7755 330.9131 109.5457 330.99 108.9272 331.1054 108.503 331.1439 107.5487 331.9517 107.6371 332.1056 107.4603 332.3171 107.2306 332.5479 107.0892 332.8749 107.0715 333.1442 107.1069 333.3942 107.2659 333.5673 107.5664 333.6058 107.8845 333.5289 108.1142 333.3942 108.344 333.3557 108.5384 333.375 108.8742 333.4519 109.0332 333.702 109.2453 334.1443 109.4927 334.5482 109.6517 334.9714 109.7224 335.4714 109.7048 335.8176 109.6341 336.1254 109.4927 337.164 108.9095 337.8949 108.344 338.2411 108.0612 338.3372 108.0259 338.4142 107.9728 338.6065 108.0435 338.7219 108.2203 338.8565 108.5384 338.9335 108.6974 339.0104 108.8211 339.0873 108.8742 339.1835 108.8742 339.2989 108.8211 339.3758 108.7151 339.4913 108.45 339.549 108.2733 339.6067 108.1142 339.7798 108.0435 339.9721 108.0435 340.1067 108.0435 340.2029 108.0966 340.2414 108.1849 340.2414 108.291 340.2414 108.4677 340.2991 108.6091 340.376 108.6621 340.5683 108.7328 340.6837 108.7328 340.7799 108.7328 340.9145 108.6267 341.0492 108.5914 341.203 108.5914 341.2992 108.5914 341.3761 108.6267 341.4723 108.7151 341.5685 108.8211 341.6646 108.9625 341.7608 109.1039 341.8954 109.2983 342.0493 109.4573 342.2224 109.5634 342.3955 109.6164 342.5879 109.6517 342.8571 109.6341 343.0495 109.5811 343.2803 109.475 343.5111 109.2983 343.6842 109.1923 343.7996 109.1569 343.8765 109.1569 343.9342 109.1923 343.9919 109.2983 343.9919 109.4397 343.9342 109.8285 343.9342 110.0405 343.9342 110.3233 343.9727 110.5354 344.0688 110.7828 344.2227 111.0832 344.3766 111.1893 344.4535 111.2423 344.5304 111.2776 344.6458 111.2423 344.742 111.1363 344.7997 111.0656 344.9536 110.7121 345.1074 110.1996 345.1844 110.0582 345.2998 110.0052 345.4152 110.0052 345.5306 110.0582 345.6652 110.2349 345.8191 110.5707 345.973 110.7651 346.0884 110.8535 346.1653 110.9065 346.3192 110.9065 346.4153 110.8888 346.5692 110.8005 346.8192 110.5707 347.05 110.3587 347.1654 110.3233 347.2616 110.3233 347.3962 110.3233 347.4924 110.3587 347.6078 110.447 347.6847 110.5531 347.7232 110.7651 347.7424 111.4013 347.7809 111.6134 347.8386 111.7018 347.8963 111.7548 347.9925 111.8255 348.0694 111.8608 348.6657 112.0376 348.8003 112.1789 348.8388 112.285 348.858 112.391 348.8772 112.6561 348.8965 113.0449 348.9349 113.204 348.9926 113.3277 349.0696 113.3984 349.2042 113.5221 349.3965 113.7341 349.685 113.9639 350.3005 114.388 350.839 114.8829 350.9929 115.0242 351.0891 115.0773 351.1275 115.0773 351.493 115.0773 351.6661 115.1126 351.7815 115.148 351.8777 115.201 351.9546 115.254 352.0315 115.36 352.1662 115.5014 352.2046 115.6074 352.2431 115.8018 352.2623 116.0316 352.2816 116.2967 352.32 116.9329 352.397 117.1096 352.4739 117.2157 352.5508 117.304 352.647 117.3747 352.7624 117.4277 353.2625 117.6045 353.3779 117.6752 353.4548 117.7458 353.551 117.8342 353.7048 117.9402 353.9164 118.0286 354.0895 118.064 354.2434 118.064 354.3973 118.064 354.6473 117.9756 354.8396 117.9049 355.0704 117.8696 355.2435 117.8696 355.3974 117.8872 355.5128 117.9226 355.6282 117.9756 355.7051 118.064 355.7244 118.1523 355.7244 118.276 355.7051 118.4174 355.6859 118.6825 355.6667 118.9653 355.6859 119.036 355.7436 119.1243 355.8205 119.2127 355.9552 119.3187 356.2052 119.4424 356.3591 119.5308 356.5322 119.5838 356.6668 119.6545 356.7053 119.6545 356.8207 119.6722 356.8976 119.6368 356.9938 119.6192 357.1477 119.4954 357.34 119.3894 357.4554 119.3541 357.59 119.3541 357.7054 119.3364 357.8593 119.2834 357.9362 119.2304 358.0324 119.1597 358.1093 119.0183 358.6671 118.9299 358.8979 118.9299 359.1095 118.9653 359.3018 119.0536 359.4557 119.142 359.648 119.3717 359.7442 119.4954 359.8403 119.6722 359.8596 119.8489 359.8788 119.9903 359.7826 120.1317 359.6288 120.273 359.4941 120.4144 359.4749 120.5911 359.5134 120.7149 359.648 120.9446 359.7634 121.1037 359.8211 121.1567 359.8788 121.2274 359.898 121.245 359.9942 121.3157 360.1289 121.3864 360.302 121.4394 360.7059 121.4041 360.9751 121.3687 361.1098 121.4218 361.2444 121.4571 361.379 121.5455 361.4752 121.6338 361.5906 121.7399 361.6868 121.8813 361.7445 122.005 361.8214 122.3054 361.8406 122.4114 361.8983 122.5528 361.956 122.6235 362.0907 122.7295 362.2638 122.7826 362.4369 122.8533 362.7446 122.9239 363.1485 122.977 363.4755 123.03 363.7832 123.1183 364.014 123.2067 364.1294 123.2597 364.2448 123.3304 364.3795 123.4365 364.5141 123.5955 364.7449 123.7899 364.9565 123.9313 365.1873 124.002 365.4758 124.0903 365.7835 124.1257 366.1297 124.161 366.3605 124.1964 366.6106 124.2141 367.0337 124.3378 367.3799 124.4615 367.6876 124.6382 367.9377 124.7973 368.1877 124.8856 368.38 124.9033 368.5531 124.9033 368.7262 124.8679 368.8416 124.8326 369.3802 124.9917 369.4187 125.6279 369.5918 126.2641 369.7841 126.9356 369.861 127.2361 370.0534 128.0667 370.1303 130.6999 370.1688 131.0357 370.2457 131.2301 370.438 131.6366 370.6111 131.8133 370.9381 132.1491 371.919 133.1918 372.823 134.0224 373.8424 135.3655 374.3809 136.1255 374.8233 136.1078 375.131 135.8073 375.1503 135.7543 375.1503 135.5953 375.1118 135.4185 375.1503 135.3302 375.2272 135.2772 375.3234 135.2241 375.3811 135.2065 375.5157 135.2065 375.708 135.2241 375.9388 135.3302 376.0927 135.4716 376.1696 135.5953 376.1889 135.7367 376.1889 135.8957 376.1504 136.0371 376.1119 136.1785 375.9004 136.4966 375.8619 136.6203 375.8619 136.7263 375.9004 136.7793 376.0735 136.8324 376.2273 136.797 376.3812 136.691 376.5543 136.6203 376.7082 136.5673 377.0928 136.5849 377.1505 136.6203 377.2082 136.6733 377.2082 136.7617 377.1313 136.8854 377.0351 136.9561 376.862 137.1328 376.7082 137.3095 376.6889 137.4156 376.6889 137.4862 376.7466 137.5569 376.7851 137.663 376.862 137.6983 376.939 137.6983 377.0928 137.6453 377.2659 137.5569 377.3813 137.5746 377.516 137.5923 377.6121 137.6453 377.6698 137.7337 377.7275 137.822 377.766 137.9104 377.8045 138.0694 377.8045 138.2108 377.7852 138.4582 377.8045 138.7233 377.843 138.8824 377.9584 139.1121 378.0545 139.2535 378.1699 139.3419 378.2469 139.4126 378.42 139.4656 378.7662 139.5009 379.3047 139.5363 379.5163 139.6423 379.7086 139.7484 379.8817 139.8367 380.0933 140.0488 380.2087 140.2078 380.3241 140.4022 380.401 140.5436 380.4587 140.7027 380.4972 140.8441 380.9203 142.1165 381.2665 143.1769 381.8051 144.8734 381.8243 144.9795 381.8243 144.9618 382.0551 145.8278 382.1897 146.3403 383.4207 146.3933 384.8247 146.6584 386.5942 146.8881 387.9406 147.0825 388.9407 147.2593 390.4602 147.4183 392.0758 147.5774 392.9605 147.6127 393.7491 147.7011 395.557 147.7541 396.1148 147.8601 396.9226 147.9308 397.8266 147.9485 399.3076 147.8425 399.5576 147.6481 399.9808 146.9588 400.2693 146.3756 400.5001 145.9161 400.6732 145.1915 401.3656 145.0502 402.4234 144.7674 403.5197 144.4493 404.3852 144.2019 405.0584 143.9368 405.9624 143.7247 407.5396 143.3359 408.9244 142.9825 409.5206 142.8057 409.6937 141.7984 409.8091 141.4273 409.963 141.1092 410.3477 140.1548 410.7708 139.1298 410.9824 138.9354 411.3286 138.7764 412.271 138.3522 412.4826 138.2462 412.9442 137.9988 413.3289 137.663 413.1365 137.1151 412.8865 136.7793 412.5787 136.1608 412.1556 135.5776 412.1171 135.5246 411.8479 134.7647 411.5594 133.9517 411.4824 133.1388 411.3863 132.2021 411.367 131.6543 411.367 131.0004 411.367 130.5762 411.3478 128.809 411.4824 127.6779 411.5786 126.865 411.7325 125.2391 411.8863 123.7369 411.9633 122.7472 412.0979 121.9519 412.1941 121.4041 412.2902 120.5028 412.2518 119.1597 412.2518 118.6648 412.2518 118.1346 412.3287 117.4808 412.3287 117.4454 412.3864 116.8092 412.3479 116.0669 413.0788 116.1906 414.079 116.4911 414.656 116.8622 415.3676 117.1626 415.8869 117.2687 416.4447 117.4631 416.9255 117.7458 417.9834 118.4881 418.3296 118.8062 418.8873 118.3114 420.503 116.2967 421.1761 115.5368 421.6185 115.307 422.6187 114.9182 423.7534 113.9639 424.4266 113.6281 425.0228 113.4867 428.081 112.7621 432.5047 111.7371 433.601 111.8255 434.3511 111.8785 436.0629 112.4264 437.6208 112.8152 440.4482 112.8682 441.1021 113.0096 441.6791 113.2216 442.8139 113.8579 443.6025 113.0979 444.6988 113.0272 446.2759 113.6988 447.6992 114.8122 450.7958 116.5971 451.8921 117.4984 452.6038 117.4984 456.162 115.6958 458.0853 114.8475 458.6816 114.5294 459.3355 113.9109 460.5664 111.9315 460.778 111.26 460.855 109.7578 460.5857 105.8168 460.3933 103.7491 460.7011 102.6357 462.009 100.4796 462.1821 100.0201 461.7782 99.5076 460.3549 97.758 458.8354 92.6329 459.297 90.2295 459.2393 88.5329 459.1816 86.7126 458.4508 85.2634 457.0659 83.8143 456.5082 83.2134 456.0658 82.9836 454.7772 82.2767 454.1232 80.8099 454.0078 80.1914 454.6425 79.6789 455.0849 79.7672 455.1426 79.3077 455.4696 79.1663 455.8927 79.2547 457.5083 79.6082 459.951 80.4211 460.9127 80.8276 461.6051 80.8806 462.6437 81.0573 463.1822 81.2164 463.3745 81.3931 463.3938 81.6935 463.2399 82.0647 463.4707 82.5772 463.4515 83.6022 462.9322 84.4858 462.9706 84.5212 464.644 84.4505 468.0868 83.4431 469.4523 83.3194 470.0486 83.4431 470.3563 83.7966 470.491 84.4682 470.9333 84.8216 471.0872 85.4402 471.2603 86.1471 471.2795 86.5005 471.318 87.3841 471.3565 88.1971 471.3757 88.5152 471.3757 89.2044 471.4142 90.6359 470.7218 95.0718 470.4333 98.9421 470.3371 101.9465 469.1061 107.1952 469.1638 109.8638 469.1831 109.9168 471.5296 110.3763 475.0878 110.7121 476.7611 111.1363 478.396 111.6488 479.3961 112.4087 481.3387 114.0169 482.2619 114.5471 483.3774 114.7945 485.7432 115.1833 488.1089 115.2717 491.8787 115.0949 495.7638 114.4764 497.7641 113.9462 499.3798 113.4867 500.5722 112.7975 501.1492 111.9139 501.2839 110.288 501.1877 105.8698 501.3223 103.696 501.6108 100.2499 501.957 95.6726 502.0725 94.4532 502.2263 92.739 502.5918 89.6993 503.0918 87.7023 503.8804 85.5285 504.669 82.7539 504.7844 79.0957 504.7074 76.6745 504.8805 73.9352 505.2075 71.2313 505.8615 68.6334 506.9001 66.3536 508.2464 64.1446 510.2467 61.0165 511.5354 59.4436 511.67 59.2846 512.247 58.6307 512.7278 58.2949 513.1317 58.2949 514.3242 58.6837 518.671 60.1505 521.4791 60.8751 525.1912 60.3449 527.8839 59.9208 531.2305 59.0371 534.5387 57.8354 536.5582 56.6513 538.4816 55.6086 543.0591 53.6646 545.6941 52.781 548.733 51.915 551.3873 51.5086 551.9643 51.4909 552.4644 51.4909 553.8684 52.2685 554.3108 52.887 556.1957 54.8487 557.3497 57.7117 558.6191 59.0902 560.2539 59.479 561.985 59.8501 563.8506 60.5923 566.1586 61.529 567.8512 61.8118 568.659 61.9885 569.0821 62.0945 569.3129 62.0062 569.7938 60.0975 570.6401 58.507 571.3709 57.641 573.9482 55.75 576.9294 53.4702 578.9682 51.65 580.5838 49.9887 581.1993 48.9637 581.3724 48.6279 582.2764 46.2598 583.8343 41.7709 584.2959 39.7209 585.3537 37.5648 586.5077 35.8506 586.7001 35.126 587.2386 33.235 588.2195 31.5384 589.5466 30.16 590.893 26.4133 590.4121 24.2926 589.8736 23.0379 588.7196 21.4827 588.6427 20.8641 588.2195 20.1749 587.931 19.2206 588.1234 17.6123 589.2004 15.9158 589.5274 14.1131 589.8159 10.8967 589.4505 9.3238 589.412 9.2001 588.9119 5.9837 589.4889 4.3048 590.8545 3.3681 591.9893 3.0147 592.4509 2.7143 593.2972 2.4315 594.0858 2.4845 595.3744 2.8556 596.74 2.6259 598.144 2.3431 599.4904 1.4241 599.5096 1.3888 599.702 1.2297 600.0097 1 600.5482 1.0707 600.7598 1.1944 601.1252 1.3888 602.0869 2.6259 603.6833 4.5699 604.2603 6.1781 604.6257 8.0161 604.7411 10.9674 605.2989 11.3032 607.5492 11.2678 608.6263 11.3032 608.9725 11.8157 609.6842 12.0631 610.3189 12.9114 610.8959 13.9364 612.5884 16.6227 613.3001 17.524 614.0502 18.1425 614.6657 18.2839 614.8195 19.1322 614.8388 20.493 614.858 20.5813 614.8772 20.6167 614.858 20.652 614.858 20.8818 613.3962 23.2146 613.4539 24.434 613.8578 25.0879 614.7234 26.0245 616.5505 27.509 618.2046 28.6931 618.2046 29.188 618.974 32.2277 619.474 32.8462 619.8972 33.4824 620.378 35.8506 620.6088 36.7519 621.1089 36.7519 622.2437 37.5648 622.2821 37.6002 622.3206 37.6178 622.436 37.6532 623.917 38.3601 624.2055 38.7666 625.0133 39.2437 623.7631 43.1494 621.8398 44.5985 621.6859 44.846 621.2051 45.6766 620.6665 47.4615 619.8587 50.4129 619.3394 54.0358 620.0895 56.669 620.2819 58.7721 620.2049 59.9561 620.1472 60.1152 620.1857 60.6984 619.2625 62.9075 618.1085 65.6644 617.2237 67.8381 615.2234 71.1606 613.05 74.4124 612.3961 76.2503 611.8576 78.6362 611.4921 81.4461 610.492 84.5742 609.8957 87.4372 609.0302 90.0704 608.6648 91.1838 607.9916 92.4739 607.5108 93.1278 607.6454 94.2588 608.1262 94.8597 608.7994 95.4252 610.7228 96.9981 611.1267 97.3692 612.0499 97.2278 615.3388 94.842 618.974 92.3679 620.955 91.9614 621.532 92.1381 621.9552 92.5446 622.5899 93.1808 622.6091 93.1985 624.5517 93.5873 627.8022 93.2868 629.3216 92.898 630.7449 91.926 632.4952 90.8833 633.7838 90.742 634.5531 91.0777 636.2842 91.6433 638.6884 92.6153 641.4195 93.0217 643.7852 93.4636 645.0547 93.5519 646.2856 92.9864 646.7087 92.5446 647.1896 91.7493 647.7281 91.5549 648.5936 91.7847 648.9014 91.5903 648.5936 88.2501 648.5936 85.4048 648.6321 85.0867 648.9206 84.5388 650.3824 81.6405 650.8055 79.3077 651.7095 75.7025 652.7866 72.38 653.3251 71.302 653.6713 71.0016 655.3061 70.7895 655.7678 70.7365 656.5563 70.8072 659.5183 70.7188 662.5572 71.9559 664.4613 71.8852 665.3845 71.9559 665.8269 71.9205 669.1735 72.0973 669.2312 72.0796 671.7893 71.0369 673.1741 71.1076 675.1936 70.7188 679.2904 71.0016 679.425 71.0016 683.2333 71.0369 684.5604 70.8425 686.6953 70.9839 687.0415 71.461 688.8879 71.408 689.5803 71.3904 690.1189 72.0442 690.1381 72.0442 694.8888 77.6818 697.1776 80.103 701.7167 85.6346 703.4285 86.2354 704.3517 86.1117 705.7942 84.963 707.7753 84.1147 709.7563 83.7789 711.2181 83.885 711.3142 83.9203 712.2952 83.8143 712.9683 83.938 713.6415 84.0617 714.1608 86.094 714.5647 90.4769 714.5455 90.5476 713.5453 94.9657 712.9876 97.3692 711.0257 101.5577 710.2179 103.484 710.8911 105.1806 713.3145 108.3793 713.8915 111.8078 714.5647 115.0419 715.2187 118.1877 714.8148 119.7429 713.8915 123.136 713.1414 126.3524 712.9491 127.2007 711.3142 127.9076 709.4678 129.4805 706.679 130.4702 706.3905 130.5409 705.2172 130.7706 703.3131 131.1771 700.5627 131.6189 697.7546 130.3288 697.2161 129.5512 696.6006 129.3038 694.8503 128.1374 694.0425 126.2287 693.5617 125.6279 692.2346 124.4791 691.8691 123.5955 691.4075 122.5528 690.9267 120.0786 690.542 116.6148 690.0996 114.8652 690.0419 114.8652 687.8108 115.5014 684.6758 117.5514 680.1559 121.4394 678.521 123.7899 678.1941 125.6986 677.5786 128.4025 676.8093 131.0357 675.7899 132.2551 675.5975 134.7823 675.7706 138.4759 675.6168 139.2712 675.1552 141.498 675.0398 142.0635 673.9819 142.3462 671.4046 144.467 670.0583 145.598 665.9038 146.0222 662.9226 144.5023 659.9222 143.2299 657.3834 142.3286 657.4218 144.679 656.9602 147.1709 655.8447 149.7511 656.037 151.9425 655.133 153.8688 654.1329 155.3357 653.4213 157.6508 652.9981 159.0823 651.7479 162.4401 650.6709 164.066 649.5745 165.5328 647.9589 166.4871 646.5549 167.0173 643.5737 167.2294 641.1503 168.6962 637.4189 169.7036 632.5913 169.7566 630.0333 170.2868 628.4946 171.2941 626.8597 173.3442 625.1672 176.2425 624.0132 178.0274 621.5128 179.724 620.1664 181.1378 618.3585 182.8521 618.4162 183.2762 617.5507 185.7681 616.4351 187.2349 615.2042 188.6487 613.1847 189.2496 611.6652 190.0449 610.5881 191.1759 609.2418 193.385 608.3378 195.0462 607.28 196.5661 606.7799 197.0609 605.9721 197.3967 604.1834 197.8032 603.5679 198.0859 602.7216 198.3687 601.8176 199.4821 601.5676 200.5601 601.4522 203.6528 601.6445 204.077 601.8561 204.5895 602.6062 205.2787 603.3179 205.5615 603.414 206.2154 603.3371 206.4098 602.8178 206.7632 602.4139 207.099 602.3946 207.5585 602.3754 207.8943 603.5294 209.0783 603.9333 209.4848 604.6257 210.4391 604.4719 211.4465 604.2988 211.6232 604.4334 211.7116 604.8565 213.1961 603.0294 214.928 603.0101 214.981 602.4139 217.4729 602.1638 217.5082 597.5286 218.0914 593.4895 219.1518 590.566 220.8837 590.0082 221.2018 589.1043 221.3255 585.6038 221.4846 581.7186 218.8337 581.1608 216.2535 573.3712 214.5746 570.2746 214.7159 566.1394 213.7263 562.6389 213.7263 559.8693 213.2314 558.9461 213.4435 557.9651 210.3508 552.7336 214.7336 551.118 215.7233 547.7521 216.5362 547.5406 216.5892 547.329 217.0664 547.2136 217.1371 546.6366 217.4552 546.0788 219.0458 545.598 221.9441 545.2518 223.3225 543.3477 223.7997 540.9819 224.4536 539.2317 228.6244 538.2892 232.3179 537.9815 233.555 536.6544 236.1353 533.9232 240.7655 533.0192 242.5504 532.7884 246.3677 532.8654 247.6225 532.7692 247.9583 532.5769 248.5592 532.0383 250.3971 531.5575 251.2808 530.2881 253.7019 528.5378 256.0877 526.4414 258.3852 524.5565 260.7003 524.4218 260.7003 523.7871 260.0464 523.614 260.2231 522.8062 261.0891 522.8832 262.1495 523.7871 263.3866 524.2872 264.0758 525.672 265.9844 528.4032 268.6707 529.9996 269.9431 532.9423 271.3216 537.2121 272.5587 540.2895 272.382 540.3664 273.4953 540.9242 275.298 540.9435 275.351 541.8282 278.1786 543.0207 283.1976 543.5015 285.3714 543.5592 285.5658 543.7708 286.1667 544.4247 288.146 544.6363 289.7896 544.6363 293.6245 545.6172 298.9794 544.8479 303.645 544.4247 306.7023 544.5786 308.1515 545.021 310.2369 545.1364 310.8377 545.3479 311.7744 543.5977 313.8951 541.9244 316.1749 541.7128 316.4753 541.6166 317.8892 541.5012 319.303 541.5974 321.0879 541.6166 321.6888 541.6359 322.0776 541.4435 324.5871 542.4052 325.6298 542.5014 325.7358 542.9822 326.2307 544.9248 327.6268 547.0982 329.1997 548.0791 329.8712 549.5409 330.5251 550.5218 330.7902 553.4645 332.2394 558.4268 334.8726 561.3503 335.8623 563.1774 334.8019 564.1007 333.4235 564.293 330.3838 564.7738 326.7608 566.2548 325.1703 567.0819 323.5267 567.505 321.353 567.8512 318.2956 569.6784 316.2633 569.6591 314.6727 569.813 311.9688 570.4477 310.5196 571.5633 307.2148 572.2749 306.3489 572.4672 306.1015 579.2567 307.6743 584.2959 310.0601 585.1229 310.8554 586.0269 313.0822 587.354 315.6624 589.5274 320.8051 590.0852 322.0069 589.989 322.3073 590.9699 323.8979 590.1813 326.6195 590.2006 326.6902 590.3544 327.0259 591.8354 327.6445 593.0856 328.0686 593.9896 328.4398 594.1242 328.4398 594.4512 328.4398 595.8937 329.0583 596.1053 329.1467 598.1248 329.4824 600.9329 331.8506 602.3946 332.3101 604.068 333.4411 605.2604 333.8299 607.78 333.8123 608.3763 333.7062 609.7419 333.4235 612.5307 332.6989 615.7427 331.6385 617.1468 330.9846 619.4548 331.179 623.3592 333.6355 624.1286 335.067 626.5712 338.5662 628.4561 340.5456 630.7641 340.8813 631.745 340.4218 632.6298 337.6826 632.9375 336.7282 633.1491 334.4838 631.4758 331.7092 631.4373 331.6562 630.3602 329.3941 631.0526 327.1496 631.745 324.0569 633.6492 323.0673 634.4762 322.0069 635.034 321.4237 637.2651 321.4237 637.342 321.4237 637.9767 321.0879 637.9767 319.9745 637.2651 319.2323 637.1304 318.5607 636.9958 317.9952 636.9189 315.415 637.4766 314.2839 640.3424 311.6507 642.6505 310.2722 644.2661 311.1912 644.8239 311.1912 646.2856 310.3959 650.3439 307.1618 652.3249 305.8894 652.5173 305.7657 656.9025 310.9791 659.1529 312.3223 660.7492 312.446 662.5764 312.0572 664.9422 311.3149 666.4808 309.6713 667.3271 307.0911 669.0774 303.7333 671.02 301.9484 673.7127 299.9337 674.4628 299.3682 673.328 296.7349 671.6547 293.5715 670.6545 291.5922 670.5391 291.3801 670.5391 291.3271 670.116 289.065 669.7121 287.7925 666.2116 287.5451 666.0192 287.5098 665.2884 287.7042 664.9229 287.6865 664.2113 287.4744 663.615 287.2093 663.1342 286.9443 662.9034 286.308 662.7303 287.5805 662.0956 285.7779 660.3453 281.0593 659.826 277.3833 659.8068 277.0299 659.3644 275.5984 659.3644 272.6117 659.0759 266.8151 658.9413 262.8564 659.4221 258.4205 659.9799 253.0834 665.423 250.9096 667.0194 250.2734 667.3848 250.132 667.8849 252.3765 668.0388 252.3234 668.2119 253.5959 669.0004 255.1511 674.5782 257.8373 676.6169 258.4382 679.4827 258.774 682.9832 260.6826 683.7526 261.2835 689.6188 257.0597 689.715 257.0067 691.3691 256.1407 692.1961 256.8653 698.697 264.9771 699.4087 265.1892 705.0633 260.1524 712.9491 252.836 717.5074 249.0717 718.0652 249.6018 718.2191 250.5032 718.2576 250.9626 718.296 251.3691 718.4884 253.4191 718.4691 253.7549 718.2191 257.5722 718.6422 258.6856 718.7192 258.9507 719.1038 259.3218 719.1615 259.4279 719.4693 259.9404 719.9886 260.4882 720.354 261.2305 720.4117 261.4249 720.681 262.4676 720.7195 262.6443 722.6813 265.0301 724.0084 264.4999 727.1627 263.846 731.2787 263.581 732.1826 264.1642 734.6253 266.1435 735.4716 267.734 735.4331 268.9004 735.4139 269.6604 734.2214 272.6294 733.2405 274.485 734.5099 275.0329 735.0484 275.2626 736.2409 275.2626 737.2218 274.9975 738.7605 272.6294 739.4529 271.6397 740.7223 271.6397 742.3187 272.435 743.7035 271.6044 745.0884 271.2509 746.8578 270.9858 748.9735 270.7914 750.6469 270.8798 752.9356 270.4733 753.6088 270.0492 754.3974 269.2362 754.8398 268.5116 755.686 266.6737 756.8016 267.3452 758.398 268.2819 759.9751 269.2009 761.3599 269.1125 761.7831 269.0065 764.6681 270.3673 766.0337 271.0388 767.2454 271.516 768.1686 272.3643 768.6495 272.7177 768.6879 272.8061 768.8033 272.8061 769.5727 273.46 770.2458 274.2553 770.3612 274.3083 770.7651 274.7324 771.3806 275.2449 774.3041 278.8678 776.2467 279.7868 779.978 281.7838 780.0934 281.8368 780.6127 281.5541 781.0166 281.3243 782.613 279.5924 788.0561 282.1726 791.345 282.5791 793.8646 282.9856 797.8268 285.3007 798.0576 285.4244 798.2499 287.4744 798.4038 287.5628 799 291.981 798.9038 294.897 798.173 298.2901 798.0383 298.9617 797.7306 299.6509 796.615 302.1781 795.3456 306.7907 793.0568 309.3356 792.6722 311.7214 790.1718 313.3296 782.7861 319.6211 780.7089 321.6004 779.8819 322.3957 778.8048 323.4207 777.9777 323.2617 777.2084 323.1026 775.4197 322.6078 772.1307 321.6711 769.9573 321.3883 767.1108 321.7241 766.7261 321.7771 763.091 322.325 757.9556 322.8905 754.4551 323.0496 753.2242 323.5621 753.128 323.6858 752.3394 320.7168 750.9546 324.8169 750.1083 329.9596 749.339 331.3557 746.8194 332.8049 745.3576 334.4485 745.223 336.4985 744.7999 340.9344 744.7999 342.6309 743.9536 348.4452 744.0882 351.3082 744.1459 352.616 744.5691 357.4937 744.8768 359.7381 745.0114 360.7985 745.4923 364.4921 746.5886 367.7969 746.8578 368.1503 747.5118 369.0516 748.0119 370.6598 748.1273 371.7025 748.108 371.7202 747.3579 373.2754 747.3002 374.4064 747.7041 375.8556 748.0311 376.7923 747.9734 377.4461 748.3004 377.8173 749.2236 378.8423 750.7623 380.3445 752.2817 380.9453 753.3396 381.016 754.8205 380.4152 757.0516 380.1501 758.5903 380.8216 760.4752 380.8923 763.341 382.0234 765.0143 382.5536 766.553 384.9394 767.2454 385.9114 768.361 386.0528 769.1303 386.4416 769.8227 387.2368 770.6497 389.2515 771.3614 391.0011 771.5345 391.2132 771.9192 391.7257 772.073 391.9554 772.2269 392.1498 772.9001 393.0335 774.0926 393.5106 775.6505 394.0231 775.9005 394.1115 777.5738 393.5813 781.9206 393.1218 783.517 392.521 784.9018 391.6727 786.1328 391.9908 Z M 401.9234 220.5656 402.058 225.6023 402.1349 229.2252 402.1734 231.0985 402.7696 231.6464 403.9429 232.7244 409.1359 237.1072 410.8285 238.1323 414.0405 239.7935 416.8486 241.2073 421.3108 241.0129 426.2346 240.8008 427.4655 240.7478 431.6584 239.334 431.7931 238.0616 435.9475 238.415 440.6405 238.9275 442.1599 239.0866 443.4101 239.2103 445.1219 238.9629 445.5643 236.7008 445.5835 236.6301 445.7181 236.0292 446.2182 233.8201 447.1607 230.6214 447.4299 228.8718 448.2185 228.3416 450.0457 226.645 452.4307 224.3652 453.3154 222.651 454.9503 219.2048 455.7965 217.1901 456.2004 216.4479 456.7197 215.5112 456.7967 215.3698 456.8351 215.2991 456.7967 215.2461 456.4505 214.9103 454.4694 212.8426 452.1999 210.4038 449.6226 208.6365 446.7375 206.4628 445.0642 205.4024 444.0833 204.6955 442.1407 203.4054 441.6406 203.1757 440.679 202.6101 437.8516 201.9032 437.3131 201.7795 435.1397 201.32 432.2354 200.6485 430.3121 200.1713 427.0039 199.4467 426.1961 199.27 424.0612 200.2597 418.9066 202.6455 416.2331 203.8826 409.4244 207.0283 405.2508 214.5039 402.8466 218.9751 402.5965 219.3815 401.9234 220.5656 Z"/>
</g>
</svg>