<?xml version="1.0" encoding="UTF-8"?>
<svg width="12px" height="12px" viewBox="0 0 12 12" version="1.1" xmlns="http://www.w3.org/2000/svg" xmlns:xlink="http://www.w3.org/1999/xlink">
    <!-- Generator: sketchtool 62 (101010) - https://sketch.com -->
    <title>9542C3D0-C232-4057-B710-63F40453542F</title>
    <desc>Created with sketchtool.</desc>
    <defs>
        <path d="M7.76246591,0.0295875 C5.44663636,0.0295875 3.13039773,0.0301125 0.814568182,0.031125 L0.814568182,0.031125 C0.312136364,0.0313875 0,0.3766875 0,0.93285 L0,0.93285 C0,1.0886625 0,1.2445125 0,1.400325 L0,1.400325 L0,2.5941375 C0.000136363636,5.494425 0.00115909091,8.3949375 0.00180681818,11.2951875 L0.00180681818,11.2951875 C0.00190909091,11.7785625 0.204204545,11.9997375 0.647522727,11.999775 L0.647522727,11.999775 C2.42723864,11.999989 4.20702273,11.9998125 5.98680682,11.9998125 L5.98680682,11.9998125 C7.78353409,11.9998125 9.58032955,12.0004125 11.377125,11.9994 L11.377125,11.9994 C11.7501477,11.999175 11.9684659,11.7585 11.9686023,11.3473875 L11.9686023,11.3473875 C11.9700341,7.8684 11.9708533,4.389375 11.9708533,0.9103875 L11.9708533,0.9103875 C11.9708533,0.3860625 11.6468864,0.029775 11.170125,0.0297375 L11.170125,0.0297375 C10.5410114,0.0295875 9.91227273,0.0295875 9.28319318,0.0295875 L9.28319318,0.0295875 L7.76246591,0.0295875 Z M8.16436364,2.4302625 C9.21504545,2.4285 10.2657273,2.4277875 11.316375,2.42294642 L11.316375,2.42294642 C11.4055227,2.422575 11.4319091,2.4516 11.4310227,2.5492875 L11.4310227,2.5492875 C11.4261477,3.1022625 11.4268636,3.6553125 11.4256705,4.208325 L11.4256705,4.208325 C11.4260455,4.415775 11.4263523,4.62315 11.4266932,4.8306375 L11.4266932,4.8306375 C11.4266932,5.4216375 11.4266591,6.0127125 11.4266591,6.60375 L11.4266591,6.60375 C11.4263182,6.8111625 11.4259773,7.0186125 11.4257045,7.226025 L11.4257045,7.226025 C11.4260795,7.8167625 11.4264886,8.4075 11.4269318,8.9983125 L11.4269318,8.9983125 C11.4268977,9.205275 11.4268295,9.412275 11.4267955,9.6193125 L11.4267955,9.6193125 C11.4276818,10.1611875 11.4245455,10.7031375 11.432425,11.2448625 L11.432425,11.2448625 C11.4342614,11.3776875 11.3989773,11.4099375 11.2810227,11.4092365 L11.2810227,11.4092365 C10.2448295,11.4031875 9.20863636,11.40435 8.17240909,11.4033375 L8.17240909,11.4033375 C7.98381818,11.4029625 7.79522727,11.40255 7.60663636,11.402175 L7.60663636,11.402175 C6.52547727,11.4025875 5.44435227,11.403 4.36315909,11.4034125 L4.36315909,11.4034125 C4.17497727,11.40345 3.98676136,11.40345 3.79854545,11.403525 L3.79854545,11.403525 C2.75665909,11.404425 1.71473864,11.4037125 0.672852273,11.4085875 L0.672852273,11.4085875 C0.569659091,11.409075 0.537579545,11.38065 0.538901794,11.26365 L0.538901794,11.26365 C0.545352273,10.7155875 0.543136364,10.1674125 0.544022727,9.6193125 L0.544022727,9.6193125 C0.543988636,9.412275 0.543954545,9.205275 0.543920455,8.998275 L0.543920455,8.998275 C0.544329545,8.4075 0.544772727,7.8168 0.545147727,7.2260625 L0.545147727,7.2260625 C0.544772727,7.0186125 0.544465909,6.8111625 0.544090909,6.6037125 L0.544090909,6.6037125 C0.544159091,6.012675 0.544159091,5.4216375 0.544159091,4.8306 L0.544159091,4.8306 L0.545147727,4.208325 C0.543954545,3.655275 0.544670455,3.1021875 0.539727273,2.549175 L0.539727273,2.549175 C0.538901794,2.4513 0.565568182,2.42265 0.654613636,2.4230625 L0.654613636,2.4230625 C1.70532955,2.427825 2.75604545,2.428425 3.80672727,2.43015 L3.80672727,2.43015 C3.98952273,2.4301125 4.17228409,2.430075 4.35514773,2.430075 L4.35514773,2.430075 C5.44131818,2.430375 6.52759091,2.430675 7.61379545,2.430975 L7.61379545,2.430975 C7.79730682,2.4307125 7.98081818,2.4304875 8.16436364,2.4302625 L8.16436364,2.4302625 Z" id="path-1"></path>
        <linearGradient x1="0%" y1="50.0000127%" x2="99.9999191%" y2="50.0000127%" id="linearGradient-3">
            <stop stop-color="#F9893B" offset="0%"></stop>
            <stop stop-color="#D11D3B" offset="100%"></stop>
        </linearGradient>
    </defs>
    <g id="Page-1" stroke="none" stroke-width="1" fill="none" fill-rule="evenodd">
        <g id="Download_option" transform="translate(-1028.000000, -171.000000)">
            <g id="Group-6" transform="translate(1028.000000, 171.000000)">
                <g id="Group-3">
                    <mask id="mask-2" fill="white">
                        <use xlink:href="#path-1"></use>
                    </mask>
                    <g id="Clip-2"></g>
                    <path d="M7.76246591,0.0295875 C5.44663636,0.0295875 3.13039773,0.0301125 0.814568182,0.031125 L0.814568182,0.031125 C0.312136364,0.0313875 0,0.3766875 0,0.93285 L0,0.93285 C0,1.0886625 0,1.2445125 0,1.400325 L0,1.400325 L0,2.5941375 C0.000136363636,5.494425 0.00115909091,8.3949375 0.00180681818,11.2951875 L0.00180681818,11.2951875 C0.00190909091,11.7785625 0.204204545,11.9997375 0.647522727,11.999775 L0.647522727,11.999775 C2.42723864,11.999989 4.20702273,11.9998125 5.98680682,11.9998125 L5.98680682,11.9998125 C7.78353409,11.9998125 9.58032955,12.0004125 11.377125,11.9994 L11.377125,11.9994 C11.7501477,11.999175 11.9684659,11.7585 11.9686023,11.3473875 L11.9686023,11.3473875 C11.9700341,7.8684 11.9708533,4.389375 11.9708533,0.9103875 L11.9708533,0.9103875 C11.9708533,0.3860625 11.6468864,0.029775 11.170125,0.0297375 L11.170125,0.0297375 C10.5410114,0.0295875 9.91227273,0.0295875 9.28319318,0.0295875 L9.28319318,0.0295875 L7.76246591,0.0295875 Z M8.16436364,2.4302625 C9.21504545,2.4285 10.2657273,2.4277875 11.316375,2.42294642 L11.316375,2.42294642 C11.4055227,2.422575 11.4319091,2.4516 11.4310227,2.5492875 L11.4310227,2.5492875 C11.4261477,3.1022625 11.4268636,3.6553125 11.4256705,4.208325 L11.4256705,4.208325 C11.4260455,4.415775 11.4263523,4.62315 11.4266932,4.8306375 L11.4266932,4.8306375 C11.4266932,5.4216375 11.4266591,6.0127125 11.4266591,6.60375 L11.4266591,6.60375 C11.4263182,6.8111625 11.4259773,7.0186125 11.4257045,7.226025 L11.4257045,7.226025 C11.4260795,7.8167625 11.4264886,8.4075 11.4269318,8.9983125 L11.4269318,8.9983125 C11.4268977,9.205275 11.4268295,9.412275 11.4267955,9.6193125 L11.4267955,9.6193125 C11.4276818,10.1611875 11.4245455,10.7031375 11.432425,11.2448625 L11.432425,11.2448625 C11.4342614,11.3776875 11.3989773,11.4099375 11.2810227,11.4092365 L11.2810227,11.4092365 C10.2448295,11.4031875 9.20863636,11.40435 8.17240909,11.4033375 L8.17240909,11.4033375 C7.98381818,11.4029625 7.79522727,11.40255 7.60663636,11.402175 L7.60663636,11.402175 C6.52547727,11.4025875 5.44435227,11.403 4.36315909,11.4034125 L4.36315909,11.4034125 C4.17497727,11.40345 3.98676136,11.40345 3.79854545,11.403525 L3.79854545,11.403525 C2.75665909,11.404425 1.71473864,11.4037125 0.672852273,11.4085875 L0.672852273,11.4085875 C0.569659091,11.409075 0.537579545,11.38065 0.538901794,11.26365 L0.538901794,11.26365 C0.545352273,10.7155875 0.543136364,10.1674125 0.544022727,9.6193125 L0.544022727,9.6193125 C0.543988636,9.412275 0.543954545,9.205275 0.543920455,8.998275 L0.543920455,8.998275 C0.544329545,8.4075 0.544772727,7.8168 0.545147727,7.2260625 L0.545147727,7.2260625 C0.544772727,7.0186125 0.544465909,6.8111625 0.544090909,6.6037125 L0.544090909,6.6037125 C0.544159091,6.012675 0.544159091,5.4216375 0.544159091,4.8306 L0.544159091,4.8306 L0.545147727,4.208325 C0.543954545,3.655275 0.544670455,3.1021875 0.539727273,2.549175 L0.539727273,2.549175 C0.538901794,2.4513 0.565568182,2.42265 0.654613636,2.4230625 L0.654613636,2.4230625 C1.70532955,2.427825 2.75604545,2.428425 3.80672727,2.43015 L3.80672727,2.43015 C3.98952273,2.4301125 4.17228409,2.430075 4.35514773,2.430075 L4.35514773,2.430075 C5.44131818,2.430375 6.52759091,2.430675 7.61379545,2.430975 L7.61379545,2.430975 C7.79730682,2.4307125 7.98081818,2.4304875 8.16436364,2.4302625 L8.16436364,2.4302625 Z" id="Fill-1" fill="url(#linearGradient-3)" mask="url(#mask-2)"></path>
                </g>
                <path d="M6.50795968,6.7979364 C6.00460477,6.7979364 5.50121541,6.80071963 4.99792942,6.79567974 C4.89138688,6.79462663 4.84579963,6.8189234 4.84745359,6.94879456 C4.85372485,7.44191382 4.8530357,7.93525874 4.84762588,8.42845322 C4.84621312,8.55539072 4.8783275,8.60199088 5.00092722,8.60143177 C6.00188263,8.59695099 7.0028725,8.59747755 8.00386237,8.60127627 C8.11240344,8.60168999 8.15420037,8.57272944 8.15268424,8.44579194 C8.14679201,7.94635402 8.14648189,7.44680326 8.15282207,6.94744056 C8.15447603,6.81583929 8.10561532,6.79473946 8.00079565,6.79571735 C7.50322961,6.80045635 7.00556018,6.79782357 6.50795968,6.7979364 M6.49145454,6.19518076 L6.49145454,6.19762549 C6.99494728,6.19762549 7.49844002,6.1949551 8.00186384,6.19980693 C8.10809626,6.20078482 8.15437265,6.17641282 8.15275315,6.04650405 C8.14658526,5.54695329 8.14651635,5.04725209 8.15278761,4.54777656 C8.15444157,4.41704034 8.10747602,4.39594051 8.00172601,4.39627901 C7.00049493,4.39917506 5.99926386,4.39823479 4.99806725,4.39394087 C4.8919382,4.39349579 4.84555843,4.4172284 4.84717793,4.54713717 C4.85334582,5.04665031 4.85341474,5.54638912 4.84714347,6.04586466 C4.84548952,6.17656326 4.89238615,6.19852815 4.99823954,6.19743743 C5.49594341,6.19228471 5.99371621,6.19518076 6.49145454,6.19518076 M1,9.21053863 C1,9.0028877 1,8.79523676 1,8.58773627 C2.06418489,8.59070755 3.12833533,8.59243766 4.19252022,8.59826738 C4.2948934,8.59883155 4.29892493,8.54072238 4.29864927,8.45718811 C4.29699531,7.95741169 4.2932739,7.45759765 4.30078563,6.95797167 C4.30292199,6.81937474 4.25602536,6.79334785 4.14231567,6.79500274 C3.72458761,6.80120857 3.30675617,6.79601824 2.88899365,6.79789879 C2.25973111,6.80075724 1.63046856,6.80594757 1.00124047,6.81016001 C1.00086144,6.60209536 1.00051686,6.39406831 1.00017229,6.18607887 C2.06439164,6.18972715 3.12857653,6.19269843 4.19279588,6.19773832 C4.27632082,6.19815204 4.30057889,6.15726876 4.30033768,6.07286944 C4.29875264,5.55436268 4.29775337,5.03581831 4.30144032,4.51734917 C4.30216393,4.41200045 4.25757595,4.39225462 4.17580834,4.39496262 C4.04428413,4.39936312 3.91258763,4.39639184 3.78092559,4.3969184 C2.85401931,4.40045384 1.92714748,4.40406451 1.00020674,4.40759995 C1.00055132,4.1995729 1.00089589,3.99154586 1.00124047,3.78359403 C1.01247361,3.78630203 1.02360338,3.79115387 1.0347676,3.79119148 C2.08527287,3.79299681 3.1358126,3.79310964 4.18628342,3.7980367 C4.29758108,3.79856326 4.30130249,3.7350757 4.300889,3.64522276 C4.29858035,3.09685279 4.29861481,2.5484452 4.29785674,2 C4.48265222,2 4.66737879,2 4.85213981,2 C4.85134729,2.54893414 4.85145066,3.09786829 4.84876298,3.64680243 C4.84828057,3.73853592 4.8550687,3.79841281 4.96509144,3.79799909 C5.98803072,3.79442603 7.01103892,3.79491498 8.03397821,3.79751014 C8.12487705,3.7976982 8.15209846,3.76193003 8.15137485,3.66636021 C8.1472055,3.11122023 8.14723996,2.55604264 8.14586166,2.00090267 C8.33138074,2.00063939 8.51686537,2.00041372 8.70238446,2.00015044 C8.70231554,2.54415753 8.70610587,3.08823984 8.69928328,3.6321341 C8.69759487,3.76606726 8.73629062,3.80025576 8.85465207,3.79890176 C9.41599892,3.79247026 9.97741469,3.79683314 10.538796,3.7946517 C11.0254735,3.79280876 11.512082,3.78735514 11.9987251,3.78351881 C11.9990696,3.99154586 11.9994487,4.1995729 11.9997933,4.40752473 C10.9355394,4.40391406 9.87135455,4.40094279 8.80716966,4.3959029 C8.72361027,4.39552679 8.6993522,4.43637245 8.6995934,4.52077178 C8.70117845,5.03927854 8.70217771,5.55778529 8.69849076,6.07629205 C8.69776716,6.18160315 8.74235514,6.20142421 8.8241572,6.19864099 C8.95564695,6.1942781 9.08734345,6.19721176 9.21900549,6.19672282 C10.1459118,6.19322499 11.0728181,6.18961432 11.9997243,6.18600365 C11.9993798,6.39406831 11.9990352,6.60209536 11.9987251,6.81000957 C11.981772,6.80688785 11.9648534,6.80128379 11.9479692,6.80124618 C10.9060094,6.79974174 9.86401511,6.80041874 8.82208975,6.79515318 C8.70148856,6.79451379 8.69835293,6.8612359 8.69880088,6.95861106 C8.70104062,7.45229449 8.70427962,7.94605313 8.69697463,8.43958611 C8.69494164,8.57976272 8.74555968,8.60357055 8.85799445,8.60101299 C9.16700915,8.59409255 9.47626506,8.5996966 9.78538314,8.59845544 C10.5236002,8.59544655 11.2617829,8.59134694 12,8.58766105 C12,8.79523676 12,9.0028877 11.9998277,9.2104258 C11.6970843,9.2070408 11.3943408,9.2016248 11.0915974,9.2009478 C10.342664,9.19914247 9.59373062,9.1995938 8.84476278,9.19869113 C8.76868065,9.1985783 8.69680235,9.18785913 8.6984563,9.31615063 C8.70555455,9.87730838 8.7069673,10.4386166 8.71048197,10.9998496 C8.51986317,10.9994358 8.32924438,10.9990221 8.13872896,10.998646 C8.14255374,10.4368112 8.14513805,9.8750141 8.15109919,9.31325457 C8.152064,9.21994141 8.1138162,9.19560702 8.03676927,9.19801413 C7.90527951,9.20218897 7.77358301,9.20004513 7.64198989,9.20012036 C6.76084314,9.2006093 5.8796964,9.2009478 4.99848074,9.20147436 C4.92577545,9.20154958 4.84879743,9.18120197 4.85038248,9.31453335 C4.85713614,9.87629288 4.85758409,10.43809 4.86030623,10.9998872 C4.67006647,11 4.47986117,11 4.28972478,11 C4.29320498,10.4577982 4.29261921,9.91552127 4.30268079,9.37346996 C4.30533402,9.2303973 4.26002243,9.19500524 4.13552754,9.19635924 C3.5300062,9.20271552 2.92434703,9.19861591 2.31875677,9.20057169 C1.87918267,9.2019633 1.43960856,9.20707841 1,9.21053863" id="Fill-4" fill="#FA8A3B"></path>
            </g>
        </g>
    </g>
</svg>