<?xml version="1.0" encoding="UTF-8"?>
<svg width="12px" height="13px" viewBox="0 0 12 13" version="1.1" xmlns="http://www.w3.org/2000/svg" xmlns:xlink="http://www.w3.org/1999/xlink">
    <!-- Generator: Sketch 52.6 (67491) - http://www.bohemiancoding.com/sketch -->
    <title>download</title>
    <desc>Created with Sketch.</desc>
    <g id="Page-1" stroke="none" stroke-width="1" fill="none" fill-rule="evenodd">
        <g id="Rev1.3-IPad-Map-View-Landing-Page-Copy-7" transform="translate(-920.000000, -92.000000)" fill="#3B3B3B">
            <g id="Group-10" transform="translate(831.000000, 92.000000)">
                <g id="download" transform="translate(89.000000, 0.000000)">
                    <path d="M9.164,5.8344 C9.0992,5.6912 8.9568,5.6 8.8,5.6 L7.2,5.6 L7.2,0.4 C7.2,0.1792 7.0208,0 6.8,0 L5.2,0 C4.9792,0 4.8,0.1792 4.8,0.4 L4.8,5.6 L3.2,5.6 C3.0432,5.6 2.9008,5.692 2.836,5.8344 C2.7704,5.9776 2.796,6.1448 2.8992,6.2632 L5.6992,9.4632 C5.7752,9.5504 5.8848,9.6 6,9.6 C6.1152,9.6 6.2248,9.5496 6.3008,9.4632 L9.1008,6.2632 C9.2048,6.1456 9.2288,5.9776 9.164,5.8344 Z" id="Path"></path>
                    <path d="M10.4,8.8 L10.4,11.2 L1.6,11.2 L1.6,8.8 L0,8.8 L0,12 C0,12.4424 0.3584,12.8 0.8,12.8 L11.2,12.8 C11.6424,12.8 12,12.4424 12,12 L12,8.8 L10.4,8.8 Z" id="Path"></path>
                </g>
            </g>
        </g>
    </g>
</svg>