<?xml version="1.0" encoding="UTF-8"?>
<svg width="40px" height="40px" viewBox="0 0 40 40" version="1.1" xmlns="http://www.w3.org/2000/svg" xmlns:xlink="http://www.w3.org/1999/xlink">
    <!-- Generator: sketchtool 57.1 (101010) - https://sketch.com -->
    <title>F702BC3D-D9A5-435C-8817-7148F1A6D157@1x</title>
    <desc>Created with sketchtool.</desc>
    <g id="Page-1" stroke="none" stroke-width="1" fill="none" fill-rule="evenodd">
        <g id="Home_3_Matrix-View" transform="translate(-1173.000000, -62.000000)">
            <g id="Heat-Map-icon-active" transform="translate(1173.000000, 62.000000)">
                <rect id="Rectangle" stroke-opacity="0.15310861" stroke="#979797" fill="#5EA7F7" x="0.5" y="0.5" width="39" height="39" rx="19.5"></rect>
                <path d="M12,25.5 C13.3807119,25.5 14.5,26.6192881 14.5,28 C14.5,29.3807119 13.3807119,30.5 12,30.5 C10.6192881,30.5 9.5,29.3807119 9.5,28 C9.5,26.6192881 10.6192881,25.5 12,25.5 Z M20,25.5 C21.3807119,25.5 22.5,26.6192881 22.5,28 C22.5,29.3807119 21.3807119,30.5 20,30.5 C18.6192881,30.5 17.5,29.3807119 17.5,28 C17.5,26.6192881 18.6192881,25.5 20,25.5 Z M28,25.5 C29.3807119,25.5 30.5,26.6192881 30.5,28 C30.5,29.3807119 29.3807119,30.5 28,30.5 C26.6192881,30.5 25.5,29.3807119 25.5,28 C25.5,26.6192881 26.6192881,25.5 28,25.5 Z M12,17.5 C13.3807119,17.5 14.5,18.6192881 14.5,20 C14.5,21.3807119 13.3807119,22.5 12,22.5 C10.6192881,22.5 9.5,21.3807119 9.5,20 C9.5,18.6192881 10.6192881,17.5 12,17.5 Z M20,17.5 C21.3807119,17.5 22.5,18.6192881 22.5,20 C22.5,21.3807119 21.3807119,22.5 20,22.5 C18.6192881,22.5 17.5,21.3807119 17.5,20 C17.5,18.6192881 18.6192881,17.5 20,17.5 Z M28,17.5 C29.3807119,17.5 30.5,18.6192881 30.5,20 C30.5,21.3807119 29.3807119,22.5 28,22.5 C26.6192881,22.5 25.5,21.3807119 25.5,20 C25.5,18.6192881 26.6192881,17.5 28,17.5 Z M12,9.5 C13.3807119,9.5 14.5,10.6192881 14.5,12 C14.5,13.3807119 13.3807119,14.5 12,14.5 C10.6192881,14.5 9.5,13.3807119 9.5,12 C9.5,10.6192881 10.6192881,9.5 12,9.5 Z M20,9.5 C21.3807119,9.5 22.5,10.6192881 22.5,12 C22.5,13.3807119 21.3807119,14.5 20,14.5 C18.6192881,14.5 17.5,13.3807119 17.5,12 C17.5,10.6192881 18.6192881,9.5 20,9.5 Z M28,9.5 C29.3807119,9.5 30.5,10.6192881 30.5,12 C30.5,13.3807119 29.3807119,14.5 28,14.5 C26.6192881,14.5 25.5,13.3807119 25.5,12 C25.5,10.6192881 26.6192881,9.5 28,9.5 Z" id="Combined-Shape" fill="#FFFFFF"></path>
            </g>
        </g>
    </g>
</svg>