<?xml version="1.0" encoding="UTF-8"?>
<svg width="9px" height="13px" viewBox="0 0 9 13" version="1.1" xmlns="http://www.w3.org/2000/svg" xmlns:xlink="http://www.w3.org/1999/xlink">
    <!-- Generator: sketchtool 57.1 (101010) - https://sketch.com -->
    <title>4B412FBA-6443-4BB1-9E43-A53B2EF94D05@1x</title>
    <desc>Created with sketchtool.</desc>
    <g id="Page-1" stroke="none" stroke-width="1" fill="none" fill-rule="evenodd">
        <g id="Home_2A_Ranking-State" transform="translate(-97.000000, -162.000000)" fill="#0D72E8">
            <g id="BG-2" transform="translate(40.000000, 36.000000)">
                <g id="Ranking-Section">
                    <g id="Rank-Card-Container">
                        <g id="Rankings" transform="translate(21.000000, 116.000000)">
                            <g id="Distric-heading" transform="translate(4.000000, 0.000000)">
                                <path d="M36.7603362,10 C37.2527027,10 37.6518446,10.3991419 37.6518446,10.8915084 L37.6509635,19.7 L39.5004507,17.8513484 C39.8250989,17.5263266 40.3527301,17.5263266 40.6771293,17.8513484 C40.8397647,18.0139838 40.9207088,18.2269292 40.9207088,18.439999 C40.9207088,18.6530689 40.8397647,18.8660142 40.6771293,19.0286496 L37.3484575,22.3573214 C37.0245565,22.6810979 36.4974234,22.6810979 36.1724016,22.3566987 L32.8437298,19.028027 C32.518708,18.7028807 32.518708,18.1763702 32.8437298,17.8513484 C33.1682535,17.5263266 33.6958847,17.5263266 34.0202839,17.8513484 L35.8679635,19.699 L35.8688277,10.8915084 C35.8688277,10.3991419 36.2679696,10 36.7603362,10 Z" id="Sort-top-first"></path>
                            </g>
                        </g>
                    </g>
                </g>
            </g>
        </g>
    </g>
</svg>