<?xml version="1.0" encoding="UTF-8"?>
<svg width="13px" height="17px" viewBox="0 0 13 17" version="1.1" xmlns="http://www.w3.org/2000/svg" xmlns:xlink="http://www.w3.org/1999/xlink">
    <!-- Generator: sketchtool 57.1 (101010) - https://sketch.com -->
    <title>205402BF-25F4-48F4-AEB0-33E3FFF19E0E@1x</title>
    <desc>Created with sketchtool.</desc>
    <g id="Page-1" stroke="none" stroke-width="1" fill="none" fill-rule="evenodd">
        <g id="State-Profile-_2_" transform="translate(-93.000000, -1030.000000)" fill="#59A600" fill-rule="nonzero">
            <g id="Total-container" transform="translate(40.000000, 36.000000)">
                <g id="profile-container-">
                    <g id="Indicator-Section" transform="translate(19.000000, 444.000000)">
                        <g id="Indicator-Cards" transform="translate(0.000000, 68.500000)">
                            <g id="indicator-card" transform="translate(0.000000, 240.000000)">
                                <g id="Group-2" transform="translate(0.000000, 217.500000)">
                                    <path d="M40.7986904,24.3701226 C41.3059577,24.3701226 41.7171792,24.7813441 41.7171792,25.2886114 L41.7171792,37.4675478 L45.3592438,33.1420235 C45.6859675,32.7539877 46.2653946,32.7042844 46.6534304,33.0310082 C47.0414662,33.3577319 47.0911695,33.937159 46.7644457,34.3251948 L42.0416546,39.9342518 C41.8089644,40.210608 41.4661254,40.3701226 41.1048533,40.3701226 C40.9535266,40.3701226 40.8086104,40.3426757 40.6748114,40.2924883 C40.5410125,40.3426757 40.3960963,40.3701226 40.2447696,40.3701226 C39.8834975,40.3701226 39.5406585,40.210608 39.3079683,39.9342518 L34.5851771,34.3251948 C34.2584534,33.937159 34.3081566,33.3577319 34.6961924,33.0310082 C35.0842282,32.7042844 35.6636553,32.7539877 35.9903791,33.1420235 L39.6324437,37.4675478 L39.6324437,25.2886114 C39.6324437,24.7813441 40.0436651,24.3701226 40.5509325,24.3701226 C40.5929439,24.3701226 40.6342966,24.3729432 40.6748114,24.3784053 C40.7153263,24.3729432 40.7566789,24.3701226 40.7986904,24.3701226 Z" id="Up-small" transform="translate(40.674811, 32.370123) scale(1, -1) translate(-40.674811, -32.370123) "></path>
                                </g>
                            </g>
                        </g>
                    </g>
                </g>
            </g>
        </g>
    </g>
</svg>