<?xml version="1.0" encoding="UTF-8"?>
<svg width="134px" height="78px" viewBox="0 0 134 78" version="1.1" xmlns="http://www.w3.org/2000/svg" xmlns:xlink="http://www.w3.org/1999/xlink">
    <!-- Generator: Sketch 50.2 (55047) - http://www.bohemiancoding.com/sketch -->
    <title>Alligarh</title>
    <desc>Created with Sketch.</desc>
    <defs></defs>
    <g id="Page-1" stroke="none" stroke-width="1" fill="none" fill-rule="evenodd">
        <polyline id="Alligarh" fill="#F4DDB5" fill-rule="nonzero" points="30.843495 9.34764278 30.843495 6.76906861 32.1352682 5.80116903 32.7805307 4.19049444 32.7805307 3.86786125 33.7502966 2.57857417 34.7188144 3.54771943 35.6873322 4.83451514 36.9791053 4.83451514 38.5941337 4.51312764 39.8859068 3.54771943 40.8544246 2.57857417 41.4996872 1.28928708 42.4694531 0 44.4064887 0.322633193 45.0529993 1.61192028 45.0529993 3.22384055 44.4064887 4.83451514 49.5748292 7.41308931 51.1898576 8.38098888 51.8351202 9.66903028 52.803638 10.9583174 54.4186664 9.99166347 55.7104395 10.6356842 56.6789573 11.9262169 58.2939857 13.215504 59.9090141 14.1821579 60.877532 13.215504 62.1693051 13.8595247 63.7843335 13.8595247 65.7213691 11.9262169 66.6898869 9.99166347 67.0131422 9.66903028 67.6584047 8.70237639 68.9514259 9.34764278 70.5652063 8.70237639 71.5349722 10.6356842 72.50349 11.2809506 73.7952631 12.5702376 75.0882843 13.215504 76.0568021 14.8261786 76.0568021 16.1154657 76.3800574 18.0500192 77.3485752 18.3714067 77.6718305 18.3714067 78.9636036 17.4047528 79.9321214 15.7928325 81.8691571 15.7928325 82.5156677 14.5035454 83.4841855 12.8928708 85.0992139 12.8928708 87.0362495 12.5702376 88.3280226 11.6048294 89.6197958 10.9583174 90.5883136 9.99166347 91.8800867 10.3142967 93.1718598 11.2809506 92.8498526 9.66903028 94.1416257 8.70237639 95.755406 8.38098888 97.6936897 7.41308931 99.6307254 7.41308931 101.245754 7.0917018 102.214272 8.38098888 102.537527 9.66903028 103.8293 11.2809506 104.152555 13.5368915 105.122321 14.5035454 106.73735 14.5035454 107.705867 13.5368915 109.319648 14.1821579 111.581187 14.5035454 113.194967 14.1821579 114.487988 12.5702376 116.425024 12.2488501 117.716797 12.5702376 119.00857 13.5368915 121.592116 17.4047528 127.081216 21.272614 129.0195 20.9499808 131.926301 19.9833269 132.248309 20.6273476 132.571564 21.9178804 133.218074 23.5298007 133.218074 25.4643542 131.926301 26.7536412 130.311273 26.7536412 129.664762 28.3643158 129.664762 30.2988693 129.988018 31.9095439 129.342755 33.5214642 128.696244 34.8095056 128.374237 36.744059 127.081216 37.7107129 125.467436 38.0333461 124.175663 39.6452664 123.529152 41.2571867 123.529152 42.8678612 122.237379 43.8370065 121.914124 45.4464354 122.560634 47.0583557 122.883889 48.9916635 122.560634 50.6035837 121.268861 51.2476044 119.330577 51.2476044 119.00857 51.5702376 117.393542 50.9262169 115.456506 50.6035837 113.841478 50.9262169 112.549705 49.9595631 112.226449 49.313051 111.581187 48.3463971 110.289414 47.7023764 109.319648 48.9916635 109.642903 50.6035837 109.966158 51.8941165 108.35113 52.2142583 107.059357 52.2142583 105.767584 52.8595247 104.799066 53.8274243 104.152555 55.7607321 104.152555 58.9845726 102.214272 59.6285933 101.245754 60.5964929 99.9539807 63.1750671 98.9842148 64.141721 97.3704344 63.8190878 95.755406 64.4631085 95.4321507 66.0750287 93.4951151 66.3964163 92.203342 66.7215408 90.5883136 68.0095822 88.9745332 68.3309697 88.0060154 66.7215408 87.3595048 65.4297624 86.390987 63.8190878 85.0992139 63.1750671 84.4527033 61.5631468 84.7759586 60.2738597 84.1306961 58.3405519 82.838923 56.7286317 81.5459018 56.0833653 78.9636036 54.1500575 77.3485752 55.1167114 75.7335468 55.1167114 75.0882843 53.5047911 73.4720078 53.1809122 68.9514259 53.1809122 67.6584047 52.5368915 66.6898869 51.2476044 65.3981138 52.5368915 65.3981138 54.1500575 65.7213691 56.0833653 64.429596 57.373898 63.1378229 58.3405519 62.8145676 59.9512265 62.4925604 61.2405136 61.8460498 62.8524339 62.8145676 64.141721 62.4925604 65.7523956 63.1378229 67.0429283 64.1063407 68.6536029 63.4610782 69.94289 61.8460498 69.94289 61.8460498 70.2655232 61.2007873 71.2321771 59.9090141 72.198831 58.617241 72.8440974 58.2939857 74.4547719 58.617241 76.0666922 57.3254679 77.0333461 55.3871842 76.0666922 53.4501486 76.3893254 52.4816308 77.3559793 50.8666023 78 50.543347 78 50.2213398 77.0333461 48.6063114 77.6786125 46.991283 76.7119586 46.3447724 75.4214258 46.3447724 73.4881181 45.3750065 72.198831 44.0832334 70.9095439 45.0529993 69.6202568 45.3750065 68.3309697 43.4379709 68.0095822 42.4694531 66.7215408 42.4694531 65.4297624 40.5311693 65.4297624 38.9161409 64.4631085 39.2393962 62.5298007 39.8859068 61.2405136 38.5941337 58.6631851 39.8859068 58.0179187 41.1776799 57.0500192 42.7914603 56.0833653 43.1147156 54.4726907 41.8229425 52.2142583 41.4996872 49.6369299 41.1776799 48.3463971 39.2393962 47.3797432 38.5941337 47.3797432 38.2708784 45.4464354 39.5626515 42.8678612 38.5941337 41.9012074 36.9791053 42.2238406 36.65585 40.6119203 35.3640769 39.3226332 35.3640769 37.7107129 33.7502966 37.3893254 33.103786 35.7786508 31.8120128 35.4560176 29.8749772 34.4881181 27.9366935 33.8428517 25.9996579 33.8428517 23.7381189 32.2321771 22.7696011 30.94289 21.1545726 29.9762361 20.1860548 30.94289 19.5407923 32.2321771 18.5722745 33.5214642 17.2792533 34.1654849 14.0491965 33.5214642 12.7574234 33.8428517 11.7889055 34.8095056 9.85062183 34.8095056 8.2368415 33.5214642 8.2368415 33.198831 6.94506839 32.8761978 5.65329528 33.5214642 4.03826686 34.1654849 1.77797593 34.1654849 0.809458122 33.5214642 1.77797593 32.5548103 3.06974905 30.94289 5.00678467 29.6536029 6.94506839 29.3322154 8.55884871 28.3643158 7.9135862 27.0750287 6.94506839 25.7869874 5.65329528 24.8190878 5.65329528 23.2071675 5.97655058 21.5952472 4.68477746 19.0166731 3.39175626 18.0500192 2.42323845 16.7607321 2.09998315 15.1488118 1.45472063 13.8595247 0.486202821 12.2488501 1.13146533 10.6356842 3.06974905 10.9583174 4.68477746 11.2809506 6.29855779 11.2809506 6.29855779 10.6356842 6.94506839 10.6356842 8.2368415 11.9262169 10.1738771 11.6048294 11.7889055 10.6356842 13.0806787 9.66903028 14.0491965 8.38098888 15.9887283 7.7357225 16.6339908 9.34764278 17.6025086 10.3142967 18.8942817 9.34764278 19.217537 8.05835569 20.8325654 7.7357225 22.4463458 8.05835569 23.0928564 9.66903028 23.7381189 11.6048294 24.7078848 13.215504 26.3216651 12.8928708 27.9366935 13.215504 29.5517219 13.215504 30.1969844 12.2488501 30.843495 9.66903028 30.843495 9.34764278"></polyline>
    </g>
</svg>