<?xml version="1.0" encoding="UTF-8"?>
<svg width="74px" height="78px" viewBox="0 0 74 78" version="1.1" xmlns="http://www.w3.org/2000/svg" xmlns:xlink="http://www.w3.org/1999/xlink">
    <!-- Generator: Sketch 50.2 (55047) - http://www.bohemiancoding.com/sketch -->
    <title>Auraiya</title>
    <desc>Created with Sketch.</desc>
    <defs></defs>
    <g id="Page-1" stroke="none" stroke-width="1" fill="none" fill-rule="evenodd">
        <polyline id="Auraiya" fill="#F4DDB5" fill-rule="nonzero" points="23.7857612 2.03414437 25.825141 1.35653314 27.5244053 1.35653314 28.882241 0.677611238 30.5815053 1.35653314 31.9406541 1.69730475 33.6399185 1.01707219 34.6589518 0 36.0181006 1.01707219 36.6983316 2.71306627 37.037134 4.06828875 37.3772495 5.0866716 37.3772495 5.42613254 39.4166293 5.76559349 41.1158937 6.44582605 42.4750425 7.46027692 45.8735712 7.46027692 46.8926045 8.47734911 47.9116378 9.8351929 49.2707866 10.1720325 50.970051 9.49442129 52.6693153 9.15496034 54.0284641 8.81681006 55.7264153 7.79973787 57.4256796 7.46027692 59.4637463 6.10374378 61.1630106 6.78266568 62.182044 8.13788816 63.2023905 9.15496034 64.5615393 9.8351929 65.2404571 11.5298763 66.9397215 12.5469485 68.2988703 13.5640207 68.9777881 14.5837142 69.9968214 15.937626 70.3382501 17.2941592 72.0375145 18.312542 72.7164323 19.6703858 73.0565478 21.3663799 72.7164323 22.0439911 72.7164323 23.0610633 71.3572835 24.7557467 69.6567059 25.4346686 67.6186393 26.7912018 65.9193749 27.1293521 65.2404571 28.4871959 66.2594904 29.504268 67.9587548 29.8450397 68.9777881 31.2002621 68.9777881 34.250168 69.3179036 36.625084 69.6567059 37.9816172 68.9777881 40.0170722 67.6186393 40.6946834 65.9193749 41.0341444 65.5805726 41.3722947 64.5615393 42.7288278 63.5411928 44.4248219 62.5221595 45.4418941 60.8228951 46.120816 59.124944 47.1378882 59.4637463 49.5128041 59.8038618 50.191726 60.1439773 51.5469485 60.4827796 53.5824035 60.4827796 56.6349308 59.124944 57.652003 57.4256796 58.3309249 56.0665308 59.687458 56.0665308 61.3821414 55.0474975 62.7399852 53.6883486 63.7583681 52.6693153 65.1122799 52.3291998 66.468813 53.3482331 68.504268 53.6883486 69.8594905 52.3291998 71.2173343 50.28982 71.8949456 49.2707866 73.250168 48.5918688 74.6080118 47.23272 75.2869337 46.2123735 77.6605391 44.8532246 78 42.815158 76.9816172 42.815158 75.9632343 43.1552735 75.2869337 43.1552735 73.250168 41.7961247 71.8949456 40.7770913 71.2173343 39.7554316 71.2173343 38.7363983 70.879184 37.3772495 70.1989515 35.6779851 69.5213402 34.6589518 69.1818793 33.299803 70.5384124 31.6005386 71.5554846 29.9012743 71.8949456 28.882241 72.5738675 27.5244053 72.9120177 25.4850255 73.250168 23.4456456 73.9304006 22.08781 71.8949456 21.407579 71.2173343 20.727348 70.1989515 19.0293968 69.8594905 18.350479 69.1818793 16.990017 68.8424183 15.9709837 68.1661178 14.2717193 68.1661178 13.252686 68.504268 12.5737682 68.8424183 11.2146193 69.8594905 9.51535501 70.879184 8.15489299 70.5384124 7.13585966 70.5384124 5.43659533 70.1989515 3.05841317 69.1818793 2.03806665 68.8424183 0.68023101 68.1661178 3.05841317 68.1661178 3.39852867 66.1293521 2.03806665 65.4530515 1.69926434 63.7583681 3.05841317 62.4005243 3.39852867 61.0439911 1.35914883 60.3650692 0 60.3650692 0.340115505 58.6690751 2.03806665 57.312542 3.39852867 56.6349308 4.417562 55.2783976 5.77671083 53.5824035 7.47597517 52.9047923 8.15489299 50.5298763 9.17523951 49.1746539 10.5343883 48.8325716 11.5534217 47.4773491 12.9125705 47.1378882 13.5928015 45.781355 14.9519503 44.7642828 15.9709837 43.4077497 16.990017 42.7288278 19.0293968 42.3893669 19.3695123 40.6946834 19.0293968 38.6592284 19.3695123 37.9816172 19.7083147 34.9304006 19.3695123 34.250168 19.0293968 33.2344065 19.3695123 31.5384124 19.7083147 31.5384124 20.727348 30.8608012 21.407579 30.1818793 22.4266123 28.8266568 22.7667278 26.7912018 22.4266123 26.1135905 21.7476945 24.4189071 20.727348 23.3992136 20.3885457 22.0439911 20.727348 21.0269189 21.407579 20.347997 22.08781 18.312542 21.7476945 17.9730811 21.0674635 16.9560089 22.08781 16.2783976 23.1068433 15.2600148 22.7667278 14.2442533 22.08781 13.5640207 22.4266123 12.2074876 23.1068433 11.5298763 23.1068433 9.8351929 23.7857612 8.13788816 23.4456456 6.44582605 22.7667278 5.0866716 24.4659922 3.39198817 24.1258767 2.37360532 23.7857612 2.03414437"></polyline>
    </g>
</svg>