<?xml version="1.0" encoding="UTF-8"?>
<svg width="50px" height="78px" viewBox="0 0 50 78" version="1.1" xmlns="http://www.w3.org/2000/svg" xmlns:xlink="http://www.w3.org/1999/xlink">
    <!-- Generator: Sketch 50.2 (55047) - http://www.bohemiancoding.com/sketch -->
    <title>Baghpat</title>
    <desc>Created with Sketch.</desc>
    <defs></defs>
    <g id="Page-1" stroke="none" stroke-width="1" fill="none" fill-rule="evenodd">
        <polyline id="Baghpat" fill="#F4DDB5" fill-rule="nonzero" points="0.741481205 1.47867976 3.70454316 0 4.81533354 2.21873397 5.92612391 4.06601216 9.63066707 4.80606638 11.4829387 4.43603927 12.9644696 3.69598505 14.4445692 3.69598505 16.2968408 4.80606638 17.7783717 5.91471903 19.6320747 6.28474614 21.4843463 6.28474614 22.9658773 5.91471903 24.8167175 6.65477324 26.2982484 7.02337168 27.7797794 8.13202432 29.2613104 7.39339878 31.113582 8.50205143 32.9658536 8.50205143 35.5581749 8.13202432 37.0397059 8.13202432 39.6320272 9.24210565 42.5950892 10.7193567 43.7058796 11.8308667 45.5581512 12.5680636 47.4104227 12.5680636 50.0027441 15.155396 49.6320035 15.5254231 48.1504725 16.2654773 46.6689415 16.2654773 45.5581512 17.7427284 45.9288918 19.9628911 45.5581512 21.4415708 44.0766202 23.288849 44.0766202 26.9862627 42.5950892 28.0949154 41.4842988 29.9421936 41.4842988 31.422302 42.2243486 33.6396073 41.8550394 35.1182871 42.2243486 36.9669939 42.5950892 38.4456737 44.0766202 40.2929519 44.0766202 40.662979 44.4473608 42.1416587 43.7058796 43.9903656 46.6689415 46.9477251 47.4104227 48.796432 46.2982009 50.2736831 44.4473608 51.3823357 43.3365704 52.492417 43.7058796 54.3396952 44.0766202 55.8198036 42.5950892 56.9284563 41.8550394 57.6685105 41.4842988 58.4071361 40.7428176 60.2558429 38.8919775 61.3644956 37.0397059 61.3644956 35.9289155 63.5832295 37.0397059 65.4305077 37.0397059 67.2792146 34.8181251 67.647813 33.7059033 68.7578944 34.0766439 70.6051725 34.4473845 72.0838523 35.5581749 73.5639607 36.2982247 75.781266 35.5581749 77.2585171 33.3351627 78 32.9658536 78 32.595113 76.1498645 31.113582 75.0426405 30.0027916 73.9325592 28.15052 73.1925049 27.4104702 74.6726134 26.2982484 76.1498645 25.5581987 74.6726134 24.0766677 75.781266 22.2243961 76.1498645 21.4843463 74.6726134 21.8536555 73.1925049 21.4843463 71.3452268 20.373556 70.2365741 18.5212844 69.4965199 16.6675814 69.866547 15.556791 71.3452268 14.4445692 72.0838523 12.9644696 71.3452268 8.88918587 71.3452268 6.29686452 70.6051725 5.92612391 68.3878672 5.92612391 68.0192688 6.29686452 67.647813 8.1491361 67.647813 9.99997625 68.3878672 11.1121981 67.2792146 10.3707168 65.8019635 8.88918587 65.0604806 7.40765489 63.5832295 7.40765489 62.1045498 7.77839549 60.6244414 7.77839549 60.2558429 8.1491361 58.7771632 7.77839549 57.2984834 7.77839549 55.0811781 7.40765489 52.492417 7.77839549 50.2736831 7.03834572 48.4264049 7.03834572 46.9477251 8.5198767 45.8376438 8.5198767 43.9903656 7.03834572 42.1416587 5.55681474 40.662979 4.07528376 39.555755 3.33380256 37.7056195 3.33380256 35.8583413 2.96449339 34.0096344 1.85227158 32.1609275 0.370740602 30.6822478 1.11222181 28.8349696 1.48296241 27.3562898 0.741481205 25.1375559 0.370740602 23.6588761 0.370740602 21.4415708 1.11222181 19.2242655 1.48296241 17.7427284 1.48296241 15.8954502 0.370740602 14.4167705 0 12.5680636 0 9.24210565 1.48296241 5.54469192 1.85227158 4.06601216 0.741481205 2.21873397 0.741481205 1.47867976"></polyline>
    </g>
</svg>