<?xml version="1.0" encoding="UTF-8"?>
<svg width="121px" height="87px" viewBox="0 0 121 87" version="1.1" xmlns="http://www.w3.org/2000/svg" xmlns:xlink="http://www.w3.org/1999/xlink">
    <!-- Generator: Sketch 50.2 (55047) - http://www.bohemiancoding.com/sketch -->
    <title>Ballia</title>
    <desc>Created with Sketch.</desc>
    <defs></defs>
    <g id="Page-1" stroke="none" stroke-width="1" fill="none" fill-rule="evenodd">
        <polyline id="Ballia" fill="#F4DDB5" fill-rule="nonzero" points="17.9793818 1.69295317 18.3175766 1.35410088 18.6583932 0.677704593 20.0124834 0 21.0323112 0.337543986 22.0508283 1.0178652 22.727218 2.70820175 23.4062293 3.38459803 24.4234355 3.72475864 25.1024469 4.40115492 26.4578479 6.43165208 27.1368593 7.10935667 27.8145598 8.12460525 28.4935712 9.48001444 29.5107774 10.1551024 30.8674893 10.4939547 37.3128538 10.4939547 38.6695657 10.8341153 39.6880827 11.507895 41.0447946 12.5270685 42.06069 13.2008481 43.4174019 13.5410088 44.7741137 13.5410088 46.4703313 12.8633042 47.4888483 12.5270685 47.4888483 12.1882162 49.8614556 12.8633042 51.2194783 13.5410088 52.2366845 14.217405 53.5933964 14.8951096 54.6106026 15.9103582 55.9686253 16.5880628 56.9845207 17.2644591 59.0202439 19.9739691 59.6992553 20.990526 60.7164615 22.0044663 61.394162 24.0349635 61.0533455 25.7279166 61.7323568 26.0654606 62.412679 26.0654606 63.7693909 25.7279166 64.7852863 26.7431652 66.1419982 27.4208698 67.5000209 27.7610304 70.5529503 29.7902193 71.910973 30.4666155 73.6071906 31.1443201 76.3193035 31.1443201 77.6760154 32.4971127 79.7104278 32.8372733 81.0671397 32.160877 82.7633572 32.160877 84.1200691 32.8372733 85.476781 33.8525219 87.1703769 34.5289182 89.207411 35.5441667 91.2431342 37.5759722 91.5813291 37.9161328 92.2577187 38.5912208 92.9393518 39.9453217 94.2947528 40.6217179 96.3317869 40.6217179 97.6884988 40.9605702 99.7229112 41.2994225 103.793047 43.331228 105.489264 43.6674637 107.524988 44.0076243 108.540883 44.6853289 109.558089 45.6992692 109.558089 47.05337 110.23579 48.4074709 111.593812 48.7450149 114.986248 49.4253361 116.341649 50.1004241 117.358855 51.116981 118.376061 52.4710818 119.393267 53.4876387 120.75129 54.5028873 120.75129 56.5320762 119.393267 56.8709284 118.718188 58.2250293 119.393267 59.2415862 120.413095 60.5969954 119.055072 60.5969954 117.021971 60.2581431 115.324442 60.5969954 114.646742 63.3051971 113.628225 65.334386 112.272824 66.6884869 110.916112 66.0120906 109.219894 66.0120906 108.201377 67.0260309 106.845976 68.0425877 105.489264 68.38144 104.132552 68.0425877 102.436335 67.7037355 101.079623 67.3674998 99.3847163 67.0260309 97.6884988 66.3483263 96.3317869 66.0120906 94.6355693 65.334386 92.5985353 65.334386 91.5813291 64.3191374 90.2246172 63.3051971 89.207411 62.6261842 88.1915156 61.2733917 86.1544815 60.9332311 85.1359645 61.6109357 84.1200691 62.9650365 83.4410578 64.3191374 83.1015521 65.6732383 83.4410578 68.0425877 82.4238516 69.0591446 81.0671397 70.0730849 79.3709221 70.4132455 78.0142102 70.7507895 76.3193035 71.0883335 74.9625916 71.7673464 71.5701565 71.7673464 70.2147555 71.4284941 69.5357441 70.0730849 68.1764106 68.7216006 66.4828147 68.0425877 65.124792 67.3674998 64.1075858 66.6884869 62.749563 65.6732383 60.7164615 65.6732383 59.0202439 65.334386 57.3253372 65.334386 55.2883031 64.9955337 53.9315912 65.6732383 52.5761902 66.6884869 51.5576731 68.0425877 50.5404669 70.0730849 50.2009613 71.4284941 50.5404669 73.1214473 50.8812835 74.8130921 50.8812835 76.8435893 48.1665489 78.1976902 46.8085261 79.2103221 45.7926308 80.2294956 44.4372297 81.2434359 43.079207 81.9224488 40.3644724 83.952946 39.3472662 84.9695028 37.3128538 85.9847514 33.9217295 86.6611477 33.9217295 87 33.5822238 86.6611477 33.2427182 85.3083551 33.2427182 84.2931066 33.5822238 83.2765497 33.9217295 81.9224488 33.5822238 81.2434359 33.9217295 79.8906433 31.8846955 77.8588379 31.5465006 76.8435893 31.8846955 75.829649 33.5822238 74.4742398 34.2612352 73.4589912 33.5822238 72.4437427 33.9217295 71.0883335 34.2612352 70.0730849 35.2771306 69.3966886 35.2771306 68.0425877 34.9389357 67.0260309 34.9389357 66.0120906 35.6153254 65.334386 32.562396 61.9510963 31.2069949 62.6261842 28.831766 62.6261842 27.1368593 60.9332311 27.1368593 59.5804385 26.4578479 58.2250293 25.1024469 58.5638816 24.0839298 58.9040422 23.0667236 58.5638816 19.6742885 58.5638816 18.3175766 57.8874853 17.9793818 56.8709284 17.6398761 55.8556799 16.9634864 54.5028873 14.9264524 55.1792836 13.910557 54.5028873 13.2302348 53.1487864 12.2143394 52.8099341 11.5327064 51.7946856 10.5181219 50.7781287 9.83911051 49.7615718 9.49960483 48.7450149 9.49960483 48.4074709 9.83911051 47.3922223 10.1773054 46.3782821 10.1773054 43.6674637 10.5181219 41.9784354 11.8748337 41.6382748 13.2302348 42.9923757 14.5869467 42.6535234 15.6054637 41.9784354 15.9436586 40.6217179 15.265958 39.6064694 14.5869467 39.2702337 13.2302348 38.2523685 13.2302348 36.8995759 13.910557 35.883019 14.247441 34.8690788 14.9264524 34.1900659 14.9264524 33.1748173 13.2302348 32.4971127 11.8748337 32.4971127 11.8748337 30.1277632 11.1958224 28.7749707 9.83911051 29.1125147 8.14289295 29.4526753 6.44667539 28.4361184 5.08996351 28.7749707 4.07275731 29.1125147 2.03703407 30.1277632 1.0211387 30.1277632 0 29.7902193 0.340816511 28.4361184 0.340816511 25.7279166 0.68032219 24.7126681 0.68032219 22.6808626 1.0211387 20.6503654 1.35802271 19.6351168 3.05424027 18.61856 4.41095215 19.2975729 5.7702857 19.6351168 6.78618107 19.2975729 7.46519243 17.9421637 7.12699758 16.9256068 7.80469811 15.9103582 8.14289295 14.8951096 8.82321514 13.879861 10.1773054 13.5410088 11.1958224 14.5562573 12.2143394 15.9103582 13.2302348 15.5715059 13.5697405 14.217405 14.247441 12.5270685 14.9264524 11.8480556 15.6054637 10.8341153 15.6054637 9.13985383 13.5697405 7.78575295 12.8907291 6.77181269 12.8907291 5.7552558 13.2302348 5.07624289 14.247441 4.06361094 14.5869467 2.70820175 14.9264524 2.03180547 16.2831642 1.69295317 17.3003704 2.03180547 17.9793818 1.69295317"></polyline>
    </g>
</svg>