<?xml version="1.0" encoding="UTF-8"?>
<svg width="111px" height="78px" viewBox="0 0 111 78" version="1.1" xmlns="http://www.w3.org/2000/svg" xmlns:xlink="http://www.w3.org/1999/xlink">
    <!-- Generator: Sketch 50.2 (55047) - http://www.bohemiancoding.com/sketch -->
    <title>Budaun</title>
    <desc>Created with Sketch.</desc>
    <defs></defs>
    <g id="Page-1" stroke="none" stroke-width="1" fill="none" fill-rule="evenodd">
        <polyline id="Budaun" fill="#F4DDB5" fill-rule="nonzero" points="0 4.85991548 0.730157739 4.85991548 1.94771459 3.88793238 2.4351137 2.91594929 3.40803007 2.18813586 4.62652784 2.18813586 5.59944421 2.91594929 7.06070061 2.18813586 8.76471565 0.486461105 10.2250311 0.243230553 11.4435289 0.486461105 12.1736866 1.21615276 12.9047853 0.971983096 13.8786426 1.70073564 14.3651008 1.94396619 15.3389581 1.4584442 16.5565149 1.21615276 17.0429731 1.4584442 17.5303722 2.4304273 16.8002145 3.40241039 17.0429731 3.88793238 17.7731309 4.13116294 19.2343873 5.10220692 19.7217864 5.34637658 19.964545 5.58866802 20.4519441 6.31742057 20.6947027 6.56065112 20.9384023 7.29128189 20.4519441 8.50461731 20.2082445 8.9901393 19.964545 9.71983096 20.4519441 9.96306151 21.4248605 10.205353 21.4248605 10.9341055 22.3996587 11.9060886 22.6424173 12.3925497 23.6162746 12.3925497 24.1036737 12.1493191 24.5901319 12.3925497 24.8338315 12.8780717 25.8076888 12.6357802 26.5378465 12.6357802 27.0252456 13.1213022 27.2680042 13.6068242 29.2166598 13.3654719 29.9468175 13.1213022 30.6769752 13.8500548 30.4332757 14.3365159 30.6769752 14.8220379 31.6508325 14.3365159 32.1372907 14.5788073 34.0859462 14.5788073 34.5733453 14.3365159 35.3035031 13.6068242 35.7899613 13.6068242 36.2773604 13.8500548 37.9813754 12.1493191 38.225075 11.662858 38.225075 11.4205666 38.7115331 10.9341055 39.6863314 10.4485835 40.1727895 10.6918141 40.9029473 10.4485835 41.8768046 9.96306151 41.8768046 10.205353 43.0943614 10.205353 43.0943614 10.4485835 43.3371201 10.4485835 43.8245192 9.96306151 44.0682187 9.23336985 44.5546769 8.26232587 44.0682187 7.53263422 44.0682187 7.29128189 44.5546769 7.04711222 45.042076 7.29128189 45.5285342 7.77586477 45.5285342 8.01909532 46.0159333 8.01909532 46.5023915 7.77586477 46.9897906 7.04711222 46.9897906 6.07512913 47.962707 5.10220692 48.2064065 4.61668493 48.2064065 4.13116294 48.4501061 3.40241039 48.6938056 3.15917984 49.6676629 3.40241039 49.9113625 3.15917984 50.3978207 2.91594929 50.6415202 2.4304273 51.1279784 2.4304273 52.1018357 1.94396619 52.3455353 2.18813586 52.5892348 1.94396619 53.075693 0.971983096 54.0495503 0.971983096 54.780649 0.243230553 55.2671071 0 55.2671071 0.243230553 55.7545063 0.728752543 56.2419054 0.971983096 56.9720631 0.486461105 56.9720631 0.243230553 57.7031618 0 57.7031618 0.243230553 57.2157627 0.728752543 57.7031618 0.971983096 58.4333195 0.728752543 58.4333195 0.971983096 58.9197777 1.21615276 59.6499354 1.94396619 60.8674923 2.91594929 61.59765 3.88793238 62.0850491 5.10220692 62.8152069 5.34637658 63.0589064 5.58866802 64.0327637 5.83189858 65.2503206 5.83189858 66.4669365 5.58866802 67.4407938 6.07512913 67.9281929 7.29128189 69.3885084 8.01909532 70.6060652 8.74784786 71.5799225 9.96306151 72.0663807 11.177336 71.8226811 12.6357802 71.8226811 14.0932853 72.5537798 15.0652684 73.5276371 14.5788073 73.7703957 16.0372515 73.5276371 17.4956957 73.5276371 19.9270621 74.5014944 21.1403976 75.7181103 21.6259195 75.9618099 22.8420723 75.2316521 23.8131163 74.744253 25.0283299 75.4753517 26.0012522 76.449209 26.9722961 77.1793667 27.4578181 77.6667658 27.7010487 78.3978645 28.6730318 78.8843227 29.6450149 80.1018795 28.9153232 81.3194364 29.8882454 81.562195 28.9153232 85.2139246 29.6450149 86.1877819 30.3737674 87.1625801 30.8602285 89.1093538 30.8602285 90.3269107 30.6179371 91.300768 31.3457505 94.9524976 31.3457505 95.1961971 31.8312725 95.4389558 32.560025 96.9002122 32.3177336 98.3614686 32.3177336 99.5780845 32.8032556 100.796582 32.3177336 101.77044 32.0763813 102.501538 32.8032556 102.744297 32.8032556 103.718154 34.0184692 104.935711 34.2616998 106.396026 34.5049303 108.100042 34.5049303 108.587441 35.4759743 108.587441 36.6921271 107.857283 38.1505713 109.07484 38.3919236 109.804997 39.3639067 110.047756 40.337768 109.561298 41.308812 108.100042 41.7962122 107.126184 43.2537173 107.857283 44.4679919 109.07484 45.1967444 110.047756 45.9254969 110.291456 45.9254969 109.804997 46.89748 108.83114 47.3839411 107.857283 48.5982157 108.100042 49.8143684 107.369884 50.7854124 107.126184 52.0006261 107.613583 53.2149006 108.587441 54.4301143 108.83114 55.4030365 108.100042 56.1308499 106.883426 56.6163719 105.909568 57.5892941 105.909568 59.0467992 106.639726 60.0197214 107.126184 60.9926436 107.857283 61.7195179 108.100042 62.691501 106.152327 64.1508843 105.665869 65.1219283 104.448312 65.6083894 103.231696 65.1219283 102.501538 66.0948505 102.501538 67.0668336 101.77044 68.0378776 100.796582 67.3091251 99.822725 66.822664 99.0916263 67.5532947 97.8740695 68.0378776 96.6565126 68.2811082 96.1700544 69.7386132 96.1700544 70.9538269 96.413754 72.411332 96.6565126 73.6274847 95.9263549 74.5985287 94.708798 75.0849898 94.4660394 76.2992644 94.4660394 77.514478 94.9524976 78 92.5183248 78 91.300768 77.514478 90.0832111 77.2712475 88.6228956 77.2712475 87.1625801 75.8137424 85.9450233 75.0849898 84.4837669 74.8417593 83.5099096 74.3562373 83.0234514 74.3562373 83.267151 74.1120676 83.9973087 72.8977931 83.7536092 71.92581 83.0234514 70.9538269 81.562195 69.9818438 80.5892786 69.4953827 80.8320373 68.2811082 81.3194364 67.3091251 80.3455791 66.0948505 79.1280222 65.8506809 77.6667658 64.8796369 77.9095245 63.6644232 76.6929085 63.6644232 75.9618099 64.6364063 74.744253 64.8796369 73.5276371 64.8796369 73.040238 63.9076538 72.7974794 62.4492096 71.336223 62.691501 70.3623657 63.1779621 67.9281929 63.1779621 66.9543356 62.4492096 66.710636 60.9926436 66.4669365 60.0197214 65.7367787 58.8035686 64.2764633 59.0467992 63.302606 60.0197214 62.8152069 60.9926436 61.59765 61.7195179 60.1373345 61.2339959 58.9197777 60.7484739 57.4594622 59.2900297 57.4594622 57.3451244 56.2419054 56.6163719 55.2671071 55.1588668 53.5630921 54.1868837 52.3455353 54.6733448 51.371678 55.1588668 49.9113625 53.9455314 49.1802638 52.4861481 48.2064065 52.4861481 47.2325492 52.0006261 46.9897906 52.0006261 45.5285342 52.2429175 44.7983765 53.2149006 43.5808196 52.9716701 43.3371201 51.7573955 42.8506619 50.543121 41.3903464 50.7854124 40.1727895 50.543121 39.1989322 49.3288465 37.9813754 48.1126937 37.4949172 46.89748 36.2773604 46.1687275 34.5733453 45.6822664 33.3557885 45.1967444 32.8683894 44.2247613 30.9206748 43.4960088 29.2166598 43.9824699 28.9729602 43.9824699 26.7815461 44.7112224 25.3202896 44.9535139 21.1821018 42.0375646 19.2343873 39.1206762 18.26053 38.3919236 17.7731309 37.9064016 16.5565149 36.9344185 16.0691158 35.9624354 15.8263572 34.9904523 14.851559 33.7761778 14.1214012 33.0464861 13.1484849 31.5899202 11.6872285 29.6450149 10.7124302 28.9153232 10.2250311 27.4578181 9.49487339 26.485835 8.52101609 25.7570825 7.79085835 24.7850994 7.5471588 23.3275943 7.79085835 22.3546721 7.30345924 21.3836281 5.84314377 20.411645 4.62652784 19.440601 3.89542918 18.2253874 3.40803007 17.0092346 2.4351137 17.0092346 1.70401503 15.3075599 1.94771459 14.3365159 1.94771459 12.8780717 1.70401503 11.177336 0.730157739 10.4485835 0.243699555 9.23336985 0 8.01909532 0.243699555 6.80388167 0.243699555 5.34637658 0 4.85991548"></polyline>
    </g>
</svg>