<?xml version="1.0" encoding="UTF-8"?>
<svg width="91px" height="78px" viewBox="0 0 91 78" version="1.1" xmlns="http://www.w3.org/2000/svg" xmlns:xlink="http://www.w3.org/1999/xlink">
    <!-- Generator: Sketch 50.2 (55047) - http://www.bohemiancoding.com/sketch -->
    <title>Bulandshahr</title>
    <desc>Created with Sketch.</desc>
    <defs></defs>
    <g id="Page-1" stroke="none" stroke-width="1" fill="none" fill-rule="evenodd">
        <polyline id="Bulandshahr" fill="#F4DDB5" fill-rule="nonzero" points="38.7881565 0.572983418 39.9374434 0.285937567 41.3743297 0.86002927 42.2360173 1.43412097 43.6729036 1.43412097 44.8221905 2.00599611 45.3962788 3.44122537 46.5455657 4.01420878 48.8441396 4.5871922 50.5686252 4.30125464 51.4314232 5.16128391 51.7190226 6.59429659 53.1547984 7.45432586 54.3051958 7.74248 56.028571 8.02841757 56.8902586 8.88844684 58.6147442 8.60250927 60.05052 8.60250927 60.9122076 9.46253854 61.4874063 9.74958439 61.199807 10.3225678 61.7750056 11.4696429 62.3490939 14.3378849 62.6366932 16.0590517 62.062605 17.2050185 62.062605 18.6391395 62.9242926 20.0732605 63.2107815 21.7944273 63.4983808 23.22744 65.2228664 24.3745151 66.6586423 23.8015317 68.0955286 24.3745151 68.9572162 24.9474985 68.9572162 26.6686654 70.6817018 27.2416488 71.25579 28.6757698 70.1065031 30.110999 69.2448155 31.8299493 69.5324149 33.2640702 69.8200142 33.8370537 69.8200142 35.5571122 69.5324149 36.9912332 69.8200142 38.4253542 70.3941025 39.8594751 71.5433894 40.7195044 71.8309887 42.7277171 71.8309887 44.4477756 71.5433894 45.5948507 72.405077 47.6030634 73.5543639 47.6030634 74.1295626 49.0360761 74.9912502 50.4713054 76.4281365 51.6172722 78.1526221 52.7643473 78.7278208 53.9103142 78.4402214 55.0584976 78.7278208 56.7785561 79.5895084 57.9256312 80.7387953 58.7856605 81.6004829 59.9327356 82.1756816 61.6527942 83.3249685 62.5128234 85.0483437 64.8091902 86.1976306 66.5281405 87.0593182 67.3881698 88.2086052 68.8222907 88.4962045 69.9704741 89.0702928 71.116441 90.507179 72.2646244 91.0823777 72.8376078 89.9319804 72.5516702 88.2086052 72.8376078 87.0593182 74.2717288 85.6235424 74.5576663 83.6114574 74.2717288 82.1756816 73.6976371 81.3128836 74.5576663 79.8771077 74.5576663 79.0143097 73.6976371 78.7278208 71.691641 77.5785338 70.2564117 77.2898241 69.1104449 76.4281365 67.9622615 74.9912502 68.2504156 73.267875 68.2504156 71.5433894 69.1104449 70.1065031 69.3963824 68.9572162 70.2564117 69.2448155 71.691641 68.0955286 70.8316117 66.9462416 70.5434576 66.084554 71.4045951 64.9352671 71.9786868 63.7859802 72.8376078 62.062605 73.1246537 60.6257187 73.1246537 59.7629207 74.5576663 59.1888324 75.7058498 57.4654572 75.7058498 56.6026592 77.1388624 55.4533723 78 55.1668834 78 54.3051958 77.7129541 54.0175964 75.9917873 54.0175964 74.8458205 53.1547984 73.4116995 52.0055115 72.8376078 50.8551141 71.691641 49.9934265 71.116441 49.1317389 69.3963824 47.6948526 69.9704741 46.5455657 69.3963824 45.9714774 70.2564117 45.6838781 70.5434576 44.8221905 72.2646244 43.0977049 73.9846829 41.661929 73.9846829 40.5126421 73.4116995 39.6498441 74.2717288 38.2140682 73.4116995 36.777182 72.2646244 35.9154944 71.116441 34.7662074 70.5434576 33.3293212 71.4045951 32.4676336 70.2564117 31.8924349 69.1104449 30.456659 68.2504156 25.8595113 65.9540488 26.4335995 64.5210361 26.4335995 63.0869151 25.8595113 61.93984 24.1339152 61.6527942 23.2722276 62.7998693 22.697029 63.9469444 21.8353414 64.8091902 20.6860544 65.6681112 19.2502786 65.9540488 18.1009916 65.9540488 17.239304 64.8091902 16.376506 63.9469444 15.5148184 65.0940195 15.5148184 65.3810654 14.9396197 66.8140781 13.7914432 67.6752156 13.7914432 70.2564117 13.2162446 72.5516702 12.6410459 73.4116995 11.20527 73.4116995 9.76838375 73.1246537 8.33260789 73.4116995 7.46980987 71.9786868 6.8946112 70.2564117 6.32052294 68.8222907 7.46980987 68.5363532 8.90669615 67.1022322 9.48078441 65.9540488 9.76838375 65.0940195 9.48078441 63.9469444 9.48078441 62.7998693 10.3435824 62.2268859 11.4928694 61.6527942 12.0669576 60.7927649 12.9286452 59.9327356 13.7914432 59.6467981 14.9396197 59.3597522 15.8013073 59.0715981 14.9396197 58.2115688 13.2162446 56.7785561 11.7793583 57.065602 10.9176707 57.6396937 10.6300713 58.4986146 10.6300713 60.2197815 10.0559831 61.3668566 8.90669615 62.2268859 8.04500855 60.5068273 7.46980987 58.4986146 7.18221053 56.4915103 7.18221053 54.19736 7.75740921 51.904318 5.45883534 52.1902556 4.02194907 52.4773015 4.02194907 51.3291181 3.16026147 50.4713054 4.30954841 48.7490303 4.59714774 47.6030634 3.44786081 47.889001 2.29857387 47.889001 1.72337519 47.0289717 2.01097453 46.1678342 1.72337519 45.0218673 1.72337519 44.161838 2.87266213 43.8747922 3.73434973 43.8747922 4.02194907 42.7277171 3.73434973 41.5795337 3.44786081 41.5795337 2.58506279 42.4406712 1.72337519 42.7277171 2.29857387 41.5795337 3.16026147 40.7195044 4.59714774 39.8594751 4.59714774 38.7112917 4.88363666 37.2793873 4.59714774 35.8441581 4.30954841 34.6970829 4.59714774 32.9770244 3.44786081 32.9770244 2.58506279 34.1240995 0.574088257 34.9841288 0.28759934 34.1240995 0 33.5500078 0.574088257 32.404041 0.861687597 30.96992 1.14928694 29.8228449 0.861687597 28.3887239 2.01097453 26.9557112 3.16026147 26.095682 3.44786081 24.661561 3.44786081 23.22744 3.16026147 21.7944273 4.02194907 20.6462439 5.171236 19.5002771 5.45883534 18.3532019 4.59714774 16.919081 4.88363666 15.1990224 4.88363666 13.1897015 4.59714774 11.7566888 5.45883534 11.7566888 6.8946112 11.4696429 8.04500855 12.9037639 8.90669615 14.3378849 11.20527 15.1990224 12.6410459 15.1990224 14.3655315 15.7731141 14.6531308 15.7731141 16.376506 15.1990224 17.8133923 14.6238224 18.9626792 13.1897015 19.8243668 12.0437346 21.2612531 11.7566888 23.559827 10.035522 25.2832022 9.46253854 26.4335995 8.88844684 28.4456845 7.1683883 29.593861 8.31546342 30.7431479 9.17549269 31.0307473 8.02841757 31.3183466 6.30835903 31.605946 4.5871922 31.8924349 3.44122537 33.0417218 1.14596684 34.4786081 0.572983418 35.627895 0.285937567 37.0647813 0 38.5005572 0.572983418 38.7881565 0.572983418"></polyline>
    </g>
</svg>