<?xml version="1.0" encoding="UTF-8"?>
<svg width="118px" height="78px" viewBox="0 0 118 78" version="1.1" xmlns="http://www.w3.org/2000/svg" xmlns:xlink="http://www.w3.org/1999/xlink">
    <!-- Generator: Sketch 50.2 (55047) - http://www.bohemiancoding.com/sketch -->
    <title>Gonda</title>
    <desc>Created with Sketch.</desc>
    <defs></defs>
    <g id="Page-1" stroke="none" stroke-width="1" fill="none" fill-rule="evenodd">
        <polyline id="Gonda" fill="#F4DDB5" fill-rule="nonzero" points="54.1752324 1.47757982 54.7667175 1.77332416 55.9496878 1.47757982 56.8397756 1.18183548 57.4301167 1.47757982 58.0227459 2.36367097 59.5020307 2.66055717 60.0946599 2.66055717 60.3909745 2.95401777 60.6872891 3.84239266 60.9824597 4.72734193 61.8702594 5.02308627 63.0555178 3.84239266 63.9444616 4.72734193 64.8311172 5.90917741 65.4237464 6.79526856 66.3115462 7.97710404 66.9041754 8.56859272 66.9041754 10.9311218 67.4968046 11.8183548 68.3857483 12.1129573 71.9369472 12.1129573 74.6014905 13.8874233 74.896661 15.0681169 75.7844607 15.9542081 76.9685751 16.5468386 77.2648897 17.4340716 79.0416332 19.2051121 79.6342624 19.5008564 81.1146913 19.7966007 82.001347 20.0912032 82.8891467 20.0912032 84.073261 20.3869475 84.9610607 21.568783 84.6658902 22.4548742 82.8891467 22.7506185 81.7050324 23.0463629 80.520918 23.6389934 80.2246034 24.819687 79.9294329 26.0003806 79.9294329 26.8864718 80.2246034 27.7725629 79.9294329 28.9543984 79.6342624 29.8416314 79.0416332 31.0234669 79.9294329 31.6138137 80.520918 32.2064442 81.1146913 32.4999048 81.4087178 32.7956492 81.7050324 33.6817403 82.001347 35.1593201 82.2988056 36.0454113 83.7792345 36.9315024 84.6658902 36.9315024 85.5525459 36.6357581 86.4426337 36.6357581 87.0341188 37.5229911 87.0341188 38.9994291 87.3292894 39.8866621 87.9230626 40.7727532 88.5134037 41.9545887 89.1060329 42.8418217 89.6986621 43.4333104 90.5864618 44.0236572 91.7705761 44.0236572 92.3632053 43.1364242 93.5473197 42.8418217 95.3240632 42.5449355 96.5093216 41.9545887 97.0996626 41.3631 97.3959772 40.4770089 97.3959772 38.4102241 98.2837769 37.8187355 99.4678913 36.6357581 100.059376 35.749667 100.65315 35.1593201 101.242347 34.273229 100.947176 33.385996 101.242347 32.4999048 101.83612 33.0913935 103.317693 33.385996 103.612863 32.2064442 103.908034 31.3180694 104.204349 30.1373757 105.388463 30.7277226 105.979948 31.909558 106.277407 33.385996 107.460377 33.9774847 108.051862 34.8635758 108.94195 36.3411556 109.532291 36.9315024 111.604205 36.9315024 112.196834 37.8187355 112.789463 38.4102241 113.084634 39.2951734 112.492005 40.1812645 112.196834 41.0684976 112.492005 41.9545887 113.084634 42.8418217 113.382093 44.0236572 113.382093 45.501237 113.677263 46.3873282 114.565063 46.977675 116.045492 47.2734193 117.821091 47.2734193 117.525921 48.1595105 116.933292 48.7498573 115.452863 49.0467435 114.862522 49.6359484 113.97129 51.1146701 113.084634 51.4092726 112.196834 52.0007612 111.604205 52.5911081 111.901664 53.4771992 112.196834 54.3644322 111.604205 54.9536371 110.12492 55.2505234 108.644491 55.2505234 107.757836 55.842012 107.164062 56.4323588 106.277407 56.7269613 105.979948 58.2045411 105.684777 59.3875185 105.092148 60.2736096 102.428749 59.9778653 101.242347 59.3875185 100.65315 57.9087968 99.7642059 57.31845 98.2837769 56.4323588 96.5093216 55.842012 95.3240632 56.4323588 94.731434 57.31845 92.9524023 57.31845 91.4742615 56.7269613 90.8827764 55.842012 89.6986621 54.9536371 88.5134037 54.6601766 87.625604 54.6601766 86.4426337 54.9536371 85.8488604 55.842012 84.9610607 56.1366145 84.073261 55.842012 83.4817759 55.842012 81.7050324 56.4323588 80.8183767 56.1366145 79.9294329 57.0227056 79.3368037 58.2045411 79.0416332 59.0906323 79.9294329 59.9778653 80.2246034 60.8639564 80.2246034 61.7500476 79.6342624 62.3415363 79.6342624 63.2276274 79.9294329 63.8179742 79.0416332 64.9998097 78.449004 65.5901565 77.8563748 66.7742757 78.1526894 67.659225 79.3368037 69.1356629 79.3368037 70.0217541 78.7453186 71.2058733 78.7453186 72.0919645 78.449004 73.8641467 77.5612043 75.0459822 76.9685751 75.3428684 76.9685751 74.4544936 76.6745486 73.5684024 76.3770899 72.6823113 75.4892902 72.0919645 74.896661 71.7962201 73.1210616 71.2058733 72.2321178 71.2058733 69.8638891 70.0217541 68.6809189 70.3174984 68.3857483 71.5004758 67.4968046 71.7962201 66.3115462 70.6132428 65.1262878 70.6132428 64.2396321 70.9078452 63.6470029 71.2058733 63.3495442 71.2058733 61.8702594 71.7962201 61.2799183 72.6823113 60.0946599 73.2726581 59.2068602 73.2726581 58.3190605 72.9791975 56.8397756 72.9791975 55.6556613 73.5684024 55.0618881 74.7513798 54.1752324 75.0459822 53.5814591 75.9309315 52.989974 76.523562 52.3984889 77.4096532 51.5106892 78 50.3254308 77.7042557 49.1424605 77.1139089 48.2535167 76.8181645 45.8864321 76.2278177 44.4071473 75.6374709 43.2218889 75.3428684 42.6292597 74.7513798 41.74146 72.3865669 41.4462894 71.7962201 39.9658605 71.5004758 39.0757727 70.9078452 37.5953437 70.6132428 35.5234297 70.6132428 34.0441448 69.4314073 33.7478302 68.8410605 33.1563451 67.659225 32.2674013 67.3634807 31.083287 67.0677363 29.3076875 66.7742757 28.7162024 65.5901565 26.6431443 65.5901565 25.45903 64.9998097 25.7553446 64.4106048 25.1615713 62.9318831 24.8675449 62.0435082 23.9786011 61.1608426 22.7944867 60.569354 21.6103724 59.682121 21.3152019 58.7971717 21.6103724 57.31845 21.0188873 56.4323588 19.834773 56.1366145 18.0580294 56.7269613 17.1702297 56.1366145 16.8750592 55.2505234 16.2835741 54.3644322 15.9861154 53.4771992 15.3946303 52.2953637 15.6898008 50.8189258 15.9861154 49.9328346 15.6898008 48.7498573 15.0983157 47.8637661 13.6167427 47.8637661 13.0252576 48.4552548 11.8422873 47.8637661 10.658173 47.5703055 9.76922918 48.1595105 8.88028539 47.8637661 8.28880026 46.977675 7.40100054 46.3873282 6.51205674 45.501237 5.32908649 44.9086065 4.14382809 45.2054927 2.95971377 44.9086065 2.36822865 44.9086065 1.77674352 44.3182597 0.592629197 44.3182597 0 43.4333104 0.296314599 42.5449355 0.592629197 42.5449355 0.592629197 41.3631 1.48042892 40.4770089 2.36822865 39.8866621 3.25602837 39.5920596 4.73760136 39.5920596 5.03391596 38.1133379 5.62425702 37.2272468 6.80837134 37.5229911 8.58511486 36.6357581 9.47291458 35.1593201 9.47291458 34.273229 10.3618584 33.385996 11.248514 33.385996 12.4349165 32.7956492 13.0252576 31.6138137 14.2105159 31.3180694 15.0983157 30.7277226 15.3946303 30.1373757 15.9861154 29.2501427 16.2835741 27.4779604 16.8750592 26.8864718 16.8750592 24.819687 18.0580294 24.2281983 18.6506586 23.6389934 18.6506586 22.1602717 18.9481173 21.2741806 20.1310876 21.2741806 21.3152019 20.0912032 21.6103724 19.2051121 21.6103724 16.8414411 21.0188873 15.0681169 20.4285462 14.1820258 21.9078311 13.8874233 22.7944867 13.2947928 23.6822865 13.0001903 26.0528032 13.0001903 26.6431443 13.2947928 27.5320881 14.1820258 27.8272586 15.0681169 28.4198878 15.6596056 28.7162024 16.5468386 29.3076875 17.1371854 30.4906578 17.4340716 33.1563451 19.2051121 34.0441448 19.2051121 34.9319446 18.6147653 35.5234297 17.7286741 36.1149148 17.1371854 37.0038586 16.8414411 37.8916583 16.2522362 37.8916583 13.5905371 38.4842875 12.704446 39.6695459 12.4087016 41.1476867 12.1129573 41.74146 12.1129573 45.2938029 11.5226105 45.8864321 10.9311218 45.5912616 9.7504282 44.7011737 9.45468386 44.1096886 8.86433706 43.813374 7.97710404 44.7011737 7.0910129 46.1816027 7.0910129 46.1816027 3.84239266 45.8864321 2.95401777 45.5912616 1.77332416 45.8864321 0.887233015 46.7742319 1.18183548 47.9583462 1.18183548 48.5498313 0.295744338 49.437631 0 50.6217454 0.295744338 51.5106892 0.591488676 52.3984889 1.18183548 53.5814591 1.47757982 54.1752324 1.47757982"></polyline>
    </g>
</svg>