<?xml version="1.0" encoding="UTF-8"?>
<svg width="97px" height="78px" viewBox="0 0 97 78" version="1.1" xmlns="http://www.w3.org/2000/svg" xmlns:xlink="http://www.w3.org/1999/xlink">
    <!-- Generator: Sketch 50.2 (55047) - http://www.bohemiancoding.com/sketch -->
    <title>Hamirpur</title>
    <desc>Created with Sketch.</desc>
    <defs></defs>
    <g id="Page-1" stroke="none" stroke-width="1" fill="none" fill-rule="evenodd">
        <polyline id="Hamirpur" fill="#F4DDB5" fill-rule="nonzero" points="52.7257134 6.41001138 52.9946483 6.41001138 53.5283806 5.87627392 53.5283806 5.07618392 53.796281 4.27402917 54.3331164 3.4729068 54.5989482 2.93813696 54.8668487 2.13701459 55.6715845 1.6043095 55.9374163 0.80215475 56.4732173 0.266352543 57.2758844 0 58.0795859 0.266352543 58.6143525 0.80215475 58.6143525 2.67178442 58.8812186 3.4729068 58.8812186 8.54805834 59.6849201 9.08076343 60.2196867 9.61656564 61.8250209 9.88291818 62.6287224 9.88291818 63.4313895 10.4187204 64.2340567 10.4187204 65.3056586 10.1503031 66.1083258 8.2817058 66.9130616 8.01432088 67.9825948 8.01432088 71.1942977 9.08076343 71.7290643 9.61656564 72.5317314 10.1503031 73.3354329 10.9514255 73.6033334 12.0199328 73.6033334 13.0884401 72.2658997 15.7602245 71.9969648 16.5613469 71.7290643 17.6298541 72.5317314 18.4320089 73.0675324 19.2310665 74.4060005 19.7668687 76.8140019 19.7668687 77.8845695 20.3016386 78.4214048 21.1027609 79.2230376 21.3701459 80.0257047 21.3701459 80.8283718 21.6375308 81.0973067 22.4386531 83.2374075 24.5756677 84.0400747 25.1104376 84.8448105 26.4452974 85.3785428 26.1789449 86.1822442 25.6431427 86.4491104 24.8430527 86.7170109 24.0419303 86.983877 24.0419303 87.5207123 24.5756677 89.9297481 25.3767901 90.7313808 25.3767901 91.8029828 25.9115599 92.3377494 25.9115599 92.6066843 26.9790349 93.1414509 28.0465098 94.7467851 28.0465098 95.8173527 27.7811896 95.8173527 28.0465098 96.3531537 29.6518517 95.5494522 30.4519417 95.2815517 31.253064 95.2815517 32.0541864 95.5494522 32.8573735 94.7467851 33.6574635 93.9451524 33.3900786 92.8735504 33.6574635 92.6066843 34.7259708 92.3377494 35.5270932 91.5350823 37.3967229 90.4645147 37.6641078 89.6618476 37.9314927 89.1260466 37.3967229 88.5902456 38.1978452 88.0544446 38.7326151 87.2517775 38.4662625 86.4491104 38.4662625 85.9133094 38.9989676 85.9133094 40.0685073 86.4491104 40.6032771 89.6618476 40.6032771 90.1966142 41.4033671 90.4645147 42.4718744 91.5350823 42.7402917 92.6066843 42.2034571 93.408317 42.7402917 93.6772519 43.5393493 93.6772519 45.1457236 95.2815517 46.2131985 95.8173527 46.746936 95.8173527 48.0828282 94.7467851 49.1513355 93.6772519 49.4187204 93.1414509 49.9514255 93.408317 51.0199328 93.1414509 51.8231199 93.6772519 52.6232099 94.7467851 53.4253646 94.7467851 54.2254546 93.408317 55.5613469 92.0698489 56.6298541 91.8029828 57.1635916 91.0003157 57.9657464 90.4645147 58.7668687 90.4645147 59.5690235 92.3377494 59.5690235 92.3377494 60.6375308 92.0698489 61.4376208 91.5350823 62.2387432 90.7313808 62.7745454 89.9297481 63.0408979 88.8581461 63.0408979 88.0544446 63.3082828 87.5207123 63.8409879 87.7875785 64.9105276 87.2517775 65.444265 86.4491104 65.9790349 86.1822442 67.0475422 85.3785428 67.3159594 84.8448105 67.5802472 84.0400747 67.8486645 83.7732085 68.9161394 84.5758756 70.7888662 85.1106423 71.3215713 85.1106423 72.391111 84.8448105 73.1922334 84.5758756 73.7259708 84.3079751 74.7944781 84.0400747 75.5956005 83.2374075 75.8629854 82.7026409 75.5956005 81.3641728 76.1303703 81.3641728 76.9314927 81.0973067 78 80.0257047 78 78.688271 76.6641078 77.616669 76.3977552 75.2086676 74.7944781 74.1381 73.9943881 73.6033334 73.9943881 73.8701995 75.0628954 73.8701995 76.3977552 73.6033334 76.6641078 72.7996319 75.8629854 72.7996319 72.6564312 72.2658997 72.1237261 71.1942977 71.5889562 70.3905962 71.0552188 69.8558296 71.8573735 69.3200286 72.391111 68.5173615 71.5889562 69.3200286 70.5194166 69.5889634 69.7203589 67.9825948 70.7888662 67.7146944 69.9856791 67.4467939 68.9161394 67.1809621 67.8486645 66.1083258 67.8486645 65.0387925 68.3834344 64.770892 68.9161394 65.5735591 69.7203589 65.5735591 71.8573735 65.0387925 72.1237261 64.5040259 71.0552188 64.2340567 69.9856791 63.1645234 68.3834344 62.3608219 67.8486645 62.0939558 67.0475422 61.8250209 66.5127723 60.7554877 66.244355 59.9517862 65.9790349 59.1491191 65.1789449 60.2196867 64.6431427 59.9517862 64.1104376 59.1491191 63.3082828 58.0795859 62.7745454 57.2758844 62.2387432 56.2053168 61.9723906 55.6715845 62.7745454 56.4732173 63.3082828 56.7400834 64.3767901 55.4026496 65.1789449 54.8668487 64.1104376 54.3331164 63.3082828 53.5283806 63.5746354 52.9946483 64.1104376 52.4578129 64.9105276 51.1203792 64.6431427 49.5140106 65.1789449 48.1765769 65.444265 47.3728754 65.444265 46.8381088 64.6431427 44.964874 62.7745454 43.6264059 62.7745454 43.0916393 63.5746354 43.0916393 64.3767901 42.0210717 64.3767901 40.6826036 64.9105276 40.1468026 66.244355 39.6110016 66.7801572 38.004633 67.5802472 36.6661649 67.5802472 36.1313983 66.7801572 35.3287312 66.5127723 34.526064 67.0475422 33.9902631 67.3159594 33.4544621 67.3159594 32.1170283 67.5802472 31.5822617 68.1160494 31.0464607 68.9161394 30.7785602 69.9856791 29.9758931 69.4519417 28.9053255 69.9856791 28.9053255 70.7888662 28.3695245 71.3215713 27.5668574 71.5889562 26.4973241 71.5889562 25.6936227 71.3215713 24.8909555 70.5194166 24.0882884 69.9856791 22.7498203 69.9856791 22.2150537 70.7888662 21.6792527 71.3215713 20.8765856 71.5889562 20.0739185 71.3215713 19.5381175 70.5194166 19.0023165 70.5194166 18.7354504 70.7888662 17.9327833 71.0552188 16.3264147 70.7888662 14.9869122 70.5194166 14.1842451 70.7888662 13.381578 70.7888662 12.0431099 70.5194166 10.9725422 70.5194166 9.90197463 70.2520317 8.29664039 69.7203589 7.22607278 69.7203589 5.88760468 68.1160494 5.08493756 67.0475422 3.47960333 65.9790349 2.67590185 65.7116499 2.67590185 64.6431427 2.40800135 63.3082828 2.94380234 62.2387432 2.94380234 61.1702359 1.87323473 60.6375308 0.802667117 60.3691135 0.267900494 59.5690235 0.267900494 58.7668687 0.534766623 57.1635916 0.267900494 56.3635016 0 55.5613469 0.534766623 55.0286418 1.33743374 54.7591921 2.40800135 54.2254546 2.14113522 53.4253646 1.87323473 52.8916272 1.07056761 52.3547926 1.07056761 51.2873177 0.534766623 50.2188104 0.534766623 49.4187204 0.802667117 48.617598 1.33743374 47.2817058 2.40800135 46.479551 2.94380234 45.6784287 2.94380234 44.8773063 2.67590185 44.0751515 2.14113522 43.5393493 2.14113522 40.6032771 1.87323473 40.3348598 2.40800135 39.8011224 2.94380234 38.9989676 3.74646946 38.4662625 4.28227044 37.6641078 4.81703707 37.1283056 6.15550517 36.8629854 6.42340567 37.6641078 6.95817229 38.4662625 7.76083941 39.2673849 8.56350652 39.2673849 9.63407413 38.7326151 9.90197463 37.3967229 10.1698751 36.5956005 10.7056761 36.0628954 10.9725422 35.2597083 11.7752094 34.4575535 12.3110103 33.6574635 13.1136775 33.3900786 14.1842451 32.8573735 14.9869122 32.5889562 15.2548127 33.3900786 15.5237475 34.191201 16.3264147 34.9943881 17.1290818 35.2597083 17.6648828 34.7259708 17.9327833 33.3900786 17.9327833 32.5889562 18.1996494 31.7888662 18.7354504 31.253064 19.0023165 30.4519417 18.4675499 30.1845567 16.5932808 30.1845567 15.5237475 29.9182042 16.0574798 28.8496969 16.3264147 28.0465098 17.1290818 27.5138047 17.9327833 27.5138047 18.7354504 27.2474522 19.5381175 27.2474522 20.3407846 27.5138047 21.6792527 27.5138047 22.4819198 27.2474522 25.6936227 24.0419303 26.4973241 23.773513 26.7641903 23.773513 27.0320908 24.0419303 28.1026584 24.3072504 28.637425 25.1104376 29.4400921 24.8430527 29.9758931 24.3072504 31.0464607 24.0419303 31.8491278 24.0419303 32.651795 24.5756677 32.9196954 25.3767901 34.2581636 26.7126823 35.3287312 26.4452974 35.8634978 25.9115599 36.3992988 26.4452974 36.6661649 27.2474522 38.2725335 27.7811896 39.3441355 28.0465098 39.8789021 28.3159594 40.6826036 28.3159594 41.7531712 28.8496969 42.5558383 29.3834344 43.6264059 29.1160494 44.1611725 28.582312 44.429073 27.7811896 44.964874 26.9790349 46.0354416 27.2474522 46.5702083 27.7811896 47.1049749 28.582312 48.1765769 28.3159594 48.1765769 26.4452974 47.1049749 24.8430527 47.1049749 24.0419303 47.3728754 23.2397755 47.1049749 22.1712682 46.3023078 21.6375308 46.3023078 20.8364084 46.8381088 20.0342536 47.6407759 20.0342536 48.7113435 20.5690235 49.2471445 21.3701459 49.7819111 21.1027609 50.3166777 20.3016386 51.1203792 20.0342536 51.9240807 20.0342536 52.9946483 19.5005162 54.0641815 18.4320089 54.8668487 17.3635016 55.1347492 16.5613469 55.9374163 16.0286418 56.4732173 14.9591021 55.6715845 14.9591021 54.5989482 15.2254546 53.796281 15.2254546 52.7257134 14.9591021 52.7257134 14.155915 52.9946483 13.0884401 53.5283806 12.5547026 54.5989482 10.9514255 54.5989482 9.88291818 53.796281 9.08076343 53.2615144 7.74487122 52.7257134 6.41001138"></polyline>
    </g>
</svg>