<?xml version="1.0" encoding="UTF-8"?>
<svg width="83px" height="78px" viewBox="0 0 83 78" version="1.1" xmlns="http://www.w3.org/2000/svg" xmlns:xlink="http://www.w3.org/1999/xlink">
    <!-- Generator: Sketch 50.2 (55047) - http://www.bohemiancoding.com/sketch -->
    <title>Mahamaya Nagar</title>
    <desc>Created with Sketch.</desc>
    <defs></defs>
    <g id="Page-1" stroke="none" stroke-width="1" fill="none" fill-rule="evenodd">
        <polyline id="Mahamaya-Nagar" fill="#F4DDB5" fill-rule="nonzero" points="72.1424064 1.76373684 72.4963806 2.46895876 73.9109108 3.52747368 75.6794152 3.17690882 77.8005271 3.52747368 79.5690315 4.23542373 78.1545013 4.58735266 77.4465529 6.35245357 77.8005271 8.4694834 79.2150573 9.88129132 81.3375359 10.5878773 82.0441177 10.9398062 82.7506994 11.6463922 82.7506994 13.0568361 81.6901435 14.468644 80.9835617 17.9988458 82.0441177 19.0573607 81.3375359 20.8251897 81.3375359 22.9408555 82.3980919 24.3526634 81.3375359 26.4696933 80.2756133 27.5295722 78.1545013 29.2933091 76.7399711 29.6479661 75.325441 29.6479661 73.5569365 30.705117 73.2029623 32.1169249 71.0818504 32.1169249 69.6673202 33.8820258 68.25279 34.5872477 66.4842856 35.2938337 65.4237296 36.3523486 64.0091994 36.3523486 64.0091994 34.5872477 62.5946692 33.5287328 60.4721906 33.1754398 58.7050529 33.1754398 57.2905227 34.2353188 56.2299667 35.2938337 54.8127032 37.0589346 53.0455654 38.1174495 51.277061 38.4721066 50.9230868 40.9410654 49.8625308 41.6462873 49.5099233 41.9995803 47.0334705 42.3515092 45.2649661 42.3515092 43.8504359 43.0580952 43.1438541 44.821832 42.0832982 45.8830751 40.3147937 46.235004 39.608212 48.3520339 39.2542378 50.1171348 38.5462893 51.8822357 37.4857334 53.6473366 36.7791516 55.0591445 36.4251774 56.4709524 38.5462893 56.8242454 39.9608195 57.5294673 39.9608195 59.2945682 40.3147937 60.7063761 39.608212 60.3530831 38.1936818 61.764891 36.0712032 62.823406 34.656673 63.8832849 32.8895353 64.5885069 31.4750051 65.6470218 30.0604749 64.9417999 28.6459447 63.8832849 27.2314145 62.118184 25.8155176 63.176699 24.7549617 64.2352139 22.632483 64.9417999 23.693039 66.3536078 25.8155176 66.7055367 25.4629101 68.1173446 24.7549617 69.5291525 23.3390648 70.2357385 20.8639786 70.5890315 19.4494484 70.9423245 18.3888925 72.3541324 15.9138063 72.3541324 14.8532503 71.2942534 13.4373535 73.0579903 13.7913277 74.8230912 12.7307717 76.2348991 11.6702157 77.293414 9.90171133 78 8.13320691 76.9414851 6.71867673 74.8230912 5.65812076 76.2348991 5.30551323 74.4711623 4.24359057 73.0579903 2.47645285 71.2942534 2.47645285 69.5291525 2.12247863 67.7640516 1.41453019 66.0003148 0.707948443 64.5885069 1.41453019 62.823406 1.41453019 61.4115981 0.707948443 59.6478612 0 58.2360533 0 56.4709524 1.41453019 55.4124375 2.12247863 54.7072156 2.47645285 54.0006296 2.82906038 52.5888217 1.76850441 50.8223567 1.06192266 49.4105488 1.06192266 47.294883 2.82906038 46.9402259 2.47645285 44.821832 2.82906038 43.0580952 2.12247863 41.2929943 1.76850441 39.1759645 2.12247863 37.7641566 4.24359057 36.7056416 4.95153901 35.2938337 4.95153901 33.5287328 4.59756479 33.1754398 4.95153901 33.1754398 6.71867673 32.4702179 7.78059939 31.411703 9.90171133 31.05841 12.02419 32.1169249 13.4373535 31.05841 13.0847459 29.2933091 13.4373535 27.5295722 14.8532503 26.8229863 16.2677805 25.7644713 16.9743623 24.7059564 16.9743623 24.3526634 18.7428667 24.3526634 19.4494484 22.9408555 18.3888925 21.1757546 17.680944 19.7653108 18.0349182 17.9988458 16.9743623 16.5870379 17.680944 14.823301 18.0349182 13.4101291 18.3888925 11.6463922 19.8034227 10.5878773 21.2179528 9.17470533 20.8639786 7.05767549 20.8639786 5.29393865 22.2785088 3.88076667 23.3390648 5.29393865 24.7549617 5.99916058 29.7065007 5.99916058 31.4750051 6.35245357 32.1815868 8.11619041 33.9500912 8.11619041 35.7185957 7.05767549 38.5462893 9.17470533 39.9608195 9.88129132 41.3753497 11.6463922 42.0832982 13.7634221 41.7293239 15.17523 42.4372724 16.9403309 43.8504359 17.6455528 44.9123585 19.4133818 45.6189403 20.8251897 46.6808629 22.5875625 48.4480007 22.2342695 50.2165051 20.8251897 51.6310353 20.4705327 53.7521472 20.1172397 54.1061214 18.3521388 55.8746258 17.6455528 57.6444969 17.9988458 58.7050529 16.9403309 60.1195831 14.1167151 61.1801391 13.0568361 63.3026177 12.3516141 63.3026177 8.82141233 64.0091994 6.7043825 65.0697554 5.64586758 66.4842856 4.94064566 67.8988158 4.94064566 69.6673202 4.58735266 69.313346 3.17690882 68.9593718 1.41044385 70.0199277 0 71.4358246 0.705221923 72.1424064 1.76373684"></polyline>
    </g>
</svg>