<?xml version="1.0" encoding="UTF-8"?>
<svg width="107px" height="78px" viewBox="0 0 107 78" version="1.1" xmlns="http://www.w3.org/2000/svg" xmlns:xlink="http://www.w3.org/1999/xlink">
    <!-- Generator: Sketch 50.2 (55047) - http://www.bohemiancoding.com/sketch -->
    <title>Jalaun</title>
    <desc>Created with Sketch.</desc>
    <defs></defs>
    <g id="Page-1" stroke="none" stroke-width="1" fill="none" fill-rule="evenodd">
        <polyline id="Jalaun" fill="#F4DDB5" fill-rule="nonzero" points="21.9986779 0.576123676 23.446239 0 23.735975 0 24.8938002 0.576123676 25.7618894 0.865302033 27.7878037 1.73172058 29.2353648 2.02089894 30.103454 2.02089894 31.2612792 2.3100773 32.7088403 1.44254223 33.8666654 0.576123676 34.4450187 0.288061838 35.3142265 0 36.7617877 0 37.6298769 0.576123676 38.787702 0.865302033 39.3671739 1.44254223 40.814735 1.73172058 41.3930883 2.59925565 41.9725602 3.17649585 43.1292667 4.91044947 44.8665637 4.33097624 46.6038608 4.0429144 47.7605673 3.75373604 48.6297752 3.17649585 50.0762176 2.88731749 51.5237787 2.02089894 52.6816039 0.865302033 53.5496931 1.15448039 54.9972542 1.73172058 56.1550793 2.3100773 57.0231685 2.59925565 57.8912577 2.59925565 58.7604656 3.17649585 59.9182907 4.33097624 59.9182907 6.06604638 59.6285548 6.64217005 59.6285548 7.50970512 61.3658519 8.37724019 62.523677 8.08694532 64.55071 8.08694532 65.9971525 8.37724019 66.5766244 8.95336387 67.1549776 9.82089894 67.4447136 10.9764958 67.1549776 11.8429144 66.5766244 12.4190381 65.7074165 12.709333 64.8393273 13.2876897 64.55071 14.7324649 65.1290633 15.6 65.4187992 16.465302 66.2868884 17.9100773 66.8652417 19.0656742 68.0241855 19.6440309 68.8922747 19.9320928 70.0500998 21.6660464 70.918189 22.5324649 72.6543674 22.5324649 73.8121926 22.8227598 74.6802818 23.1097051 75.8392256 24.265302 76.1278429 24.265302 76.4175789 25.1328371 76.4175789 25.9992557 76.7073148 27.153736 76.7073148 28.0212711 77.575404 28.5985113 78.4434932 28.8876897 79.0218465 29.4649299 80.1807903 29.4649299 81.0488795 28.8876897 82.2067046 28.8876897 83.942883 29.7541082 84.8120909 30.3313484 85.3904441 30.9097051 85.9687974 31.7750072 85.9687974 33.5100773 84.8120909 35.2429144 85.1007082 36.1104495 85.3904441 36.9757515 86.2585333 37.5541082 87.1288599 37.5541082 88.286685 37.8432866 89.1547742 37.5541082 90.0228634 37.5541082 91.4704245 38.9988835 92.916867 38.9988835 93.4963389 38.7085886 94.654164 38.9988835 97.5481676 38.9988835 98.4173755 38.7085886 99.2854647 38.9988835 99.8638179 39.5772402 100.153554 40.4425422 101.312498 41.3100773 102.469204 41.3100773 103.048676 42.753736 103.627029 44.1996278 104.495119 45.0660464 104.495119 46.2216433 103.337293 47.9544804 102.760059 48.5328371 102.469204 49.6873175 102.469204 50.5559691 103.627029 50.8440309 104.495119 50.8440309 105.654062 50.5559691 106.521033 50.5559691 105.94268 51.711566 105.073472 52.2876897 104.784854 53.1563413 103.916765 54.3119382 102.760059 55.4675351 101.601115 56.0436587 100.731907 56.0436587 99.8638179 56.3328371 99.2854647 57.1992557 98.7059928 57.488434 98.1276395 56.6208989 96.9698144 56.0436587 96.1017252 56.0436587 95.5222532 56.9100773 95.5222532 57.7787289 96.3903424 58.3548526 96.6800784 59.5104495 96.3903424 60.3779845 96.3903424 61.2432866 97.5481676 62.9772402 97.5481676 65.0003722 96.3903424 65.2873175 95.8119892 64.4208989 95.233636 63.8447753 94.0746921 63.5533639 93.4963389 64.4208989 93.2066029 65.2873175 92.6282497 65.8656742 91.4704245 66.1548526 90.6023353 65.5764958 89.4445102 65.0003722 88.5753023 65.0003722 87.9969491 64.7100773 86.8391239 64.4208989 85.1007082 63.8447753 84.8120909 62.9772402 84.232619 62.3988835 83.6542657 62.9772402 82.4953219 63.265302 81.0488795 61.8216433 80.7591435 60.9541082 79.8910543 60.3779845 79.0218465 60.3779845 77.86514 60.6649299 77.2856681 61.2432866 76.4175789 61.5335814 75.8392256 60.6649299 74.6802818 60.3779845 74.3916645 60.0888062 74.1019286 60.0888062 73.2338394 60.3779845 69.7603639 63.8447753 68.8922747 64.1328371 67.4447136 64.1328371 66.5766244 63.8447753 65.7074165 63.8447753 64.8393273 64.1328371 63.9712381 64.1328371 63.1031489 64.7100773 62.813413 65.5764958 62.2350597 66.7320928 63.3917662 67.0212711 65.4187992 67.0212711 65.9971525 67.311566 65.7074165 68.176868 65.1290633 68.7563413 64.8393273 69.6216433 64.8393273 70.4891784 64.55071 71.9339536 63.9712381 72.5111938 63.1031489 72.223132 62.2350597 71.3555969 61.9453238 70.4891784 61.6555878 69.6216433 60.7863799 69.9119382 59.6285548 70.4891784 58.7604656 70.7783567 58.1809937 71.6436587 57.3129045 72.5111938 57.0231685 73.3787289 56.4448153 73.9548526 56.1550793 74.8235042 55.8653434 76.2660464 54.7075182 76.8444031 53.839429 76.8444031 52.9713398 75.9791011 52.3918679 75.111566 52.1021319 74.2451474 50.6556895 74.5332093 50.0762176 75.111566 49.4978644 75.9791011 48.6297752 76.5552247 48.0503032 77.4216433 47.47195 78 45.7346529 77.1335814 45.7346529 76.2660464 45.1562997 75.6888062 44.2870918 75.9791011 43.4190026 76.5552247 42.8406494 77.4216433 42.2611775 78 40.814735 78 39.9455272 77.7108216 39.3671739 76.8444031 39.6557912 75.6888062 39.6557912 74.8235042 39.3671739 73.9548526 38.4990847 73.3787289 37.0515236 73.6679072 35.8936985 74.5332093 35.8936985 75.3996278 34.4450187 75.111566 33.2871935 74.5332093 32.4191043 74.5332093 31.2612792 73.9548526 29.2353648 73.9548526 28.3672756 74.5332093 27.2083318 75.111566 25.7618894 75.111566 25.1824174 74.5332093 24.6040642 73.6679072 24.0245923 73.9548526 23.1565031 73.9548526 22.2884139 73.6679072 21.4203247 73.6679072 20.2624995 73.3787289 19.3932917 73.0873175 19.3932917 72.223132 19.6830276 71.0675351 19.6830276 70.1988835 19.9727636 69.3335814 19.6830276 68.4671629 18.5252025 68.176868 17.3673773 68.176868 17.6571133 66.7320928 17.9468492 65.5764958 17.3673773 64.7100773 16.2095522 64.7100773 15.341463 65.2873175 15.341463 66.4429144 14.4733738 67.0212711 13.0258127 67.311566 12.1577235 67.0212711 11.2885156 66.4429144 10.7101623 65.8656742 10.4204264 64.4208989 11.2885156 63.8447753 12.1577235 63.5533639 13.3155486 62.9772402 14.1836378 62.3988835 13.8939019 61.2432866 12.7360767 60.9541082 11.8679875 60.3779845 11.2885156 59.2201546 10.4204264 58.6440309 9.55233719 58.9332093 8.39451204 59.5104495 6.94583225 59.7985113 6.36747901 59.7985113 5.49938982 58.9332093 4.0518287 58.9332093 3.47347546 57.7787289 2.60426759 56.6208989 1.44644244 56.0436587 0.868089198 54.8880618 0 54.3119382 0 52.8671629 1.15782515 52.576868 2.02591435 51.711566 2.60426759 50.2656742 2.89400355 48.8220155 2.89400355 47.3772402 3.47347546 46.2216433 4.9199179 45.9335814 6.07774306 46.2216433 7.52642284 46.5108216 8.68424799 45.6455196 9.26260124 44.4888062 9.55233719 43.3343258 8.68424799 42.1787289 7.52642284 41.5992557 6.65721497 40.4425422 5.20965386 38.9988835 2.89400355 37.2649299 2.89400355 36.1104495 2.60426759 34.9559691 4.34156466 34.0873175 5.7880071 34.0873175 6.94583225 34.9559691 8.39451204 34.9559691 8.39451204 34.6656742 8.97398395 33.7992557 8.39451204 32.3555969 6.07774306 31.2 6.36747901 30.0444031 7.23556821 28.5985113 8.68424799 28.5985113 9.26260124 29.7541082 10.1318091 30.9097051 10.7101623 29.4649299 10.9998983 28.0212711 10.1318091 26.8656742 9.26260124 25.9992557 8.10477608 25.7100773 7.52642284 24.5544804 7.8161588 23.3988835 9.26260124 22.8227598 10.4204264 23.3988835 11.2885156 24.5544804 12.4474594 24.5544804 13.6052846 25.1328371 15.051727 25.1328371 15.341463 23.6880618 14.7619911 22.5324649 13.6052846 21.6660464 13.6052846 20.511566 13.8939019 19.3548526 15.051727 18.4873175 17.9468492 17.9100773 18.8149384 16.465302 19.6830276 15.3097051 20.5522355 14.4444031 21.708942 14.7324649 22.2884139 13.5757515 22.2884139 12.4190381 21.9986779 10.9764958 20.8408528 10.1089608 19.6830276 10.3981391 18.5252025 9.24254223 19.1046744 8.08694532 18.2354665 7.22164329 17.6571133 6.06604638 17.0776414 4.33097624 17.6571133 3.17649585 18.8149384 2.3100773 19.9727636 2.3100773 21.1305887 1.73172058 21.9986779 0.576123676"></polyline>
    </g>
</svg>