<?xml version="1.0" encoding="UTF-8"?>
<svg width="88px" height="78px" viewBox="0 0 88 78" version="1.1" xmlns="http://www.w3.org/2000/svg" xmlns:xlink="http://www.w3.org/1999/xlink">
    <!-- Generator: Sketch 50.2 (55047) - http://www.bohemiancoding.com/sketch -->
    <title>Jaunpur</title>
    <desc>Created with Sketch.</desc>
    <defs></defs>
    <g id="Page-1" stroke="none" stroke-width="1" fill="none" fill-rule="evenodd">
        <polyline id="Jaunpur" fill="#F4DDB5" fill-rule="nonzero" points="31.3565504 18.0555383 31.3565504 17.8145621 32.0799408 17.0925639 32.3213817 16.3696352 32.0799408 15.6494978 31.5989235 14.9256388 31.3565504 14.4455472 30.8736687 13.7235489 30.3917191 12.7596441 29.9088374 12.0367154 29.185447 11.5566238 29.185447 10.5936494 29.4278201 9.87072071 28.7044296 9.14872248 27.980107 8.90774626 27.4972253 7.94477181 27.2567166 7.22184317 27.4972253 6.0178925 27.2567166 5.29589427 26.7738349 4.0919436 27.4972253 3.85096739 28.4620566 4.0919436 30.1502783 4.0919436 30.8736687 3.12896915 31.5989235 3.12896915 31.3565504 3.85096739 31.8394321 4.81394184 32.8051956 5.05398764 33.5276538 5.05398764 34.4915529 4.81394184 34.9744346 4.33385023 36.4230799 4.33385023 37.1455381 4.81394184 38.1103693 4.81394184 38.5932511 4.33385023 39.0752006 3.61185199 39.3166415 2.64794713 39.3166415 1.9259489 39.5571502 1.20395066 40.5219814 0 42.4525762 0 43.4174075 0.240045805 43.899357 1.20395066 44.6236796 0.721998235 45.5894431 0.48195243 46.3119013 0.48195243 47.0362239 0.96297445 47.5181734 1.44399647 48.2415639 1.68497268 48.7235134 1.44399647 48.7235134 3.12896915 48.9658865 4.0919436 49.447836 4.81394184 49.6883447 5.5387313 49.9297855 6.0178925 49.9297855 6.98179736 50.1721586 7.70472601 51.1369899 8.18574803 51.1369899 8.90774626 50.6541082 9.38969869 49.2063951 9.87072071 49.2063951 10.8336952 49.9297855 11.3147172 50.4126673 12.0367154 50.4126673 12.7596441 50.1721586 13.2415965 50.1721586 14.2036405 50.6541082 14.685593 51.8594481 14.9256388 52.5828385 15.4085216 53.3062289 16.3696352 53.548602 17.3335401 53.548602 18.2965145 54.0305515 19.0185128 54.5134333 19.5004652 54.9953828 20.4643701 54.9953828 22.6303648 55.2358915 23.3505022 55.9611463 23.8324546 56.4430958 24.7963595 56.4430958 25.9993797 56.2007227 26.9623542 56.2007227 27.6862132 56.4430958 28.4063506 56.6836045 29.3702555 56.4430958 30.33323 55.7197054 30.8151824 55.7197054 31.7781568 56.4430958 32.5001551 57.4069949 32.5001551 58.1322497 32.9821075 58.613267 33.7041057 58.8547079 34.6680106 59.0952166 35.630985 59.3375896 36.5939595 59.5780983 37.3150273 60.3024209 37.3150273 60.7843705 37.7960493 61.26632 38.7599542 61.9897104 38.7599542 62.2311513 39 63.9221696 39 64.6446278 39.2409762 64.8851364 39.7229286 65.1275095 39.9629744 66.0923408 40.2039507 66.8157312 40.2039507 67.5391216 39.9629744 68.7453937 39.9629744 69.9507337 40.4439965 70.6750563 40.6859031 71.6389554 41.1659947 71.1570058 42.1298996 70.6750563 42.3699454 69.9507337 42.8509674 70.1921746 43.8148722 71.1570058 44.5378009 71.8813285 44.2958943 73.0876006 44.2958943 73.8100588 44.5378009 74.0514997 45.2588687 74.5334492 45.980867 75.4992127 46.2209128 76.7045526 45.980867 77.1865022 46.2209128 77.9108248 47.4248634 78.6342152 47.9068159 79.3566734 48.1477921 79.8404873 47.1848176 80.3224369 46.4628194 80.8043864 45.980867 81.5277768 45.0178925 82.4935403 45.0178925 83.2169307 45.4989145 83.6988802 46.4628194 84.4232028 47.1848176 84.6655759 47.9068159 85.6304072 47.1848176 86.3528654 47.1848176 86.8366793 47.9068159 87.077188 48.8697903 86.3528654 49.8327647 86.3528654 50.7957392 87.077188 51.5186678 87.077188 51.7605745 86.5943063 52.4816423 86.3528654 53.2027101 86.8366793 53.9265692 87.5600698 54.8886132 87.5600698 55.6124723 87.3167645 56.8154925 87.3167645 57.778467 87.5600698 58.4995348 87.5600698 59.7044159 87.3167645 60.4254837 87.3167645 61.3884581 87.077188 62.3505022 87.077188 62.5933392 85.8699837 62.5933392 83.9412533 61.6303648 82.734049 60.4254837 82.0115908 59.9444617 80.8043864 59.7044159 79.8404873 59.7044159 79.1170969 60.1854379 77.9108248 61.3884581 76.9459935 62.1104564 76.2226031 62.8343154 75.2577718 62.8343154 74.7748901 62.1104564 74.7748901 61.3884581 74.5334492 60.4254837 74.2929405 59.7044159 73.0876006 59.7044159 72.1209049 60.1854379 71.6389554 60.6673903 70.9164972 60.6673903 70.1921746 60.4254837 69.2273433 59.9444617 67.7796303 59.4625092 67.0562399 60.4254837 66.3328495 61.1474819 65.6085268 61.3884581 64.4013225 62.3505022 63.4383556 62.5933392 62.2311513 63.314407 61.7492017 64.0364053 60.3024209 64.9993797 59.3375896 64.9993797 58.8547079 64.7602643 57.8898766 64.5183577 57.1664862 64.2773815 56.6836045 63.5553833 55.7197054 63.314407 54.7548741 63.314407 54.0305515 63.5553833 53.7891106 64.2773815 54.0305515 65.7204476 53.548602 66.6862132 53.0657202 67.4072811 53.3062289 68.3702555 54.0305515 68.8522079 54.9953828 69.8151824 54.9953828 71.7411313 53.7891106 73.6680106 53.7891106 74.3890784 53.0657202 75.3520529 52.5828385 76.3150273 52.100889 77.0370256 52.5828385 77.7599542 52.8242794 78 50.8946168 78 50.1721586 77.7599542 49.2063951 77.518978 48.000123 77.2761409 47.0362239 77.0370256 46.5542744 76.5550731 45.5894431 76.5550731 44.383171 76.0731207 44.6236796 75.3520529 44.383171 74.1471718 43.6588483 73.4251736 42.2111353 72.9432211 41.4858805 73.1841973 41.246304 73.9080564 41.246304 74.8710308 40.5219814 75.3520529 39.7995232 75.1110767 39.7995232 74.3890784 40.0400319 72.9432211 39.5571502 72.2212229 39.0752006 71.7411313 38.1103693 72.2212229 37.6284198 72.9432211 36.9040972 73.6680106 36.1807068 73.4251736 35.4573164 73.4251736 35.2168077 72.7031753 34.7348582 71.7411313 34.2510442 70.7781568 33.5276538 70.5362502 33.0457043 69.8151824 31.1151095 69.8151824 30.6340922 69.33323 30.3917191 68.3702555 28.4620566 68.3702555 27.7386662 67.8892335 27.016208 67.1663048 26.0513767 66.9243982 25.3251897 67.1663048 24.3612906 67.8892335 23.636968 68.1292793 22.9145098 67.8892335 22.431628 67.4072811 21.4686612 67.6482573 20.7424742 67.8892335 20.2614568 67.8892335 20.2614568 67.4072811 19.7776429 66.6862132 19.2966255 65.7204476 18.3308621 65.2403559 17.8489125 64.7602643 17.6074717 63.7972899 16.8840812 63.0734308 14.7129778 63.0734308 13.5076379 62.5933392 12.7823831 61.871341 12.3013657 61.1474819 11.5770431 60.1854379 11.3356023 59.4625092 10.370771 59.2224634 9.16449883 59.7044159 8.92492236 58.9814872 8.68348149 58.259489 7.95915888 58.259489 7.95915888 59.2224634 6.99432761 59.7044159 6.270005 59.4625092 3.37551116 59.4625092 2.65212076 58.7414414 2.41161209 58.7414414 2.17017122 58.259489 1.92966255 57.5365603 1.68728948 57.0555383 1.44678081 56.3335401 1.20533994 55.3696352 0.481949536 54.8886132 0 54.4075912 0 52.4816423 0.240508666 51.2767612 0.963899073 50.5556934 1.68728948 50.7957392 2.41161209 51.2767612 3.1359347 51.2767612 3.8583929 50.7957392 4.10076598 50.073741 4.10076598 49.3508123 4.82322418 48.6288141 5.30703813 49.1107665 6.02949633 49.1107665 6.51331027 48.3878379 6.51331027 46.7037956 6.75288674 45.980867 6.99432761 45.0178925 6.99432761 44.2958943 6.51331027 43.8148722 5.78805546 42.8509674 5.78805546 41.4079013 6.02949633 40.6859031 5.78805546 40.2039507 5.30703813 39.481022 4.82322418 39 4.82322418 38.2761409 5.06466505 37.3150273 5.06466505 37.0731207 5.54661459 36.5939595 5.78805546 35.86917 5.30703813 35.1481022 5.30703813 34.426104 5.54661459 33.7041057 6.270005 33.7041057 6.99432761 34.1851278 7.71865022 34.426104 8.19966755 33.9441515 8.68348149 33.2221533 9.4059397 32.7420617 10.6122118 32.2591789 11.3356023 32.5001551 12.0589927 32.5001551 13.0247561 32.019133 13.5076379 31.295274 14.4724692 30.33323 14.4724692 29.6121621 14.7129778 28.4063506 14.9534865 27.4443066 15.1949274 26.4822626 15.91925 25.7602643 16.6426404 25.9993797 18.5713707 26.9623542 19.0551847 26.2403559 19.7776429 25.2773815 20.5010333 25.2773815 21.2253559 25.5192881 21.9496785 25.5192881 22.9145098 25.9993797 23.8793411 26.2403559 24.1207819 25.5192881 23.636968 24.5563137 23.1559507 23.8324546 22.431628 23.3505022 21.9496785 22.6303648 21.2253559 22.1456211 20.5010333 21.9074361 19.2966255 21.4264141 19.7776429 20.4643701 20.5010333 20.2224634 21.2253559 19.7414414 21.9496785 19.5004652 22.9145098 19.5004652 23.636968 19.7414414 25.084681 19.7414414 25.3251897 18.7766062 25.084681 18.0555383 25.3251897 17.5745163 26.2918854 17.0925639 27.4972253 16.8515877 28.2215479 16.8515877 29.4278201 17.0925639 30.1502783 17.5745163 30.8736687 18.5374908 31.3565504 18.0555383"></polyline>
    </g>
</svg>