<?xml version="1.0" encoding="UTF-8"?>
<svg width="57px" height="78px" viewBox="0 0 57 78" version="1.1" xmlns="http://www.w3.org/2000/svg" xmlns:xlink="http://www.w3.org/1999/xlink">
    <!-- Generator: Sketch 50.2 (55047) - http://www.bohemiancoding.com/sketch -->
    <title>Lalitpur</title>
    <desc>Created with Sketch.</desc>
    <defs></defs>
    <g id="Page-1" stroke="none" stroke-width="1" fill="none" fill-rule="evenodd">
        <polyline id="Lalitpur" fill="#F4DDB5" fill-rule="nonzero" points="18.5820266 4.7270385 18.7643759 4.90903686 19.4930691 5.27233088 20.5857567 5.45432924 21.3144498 5.09103522 21.8607937 4.18174611 22.5894868 3.81845209 23.5005292 3.09045864 24.046873 2.18257493 24.5939209 1.63657985 25.5042593 1.27258313 27.6910427 0.18199836 28.9667837 0 28.9667837 0.18199836 29.3307782 1.09058477 29.5131275 1.99987388 30.2418207 3.81845209 30.4234659 4.7270385 30.4234659 5.81762326 30.6058152 6.54491401 30.6058152 7.27220475 31.1528631 8.18219656 31.8808521 8.54549058 32.7918946 8.72608355 33.3382384 9.45407699 33.5205877 10.3640688 33.8852863 11.2719525 34.0669315 12.36324 33.8852863 13.4545274 34.0669315 14.5458149 33.8852863 15.272403 32.6095453 16.5456888 32.0632014 17.2729795 31.6992069 18.1815659 32.6095453 18.5455627 32.6095453 19.6368501 33.5205877 19.9994414 34.2492808 19.9994414 34.7956246 20.9080279 35.1603232 21.8180197 35.3419685 22.5446077 36.0713656 23.9998919 36.7993547 24.5451843 37.8927464 24.7271826 38.9854341 26.1810614 39.7141272 26.1810614 40.6251696 25.9990631 41.7178573 25.9990631 42.6288997 26.3637625 42.811249 27.6356429 43.5406462 28.181638 44.08699 29.0909271 43.7229955 29.8175152 42.6288997 31.2720966 41.9002066 32.5467879 41.7178573 33.6366699 41.9002066 35.0912514 42.0825559 36.1818362 42.4472544 37.091828 41.9002066 37.6364177 41.536212 38.7284079 41.9002066 39.8182899 41.536212 40.5455807 40.9898682 41.2728714 40.260471 41.4541671 39.8964765 43.2741507 39.8964765 44.1813317 40.260471 44.9086224 40.4428203 45.8179116 40.8075189 46.728606 41.3538627 47.2731957 42.4472544 46.5452023 43.1759476 46.182611 43.9053447 45.9992072 45.1803817 46.182611 45.9090748 45.9992072 46.4554186 45.0892154 47.0017625 44.7280295 47.9128049 44.3633301 48.641498 44.0007387 49.1878418 43.454041 50.0988843 43.2741507 50.6452281 44.0007387 51.0092226 44.7280295 51.1915719 45.4553202 51.5562705 46.5452023 51.5562705 47.4551941 52.1026143 48.3637805 53.0129527 48.5457789 53.7423499 49.0910713 54.471043 49.2737723 54.8350375 50.1823587 54.1063444 51.9995315 54.471043 53.2728174 55.1997361 53.8188124 55.7460799 54.5461032 55.1997361 55.636688 54.2886937 55.8186863 53.7423499 55.4539869 52.6489582 54.1821065 51.5562705 54.3641048 50.8275774 54.7273989 50.2812336 55.4539869 50.6452281 56.363276 51.5562705 56.9099738 52.4666089 57.2718624 53.195302 57.6372645 53.195302 58.5458509 53.3776513 59.6364357 54.1063444 60.1817281 55.0173868 60.3637265 55.7460799 59.6364357 56.4747731 59.4544373 56.4747731 62.1823047 56.2924238 62.9102981 55.9284292 64.0001802 55.0173868 65.8187584 54.2886937 66.3640508 53.7423499 66.9093432 53.0129527 67.4553382 52.4666089 68.1833317 51.7386198 68.7279214 51.5562705 69.6372105 51.920265 70.3637985 51.920265 71.455086 51.3739212 72.0003784 50.2812336 72.1823767 49.5525404 72.3636724 49.7341857 73.8182539 49.3701911 74.9095414 49.0054925 75.6368321 48.2767994 76.1821245 47.1841118 76.3641228 46.6377679 75.8188305 45.7267255 75.454131 45.1803817 76.1821245 44.8156831 77.273412 44.08699 78 43.1759476 77.8180016 42.4472544 77.273412 41.9002066 76.7274169 40.9898682 76.1821245 40.6251696 75.454131 40.8075189 74.5448419 41.3538627 74.0002522 41.3538627 73.2729615 40.4428203 72.7283718 39.7141272 73.0909631 39.3501327 73.8182539 38.256741 73.8182539 37.3464026 74.0002522 36.6177095 74.1829533 35.7066671 74.5448419 32.9742439 73.4556626 32.4279 72.9096675 32.9742439 71.6370844 32.6095453 70.7277952 32.0632014 70.3637985 30.9705138 70.0005045 30.2418207 70.0005045 30.0594714 69.0912154 29.6947728 68.3639246 28.7844344 68.3639246 28.2373865 67.6359312 28.0557413 66.5460491 28.4197358 65.8187584 28.4197358 64.5461753 27.3270482 64.5461753 26.597651 64.3648796 25.6866086 64.1814758 24.5939209 64.0001802 23.6828785 63.8181818 22.9541854 63.271484 22.4078416 62.5455987 21.8607937 62.1823047 21.8607937 62.0003063 20.9504553 61.6356069 20.2217622 61.6356069 19.6754184 62.5455987 19.8570636 63.8181818 20.4041115 64.5461753 20.5857567 65.63676 19.8570636 66.0014594 18.9467252 66.0014594 18.2180321 65.63676 18.0356828 66.5460491 17.3069897 68.0006306 16.5782966 68.5452203 16.0319527 69.2739165 15.6672542 70.1818002 15.3032596 71.6370844 14.3922172 71.455086 13.8458734 70.7277952 13.4811748 70.0005045 12.7524817 69.6372105 11.8421433 69.4538067 11.2957995 68.9106224 10.9311009 67.6359312 11.1134502 66.5460491 11.8421433 65.0921703 12.2061378 64.1814758 12.2061378 63.271484 12.0237885 62.3636003 11.2957995 60.9090188 10.7487516 60.3637265 10.0193544 60.7270205 9.2906613 60.7270205 9.2906613 59.6364357 9.10831201 58.3645553 8.56196818 57.9998559 7.65092576 57.6372645 6.5582381 57.2718624 6.01189427 56.7279754 6.37588881 55.8186863 6.01189427 54.3641048 5.10085186 54.0001081 3.82581491 53.4548157 3.82581491 51.6362375 4.00746015 50.9096495 4.00746015 49.6363636 4.37215873 48.9097756 5.28320115 48.7277772 5.82954498 48.1824848 6.01189427 47.0904947 6.01189427 44.1813317 5.82954498 43.2741507 5.82954498 41.9994595 6.37588881 40.9095774 6.37588881 38.7284079 5.82954498 38.0004144 5.28320115 37.091828 4.91850256 36.5458329 4.37215873 35.8185422 4.18980944 34.726552 4.00746015 33.8172629 4.00746015 33.0913776 3.82581491 32.1820884 3.82581491 31.2720966 3.64346561 30.3642129 3.46111632 29.6362195 3.27947108 28.7276331 2.91477249 27.8169386 2.18607937 27.6356429 1.45738624 27.0903505 0.728693122 26.7270565 0.182349293 25.9990631 0 25.0904767 0.182349293 24.3624832 0.911042416 23.8178935 2.7324232 22.0007207 3.46111632 21.0914316 4.18980944 20.9080279 5.10085186 20.1821425 6.01189427 19.2728534 6.5582381 18.5455627 7.46928052 18.1815659 7.65092576 18.0002703 8.37961888 17.4556806 9.47301059 16.0003964 10.0193544 15.455104 10.7487516 14.9091089 11.1134502 14.1818182 11.8421433 13.4545274 12.2061378 12.1805389 12.2061378 11.4539509 12.3884871 10.5460672 12.3884871 8.54549058 12.934831 7.45490581 13.6635241 6.90961343 14.3922172 6.72761507 15.1209103 6.18091729 15.4849049 5.45432924 16.0319527 5.09103522 16.9422911 4.90903686 18.5820266 4.90903686 18.5820266 4.7270385"></polyline>
    </g>
</svg>