<?xml version="1.0" encoding="UTF-8"?>
<svg width="114px" height="78px" viewBox="0 0 114 78" version="1.1" xmlns="http://www.w3.org/2000/svg" xmlns:xlink="http://www.w3.org/1999/xlink">
    <!-- Generator: Sketch 50.2 (55047) - http://www.bohemiancoding.com/sketch -->
    <title>Mahoba</title>
    <desc>Created with Sketch.</desc>
    <defs></defs>
    <g id="Page-1" stroke="none" stroke-width="1" fill="none" fill-rule="evenodd">
        <path d="M81.2262436,2.72633373 L81.909471,4.08884238 L83.6149016,3.06597357 L83.2746069,1.70346492 L82.2510847,1.02286881 L82.9343122,0 L84.299448,0.339639837 L85.3229702,1.02550168 L86.6867871,1.70609779 L87.7103092,2.7289666 L88.0519229,3.40824627 L86.6867871,4.09410812 L87.7103092,5.11171119 L88.7338314,5.45530033 L90.0976483,5.79494017 L90.440581,6.47685271 L90.7821947,7.49840509 L91.8057168,8.18163407 L93.1695337,10.2247388 L93.5124664,11.585931 L94.1943749,12.9484397 L94.8776023,12.6087999 L94.8776023,9.88246612 L93.8540801,8.86223017 L94.1956938,8.18163407 L95.5608297,7.49840509 L96.9259656,7.49840509 L97.2688982,8.85959731 L97.610512,10.222106 L97.9494877,11.2436583 L100.000489,9.87983325 L99.6575563,10.9027021 L98.6353531,12.2638943 L99.6575563,13.2828138 L100.342103,12.6035341 L101.024011,11.5806653 L102.047533,12.2638943 L103.413988,12.9458068 L104.095897,13.6277194 L104.095897,17.7152453 L105.119419,18.7367977 L105.461032,18.394525 L105.461032,16.6923765 L105.119419,15.3298679 L105.801327,15.3298679 L107.167782,16.3487874 L110.238348,18.394525 L111.603484,18.7367977 L113.310234,20.4402626 L112.286712,20.0993063 L111.26319,20.4402626 L110.921576,21.4591821 L108.873213,21.4591821 L108.191304,22.4833674 L107.506758,23.1639635 L105.800008,24.5251557 L105.1181,24.866112 L106.140303,25.5493409 L106.140303,26.5695769 L105.798689,27.5898128 L104.776486,28.2743582 L104.093259,29.2932778 L103.41135,30.9980591 L103.41135,35.4252249 L102.726804,35.7648647 L101.020054,36.105821 L98.9730099,36.105821 L96.9233276,35.4252249 L95.5581918,36.4467773 L94.1930559,36.78905 L93.5111474,38.8308383 L93.1682148,40.1920305 L91.8043979,41.2135829 L90.0963293,41.8954954 L89.4144209,43.2580041 L89.0728072,44.961469 L88.049285,46.3239777 L86.3425354,46.3239777 L84.2954911,45.9803885 L82.2471278,46.6662504 L83.27065,48.3670824 L82.9290363,49.7295911 L81.9055141,51.0947326 L80.1987645,51.0947326 L79.5155371,49.7295911 L79.8571508,48.028759 L78.492015,48.028759 L76.7852654,48.7080387 L75.0798348,48.7080387 L73.7146989,51.4343724 L73.0314715,53.1378373 L73.3730852,55.1822585 L74.0549936,57.2240469 L75.0798348,58.5865555 L75.4201295,60.6309767 L75.7617432,62.335758 L75.0798348,64.3801792 L73.0314715,64.7198191 L71.6663356,65.4017316 L71.3247219,66.7642403 L71.3247219,68.807345 L70.3011997,69.8288974 L68.5944502,69.490574 L67.2293143,68.4677052 L66.2044732,67.7871091 L64.8406563,66.7642403 L63.8171341,65.7453208 L62.793612,64.3828121 L61.0868624,63.6995831 L59.7217265,63.3586269 L57.3330685,63.3586269 L55.9679326,64.3801792 L54.9457294,65.3990987 L53.2376609,64.3801792 L50.5087081,65.7426879 L48.8019585,66.4246004 L46.7535953,66.0836442 L45.3897784,66.4246004 L43.6830288,67.1051965 L41.6346655,67.1051965 L40.9514381,65.4017316 L41.9762792,64.0405394 L43.3387771,62.6793472 L42.6568687,61.3168385 L40.9501191,61.3168385 L39.2446885,61.6577948 L38.5601421,60.2952862 L37.1963252,59.2776831 L36.1728031,60.6375589 L36.1728031,61.9987511 L34.4647345,63.0203035 L32.7579849,63.702216 L32.0747575,65.0660411 L32.4163712,67.1091458 L32.0747575,68.8112943 L29.3458048,70.8583484 L27.6390552,71.5376281 L26.2739193,71.8785843 L25.2503971,70.8609812 L25.5920109,68.8139272 L26.2752383,67.452735 L26.616852,65.7505865 L25.9349435,64.7277177 L24.5698077,65.4109467 L22.5201254,65.7532194 L22.5201254,64.3907107 L21.838217,62.6872458 L20.1314674,63.0282021 L19.7898537,65.0739397 L18.7663315,66.4351319 L17.7441283,65.7532194 L16.3789925,64.3907107 L15.6944461,62.6872458 L16.0360598,61.3247371 L16.3789925,59.6225886 L16.3789925,57.9204402 L18.7676505,56.8975713 L20.1327864,55.5363791 L20.8146948,54.1738705 L21.4992412,52.471722 L21.8408549,50.7695735 L23.2046718,50.0837117 L24.9114214,49.4031156 L26.2765572,48.0419233 L26.618171,46.337142 L26.2765572,44.6336771 L24.9114214,43.6121247 L23.2046718,44.2940372 L22.1811496,45.6565459 L21.1589465,46.6794147 L19.4521969,45.9948693 L18.087061,44.6336771 L16.7219251,42.9288957 L15.0164945,41.5690199 L13.6513587,40.2051948 L12.2862228,40.2051948 L11.9446091,41.9086598 L10.5794732,41.9086598 L9.21433736,40.8884238 L9.21433736,37.481494 L7.8492015,36.4625745 L6.4853846,35.7780291 L4.77863502,35.4383892 L2.72895276,34.4155204 L2.38733905,34.4155204 L1.70411163,33.0543282 L1.36249792,31.693136 L1.36249792,30.6715836 L2.04572534,29.9883546 L2.04572534,29.6500312 L2.72895276,28.6284788 L3.0692475,27.60561 L3.75379389,26.5853741 L4.43702131,25.9034615 L4.77995399,24.8819092 L4.77995399,23.5220334 L5.46318141,22.5017974 L6.48670357,22.1595247 L7.85052047,21.4749793 L8.53374789,20.7943832 L8.8753616,19.0909183 L8.53374789,18.0693659 L8.53374789,16.7081737 L9.21697531,15.6866213 L10.5821112,14.6650689 L10.9237249,13.9844728 L11.6082713,12.961604 L11.6082713,11.2594555 L12.2901797,10.2379032 L12.6317934,9.21766721 L13.6553156,8.5331218 L13.6553156,7.49313936 L14.337224,5.78967444 L14.6801567,4.76812206 L15.7023599,5.10907833 L17.7520422,6.47158698 L18.7742454,7.83409563 L20.4809949,9.87720038 L21.8461308,9.87720038 L23.8931751,10.5604294 L25.258311,10.9027021 L26.6234468,10.9027021 L28.3301964,11.2436583 L29.3537186,11.2436583 L30.3759218,10.9027021 L32.0826713,11.2436583 L34.1323536,11.5832982 L35.1545568,11.2436583 L35.4974895,10.9027021 L36.1807169,10.9027021 L36.8639443,11.922938 L37.8874665,12.2638943 L38.9109886,11.922938 L39.5928971,11.2410255 L40.2761245,10.2181567 L41.984193,10.2181567 L43.0063962,10.9027021 L44.0299184,11.922938 L45.0521216,12.2638943 L46.4172574,12.2638943 L47.4407796,11.922938 L48.124007,11.2410255 L48.124007,10.2181567 L49.4891429,9.53756055 L50.512665,10.2181567 L50.8529598,8.85696444 L51.5361872,7.83672849 L52.2207336,7.15481595 L53.9261642,6.81385968 L54.6093916,6.81385968 L55.293938,6.47158698 L56.3161412,5.78967444 L57.3396634,6.13063071 L58.0215718,7.15218309 L59.7283214,7.15218309 L61.7780036,6.13063071 L62.4599121,5.44871817 L63.1444585,3.74393681 L64.8498891,3.0633407 L66.213706,3.0633407 L66.213706,2.04047189 L66.8995713,1.02286881 L68.6050019,1.02286881 L70.9949789,3.40561341 L71.6782064,4.42848222 L72.7030475,4.42848222 L74.4084781,4.08884238 L76.4568414,3.40298054 L78.162272,3.74393681 L78.8468184,2.72633373 L79.5287268,2.04047189 L80.552249,1.70083205 L81.2262436,2.72633373 M1.3638169,51.4343724 L1.3638169,49.7322239 L3.41218018,49.7322239 L4.09408863,51.0947326 L5.11761079,52.4546084 L5.79951924,53.817117 L6.82436037,55.1796257 L8.87140468,55.5192655 L10.5781543,54.1567568 L10.9210869,52.7968811 L11.6029954,51.0947326 L9.55595107,49.0476785 L10.2391785,47.0045738 L9.21433736,45.6420651 L7.50758779,45.6420651 L6.14377089,44.2795565 L6.14377089,42.577408 L4.43834028,41.8954954 L2.73027174,43.2580041 L2.04704432,44.6178799 L0,44.9601526 L0,47.682537 L0.34161371,49.0450457 L1.36513587,50.4075543 L1.36513587,51.4343724 M16.3803114,70.8504498 L16.0386977,69.4879411 L13.9903344,66.7616074 L13.307107,65.7426879 L11.6016764,65.4004152 L10.91713,66.7616074 L10.91713,68.1254325 L11.9406522,69.8262645 L12.6251986,71.1900896 L12.2822659,72.5525983 L11.2600627,73.5728342 L10.2365405,75.2749827 L10.918449,76.6374914 L12.6265175,76.6374914 L13.9903344,75.9555788 L14.6748808,77.3180875 L16.3803114,77.6577273 L17.7454473,78 L19.4521969,76.9784476 L19.4521969,75.2749827 L19.1105832,73.9137905 L18.087061,72.5525983 L16.3803114,70.8504498" id="Mahoba" fill="#F4DDB5" fill-rule="nonzero"></path>
    </g>
</svg>