<?xml version="1.0" encoding="UTF-8"?>
<svg width="59px" height="78px" viewBox="0 0 59 78" version="1.1" xmlns="http://www.w3.org/2000/svg" xmlns:xlink="http://www.w3.org/1999/xlink">
    <!-- Generator: Sketch 50.2 (55047) - http://www.bohemiancoding.com/sketch -->
    <title>Mathura</title>
    <desc>Created with Sketch.</desc>
    <defs></defs>
    <g id="Page-1" stroke="none" stroke-width="1" fill="none" fill-rule="evenodd">
        <polyline id="Mathura" fill="#F4DDB5" fill-rule="nonzero" points="17.0800547 2.84086459 17.856148 3.3569317 19.6673659 3.3569317 20.9615216 2.84086459 21.9966461 2.32379929 23.0317706 2.58233194 23.0317706 2.84086459 24.3259263 3.87299881 25.8781131 3.87299881 26.6542064 3.09839905 27.6903311 2.84086459 30.2786424 3.3569317 31.3137669 2.84086459 32.0898603 1.80773218 32.6079226 0.774599762 33.384016 0 34.6781717 0.774599762 35.454265 1.80773218 37.2654829 3.09839905 38.8186698 3.09839905 40.3708565 3.61646255 41.9240433 4.39006411 42.9581677 4.64959496 43.4762301 5.94026183 44.7703857 6.19779629 44.7703857 7.48946136 45.8055103 8.52159558 46.0635413 9.81425884 47.357697 9.55572619 48.1347905 10.3303259 47.0986658 12.3965908 47.357697 13.9457903 47.8757593 13.9457903 49.427946 14.7203901 49.6869772 15.7545207 49.9450082 17.8207855 50.9811329 19.6295159 50.7221017 20.9201827 49.427946 21.6947825 48.3928215 22.4703805 47.357697 22.9874458 48.3928215 25.0527124 47.8757593 26.0858448 47.6167281 27.6350443 48.9108838 28.4106423 50.4630705 28.4106423 50.4630705 29.4447729 51.2391639 30.4769071 52.7923508 30.7344416 52.5343197 31.767574 51.7572262 32.8007064 52.7923508 33.8338388 53.5694442 34.8679694 53.5694442 36.417169 54.0865064 37.4503014 55.3806621 38.2249011 56.6748178 37.7078358 56.933849 38.4824356 57.19188 38.7419664 57.19188 40.0326333 56.6748178 41.0667639 55.121631 41.8413637 54.8635999 42.8744961 55.121631 44.4236956 55.6396933 45.7153607 55.3806621 47.0060276 55.6396933 48.5562253 54.3455376 48.8157561 54.3455376 50.3639575 54.8635999 51.3970899 55.6396933 52.6887549 55.3806621 53.7208892 55.121631 54.2389527 54.6045688 54.7550198 53.5694442 55.5296195 53.5694442 56.8202864 54.0865064 57.8534188 54.6045688 59.1450839 54.6045688 60.1782163 54.0865064 61.4688832 54.6045688 62.5020156 55.121631 63.7936807 55.3806621 65.0863439 55.3806621 66.378009 56.6748178 67.6686759 57.4509112 68.7018083 57.7099423 69.9934733 57.9679734 70.252006 58.4860357 71.5426729 58.4860357 72.0597382 57.9679734 73.6099359 56.6748178 73.6099359 55.6396933 72.5778017 55.6396933 71.0266058 55.3806621 69.7349407 54.6045688 68.4442738 53.5694442 68.9603409 53.5694442 71.2851384 52.2742884 71.8012055 51.2391639 71.2851384 50.7221017 69.9934733 49.427946 70.252006 48.1347905 70.7680731 46.0635413 72.3172726 46.0635413 73.6099359 45.5464791 74.9006028 44.2523234 74.9006028 43.2171989 73.8674703 41.6650122 73.6099359 40.3708565 73.8674703 38.8186698 73.6099359 37.5245141 73.3514032 36.4893896 72.8343379 34.9362027 73.0928706 33.6430472 73.8674703 32.8659537 75.1591354 32.0898603 74.126003 31.3137669 75.1591354 30.7957046 76.4498023 30.2786424 77.4829347 29.2435179 78 28.7244555 76.7083349 28.9834866 75.4166699 29.5025491 74.126003 29.5025491 72.8343379 29.2435179 71.5426729 28.7244555 70.252006 28.9834866 68.9603409 30.2786424 68.1857412 30.5376736 66.6355434 30.2786424 65.3448766 29.2435179 64.310746 27.9483621 64.5682804 26.9132376 65.0863439 25.8781131 65.0863439 24.8429885 64.8278113 23.0317706 63.0190809 21.9966461 62.2454793 21.2205528 61.4688832 19.1503037 59.9196836 17.5971169 60.1782163 16.3039613 60.6952816 14.7507745 60.1782163 13.9746811 59.4036165 12.9395566 58.6280186 11.9044321 58.6280186 10.8693075 57.8534188 10.0932142 57.0788191 10.3522453 55.787154 11.3873699 54.7550198 12.1634632 53.2048221 11.1283387 52.1716896 10.0932142 51.913157 9.31712082 50.8800246 9.57515186 49.5893577 9.31712082 48.5562253 8.7990585 47.2645602 8.02296514 46.2314278 6.98784061 45.456828 6.21174725 44.6822283 5.17662273 43.9076285 4.39952925 42.8744961 3.36440473 42.0988981 2.58731125 41.0667639 2.3292802 41.0667639 3.10537357 39.7741007 4.14049809 39.2570354 4.65756029 38.2249011 4.39952925 36.9332361 3.36440473 36.1576381 2.07024904 36.1576381 1.03512452 35.1255039 1.03512452 34.0923715 2.07024904 33.3167735 3.36440473 33.0582409 4.39952925 32.5421738 4.39952925 30.2183745 4.14049809 28.9267094 3.88146693 27.6350443 3.88146693 25.0527124 2.58731125 24.5356471 1.81121788 23.7610473 2.07024904 22.7289131 2.84634241 21.4362499 2.3292802 20.4041156 1.55218672 19.3709832 2.3292802 18.5963835 2.07024904 17.563251 1.03512452 16.7876531 0.259031161 16.271586 0 14.9809191 0 13.9457903 0.518062321 13.6882558 1.29415568 12.6551234 2.3292802 12.1380581 3.36440473 11.8805237 3.88146693 10.8463931 4.14049809 9.29719353 5.43365365 10.0727915 8.02296514 9.03965908 9.05808966 9.81425884 9.83418302 9.03965908 10.6112765 7.74699582 11.9044321 7.23092871 13.1985877 6.97239605 14.2337123 6.97239605 15.527868 7.48946136 16.5619924 8.00552847 17.5971169 7.74699582 17.856148 6.45632894 17.3390858 5.42319653 17.0800547 4.13252966 17.0800547 2.84086459"></polyline>
    </g>
</svg>