<?xml version="1.0" encoding="UTF-8"?>
<svg width="93px" height="78px" viewBox="0 0 93 78" version="1.1" xmlns="http://www.w3.org/2000/svg" xmlns:xlink="http://www.w3.org/1999/xlink">
    <!-- Generator: Sketch 50.2 (55047) - http://www.bohemiancoding.com/sketch -->
    <title>Meerut</title>
    <desc>Created with Sketch.</desc>
    <defs></defs>
    <g id="Page-1" stroke="none" stroke-width="1" fill="none" fill-rule="evenodd">
        <polyline id="Meerut" fill="#F4DDB5" fill-rule="nonzero" points="68.3840551 6.24012058 70.3382305 6.24012058 72.6835429 5.45935187 73.855444 3.51044465 75.0273451 2.72967594 76.9815205 2.33929158 78.5445587 3.12006029 80.4972239 2.33929158 83.6233003 3.12006029 85.5774756 3.12006029 87.1420241 3.900829 89.4873365 3.12006029 91.4400016 3.51044465 92.2222758 4.29121336 92.2222758 5.45935187 93.0030399 7.01938202 93.0030399 8.96979652 92.2222758 10.5298267 92.2222758 12.8691182 92.6119028 14.4291484 92.6119028 18.3284701 92.2222758 20.2788846 91.0503747 21.4500377 89.4873365 22.2292991 89.0946892 23.7908365 87.9227881 25.741251 87.1420241 27.2997739 87.1420241 29.2501884 85.5774756 30.4213415 85.1863385 30.8102186 84.7952014 33.542909 86.36126 35.1014319 85.9671026 37.4407235 85.5774756 39.3896307 86.750887 41.3400452 87.1420241 43.2904597 87.1420241 45.6297513 88.3139252 47.9705502 88.7050623 49.529073 89.8769634 51.0891032 90.2681005 53.429902 90.2681005 55.3788093 91.4400016 57.3292238 91.8311387 58.8877466 91.8311387 59.2796383 90.2681005 60.4507913 88.3139252 60.4507913 85.1863385 59.6700226 83.2336734 59.2796383 81.2794981 59.2796383 80.1075969 60.4507913 79.3253227 62.7930975 77.7622845 63.5723589 75.8081092 64.7404974 74.2450709 65.5197588 71.9012687 65.5197588 70.3382305 65.9101432 68.3840551 65.5197588 66.43139 63.961236 63.6949404 63.5723589 63.3053135 63.1804673 61.7422753 62.7930975 59.7881 62.4012058 58.2250617 61.6204371 57.0531606 63.1804673 58.2250617 65.5197588 57.0531606 68.6413264 57.0531606 70.1998493 58.6161988 71.3694951 59.7881 72.5421554 59.7881 74.4910626 58.2250617 75.2703241 55.8797493 74.4910626 53.9270842 74.4910626 51.9729088 75.2703241 50.4098706 76.4399699 48.4541851 76.8303542 47.282284 78 47.282284 77.6096156 46.1103828 76.4399699 44.5473446 75.6607084 42.2020322 76.0495855 40.249367 74.099171 37.1232906 74.8799397 38.2951917 72.9295252 37.1232906 71.3694951 35.5602523 66.6894046 34.7779781 64.7404974 33.9972141 63.1804673 31.6519017 62.7930975 30.0888634 62.7930975 29.3080994 60.8396684 28.1361983 59.2796383 26.9642972 60.4507913 24.6189847 60.8396684 23.4470836 62.0108215 20.7106341 61.6204371 18.3668318 58.5003768 16.8037936 60.060407 15.2407554 58.5003768 11.7220316 58.5003768 9.76785629 57.7181008 8.20632825 57.7181008 5.86101581 57.3292238 3.90684048 56.548455 2.73493935 54.9899322 0.391137103 54.2091635 1.17190113 53.429902 2.73493935 52.2602562 2.34380225 50.6987188 1.95417533 48.7498116 3.12607646 47.5801658 5.08025179 46.4090127 6.25215291 44.8504899 5.46987871 42.9000754 2.34380225 39.7800151 3.12607646 37.8296006 2.73493935 36.2695704 2.73493935 35.8806933 1.17190113 33.9302788 0.782274205 32.3702487 0.391137103 30.4213415 0.782274205 28.8598041 0 26.5205125 0 24.9604823 1.17190113 23.0085606 2.73493935 21.8389148 2.73493935 17.939593 4.29797758 15.9891785 4.68911469 14.4291484 4.29797758 12.0898568 5.46987871 10.5298267 7.03442712 10.5298267 8.59595517 9.75056523 8.98709227 9.36018087 9.37822937 8.18902781 10.9412676 7.01938202 13.2850699 7.01938202 14.8496183 5.8512435 14.8496183 4.29121336 16.4126565 2.72967594 17.9756947 1.56003015 19.92987 0.779261435 20.7106341 0.779261435 22.2736723 0 24.2278476 0.779261435 24.6189847 2.33929158 24.2278476 4.29121336 25.3997488 5.8512435 26.9642972 5.45935187 28.5258252 4.68009044 30.4800005 3.12006029 32.8238028 3.51044465 34.3883512 3.900829 35.9513894 5.45935187 37.9040546 5.8512435 39.4670928 5.45935187 41.030131 6.24012058 42.9843064 7.01938202 44.5473446 7.01938202 45.7192457 8.57941216 45.3296188 10.5298267 45.7192457 12.4787339 45.7192457 12.0898568 47.282284 11.3090881 49.6275964 8.96979652 51.9729088 7.40976637 53.5359471 7.01938202 55.4901224 7.01938202 57.0531606 6.24012058 59.0058258 5.8512435 60.9600011 6.63201221 62.5230393 7.80015073 64.8668416 7.80015073 66.43139 7.01938202 68.3840551 6.24012058"></polyline>
    </g>
</svg>