<?xml version="1.0" encoding="UTF-8"?>
<svg width="131px" height="78px" viewBox="0 0 131 78" version="1.1" xmlns="http://www.w3.org/2000/svg" xmlns:xlink="http://www.w3.org/1999/xlink">
    <!-- Generator: Sketch 50.2 (55047) - http://www.bohemiancoding.com/sketch -->
    <title>Pratapgarh</title>
    <desc>Created with Sketch.</desc>
    <defs></defs>
    <g id="Page-1" stroke="none" stroke-width="1" fill="none" fill-rule="evenodd">
        <polyline id="Pratapgarh" fill="#F4DDB5" fill-rule="nonzero" points="33.8687816 0 34.1922164 0.324068408 35.4960235 0.974717382 35.8219753 2.27350317 36.1466686 3.24822055 36.1466686 4.22419402 36.7998306 4.87233083 38.1011208 5.84830429 40.055573 6.82302168 41.0309113 7.47367065 41.3568631 7.80025122 42.0075082 9.7484299 42.0075082 11.0472157 42.33346 12.0257013 43.6360086 12.3485136 44.2879122 12.3485136 44.9385572 11.3737963 45.264509 10.0737544 45.9151541 9.09903701 46.8904924 8.44838803 48.1942996 8.44838803 48.8462032 8.77371252 49.8240585 9.42436149 50.4759621 10.3990789 51.7785107 10.7244034 52.7551076 11.6991207 51.4525589 12.9991626 50.8019139 13.97388 51.1266071 14.9485974 56.3368017 14.9485974 56.9899638 14.624529 57.9653021 13.6485555 58.941899 13.97388 59.5938025 14.9485974 60.2457061 15.2751779 61.5469962 15.2751779 62.5235931 14.9485974 65.1286904 12.3485136 65.7805939 11.3737963 66.7571908 10.3990789 68.0609979 10.3990789 67.7337876 11.6991207 68.3844327 12.672582 70.992047 13.3257432 72.9439822 13.97388 73.920579 13.6485555 74.8971759 12.672582 75.2231277 12.672582 75.8762898 12.3485136 76.8516281 12.0257013 77.5022732 11.0472157 78.47887 11.0472157 79.4567254 11.3737963 81.4111776 11.3737963 82.3877744 10.7244034 83.3668883 10.3990789 84.3422266 10.3990789 85.6435168 11.0472157 87.2732757 11.0472157 88.2511311 10.7244034 89.2264694 11.3737963 90.2030663 11.6991207 90.5290181 12.0257013 91.5068734 12.0257013 93.1341153 11.6991207 93.7860189 11.0472157 95.087309 11.0472157 96.3911162 12.9991626 97.6936648 13.3257432 98.9962134 13.3257432 100.300021 12.9991626 101.275359 12.9991626 101.927263 13.6485555 102.902601 13.97388 103.879198 14.9485974 103.879198 16.2511514 105.183005 16.5752198 105.83365 15.9258269 107.137457 15.2751779 108.115312 15.2751779 108.765957 13.97388 109.743813 13.6485555 111.045103 12.9991626 112.020441 12.672582 114.952749 12.672582 116.255298 13.3257432 118.20975 13.97388 119.51104 14.624529 120.161685 15.2751779 120.814847 16.5752198 121.13954 17.5511933 121.790185 18.5246546 122.768041 18.8512351 123.745896 18.2005862 124.394024 16.8992882 125.047186 16.2511514 125.69909 15.2751779 127.002897 15.2751779 127.978235 15.9258269 127.652283 16.8992882 127.978235 17.8752617 129.280784 18.8512351 129.932687 19.1753036 130.257381 19.499372 130.583333 20.4728333 130.257381 21.7753873 128.30167 21.7753873 127.326332 21.4513189 126.023783 21.4513189 125.047186 21.7753873 124.070589 22.4247802 123.093992 22.7513608 122.442089 24.0501465 124.070589 24.6995394 125.047186 25.0236078 126.023783 25.6755129 126.676945 26.6502303 127.652283 27.2996232 128.30167 28.2755966 128.954832 29.5743824 128.62888 30.5503559 127.326332 30.2237753 126.023783 29.5743824 125.047186 29.5743824 124.070589 29.2490579 123.093992 29.2490579 122.118654 30.5503559 121.465492 31.5250733 118.860395 30.2237753 117.883798 29.8997069 116.907201 30.8756804 116.581249 32.1744662 116.255298 33.474508 115.930604 35.1011305 115.930604 36.0745918 114.626797 37.3733776 113.976152 38.349351 112.673603 38.9987439 111.697007 38.9987439 110.719151 38.6746755 109.091909 39.3253245 108.115312 39.9734613 107.46215 40.9494348 106.811505 41.5988277 105.83365 41.2735032 104.857053 40.6241103 103.879198 40.6241103 103.555763 41.5988277 103.555763 42.5748011 104.206408 43.5470063 103.879198 44.525492 103.228553 45.1748849 103.228553 45.5002093 102.902601 46.7989951 102.902601 47.7749686 103.555763 48.4256176 104.206408 49.400335 104.531101 50.05224 104.206408 51.0257013 104.206408 52.97388 105.183005 54.276434 105.83365 54.9245708 105.83365 55.8992882 105.507698 57.2005862 105.183005 58.1765596 105.183005 60.4500628 104.531101 61.4247802 103.555763 61.4247802 102.902601 60.7766434 101.927263 61.7501047 101.927263 62.7248221 101.600052 63.6995394 100.624714 64.3501884 99.6468585 64.3501884 98.6702617 63.6995394 97.6936648 63.375471 96.7158095 64.3501884 96.3911162 65.9742987 94.1107122 65.9742987 92.1575185 65.3236497 90.8549698 65.3236497 90.2030663 64.6755129 90.2030663 63.6995394 89.2264694 63.0501465 88.2511311 61.7501047 87.2732757 61.0994557 86.2954204 60.7766434 85.3188235 59.8006699 84.6681784 58.8246964 84.6681784 57.8499791 85.6435168 56.8765178 85.9707271 55.8992882 85.6435168 54.276434 84.9953887 53.625785 84.0162749 53.9523656 82.7149847 53.9523656 81.7383879 54.276434 80.4358392 54.276434 79.1320321 53.3004606 77.1788384 53.9523656 72.9439822 53.9523656 71.3167403 54.6005024 71.3167403 55.8992882 70.992047 56.8765178 70.0129331 57.5233985 68.0609979 57.5233985 66.1052872 56.8765178 65.1286904 56.8765178 63.8261417 57.2005862 61.8742065 57.2005862 60.5703994 56.5499372 59.5938025 55.5764759 57.6393503 54.9245708 57.3133985 53.625785 55.3602048 53.625785 54.383608 53.9523656 53.0798009 54.276434 53.0798009 54.6005024 52.4304143 55.2511514 51.4525589 55.8992882 51.4525589 59.8006699 51.7785107 60.7766434 51.7785107 63.375471 51.1266071 64.6755129 50.1500103 65.6502303 49.1708964 65.6502303 47.5436545 65.3236497 46.5670577 65.6502303 45.5904608 66.3008793 46.5670577 66.94776 48.8462032 67.6009211 48.8462032 68.900963 47.8708648 70.2010049 46.5670577 70.8491417 43.9619604 70.8491417 42.986622 71.4997907 42.0075082 73.125157 37.775169 73.125157 36.7998306 72.7998325 36.1466686 71.8263712 36.4726203 70.8491417 37.4492172 69.2250314 36.4726203 68.5743824 34.8441199 68.5743824 32.2402812 69.2250314 31.2624258 69.2250314 32.2402812 70.5250733 33.8687816 72.1491835 33.8687816 73.4492254 32.8909262 75.0745918 32.2402812 76.0493092 31.9143294 76.7012142 31.9143294 77.0265387 30.6117807 78 28.3301182 78 27.3547799 77.3506071 26.378183 76.0493092 24.7496826 74.426455 24.4249893 73.125157 24.0990375 71.4997907 23.1236992 71.8263712 21.8186336 72.1491835 19.8654398 71.4997907 15.6305836 71.4997907 14.6539868 70.8491417 13.6786484 70.5250733 13.0254864 69.5490998 12.6995346 68.5743824 12.050148 66.6249477 11.7229377 65.9742987 10.0956958 65.3236497 9.44379225 64.6755129 9.11909896 63.6995394 7.81529182 61.7501047 6.51274319 60.4500628 7.49185704 58.8246964 9.11909896 58.1765596 10.4203891 57.8499791 11.0722927 56.5499372 10.0956958 55.2511514 10.0956958 54.276434 9.44379225 52.97388 9.11909896 52.0004187 8.13998511 51.6750942 6.83869497 52.0004187 5.53614633 52.6510677 4.2335977 50.7003768 2.60509727 50.3750523 2.28040399 49.0750105 2.28040399 47.4521563 1.95445221 46.4749267 1.30380714 45.5002093 0.325951785 45.8255338 0.325951785 44.1989114 0.651903569 43.2254501 0.977855354 42.2494766 0.977855354 41.2735032 0.325951785 40.3000419 0 38.9987439 0.977855354 38.0240265 2.60509727 38.6746755 3.90764591 38.6746755 3.90764591 36.7239847 4.88424277 36.4011723 5.21019455 37.3733776 6.83869497 37.3733776 7.81529182 36.7239847 9.11909896 35.7492673 9.76974403 34.7745499 11.0722927 33.474508 12.3748413 32.5010467 12.6995346 31.1997488 13.6786484 30.5503559 14.328035 31.5250733 17.2590841 29.5743824 17.5837774 28.599665 18.8875845 28.2755966 19.5382296 26.9768108 19.2122778 25.9995813 18.5616327 25.0236078 19.5382296 24.375471 20.5160849 24.6995394 21.4951988 25.6755129 22.4705371 26.3249058 23.447134 26.6502303 24.4249893 25.9995813 25.7262795 26.3249058 26.378183 26.9768108 27.3547799 27.2996232 28.3301182 27.2996232 29.3104906 26.9768108 29.3104906 25.6755129 28.6573285 24.6995394 28.0066835 24.0501465 27.3547799 23.0766852 27.3547799 22.0994557 27.6807317 20.8006699 27.0288281 20.151277 25.0756344 20.151277 25.0756344 18.8512351 24.4249893 17.5511933 24.0990375 16.5752198 23.447134 15.5992464 24.0990375 14.2979484 25.4003277 13.6485555 27.6807317 13.6485555 28.3301182 12.9991626 28.6573285 12.0257013 28.6573285 10.7244034 27.6807317 9.42436149 25.7262795 8.1255757 25.4003277 7.47367065 25.0756344 6.49895327 25.4003277 5.52423589 25.4003277 4.5495185 26.7028763 4.5495185 27.6807317 4.87233083 29.3104906 5.52423589 29.9598772 4.5495185 30.936474 3.90012561 31.9143294 3.57354504 32.5649744 2.27350317 33.2156195 1.62411028 33.5415713 0.324068408 33.8687816 0"></polyline>
    </g>
</svg>