<?xml version="1.0" encoding="UTF-8"?>
<svg width="127px" height="78px" viewBox="0 0 127 78" version="1.1" xmlns="http://www.w3.org/2000/svg" xmlns:xlink="http://www.w3.org/1999/xlink">
    <!-- Generator: Sketch 50.2 (55047) - http://www.bohemiancoding.com/sketch -->
    <title>Sultanpur</title>
    <desc>Created with Sketch.</desc>
    <defs></defs>
    <g id="Page-1" stroke="none" stroke-width="1" fill="none" fill-rule="evenodd">
        <polyline id="Sultanpur" fill="#F4DDB5" fill-rule="nonzero" points="2.92755751 0.292418145 3.22167071 0.876125409 3.80537229 0 4.68544947 0 5.56213304 0.292418145 6.14809702 1.16854355 7.02478059 1.75225082 7.61187578 2.33821614 9.36863653 2.9219234 10.8301529 2.33821614 10.8301529 0.876125409 12.0009496 1.16854355 12.5869136 1.75225082 13.1728776 2.9219234 14.0495612 3.50675969 15.8074531 4.08933793 16.0981727 4.67417422 15.5133399 5.55029963 14.6355252 5.55029963 13.4647284 6.42642504 12.2939316 7.01126133 11.7090989 7.88738674 11.1231349 8.471094 11.7090989 9.05593029 12.8787644 9.05593029 16.3911547 7.88738674 17.2723631 8.17980488 18.4408974 8.76351214 18.4408974 9.64076658 18.1490467 10.8093101 17.8560647 11.3918884 16.9782499 12.2691428 16.6852679 13.4376864 17.2723631 14.3149408 18.7350106 14.8997771 19.6116942 14.6051009 19.9069386 13.7289755 20.7836222 13.1452682 21.9521565 13.4376864 22.8333649 13.1452682 24.0018993 13.1452682 25.75866 12.56269 26.6364748 13.7289755 27.5142896 14.6051009 28.6862175 14.6051009 29.5640323 14.0225227 30.4418471 13.7289755 31.3207931 14.6051009 31.6126439 15.4834844 32.1986078 16.3596098 33.0764226 16.0683206 33.6612554 15.1910662 34.5390702 14.6051009 35.7109981 14.3149408 36.8817949 13.7289755 37.7584785 13.4376864 38.9292752 13.7289755 39.2233884 14.3149408 39.2233884 15.1910662 39.5163704 16.6520279 40.686036 16.3596098 41.5638507 15.4834844 42.4427967 15.4834844 42.7346475 16.0683206 43.0276295 16.3596098 43.9054443 16.6520279 45.0785035 16.9455751 45.955187 16.9455751 46.834133 17.2357352 48.8827445 17.5281533 49.4675773 18.1129896 49.4675773 19.5739513 50.0535413 20.1576586 51.2243381 20.4500767 52.6869856 20.1576586 52.9799676 21.3262021 53.8577824 22.2023275 55.0297104 22.2023275 55.9075251 21.9110384 57.0783219 21.6174912 58.8339514 22.2023275 60.0047482 22.2023275 60.5907122 23.079582 61.468527 23.3720001 62.3463417 23.079582 63.2252877 23.079582 62.9323057 23.9557074 62.9323057 25.1242509 64.1031025 25.1242509 64.9809172 24.5394146 66.151714 24.5394146 66.7365468 25.4155401 67.6154928 25.4155401 68.7862895 25.1242509 69.6641043 25.1242509 69.9559551 26.2916655 69.9559551 27.1677909 70.5430503 28.0461743 72.5916618 28.0461743 73.4694766 28.3374635 74.6402734 28.3374635 75.5203505 28.9211707 76.6888849 29.504878 77.2759801 28.6287526 77.8608129 28.6287526 78.1526637 28.3374635 79.6164424 28.6287526 79.6164424 29.504878 80.4942572 29.504878 81.6639227 28.9211707 82.5439999 28.9211707 83.4218147 29.504878 84.2996295 29.504878 85.1774442 29.7972961 86.348241 29.7972961 86.348241 30.9658397 86.055259 31.2582578 86.055259 31.8419651 87.2260558 31.551805 88.3979837 30.9658397 89.2757985 30.3832614 90.4465953 30.3832614 91.3244101 31.2582578 91.3244101 32.1343832 92.2022248 32.7192195 93.0800396 34.1801812 93.0800396 35.0551776 92.7870576 36.2248502 92.7870576 37.3922647 93.3730216 37.97823 94.2508364 37.97823 95.4216331 38.2695192 96.2983167 40.02177 97.1795251 40.3153171 97.4725071 39.4369337 98.3503218 38.5608083 99.2292678 39.7293518 99.8129694 40.8978954 100.105951 41.7740208 100.398933 42.3588571 101.276748 42.9436934 101.862712 42.6535333 102.446414 41.7740208 103.32536 41.7740208 104.496156 42.3588571 105.083252 42.9436934 106.545899 43.2361115 107.716696 43.2361115 108.301529 42.9436934 110.057158 42.3588571 111.227955 43.2361115 110.934973 44.1122369 110.934973 44.4046551 111.227955 44.9906204 112.106901 44.9906204 112.984716 45.5731986 113.569549 46.4504531 115.033327 46.4504531 116.205255 45.8656168 117.080808 46.1569059 118.545718 47.0330313 120.594329 47.0330313 121.472144 46.7417422 122.349959 46.7417422 124.107851 47.3254494 124.401964 47.9102857 124.692683 48.7875402 124.985665 49.3701184 125.571629 49.9560837 125.864611 51.1246273 126.449444 52.8757491 126.742426 53.7541325 126.742426 54.9215471 126.449444 55.7965434 125.864611 57.2575051 125.571629 57.2575051 124.985665 57.5499233 124.107851 57.2575051 123.520755 56.6737979 122.642941 56.0900906 121.766257 56.0900906 120.594329 56.3813797 119.716514 56.966216 119.13055 55.7965434 117.959754 55.5052543 115.61816 55.5052543 114.447363 56.966216 114.155513 57.8423414 114.155513 58.7173378 113.862531 59.8870104 113.277698 60.7642648 112.691734 61.3468431 111.520937 61.3468431 110.644253 60.7642648 108.886362 60.7642648 108.301529 61.3468431 107.130732 61.6381322 106.254048 61.6381322 105.083252 61.3468431 104.496156 60.1771705 104.79027 59.3021741 103.911324 59.3021741 103.033509 60.4707177 100.983766 60.4707177 99.8129694 60.1771705 98.9351546 60.4707177 99.5211186 61.9316794 99.8129694 62.8078048 99.5211186 64.2676374 99.8129694 65.1448919 100.398933 66.3134354 101.276748 66.6058536 102.155694 67.481979 101.862712 68.3592334 101.862712 69.528906 102.740527 70.1114842 103.32536 70.9887387 103.911324 72.1572822 104.496156 73.0345367 104.79027 73.6171149 105.373971 74.4954984 105.666953 75.3693657 105.373971 76.2466202 104.496156 77.1227456 104.496156 77.4151637 103.911324 78 103.033509 76.8303274 102.155694 76.2466202 100.693047 75.954202 99.8129694 75.954202 98.3503218 76.2466202 97.1795251 76.8303274 96.8865431 77.4151637 96.5935611 77.1227456 96.0064659 76.8303274 94.8356691 75.954202 94.5438184 75.0780766 94.8356691 74.2030802 93.9589856 73.6171149 92.7870576 73.6171149 92.2022248 74.4954984 91.6162608 75.0780766 91.0325593 76.2466202 90.1536133 76.8303274 89.2757985 76.5390383 88.6898345 75.6629129 88.3979837 74.7856585 87.8120198 73.6171149 87.2260558 73.0345367 86.055259 72.4497004 84.2996295 71.8659931 83.1288327 71.2788988 80.4942572 71.2788988 79.6164424 71.5724459 78.4467768 72.1572822 77.5678309 72.4497004 76.9841293 73.6171149 76.1040521 73.6171149 74.9332553 74.2030802 74.3472914 74.7856585 73.1764946 74.4954984 73.1764946 73.3258258 72.2986798 72.4497004 71.4219963 72.1572822 70.8360323 71.5724459 69.9559551 71.5724459 68.7862895 71.8659931 67.6154928 71.8659931 66.4435648 71.5724459 65.272768 69.8190661 64.1031025 69.8190661 63.5171385 70.4039024 62.0533597 70.6974496 61.175545 70.6974496 60.8814318 70.4039024 60.0047482 70.1114842 59.1280646 69.528906 58.2479874 69.8190661 56.7853399 69.8190661 55.6145431 69.2353588 54.7378596 69.2353588 53.8577824 69.528906 52.9799676 70.1114842 51.2243381 70.1114842 50.3453921 69.8190661 49.4675773 69.8190661 48.8827445 70.6974496 48.006061 70.9887387 47.4189658 71.2788988 47.1259838 71.2788988 46.2470378 72.1572822 45.3703542 72.4497004 43.6158559 71.8659931 41.272 71.2788988 40.686036 70.4039024 40.9801492 69.2353588 39.8082212 69.2353588 38.9292752 70.1114842 38.3444424 70.9887387 36.0028489 73.3258258 35.1250341 73.6171149 33.9553686 73.6171149 33.3682734 73.3258258 32.7834406 72.4497004 31.9044946 72.1572822 31.0278111 73.0345367 30.4418471 73.3258258 25.75866 73.3258258 25.4668092 72.4497004 26.051642 71.5724459 27.2224388 70.4039024 26.344624 69.528906 25.1738272 69.2353588 24.5878633 68.3592334 23.7100485 67.7732681 23.1240845 67.481979 21.9521565 67.481979 21.075473 68.0668153 20.4906402 68.9418117 20.1976582 70.1114842 19.6116942 70.9887387 19.0268614 70.9887387 17.8560647 70.6974496 17.5630827 69.8190661 17.5630827 68.6505225 16.9782499 66.8994007 16.6852679 66.6058536 15.8074531 66.0210173 14.0495612 65.1448919 12.8787644 64.2676374 12.2939316 63.6839302 12.2939316 62.8078048 12.0009496 61.9316794 11.7090989 60.7642648 10.5371709 60.1771705 10.2464513 59.8870104 9.65935611 59.5957213 9.65935611 56.3813797 9.07452333 54.9215471 8.48855935 53.7541325 7.90372657 52.8757491 7.02478059 52.2931708 6.43994781 51.4159164 6.43994781 50.8310801 6.7329298 49.3701184 6.43994781 48.493993 4.97616905 47.0330313 5.26915104 46.1569059 5.85398382 45.2807805 5.56213304 44.1122369 5.26915104 42.6535333 4.39133627 41.7740208 4.09835428 40.8978954 4.39133627 39.4369337 4.97616905 38.8543554 4.68544947 37.6858119 3.51239029 35.932432 3.51239029 34.1801812 3.80537229 33.3029268 3.22167071 32.1343832 2.63457552 31.8419651 2.34272473 30.3832614 3.51239029 29.2135889 4.09835428 28.9211707 3.22167071 27.1677909 3.51239029 25.4155401 4.39133627 24.5394146 3.80537229 23.079582 2.92755751 22.4947457 2.34272473 21.6174912 2.05087395 20.7424949 1.75789195 19.8652404 0.878945977 19.2804041 0.292981992 18.4065368 0.292981992 16.3596098 0 15.4834844 0 14.0225227 0.587095189 12.8528501 1.17079676 11.9767247 1.46490996 10.515763 2.05087395 9.9320557 2.63457552 9.05593029 2.63457552 8.17980488 2.92755751 7.01126133 3.51239029 5.84158874 3.80537229 4.67417422 3.80537229 3.79804881 2.92755751 3.21321252 2.63457552 2.33821614 2.63457552 1.4609617 2.92755751 0.292418145"></polyline>
    </g>
</svg>