<?xml version="1.0" encoding="UTF-8"?>
<svg width="44px" height="44px" viewBox="0 0 44 44" version="1.1" xmlns="http://www.w3.org/2000/svg" xmlns:xlink="http://www.w3.org/1999/xlink">
    <!-- Generator: Sketch 56.2 (81672) - https://sketch.com -->
    <title>home idle@1x</title>
    <desc>Created with Sketch.</desc>
    <g id="home-idle" stroke="none" stroke-width="1" fill="none" fill-rule="evenodd">
        <path d="M21.4000001,12.44999 L12.8761832,18.8428526 C12.6243773,19.031707 12.4761832,19.3280953 12.4761832,19.6428526 L12.4761832,31.00001 C12.4761832,31.5522947 12.9238984,32.00001 13.4761832,32.00001 L17.9047596,32.00001 C18.4570444,32.00001 18.9047596,31.5522947 18.9047596,31.00001 L18.9047596,28.4285787 C18.9047596,26.7138155 20.2852368,25.3333383 22.0000001,25.3333383 C23.7147633,25.3333383 25.0952405,26.7138155 25.0952405,28.4285787 L25.0952405,31.00001 C25.0952405,31.5522947 25.5429558,32.00001 26.0952405,32.00001 L30.5238168,32.00001 C31.0761016,32.00001 31.5238168,31.5522947 31.5238168,31.00001 L31.5238168,19.6428526 C31.5238168,19.3280953 31.3756227,19.031707 31.1238168,18.8428526 L22.6000001,12.44999 C22.2444445,12.1833233 21.7555556,12.1833233 21.4000001,12.44999 Z" fill="#B4B8BA" fill-rule="nonzero"></path>
    </g>
</svg>