<?xml version="1.0" encoding="UTF-8"?>
<svg width="36px" height="28px" viewBox="0 0 36 28" version="1.1" xmlns="http://www.w3.org/2000/svg" xmlns:xlink="http://www.w3.org/1999/xlink">
    <!-- Generator: sketchtool 63.1 (101010) - https://sketch.com -->
    <title>A2F57E9C-6D9A-43FE-B760-4F5E4C761293@1x</title>
    <desc>Created with sketchtool.</desc>
    <defs>
        <linearGradient x1="100%" y1="5.30950317%" x2="50%" y2="81.1657254%" id="linearGradient-1">
            <stop stop-color="#ACC4F8" offset="0%"></stop>
            <stop stop-color="#738DD8" offset="100%"></stop>
        </linearGradient>
    </defs>
    <g id="Page-1" stroke="none" stroke-width="1" fill="none" fill-rule="evenodd">
        <g id="A_HomePage_Idle" transform="translate(-1208.000000, -659.000000)" fill="url(#linearGradient-1)" fill-rule="nonzero">
            <path d="M1237.06688,659 L1214.39988,659 C1210.86689,659 1208,661.865493 1208,665.39988 L1208,680.598723 C1208,684.133111 1210.86549,687 1214.39988,687 L1237.06548,687 C1240.59987,687 1243.46536,684.133111 1243.46536,680.598723 L1243.46536,665.39988 C1243.46536,661.865493 1240.60127,659 1237.06688,659 Z M1229.27335,673.141739 C1229.27335,672.285721 1229.27335,670.883697 1229.27335,670.027679 L1229.27335,668.745748 C1229.27335,667.889731 1229.8808,667.540621 1230.62231,667.966535 L1231.73248,668.607501 C1232.47539,669.036208 1233.6875,669.735824 1234.4304,670.16453 L1235.54057,670.8041 C1236.28068,671.232806 1236.28068,671.933819 1235.54057,672.361129 L1234.4304,673.003491 C1233.6875,673.430801 1232.47539,674.13321 1231.73248,674.559124 L1230.62092,675.201486 C1229.87941,675.630193 1229.27196,675.281083 1229.27196,674.42367 L1229.27196,673.141739 L1229.27335,673.141739 Z M1218.40036,663.977388 C1219.92248,663.977388 1221.15693,665.210443 1221.15693,666.732562 C1221.15693,668.254681 1219.92248,669.489133 1218.40036,669.489133 C1216.87964,669.489133 1215.64658,668.254681 1215.64658,666.732562 C1215.64658,665.210443 1216.87964,663.977388 1218.40036,663.977388 Z M1222.5785,677.222612 L1214.22221,677.222612 L1214.22221,674.555414 C1214.22221,672.248496 1216.09344,670.378664 1218.40036,670.378664 C1220.70728,670.378664 1222.57711,672.248496 1222.57711,674.555414 L1222.57711,677.222612 L1222.5785,677.222612 Z M1237.81832,681.222612 L1233.29977,681.222612 C1233.0526,681.771413 1232.5038,682.155434 1231.86283,682.155434 C1231.22186,682.155434 1230.67167,681.771413 1230.42589,681.222612 L1213.95278,681.222612 L1213.95278,679.932303 L1230.42589,679.932303 C1230.67306,679.383502 1231.22186,678.999481 1231.86283,678.999481 C1232.5038,678.999481 1233.0526,679.383502 1233.29977,679.932303 L1237.81832,679.932303 L1237.81832,681.222612 Z" id="long-tutorials"></path>
        </g>
    </g>
</svg>