<?xml version="1.0" encoding="UTF-8"?>
<svg width="20px" height="20px" viewBox="0 0 20 20" version="1.1" xmlns="http://www.w3.org/2000/svg" xmlns:xlink="http://www.w3.org/1999/xlink">
    <!-- Generator: sketchtool 63.1 (101010) - https://sketch.com -->
    <title>9196B7BD-8248-4B2D-979E-E08A6573E025@1x</title>
    <desc>Created with sketchtool.</desc>
    <g id="Page-1" stroke="none" stroke-width="1" fill="none" fill-rule="evenodd">
        <g id="A_Homepage" transform="translate(-1104.000000, -78.000000)" fill="#FFFFFF" fill-rule="nonzero">
            <g id="Group-19">
                <g id="Total-header" transform="translate(0.000000, 68.000000)">
                    <g id="Top-header">
                        <g id="Notifications" transform="translate(1104.000000, 5.250000)">
                            <path d="M17.9583319,17.8112245 L17.5472563,17.8112245 C18.6799271,17.8112245 19.5918367,18.7246247 19.5918367,19.851361 L19.5918367,20.260979 C19.5918367,20.7146096 19.226101,21.0765306 18.7749431,21.0765306 L0.816893592,21.0765306 C0.36528098,21.0765306 0,20.7113958 0,20.260979 L0,19.851361 C0,18.7251362 0.915389837,17.8112245 2.04458041,17.8112245 L1.63350486,17.8112245 C2.08234261,17.8112245 2.44897959,17.4454241 2.44897959,16.9941864 L2.44897959,12.0966324 C2.44897959,8.03746571 5.73831612,4.75 9.79591837,4.75 C13.8544128,4.75 17.1428571,8.03919939 17.1428571,12.0966324 L17.1428571,16.9941864 C17.1428571,17.4482605 17.5079576,17.8112245 17.9583319,17.8112245 Z M6.93877551,21.8928571 L12.6530612,21.8928571 C12.6530612,23.4708136 11.3738748,24.75 9.79591837,24.75 C8.21796196,24.75 6.93877551,23.4708136 6.93877551,21.8928571 Z" id="notification"></path>
                        </g>
                    </g>
                </g>
            </g>
        </g>
    </g>
</svg>