<?xml version="1.0" encoding="UTF-8"?>
<svg width="28px" height="36px" viewBox="0 0 28 36" version="1.1" xmlns="http://www.w3.org/2000/svg" xmlns:xlink="http://www.w3.org/1999/xlink">
    <!-- Generator: sketchtool 63.1 (101010) - https://sketch.com -->
    <title>3EE6B298-BA87-4A02-AC36-581C5D389F7F@1x</title>
    <desc>Created with sketchtool.</desc>
    <g id="Page-1" stroke="none" stroke-width="1" fill="none" fill-rule="evenodd">
        <g id="A_Homepage" transform="translate(-526.000000, -466.000000)" fill-rule="nonzero">
            <g id="Group-7" transform="translate(-0.000000, 0.000000)">
                <g id="Chunk-1" transform="translate(83.000000, 156.000000)">
                    <g id="Group-6" transform="translate(0.000000, 90.000000)">
                        <g id="Group" transform="translate(0.000000, 196.000000)">
                            <g id="Card-1-Copy" transform="translate(408.000000, 0.000000)">
                                <g id="A" transform="translate(29.000000, 24.000000)">
                                    <g id="program-dashboard" transform="translate(6.961373, 0.000000)">
                                        <path d="M0.02405074,35.9333277 L26.9901818,35.9333277 L26.9901818,0.0630951374 L0.02405074,0.0630951374 L0.02405074,35.9333277 Z M4.62284144,5.88756025 L22.3914672,5.88756025 C22.5595941,5.88756025 22.695907,6.02387315 22.695907,6.192 C22.695907,6.36012685 22.5595941,6.49643975 22.3914672,6.49643975 L4.62284144,6.49643975 C4.45471459,6.49643975 4.31840169,6.36012685 4.31840169,6.192 C4.31840169,6.02387315 4.45471459,5.88756025 4.62284144,5.88756025 Z M4.62284144,10.7933784 L22.3914672,10.7933784 C22.5595941,10.7933784 22.695907,10.9296913 22.695907,11.0978182 C22.695907,11.265945 22.5595941,11.4022579 22.3914672,11.4022579 L4.62284144,11.4022579 C4.45471459,11.4022579 4.31840169,11.265945 4.31840169,11.0978182 C4.31840169,10.9296913 4.45471459,10.7933784 4.62284144,10.7933784 Z M4.62284144,15.6989683 L22.3914672,15.6989683 C22.5595941,15.6989683 22.695907,15.8352812 22.695907,16.003408 C22.695907,16.1715349 22.5595941,16.3078478 22.3914672,16.3078478 L4.62284144,16.3078478 C4.45471459,16.3078478 4.31840169,16.1715349 4.31840169,16.003408 C4.31840169,15.8352812 4.45471459,15.6989683 4.62284144,15.6989683 Z" id="Shape" fill="#0072FF"></path>
                                        <path d="M15.3936913,27.3429514 L15.3936913,32.8639662 L11.2463087,32.8639662 L11.2463087,27.3429514 L15.3936913,27.3429514 Z M8.38252008,25.5022326 L8.38252008,32.8639662 L4.23521353,32.8639662 L4.23521353,25.5022326 L8.38252008,25.5022326 Z M22.7768879,21.2134376 L22.7768879,32.8639662 L18.6317125,32.8639662 L18.6317125,21.2134376 L22.7768879,21.2134376 Z" id="Combined-Shape" fill="#FF8E05"></path>
                                    </g>
                                </g>
                            </g>
                        </g>
                    </g>
                </g>
            </g>
        </g>
    </g>
</svg>