<?xml version="1.0" encoding="UTF-8"?>
<svg width="38px" height="38px" viewBox="0 0 38 38" version="1.1" xmlns="http://www.w3.org/2000/svg" xmlns:xlink="http://www.w3.org/1999/xlink">
    <!-- Generator: Sketch 51.2 (57519) - http://www.bohemiancoding.com/sketch -->
    <title>Responsive</title>
    <desc>Created with Sketch.</desc>
    <defs></defs>
    <g id="Page-1" stroke="none" stroke-width="1" fill="none" fill-rule="evenodd">
        <g id="Rev1.3-iPad-Login-New-S2" transform="translate(-662.000000, -265.000000)">
            <g id="Responsive" transform="translate(662.000000, 265.000000)">
                <circle id="Oval-11" fill="#FDC300" cx="19" cy="19" r="19"></circle>
                <g id="Group" transform="translate(8.000000, 10.000000)" fill="#000000">
                    <path d="M19.3333333,15.3333333 L16,15.3333333 L16,9.66666667 C16,9.48258333 16.14925,9.33333333 16.3333333,9.33333333 L19,9.33333333 C19.1840833,9.33333333 19.3333333,9.48258333 19.3333333,9.66666667 L19.3333333,15.3333333 Z M19.3333333,16.3333333 C19.3333333,16.5174167 19.1840833,16.6666667 19,16.6666667 L16.3333333,16.6666667 C16.14925,16.6666667 16,16.5174167 16,16.3333333 L16,16 L19.3333333,16 L19.3333333,16.3333333 Z M15.3333333,9.66666667 L15.3333333,10 L8,10 L8,7.66666667 C7.998875,7.5085 7.95975,7.35291667 7.886,7.213 C7.891,7.20833333 7.89766667,7.207 7.90233333,7.202 L11.2023333,3.902 C11.33025,3.76958333 11.3265833,3.55858333 11.1941667,3.43066667 C11.0649583,3.30591667 10.8601667,3.30591667 10.731,3.43066667 L7.431,6.73066667 C7.423,6.739 7.41966667,6.74966667 7.41266667,6.75833333 C7.28333333,6.69833333 7.14254167,6.66708333 7,6.66666667 L2,6.66666667 L2,1.66666667 C2,1.114375 2.44770833,0.666666667 3,0.666666667 L17,0.666666667 C17.5522917,0.666666667 18,1.114375 18,1.66666667 L18,8.66666667 L16.3333333,8.66666667 C15.7810417,8.66666667 15.3333333,9.114375 15.3333333,9.66666667 Z M8,12.6666667 L15.3333333,12.6666667 L15.3333333,10.6666667 L8,10.6666667 L8,12.6666667 Z M9.33333333,15.3333333 L10.6666667,15.3333333 L10.6666667,13.3333333 L9.33333333,13.3333333 L9.33333333,15.3333333 Z M8,15.3333333 L8.66666667,15.3333333 L8.66666667,13.3333333 L8,13.3333333 L8,15.3333333 Z M12.3333333,16 C12.757,16.0005 13.1345417,16.2674167 13.2763333,16.6666667 L7.93866667,16.6666667 C7.978125,16.5599167 7.998875,16.4471667 8,16.3333333 L8,16 L12.3333333,16 Z M7.33333333,15.3333333 L0.666666667,15.3333333 L0.666666667,7.66666667 C0.666666667,7.48258333 0.815916667,7.33333333 1,7.33333333 L7,7.33333333 C7.18408333,7.33333333 7.33333333,7.48258333 7.33333333,7.66666667 L7.33333333,15.3333333 Z M7.33333333,16.3333333 C7.33333333,16.5174167 7.18408333,16.6666667 7,16.6666667 L1,16.6666667 C0.815916667,16.6666667 0.666666667,16.5174167 0.666666667,16.3333333 L0.666666667,16 L7.33333333,16 L7.33333333,16.3333333 Z M19,8.66666667 L18.6666667,8.66666667 L18.6666667,1.66666667 C18.6655833,0.746666667 17.92,0.00108333333 17,0 L3,0 C2.08,0.00108333333 1.33441667,0.746666667 1.33333333,1.66666667 L1.33333333,6.66666667 L1,6.66666667 C0.447708333,6.66666667 0,7.114375 0,7.66666667 L0,16.3333333 C0,16.885625 0.447708333,17.3333333 1,17.3333333 L13.6666667,17.3333333 C13.85075,17.3333333 14,17.1840833 14,17 C13.9989167,16.08 13.2533333,15.3344167 12.3333333,15.3333333 L11.3333333,15.3333333 L11.3333333,13.3333333 L15.3333333,13.3333333 L15.3333333,16.3333333 C15.3333333,16.885625 15.7810417,17.3333333 16.3333333,17.3333333 L19,17.3333333 C19.5522917,17.3333333 20,16.885625 20,16.3333333 L20,9.66666667 C20,9.114375 19.5522917,8.66666667 19,8.66666667 Z" id="Fill-1"></path>
                    <path d="M3.983,10.724 C3.85283333,10.593875 3.64183333,10.593875 3.51166667,10.724 L2.09766667,12.138 C1.96525,12.2659167 1.96158333,12.4769167 2.0895,12.6093333 C2.217375,12.74175 2.42841667,12.7454167 2.56083333,12.6175 C2.56358333,12.6148333 2.56633333,12.612125 2.569,12.6093333 L3.983,11.1953333 C4.0425,11.0922083 3.92291667,10.8961667 3.983,10.724" id="Fill-2"></path>
                    <path d="M5.51166667,10.724 L4.09766667,12.138 C3.96525,12.2659167 3.96158333,12.4769167 4.0895,12.6093333 C4.217375,12.74175 4.42841667,12.7454167 4.56083333,12.6175 C4.56358333,12.6148333 4.56633333,12.612125 4.569,12.6093333 L5.983,11.1953333 C6.110875,11.0629167 6.10725,10.8519167 5.97483333,10.724 C5.845625,10.59925 5.64083333,10.59925 5.51166667,10.724" id="Fill-3"></path>
                    <path d="M12.7643333,3.431 L9.46433333,6.731 C9.33191667,6.858875 9.32825,7.06991667 9.456125,7.20233333 C9.58404167,7.33475 9.79504167,7.33841667 9.92745833,7.21054167 C9.93025,7.20783333 9.933,7.205125 9.93566667,7.20233333 L13.2356667,3.90233333 C13.3635417,3.76991667 13.3599167,3.55891667 13.2275,3.431 C13.0982917,3.30625 12.8935,3.30625 12.7643333,3.431" id="Fill-4"></path>
                    <path d="M17.9023333,11.6263333 L16.9596667,12.569 C16.82725,12.6969167 16.8235833,12.9079167 16.9515,13.0403333 C17.0794167,13.17275 17.2904167,13.1764167 17.4228333,13.0485 C17.425625,13.0458333 17.4283333,13.0430833 17.431,13.0403333 L18.3736667,12.0976667 C18.5015833,11.96525 18.4979167,11.75425 18.3655,11.6263333 C18.2363333,11.5015417 18.0315,11.5015417 17.9023333,11.6263333" id="Fill-5"></path>
                    <path d="M10.0066667,12 C10.19075,12 10.34,11.85075 10.34,11.6666667 C10.34,11.4825833 10.19075,11.3333333 10.0066667,11.3333333 L10.0033333,11.3333333 C9.81925,11.33425 9.67075,11.48425 9.67166667,11.6683333 C9.67258333,11.8524167 9.82258333,12.0009167 10.0066667,12" id="Fill-6"></path>
                    <path d="M10.6666667,1.33333333 L9.33333333,1.33333333 C9.14925,1.33333333 9,1.48258333 9,1.66666667 C9,1.85075 9.14925,2 9.33333333,2 L10.6666667,2 C10.85075,2 11,1.85075 11,1.66666667 C11,1.48258333 10.85075,1.33333333 10.6666667,1.33333333" id="Fill-7"></path>
                </g>
            </g>
        </g>
    </g>
</svg>