<?xml version="1.0" encoding="UTF-8"?>
<svg width="12px" height="11px" viewBox="0 0 12 11" version="1.1" xmlns="http://www.w3.org/2000/svg" xmlns:xlink="http://www.w3.org/1999/xlink">
    <!-- Generator: sketchtool 59.1 (101010) - https://sketch.com -->
    <title>709D8520-E8D5-49C3-829B-BB999CB6A15A@1x</title>
    <desc>Created with sketchtool.</desc>
    <g id="Page-1" stroke="none" stroke-width="1" fill="none" fill-rule="evenodd">
        <g id="RWRK_Ranking_click" transform="translate(-166.000000, -384.000000)" fill="#FFFFFF" fill-rule="nonzero">
            <g id="Total-COntainer" transform="translate(40.000000, 36.000000)">
                <g id="Left-Panel">
                    <g id="Table" transform="translate(16.000000, 117.000000)">
                        <g id="Group-8" transform="translate(-0.500000, 0.000000)">
                            <g id="Horizontal-Items">
                                <g id="1" transform="translate(0.000000, 87.000000)">
                                    <g id="Hori-1" transform="translate(0.000000, 112.000000)">
                                        <g id="Group-5" transform="translate(11.500000, 27.000000)">
                                            <path d="M110.615465,9.86259143 L106.516196,5.76332288 C106.165099,5.41222571 105.596656,5.41222571 105.262278,5.76332288 C104.911181,6.11442006 104.911181,6.68286311 105.262278,7.01724138 L107.856844,9.61180773 L99.8861024,9.61180773 C99.4012539,9.61180773 99,10.0130617 99,10.4979101 C99,10.9827586 99.4012539,11.3840125 99.8861024,11.3840125 L107.840125,11.3840125 L105.262278,13.9785789 C104.911181,14.3296761 104.911181,14.8981191 105.262278,15.2324974 C105.429467,15.3996865 105.663532,15.5 105.897597,15.5 C106.131661,15.5 106.349007,15.4164054 106.532915,15.2324974 L110.648903,11.1165099 C110.816092,10.9493208 110.916405,10.715256 110.916405,10.4811912 C110.882968,10.2638454 110.782654,10.0297806 110.615465,9.86259143 Z" id="arrow"></path>
                                        </g>
                                    </g>
                                </g>
                            </g>
                        </g>
                    </g>
                </g>
            </g>
        </g>
    </g>
</svg>