<?xml version="1.0" encoding="UTF-8"?>
<svg width="46px" height="29px" viewBox="0 0 46 29" version="1.1" xmlns="http://www.w3.org/2000/svg" xmlns:xlink="http://www.w3.org/1999/xlink">
    <!-- Generator: sketchtool 63.1 (101010) - https://sketch.com -->
    <title>D54FC53C-3147-4026-BC0B-F257C0457318@1x</title>
    <desc>Created with sketchtool.</desc>
    <g id="Page-5" stroke="none" stroke-width="1" fill="none" fill-rule="evenodd">
        <g id="Back-button-etc" transform="translate(-50.000000, -72.000000)">
            <g id="Group" transform="translate(0.000000, 32.000000)">
                <g id="Back-Button" transform="translate(50.033445, 40.936455)">
                    <rect id="Rectangle" fill="#2B3648" x="-5.22248911e-13" y="1.42108547e-14" width="45.4849498" height="27.2909699" rx="13.6454849"></rect>
                    <path d="M31.3656633,13.1479933 L24.4007804,6.18311037 C24.1164994,5.89882943 23.666388,5.89882943 23.4057971,6.18311037 C23.1215162,6.4673913 23.1215162,6.91750279 23.4057971,7.17809365 L29.1624861,12.9347826 L14.6167781,12.9347826 C14.2140468,12.9347826 13.9060758,13.2427536 13.9060758,13.6454849 C13.9060758,14.0482163 14.2140468,14.3561873 14.6167781,14.3561873 L29.1624861,14.3561873 L23.4057971,20.1128763 C23.1215162,20.3971572 23.1215162,20.8472687 23.4057971,21.1078595 C23.5479376,21.25 23.7374582,21.3210702 23.9032887,21.3210702 C24.0691193,21.3210702 24.2586399,21.25 24.4007804,21.1078595 L31.3656633,14.1429766 C31.6499443,13.8586957 31.6499443,13.4085842 31.3656633,13.1479933 Z" id="Path" fill="#FFFFFF" fill-rule="nonzero" transform="translate(22.742475, 13.645485) scale(-1, 1) translate(-22.742475, -13.645485) "></path>
                </g>
            </g>
        </g>
    </g>
</svg>