<?xml version="1.0" encoding="UTF-8"?>
<svg width="18px" height="16px" viewBox="0 0 18 16" version="1.1" xmlns="http://www.w3.org/2000/svg" xmlns:xlink="http://www.w3.org/1999/xlink">
    <!-- Generator: sketchtool 57.1 (101010) - https://sketch.com -->
    <title>8DBA0FE2-BF6B-49D2-8320-04C3374CE8A7@1x</title>
    <desc>Created with sketchtool.</desc>
    <g id="Page-1" stroke="none" stroke-width="1" fill="none" fill-rule="evenodd">
        <g id="Home_2A2_District-List" transform="translate(-58.000000, -123.000000)" fill="#344052" fill-rule="nonzero">
            <g id="BG-2" transform="translate(40.000000, 36.000000)">
                <g id="Ranking-Section">
                    <g id="Rank-Card-Container">
                        <g id="Section-header" transform="translate(18.000000, 85.000000)">
                            <path d="M16.7344322,8.96840659 C17.2965562,8.96840659 17.7440476,9.41589799 17.7440476,9.97802198 C17.7440476,10.540146 17.2965562,10.9876374 16.7344322,10.9876374 L3.83642816,10.9876374 L8.74032946,15.8915387 C8.91776624,16.0856299 9.0260989,16.3499616 9.0260989,16.6153846 C9.0260989,16.8834946 8.91616461,17.1414174 8.71835144,17.3392306 C8.53206172,17.5255203 8.27921744,17.625 7.99450549,17.625 C7.70979355,17.625 7.45694927,17.5255203 7.27065955,17.3392306 L0.677693794,10.7242875 C0.27515995,10.3377284 0.27515995,9.70022508 0.677252955,9.29813208 L7.27110039,2.68230589 C7.46847272,2.48493429 7.72639548,2.375 7.99450549,2.375 C8.27921744,2.375 8.53206172,2.47447972 8.71835144,2.66076944 C9.12044445,3.04688694 9.12044445,3.6843903 8.71835144,4.08648331 L3.83642816,8.96840659 L16.7344322,8.96840659 Z" id="Back-Arrow-_-new"></path>
                        </g>
                    </g>
                </g>
            </g>
        </g>
    </g>
</svg>