<?xml version="1.0" encoding="UTF-8"?>
<svg width="46px" height="46px" viewBox="0 0 46 46" version="1.1" xmlns="http://www.w3.org/2000/svg" xmlns:xlink="http://www.w3.org/1999/xlink">
    <!-- Generator: sketchtool 59.1 (101010) - https://sketch.com -->
    <title>D9146E7F-1025-4119-8E02-337E02C0B6B0@1x</title>
    <desc>Created with sketchtool.</desc>
    <defs>
        <rect id="path-1" x="0" y="0" width="40" height="40" rx="20"></rect>
        <filter x="-13.8%" y="-8.8%" width="127.5%" height="127.5%" filterUnits="objectBoundingBox" id="filter-2">
            <feOffset dx="0" dy="2" in="SourceAlpha" result="shadowOffsetOuter1"></feOffset>
            <feGaussianBlur stdDeviation="1.5" in="shadowOffsetOuter1" result="shadowBlurOuter1"></feGaussianBlur>
            <feComposite in="shadowBlurOuter1" in2="SourceAlpha" operator="out" result="shadowBlurOuter1"></feComposite>
            <feColorMatrix values="0 0 0 0 0   0 0 0 0 0   0 0 0 0 0  0 0 0 0.076677229 0" type="matrix" in="shadowBlurOuter1"></feColorMatrix>
        </filter>
        <linearGradient x1="9.36708785%" y1="-92.833673%" x2="68.7334053%" y2="136.724659%" id="linearGradient-3">
            <stop stop-color="#F47200" offset="0%"></stop>
            <stop stop-color="#F53D58" offset="100%"></stop>
        </linearGradient>
    </defs>
    <g id="Page-1" stroke="none" stroke-width="1" fill="none" fill-rule="evenodd">
        <g id="RWRK_Ranking-table_default" transform="translate(-1170.000000, -109.000000)">
            <g id="Total-COntainer" transform="translate(40.000000, 36.000000)">
                <g id="Right-Container" transform="translate(612.000000, 0.000000)">
                    <g id="MAP" transform="translate(-12.000000, 37.000000)">
                        <g id="Group" transform="translate(-528.000000, -253.000000)">
                            <g id="Group-2" transform="translate(-0.000000, 0.000000)">
                                <g id="SUb-continent" transform="translate(539.380789, 0.000000)">
                                    <g id="table-view" transform="translate(521.619211, 290.000000)">
                                        <g id="Rectangle">
                                            <use fill="black" fill-opacity="1" filter="url(#filter-2)" xlink:href="#path-1"></use>
                                            <rect stroke="#E0E5ED" stroke-width="1" stroke-linejoin="square" fill="#FFFFFF" fill-rule="evenodd" x="0.5" y="0.5" width="39" height="39" rx="19.5"></rect>
                                        </g>
                                        <path d="M12,25.5 C13.3807119,25.5 14.5,26.6192881 14.5,28 C14.5,29.3807119 13.3807119,30.5 12,30.5 C10.6192881,30.5 9.5,29.3807119 9.5,28 C9.5,26.6192881 10.6192881,25.5 12,25.5 Z M20,25.5 C21.3807119,25.5 22.5,26.6192881 22.5,28 C22.5,29.3807119 21.3807119,30.5 20,30.5 C18.6192881,30.5 17.5,29.3807119 17.5,28 C17.5,26.6192881 18.6192881,25.5 20,25.5 Z M28,25.5 C29.3807119,25.5 30.5,26.6192881 30.5,28 C30.5,29.3807119 29.3807119,30.5 28,30.5 C26.6192881,30.5 25.5,29.3807119 25.5,28 C25.5,26.6192881 26.6192881,25.5 28,25.5 Z M12,17.5 C13.3807119,17.5 14.5,18.6192881 14.5,20 C14.5,21.3807119 13.3807119,22.5 12,22.5 C10.6192881,22.5 9.5,21.3807119 9.5,20 C9.5,18.6192881 10.6192881,17.5 12,17.5 Z M20,17.5 C21.3807119,17.5 22.5,18.6192881 22.5,20 C22.5,21.3807119 21.3807119,22.5 20,22.5 C18.6192881,22.5 17.5,21.3807119 17.5,20 C17.5,18.6192881 18.6192881,17.5 20,17.5 Z M28,17.5 C29.3807119,17.5 30.5,18.6192881 30.5,20 C30.5,21.3807119 29.3807119,22.5 28,22.5 C26.6192881,22.5 25.5,21.3807119 25.5,20 C25.5,18.6192881 26.6192881,17.5 28,17.5 Z M12,9.5 C13.3807119,9.5 14.5,10.6192881 14.5,12 C14.5,13.3807119 13.3807119,14.5 12,14.5 C10.6192881,14.5 9.5,13.3807119 9.5,12 C9.5,10.6192881 10.6192881,9.5 12,9.5 Z M20,9.5 C21.3807119,9.5 22.5,10.6192881 22.5,12 C22.5,13.3807119 21.3807119,14.5 20,14.5 C18.6192881,14.5 17.5,13.3807119 17.5,12 C17.5,10.6192881 18.6192881,9.5 20,9.5 Z M28,9.5 C29.3807119,9.5 30.5,10.6192881 30.5,12 C30.5,13.3807119 29.3807119,14.5 28,14.5 C26.6192881,14.5 25.5,13.3807119 25.5,12 C25.5,10.6192881 26.6192881,9.5 28,9.5 Z" id="Combined-Shape" fill="url(#linearGradient-3)"></path>
                                    </g>
                                </g>
                            </g>
                        </g>
                    </g>
                </g>
            </g>
        </g>
    </g>
</svg>