<?xml version="1.0" encoding="UTF-8"?>
<svg width="15px" height="14px" viewBox="0 0 15 14" version="1.1" xmlns="http://www.w3.org/2000/svg" xmlns:xlink="http://www.w3.org/1999/xlink">
    <!-- Generator: sketchtool 59.1 (101010) - https://sketch.com -->
    <title>15CA8756-1E3F-4787-AE41-4B347D9D9CFB@1x</title>
    <desc>Created with sketchtool.</desc>
    <g id="Page-1" stroke="none" stroke-width="1" fill="none" fill-rule="evenodd">
        <g id="RWRK_Ranking-table_default" transform="translate(-612.000000, -161.000000)" fill="#F24322" fill-rule="nonzero">
            <g id="Total-COntainer" transform="translate(40.000000, 36.000000)">
                <g id="Left-Panel">
                    <g id="Group-5" transform="translate(16.000000, 116.000000)">
                        <g id="Search" transform="translate(551.381874, 4.000000)">
                            <path d="M18.8012407,17.7620914 L16.0145291,14.9753799 C16.8927888,13.860151 17.3347533,12.5129418 17.3347533,11.1648256 C17.3347533,9.58767704 16.7315591,8.0096214 15.5281188,6.80640783 C14.325132,5.60342103 12.7479834,5.00000006 11.1712884,5.00000006 C9.59209889,4.99977336 8.01132207,5.60115338 6.80629439,6.80640783 C5.60217376,8.0103017 4.99988668,9.5892644 4.99988668,11.16732 C4.99988668,12.7453757 5.60217376,14.3243384 6.80629439,15.5280055 C8.00950796,16.7314458 9.5875636,17.3346399 11.1649389,17.3346399 C12.5128284,17.3346399 13.8600376,16.8926755 14.9752664,16.0144158 L17.7622047,18.8011273 C17.8946353,18.9335579 18.0687906,19.0000001 18.2422656,19.0000001 C18.4155139,19.0000001 18.589896,18.9335579 18.7223265,18.8011273 L18.8012407,18.7222132 C18.9336713,18.5897826 19.0001133,18.4151738 19.0001133,18.2421523 C19.0001133,18.0686773 18.9336713,17.894522 18.8012407,17.7620914 Z M14.7181152,14.7180019 C13.7380381,15.698079 12.4522822,16.1887978 11.1674334,16.1887978 C9.88258449,16.1887978 8.59705533,15.698079 7.61675147,14.7180019 C6.63644762,13.7379248 6.14595554,12.4521689 6.14595554,11.16732 C6.14595554,9.88247117 6.63644762,8.59694201 7.61675147,7.61663816 C8.59705533,6.6363343 9.88281125,6.14584222 11.1674334,6.14584222 C12.4522822,6.14584222 13.7380381,6.6363343 14.7181152,7.61663816 C15.6981923,8.59694201 16.1889112,9.88269794 16.1889112,11.16732 C16.1891379,12.4521689 15.6984191,13.7379248 14.7181152,14.7180019 Z" transform="translate(12.000000, 12.000000) scale(-1, 1) translate(-12.000000, -12.000000) "></path>
                        </g>
                    </g>
                </g>
            </g>
        </g>
    </g>
</svg>