<?xml version="1.0" encoding="UTF-8"?>
<svg width="22px" height="22px" viewBox="0 0 22 22" version="1.1" xmlns="http://www.w3.org/2000/svg" xmlns:xlink="http://www.w3.org/1999/xlink">
    <!-- Generator: sketchtool 50.2 (55047) - http://www.bohemiancoding.com/sketch -->
    <title>AFDF5185-5EE0-4AA7-A98C-441BAFD99F4F@1.5x</title>
    <desc>Created with sketchtool.</desc>
    <defs></defs>
    <g id="Page-1" stroke="none" stroke-width="1" fill="none" fill-rule="evenodd">
        <g id="Rev1.3-iPad-Table-View-1" transform="translate(-914.000000, -101.000000)" fill="#000000">
            <g id="Group-24" transform="translate(914.000000, 101.000000)">
                <g id="Group-5">
                    <path d="M11.8461538,6.42992308 C11.8461538,6.99219231 11.3917692,7.44657692 10.8316154,7.44657692 C10.2693462,7.44657692 9.81496154,6.99219231 9.81496154,6.42992308 C9.81496154,5.86976923 10.2693462,5.41538462 10.8316154,5.41538462 C11.3917692,5.41538462 11.8461538,5.86976923 11.8461538,6.42992308 Z" id="Fill-2"></path>
                    <path d="M10.8316154,0.338461538 C4.84888462,0.338461538 0,5.18734615 0,11.1700769 C0,17.1506923 4.84888462,21.9995769 10.8316154,21.9995769 C16.8122308,21.9995769 21.6611154,17.1506923 21.6611154,11.1700769 C21.6611154,5.18734615 16.8122308,0.338461538 10.8316154,0.338461538 Z M10.8316154,21.3239231 C5.23219231,21.3239231 0.677769231,16.7673846 0.677769231,11.1700769 C0.677769231,5.57065385 5.23219231,1.01623077 10.8316154,1.01623077 C16.4289231,1.01623077 20.9854615,5.57065385 20.9854615,11.1700769 C20.9854615,16.7673846 16.4289231,21.3239231 10.8316154,21.3239231 Z" id="Fill-4"></path>
                    <path d="M13.0426154,16.4517692 L11.6608462,16.4517692 L11.6608462,9.96684615 C11.6608462,9.77984615 11.5106538,9.62796154 11.3240769,9.62796154 L9.79338462,9.62796154 C9.60680769,9.62796154 9.45492308,9.77984615 9.45492308,9.96684615 C9.45492308,10.1534231 9.60680769,10.3057308 9.79338462,10.3057308 L10.9851923,10.3057308 L10.9851923,16.4517692 L9.25142308,16.4517692 C9.06484615,16.4517692 8.91253846,16.6019615 8.91253846,16.7906538 C8.91253846,16.9772308 9.06484615,17.1278462 9.25142308,17.1278462 L13.0426154,17.1278462 C13.2296154,17.1278462 13.3815,16.9772308 13.3815,16.7906538 C13.3815,16.6019615 13.2296154,16.4517692 13.0426154,16.4517692 Z" id="Fill-1"></path>
                </g>
            </g>
        </g>
    </g>
</svg>