<?xml version="1.0" encoding="UTF-8"?>
<svg width="87px" height="27px" viewBox="0 0 87 27" version="1.1" xmlns="http://www.w3.org/2000/svg" xmlns:xlink="http://www.w3.org/1999/xlink">
    <!-- Generator: sketchtool 59.1 (101010) - https://sketch.com -->
    <title>3FA80AC3-AECD-4781-8186-252E3E45A318@1x</title>
    <desc>Created with sketchtool.</desc>
    <g id="Page-1" stroke="none" stroke-width="1" fill="none" fill-rule="evenodd">
        <g id="RWRK_OUtcome-DistrictPerformance" transform="translate(-40.000000, -5.000000)" fill="#FFFFFF" fill-rule="nonzero">
            <g id="nikshay_logo_Ill" transform="translate(40.000000, 5.000000)">
                <g id="text" transform="translate(15.883043, 0.199565)">
                    <path d="M67.3434783,10.1621739 L68.4313043,10.5534783 C68.7404348,10.6591304 69.0417391,10.7765217 69.3508696,10.8743478 C69.4166325,10.8839386 69.4757374,10.9196752 69.5147826,10.9734544 C69.5538278,11.0272337 69.5695055,11.0944996 69.5582609,11.16 C69.5582609,13.833913 69.5582609,16.5078261 69.5582609,19.1817391 C69.5582609,20.1443478 69.5582609,21.1030435 69.5582609,22.0656522 C69.5541987,22.8690787 69.2690097,23.6457343 68.7521739,24.2608696 C68.1160292,25.0147534 67.2889002,25.5837425 66.3573913,25.9082609 C65.768747,26.1391765 65.1460361,26.2713869 64.5143478,26.2995652 C63.9934577,26.336242 63.4709874,26.345454 62.9491304,26.3269565 C61.8319648,26.2981303 60.7349599,26.0228769 59.7365217,25.5208696 C58.817902,25.0513883 58.0884863,24.2805285 57.6704348,23.3373913 C57.4410153,22.7573753 57.5205256,22.1006783 57.8817391,21.5921739 C58.2336589,21.0606791 58.7232358,20.6346661 59.2982609,20.3595652 C59.8314448,20.057961 60.4147206,19.8551401 61.02,19.7608696 C61.2425648,19.7261881 61.4679591,19.7130838 61.6930435,19.7217391 C61.767309,19.7353932 61.8333033,19.7775172 61.8769565,19.8391304 C62.2682609,20.3517391 62.6595652,20.8682609 63.0313043,21.3847826 C63.0637654,21.4299846 63.0913125,21.47852 63.1134783,21.5295652 C62.9413043,21.5491304 62.7886957,21.5726087 62.636087,21.5843478 C61.766397,21.6625641 60.9131619,21.8696088 60.1043478,22.1986957 C59.7410949,22.3188618 59.4103811,22.521039 59.1378261,22.7895652 C58.8789593,23.0371732 58.8023668,23.4201355 58.946087,23.7482609 C59.140867,24.192097 59.4585922,24.5709232 59.8617391,24.84 C60.3601103,25.2399064 60.9634572,25.4872242 61.5991304,25.5521739 C62.132205,25.5815231 62.6664906,25.5815231 63.1995652,25.5521739 C63.7094498,25.5292242 64.2125528,25.4262267 64.6904348,25.2469565 C65.2672775,25.0457175 65.7990526,24.7332996 66.2556522,24.3273913 C66.6144856,24.0207956 66.9187903,23.65563 67.1556522,23.2473913 C67.3650818,22.9135705 67.4887494,22.5331581 67.5156522,22.14 C67.5469565,21.2986957 67.5469565,20.4573913 67.5547826,19.62 C67.5547826,18.9156522 67.5547826,18.2152174 67.5547826,17.5147826 C67.5547826,17.456087 67.5547826,17.3973913 67.5547826,17.3034783 C67.0685131,17.8288525 66.4080228,18.1597929 65.696087,18.2347826 C64.9216581,18.373369 64.1330372,18.4154288 63.3482609,18.36 C62.112757,18.3263914 60.9494775,17.7703495 60.1473913,16.83 C59.7571709,16.3775555 59.4986462,15.8266679 59.4,15.2373913 C59.3743699,15.0769612 59.3625873,14.9146236 59.3647826,14.7521739 C59.3647826,12.8452174 59.3647826,10.9395652 59.3647826,9.03521739 L59.3647826,8.81217391 L51.0769565,8.81217391 C51.0769565,8.86304348 51.0769565,8.91782609 51.0769565,8.96869565 L51.0769565,10.3617391 C51.0769565,10.5456522 51.1004348,10.5613043 51.2882609,10.5221739 C51.84,10.4126087 52.3878261,10.2717391 52.9473913,10.1973913 C53.3987113,10.15557 53.8521547,10.1411957 54.3052174,10.1543478 C54.7706621,10.1521432 55.2328851,10.2316084 55.6708696,10.3891304 C56.2480886,10.5599397 56.7276186,10.9642772 56.9934783,11.5043478 C57.177328,11.9078183 57.286063,12.3414324 57.3143478,12.783913 C57.3652174,13.4256522 57.4082609,14.0634783 57.416087,14.7052174 C57.4395652,16.1726087 57.4434783,17.64 57.4552174,19.1073913 C57.4491186,19.1471678 57.439961,19.1864146 57.4278261,19.2247826 L56.8173913,18.9821739 L55.8821739,18.5908696 C55.7776957,18.5646411 55.7068915,18.467491 55.713913,18.36 C55.713913,18.1291304 55.6043478,18.0704348 55.4086957,18.1956522 C54.7344998,18.6315973 53.978036,18.9245939 53.186087,19.0565217 C52.568523,19.1518495 51.9414046,19.1689408 51.3195652,19.1073913 C50.5489774,19.0505644 49.8130419,18.7643672 49.2065217,18.2856522 C48.6911222,17.9219833 48.3297764,17.3792671 48.1930435,16.7634783 C48.0869421,16.1464982 48.2604113,15.5142673 48.6665217,15.0378261 C49.4910154,13.9764458 50.6807122,13.2595593 52.0043478,13.0265217 C52.4444806,12.9444143 52.890986,12.9012041 53.3386957,12.8973913 C53.9901317,12.8837562 54.636226,13.0175231 55.2286957,13.2886957 C55.3969565,13.3669565 55.5495652,13.4686957 55.7373913,13.5782609 C55.7406319,13.5156941 55.7406319,13.4530015 55.7373913,13.3904348 C55.7276087,13.2327603 55.7276087,13.074631 55.7373913,12.9169565 C55.7566282,12.7436134 55.6961798,12.5709037 55.5730435,12.4473913 C55.2029758,11.9866307 54.6562824,11.7026342 54.0665217,11.6647826 C53.1532041,11.6146705 52.2379417,11.7178359 51.3586957,11.97 C50.8069565,12.1304348 50.2747826,12.3613043 49.7347826,12.5530435 L49.1869565,12.7486957 C49.1869565,12.4865217 49.1869565,12.2478261 49.1869565,12.0130435 C49.2025969,11.9489721 49.2399263,11.8922866 49.2926087,11.8526087 C49.3786957,11.7704348 49.4843478,11.7117391 49.5626087,11.6295652 C49.6145347,11.5784445 49.6464583,11.5104333 49.6526087,11.4378261 C49.6526087,10.5730435 49.6526087,9.70826087 49.6526087,8.84347826 C49.6526087,8.84347826 49.6526087,8.84347826 49.6526087,8.80043478 L39.236087,8.80043478 L39.236087,11.9504348 C39.3182609,11.876087 39.3808696,11.8252174 39.4395652,11.7665217 C39.834372,11.3345862 40.2858679,10.9581202 40.7817391,10.6473913 C41.2488202,10.3670381 41.7759939,10.2020448 42.3195652,10.166087 C42.928093,10.11784 43.5399731,10.1978243 44.1156522,10.4008696 C44.7640748,10.6339949 45.3364398,11.0399275 45.7708696,11.5747826 C46.2695762,12.1688166 46.6471164,12.8547699 46.8821739,13.593913 C47.055892,14.1113043 47.1276508,14.6574686 47.0934783,15.2021739 C47.0358058,16.2129125 46.6450282,17.1760967 45.9821739,17.9413043 C45.5908696,18.3873913 45.1565217,18.7826087 44.733913,19.1934783 C44.6870101,19.2323013 44.6233793,19.2441396 44.5656522,19.2247826 C44.0373913,18.9195652 43.5130435,18.6065217 43.0004348,18.2973913 C42.9671023,18.2724083 42.9357083,18.2449385 42.9065217,18.2152174 C43.1373913,17.9569565 43.3721739,17.7065217 43.5913043,17.4326087 C44.1156554,16.9094714 44.5659225,16.3170147 44.9295652,15.6717391 C45.1574196,15.1779551 45.2977668,14.6483432 45.3443478,14.1065217 C45.4000286,13.6426611 45.3748736,13.1726589 45.27,12.7173913 C45.1446823,12.1392887 44.7921474,11.6358689 44.2917391,11.3204348 C43.9647538,11.1331976 43.5851791,11.0589329 43.2117391,11.1091304 C42.3062183,11.2258115 41.4574727,11.6147062 40.7778261,12.2243478 C40.06084,12.7495606 39.5215277,13.4813869 39.2321739,14.3217391 C39.1736975,14.514745 39.1420959,14.7148883 39.1382609,14.9165217 C39.1382609,16.2743478 39.1382609,17.6321739 39.1382609,18.986087 L39.1382609,19.2052174 C38.9582609,19.1113043 38.8056522,19.0369565 38.6569565,18.9547826 C38.2108696,18.7082609 37.7686957,18.4578261 37.3147826,18.2191304 C37.2098004,18.1770872 37.1468879,18.0690067 37.1621739,17.9569565 C37.1621739,14.9830435 37.1621739,12.0091304 37.1621739,9.03521739 L37.1621739,8.78869565 L35.0686957,8.78869565 L35.0686957,12.8191304 L34.6421739,12.6234783 C34.0372172,12.3559762 33.3987992,12.1716906 32.7443478,12.0756522 C32.2283718,11.9749651 31.7047176,11.9186722 31.1791304,11.9073913 C30.2412089,11.8915134 29.3096802,12.0645115 28.44,12.416087 C28.0305757,12.5496886 27.6733731,12.8083525 27.4186957,13.1556522 C27.1553938,13.5710059 27.2637841,14.1198393 27.6652174,14.403913 C27.9227251,14.525351 28.2138493,14.5557052 28.4908696,14.49 C29.3122352,14.2947118 30.1189763,14.0423601 30.9052174,13.7347826 C31.1700684,13.6467202 31.4447338,13.5915242 31.7230435,13.5704348 C32.1044941,13.5371838 32.4881146,13.5371838 32.8695652,13.5704348 C33.2466539,13.6059655 33.6175596,13.6901427 33.9730435,13.8208696 C34.7468232,14.0777544 35.3319367,14.717676 35.5186957,15.5113043 C35.6930406,16.2542598 35.4761382,17.0348134 34.9434783,17.5813043 C34.1704949,18.3730815 33.1636733,18.895696 32.0713043,19.0721739 C32.0008696,19.0721739 31.9265217,19.0721739 31.856087,19.0956522 C31.7856522,19.1191304 31.8326087,19.1191304 31.8091304,19.1426087 C32.0541693,19.3957874 32.3449466,19.6002609 32.666087,19.7452174 C32.9597497,19.8602345 33.280208,19.8887498 33.5895652,19.8273913 C33.6678642,19.8357421 33.7382634,19.8788436 33.7813043,19.9447826 C34.0513043,20.3752174 34.3134783,20.8134783 34.563913,21.2478261 L34.7908696,21.6195652 C34.6014353,21.7019383 34.4031856,21.7623323 34.2,21.7995652 C33.76551,21.8445671 33.3275335,21.8445671 32.8930435,21.7995652 C32.3982342,21.710445 31.9683466,21.4066578 31.7191304,20.97 C31.4334783,20.5278261 31.1634783,20.0778261 30.8778261,19.6356522 C30.8035645,19.5095295 30.7082776,19.397038 30.596087,19.3030435 C30.4827061,19.2161973 30.3470235,19.1632811 30.2047826,19.1504348 C29.4041335,19.1445807 28.6102731,19.0030089 27.8569565,18.7317391 C27.4326597,18.6086322 27.0585302,18.3537308 26.7886957,18.003913 C26.5757881,17.6861436 26.5182385,17.2890511 26.6321739,16.923913 C26.7225996,16.6544779 26.9573202,16.4591298 27.2386957,16.4191304 C27.6789866,16.3472383 28.1306775,16.4243563 28.5221739,16.6382609 C29.0895652,16.8886957 29.6530435,17.1586957 30.2282609,17.3856522 C30.7779767,17.5888197 31.3683855,17.6572534 31.95,17.5852174 C32.8282499,17.4981975 33.6792905,17.2318311 34.4504348,16.8026087 C34.7088888,16.6851539 34.9160235,16.4780192 35.0334783,16.2195652 C35.1206745,15.999152 35.1032762,15.7510963 34.986166,15.5450128 C34.8690558,15.3389294 34.6648546,15.1970274 34.4308696,15.1591304 C33.9614376,15.0743296 33.4785621,15.1024974 33.0221739,15.2413043 C32.126087,15.4643478 31.233913,15.6991304 30.3378261,15.9182609 C29.3447198,16.1843459 28.2851323,15.8993019 27.5595652,15.1708696 C27.1118556,14.7777272 26.7655464,14.2824245 26.55,13.7269565 C26.2964687,13.1055829 26.3063556,12.4078535 26.5773913,11.793913 C26.7903244,11.3672535 27.134609,11.0202255 27.5595652,10.803913 C28.2215772,10.4476662 28.9453076,10.2205875 29.6921739,10.1347826 C30.0298217,10.0782951 30.3711911,10.0469048 30.7134783,10.0408696 C31.4406087,10.0610936 32.1628907,10.1661528 32.8656522,10.353913 L33.6482609,10.5456522 L33.6482609,8.76521739 L18.5126087,8.76521739 L18.5126087,11.4691304 L18.7356522,11.3673913 C19.3343478,11.0973913 19.9095652,10.803913 20.5317391,10.5847826 C20.8243435,10.4910102 21.1285543,10.438333 21.4356522,10.4282609 C21.7208987,10.4067328 22.0073621,10.4067328 22.2926087,10.4282609 C22.9846175,10.4702974 23.6458496,10.7290404 24.1826087,11.1678261 C24.5818975,11.4690411 24.8596448,11.9037156 24.9652174,12.3926087 C25.1255003,13.0293299 24.9680658,13.7042571 24.5426087,14.2043478 C24.1195026,14.6805868 23.5611704,15.0164052 22.9421739,15.1669565 C22.676087,15.2491304 22.3982609,15.2921739 22.1047826,15.3586957 L24.5582609,18.3404348 L23.2082609,19.3265217 L22.4256522,18.4186957 L21.6195652,17.4521739 C21.2947826,17.0608696 20.97,16.6695652 20.6413043,16.2782609 C20.3126087,15.8869565 19.983913,15.4956522 19.6513043,15.1043478 C19.5733112,15.0236711 19.5013768,14.9373498 19.436087,14.846087 C19.4108015,14.7887509 19.4108015,14.723423 19.436087,14.666087 C19.623913,14.2473913 19.8273913,13.8365217 20.0152174,13.4178261 C20.0582609,13.3278261 20.1013043,13.3082609 20.2108696,13.3278261 C20.5888009,13.4032065 20.9722408,13.4477013 21.3573913,13.4608696 C21.9777731,13.4930505 22.5806958,13.24959 23.0047826,12.7956522 C23.3426516,12.4292361 23.4774278,11.9194305 23.3647826,11.433913 C23.2451095,11.1014901 22.9352542,10.8752957 22.5821739,10.8626087 C22.171984,10.7881714 21.7487037,10.8500143 21.3769565,11.0386957 C21.0864038,11.1828569 20.8111026,11.3559034 20.5552174,11.5552174 C19.9947555,12.0160435 19.5124509,12.5644172 19.1269565,13.1791304 C18.8316301,13.5904154 18.6275155,14.0600124 18.5282609,14.5565217 C18.5178677,14.6226069 18.5113348,14.6892416 18.5086957,14.756087 L18.5086957,19.3186957 L17.9686957,19.0917391 C17.5773913,18.9195652 17.186087,18.7356522 16.7673913,18.5673913 C16.6382609,18.5126087 16.6343478,18.4226087 16.6343478,18.3091304 C16.6343478,15.2204348 16.6343478,12.1330435 16.6343478,9.04695652 L16.6343478,8.7926087 L0.242608696,8.7926087 C1.42108547e-13,8.7926087 1.42108547e-13,8.7926087 1.42108547e-13,8.55782609 C1.42108547e-13,8.25652174 1.42108547e-13,7.95521739 1.42108547e-13,7.65782609 C1.42108547e-13,7.52869565 0.0430434783,7.48173913 0.164347826,7.4973913 L16.56,7.4973913 C16.5411309,7.35589629 16.529377,7.21354323 16.5247826,7.07086957 C16.5217973,5.86422541 16.319509,4.66636165 15.926087,3.52565217 C15.6425311,2.74618864 15.2341628,2.01799791 14.7169565,1.36956522 C14.3882609,0.946956522 14.0947826,0.496956522 13.7582609,0.0195652174 C13.8678261,0.0195652174 13.9147826,-7.10542736e-15 13.9617391,-7.10542736e-15 C14.5878261,-7.10542736e-15 15.2178261,-7.10542736e-15 15.843913,-7.10542736e-15 C16.0473913,-7.10542736e-15 16.1334783,0.152608696 16.2352174,0.27 C17.340324,1.70333378 18.0391298,3.40777112 18.2582609,5.20434783 C18.3091304,5.67391304 18.3521739,6.13956522 18.3952174,6.60913043 C18.4186957,6.89869565 18.4304348,7.19217391 18.446087,7.48956522 L37.1465217,7.48956522 C37.21217,4.66820114 35.9413926,1.98158053 33.7186957,0.242608696 C34.0317391,0.242608696 34.3291304,0.242608696 34.6265217,0.242608696 C34.923913,0.242608696 35.2017391,0.242608696 35.4834783,0.207391304 C35.7481747,0.185896087 36.0107844,0.268751533 36.2152174,0.43826087 C36.8975239,0.961325271 37.4549038,1.62964657 37.8469565,2.39478261 C38.3303013,3.27868139 38.6922577,4.22371682 38.9230435,5.20434783 C39.0521739,5.76391304 39.1069565,6.33913043 39.1891304,6.90652174 C39.2165217,7.09043478 39.2243478,7.27434783 39.243913,7.48956522 L70.3056522,7.48956522 C70.4113043,7.48956522 70.4426087,7.52869565 70.4390153,7.63043478 C70.4390153,7.97869565 70.4191304,8.32695652 70.3995652,8.67521739 C70.3995652,8.71434783 70.3330435,8.76130435 70.286087,8.78086957 C70.2420643,8.78846397 70.1970662,8.78846397 70.1530435,8.78086957 L61.4230435,8.78086957 C61.4230435,8.85521739 61.4230435,8.91782609 61.4230435,8.97652174 C61.4230435,11.0817391 61.4230435,13.1830435 61.4230435,15.2882609 C61.4362216,15.6850511 61.495311,16.0789799 61.5991304,16.4621739 C61.7263557,17.0277441 62.1454233,17.482604 62.6986957,17.6556522 C63.4682562,17.9702402 64.3356764,17.9403292 65.0817391,17.5734783 C65.8301615,17.1783245 66.4494578,16.5766836 66.866087,15.84 C67.1055827,15.4211866 67.2673186,14.9624929 67.3434783,14.486087 C67.3473855,14.430068 67.3473855,14.373845 67.3434783,14.3178261 L67.3434783,10.1308696 L67.3434783,10.1621739 Z M50.7404348,17.9256522 C51.1982609,17.8669565 51.6756522,17.8278261 52.1413043,17.7417391 C52.7162599,17.6456224 53.2706844,17.4524339 53.7808696,17.1704348 C54.3175934,16.8618634 54.8374634,16.5248622 55.3382609,16.1608696 C55.5079532,16.0251402 55.6366427,15.8449749 55.71,15.6404348 C55.796087,15.4095652 55.6278261,15.1826087 55.3186957,15.026087 C54.4083528,14.5302786 53.3660939,14.3305807 52.3369565,14.4547826 C51.602809,14.5417532 50.9020237,14.8107687 50.2982609,15.2373913 C49.7416188,15.621396 49.2907696,16.1395361 48.9873913,16.743913 C48.8655525,16.9484725 48.8909209,17.2084994 49.05,17.3856522 C49.2103227,17.5866443 49.4360082,17.7251016 49.6878261,17.7769565 C50.0165217,17.8395652 50.3686957,17.8747826 50.7404348,17.9256522 Z" id="Shape"></path>
                    <path d="M2.71956522,19.4713043 L1.36565217,18.7669565 C1.33925004,18.7463883 1.31031823,18.7292922 1.27956522,18.716087 C1.00173913,18.6417391 0.943043478,18.4578261 0.943043478,18.18 C0.943043478,15.6873913 0.943043478,13.1908696 0.943043478,10.6982609 C0.943043478,10.526087 0.99,10.4791304 1.16217391,10.4830435 C1.63956522,10.4830435 2.12086957,10.4830435 2.60217391,10.4830435 C2.73913043,10.4830435 2.79391304,10.5182609 2.78608696,10.6630435 C2.78608696,10.9526087 2.78608696,11.2382609 2.78608696,11.5278261 C2.78608696,11.5826087 2.78608696,11.6373913 2.78608696,11.7352174 C2.97782609,11.5943478 3.14608696,11.4808696 3.3026087,11.343913 C3.71266852,11.0031228 4.16036037,10.7103507 4.63695652,10.4713043 C5.09430417,10.2570895 5.58564397,10.1246529 6.08869565,10.08 C6.81187168,10.0129005 7.5394522,10.1483903 8.19,10.4713043 C8.93912319,10.8556871 9.5614091,11.4480816 9.98217391,12.1773913 C10.3621816,12.8081902 10.5986483,13.5149183 10.6747826,14.2473913 C10.7467012,14.8669359 10.7122936,15.4942124 10.5730435,16.1021739 C10.3178035,17.173513 9.82276334,18.1729589 9.12521739,19.0252174 C9.01173913,19.173913 8.89043478,19.3108696 8.76913043,19.4517391 C8.71043478,19.5221739 8.65565217,19.5847826 8.54608696,19.5143478 L6.6326087,18.3013043 L6.58956522,18.2621739 C6.6326087,18.2191304 6.67173913,18.18 6.70695652,18.1369565 C7.24304348,17.5578261 7.79478261,16.9943478 8.30347826,16.3956522 C8.69530442,15.9150504 8.95073819,15.3379592 9.04304348,14.7247826 C9.12299411,14.3067508 9.16620247,13.8825233 9.17217391,13.4569565 C9.19122305,12.9632661 9.09615034,12.4718339 8.89434783,12.0208696 C8.64131432,11.5019367 8.163685,11.1282026 7.59913043,11.0073913 C6.88949941,10.8183752 6.13600344,10.8848601 5.47043478,11.1952174 C4.99031272,11.4317631 4.56713033,11.7695081 4.23,12.1852174 C3.88535681,12.5987128 3.59354637,13.0535164 3.36130435,13.5391304 C3.02720762,14.1940529 2.82385709,14.9077734 2.7626087,15.6404348 C2.7273913,16.1608696 2.73130435,16.6891304 2.7273913,17.2056522 C2.7273913,17.8865217 2.7273913,18.5634783 2.7273913,19.2443478 L2.71956522,19.4713043 Z" id="Path"></path>
                    <path d="M14.3413043,19.3813043 L13.4413043,18.9 C13.1869565,18.7591304 12.9365217,18.6104348 12.6586957,18.4734783 C12.5743584,18.4390186 12.5232058,18.3526986 12.5334783,18.2621739 L12.5334783,10.2913043 C12.5334783,10.1582609 12.5647826,10.1113043 12.7017391,10.1152174 C13.1947826,10.1152174 13.683913,10.1152174 14.1769565,10.1152174 C14.2865217,10.1152174 14.3413043,10.1386957 14.3413043,10.263913 C14.3413043,13.2769565 14.3413043,16.2886957 14.3413043,19.2991304 C14.3569565,19.3147826 14.3491304,19.3304348 14.3413043,19.3813043 Z" id="Path"></path>
                    <path d="M14.673913,6.42130435 C14.5017391,6.46043478 14.396087,6.36652174 14.313913,6.18652174 C14.1417391,5.79521739 13.9656522,5.40391304 13.7621739,5.05173913 C13.5260417,4.59986542 13.1297416,4.25240509 12.6508696,4.0773913 L12.1030435,3.85826087 C11.8489538,3.76363349 11.6526359,3.55721102 11.5708696,3.29869565 C11.43,2.85652174 11.2343478,2.46521739 11.066087,2.07391304 C11.0466504,2.02761137 11.0334904,1.97891931 11.0269565,1.92913043 C11.0073913,1.80391304 11.0269565,1.75304348 11.1913043,1.74913043 C11.4826143,1.76549294 11.7681395,1.83720625 12.0326087,1.96043478 C12.5442358,2.09710122 13.0295583,2.31794277 13.4686957,2.61391304 C13.7612191,2.81578966 13.9786294,3.10888081 14.0869565,3.4473913 C14.2473913,3.96 14.403913,4.4726087 14.576087,4.98130435 C14.673913,5.27086957 14.7952174,5.55652174 14.9008696,5.84217391 C14.936646,5.94162867 14.9577372,6.04576649 14.9634783,6.15130435 C14.9752174,6.42130435 14.9673913,6.42130435 14.673913,6.42130435 Z" id="Path"></path>
                </g>
                <g id="Phone" transform="translate(0.036445, 2.993173)">
                    <path d="M14.6452946,14.4824791 C14.4261642,14.4511747 14.2226859,14.4159574 14.0192077,14.3963921 C13.9174685,14.3963921 13.7492077,14.4394356 13.7296424,14.3963921 C13.6902869,14.2874954 13.6755858,14.1712225 13.686599,14.0559574 L13.686599,3.134653 C13.686599,2.9272617 13.686599,2.71595735 13.686599,2.50856605 C13.686599,2.30117474 13.5848598,2.15639213 13.3383381,2.15639213 L1.49746852,2.15639213 C1.00833809,2.15639213 0.965294608,2.19552257 0.965294608,2.684653 L0.965294608,17.8516095 C0.965294608,17.9220443 0.965294608,17.9963921 0.965294608,18.07074 C0.965294608,18.344653 1.05920765,18.434653 1.32920765,18.434653 L7.93442504,18.434653 C8.07529461,18.434653 8.15355548,18.4581313 8.20442504,18.61074 C8.29034164,18.8340932 8.45252266,19.019839 8.66225113,19.1350878 C9.2520342,19.5230465 9.77974225,19.9979838 10.2274685,20.5437834 C10.2557537,20.578684 10.2818889,20.6152733 10.3057294,20.6533487 C10.3207751,20.6810914 10.3338509,20.709858 10.3448598,20.7394356 L10.1257294,20.7394356 L3.14094678,20.7394356 C2.5579033,20.7394356 1.96703374,20.7120443 1.39572939,20.7394356 C1.01817434,20.7603399 0.649727014,20.618643 0.383470601,20.3501429 C0.117214189,20.0816427 -0.0213858424,19.7120193 0.00268591225,19.334653 C0.00268591225,18.2076965 0.00268591225,17.084653 0.00268591225,15.9576965 C0.00268591225,11.1368269 0.00268591225,6.31073996 0.00268591225,1.47943561 C-0.0216687537,1.06786145 0.127322529,0.664875502 0.413555477,0.368131265 C0.641720761,0.126400401 0.961671352,-0.00726784646 1.29399026,0.000305178137 C5.28529461,0.000305178137 9.27659896,0.000305178137 13.2679033,0.000305178137 C13.6327268,-0.00606571991 13.984593,0.135511452 14.2433376,0.392781722 C14.5020822,0.650051991 14.6456677,1.00110343 14.6413816,1.36595735 C14.6413816,2.40291387 14.6413816,3.43595735 14.6413816,4.47291387 C14.6413816,7.75204431 14.6413816,11.0311747 14.6413816,14.3103052 L14.6452946,14.4824791 Z M6.84268591,19.604653 C6.84916925,19.8207644 7.02961797,19.9907016 7.24572939,19.9842182 C7.46184081,19.9777349 7.63177795,19.7972862 7.62529461,19.5811747 C7.61881127,19.3650633 7.43836255,19.1951262 7.22225113,19.2016095 C7.00613971,19.2080929 6.83620257,19.3885416 6.84268591,19.604653 L6.84268591,19.604653 Z" id="Shape"></path>
                    <path d="M10.7752946,18.0198704 L10.5757294,17.3155226 C10.4935555,17.0259574 10.4231207,16.728566 10.3292077,16.4390008 C10.2352946,16.1494356 10.1100772,15.8363921 10.000512,15.5390008 C9.7579033,14.8894356 9.50355548,14.2476965 9.280512,13.5824791 C9.24040927,13.4030799 9.25125202,13.2160425 9.31181635,13.0424791 C9.39127424,12.795114 9.63773535,12.6412825 9.89485983,12.678566 C10.1127345,12.6804626 10.3063657,12.8178783 10.3800772,13.0229139 C10.5718163,13.48074 10.7400772,13.9503052 10.9122511,14.4120443 C11.084425,14.8737834 11.2174685,15.2337834 11.3700772,15.644653 C11.3866642,15.6738953 11.4077979,15.7003124 11.4326859,15.7229139 C11.4679033,15.6876965 11.5031207,15.6642182 11.530512,15.6329139 C11.6233894,15.4933507 11.7728785,15.4016241 11.939373,15.3820365 C12.1058675,15.3624489 12.272563,15.4169773 12.3952946,15.5311747 C12.5009468,15.6094356 12.5557294,15.5820443 12.6379033,15.5037834 C12.726152,15.3815989 12.8630369,15.3036734 13.0131514,15.2901631 C13.1632658,15.2766528 13.311865,15.3288848 13.420512,15.4333487 C13.4909468,15.4842182 13.5535555,15.4920443 13.604425,15.4137834 C13.7461844,15.2491412 13.9631648,15.169761 14.1777031,15.2040552 C14.3922413,15.2383495 14.5736636,15.3814148 14.6570337,15.5820443 C14.9789441,16.2717358 15.2192652,16.996639 15.3731207,17.7420443 C15.4748598,18.2624791 15.5609468,18.7829139 15.6392077,19.3072617 C15.680116,19.5912129 15.7036381,19.8773982 15.7096424,20.1642182 C15.7074399,20.2685865 15.6702313,20.3691876 15.6039903,20.4498704 C15.3178587,20.7503293 14.9710415,20.9864318 14.586599,21.1424791 C13.8314723,21.5192909 13.0039692,21.728836 12.160512,21.7568269 C12.0015208,21.7766927 11.8464828,21.6976234 11.7692077,21.5572617 C11.4248598,21.048566 11.0687729,20.5476965 10.7126859,20.0468269 C10.2700959,19.460464 9.72847685,18.9559239 9.11225113,18.5559574 C9.03336233,18.4915829 8.95106966,18.4314961 8.86572939,18.3759574 C8.66940396,18.2343093 8.55740633,18.0034796 8.56764854,17.7616058 C8.57789075,17.519732 8.70900156,17.2991968 8.91659896,17.174653 C9.08727008,17.061125 9.30940609,17.061125 9.48007722,17.174653 C9.84007722,17.4250878 10.1922511,17.6872617 10.5522511,17.9572617 C10.5952946,17.9924791 10.6500772,18.0159574 10.6970337,18.0472617 L10.7752946,18.0198704 Z" id="Path"></path>
                    <g id="Group-9" transform="translate(1.761013, 5.243576)">
                        <path d="M1.91210802,2.88412058 C2.17819498,2.68846841 2.39341237,2.52412058 2.61645585,2.3636858 C3.02311347,2.06435175 3.49776197,1.87072743 3.9977602,1.80020754 C4.76879553,1.67600032 5.55550707,1.89627955 6.14993411,2.40281623 C6.72559873,2.8824895 7.11244975,3.55081276 7.24167324,4.28890319 C7.44786905,5.44361298 7.15021715,6.6313722 6.42384715,7.55238145 C6.28513634,7.75144344 6.13487875,7.94220525 5.97384715,8.1236858 C5.93215206,8.16049268 5.87405691,8.17240963 5.82123846,8.15499014 C5.39080368,7.89672928 4.96428194,7.62672928 4.5377602,7.37238145 C4.52461111,7.36021872 4.51397554,7.34559481 4.50645585,7.32933797 L5.28906455,6.50759884 C5.65587093,6.15139356 5.93224214,5.7126878 6.0951515,5.22803362 C6.28225376,4.64200945 6.31060871,4.01685019 6.17732542,3.41629449 C6.05286882,2.85164067 5.57890438,2.4313922 5.00341237,2.37542493 C4.44333906,2.27986626 3.86818457,2.40924087 3.40297759,2.73542493 C3.00099638,3.01906281 2.66798919,3.3895166 2.42862976,3.81933797 C2.15210732,4.30261523 1.96892461,4.83357958 1.88862976,5.38455536 C1.86421889,5.54524361 1.84984321,5.70729666 1.84558629,5.86977275 C1.84558629,6.54281623 1.84558629,7.21194667 1.84558629,7.88499014 L1.84558629,8.10412058 L1.63819498,8.00629449 L0.816455851,7.5836858 C0.704708293,7.53893885 0.636079838,7.4256221 0.648194981,7.30585971 C0.648194981,5.62325101 0.648194981,3.93933797 0.648194981,2.25412058 C0.648194981,2.10933797 0.679499329,2.05064232 0.836021068,2.05846841 C1.1451515,2.05846841 1.45819498,2.05846841 1.76732542,2.05846841 C1.87689063,2.05846841 1.91993411,2.0936858 1.91602107,2.20716406 C1.90819498,2.39890319 1.91210802,2.61412058 1.91210802,2.88412058 Z" id="Path"></path>
                        <path d="M3.89602107,0.896294492 C2.66732542,0.896294492 1.44254281,0.896294492 0.217760198,0.896294492 C0.0416732418,0.896294492 -0.0131093669,0.845424927 0.00254280705,0.677164058 C0.0162398998,0.518328366 0.0162398998,0.358608445 0.00254280705,0.199772753 C0.00254280705,0.0471640577 0.0377601984,-0.00370550754 0.198194981,0.000207535934 L3.46949933,0.000207535934 C4.85080368,0.000207535934 6.22819498,0.000207535934 7.60558629,0.000207535934 C7.78167324,0.000207535934 7.83645585,0.0549901446 7.82080368,0.223251014 C7.80515494,0.375458548 7.80515494,0.528869567 7.82080368,0.681077101 C7.82080368,0.849337971 7.78167324,0.900207536 7.60558629,0.900207536 C6.36906455,0.892381449 5.13254281,0.896294492 3.89602107,0.896294492 Z" id="Path"></path>
                    </g>
                </g>
            </g>
        </g>
    </g>
</svg>