<?xml version="1.0" encoding="UTF-8"?>
<svg width="15px" height="15px" viewBox="0 0 15 15" version="1.1" xmlns="http://www.w3.org/2000/svg" xmlns:xlink="http://www.w3.org/1999/xlink">
    <!-- Generator: sketchtool 59.1 (101010) - https://sketch.com -->
    <title>B7CF4515-EFCB-4CBB-B3D3-036E4F072E17@1x</title>
    <desc>Created with sketchtool.</desc>
    <g id="Page-1" stroke="none" stroke-width="1" fill="none" fill-rule="evenodd">
        <g id="RWRK_Ranking_table" transform="translate(-985.000000, -86.000000)" fill="#B9C4D6" fill-rule="nonzero">
            <g id="Total-COntainer" transform="translate(40.000000, 36.000000)">
                <g id="Left-Panel">
                    <g id="Drop-downs" transform="translate(408.000000, 44.000000)">
                        <g id="DD_Time-Selector">
                            <path d="M551.753086,19.4855967 L548.824417,16.5569273 C550.799726,13.9890261 550.602195,10.2798354 548.231824,7.93141289 C546.9369,6.63648834 545.268861,6 543.578875,6 C541.888889,6 540.22085,6.63648834 538.925926,7.93141289 C536.358025,10.4993141 536.358025,14.6694102 538.925926,17.2373114 C540.22085,18.5322359 541.888889,19.1687243 543.578875,19.1687243 C544.983539,19.1687243 546.388203,18.7297668 547.55144,17.829904 L550.502058,20.7366255 C550.677641,20.9122085 550.897119,21 551.138546,21 C551.358025,21 551.599451,20.9122085 551.775034,20.7366255 C552.104252,20.4074074 552.104252,19.8367627 551.753086,19.4855967 Z M543.600823,17.3909465 C542.305898,17.3909465 541.120713,16.8861454 540.198903,15.9862826 C538.333333,14.1207133 538.333333,11.0699588 540.198903,9.1824417 C541.098765,8.28257888 542.305898,7.77777778 543.600823,7.77777778 C544.895748,7.77777778 546.080933,8.28257888 547.002743,9.1824417 C547.924554,10.0823045 548.407407,11.2894376 548.407407,12.5843621 C548.407407,13.8792867 547.902606,15.0644719 547.002743,15.9862826 C546.102881,16.9080933 544.8738,17.3909465 543.600823,17.3909465 Z" id="Search"></path>
                        </g>
                    </g>
                </g>
            </g>
        </g>
    </g>
</svg>