<?xml version="1.0" encoding="UTF-8"?>
<svg width="10px" height="14px" viewBox="0 0 10 14" version="1.1" xmlns="http://www.w3.org/2000/svg" xmlns:xlink="http://www.w3.org/1999/xlink">
    <!-- Generator: sketchtool 59.1 (101010) - https://sketch.com -->
    <title>A20C85BB-95D7-4B0B-AE45-BEE3A92E1C95@1x</title>
    <desc>Created with sketchtool.</desc>
    <g id="Page-1" stroke="none" stroke-width="1" fill="none" fill-rule="evenodd">
        <g id="RWRK_Outcome-TableView_Default" transform="translate(-798.000000, -135.000000)" fill-rule="nonzero">
            <g id="Total-COntainer" transform="translate(40.000000, 36.000000)">
                <g id="Right-Container" transform="translate(384.000000, 0.000000)">
                    <g id="Table" transform="translate(24.000000, 85.000000)">
                        <g id="Sort-bottom-up" transform="translate(350.000000, 14.000000)">
                            <path d="M1.00200446,7.94973893 L8.90148336,7.94973893 C9.79238876,7.94973893 10.2385539,9.02688072 9.60858896,9.65684552 L5.65885046,13.606584 C5.26832656,13.9971098 4.63516116,13.9971098 4.24463726,13.606584 L0.294897964,9.65684552 C-0.335066936,9.02688072 0.111100064,7.94973893 1.00200446,7.94973893 Z" id="Path" fill="#B9C4D6"></path>
                            <path d="M1.00200446,5.94973893 L8.90148336,5.94973893 C9.79238876,5.94973893 10.2385539,4.87259713 9.60858896,4.24263233 L5.65885056,0.292892925 C5.26832666,-0.097630975 4.63516126,-0.097630975 4.24463736,0.292892925 L0.294897964,4.24263233 C-0.335066936,4.87259713 0.111100064,5.94973893 1.00200446,5.94973893 Z" id="Path" fill="#4A90E2"></path>
                        </g>
                    </g>
                </g>
            </g>
        </g>
    </g>
</svg>