<?xml version="1.0" encoding="UTF-8"?>
<svg width="21px" height="27px" viewBox="0 0 21 27" version="1.1" xmlns="http://www.w3.org/2000/svg" xmlns:xlink="http://www.w3.org/1999/xlink">
    <!-- Generator: sketchtool 57.1 (101010) - https://sketch.com -->
    <title>E3BEAAEB-E27E-43F1-957E-2C8A0CCB03EA@1x</title>
    <desc>Created with sketchtool.</desc>
    <g id="Page-1" stroke="none" stroke-width="1" fill="none" fill-rule="evenodd">
        <g id="State-Profile-_2_" transform="translate(-89.000000, -727.000000)" fill="#00C200" fill-rule="nonzero">
            <g id="Total-container" transform="translate(40.000000, 36.000000)">
                <g id="profile-container-">
                    <g id="Indicator-Section" transform="translate(19.000000, 444.000000)">
                        <g id="Indicator-Cards" transform="translate(0.000000, 68.500000)">
                            <g id="indicator-card" transform="translate(0.000000, 160.000000)">
                                <path d="M40.8692687,18.8701226 C41.6976958,18.8701226 42.3692687,19.5416955 42.3692687,20.3701226 L42.3692687,40.2597547 L48.3171876,33.195666 C48.8507658,32.561958 49.7970382,32.4807867 50.4307462,33.0143649 C51.0644542,33.5479431 51.1456254,34.4942155 50.6120472,35.1279235 L42.8991751,44.2881717 C42.5191647,44.7394939 41.9592684,45 41.3692687,45 C41.1221343,45 40.8854692,44.9551759 40.6669599,44.8732141 C40.4484505,44.9551759 40.2117854,45 39.964651,45 C39.3746513,45 38.814755,44.7394939 38.4347446,44.2881717 L30.7218725,35.1279235 C30.1882943,34.4942155 30.2694655,33.5479431 30.9031735,33.0143649 C31.5368815,32.4807867 32.4831539,32.561958 33.0167321,33.195666 L38.964651,40.2597547 L38.964651,20.3701226 C38.964651,19.5416955 39.6362239,18.8701226 40.464651,18.8701226 C40.5332606,18.8701226 40.6007944,18.874729 40.6669599,18.8836492 C40.7331253,18.874729 40.8006591,18.8701226 40.8692687,18.8701226 Z" id="Up" transform="translate(40.666960, 31.935061) scale(1, -1) translate(-40.666960, -31.935061) "></path>
                            </g>
                        </g>
                    </g>
                </g>
            </g>
        </g>
    </g>
</svg>