<?xml version="1.0" encoding="UTF-8"?>
<svg width="61px" height="78px" viewBox="0 0 61 78" version="1.1" xmlns="http://www.w3.org/2000/svg" xmlns:xlink="http://www.w3.org/1999/xlink">
    <!-- Generator: Sketch 50.2 (55047) - http://www.bohemiancoding.com/sketch -->
    <title>Allahabad</title>
    <desc>Created with Sketch.</desc>
    <defs></defs>
    <g id="Page-1" stroke="none" stroke-width="1" fill="none" fill-rule="evenodd">
        <polyline id="Allahabad" fill="#F4DDB5" fill-rule="nonzero" points="30.4807556 0.391137993 32.2393624 0.391137993 33.4105085 0 34.1927827 0.585576533 34.9743018 0.585576533 35.5602523 0.391137993 36.3410164 0.391137993 36.927722 0.195192178 37.318104 0.585576533 37.5144277 1.56003015 37.318104 2.14636032 36.7321535 2.73042957 36.7321535 3.31525247 37.1225355 3.90007536 37.7092411 4.48489826 38.2951917 4.68009044 38.8826524 5.06972115 39.4678479 5.84973623 40.0537985 6.24012058 40.0537985 6.82494348 40.4449356 7.21306692 41.2264547 7.21306692 42.3983558 7.60495855 43.7665806 7.60495855 43.7665806 9.16423506 44.1562075 9.55537305 44.7429132 9.94500377 44.9384817 10.7257725 45.1340503 11.3105954 45.3296188 11.7002261 45.5251874 12.2858026 45.7200008 12.676187 45.9155694 12.676187 46.5015199 13.2602562 48.8460773 13.2602562 49.4320278 13.4562021 50.213547 13.0658177 50.213547 12.2858026 50.8010077 12.2858026 50.9958212 12.8706255 51.1906346 13.4562021 52.1677223 13.0658177 52.9484863 13.2602562 53.14481 13.8450791 53.7315156 14.6250942 54.1211425 15.2114244 54.7078482 15.7962473 55.6841808 16.1851244 57.4442977 16.1851244 58.0287381 16.7714545 58.2258168 17.5514696 58.6154438 17.9403467 59.3969629 18.3292238 59.7881 19.1114997 60.1792371 19.695569 60.1792371 20.0859534 60.3740505 20.6707762 59.7881 21.0596533 59.3969629 20.8659684 58.6154438 19.695569 58.0287381 18.9155539 57.0524055 19.1114997 56.2701313 18.9155539 56.0753179 19.5003768 56.46721 20.2803919 56.0753179 21.2555991 56.46721 21.6459835 57.0524055 21.6459835 57.8339246 22.2300528 58.2258168 22.8148756 59.2029045 23.7900829 59.7881 24.1797136 59.7881 24.3749058 60.5696191 24.961236 60.9600011 25.5460589 60.9600011 26.3245667 60.7644325 26.9101432 60.3740505 27.3005275 60.1792371 27.8845968 59.3969629 28.4716806 58.8110123 29.0557499 58.8110123 29.8357649 58.6154438 31.0054107 58.8110123 31.980618 58.8110123 32.5654409 58.2258168 32.9565789 57.6391112 32.7606331 57.2479741 33.345456 56.6612684 34.1247174 56.6612684 34.7102939 56.46721 35.6855012 55.6841808 36.2710777 54.5122796 36.4647626 53.9248189 36.4647626 53.3396234 37.2455313 53.14481 37.8296006 52.5581043 38.0255464 52.3625357 38.2199849 51.5810166 39.1951922 50.9958212 40.3663452 50.9958212 41.9263754 50.4091155 42.1200603 49.4320278 42.7056368 49.4320278 43.6800904 49.82392 44.4593519 50.4091155 45.2401206 50.8010077 45.8249435 50.9958212 46.41052 51.5810166 46.9960965 52.7544279 47.5816731 53.9248189 48.3616881 54.5122796 48.5553731 55.0982302 49.1417032 55.8789942 49.7257725 56.6612684 50.1169105 57.2479741 50.5050339 57.4442977 51.0906104 58.0287381 51.0906104 57.6391112 52.0658177 58.4206303 52.0658177 58.4206303 52.6513942 58.8110123 53.8202864 59.2029045 54.4058629 59.3969629 55.1851244 59.3969629 55.3803165 59.5925314 55.7714545 59.7881 56.1603316 59.7881 56.5514696 59.3969629 57.1355389 58.8110123 57.1355389 58.4206303 57.5251696 58.4206303 58.5003768 58.6154438 59.4755841 58.4206303 59.8659684 58.6154438 60.6459835 58.6154438 61.4259986 57.4442977 62.0093142 57.0524055 62.5948907 56.8560819 63.3749058 56.8560819 64.1549209 56.6612684 64.9349359 56.46721 65.3260739 55.8789942 65.9108968 55.2930437 66.106089 54.9026616 65.7141974 54.9026616 65.1308818 53.9248189 64.7404974 53.3396234 65.1308818 53.3396234 66.4957197 52.5581043 67.0812963 51.3862032 67.2757348 51.3862032 68.8365186 50.9958212 69.6165337 49.82392 69.8102186 49.4320278 69.2253957 48.8460773 70.0054107 48.6505087 70.7854258 47.4786076 71.9565789 46.5015199 71.9565789 46.111893 71.1765638 44.9384817 71.1765638 44.9384817 72.7358403 44.5480997 73.5158554 44.1562075 75.0743782 44.1562075 76.2447777 44.3532862 76.8303542 44.3532862 78 44.1562075 77.8055615 43.3761986 77.2199849 42.5946795 76.8303542 41.4220232 76.4399699 40.4449356 75.855147 39.858985 75.4655162 39.0774659 75.855147 38.2951917 75.855147 36.7321535 76.2447777 35.7550658 76.0510928 33.8016456 76.4399699 33.0201264 76.0510928 33.4105085 75.0743782 33.0201264 74.0999246 32.6289893 73.5158554 32.2393624 72.5406481 31.4578433 71.9565789 30.6755691 71.5654409 30.8711376 70.7854258 31.0659511 69.8102186 31.0659511 68.8365186 31.4578433 68.0565035 31.6526568 67.2757348 31.2622748 66.3012812 30.4807556 65.7141974 30.4807556 64.7404974 30.284432 63.7660438 29.503668 63.3749058 28.5273354 62.9852751 27.9406297 62.2060136 27.1583555 62.2060136 25.9864544 62.0093142 25.0093667 61.6204371 24.0330342 61.6204371 23.2515151 62.0093142 22.4692409 62.7900829 21.2973397 62.5948907 20.7106341 61.6204371 20.3202521 60.6459835 19.3439195 60.060407 18.5616453 59.4755841 17.5845576 58.6948154 16.2170879 58.5003768 15.6318925 59.0859534 15.2400003 59.8659684 14.2629126 59.0859534 14.6548048 58.304431 14.8488632 57.5251696 12.8954429 57.5251696 12.3094924 56.7451545 11.3324047 56.5514696 11.1375912 57.5251696 10.3560721 58.304431 9.37898446 58.1107461 8.20708334 57.7203617 8.01226988 56.7451545 8.59746535 56.1603316 9.37898446 55.7714545 9.96569012 54.9914394 10.1597485 53.8202864 9.96569012 52.8458328 9.18341591 52.8458328 8.20708334 53.2362171 7.42556422 53.2362171 6.64253493 52.4562021 7.62037768 51.8698719 9.18341591 50.3105954 9.76936647 49.3361418 8.7930339 48.7505652 8.01226988 48.3616881 6.05733945 47.9705502 5.86252599 46.9960965 4.88468324 46.6057122 3.90835066 46.6057122 2.73644954 46.41052 1.95342024 46.6057122 1.75860678 46.6057122 1.56379332 46.41052 1.56379332 45.6297513 0.782274205 45.6297513 0.195568551 45.2401206 0 44.4593519 0.391137103 43.8752826 1.17190113 43.4848983 1.75860678 43.4848983 2.34455734 42.9000754 2.93050791 42.509691 3.3224001 41.9263754 3.3224001 41.3400452 2.93050791 40.7552223 2.73644954 39.7792614 2.93050791 39.0007536 2.54088098 38.4151771 3.12607646 37.8296006 3.51872374 37.0510928 4.10391921 36.6607084 4.68986978 36.4647626 5.08100688 35.6855012 5.66695744 35.4910626 7.23075076 34.7102939 7.62037768 34.1247174 8.20708334 33.345456 8.7930339 32.7606331 9.76936647 32.5654409 10.3560721 32.9565789 11.1375912 32.9565789 11.7242969 32.7606331 12.3094924 32.7606331 13.28658 32.5654409 14.066589 31.7854258 14.4584812 31.7854258 15.0451868 31.3965487 14.8488632 30.6165337 14.2629126 30.2253957 14.2629126 29.6413264 13.8725306 29.0557499 13.4813935 28.2757348 12.5050609 26.7134437 12.1139238 26.1301281 11.5279733 25.5460589 11.1375912 24.7667974 10.3560721 24.1797136 10.3560721 23.0093142 10.5508856 22.4259986 10.9427778 21.4500377 10.9427778 19.8907612 10.5508856 19.304431 9.76936647 18.5251696 9.18341591 18.3292238 8.98860245 17.9403467 8.20708334 17.1603316 7.23075076 15.2114244 6.44847656 14.4306557 5.66695744 14.0402713 5.08100688 14.0402713 5.27657543 13.6506406 5.66695744 13.0658177 6.2536631 12.0906104 6.2536631 11.3105954 5.27657543 10.3368954 4.68986978 9.55537305 5.27657543 9.55537305 6.83885857 9.16423506 7.81594623 9.16423506 8.4018968 9.55537305 7.81594623 10.5305803 7.62037768 11.1161568 8.01226988 11.7002261 8.59746535 11.8961719 11.1375912 11.8961719 11.7242969 10.9209647 12.3094924 10.5305803 13.8725306 10.5305803 14.6548048 10.1417032 15.2400003 9.36093451 15.2400003 8.58091944 13.8725306 8.18902781 13.28658 7.80090437 13.8725306 7.40976637 14.4584812 7.21306692 15.4363239 7.40976637 16.0215194 7.40976637 16.60747 6.82494348 16.9986071 6.04568204 16.9986071 4.48489826 16.8030385 3.90007536 16.8030385 1.56003015 17.3897442 1.17115307 17.7793711 0.780015073 17.7793711 0.585576533 18.5616453 0.391137993 19.1475958 0.195192178 20.3202521 0.195192178 20.5150655 0.97520725 21.6884768 1.36559161 22.2744274 1.94966086 23.0567016 2.34004522 24.2278476 2.34004522 25.0093667 2.14636032 25.5953173 2.14636032 26.7687286 2.53448376 27.9406297 2.53448376 28.5273354 2.14636032 28.7221489 1.56003015 28.7221489 0.780015073 29.6984814 0.391137993 30.4807556 0.391137993"></polyline>
    </g>
</svg>