<?xml version="1.0" encoding="UTF-8"?>
<svg width="66px" height="78px" viewBox="0 0 66 78" version="1.1" xmlns="http://www.w3.org/2000/svg" xmlns:xlink="http://www.w3.org/1999/xlink">
    <!-- Generator: Sketch 50.2 (55047) - http://www.bohemiancoding.com/sketch -->
    <title>Balrampur</title>
    <desc>Created with Sketch.</desc>
    <defs></defs>
    <g id="Page-1" stroke="none" stroke-width="1" fill="none" fill-rule="evenodd">
        <polyline id="Balrampur" fill="#F4DDB5" fill-rule="nonzero" points="17.1737349 0 17.92113 0.745956724 18.6666013 1.74056569 19.4139964 2.48460232 20.6577311 2.98094675 21.6542578 3.229599 22.8979925 3.97459567 24.6399906 5.71324127 25.6355555 6.95650247 26.8802521 7.7005391 28.1249487 8.19688354 29.3696453 8.44553578 30.8644355 8.94188022 31.8590385 9.68783694 32.8546034 10.6814859 33.3528668 11.6751348 34.8457331 13.4147404 36.3385995 14.1597371 37.5832961 14.6570416 38.578861 14.1597371 41.8146874 14.1597371 43.0574602 13.9110849 44.0549489 13.9110849 45.5478153 13.6633927 47.0406817 13.1670482 48.53451 12.918396 49.7782446 12.6697437 51.7703363 11.923787 53.0150329 11.6751348 54.7579929 11.1778303 56.0017276 10.9301381 57.2464242 10.4337937 59.7348555 9.93648918 60.7313823 10.6814859 61.2286838 13.1670482 61.7269472 14.4083893 62.7215501 16.6443394 63.2198135 17.8856805 63.4679833 19.1270216 63.717115 20.617975 64.2163403 21.8602762 64.7126799 23.1016173 65.2109433 24.3439185 65.2109433 27.5735175 64.9618116 29.3121631 64.7126799 30.5544642 64.2163403 31.5481131 63.717115 32.2940699 63.4679833 33.5344509 62.7215501 34.0317554 61.975117 34.0317554 61.2286838 34.5290599 60.9795521 35.5227088 61.7269472 36.0200133 63.717115 37.0146223 64.2163403 37.5100066 64.4635482 38.0082712 65.2109433 39 64.7126799 40.2423012 63.9662467 40.4909534 61.975117 39.2486522 61.7269472 40.2423012 60.9795521 40.9872978 60.2331189 41.2359501 59.2385159 41.4846023 58.4901589 40.9872978 57.494594 40.7396056 56.7481608 41.2359501 56.0017276 41.4846023 55.5044261 40.4909534 55.5044261 39.994609 54.7579929 39.994609 54.0105978 40.4909534 53.0150329 41.2359501 51.0229412 41.2359501 50.0293001 40.7396056 48.7836416 40.4909534 48.0362466 40.4909534 47.539907 41.2359501 47.0406817 42.4782512 46.5433802 43.224208 45.796947 43.7205524 45.2996455 44.2178569 45.0505138 45.2105457 45.0505138 46.7005391 44.3031187 47.1978436 43.8058172 46.9491913 43.0574602 46.4518869 42.5611206 46.9491913 42.5611206 48.4401447 42.3119889 48.9364892 42.3119889 49.1851414 42.0628572 49.9301381 42.8102523 50.4284026 43.5566855 51.1724393 42.5611206 52.1651281 42.5611206 52.9110849 43.0574602 53.6560815 43.8058172 54.152426 43.0574602 54.4010782 41.5665176 55.3947271 42.0628572 55.8920316 43.0574602 56.6379883 43.3065919 57.1333727 44.3031187 57.6316372 44.3031187 59.1216306 44.8013821 59.8666273 45.5478153 60.3639318 46.0451168 61.1089284 45.0505138 61.8548852 44.3031187 61.8548852 43.3065919 62.1025774 41.8146874 61.6062329 39.0761625 61.6062329 38.578861 62.5998818 37.8324278 63.0962263 37.3341644 64.3385274 37.3341644 65.8285208 37.8324278 66.3258253 41.0672923 66.3258253 40.8191225 67.3185141 40.5709527 68.0654309 40.321821 69.0581198 39.0761625 68.8094675 38.578861 68.3121631 38.3297293 69.0581198 38.578861 69.8031165 38.0825214 70.5481131 37.5832961 71.0444576 37.0859946 71.7904143 36.0894678 72.7840632 35.3430346 73.2813677 35.3430346 75.0190532 35.0948648 75.7640499 34.5975633 76.2613544 33.6010366 76.7576988 32.1091321 77.0063511 31.1126053 77.2550033 30.61338 78 29.618777 78 28.8723438 77.5046156 28.3731185 77.0063511 27.875817 76.2613544 27.3794774 75.2677055 26.8802521 74.5227088 26.6311204 73.7777121 26.6311204 72.535411 26.1338189 71.7904143 25.3854619 71.7904143 24.6399906 72.0381065 23.8945193 72.0381065 22.6498227 71.2931098 22.400691 70.5481131 22.1515593 69.305812 21.9024276 68.5608153 21.6542578 68.3121631 21.1559944 68.0654309 20.6577311 67.5671664 19.9112979 67.0708219 20.4095613 66.077173 20.6577311 65.3312163 20.9068628 64.3385274 20.6577311 63.5925707 20.6577311 62.847574 20.9068628 61.8548852 21.1559944 60.8621963 22.1515593 60.3639318 23.1471242 60.1152795 24.6399906 59.8666273 24.8891223 59.1216306 24.1426891 58.1270216 23.1471242 57.8783694 22.400691 57.8783694 21.6542578 57.6316372 20.4095613 57.382985 19.9112979 57.1333727 18.4174696 55.6443394 18.1692998 54.8983827 17.1737349 54.4010782 16.4273017 53.6560815 16.17817 52.6624326 13.9379085 51.1724393 10.9531376 51.1724393 10.2047806 50.923787 9.70747913 50.1778303 9.70747913 48.1914925 9.20921573 47.694188 8.46374444 46.7005391 7.96548104 45.9555424 7.21904785 44.9618935 6.47165275 44.2178569 5.47416406 45.2105457 4.72869277 44.9618935 4.48052297 44.2178569 4.22946747 43.4719002 3.98225957 43.224208 4.48052297 42.7259434 4.48052297 42.4782512 4.72869277 42.229599 4.72869277 41.9809468 4.97782446 41.7332546 4.48052297 41.4846023 4.22946747 41.2359501 3.98225957 40.9872978 3.98225957 40.7396056 4.22946747 40.4909534 4.22946747 40.2423012 3.73312787 39.7459567 3.48399618 39.4973045 2.98669468 39.4973045 2.73756298 39.2486522 2.73756298 38.7523078 2.48939318 38.2550033 2.48939318 38.0082712 2.73756298 37.7586589 2.73756298 36.2677055 2.98669468 36.0200133 2.98669468 35.5227088 3.23486448 35.2740566 3.23486448 34.5290599 2.98669468 34.2794476 2.48939318 34.0317554 2.48939318 32.2940699 2.73756298 32.0444576 2.48939318 31.7967654 2.48939318 31.5481131 2.23929959 31.2994609 1.99112979 30.5544642 1.99112979 29.8085075 1.49286639 29.5598553 1.49286639 29.3121631 1.24469659 28.8148586 0.994602994 28.5671664 0.994602994 27.5735175 0.746433195 27.3248652 0.746433195 27.077173 0.249131698 26.5798685 0.249131698 26.0844842 0 25.8339118 0 25.0889151 0.249131698 24.841223 0.746433195 24.5935308 1.49286639 23.847574 1.49286639 23.5989218 2.48939318 22.6052729 3.48399618 21.8602762 4.22946747 21.8602762 4.72869277 21.611624 4.97782446 21.3629717 5.47416406 20.3702828 5.72425766 20.1216306 5.72425766 19.6252862 5.97531315 19.1270216 5.97531315 18.8793294 6.96895425 17.8856805 6.47165275 17.3893361 6.47165275 16.6443394 6.71982255 16.3956872 7.21904785 16.1470349 7.46721765 15.8983827 8.21365084 15.8983827 9.20921573 14.6570416 9.45834743 14.4083893 9.70747913 13.4147404 9.95564893 13.4147404 9.95564893 12.1714792 10.2047806 11.4264825 10.2047806 10.9301381 9.95564893 10.9301381 9.70747913 10.6814859 9.70747913 10.4337937 10.2047806 9.93648918 10.4539123 9.93648918 11.2003455 9.1914925 11.2003455 7.45188686 11.4494772 7.45188686 11.4494772 7.20419467 11.6986089 6.95650247 12.1959104 6.95650247 12.1959104 6.21054575 12.4450421 5.96093346 12.6941738 5.96093346 12.9413817 5.21593678 12.9413817 4.96824459 13.1924372 4.96824459 13.440607 4.71959235 13.9379085 4.71959235 14.1870402 4.96824459 14.6853036 4.71959235 14.9334734 4.47094011 15.4326987 4.22324791 15.6808685 3.72594343 15.9290383 3.47825124 16.4273017 3.47825124 16.4273017 2.23595008 16.6764334 2.23595008 16.6764334 1.98729784 16.9255651 1.74056569 16.9255651 0.497304483 17.1737349 0"></polyline>
    </g>
</svg>