<?xml version="1.0" encoding="UTF-8"?>
<svg width="68px" height="78px" viewBox="0 0 68 78" version="1.1" xmlns="http://www.w3.org/2000/svg" xmlns:xlink="http://www.w3.org/1999/xlink">
    <!-- Generator: Sketch 50.2 (55047) - http://www.bohemiancoding.com/sketch -->
    <title>Banda</title>
    <desc>Created with Sketch.</desc>
    <defs></defs>
    <g id="Page-1" stroke="none" stroke-width="1" fill="none" fill-rule="evenodd">
        <polyline id="Banda" fill="#F4DDB5" fill-rule="nonzero" points="17.7247468 1.39115432 17.9243067 1.39115432 18.3226558 0.994340813 19.1208951 0.595989273 19.7188041 0.396813503 20.5162729 0 21.7120908 0.595989273 23.3070284 0.595989273 24.1044972 0.795934062 24.9027365 0.396813503 25.499875 0.198406752 26.097784 0.198406752 26.6964635 0.595989273 27.8930519 0.595989273 28.6912912 0.795934062 31.8803959 0.795934062 32.4790754 0.994340813 34.0732425 2.1878574 34.2735728 2.98379146 34.2735728 3.97890129 34.0732425 3.97890129 33.2765442 4.37648381 32.0799557 4.57565958 30.8833673 4.57565958 30.2854583 4.77406633 29.8863386 5.57076941 29.8863386 6.36670347 29.6875493 7.1610995 29.8863386 7.9585716 30.4857886 8.15697835 31.2824869 8.55532989 31.6808361 9.5496707 31.8803959 10.146429 32.6778647 10.7454943 33.4753335 10.7454943 34.2735728 10.146429 35.8677399 9.35049493 36.8647685 9.5496707 36.8647685 10.146429 36.6652087 11.3414836 36.2668595 11.9374729 36.0665292 12.5357692 36.0665292 13.3317033 36.6652087 14.3260441 37.8610266 14.7236266 38.4589356 15.1219782 39.2564044 15.7195055 40.0546437 15.9179122 40.6525527 16.3154947 41.2504617 16.3154947 42.0479305 16.7146153 43.4433082 17.3113736 44.240777 17.7081871 44.8394565 17.9073629 45.6376958 17.9073629 46.8335137 18.1065386 48.2288915 17.5097803 49.6242693 17.1114288 50.4225086 16.7146153 52.0166757 15.7195055 53.2132641 15.1219782 53.6116133 15.5195607 54.6086419 15.3203849 55.2073214 16.3154947 55.4061107 16.7146153 56.20435 17.1114288 57.1998376 17.5097803 58.1968662 17.5097803 59.1938949 17.1114288 59.9921342 16.913022 60.5892726 17.1114288 61.1871816 18.3064834 61.1871816 18.7032969 61.3867414 19.498462 60.789603 19.8983515 60.789603 21.0910991 60.9883923 21.8870332 61.5863013 22.4845605 62.1842102 22.4845605 62.9824495 22.6829672 63.7806888 22.4845605 64.5781576 22.0862089 65.1752961 21.2895059 65.9719944 20.8919233 66.5714444 20.2959341 67.1693534 20.4943408 67.568473 21.2895059 67.568473 22.6829672 67.3681427 23.2797255 66.9697935 23.6780771 66.7702337 24.6724179 66.5714444 25.4683519 65.9719944 26.264286 65.1752961 27.2601648 65.5751863 28.4529124 65.7732051 28.851264 65.7732051 29.0519778 65.9719944 29.647198 65.5751863 30.0455496 64.9765068 30.4431321 64.5781576 31.0398904 64.776947 31.8358244 64.9765068 32.8301652 65.1752961 33.4276926 65.3748559 34.6212091 64.9765068 35.2187364 64.3778273 35.4179122 63.7806888 36.6121978 63.5803585 37.2081871 62.5841004 37.6065386 61.7858611 37.4073629 61.1871816 37.0090113 60.5892726 37.2081871 60.5892726 38.0041211 59.9921342 38.6008794 58.3964261 39 57.9980769 39.5967583 57.5989573 40.5918681 57.3993974 41.1878574 57.0010483 41.9837915 56.6019286 42.5805497 56.0047902 42.5805497 55.2073214 43.1780771 55.2073214 43.7748354 55.006991 44.1716489 54.8074312 44.3715936 54.6086419 45.1675277 54.0099624 45.9619237 53.6116133 46.5609891 53.4120535 47.3576922 52.6145847 47.5553299 51.617556 47.3576922 50.2229488 47.3576922 49.42548 47.7545057 48.6280112 47.9536814 47.631753 48.1536262 47.2318629 49.147198 47.0323031 50.1423078 46.0360449 50.7382971 45.438136 51.1374177 44.8394565 53.5244508 44.4403368 53.5244508 43.8424279 52.9284616 43.642868 53.7236266 43.642868 54.5187917 43.0441886 55.116319 42.6458394 55.7138463 42.4462796 56.3113736 42.2474903 57.1065386 42.0479305 57.9024727 41.449251 58.1024175 40.6525527 57.9024727 40.6525527 58.499231 40.8521125 59.294396 40.0546437 60.4902197 40.253433 61.0862089 40.8521125 61.6829672 41.0516723 62.2804945 41.449251 63.0756596 41.6495813 63.6724179 41.6495813 66.6577474 42.2474903 67.2560437 43.4433082 66.8561541 43.8424279 67.2560437 44.6398967 68.2496155 45.0390163 69.2447253 45.8364851 69.8414836 46.8335137 71.234176 45.8364851 72.2300548 45.6376958 72.2300548 44.6398967 72.4284616 43.642868 72.4284616 43.0441886 71.4341208 42.6458394 70.6374177 41.6495813 70.6374177 40.8521125 69.6415388 40.0546437 69.0455496 39.6555241 68.0512087 39.8550839 67.851264 40.0546437 67.2560437 39.4559642 66.2601648 38.8580553 65.0643412 38.2601463 64.2691762 37.4626775 64.2691762 36.8647685 65.0643412 37.2631177 65.6618685 37.2631177 66.6577474 37.0643283 67.851264 37.8610266 68.4487913 38.6584954 68.8463738 38.6584954 69.8414836 37.6614668 70.2390661 36.8647685 70.0406594 35.8677399 69.8414836 35.0702711 70.0406594 33.8736826 70.0406594 32.8774245 68.0512087 31.6808361 67.6528572 30.8833673 68.0512087 31.0829271 68.8463738 31.6808361 69.8414836 31.6808361 71.8309343 33.2765442 73.0259889 33.8736826 73.8219229 34.6711514 74.617857 34.2735728 75.6121978 32.278745 76.8057144 31.4828172 77.2032969 30.6845779 78 28.4925019 78 27.8930519 77.6008794 27.6942626 76.4073629 28.0926117 75.6121978 28.0926117 74.8154947 27.4947028 74.0195607 28.0926117 73.4220334 29.0896404 73.4220334 29.8863386 73.8219229 30.4857886 73.0259889 29.8863386 72.03011 29.2884297 71.6317585 28.2914011 70.8358244 28.0926117 69.8414836 27.0955831 69.2447253 25.8989947 69.2447253 25.1015259 69.8414836 24.1044972 70.4390109 22.7091195 71.8309343 22.7091195 72.8260441 23.1074686 73.6219782 23.9057079 74.2187364 23.9057079 75.413022 22.9094498 75.413022 21.9124212 74.8154947 20.9153925 74.4171432 19.5192443 75.8106046 19.5192443 77.6008794 18.5222156 77.6008794 17.7247468 77.0048902 17.1276084 76.4073629 16.7284887 75.6121978 15.9302494 74.8154947 15.9302494 74.0195607 16.3301396 72.8260441 17.1276084 71.8309343 20.1179237 71.8309343 20.7150622 71.234176 20.7150622 70.0406594 20.3167131 69.2447253 20.7150622 68.2496155 21.1149524 67.4536814 21.7120908 66.6577474 21.1149524 65.4642308 21.512531 64.6682967 22.3099998 64.0692314 23.5065883 63.6724179 24.3040571 63.4732421 25.499875 62.8764838 26.097784 62.4789013 26.4969036 61.6829672 26.2973438 60.4902197 25.8989947 59.6935166 25.7002053 58.6984068 25.1015259 58.1024175 24.5028464 57.3057144 23.7061481 57.3057144 22.7091195 57.1065386 21.9124212 56.5105494 21.9124212 55.7138463 21.7120908 54.7195055 21.3129712 53.9235714 20.3167131 53.3260441 19.5192443 52.9284616 17.9243067 51.7334069 17.525187 50.7382971 17.525187 48.7496155 17.7247468 47.7545057 17.9243067 46.7593958 17.9243067 45.764286 17.525187 44.5700004 17.1276084 43.7748354 15.5319003 42.5805497 14.9339913 41.586978 14.3360823 40.9886816 13.3398242 40.7902749 12.5423554 41.1878574 11.9436759 41.7846157 11.1462071 42.382143 10.5482982 42.9781323 9.35170972 43.1780771 8.55347042 42.5805497 7.55644179 42.1821982 6.95853282 43.1780771 6.55941317 44.1716489 5.9615042 45.1675277 5.1640354 45.3659345 4.3665666 45.9619237 4.16777727 46.7593958 3.37030848 47.7545057 2.57283968 47.5553299 1.77460038 47.1569783 0.778342256 46.9570336 0.181203784 47.3576922 0.181203784 44.7699452 0.578782431 43.7748354 0.978672582 43.1780771 1.57581105 42.7797255 1.77460038 42.1821982 1.77460038 41.586978 1.17746191 41.1878574 1.57581105 40.9886816 2.57283968 40.1942856 2.97195933 39.7959341 3.37030848 39.1984068 4.56612642 39.1984068 4.76645675 38.6008794 5.36359522 38.4017037 5.9615042 38.6008794 6.7597435 38.6008794 6.95853282 37.8057144 6.95853282 37.2081871 7.95556144 36.8106046 8.35468109 37.0090113 8.95336057 36.8106046 9.15214989 36.2138463 9.35170972 35.4179122 9.55204004 35.0195607 9.75082937 34.4228024 9.75082937 33.6253303 9.35170972 33.2300548 8.75380074 31.8358244 8.95336057 31.0398904 9.55204004 30.8407146 9.94961869 30.6430769 10.5482982 30.4431321 10.7470875 29.647198 11.3449965 29.2496155 11.7441161 28.851264 11.5453268 28.0553299 11.9436759 27.6569783 12.5423554 27.4585716 13.3398242 27.4585716 13.9369627 27.2601648 14.5356422 26.8610443 14.9339913 26.264286 15.1335511 25.6682967 15.1335511 24.8723627 13.7374029 24.8723627 13.7374029 24.2732973 14.1365225 23.6780771 14.7344315 23.0805497 14.9339913 22.6829672 15.9302494 21.8870332 16.927278 20.8919233 16.927278 20.2959341 16.1298093 19.6984068 15.7314601 19.1016485 15.9302494 18.5033521 15.7314601 17.7081871 16.1298093 17.3113736 16.927278 17.1114288 17.7247468 16.3154947 17.7247468 15.3203849 17.3263977 14.9235714 16.1298093 14.1276373 16.1298093 12.9333517 15.9302494 12.3373625 15.333111 11.9374729 14.5356422 12.3373625 13.7374029 12.1374177 13.537843 11.3414836 13.1394939 10.7454943 10.7470875 10.7454943 10.3487383 10.3456048 10.3487383 9.5496707 10.7470875 9.1528572 11.3449965 9.1528572 11.9436759 9.35049493 12.3420251 8.95291241 12.7411447 8.35692314 13.1394939 8.75373664 13.7374029 8.55532989 14.5356422 8.35692314 15.1335511 6.96346177 15.333111 6.36670347 15.5319003 5.57076941 16.3301396 5.37082462 16.927278 5.57076941 17.525187 4.97401112 17.3263977 4.37648381 17.3263977 3.77972552 17.525187 3.18296723 18.124637 2.58697795 17.7247468 1.39115432"></polyline>
    </g>
</svg>