<?xml version="1.0" encoding="UTF-8"?>
<svg width="69px" height="78px" viewBox="0 0 69 78" version="1.1" xmlns="http://www.w3.org/2000/svg" xmlns:xlink="http://www.w3.org/1999/xlink">
    <!-- Generator: Sketch 50.2 (55047) - http://www.bohemiancoding.com/sketch -->
    <title>Barabanki</title>
    <desc>Created with Sketch.</desc>
    <defs></defs>
    <g id="Page-1" stroke="none" stroke-width="1" fill="none" fill-rule="evenodd">
        <polyline id="Barabanki" fill="#F4DDB5" fill-rule="nonzero" points="39.193762 2.09580175 39.193762 2.32886858 40.1278269 2.56103554 40.8265724 2.79410238 41.5262195 3.25933617 41.993252 3.95853667 41.993252 6.75263905 42.4602845 7.91617347 42.9264153 8.84754093 43.3934478 9.31367459 44.0930949 10.477209 44.5601274 10.9433427 44.792742 11.4094763 45.2588729 12.1068771 45.4923891 12.8060776 45.726807 13.7383449 45.95852 14.6697124 44.792742 15.1349462 42.9264153 15.1349462 42.9264153 15.8332468 43.8595787 16.0663136 44.0930949 16.7646143 44.5601274 17.6959817 44.792742 18.3942824 45.0253566 19.3256498 45.2588729 20.0239504 45.726807 20.4891842 46.1920362 21.4214516 46.4255524 22.1206521 46.1920362 22.8189527 46.1920362 23.5172533 47.1251996 24.4477209 48.0583629 25.1460215 48.75801 25.3790884 48.5253954 26.0782889 48.9924278 26.7756896 49.9246896 26.7756896 50.3917221 27.2427232 50.8587545 27.2427232 51.7919179 27.4748901 52.7250812 27.2427232 53.6582446 27.7079569 54.3578917 28.4062576 55.0566372 28.8714914 55.5245712 29.569792 56.2242183 29.8028588 56.9247671 29.3385249 57.858832 29.569792 58.7901921 30.0359257 59.2572246 29.569792 60.4239042 29.569792 60.890035 30.2680926 61.1244529 31.2003599 60.890035 31.8986606 60.6565188 33.062195 61.1244529 33.9935625 61.3570675 34.6936628 61.8231984 35.3919635 62.0567146 36.0902641 62.7563617 36.5554979 64.1565575 36.0902641 65.0888193 36.3233309 65.5567534 37.0225314 65.3223355 38.1860658 65.5567534 38.8843665 66.4890151 39.5826671 67.4221784 40.0488007 68.1218255 40.7462015 68.3553418 41.4463019 68.8223743 42.6098363 68.588858 43.0750701 68.3553418 44.0064375 67.8892109 44.7047382 66.4890151 45.6361056 66.2554989 44.937805 65.5567534 44.7047382 65.0888193 45.4048385 64.62359 44.937805 64.1565575 44.2395044 63.6895251 44.2395044 62.989878 44.4725712 62.2902309 45.169972 61.5896822 45.169972 60.6565188 44.7047382 59.9568717 44.7047382 59.02461 46.5674731 58.7901921 47.2666736 58.7901921 47.9649742 59.02461 49.3624753 58.5575775 49.8268093 58.3240613 50.2938428 58.3240613 51.6886443 58.090545 52.3878448 57.6244142 53.0870453 57.3908979 53.7862458 57.3908979 54.7176133 57.1573817 55.1810473 56.9247671 56.1124148 56.6912508 56.8116153 57.1573817 57.5117156 57.3908979 58.4430831 56.6912508 59.1413837 56.2242183 59.8396844 55.9907021 60.537985 56.2242183 61.4693524 56.6912508 62.4007199 56.6912508 63.0990205 56.2242183 63.798221 54.3578917 64.2634548 53.6582446 64.4965216 53.1912121 64.9617554 53.1912121 66.1261897 52.9585974 67.0575572 52.9585974 67.7567577 53.1912121 68.4541584 53.8908592 68.9202921 53.8908592 69.6185927 53.6582446 70.5499602 53.1912121 71.4813277 52.9585974 72.4126951 52.9585974 73.1109957 52.491565 73.8092964 52.0254341 74.27543 51.7919179 75.4389645 51.3266886 76.1372651 50.8587545 77.0686325 50.8587545 77.767833 50.160009 77.767833 48.9924278 78 47.5913304 78 47.8266499 77.3016994 48.2918791 76.6033987 48.2918791 75.6720313 47.1251996 74.9737307 46.1920362 74.507597 45.4923891 74.27543 44.792742 74.507597 43.8595787 74.507597 43.3934478 74.0423632 42.6928991 74.0423632 41.7597357 74.507597 41.2945065 74.9737307 39.6598928 74.9737307 38.9611473 74.7406638 38.027984 73.8092964 37.7935661 72.8779289 36.8613044 72.8779289 36.3942719 73.5780293 36.1607557 74.27543 35.6955264 75.2067975 35.2275924 75.2067975 34.9940761 75.4389645 33.5947819 74.9737307 32.4290039 74.9737307 31.9619715 75.4389645 31.263226 75.6720313 30.329161 76.1372651 29.3959977 76.3703319 28.9289652 75.6720313 29.3959977 75.2067975 29.3959977 74.507597 28.2284165 74.507597 27.5287694 74.7406638 26.8291223 74.507597 26.3620898 74.0423632 25.6633443 73.1109957 24.7292794 72.8779289 24.0287306 72.8779289 23.5635014 72.1796283 23.3290835 71.7143945 22.8629527 71.2482608 21.9297893 71.2482608 21.2310438 71.7143945 20.7631098 72.1796283 20.7631098 71.9465615 20.5295935 71.2482608 20.7631098 70.3168934 20.996626 69.6185927 21.2310438 68.6872253 20.2960773 67.290624 20.5295935 66.1261897 20.5295935 64.2634548 20.7631098 63.798221 20.996626 62.8668536 22.3968218 61.936386 22.6294364 61.2371855 22.6294364 61.0041186 22.1633056 60.537985 21.6953715 59.8396844 21.4627569 58.6752501 21.4627569 56.8116153 21.9297893 56.1124148 22.6294364 55.1810473 22.3968218 54.0175129 21.4627569 54.4836466 20.7631098 54.7176133 20.0643643 54.0175129 20.0643643 53.5522791 19.5964302 52.6209116 17.9645213 52.6209116 17.263071 51.4573772 16.3308093 50.2938428 15.6320638 49.5937424 14.4644826 49.5937424 13.9974501 49.8268093 13.0651884 50.060776 12.8316722 49.8268093 12.3655413 49.8268093 12.8316722 49.1285086 13.5322209 48.6632748 13.9974501 47.2666736 13.7648355 46.1013394 13.0651884 45.4048385 13.0651884 44.4725712 13.5322209 43.5403039 13.297803 42.8411034 12.3655413 41.9106358 11.8985088 41.677569 11.1988617 41.4463019 10.0330837 40.2827675 9.56514965 39.5826671 8.86550255 39.1165334 8.39937168 37.952999 9.56514965 37.952999 10.2656984 37.7199322 11.1988617 37.2537985 11.4323779 36.5554979 10.9653455 35.8571972 9.33253502 35.8571972 8.86550255 35.3919635 8.39937168 35.3919635 7.93324081 35.1570969 7.69792136 34.2266293 6.99827426 33.9935625 6.06511092 33.9935625 5.36546381 33.7622954 4.89933295 32.5969612 4.89933295 31.8986606 5.13194758 31.2003599 5.59988166 30.5020593 5.83249629 30.0359257 5.83249629 29.1045582 4.66671832 28.8714914 3.96436639 28.8714914 3.73265337 28.4062576 3.73265337 27.7079569 4.19878423 27.0096563 4.19878423 26.0782889 5.13194758 25.8461219 6.06511092 26.5435227 6.76565963 27.2427232 7.69792136 27.7079569 8.39937168 27.7079569 9.09992039 28.1731907 10.0330837 27.9410238 10.498313 27.4748901 10.2656984 26.5435227 10.0330837 25.8461219 9.09992039 25.3790884 8.63198631 24.4477209 8.39937168 23.7494203 7.93324081 23.0511196 6.76565963 22.584986 6.99827426 21.8866854 6.99827426 20.9562178 6.06511092 20.9562178 5.36546381 20.0239504 5.13194758 19.3256498 3.73265337 19.3256498 3.03300626 19.5587166 1.40019582 19.7908836 0.466130867 19.7908836 0 19.092583 0 18.6273492 0.234417844 18.1621154 0.699647104 16.7646143 0.699647104 16.0663136 0.466130867 15.368013 0.466130867 14.6697124 0.933163342 13.9705119 1.63281045 13.9705119 2.33426076 13.5052781 2.79949002 11.6416433 3.50003874 11.8747101 4.19878423 11.6416433 4.43230047 10.9433427 5.13194758 10.9433427 6.06511092 11.4094763 6.76565963 11.8747101 7.93324081 12.1068771 8.86550255 11.4094763 9.56514965 11.4094763 9.79866589 12.1068771 10.498313 12.3399439 11.4323779 12.1068771 11.8985088 11.4094763 12.8316722 10.477209 13.5322209 10.0119752 13.7648355 9.31367459 13.297803 8.61537397 14.4644826 8.38230713 15.1641297 7.91617347 15.8637768 7.21787284 17.0304564 7.45093967 18.197136 8.61537397 18.8967831 8.1492403 19.8299464 7.91617347 20.5295935 8.1492403 21.2310438 8.61537397 21.4627569 9.77890839 22.3968218 10.7102758 23.5635014 9.77890839 23.796116 8.84754093 24.4966647 8.38230713 24.7292794 7.91617347 25.6633443 6.98480601 24.7292794 6.51957221 24.7292794 5.82127159 26.1285736 5.12297096 25.4289265 4.42377046 25.6633443 3.72546984 25.8950573 3.25933617 26.3620898 2.32886858 26.8291223 1.86273492 27.5287694 1.62966809 28.6945474 1.39750112 29.1624814 0.699200498 29.8621285 0 30.7952919 0 31.263226 0.233066833 31.0288081 1.16443429 31.494939 2.09580175 32.1945861 2.32886858 32.6616186 2.56103554 32.8951348 3.492403 32.1945861 4.19070363 31.9619715 5.12297096 31.9619715 6.28650538 32.1945861 7.21787284 33.128651 7.21787284 33.8282981 6.75263905 34.5288469 7.45093967 34.7605599 7.68310663 35.2275924 7.91617347 35.6955264 7.21787284 35.9281411 6.51957221 35.9281411 5.35513792 36.3942719 4.6568373 37.3274353 4.42377046 38.027984 3.72546984 38.9611473 2.56103554 39.193762 2.09580175"></polyline>
    </g>
</svg>