<?xml version="1.0" encoding="UTF-8"?>
<svg width="88px" height="78px" viewBox="0 0 88 78" version="1.1" xmlns="http://www.w3.org/2000/svg" xmlns:xlink="http://www.w3.org/1999/xlink">
    <!-- Generator: Sketch 50.2 (55047) - http://www.bohemiancoding.com/sketch -->
    <title>Basti</title>
    <desc>Created with Sketch.</desc>
    <defs></defs>
    <g id="Page-1" stroke="none" stroke-width="1" fill="none" fill-rule="evenodd">
        <polyline id="Basti" fill="#F4DDB5" fill-rule="nonzero" points="37.8364779 9.59523335 38.1469077 9.28540098 39.0769985 8.66812877 40.0070893 8.35590387 40.6279489 7.73743539 40.9371801 6.80913455 42.1777007 6.49930218 43.7286511 6.49930218 44.6575434 6.80913455 44.9691717 8.35590387 46.2096923 8.35590387 45.8992625 7.42760302 46.8293534 6.80913455 48.069874 6.80913455 48.069874 5.57100133 49.3103946 4.33286812 49.9324527 3.40456727 51.1717748 3.71320338 52.1018656 3.40456727 53.3423862 3.0947349 53.652816 2.16643406 54.2748742 1.23813321 55.5141962 1.54796558 56.444287 1.85660169 58.3056672 0.619664739 59.5461878 0 60.4762786 0 61.4063694 0.929497109 60.4762786 2.16643406 60.168246 2.78490254 60.4762786 3.71320338 61.4063694 4.02423201 62.3364603 4.02423201 63.2689482 4.64270049 63.8874107 5.57100133 64.1978405 6.19066607 64.1978405 6.49930218 65.1279313 7.73743539 65.4383611 8.97556861 64.5082703 10.5235342 65.4383611 11.451835 66.3684519 11.7616674 67.2997413 12.3813321 69.4703527 14.5477662 70.4004435 15.1662347 71.6409641 15.4760671 72.2618237 14.2379338 74.1220053 13.9281015 75.3625259 13.9281015 77.5331374 14.2379338 79.0840878 14.8564023 80.0141786 15.1662347 81.565129 15.4760671 82.8068482 15.4760671 83.7381376 14.8564023 84.9774596 14.8564023 84.6670298 16.0945355 83.7381376 16.4055642 82.4976169 17.0228364 81.2546992 17.0228364 80.3246084 17.9511372 80.0141786 19.1904667 80.0141786 20.1187675 80.6362367 21.0470684 80.945468 22.2840053 80.0141786 23.8331672 79.0840878 24.1429996 78.153997 25.0701041 79.0840878 25.9996012 80.0141786 26.3106299 81.2546992 27.8573992 82.4976169 29.0955324 82.8068482 30.3336656 81.565129 30.6446943 79.3957161 30.6446943 75.6729557 28.7845038 75.0532947 30.0238333 75.3625259 31.2619665 75.3625259 32.5000997 75.6729557 33.7382329 75.6729557 36.5243317 74.4312366 37.4538288 73.5035429 38.3821297 72.2618237 38.6895695 71.3305343 39.308038 70.4004435 39.6202629 69.4703527 40.8571998 69.1611215 41.7855007 69.4703527 43.0236339 71.0213031 42.7138015 71.9525925 42.4039691 72.8814847 41.7855007 73.5035429 42.7138015 73.8115755 43.6421024 74.7416664 43.6421024 75.9833855 43.3346625 77.5331374 43.6421024 78.4632282 43.953131 79.0840878 44.8814318 78.153997 45.8097327 77.8447657 46.4270049 78.153997 47.6663344 80.0141786 48.5958315 81.8743602 48.5958315 83.4265092 48.9044676 84.0473688 49.5229361 85.289088 50.4524332 85.289088 51.380734 84.6670298 52.0003988 84.3577986 52.9275033 84.3577986 53.859393 84.6670298 55.4037698 85.9075504 56.3332669 86.5272114 56.9529316 87.7689306 57.8812325 87.7689306 58.8107296 87.1492696 59.7378341 85.5971206 60.0476665 84.9774596 60.9771636 86.5272114 61.5968284 87.1492696 61.9054645 86.5272114 63.4534301 84.6670298 63.4534301 83.4265092 63.7620662 82.4976169 64.690367 82.1871871 66.548165 83.117278 66.8579973 84.0473688 67.4764658 84.0473688 68.4047667 82.8068482 68.714599 82.4976169 69.9539285 81.8743602 71.5006978 81.2546992 70.2613683 80.3246084 69.6428999 79.3957161 69.6428999 78.773658 70.8810331 78.773658 72.1191663 77.5331374 72.1191663 76.6042451 72.4289987 76.6042451 73.9769643 76.2926168 74.5954327 75.6729557 76.1433983 74.7416664 76.7618668 73.5035429 78 72.8814847 78 71.9525925 77.6901676 71.3305343 77.0728954 71.3305343 75.8335659 70.7108733 74.5954327 68.8494931 74.2856004 67.2997413 73.9769643 65.4383611 75.2139012 64.5082703 76.1433983 63.2689482 75.5237336 62.3364603 75.8335659 60.7867084 75.8335659 59.8566176 76.1433983 59.8566176 77.0728954 59.5461878 78 58.3056672 78 57.9952374 77.0728954 57.6848076 75.5237336 55.8258246 74.5954327 54.8945352 73.3572995 54.5841054 72.4289987 53.652816 72.1191663 53.033155 71.8093339 49.0011634 71.8093339 48.069874 71.1908655 48.069874 71.5006978 46.8293534 71.5006978 46.2096923 71.8093339 44.6575434 72.1191663 42.7973617 72.1191663 41.2476099 72.4289987 40.3175191 72.738831 39.0769985 72.1191663 37.5260481 70.8810331 36.5971558 70.2613683 35.9750977 69.3342638 35.0462054 69.0244314 32.8743954 69.0244314 31.0130152 68.4047667 29.7724946 67.7862982 28.8424038 66.8579973 27.6030818 66.548165 25.4312718 66.548165 23.5698916 66.2383326 22.0201397 66.548165 21.0888504 66.8579973 19.8483297 66.548165 18.9194375 65.0001994 18.6078091 63.7620662 18.2973793 62.8337653 17.6765198 62.2152968 17.0568587 61.9054645 15.8163381 60.6673313 14.8850487 60.3574989 13.6445281 59.7378341 12.7156359 59.4303943 11.7843465 58.8107296 11.4763138 57.5725964 10.5450245 56.9529316 9.30330528 56.6442955 8.37321447 56.9529316 6.82346264 56.9529316 6.20260305 55.7147984 4.96208244 54.1680291 4.03319019 53.2373357 3.10190081 52.6188672 1.86018163 52.0003988 0.930090814 51.6893701 0.310429795 51.0697054 0 49.5229361 0.310429795 48.5958315 0.310429795 47.6663344 0 47.3576983 0.619661019 47.0478659 1.5509504 45.8097327 1.86018163 43.953131 1.86018163 43.0236339 2.48223979 41.7855007 2.48223979 40.8571998 1.24052061 39.308038 0.930090814 38.3821297 1.5509504 37.1428002 2.17061142 36.5243317 3.10190081 35.2861985 2.79266958 34.66773 2.79266958 33.7382329 3.41113203 33.1185682 3.41113203 32.1902673 3.10190081 31.2619665 2.17061142 30.3336656 2.48223979 29.4053648 3.10190081 28.1672316 4.03319019 27.2377345 4.96208244 27.5475668 6.82346264 26.9302946 7.44312366 26.9302946 8.37321447 27.2377345 9.30330528 26.9302946 9.92416487 25.9996012 11.1646855 25.6921614 12.0947763 25.6921614 13.3352969 25.9996012 14.5770161 26.9302946 15.1966771 27.8573992 16.7452304 28.4770639 18.6078091 28.4770639 19.2274702 27.5475668 20.4691893 26.9302946 22.3281724 27.5475668 23.8791228 28.4770639 24.8116108 29.0955324 25.4312718 30.6446943 26.6717924 31.2619665 29.4632634 31.5729951 30.0829244 30.6446943 30.3933542 29.4053648 30.7049826 27.8573992 31.6338748 27.5475668 32.255933 26.9302946 33.1848252 26.3106299 34.7357756 26.3106299 36.2855275 25.9996012 36.9063871 25.3811328 36.2855275 23.5245311 36.9063871 22.9036701 37.8364779 22.2840053 38.7653701 21.9753692 39.6978581 20.4274036 40.3175191 19.8089352 41.8672709 19.4991028 42.4893291 18.8806343 42.7973617 17.9511372 40.9371801 17.9511372 39.3862297 17.6413048 38.4561389 17.0228364 38.1469077 16.0945355 38.1469077 14.5477662 37.8364779 13.309633 37.2156183 12.3813321 36.9063871 11.451835 37.2156183 10.5235342 37.8364779 9.59523335"></polyline>
    </g>
</svg>