<?xml version="1.0" encoding="UTF-8"?>
<svg width="106px" height="78px" viewBox="0 0 106 78" version="1.1" xmlns="http://www.w3.org/2000/svg" xmlns:xlink="http://www.w3.org/1999/xlink">
    <!-- Generator: Sketch 50.2 (55047) - http://www.bohemiancoding.com/sketch -->
    <title>Sant Ravidas Nagar</title>
    <desc>Created with Sketch.</desc>
    <defs></defs>
    <g id="Page-1" stroke="none" stroke-width="1" fill="none" fill-rule="evenodd">
        <polyline id="Sant-Ravidas-Nagar" fill="#F4DDB5" fill-rule="nonzero" points="29.2437339 3.18266905 30.301875 3.18266905 31.9024419 2.65359133 34.0289974 2.12246293 35.0891932 3.18266905 36.6815415 3.71379746 38.2779991 3.18266905 40.4066093 1.59133453 42.0030669 1.05815543 44.1296224 1.59133453 45.7219707 3.18266905 47.3163737 4.24492586 51.5694847 4.24492586 52.1036919 6.3653381 53.1638877 7.4296456 57.4190533 7.4296456 58.4833584 9.01892944 60.0777614 9.55210853 62.2063715 13.7949837 62.7364694 15.3863182 64.3308724 15.3863182 65.92733 15.921548 67.521733 14.3240614 68.5839834 12.7327269 70.7084843 11.6745715 71.7727894 12.7327269 72.8370944 14.3240614 72.3069965 17.5087812 72.3069965 19.1001157 73.9013995 19.6312441 75.4958025 18.5689873 75.4958025 16.448575 76.0259004 14.8551898 77.622358 14.3240614 80.8111639 15.3863182 82.4076215 16.9776528 82.9377194 19.6312441 82.4076215 21.2184772 85.0663296 22.2827847 87.1928851 22.2827847 88.2551355 23.3450415 90.3796364 23.8741193 93.0383444 24.4052477 95.1669546 24.9384268 96.7593029 25.4675045 101.012414 25.4675045 102.612981 25.9986329 104.737482 27.5920181 105.269634 29.1854033 105.269634 31.3037649 101.012414 32.3680724 99.9542728 33.4282785 99.9542728 35.019613 100.480261 37.1420759 100.480261 39.7956673 99.4200656 42.4513093 97.2935101 44.0385424 97.2935101 45.6319276 98.3557605 47.2253129 97.8256626 48.285519 97.8256626 51.4661373 97.2935101 53.0595226 98.8858584 53.0595226 97.8256626 53.5927017 95.6970525 53.5927017 91.976094 54.117678 89.8515931 55.7151646 89.8515931 59.4269113 86.6586779 61.5493743 85.0663296 59.9580398 82.9377194 58.8957829 80.8111639 58.8957829 78.6846084 59.9580398 77.0922601 61.0182459 75.4958025 61.5493743 73.9013995 63.1407088 71.2426915 63.6718372 70.7084843 61.5493743 69.6503431 59.9580398 65.92733 59.9580398 64.3308724 60.4891682 61.1420665 63.6718372 57.9512059 62.078452 56.8910101 63.6718372 55.2945525 65.2631717 53.6980949 64.734094 51.5694847 63.6718372 49.9730271 62.6136818 47.3163737 59.9580398 45.1898182 58.3687559 43.5954152 57.8355768 40.9387618 58.8957829 39.8744567 59.9580398 37.7479012 61.5493743 36.6815415 63.6718372 36.1534983 65.2631717 35.6213457 67.9167631 35.6213457 69.5080976 33.4947902 70.5703544 31.3682347 71.0994321 30.301875 69.5080976 29.2437339 68.4458408 28.1794288 66.8545063 27.6472762 64.2009149 27.1151237 62.6136818 26.5850258 61.5493743 25.5207207 59.9580398 24.4584703 58.8957829 21.8018169 56.7712693 19.1431089 56.2442423 17.5466512 55.7151646 13.8277474 55.7151646 10.6348322 56.2442423 10.6348322 57.8355768 11.1669847 59.4269113 11.1669847 63.6718372 10.6348322 65.2631717 10.100625 66.8545063 10.100625 68.4458408 11.6991373 69.5080976 14.8879432 69.5080976 15.9501936 71.0994321 15.9501936 75.344358 14.3557907 75.8775371 12.7613877 75.344358 10.100625 74.8132296 8.50827667 76.4086655 9.04248385 78 5.84956863 76.4086655 4.25516566 74.8132296 3.72506776 73.221895 2.66076269 71.6305605 1.06635972 69.5080976 0 67.3856347 0 64.734094 2.66076269 63.1407088 4.25516566 62.6136818 4.25516566 58.3687559 5.84956863 55.1819855 7.97612414 52.5283942 8.50827667 51.9993164 10.100625 51.4661373 10.6348322 49.8768535 12.2312898 47.7523399 13.8277474 47.7523399 17.0144987 47.2253129 19.1431089 45.6319276 19.6732067 42.9783363 19.6732067 41.3849511 21.2676097 39.2645389 22.3298602 37.6732043 23.9283724 38.2063834 25.5207207 37.1420759 25.5207207 35.5507414 24.9885682 32.8971501 25.5207207 29.714481 25.5207207 27.5920181 27.1151237 25.9986329 29.2437339 24.4052477 29.7738317 22.8159638 30.8360822 21.753707 31.3682347 20.1603218 31.3682347 18.0419602 30.301875 16.448575 28.1794288 14.8551898 28.1794288 14.3240614 26.5850258 13.2638553 23.9283724 10.610264 22.8620127 9.01892944 20.7354572 7.4296456 19.1431089 7.4296456 18.0767491 6.3653381 19.1431089 3.71379746 18.0767491 1.59133453 18.6089017 0 20.7354572 0.533179093 23.3921106 0 24.9885682 2.12246293 27.1151237 5.30718267 28.1794288 5.8342097 29.7738317 4.77605426 29.2437339 3.18266905"></polyline>
    </g>
</svg>