<?xml version="1.0" encoding="UTF-8"?>
<svg width="80px" height="78px" viewBox="0 0 80 78" version="1.1" xmlns="http://www.w3.org/2000/svg" xmlns:xlink="http://www.w3.org/1999/xlink">
    <!-- Generator: Sketch 50.2 (55047) - http://www.bohemiancoding.com/sketch -->
    <title>Bijnor</title>
    <desc>Created with Sketch.</desc>
    <defs></defs>
    <g id="Page-1" stroke="none" stroke-width="1" fill="none" fill-rule="evenodd">
        <polyline id="Bijnor" fill="#F4DDB5" fill-rule="nonzero" points="6.75381894 14.2036405 6.99525981 14.2036405 7.71865022 13.2406661 8.68348149 12.5177374 9.4068719 11.3147172 10.1302623 10.8327647 11.5779753 11.073741 12.5428066 10.3517427 12.7842475 9.14779207 13.266197 8.18481762 14.4724692 7.46281938 15.6787413 7.22184317 16.1606908 6.49984493 16.6435726 5.29682468 17.366963 4.57389603 18.5741673 4.09287401 19.7804395 3.8518978 20.9857794 3.8518978 21.7091698 2.88892335 21.9506107 1.68404227 22.915442 0.962044039 24.1217141 0.721998235 26.0513767 1.68404227 27.2567166 1.44399647 29.1863792 0 30.3926513 0.48102202 31.1160417 1.20302025 32.3223139 1.44399647 33.2871452 2.1659947 34.4924851 3.12989956 35.6996895 3.61092158 37.6284198 3.8518978 39.5580824 5.7778467 40.5238458 6.49984493 41.2481685 7.7037956 41.9715589 9.14779207 42.2120675 10.3517427 41.9715589 11.554763 42.4535084 12.5177374 42.9363901 13.7216881 42.9363901 14.6846625 43.4183397 15.647637 44.1426623 16.6106114 44.8660527 17.3326097 46.0723248 17.8145621 46.7957152 18.5365603 47.7605465 19.7395806 48.2424961 20.7034855 49.2073273 21.6655295 49.9316499 22.1474819 51.1369899 22.6285039 52.1018212 23.1104564 53.5495342 23.3514326 54.0314837 24.3153375 54.7548741 25.2773815 55.9611463 25.7593339 57.4079271 26.4813322 58.1313175 27.4443066 59.3375896 27.6852828 61.7510661 28.8892335 62.9573383 29.1292793 64.1626782 29.8512775 64.8860686 30.33323 66.0923408 30.5742062 67.2986129 30.33323 69.2282755 31.2962044 70.6750563 32.4992247 71.8813285 32.9811771 72.8461597 32.9811771 74.0524319 33.2221533 75.0163309 33.4631295 75.9820944 33.9441515 77.4288752 34.1851278 78.3937065 33.9441515 79.1170969 34.6661498 79.1170969 35.6291242 78.6351474 36.5920987 77.9108248 37.5550731 77.4288752 38.7590238 76.464044 39.962044 75.7406536 41.1659947 74.5343814 42.1289692 73.810991 42.8509674 72.8461597 43.3319894 71.6398876 43.5729656 70.6750563 43.092874 69.2282755 43.092874 68.5039529 43.8139418 68.0220033 45.2588687 68.0220033 46.461889 67.0571721 47.1838872 65.8508999 46.461889 64.64556 45.980867 63.6807287 46.7028652 62.9573383 47.66677 62.9573383 48.8697903 63.4392878 49.8327647 64.64556 50.5556934 64.64556 51.9996899 64.1626782 51.9996899 63.6807287 52.7216881 63.197847 52.7216881 62.7158974 52.4807119 62.4744566 52.4807119 62.2330157 52.7216881 61.7510661 53.4446167 61.5086931 53.6846625 60.5438618 54.1675454 60.7853027 54.8886132 60.5438618 55.3696352 60.0619123 56.0916335 59.097081 57.0555383 59.097081 58.0185128 58.8556401 58.2585586 59.097081 58.740511 60.0619123 58.2585586 61.0258113 57.5365603 61.0258113 58.2585586 60.7853027 58.4995348 60.7853027 58.740511 60.3024209 59.4625092 58.8556401 59.9435313 57.8908088 59.9435313 57.4079271 60.9065057 56.9259776 61.1484123 56.6845367 61.6294344 57.1674184 61.6294344 57.4079271 62.1104564 57.4079271 62.3514326 57.1674184 62.8324546 56.6845367 62.3514326 54.7548741 63.3134766 55.9611463 64.2773815 56.6845367 64.0364053 57.1674184 64.2773815 57.1674184 64.5174273 56.9259776 65.2403559 56.4430958 65.9623542 55.4782645 66.9243982 54.2729246 67.4063506 53.7900429 67.4063506 53.5495342 67.8883031 52.5847029 68.3693251 53.0666524 69.0913233 53.0666524 69.3322995 52.1018212 70.0552282 51.6189394 70.0552282 51.3784308 70.295274 50.6550404 70.295274 49.2073273 70.5353198 48.7244456 70.5353198 48.2424961 70.7781568 46.5542744 71.7402009 45.1065614 71.2601093 44.8660527 71.5001551 44.383171 72.7041057 42.9363901 72.2230837 41.730118 72.2230837 41.0067276 72.9441515 39.8004554 73.6661498 39.3166415 74.8701004 38.834692 74.8701004 37.8698607 75.3511225 36.9050294 74.6291242 35.4582486 74.1481022 34.2519764 74.3890784 33.2871452 74.8701004 32.3223139 75.1110767 31.1160417 75.3511225 29.9107018 76.0731207 29.1863792 76.7960493 27.980107 77.0360951 27.016208 76.7960493 26.0513767 78 24.8451045 77.7580934 24.3622228 76.7960493 23.3983237 76.0731207 22.1920516 76.3140969 21.2272203 76.7960493 19.2975577 75.3511225 17.8489125 75.3511225 16.4021317 75.5920987 14.9544187 76.0731207 13.9895874 75.8330749 13.0247561 73.907126 12.0608571 74.1481022 10.8545849 73.907126 10.1302623 72.9441515 9.16543103 73.6661498 7.47720935 73.1841973 7.47720935 72.2230837 5.06559726 71.2601093 4.10076598 71.0182026 2.41254429 70.5353198 1.92966255 70.295274 2.89449383 69.5732758 2.89449383 68.3693251 3.37737557 67.4063506 4.10076598 66.2033304 4.34220685 65.2403559 5.30703813 64.7584035 6.03042853 64.0364053 6.2718694 62.8324546 6.2718694 60.4245533 6.03042853 59.4625092 6.03042853 58.0185128 6.51237807 57.0555383 6.51237807 55.8515877 6.03042853 54.8886132 6.03042853 54.1675454 5.78898766 53.6846625 6.03042853 52.4807119 6.03042853 51.2776916 5.78898766 49.3517427 4.58271552 48.6297445 3.61788424 47.66677 2.89449383 46.7028652 3.1359347 45.0178925 3.37737557 43.8139418 3.37737557 41.1659947 3.1359347 39.7210678 2.41254429 38.0370256 2.17110342 37.0749815 2.17110342 35.6291242 2.41254429 34.6661498 2.17110342 33.2221533 1.20627215 32.7402009 0.24144087 32.0182026 0 30.5742062 0 26.9632846 0.724322611 26.0003101 0 24.3153375 0 23.1104564 0.724322611 21.9065057 1.44771302 21.1845075 2.65398517 20.7034855 3.37737557 19.9824176 3.85932511 20.9435313 5.06559726 20.221533 4.58271552 17.8145621 4.58271552 16.6106114 4.34220685 15.647637 4.34220685 14.4436863 5.06559726 13.9635947 6.03042853 14.6846625 6.75381894 14.2036405"></polyline>
    </g>
</svg>