<?xml version="1.0" encoding="UTF-8"?>
<svg width="48px" height="87px" viewBox="0 0 48 87" version="1.1" xmlns="http://www.w3.org/2000/svg" xmlns:xlink="http://www.w3.org/1999/xlink">
    <!-- Generator: Sketch 50.2 (55047) - http://www.bohemiancoding.com/sketch -->
    <title>Chandauli</title>
    <desc>Created with Sketch.</desc>
    <defs></defs>
    <g id="Page-1" stroke="none" stroke-width="1" fill="none" fill-rule="evenodd">
        <polyline id="Chandauli" fill="#F4DDB5" fill-rule="nonzero" points="11.2478029 2.04111933 11.7575847 1.27496005 12.5262093 0.76418719 13.036979 0.254400381 13.8046157 0 16.1055496 0 16.8712103 0.508800762 18.1486288 2.29551972 19.1721442 2.5499201 19.9387929 2.29551972 20.9613204 2.5499201 21.4720902 3.57047976 21.728957 4.59103943 23.5191212 4.59103943 24.5416487 5.35719872 25.5631883 5.6115991 26.329837 5.86698553 27.6082434 5.35719872 28.1190132 4.84642586 28.8856618 3.82586619 29.6532984 3.82586619 31.1865957 4.08223867 31.9542324 4.08223867 33.4875297 4.335653 34.2541783 4.335653 35.7884636 4.84642586 37.0658821 6.12237196 37.5776398 6.88754519 38.6001673 7.39831805 38.6001673 8.16250524 39.367804 9.18306491 39.6226949 9.9492242 40.1334647 10.9697839 40.6452224 11.4815428 41.6677499 11.2241842 42.4343986 11.4815428 43.4569261 12.2447439 44.2245627 12.7555168 44.7353325 13.0099171 46.012751 13.52069 47.0362665 13.7780485 46.7803876 14.5422357 46.012751 16.0725822 46.012751 16.3289547 46.2686299 17.0931419 46.7803876 17.6029287 47.2921453 18.369088 47.0362665 19.3896476 46.7803876 20.1558069 46.2686299 20.9209802 46.2686299 21.9405538 46.5254967 22.7067131 47.0362665 23.4718863 47.2921453 23.7253006 46.7803876 24.2380456 45.7578601 25.5139917 44.7353325 25.767406 43.2010473 26.0227924 42.4343986 27.2987385 41.9236288 28.5727125 40.9001133 29.0834854 37.0658821 29.0834854 35.7884636 29.8486586 35.5335727 31.1255908 35.5335727 32.4015369 35.021815 33.6764969 33.7424206 33.9328694 32.720881 33.9328694 31.6983535 34.6960705 30.9307169 35.9730027 30.4199471 38.2695084 30.4199471 39.2910542 31.4424746 40.3116138 31.9542324 41.3321735 31.6983535 42.6071335 31.1865957 43.6286793 31.1865957 44.6492389 30.6768139 45.6688125 29.6532984 46.4339858 28.6307709 47.7109179 27.8641222 49.2392923 28.1190132 50.7706248 28.1190132 51.7901985 27.6082434 53.0681166 27.8641222 54.0867042 29.1415407 54.3420906 29.3974196 55.3626503 29.3974196 56.6376104 29.6532984 57.9145425 29.6532984 59.1904886 29.9091773 60.7208351 29.6532984 62.2531537 29.9091773 63.5281137 31.6983535 65.3138466 32.2091233 66.3334202 33.2326388 67.3549659 33.9982995 68.3755256 33.9982995 69.6514717 33.4875297 70.6720314 32.720881 71.691605 32.9767599 72.7131507 34.2541783 73.2239236 35.2767059 75.7738437 35.5335727 77.814963 35.5335727 79.3453095 35.2767059 80.6222416 35.021815 81.6418152 35.7884636 82.6623749 34.5110452 82.6623749 32.720881 82.9187474 31.4424746 83.1731478 29.9091773 83.4265621 28.37588 84.1937074 27.3523645 84.9598667 27.3523645 86.2367989 26.329837 85.9814124 24.7965396 85.4696535 23.5191212 85.2142671 22.2397268 85.4696535 20.1936838 86.4902132 18.9152774 85.7240539 17.8927499 85.7240539 17.382968 86.7455996 16.1055496 87 15.336925 86.2367989 14.0585186 85.7240539 13.036979 85.2142671 10.4811542 84.1937074 9.45763871 83.4265621 8.94686892 81.8981877 7.92335344 81.3874149 6.64593498 80.3658691 6.64593498 79.3453095 7.15670477 79.0909091 7.66945046 78.5811223 11.5026938 78.5811223 12.0134636 77.5615487 11.2478029 77.0497898 9.9703844 76.7944033 8.94686892 76.2846165 8.17923231 76.2846165 7.15670477 76.028244 5.87829837 75.7738437 5.6243954 75.0086704 5.36752858 73.7337104 5.36752858 71.4372046 5.11263766 70.1622446 4.60087992 69.6514717 4.60087992 68.8853124 4.85577084 67.8667248 4.34500105 66.8461652 3.83423126 66.5897927 3.0675826 65.8256055 2.04406711 64.2932869 1.53428527 63.2727273 1.53428527 62.2531537 2.55582486 61.7433668 2.81269167 60.9762215 2.55582486 59.9556618 1.53428527 58.9341161 1.27741845 58.4263014 1.02153958 57.1493693 1.27741845 55.8734232 1.78818824 55.3626503 2.55582486 54.8528635 2.81269167 54.3420906 2.55582486 53.322517 2.55582486 52.5573438 2.81269167 51.7901985 3.32247352 51.0269973 4.09011013 50.5152384 5.36752858 50.0064376 6.13516519 49.7510512 7.41258364 50.0064376 8.43511118 49.7510512 9.45763871 49.2392923 8.69099005 47.7109179 9.71351758 46.9427865 9.9703844 45.9232129 9.9703844 45.1580397 10.2242874 43.3732928 11.2478029 42.3527332 12.0134636 42.3527332 12.7811002 41.5865739 12.7811002 40.3116138 12.2703304 39.5444685 12.0134636 38.7802813 11.7575847 37.5033492 11.2478029 36.7381759 9.71351758 35.7176163 8.17923231 36.7381759 7.92335344 35.7176163 7.66945046 34.6960705 6.90181385 34.4416702 5.87829837 34.1872698 4.60087992 33.9328694 3.83423126 33.9328694 2.81269167 33.6764969 2.29994598 32.4015369 2.29994598 31.1255908 2.04406711 31.1255908 2.04406711 30.1050311 1.78818824 29.0834854 1.53428527 28.3183122 1.02153958 27.8085253 0.509781842 26.7879657 0 26.0227924 0 24.7478324 0.25587887 23.7253006 0.509781842 22.4503406 1.02153958 21.6861534 1.53428527 21.430767 2.55582486 21.1763666 3.57835239 21.430767 4.34500105 21.9405538 4.85577084 22.7067131 5.87829837 22.7067131 6.64593498 22.1969263 7.66945046 21.6861534 8.69099005 21.9405538 9.45763871 21.6861534 10.4811542 21.430767 10.990936 20.9209802 12.0134636 20.9209802 12.5262093 20.1558069 12.5262093 19.1352472 12.7811002 18.369088 13.29187 17.6029287 14.0585186 17.0931419 14.3143975 16.3289547 14.3143975 13.7780485 13.8046157 12.5011164 13.5477488 11.7359431 13.036979 11.2241842 12.5262093 10.459011 11.2478029 9.69383777 10.4811542 9.43943739 9.9703844 8.6732781 9.71351758 8.6732781 9.20175984 7.65271843 8.94686892 6.88754519 8.94686892 5.6115991 9.45763871 4.84642586 10.4811542 4.84642586 11.2478029 4.335653 11.5026938 3.57047976 11.2478029 2.80530652 11.2478029 2.04111933"></polyline>
    </g>
</svg>