<?xml version="1.0" encoding="UTF-8"?>
<svg width="94px" height="78px" viewBox="0 0 94 78" version="1.1" xmlns="http://www.w3.org/2000/svg" xmlns:xlink="http://www.w3.org/1999/xlink">
    <!-- Generator: Sketch 50.2 (55047) - http://www.bohemiancoding.com/sketch -->
    <title>Chitrakool</title>
    <desc>Created with Sketch.</desc>
    <defs></defs>
    <g id="Page-1" stroke="none" stroke-width="1" fill="none" fill-rule="evenodd">
        <polyline id="Chitrakool" fill="#F4DDB5" fill-rule="nonzero" points="36.3160751 0.558624702 36.8768596 0.558624702 37.7169537 0 38.5570477 0.839557821 39.3982244 1.11832992 40.7980203 1.39710201 41.6381144 1.67695462 42.4792911 3.07621765 43.3193852 3.63376184 44.7191811 3.91361445 47.2405459 3.91361445 48.3610322 3.63376184 48.9207341 4.75209176 50.60417 5.03194437 52.2843582 5.03194437 52.5636678 5.87042168 53.1244523 6.7099795 53.6841541 7.26644318 54.5253308 8.6646257 54.5253308 11.4609907 54.2449386 11.7408434 53.6841541 12.5793207 52.5636678 13.1390259 51.7235738 13.9785837 51.1638719 15.3756857 50.60417 16.2152435 50.60417 17.8921981 50.8834797 18.731756 51.7235738 19.8500859 54.2449386 19.8500859 55.0850327 20.4087106 56.2066016 22.0845847 57.045613 22.6453704 57.8857071 22.6453704 59.007276 23.2039951 59.8473701 24.6010971 61.2493312 25.9992797 63.208829 25.9992797 64.6097075 24.6010971 65.4508842 24.0446335 66.5713705 22.3655178 67.6896916 22.0845847 69.0905702 21.8079736 70.2110565 22.0845847 70.7729235 22.9263035 71.611935 23.2039951 73.2932057 24.3234056 74.4126095 24.6010971 75.5341784 25.1629634 76.375355 25.9992797 76.6546647 26.8388375 76.9350569 27.9571674 75.8145706 30.1938272 76.0960454 31.3110766 77.2154491 32.151715 81.1366099 32.151715 82.2570962 32.9891118 83.0971903 32.7081786 84.2187592 32.151715 86.4597318 32.151715 87.5791355 31.5920098 88.1410025 31.5920098 88.980014 30.7535324 89.8201081 30.1938272 91.7806885 30.1938272 92.0621633 30.7535324 92.6218651 31.5920098 92.3414729 32.7081786 92.6218651 34.1074417 93.181567 34.9469995 93.181567 35.7865573 92.6218651 36.6228736 91.7806885 37.1825788 90.9405944 38.0221366 90.1005003 38.0221366 88.980014 38.5807613 88.4192295 39.4192387 88.6996218 40.5386491 89.541881 41.0983543 90.6623673 41.0983543 90.6623673 42.2156037 90.9405944 42.4954563 89.8201081 42.4954563 88.980014 43.3339336 90.6623673 45.5705935 91.2209866 46.6889234 91.5013788 47.8072533 90.3808925 48.3669585 88.4192295 47.8072533 87.0194336 47.5295617 85.6185551 48.3669585 83.9394495 48.3669585 84.4980688 49.765141 85.6185551 50.6025378 87.0194336 51.1633235 88.1410025 52.0018009 88.980014 53.1201308 88.980014 54.7970854 88.4192295 55.9154153 87.0194336 56.4751205 85.3392455 55.9154153 82.8189632 55.9154153 78.6174102 55.0758575 78.6174102 53.6787555 79.7368139 52.559345 81.4180847 52.0018009 81.4180847 50.6025378 80.0172062 49.765141 78.8956373 50.3237657 77.2154491 50.6025378 76.6546647 49.4852884 76.375355 47.8072533 75.5341784 46.968776 74.4126095 46.4101513 72.7324213 46.4101513 71.8923272 47.2475481 70.4914487 47.8072533 69.9317468 49.2054358 70.4914487 50.6025378 69.372045 51.1633235 67.9711665 50.3237657 67.410382 49.2054358 66.5713705 48.3669585 65.4508842 47.5295617 63.7685309 46.4101513 63.7685309 47.8072533 63.4881386 49.2054358 62.9284368 50.6025378 62.6491272 51.1633235 62.6491272 52.559345 62.9284368 53.6787555 62.9284368 55.0758575 63.208829 56.7549731 62.9284368 58.4308472 62.9284368 59.8290298 62.6491272 61.2261318 61.8079505 62.0656896 60.1277623 62.6264753 59.007276 63.4638721 58.4464916 64.8620546 58.1660993 66.5379287 57.8857071 67.9371918 57.3270879 69.891838 57.8857071 71.291101 58.7279664 72.4105114 58.4464916 74.0874661 57.8857071 75.2047155 56.2066016 75.4867291 55.0850327 74.6471713 53.6841541 73.2500693 53.4048445 74.3683992 53.1244523 76.0453538 51.7235738 76.0453538 51.1638719 77.1626032 50.3226952 78 49.2011263 77.1626032 48.0817226 76.6039785 46.9612363 76.6039785 45.2810482 76.8838311 43.879087 75.7655012 43.879087 74.3683992 43.3193852 72.6892835 41.0784126 73.808694 39.3982244 73.2500693 37.9973459 73.2500693 38.2766555 74.6471713 37.7169537 76.0453538 36.8768596 75.2047155 35.4759811 75.2047155 32.6753066 74.6471713 31.5548203 74.0874661 31.5548203 72.9712972 31.2733455 71.5720341 29.3149303 72.1306588 27.9129691 72.4105114 27.6325769 73.808694 26.5120906 74.0874661 24.5504276 73.808694 23.4299413 74.3683992 22.309455 75.2047155 21.1889687 75.7655012 19.5087806 76.0453538 17.8275098 75.7655012 16.9874157 74.3683992 17.5482002 73.2500693 18.3882943 72.4105114 19.7880902 72.4105114 21.1889687 71.5720341 21.7486706 70.4537042 21.7486706 69.0555217 21.1889687 67.9371918 20.6281843 66.2591566 20.069565 65.1408267 20.069565 63.4638721 20.9085765 62.3444617 22.0290628 61.5070649 24.271118 59.268244 24.271118 57.3125173 23.7103336 55.9154153 23.4299413 54.5183133 23.9907258 53.3999834 25.1122947 52.2805729 25.6719965 50.8845514 26.5120906 49.765141 26.7935654 47.5295617 26.5120906 45.8504461 25.1122947 45.5705935 23.7103336 45.8504461 22.5909299 45.0130493 21.1889687 45.0130493 20.3488747 45.8504461 20.9085765 47.2475481 21.1889687 48.6468111 21.1889687 50.0428326 20.9085765 51.1633235 20.9085765 53.1201308 20.3488747 54.5183133 18.9479961 54.2373802 18.107902 53.3999834 18.107902 51.4420956 16.7070235 51.1633235 15.306145 51.4420956 13.6259568 51.7219482 10.2644979 51.7219482 9.14401162 51.1633235 7.74313309 51.1633235 6.90303901 52.2805729 7.74313309 53.3999834 8.86361939 54.2373802 10.2644979 54.7970854 11.104592 55.6366432 10.8252824 57.0337452 11.6653764 58.1509946 13.3466472 58.7106998 13.9052665 59.5491771 13.6259568 60.9473597 11.9468513 61.5070649 10.8252824 60.9473597 9.70479607 61.5070649 8.30391754 61.5070649 9.70479607 60.1099629 8.30391754 58.1509946 7.18343124 57.3125173 6.62372938 55.9154153 5.50324308 54.5183133 4.94245863 53.9564471 3.26118787 54.5183133 2.4210938 53.6787555 2.4210938 49.4852884 2.14070157 48.6468111 1.58099972 47.5295617 1.30169009 46.6889234 0.460513413 45.8504461 0.181203784 45.0130493 1.30169009 43.3339336 1.02021527 42.2156037 1.02021527 41.3771264 2.14070157 41.6580595 2.98187825 41.3771264 3.26118787 40.257716 3.5415801 39.1415471 3.82197232 38.3009087 4.38275677 37.4624314 5.22285085 36.6228736 5.22285085 35.5056242 5.50324308 34.3872943 6.34225456 35.2257716 6.90303901 35.2257716 7.74313309 31.8707818 8.58430976 31.3110766 9.9841057 30.4725993 10.2644979 29.0754973 10.8252824 27.6794758 12.2261609 27.3985427 13.3466472 27.1186901 14.4660509 26.5600654 16.4266313 26.5600654 17.8275098 26.8388375 18.9479961 26.5600654 19.2283884 25.440655 19.7880902 24.6010971 20.6281843 23.4838477 20.9085765 22.3655178 21.1889687 22.0845847 21.4704436 21.5270405 21.4704436 20.6896437 22.5909299 19.8500859 23.4299413 19.8500859 23.9907258 19.0116086 24.5504276 17.8921981 24.8319025 17.0548014 25.3926869 15.6566188 25.9513062 14.819222 28.194444 14.2573558 29.0334555 13.4188785 29.0334555 12.3016291 29.8735495 12.020696 30.7147262 12.5793207 31.8352125 12.8591733 33.2350084 12.3016291 33.5164833 11.4609907 34.3554947 9.78403613 35.1955888 9.50526403 35.7563733 8.6646257 35.4759811 6.98875159 35.1955888 6.15027428 34.9162792 4.75209176 34.6369696 3.63376184 35.1955888 2.79528453 36.0367655 2.23557932 36.5953848 1.67695462 36.3160751 0.839557821 36.3160751 0.558624702"></polyline>
    </g>
</svg>