<?xml version="1.0" encoding="UTF-8"?>
<svg width="82px" height="87px" viewBox="0 0 82 87" version="1.1" xmlns="http://www.w3.org/2000/svg" xmlns:xlink="http://www.w3.org/1999/xlink">
    <!-- Generator: Sketch 50.2 (55047) - http://www.bohemiancoding.com/sketch -->
    <title>Deoria</title>
    <desc>Created with Sketch.</desc>
    <defs></defs>
    <g id="Page-1" stroke="none" stroke-width="1" fill="none" fill-rule="evenodd">
        <polyline id="Deoria" fill="#F4DDB5" fill-rule="nonzero" points="14.3142254 16.510304 16.54091 16.510304 17.4950277 16.1936949 18.4516045 15.5592496 20.0413909 13.9700684 20.6770596 12.6999506 20.9955087 11.7476691 21.6311773 10.7953875 23.5394128 9.843106 24.176311 8.88959729 25.1291993 7.93731575 26.4042252 8.57298822 26.4042252 11.1132238 26.7214447 12.0655053 27.6755625 12.0655053 28.6296802 11.43106 29.5862571 10.4787785 30.2219257 10.1609422 32.1326203 9.5240426 33.0855085 9.5240426 34.6765244 9.2086607 34.9949735 8.25515199 35.6306422 7.30287044 36.2663109 5.71491643 36.587219 4.44602581 37.2216581 3.49128994 38.1770054 3.49128994 40.0840114 1.58672685 40.7209096 1.26889061 41.3578078 1.26889061 41.0393587 0.315381903 41.9934764 0 43.5832628 0.95350871 44.8558297 1.58672685 45.4939574 2.54023556 45.811177 3.49128994 45.811177 4.44602581 46.1296261 5.39708019 46.7652947 6.03275266 48.0378616 6.34813457 48.9932089 6.98503421 49.6288775 8.25515199 49.6288775 10.4787785 50.9014444 11.1132238 51.537113 12.0655053 51.8555621 13.3356231 52.4912308 13.6522322 54.0822467 14.2879046 55.0363645 14.92235 56.3101609 15.2414134 56.9446 15.8758587 57.9011768 16.510304 59.1749732 17.4625855 60.1278614 18.4136399 61.0819792 19.6849848 60.4463105 20.6384935 60.1278614 21.5907751 60.7659891 22.2252204 61.7188773 22.8608929 64.264011 24.1297835 65.2193583 24.7666831 66.1722465 25.7189647 65.855027 26.35341 64.5812306 26.9878553 62.9914442 27.9401368 61.4004282 27.6235278 60.1278614 28.5758093 59.4921927 30.1637633 58.5368455 29.2127089 57.2655081 28.2579731 55.6732627 28.2579731 54.7203744 29.2127089 54.0822467 30.1637633 52.4912308 30.4815995 50.5829953 28.5758093 49.3091989 28.2579731 48.6747598 29.2127089 48.3550811 30.7982086 48.3550811 32.0683264 48.6747598 33.3396713 48.6747598 36.1977431 49.3091989 37.4678609 50.9014444 38.1035334 52.1727817 38.7379787 52.4912308 39.0558149 53.4453485 39.372424 55.6732627 40.0080965 57.2655081 39.6914874 58.2196259 38.7379787 59.8106418 38.4201425 61.0819792 38.1035334 62.3557755 38.4201425 63.3098933 39.6914874 64.264011 40.6425418 64.264011 42.231723 65.2193583 43.1827773 65.5365779 44.4528951 67.4448134 45.0885676 69.0358293 45.0885676 70.3083962 45.7230129 71.8994121 46.0420763 73.4891985 46.0420763 76.0355618 47.3109669 77.3081286 47.6288032 78.8991446 47.6288032 79.8520328 48.5810847 79.8520328 49.8512025 80.4901605 52.391438 80.4901605 55.5673461 80.8073801 56.8374639 81.1233701 58.4229635 80.8073801 60.0109176 80.8073801 61.6000987 81.1233701 63.1868256 81.4430487 64.4569434 80.1704819 65.0926158 78.8991446 64.4569434 76.3527813 63.8224981 75.0802145 64.7760068 74.1260967 65.7270611 72.2166317 68.2685239 70.9440648 68.901742 69.3542784 68.5863601 66.8103743 67.9494605 65.2193583 67.6316242 63.9467915 66.9971789 62.3557755 66.6793427 61.0819792 67.3162423 60.7659891 68.2685239 60.4463105 68.5863601 60.4463105 70.173087 61.7188773 71.1253685 62.6729951 72.07765 62.6729951 73.3477678 62.9914442 74.9357218 63.9467915 75.8867762 64.5812306 77.156894 65.5365779 78.4282389 66.4906956 79.3817477 67.1263643 80.9672473 66.4906956 83.5074829 67.1263643 85.0942097 68.0817116 85.7323366 68.0817116 86.0489456 67.1263643 86.3655547 65.5365779 87 64.264011 87 62.9914442 86.6833909 62.038556 86.0489456 60.7659891 85.0942097 59.8106418 84.4609916 58.5368455 84.1431554 52.4912308 84.1431554 51.2186639 83.8253191 50.2657757 83.192101 49.6288775 81.9195289 48.9932089 80.9672473 48.3550811 80.332802 47.0849734 78.4282389 46.4468456 77.7937936 45.4939574 77.4747302 44.8558297 76.8402849 44.2213906 75.2535581 43.2660433 74.6178856 42.3119255 74.3000494 41.0393587 74.9357218 40.7209096 75.5701671 40.40369 75.8867762 39.7667918 74.6178856 38.8114446 73.3477678 38.1770054 72.3954863 38.1770054 71.4432047 37.2216581 69.5374145 35.3121931 67.6316242 34.0396263 67.6316242 32.7682889 66.3627336 32.1326203 65.4104521 31.1760435 65.0926158 30.2219257 65.0926158 29.5862571 65.7270611 28.9518179 66.6793427 28.6296802 67.6316242 26.7214447 67.3162423 25.767327 67.9494605 24.4959897 67.9494605 22.5865246 68.5863601 21.6311773 69.2195782 20.6770596 70.489696 19.7229418 70.8075323 19.4044927 69.8552507 19.4044927 68.2685239 19.7229418 66.6793427 19.7229418 65.7270611 20.0413909 64.7760068 20.6770596 63.8224981 21.3151873 61.917935 21.6311773 60.9644263 20.9955087 60.0109176 19.7229418 59.3776994 19.0860436 60.329981 18.1319259 60.9644263 16.8605886 61.6000987 16.2224609 60.6478172 16.2224609 59.3776994 16.54091 58.1075816 16.2224609 56.5184005 14.3142254 55.2482827 13.0416585 54.9304464 13.0416585 53.6603287 13.6797862 52.7092743 15.2695726 51.1200931 14.3142254 50.1690387 13.0416585 50.4856478 12.0887703 50.4856478 12.4072194 49.5333662 12.4072194 48.2632485 11.7690917 47.9454122 10.4965248 48.2632485 9.86085615 49.21553 9.54240706 50.1690387 9.22395796 50.1690387 8.9067384 50.803484 7.63417155 50.803484 6.67882427 49.21553 5.72470651 49.5333662 4.45213967 49.21553 4.7718183 47.6288032 4.7718183 46.6752944 4.13369057 45.7230129 3.81524148 46.6752944 3.18080235 46.9931307 2.22545507 48.5810847 1.27010778 48.2632485 0 47.3109669 0.635668657 46.3574582 1.59101594 45.0885676 1.90700597 42.8661683 1.27010778 41.9126596 1.27010778 38.7379787 0.318449095 37.1500247 0.635668657 36.1977431 1.27010778 35.2454616 2.22545507 34.9276254 3.49802191 34.2919529 3.81524148 34.2919529 4.13369057 33.9753438 6.04438514 33.9753438 7.63417155 34.6097891 8.58828931 34.6097891 9.54240706 34.2919529 9.86085615 33.0230623 10.4965248 32.3873898 11.4506426 32.0683264 12.4072194 32.3873898 14.3142254 32.3873898 14.9511235 30.7982086 14.9511235 30.1637633 14.6326744 29.2127089 13.9970058 27.9401368 14.3142254 26.35341 14.9511235 26.0355737 15.2695726 25.4011284 14.9511235 24.1297835 14.6326744 23.1787291 14.9511235 21.274166 14.9511235 20.0028211 14.6326744 19.0505395 14.6326744 17.7804218 14.3142254 16.8281402 14.3142254 16.510304"></polyline>
    </g>
</svg>