<?xml version="1.0" encoding="UTF-8"?>
<svg width="171px" height="79px" viewBox="0 0 171 79" version="1.1" xmlns="http://www.w3.org/2000/svg" xmlns:xlink="http://www.w3.org/1999/xlink">
    <!-- Generator: Sketch 50.2 (55047) - http://www.bohemiancoding.com/sketch -->
    <title>Etah</title>
    <desc>Created with Sketch.</desc>
    <defs></defs>
    <g id="Page-1" stroke="none" stroke-width="1" fill="none" fill-rule="evenodd">
        <polyline id="Etah" fill="#F4DDB5" fill-rule="nonzero" points="52.508751 5.81726423 52.9161859 5.81726423 53.7294824 4.59888222 53.7294824 2.56719881 54.1369172 0.942166098 56.5799529 0.130434783 57.8006842 0.130434783 58.6139808 0.942166098 59.8347121 1.3488168 61.4644513 2.16054811 63.0910443 2.56719881 64.7192105 3.37893012 67.1622462 5.00396283 69.6037089 7.44229694 70.8244402 9.06732965 72.4557525 10.2857117 74.0823456 10.6923624 76.1179465 11.0990131 78.5594092 11.5056638 79.7817136 12.3173951 81.0024449 13.9424278 83.4454807 18.0042245 84.2587772 18.8175259 85.4795085 20.8476392 86.7002398 22.4726719 87.9225443 23.692624 89.1432756 25.7227374 91.1788765 27.3509102 93.6203392 29.3810236 96.8766714 31.0060563 98.9122724 31.8177876 105.424937 31.8177876 107.053103 31.4111369 108.682842 31.4111369 110.311008 32.631089 111.53174 34.2561217 112.345036 35.4745037 112.752471 36.6928857 114.380637 36.6928857 115.195507 37.9112677 116.8221 38.3179184 118.450266 37.9112677 119.265136 35.8811544 120.893302 36.286235 122.114033 37.0979663 123.336337 36.6928857 123.336337 35.4745037 123.742199 33.0361696 123.742199 24.0977047 124.149634 21.6609406 124.96293 21.2542899 126.591097 22.0660212 129.847429 22.8793226 130.254864 25.3176567 130.254864 26.5360388 131.475595 28.9743729 132.290465 30.1927549 134.326066 32.2244383 136.360093 33.4428203 137.98826 33.849471 139.616426 34.6612023 140.837157 35.4745037 141.652027 36.286235 143.280193 39.9429511 144.500924 39.5363004 146.130663 38.3179184 147.351395 37.9112677 149.79443 36.6928857 151.015162 35.8811544 153.050763 35.067853 154.678929 36.286235 156.307095 35.4745037 156.712957 33.4428203 157.120391 32.2244383 157.935261 30.5994056 158.748558 31.4111369 160.784159 32.631089 164.447926 37.5077572 164.447926 39.5363004 163.633056 41.1613332 163.633056 42.7863659 166.074519 42.3797152 168.517554 42.7863659 168.11012 44.4113986 168.11012 52.9416427 166.481953 54.5666754 165.668657 56.1932782 166.481953 57.8183109 164.447926 59.0351229 162.819759 58.6300423 160.784159 59.0351229 161.597455 61.0668063 163.633056 61.0668063 164.447926 63.0969196 166.481953 67.1618565 168.517554 68.3802385 170.14572 69.1935399 170.553155 70.8185726 169.330851 72.4436053 169.738286 74.067068 170.553155 78.1304348 167.296823 78.1304348 164.853787 77.7237841 160.784159 76.0987514 159.969289 74.4752887 159.563427 70.8185726 157.935261 69.1935399 155.89966 68.7868892 153.864059 68.7868892 152.235893 67.9751579 150.200292 66.3516953 148.573699 64.3184418 147.758829 62.6934091 145.721655 61.473457 141.652027 61.473457 139.616426 61.0668063 137.580825 60.2535049 135.954232 60.2535049 133.918631 59.8484243 131.475595 59.4417736 129.439994 59.8484243 126.591097 59.0351229 124.557069 59.0351229 122.521468 58.2233916 122.114033 55.7850575 121.300737 54.1600248 119.265136 54.9733261 117.636969 54.1600248 115.601368 54.1600248 115.195507 54.5666754 113.159906 56.1932782 111.124305 57.4100902 109.903574 59.0351229 108.275407 59.8484243 106.645668 60.2535049 105.424937 61.8785376 105.832372 63.5035703 105.017502 65.5368238 103.796771 66.7567759 103.389336 68.3802385 102.574466 70.4119219 100.540438 71.2236532 98.5048376 71.2236532 97.2841062 72.848686 95.2485053 73.6619874 93.6203392 74.067068 91.5847382 73.6619874 89.5507104 73.6619874 87.9225443 75.2870201 87.1076746 72.4436053 86.7002398 70.0052712 85.0736468 68.3802385 83.0380459 68.7868892 81.0024449 67.9751579 79.3742788 66.7567759 77.7461126 62.6934091 75.7105117 63.5035703 74.8972152 61.8785376 74.4897804 59.8484243 74.8972152 57.8183109 76.1179465 56.1932782 76.9328161 52.9416427 77.7461126 51.31661 76.1179465 50.098228 75.30465 51.7232607 72.8616143 51.7232607 70.8244402 49.6915773 69.6037089 47.2548133 67.1622462 48.0665446 67.569681 50.5048787 66.3473766 52.534992 64.7192105 53.7549441 63.4984792 54.9733261 61.4644513 55.7850575 58.6139808 56.1932782 56.9858146 57.8183109 55.7650833 56.5983589 53.7294824 57.4100902 52.1013162 58.6300423 50.0657153 58.6300423 48.0316875 59.8484243 47.2168178 61.8785376 48.0316875 63.910221 48.844984 65.5368238 48.844984 67.1618565 48.0316875 69.1935399 45.5886517 70.8185726 43.5546239 70.0052712 41.9264577 70.8185726 39.8908568 71.6303039 37.447821 70.8185726 36.2270897 69.6001906 34.1930619 69.6001906 33.3766192 70.8185726 32.1558878 72.848686 30.1202869 70.8185726 29.3069904 69.1935399 28.084686 67.9751579 26.8639546 67.9751579 25.6432233 68.7868892 24.4209189 68.3802385 22.7943259 69.1935399 22.386891 70.8185726 20.3512901 68.7868892 19.1305588 67.9751579 17.9098275 68.7868892 16.2816613 66.7567759 13.4311908 66.3516953 11.8045977 66.3516953 9.76899679 65.1301731 7.32596104 64.3184418 5.69779491 63.5035703 4.47706359 63.0969196 4.07120188 61.473457 4.07120188 59.4417736 2.44146264 58.6300423 0 58.2233916 0.40743481 56.5983589 1.22073132 54.9733261 2.44146264 52.9416427 3.25633226 50.9115294 3.66376707 48.879846 4.47706359 46.443082 6.51266453 46.0380014 7.73339585 44.8164792 8.54826547 42.7863659 10.1764316 41.9730645 12.2104594 41.9730645 15.06093 41.5679838 15.4667917 41.1613332 16.6890961 40.3496018 17.0949578 37.5077572 19.1305588 37.0979663 21.1661597 35.8811544 22.7943259 33.849471 24.0150572 32.631089 25.6432233 31.4111369 27.6788242 31.4111369 30.1202869 31.8177876 31.748453 33.0361696 31.748453 35.067853 33.3766192 35.067853 34.5989236 33.849471 36.6345245 33.0361696 38.2626907 32.2244383 39.8908568 30.1927549 42.3323194 30.1927549 42.7397542 28.5677222 44.7753552 27.3509102 46.4035213 27.3509102 48.0316875 26.9426895 50.4747232 24.9110061 51.6954545 23.692624 52.9161859 21.2542899 51.6954545 19.6292572 51.6954545 17.1940633 52.508751 15.1608098 51.2880197 13.9424278 52.1013162 9.87906096 53.3220476 8.25402825 53.3220476 6.63056562 52.508751 5.81726423"></polyline>
    </g>
</svg>