<?xml version="1.0" encoding="UTF-8"?>
<svg width="78px" height="78px" viewBox="0 0 78 78" version="1.1" xmlns="http://www.w3.org/2000/svg" xmlns:xlink="http://www.w3.org/1999/xlink">
    <!-- Generator: Sketch 50.2 (55047) - http://www.bohemiancoding.com/sketch -->
    <title>Etahwah</title>
    <desc>Created with Sketch.</desc>
    <defs></defs>
    <g id="Page-1" stroke="none" stroke-width="1" fill="none" fill-rule="evenodd">
        <polyline id="Etahwah" fill="#F4DDB5" fill-rule="nonzero" points="49.9497045 1.01969351 49.9497045 0.680232558 50.28982 0.340771609 51.6476556 0.340771609 52.3278866 0 52.6680021 0.680232558 53.6870355 0.680232558 54.3672665 0.340771609 55.7251021 0.340771609 56.0652176 0.680232558 57.4243664 1.3578438 57.764482 2.03545503 58.1045975 2.37491598 57.764482 2.71437693 58.1045975 3.39198817 58.1045975 4.07091007 58.4433998 4.41168168 59.1236308 4.74852131 59.8025486 4.74852131 61.1616974 4.41168168 62.182044 4.41168168 62.8609618 3.73144912 63.2010773 3.73144912 63.5411928 3.39198817 64.5602261 3.05121656 65.2391439 3.05121656 65.9193749 3.39198817 66.2594904 3.39198817 67.279837 2.37491598 67.960068 2.71437693 67.6199525 3.05121656 67.6199525 3.73144912 68.6389858 3.39198817 69.9981346 3.39198817 70.3382501 3.73144912 70.6770524 4.07091007 71.017168 3.73144912 71.017168 3.39198817 71.697399 3.39198817 72.3763168 3.73144912 72.3763168 4.07091007 73.3953501 5.08798226 73.7354656 5.08798226 73.7354656 6.78397634 74.4156966 7.12212663 74.0755811 7.12212663 73.7354656 7.80104853 73.7354656 8.47865977 75.43473 10.1746539 76.1136478 10.1746539 77.4727966 11.531187 77.8129121 12.5495698 76.1136478 14.2442533 76.7925656 15.6007864 77.1339943 17.2980911 76.4537633 18.9927746 76.4537633 20.6900793 75.7735323 21.3663799 75.43473 22.7216024 76.1136478 23.4031456 76.4537633 24.4189071 75.43473 25.4359793 74.4156966 26.1135905 75.0946144 27.1306627 75.43473 27.4701237 74.7544989 29.5055787 74.0755811 30.1845006 73.7354656 31.2015728 74.0755811 32.5567953 75.0946144 33.5764888 75.7735323 35.2711722 76.1136478 35.9487834 75.7735323 37.9842385 74.7544989 39.3394609 74.0755811 40.0183828 73.0552346 40.6959941 72.7164323 40.6959941 72.3763168 42.3919882 72.7164323 43.4077497 73.0552346 44.0879823 72.7164323 47.1391988 72.3763168 47.8168101 72.7164323 49.8535757 72.3763168 51.5495698 70.3382501 51.8890308 69.3179036 52.566642 68.2988703 53.9231752 66.9397215 54.9402473 66.2594904 56.2967805 64.8990284 56.6362414 63.8799951 57.9927746 62.5221595 58.3322355 61.5018129 59.687458 60.8228951 62.062374 59.1236308 62.7399852 57.764482 64.4359793 56.7454486 65.7912018 55.3862998 66.4701237 53.6870355 67.8266568 53.3482331 69.5226509 54.7060688 69.5226509 56.7454486 70.2015728 56.4053331 71.5581059 55.0461843 72.9146391 55.3862998 74.6106331 56.7454486 75.2869337 56.4053331 77.3236994 53.6870355 77.3236994 51.9877711 78 48.2504401 75.6263947 48.2504401 74.9487834 47.5715223 74.6106331 47.2314068 74.6106331 46.2123735 74.2698615 45.872258 74.2698615 44.8532246 73.9304006 44.5131091 73.5922503 43.8341913 73.9304006 43.8341913 74.2698615 43.1539603 74.2698615 42.8138448 74.6106331 42.134927 74.6106331 41.1158937 74.2698615 39.7567448 73.9304006 39.7567448 73.2527894 38.397596 72.5751781 39.7567448 70.879184 39.7567448 68.8450397 40.0955471 67.8266568 40.0955471 67.4885065 40.4356626 67.1477349 40.0955471 66.4701237 39.7567448 66.4701237 39.0765138 66.1319734 38.7363983 65.7912018 38.0574805 65.7912018 36.6983316 64.4359793 36.6983316 63.7570574 36.3582161 63.0807568 35.6779851 62.4005243 35.6779851 61.0439911 35.3391828 60.3663799 33.9787208 60.3663799 33.6386053 60.0269189 33.9787208 59.3493077 32.619572 58.6703858 31.9406541 57.3138527 30.9203076 56.2967805 30.9203076 54.9402473 31.6005386 53.5837142 32.619572 53.5837142 33.2984898 52.906103 32.9596875 52.2271811 32.9596875 51.5495698 32.619572 50.1930367 32.619572 49.8535757 32.2794565 48.8365036 31.9406541 48.1575817 31.6005386 47.1391988 31.9406541 46.1247479 32.2794565 45.7826657 32.9596875 43.7485213 32.9596875 43.4077497 31.2604231 42.3919882 30.2413898 42.3919882 29.2223565 42.7301385 26.5040588 45.4432047 25.14491 44.7655935 26.1639433 42.7301385 26.5040588 42.3919882 27.1829766 40.6959941 26.8428611 40.0183828 22.7654146 37.9842385 21.0674635 38.3223888 20.3872325 38.6618497 18.3491658 39.3394609 17.3301325 39.0026213 15.6308682 37.9842385 13.9316038 36.2869337 13.252686 34.9330219 12.572455 34.2527894 12.2323395 33.5764888 11.2133062 32.5567953 10.5343883 31.5397231 9.51404182 30.8621118 8.15620618 30.1845006 4.75767751 30.1845006 4.07613331 29.8450397 4.75767751 28.4898172 5.43659533 27.8108953 5.43659533 26.4530515 6.45694184 25.4359793 6.45694184 25.0965183 7.47597517 25.0965183 8.4950085 25.4359793 8.835124 25.0965183 9.17523951 25.0965183 10.1942728 25.4359793 10.8745038 25.7754402 11.2133062 26.1135905 11.8935372 26.4530515 12.572455 26.1135905 14.2717193 24.4189071 14.2717193 23.4031456 13.9316038 22.3834521 13.5914883 21.7058408 9.85415733 17.9757024 9.51404182 17.2980911 9.51404182 16.2783976 8.835124 15.9402473 8.15620618 15.9402473 7.47597517 16.2783976 6.45694184 16.6191692 5.77671083 16.2783976 5.43659533 15.9402473 5.09779301 15.2613254 5.43659533 14.2442533 5.43659533 13.9047923 4.75767751 12.8864095 4.417562 11.531187 4.07613331 10.5141148 3.05709998 10.1746539 2.71698448 10.5141148 2.37818216 11.191726 2.03806665 11.531187 1.69795115 12.5495698 1.35914883 13.2258704 0.678917822 13.2258704 0 12.8864095 0 12.2087982 0.338802318 11.191726 0.338802318 10.8548864 0.678917822 10.1746539 0.678917822 9.8351929 1.01903333 9.8351929 2.03806665 8.81812072 2.37818216 7.80104853 2.71698448 7.46158758 2.71698448 7.12212663 3.73733099 6.1063651 4.07613331 6.1063651 4.417562 5.4274432 4.417562 4.74852131 6.79574416 4.74852131 7.47597517 4.07091007 8.15620618 3.73144912 8.4950085 3.73144912 9.17523951 3.39198817 9.85415733 3.73144912 11.2133062 3.73144912 11.5534217 3.39198817 11.8935372 2.71437693 12.572455 3.39198817 13.5914883 2.37491598 14.6118348 2.03545503 14.6118348 2.37491598 15.6308682 3.05121656 16.3110992 3.39198817 16.990017 3.39198817 18.0090503 3.73144912 19.0280836 3.05121656 21.407579 3.05121656 22.0864968 3.39198817 23.4456456 3.39198817 23.7857612 2.37491598 23.7857612 1.69730475 24.464679 1.01969351 25.14491 1.01969351 25.8238278 2.03545503 25.8238278 3.05121656 26.8428611 3.05121656 27.5230921 2.71437693 28.20201 3.39198817 29.2223565 3.39198817 29.5611588 2.37491598 28.5421255 1.69730475 28.20201 1.69730475 28.882241 0.680232558 29.9012743 0.680232558 30.2413898 1.01969351 32.619572 1.69730475 33.2984898 2.03545503 33.2984898 2.71437693 32.9596875 4.07091007 34.3188363 4.74852131 34.6576386 5.4274432 34.9990673 5.76690415 35.6779851 5.76690415 37.0384472 3.73144912 38.397596 3.73144912 38.7363983 3.05121656 39.7567448 2.71437693 39.7567448 2.37491598 41.7948115 1.3578438 42.4737293 1.3578438 43.4940758 1.69730475 43.4940758 2.03545503 44.5131091 2.71437693 45.5321425 1.69730475 45.5321425 1.3578438 45.1933401 0.340771609 45.5321425 0.340771609 45.872258 0.680232558 46.5511758 0.680232558 47.2314068 0 48.5905556 1.3578438 49.9497045 1.01969351"></polyline>
    </g>
</svg>