<?xml version="1.0" encoding="UTF-8"?>
<svg width="132px" height="78px" viewBox="0 0 132 78" version="1.1" xmlns="http://www.w3.org/2000/svg" xmlns:xlink="http://www.w3.org/1999/xlink">
    <!-- Generator: Sketch 50.2 (55047) - http://www.bohemiancoding.com/sketch -->
    <title>Faizabad</title>
    <desc>Created with Sketch.</desc>
    <defs></defs>
    <g id="Page-1" stroke="none" stroke-width="1" fill="none" fill-rule="evenodd">
        <polyline id="Faizabad" fill="#F4DDB5" fill-rule="nonzero" points="25.9206167 0 27.4915171 0.7831812 30.2417313 0.7831812 31.0264226 2.35257332 33.3820145 2.74340649 34.9529149 3.13575452 36.1322286 3.52810254 36.91692 5.0959798 37.3100245 5.879161 39.2725118 7.44703826 42.022726 7.44703826 43.986731 7.83787143 45.1675625 8.62408235 47.1300497 9.01340066 47.5216365 9.79961158 48.6994324 12.9338512 49.4856415 13.7200621 51.0580598 14.1093805 53.020547 14.8925617 56.1608302 15.6772577 57.3401439 16.0711206 58.9095266 16.8543018 60.4819448 17.245135 61.6597407 16.4604389 62.4444321 15.2864245 63.2306412 14.5017285 64.0168503 13.3261993 65.1931285 12.9338512 65.9808554 11.365974 67.5517558 10.5827928 69.5142431 10.5827928 70.692039 10.9751408 71.8698349 10.9751408 73.4422532 10.1904447 74.2254267 9.01340066 76.1894318 8.23021946 76.5825363 8.23021946 77.3687455 7.83787143 78.5450236 7.44703826 80.1174418 7.44703826 81.6898601 9.01340066 82.8691738 8.62408235 83.2607606 7.05469023 84.8301432 6.6623422 87.9719442 8.23021946 89.1512579 8.23021946 91.5068497 9.01340066 92.2930588 9.40726355 93.4708547 10.1904447 93.8654771 11.365974 94.2555461 12.5415032 94.2555461 13.7200621 94.6486506 14.1093805 94.6486506 15.2864245 94.2555461 16.4604389 94.6486506 18.4191493 95.433342 19.2068751 96.6126557 19.5961934 98.1835561 20.3808895 99.3628698 21.1671004 100.540666 22.3426296 102.110048 24.3013401 102.896258 25.8692173 104.858745 25.8692173 106.036541 25.4768693 107.608959 25.8692173 108.788273 26.6539134 109.179859 28.2217906 110.357655 29.0064867 111.535451 29.395805 113.106352 30.1805011 114.285665 30.5728491 115.855048 32.1407264 116.642775 32.5330744 117.427466 33.3177704 117.820571 34.4917848 118.215193 36.0596621 119.391471 38.0198874 120.962372 38.4122354 122.141686 38.0198874 124.104173 37.6290542 126.458247 38.0198874 129.211497 38.0198874 130.780879 38.4122354 131.173984 38.8045834 130.780879 39.5877646 130.780879 41.1556419 129.99467 42.3311711 129.99467 43.8990484 130.387775 45.0745776 128.032183 45.0745776 126.852869 46.2501068 127.245974 48.211847 127.640596 48.9950282 128.032183 50.1705574 128.032183 51.7384346 127.640596 52.5216158 127.640596 53.3063119 125.676591 53.3063119 124.104173 53.6971451 122.141686 55.6573704 120.179198 55.268052 118.60678 54.4818411 117.427466 53.3063119 117.03588 52.1292678 117.03588 50.9537386 115.855048 50.9537386 115.464979 51.7384346 113.892561 52.1292678 113.106352 50.9537386 111.928556 50.5629054 109.571446 51.7384346 109.571446 53.6971451 108.788273 55.6573704 108.788273 56.8344144 108.000546 58.0114585 107.608959 59.1869878 107.608959 61.9303943 108.788273 63.4982715 107.608959 64.6753156 106.431163 66.2431929 104.858745 67.0263741 104.074053 68.5942513 102.896258 69.7712954 103.29088 70.9468246 101.326875 72.120839 100.540666 72.9070499 100.540666 76.8244708 99.7559744 76.8244708 98.9682475 78 97.397347 77.2168188 96.2195511 76.4336376 94.6486506 76.4336376 93.4708547 76.0428044 90.7221584 76.0428044 89.9389848 74.8642455 89.9389848 73.6887163 89.5428447 72.120839 88.3665665 72.120839 86.7941483 72.513187 85.6163524 72.513187 84.8301432 71.3361429 83.2607606 71.3361429 82.0829646 72.120839 80.5120642 72.120839 80.5120642 70.5544766 80.9051687 69.3789474 79.7243373 69.3789474 78.5450236 69.7712954 77.3687455 69.3789474 76.5825363 68.2019033 75.0116359 68.2019033 72.656044 67.4172072 71.0851436 67.8110701 69.9058299 68.2019033 68.3349294 68.2019033 67.1571335 67.0263741 66.7640289 65.4584968 64.8015417 65.8508448 63.2306412 65.4584968 62.4444321 64.6753156 62.4444321 62.7135755 61.6597407 61.9303943 58.9095266 61.5380462 57.7317307 61.1472131 56.5554525 61.1472131 54.9830343 60.754865 53.8052384 60.362517 53.4121338 59.9716838 53.020547 59.1869878 51.8412333 59.1869878 50.6634374 60.362517 49.0940547 60.754865 48.6994324 58.7946397 48.6994324 57.6191105 48.3063278 56.8344144 46.7354274 56.4435813 45.5576315 56.8344144 43.986731 57.6191105 42.4143127 58.0114585 41.2365168 58.7946397 40.4518255 59.9716838 39.2725118 60.362517 38.4878204 59.1869878 38.0962337 58.0114585 36.91692 56.8344144 35.7391241 57.2267625 34.5613282 58.0114585 32.9889099 58.0114585 31.811114 56.8344144 30.6333181 55.268052 28.2762085 56.0512332 26.7083436 56.0512332 25.5259943 56.4435813 23.9581294 56.0512332 22.7803335 56.8344144 22.3857112 58.0114585 21.209433 58.4022917 19.2469458 57.6191105 18.4592189 56.4435813 18.8523234 54.8741892 20.0301193 53.6971451 20.4232239 52.9154787 20.8148107 51.3476015 20.8148107 50.1705574 19.2469458 49.3873762 18.0645965 48.9950282 13.3534129 50.5629054 11.7840302 50.5629054 10.9978211 49.7782094 11.7840302 48.9950282 12.5687216 47.8179841 14.139622 47.0348029 15.7105225 45.8592736 16.8883184 45.8592736 17.6730098 44.6837444 17.2829407 43.8990484 14.9243134 43.117382 13.7480352 42.3311711 12.9603083 40.7632938 12.175617 39.9801126 10.6047165 39.5877646 10.6047165 41.5495048 8.64222926 42.3311711 6.28511966 41.5495048 5.49739276 40.7632938 4.32111463 39.9801126 3.53490551 38.8045834 2.3571096 38.4122354 1.17779591 38.4122354 0.394622341 39.5877646 0 38.8045834 0 36.8428433 0.784691347 36.0596621 1.96400503 35.667314 5.10580598 34.8841328 5.8920151 33.7086036 5.8920151 32.5330744 5.10580598 30.9651971 4.71270141 29.395805 5.10580598 28.2217906 5.8920151 27.0477763 7.06829323 25.8692173 6.67518867 24.3013401 5.8920151 23.1258108 6.28511966 21.9517965 6.67518867 20.3808895 7.06829323 19.5961934 7.06829323 18.029831 7.46291557 16.8543018 8.24608914 15.6772577 8.64222926 14.5017285 8.64222926 12.15067 9.03381605 11.365974 9.82154295 10.5827928 9.42692061 8.23021946 9.42692061 7.05469023 9.82154295 5.879161 11.3909256 2.74340649 12.5687216 2.74340649 14.139622 3.52810254 15.3189357 3.52810254 16.4952138 2.35257332 17.6730098 1.95871043 18.4592189 1.95871043 19.2469458 3.13575452 20.0301193 3.92045057 20.8148107 2.74340649 21.9926066 3.13575452 22.3857112 4.31128374 24.7443385 2.74340649 25.5259943 1.5663624 25.9206167 0"></polyline>
    </g>
</svg>