<?xml version="1.0" encoding="UTF-8"?>
<svg width="96px" height="79px" viewBox="0 0 96 79" version="1.1" xmlns="http://www.w3.org/2000/svg" xmlns:xlink="http://www.w3.org/1999/xlink">
    <!-- Generator: Sketch 50.2 (55047) - http://www.bohemiancoding.com/sketch -->
    <title>Fatehpur</title>
    <desc>Created with Sketch.</desc>
    <defs></defs>
    <g id="Page-1" stroke="none" stroke-width="1" fill="none" fill-rule="evenodd">
        <polyline id="Fatehpur" fill="#F4DDB5" fill-rule="nonzero" points="21.0036459 5.63671449 21.4925638 4.90663321 21.7360788 4.66264476 22.7139145 4.17655193 23.6908063 4.17655193 24.1778364 3.93162143 24.4222953 2.95660966 25.1556721 2.22652838 25.888105 1.73760943 26.6205379 1.73760943 27.5974297 1.98159788 27.8418886 1.00658611 28.8187804 0.51955124 29.5521572 0.51955124 30.2836462 1.00658611 31.260538 1.2515166 31.9939148 1.73760943 32.4809449 1.98159788 33.4597244 3.44364453 33.4597244 4.41771426 33.7041834 5.15062166 33.9476984 5.88070295 34.4366163 6.61266831 35.657967 7.8307265 36.145941 8.56269186 36.6348588 9.04878469 37.3672917 10.268727 39.0766164 10.268727 40.5414822 10.5117734 41.0304 10.9997503 41.274859 11.9747621 42.0072918 12.462739 42.4952658 13.1937623 43.4731015 13.4377507 44.2045905 13.6798551 44.4490495 14.6558089 44.9379673 15.6308207 45.6704002 15.3887163 46.647292 15.6308207 48.1131016 16.3627861 49.0899935 16.3627861 49.8224264 16.6058325 50.0659414 17.3387399 50.5558031 18.3118676 51.2872921 19.044775 52.264184 19.2878214 53.2410758 19.2878214 54.2179676 18.8007865 56.6606691 18.3118676 57.3949897 18.0688212 58.3709376 17.5827283 59.1033705 17.3387399 60.0802623 17.0938094 60.8126952 17.0938094 61.3016131 16.3627861 61.789587 16.1169135 67.406479 16.1169135 67.8963407 16.850763 68.1389119 17.5827283 68.8722887 17.8257747 69.3602626 18.3118676 70.3380983 19.044775 70.8260723 20.5077637 71.0695873 21.2378449 72.0464792 21.7258218 72.5363408 22.4577872 72.5363408 22.7017757 72.7798559 23.1878685 73.023371 23.9188918 74.0002628 24.4059267 74.7326957 24.4059267 75.7095875 24.1619382 76.4429642 24.6508572 77.9087739 26.1129038 78.6412068 26.1129038 79.6190425 26.3568923 80.3505315 26.3568923 80.8394493 25.8689154 81.5718822 25.626811 82.0608001 26.1129038 84.2599865 26.1129038 85.4803933 27.330962 85.4803933 30.0120089 85.7239084 30.7449163 85.9683673 31.7199281 85.7239084 32.4500093 85.9683673 33.4240791 86.4572852 34.4000329 87.922151 35.3741026 89.1425578 35.6190331 89.8768784 35.8620795 90.8528264 36.3491144 91.8287743 36.3491144 92.80661 36.106068 93.782558 37.0810798 95.2483676 39.2750918 95.7382293 39.7640107 95.4918827 39.7640107 94.7603936 40.2501035 94.5168786 41.2251153 94.0270169 42.687162 93.5399868 43.9061622 93.0501251 45.3691509 92.80661 46.3441626 92.318636 47.075186 90.6083675 47.075186 89.6314757 47.3182324 88.8990428 47.8062093 88.4101249 48.2941862 87.922151 49.2682559 87.6786359 50.0011633 86.9452591 50.9761751 85.2340467 50.9761751 84.0145837 51.2182795 84.0145837 52.1942333 84.5025577 53.167361 85.7239084 53.6562799 86.2118824 54.1442569 87.1887742 54.6312917 87.4332331 55.362315 87.4332331 56.0942804 86.7008002 57.0692922 86.2118824 58.044304 86.7008002 59.5054086 86.4572852 60.2373739 86.4572852 61.4554321 86.9452591 62.9193628 87.1887742 63.8934326 88.4101249 64.6253979 89.1425578 65.3573633 89.3870167 66.0865025 89.8768784 66.8184679 89.8768784 67.7944217 90.1203935 68.525445 90.1203935 69.0124799 89.8768784 69.7435032 89.8768784 70.4745265 90.3639086 71.2055499 90.6083675 72.1815037 89.3870167 73.1555734 88.4101249 73.8875388 87.6786359 74.1296431 87.4332331 75.105597 86.9452591 76.0806087 86.4572852 78.0315743 85.4803933 78.5195512 84.7470166 77.7866438 84.0145837 77.299609 83.7701248 76.8125741 84.0145837 76.5685856 84.0145837 74.1296431 83.2812069 72.911585 82.793233 72.4254921 82.3043151 71.6935268 82.0608001 70.9625034 80.5959343 70.9625034 79.1291808 70.717573 78.6412068 69.7435032 77.664315 69.9874917 75.4660724 69.9874917 74.2447217 69.7435032 73.5122888 69.2574104 72.7798559 68.0374681 72.0464792 67.7944217 70.8260723 67.5494912 70.0926955 67.3073868 69.3602626 66.5754215 68.6278297 67.0624563 68.1389119 67.0624563 67.8963407 66.5754215 67.406479 65.1124328 68.382427 63.8934326 69.1167476 62.9193628 69.3602626 61.9443511 69.6047216 60.7244088 70.0926955 60.2373739 70.3380983 59.5054086 70.3380983 57.7984314 69.8482366 56.8243617 69.1167476 56.5813153 68.382427 57.3123386 67.406479 57.7984314 66.67499 58.7743852 65.6980982 59.2623621 64.7202625 59.5054086 63.7424268 59.2623621 63.0109378 59.2623621 62.277561 58.5303968 62.0349898 57.555385 62.0349898 56.0942804 62.7664789 55.6044194 62.5220199 54.6312917 62.5220199 54.1442569 61.789587 52.6812682 61.058098 52.4372797 60.0802623 52.6812682 58.8589116 53.167361 57.6385047 53.167361 56.417154 52.6812682 55.4383745 52.1942333 55.1967471 51.7062564 54.4633704 50.4872562 53.2410758 50.7312446 52.7531018 50.2442098 51.2872921 50.9761751 49.3344524 52.1942333 48.3566167 52.6812682 46.647292 53.167361 44.9379673 53.9002684 43.4731015 53.6562799 42.4952658 53.6562799 41.7628329 53.4122915 40.7859411 52.9252566 39.0766164 52.1942333 38.0997246 51.7062564 37.3672917 51.7062564 36.6348588 51.2182795 35.657967 50.9761751 34.6801313 50.2442098 33.9476984 49.7552908 32.4809449 49.2682559 31.748512 48.0511398 31.748512 47.075186 31.9939148 46.3441626 32.4809449 45.6131393 32.7263477 44.1501506 32.7263477 43.4191273 31.504997 43.1751389 29.5521572 44.1501506 28.5743215 44.882116 27.5974297 44.882116 26.6205379 44.1501506 26.376079 43.4191273 25.888105 42.2001271 24.912157 41.7130922 24.1778364 41.4700458 23.9343214 40.49315 24.1778364 39.5190802 24.1778364 38.5431264 24.6667543 37.5681146 25.3991872 37.3250682 26.8649968 37.3250682 28.3308065 37.0810798 29.3067544 36.5931029 29.5521572 36.5931029 29.5521572 35.3741026 29.3067544 34.4000329 27.3539146 32.9370442 26.6205379 32.6949398 22.7139145 32.6949398 21.7360788 32.4500093 20.2721569 32.4500093 19.5378363 31.9620324 18.8054034 31.9620324 18.0729705 32.2060209 17.0960787 32.6949398 16.1191869 32.4500093 14.1654032 32.4500093 12.6995936 31.7199281 11.7236456 32.2060209 10.9912127 32.4500093 10.0124332 32.9370442 9.52445922 33.4240791 9.2800003 33.4240791 9.2800003 33.1810327 8.30310849 33.4240791 6.8382427 33.4240791 6.35026872 32.4500093 6.1058098 31.4749976 5.61689196 31.4749976 4.64000015 30.9870207 3.90851111 30.9870207 1.71026857 30.2559973 1.22135073 29.7699045 0.976891814 29.7699045 0.976891814 28.5509043 0.732432896 28.0629274 0.488917835 27.0879156 0.244458918 26.6008807 0 25.3818805 0.244458918 24.6508572 0.488917835 23.9188918 0.976891814 23.4318569 1.71026857 23.1878685 2.44175761 22.7017757 2.44175761 21.9688683 2.68621652 20.9947985 5.37243305 18.3118676 5.61689196 17.3387399 6.1058098 16.1169135 7.32621667 15.1437858 7.81513451 14.6558089 8.54851126 12.462739 10.0124332 11.4886692 11.4791867 10.9997503 11.7236456 10.268727 12.2125635 9.53770363 12.6995936 9.04878469 13.6774292 8.56269186 14.410806 8.56269186 16.6081047 7.09970317 17.3405376 6.85571472 18.3174294 6.85571472 19.0508062 7.34463367 19.7822952 6.85571472 20.2721569 6.12563344 21.0036459 5.63671449"></polyline>
    </g>
</svg>