<?xml version="1.0" encoding="UTF-8"?>
<svg width="80px" height="78px" viewBox="0 0 80 78" version="1.1" xmlns="http://www.w3.org/2000/svg" xmlns:xlink="http://www.w3.org/1999/xlink">
    <!-- Generator: Sketch 50.2 (55047) - http://www.bohemiancoding.com/sketch -->
    <title>Firozabad</title>
    <desc>Created with Sketch.</desc>
    <defs></defs>
    <g id="Page-1" stroke="none" stroke-width="1" fill="none" fill-rule="evenodd">
        <polyline id="Firozabad" fill="#F4DDB5" fill-rule="nonzero" points="34.2723439 17.9019229 35.2329152 17.2631862 35.8728835 15.6644914 35.8728835 14.3857826 35.2329152 13.1070738 34.592947 11.5096145 35.2329152 9.91091963 36.8346927 8.95219691 38.4352323 8.95219691 39.7164068 7.9934742 41.3181842 7.35350207 42.2787556 8.31222479 43.55993 7.03475148 45.8029136 6.71476542 47.4034532 6.0747933 48.3640246 5.11607058 49.6464368 4.15734786 50.608246 2.55741756 50.287643 0.638736655 52.2087856 0 53.169357 1.91744543 54.7723723 3.51614027 56.693515 3.51614027 57.3334833 2.23866696 58.6146577 3.19615421 57.9746894 4.47609846 57.3334833 7.03475148 56.3729119 8.31222479 56.0523089 9.91091963 56.3729119 11.5096145 57.0141181 12.7883232 58.6146577 12.1483511 59.8958321 15.3457408 61.1770065 16.3044635 62.778784 16.9432002 64.3805615 16.6232141 65.6617359 17.9019229 65.9811011 19.8206038 66.6223072 22.0580353 66.9429103 22.6967719 66.3017042 23.9754807 65.0205298 24.9342034 64.3805615 26.5328983 64.3805615 29.4103019 62.4581809 29.7290525 62.4581809 31.3277473 64.6999267 32.6064561 65.9811011 32.9264422 67.5828786 34.8451231 69.1846561 36.4438179 70.4658305 37.4025406 69.5040213 39.0012355 68.5434499 39.9599582 69.8246243 41.5574176 70.7851957 42.1973897 71.1057988 42.5161403 72.067608 43.7960845 73.9887506 44.1160706 75.5905281 44.1160706 76.8717025 44.4348212 79.1146861 46.033516 78.1541148 46.6734881 77.5116708 46.9922387 75.9098933 46.3522666 75.2699251 47.6322109 75.2699251 49.2296702 73.6681476 49.2296702 72.3869732 49.5508918 71.7470049 51.4658663 72.067608 53.3857826 71.7470049 54.6644914 70.7851957 55.9419647 72.3869732 56.2631862 72.7075762 58.1806317 71.4264018 60.7368138 71.4264018 62.3367441 72.7075762 63.9354389 73.6681476 65.5341337 73.9887506 67.1315931 75.5905281 66.8128425 74.949322 67.1315931 74.6299568 67.1315931 73.9887506 67.4515792 73.3475445 68.0890804 71.1057988 68.0890804 71.1057988 68.730288 70.7851957 69.3690246 70.4658305 69.3690246 69.5040213 70.3289828 69.5040213 70.6502043 69.1846561 70.9677195 68.864053 71.9264422 67.9034817 72.8851649 67.5828786 72.8851649 67.5828786 73.2051509 67.2622755 73.8451231 67.2622755 74.1626382 66.9429103 75.1225964 66.9429103 75.7625685 65.6617359 74.4838597 65.0205298 74.1626382 63.4199901 74.8038458 61.4976096 75.4450534 59.8958321 74.4838597 58.6146577 75.7625685 56.693515 76.4037761 55.4123406 77.3600279 53.4899601 78 52.2087856 78 51.5688174 76.7212912 51.2482143 74.8038458 49.9670399 74.1626382 50.9288491 72.8851649 51.2482143 70.9677195 49.3258338 70.9677195 49.0052307 72.5651788 47.4034532 72.2476637 46.1222788 71.6076916 44.5217392 70.0089967 43.8805331 68.0890804 41.9593904 67.4515792 40.3576129 67.7715652 39.7164068 69.6890107 40.6782159 70.6502043 42.2787556 71.6076916 40.3576129 71.9264422 37.7952641 71.6076916 37.1552958 70.0089967 35.2329152 70.0089967 35.2329152 68.0890804 34.592947 67.4515792 33.6311378 66.8128425 32.3499633 66.491621 30.7481859 65.2141477 30.4288207 63.6129819 30.1082176 62.3367441 28.8270432 59.4593405 27.2252657 58.5006177 25.9440913 57.221909 24.6641547 56.5819368 23.0623773 55.3032281 21.7812028 54.6644914 21.1399967 53.3857826 19.5369814 53.7057687 18.57641 54.6644914 16.9746326 55.3032281 15.3740929 54.3445053 16.0140612 52.747046 16.9746326 51.1483511 18.57641 50.1883929 21.1399967 48.2709475 19.8575845 46.9922387 18.57641 46.9922387 17.9364418 47.3122248 17.2964735 47.9521969 16.0140612 47.3122248 15.0534899 48.5909336 14.7328868 50.1883929 12.491141 51.4658663 10.8893636 50.8296005 9.92879223 49.5508918 8.32701475 49.2296702 7.68704647 50.8296005 8.32701475 52.1058384 8.00764953 54.0245193 6.40587206 53.3857826 4.80409458 51.7870878 4.80409458 51.4658663 3.52292017 50.1883929 2.88295189 48.5909336 3.52292017 47.3122248 4.48472936 46.033516 5.44530071 45.3935439 5.44530071 42.1973897 4.80409458 40.9186809 3.20355495 39.6399721 2.88295189 38.0425128 3.84352323 37.0825546 3.52292017 35.8038458 3.52292017 33.8864004 4.48472936 32.6064561 4.80409458 30.3690246 3.84352323 28.7703298 2.56234882 29.0903158 1.60177748 28.7703298 0.320603065 28.1315931 0 27.1728704 0.320603065 25.8941616 0.961809196 24.9342034 0.961809196 23.9754807 0.641206131 22.6967719 1.28117441 21.4180632 2.24174576 21.0980771 3.52292017 21.0980771 4.1641263 22.3780214 5.76590378 22.6967719 7.04584034 23.0179935 8.64761781 22.6967719 9.28882394 23.6554947 8.00764953 23.9754807 9.60942701 24.6154528 10.2493953 23.6554947 10.2493953 22.0580353 11.2099666 20.7793265 12.8117441 19.8206038 12.170538 18.221909 11.5305697 16.9432002 12.491141 16.3044635 13.4517124 16.9432002 15.0534899 18.541895 15.3740929 17.2631862 16.6552673 16.6232141 17.6158387 16.9432002 18.57641 16.3044635 19.5369814 16.3044635 20.5000284 17.2631862 21.1399967 18.541895 22.7417742 20.1393544 23.7023455 18.541895 24.3435517 17.5831723 25.9440913 17.5831723 26.9059005 18.541895 28.8270432 19.1806317 30.4288207 18.541895 31.7099951 17.9019229 33.3117725 18.541895 34.2723439 17.9019229"></polyline>
    </g>
</svg>