<?xml version="1.0" encoding="UTF-8"?>
<svg width="195px" height="78px" viewBox="0 0 195 78" version="1.1" xmlns="http://www.w3.org/2000/svg" xmlns:xlink="http://www.w3.org/1999/xlink">
    <!-- Generator: Sketch 50.2 (55047) - http://www.bohemiancoding.com/sketch -->
    <title>Ghaziabad</title>
    <desc>Created with Sketch.</desc>
    <defs></defs>
    <g id="Page-1" stroke="none" stroke-width="1" fill="none" fill-rule="evenodd">
        <polyline id="Ghaziabad" fill="#F4DDB5" fill-rule="nonzero" points="40.4427957 8.72733169 42.0817976 5.45563633 44.8148756 5.45563633 47.5479536 3.8176806 48.6420297 1.08986244 49.1869556 0 52.4649595 1.08986244 54.1060736 3.27169536 56.8370395 4.36366585 60.1171555 4.90754304 62.3031955 4.90754304 65.0362735 5.99951353 69.9553915 5.99951353 72.1435436 8.18134645 74.3274714 5.99951353 77.6075875 10.3631794 81.4326294 10.9091646 83.0716313 9.27120889 86.3517474 8.72733169 87.9907493 7.09148401 89.6297513 9.27120889 90.7217152 12.0032432 92.9098673 12.0032432 96.1878712 12.5450123 97.2819473 14.7268452 98.3739112 17.4525553 100.559951 23.9980541 102.198953 26.179887 100.559951 28.9077052 104.932031 27.8157347 107.665109 30.5435529 110.943113 29.9996757 113.129153 31.0895381 114.768155 32.7253858 114.768155 33.271371 116.411381 31.6355234 119.142347 31.0895381 121.328387 29.4515824 124.061465 28.36172 126.794543 28.36172 130.072547 29.4515824 132.258587 28.36172 132.258587 25.6381179 130.619585 23.9980541 128.433545 22.3622064 128.433545 20.1824816 130.072547 15.8167077 128.433545 12.5450123 130.072547 10.3631794 132.258587 11.4530418 134.991665 12.0032432 137.177705 12.5450123 137.722631 13.0931056 141.549785 13.6369828 144.280751 15.8167077 147.013829 16.3626929 149.199869 15.8167077 152.479985 15.8167077 154.663913 14.7268452 157.396991 13.0931056 159.583031 12.0032432 160.677107 8.72733169 162.316109 7.09148401 165.049187 7.09148401 167.784377 7.63536121 172.154345 8.72733169 174.887423 8.72733169 177.073463 7.09148401 178.714577 8.72733169 179.259503 11.4530418 181.445543 13.6369828 182.539619 15.8167077 181.992581 18.5445258 180.898505 20.7263587 180.898505 23.456285 182.539619 26.179887 183.084544 27.2718575 183.631583 29.4515824 183.084544 31.6355234 183.084544 33.8152482 184.178621 36.5451745 185.270584 38.7270074 185.817622 40.9088403 186.364661 43.6366585 186.364661 46.3644766 187.456624 49.0901868 191.828704 51.2741277 193.467706 54.5458231 193.467706 57.8175184 194.014744 60.5453366 194.014744 62.7271695 193.467706 65.4549877 192.920668 66.5469582 191.828704 65.9988649 190.189702 64.3651253 187.456624 64.3651253 184.178621 64.9090025 182.539619 63.2710467 179.259503 62.7271695 177.073463 62.1832923 174.342497 60.5453366 173.795459 57.8175184 172.154345 56.1816708 168.876341 56.725548 164.502149 55.6356855 162.316109 54.5458231 161.224145 51.820113 159.035993 50.7302505 156.305027 50.7302505 154.663913 49.636172 151.932947 48.5484176 149.746907 49.0901868 149.199869 49.0901868 146.468903 48.0003243 143.735825 48.5484176 141.549785 49.0901868 138.816707 50.1821572 136.630667 54.5458231 136.083629 56.725548 135.538703 59.9993514 134.991665 63.2710467 134.444627 65.4549877 132.258587 63.817032 130.072547 61.635199 126.247505 64.9090025 124.061465 65.9988649 120.783461 67.0887273 116.411381 70.3625307 113.676191 70.908516 112.037189 73.0882409 109.851149 75.8181671 107.118071 76.9080295 103.840067 78 103.293029 78 100.012913 76.9080295 97.2819473 76.9080295 92.9098673 75.2721818 91.2687532 72.5443637 89.0827133 69.8165455 86.3517474 70.3625307 84.7106333 70.3625307 83.6186694 69.8165455 82.5245933 67.0887273 80.8855914 64.9090025 78.1546255 64.3651253 77.6075875 61.635199 74.8745094 61.0913219 73.2355075 62.7271695 71.0494675 62.7271695 66.6773876 61.0913219 65.5833115 57.2715332 65.5833115 56.725548 63.9421974 58.9094889 63.3972715 61.635199 60.6641935 62.1832923 57.3840775 59.9993514 55.1980375 61.635199 53.0119975 61.635199 50.2789195 61.0913219 47.5479536 59.9993514 45.9068396 63.2710467 42.6288357 62.7271695 40.4427957 58.3613956 39.3508317 55.6356855 38.8037937 52.9099754 37.1647918 50.7302505 34.9787518 50.1821572 31.6986358 50.1821572 28.9676699 51.2741277 26.7816299 53.4538526 25.1405158 55.6356855 25.1405158 50.7302505 24.0485519 48.5484176 22.9544758 46.9083538 22.9544758 46.3644766 20.22351 45.8184914 17.490432 43.6366585 17.490432 41.4548255 15.304392 40.3628551 13.1162399 38.7270074 13.1162399 35.9991892 9.83823597 35.453204 4.91911798 35.453204 2.733078 34.9072187 1.09407605 32.1794006 0 28.36172 1.63900196 26.179887 4.37207996 25.6381179 6.55811994 24.5440394 9.29119794 23.9980541 8.74415992 21.272344 10.3831619 20.1824816 12.0221638 17.9985406 14.7552418 17.4525553 17.490432 18.5445258 19.1294339 20.1824816 19.6764719 22.9081917 19.1294339 25.0900246 20.22351 27.2718575 22.9544758 26.7279803 25.1405158 25.0900246 26.2345919 27.2718575 27.8735938 25.0900246 28.9676699 22.9081917 31.6986358 23.9980541 33.3397498 25.6381179 35.5236777 27.2718575 36.0707157 29.9996757 36.6177537 29.9996757 39.8957577 28.9077052 40.9898337 26.7279803 39.8957577 23.456285 38.2567557 21.272344 37.7118298 19.088403 37.1647918 16.3626929 38.8037937 14.7268452 42.0817976 14.18086 42.0817976 11.4530418 40.4427957 8.72733169"></polyline>
    </g>
</svg>