<?xml version="1.0" encoding="UTF-8"?>
<svg width="118px" height="87px" viewBox="0 0 118 87" version="1.1" xmlns="http://www.w3.org/2000/svg" xmlns:xlink="http://www.w3.org/1999/xlink">
    <!-- Generator: Sketch 50.2 (55047) - http://www.bohemiancoding.com/sketch -->
    <title>Ghazipu</title>
    <desc>Created with Sketch.</desc>
    <defs></defs>
    <g id="Page-1" stroke="none" stroke-width="1" fill="none" fill-rule="evenodd">
        <polyline id="Ghazipu" fill="#F4DDB5" fill-rule="nonzero" points="54.528024 3.22129974 57.0401589 2.5059166 58.1146096 1.78776601 60.985819 1.78776601 62.0602697 2.14753316 62.7784186 2.5059166 64.9314791 1.07376658 67.7999157 0.356999714 68.8785256 0 71.0301996 0.356999714 72.1046503 1.07376658 73.5423346 1.78776601 74.9758597 1.07376658 76.0530831 0.715383147 76.7698457 0.715383147 78.9229062 1.43353373 79.6396687 2.14753316 79.9973568 3.22129974 80.3564313 4.29783376 81.0759666 3.57968318 82.1504173 2.14753316 83.2276407 2.5059166 83.9444033 3.57968318 84.3048641 5.01183319 85.3793148 5.72860006 86.8128399 6.4439832 88.6082123 5.72860006 89.6854357 5.3688329 90.0417374 5.01183319 90.0417374 5.3688329 90.4008119 6.4439832 91.1203472 7.51774979 92.1947979 8.59151637 92.9143332 9.66528295 93.9887839 10.0236664 94.7069328 11.4558164 95.7827699 12.1725833 97.9358303 11.4558164 98.6512065 12.8879664 99.010281 13.961733 99.3693555 15.0354996 100.804267 15.7522664 104.390853 15.7522664 105.468076 16.1120336 106.546686 15.7522664 107.978825 15.3924993 108.69836 16.826033 108.69836 18.258183 110.49096 20.0501002 113.001708 20.0501002 114.43662 19.3333333 117.665517 22.9144002 116.948755 23.6311671 116.948755 24.70355 117.306443 25.7759328 117.306443 27.2094666 116.230606 27.9262334 115.870145 28.9986163 115.512457 30.43215 116.230606 31.5059166 115.512457 32.5824506 113.719857 34.0118332 113.362169 35.0869835 113.719857 36.1607501 115.870145 38.3082832 115.512457 39.7404332 115.870145 40.4572001 115.512457 41.8879664 115.156155 42.9645004 115.156155 44.0368833 115.512457 45.4690333 115.870145 45.826033 114.077545 46.9011833 113.001708 48.3333333 111.925871 50.4822502 111.566797 51.9144002 110.133271 54.4203168 109.415122 55.4940834 108.340672 56.5706174 107.262062 58 106.186225 59.7891497 105.468076 61.2226835 103.67409 62.29645 102.239179 62.6562172 100.804267 62.6562172 99.7270436 63.7299838 100.087504 65.8775169 102.239179 65.5205172 103.67409 66.2359004 102.955941 67.6666667 101.880104 68.7404332 100.445193 69.4572001 99.3693555 70.8893501 97.9358303 72.6798836 96.5009188 73.393883 92.9143332 73.393883 91.8357234 74.8274167 90.0417374 74.8274167 88.2491378 75.5441836 87.1733008 76.6193339 85.7370029 77.6917168 83.5853288 78.0501002 81.7899564 78.7668671 79.6396687 79.4822502 77.8470691 79.4822502 76.7698457 81.2713999 75.3349342 82.3465502 73.9000227 82.70355 72.4651111 83.4217005 70.6711252 84.1357 68.8785256 85.2094666 67.0831532 85.9276171 65.649628 86.2873843 64.9314791 87 64.5724046 86.6416166 63.8570284 85.56785 63.4951812 84.4940834 63.4951812 83.0619334 64.2133301 81.9895505 64.5724046 80.9144002 64.9314791 79.4822502 64.2133301 78.4070999 63.4951812 77.6917168 63.1374931 76.6193339 63.1374931 76.2595668 64.2133301 74.1106499 64.5724046 73.038267 63.1374931 72.6798836 61.3435071 71.9631167 60.6281309 71.606117 59.5481347 70.8893501 58.1146096 69.8169673 57.0401589 69.4572001 55.603861 69.8169673 54.8870985 69.1002004 54.1689495 67.6666667 53.8126478 66.5915164 52.734038 65.1607501 52.734038 64.0883672 51.2991265 63.3702166 50.5823639 62.29645 48.7883779 60.5073003 46.6367039 59.7891497 45.5608668 59.7891497 43.4091927 59.4349175 42.3319693 59.4349175 40.1789088 59.0737666 39.1016854 59.0737666 38.0258484 60.5073003 37.3090858 61.2226835 35.5137134 61.9394503 34.4378764 61.5796832 33.0057376 61.2226835 31.5694397 60.1489169 29.0573048 60.1489169 28.6996167 58.7167669 27.9828541 57.2846169 26.5479426 56.9262334 25.4707192 57.2846169 24.0358077 56.9262334 22.2418217 54.4203168 21.167371 53.7063174 17.9384735 53.7063174 16.8612501 54.0633171 16.1444875 54.7773165 15.0672641 55.4940834 14.3518879 56.5706174 13.9914271 56.5706174 11.1229904 55.8524668 10.045767 55.8524668 8.96992996 55.1384674 6.45779502 55.1384674 5.02149711 55.4940834 3.5865856 56.9262334 3.5865856 58 3.22889751 59.0737666 2.15306047 59.0737666 1.07583704 57.6430003 0.71953534 56.5706174 0.71953534 54.0633171 1.07583704 53.3465502 1.07583704 52.9853994 1.43352513 51.5546331 1.43352513 50.1224831 1.79398599 49.0501002 1.79398599 47.2595668 1.43352513 46.1858002 1.43352513 44.7536502 1.79398599 42.9645004 1.79398599 41.8879664 0.71953534 40.4572001 0 39.3806661 0.359074476 38.3082832 1.07583704 37.2359004 1.43352513 36.5177498 2.86982303 36.5177498 5.02149711 37.2359004 6.09872054 36.1607501 7.53501844 35.8009829 8.96992996 36.1607501 11.8383666 36.1607501 12.1974411 34.7286001 12.1974411 33.6548335 13.2732781 33.6548335 15.0672641 33.29645 16.1444875 32.5824506 16.8612501 31.8643 17.2189382 30.43215 17.5780127 29.7181506 19.7310731 28.9986163 19.7310731 28.6416166 20.4478357 27.9262334 21.167371 26.8524668 22.6008962 26.4954671 23.6753468 26.1357 23.3190451 25.0633171 23.3190451 23.9867831 22.2418217 22.9144002 21.5236727 21.8392499 20.4478357 20.7668671 20.4478357 19.3333333 19.7310731 18.6165665 19.3719987 17.1830327 20.0901476 16.1120336 22.2418217 16.1120336 23.3190451 16.4676496 23.6753468 17.5441836 25.4707192 16.4676496 26.5479426 16.4676496 27.2633188 17.5441836 29.0573048 17.902567 29.7768401 18.6165665 30.8512908 18.9735662 31.9285142 18.9735662 33.0057376 18.258183 33.3634257 17.1830327 34.0801883 16.1120336 34.0801883 15.0354996 34.4378764 13.961733 35.8727879 12.8879664 36.9486249 11.4558164 40.5379833 11.4558164 41.6152067 12.529583 42.6910438 13.2477336 43.7654944 12.1725833 44.1245689 10.7390495 44.1245689 9.66528295 44.4836434 8.23313293 45.9185549 7.51774979 47.35208 7.16075007 48.0716154 6.08559977 49.1474524 5.3688329 50.2246758 5.01183319 51.658201 5.72860006 53.452187 4.65344976 54.528024 3.22129974"></polyline>
    </g>
</svg>