<?xml version="1.0" encoding="UTF-8"?>
<svg width="91px" height="78px" viewBox="0 0 91 78" version="1.1" xmlns="http://www.w3.org/2000/svg" xmlns:xlink="http://www.w3.org/1999/xlink">
    <!-- Generator: Sketch 50.2 (55047) - http://www.bohemiancoding.com/sketch -->
    <title>Hardoi</title>
    <desc>Created with Sketch.</desc>
    <defs></defs>
    <g id="Page-1" stroke="none" stroke-width="1" fill="none" fill-rule="evenodd">
        <polyline id="Hardoi" fill="#F4DDB5" fill-rule="nonzero" points="30.0243746 1.54218525 30.9074445 1.32162977 32.0114951 0.881370366 32.8937117 0.881370366 33.9977623 1.54218525 35.5429213 1.76274073 36.2058635 1.10192585 37.3090609 0.881370366 38.1921308 0.881370366 38.8550731 0.220555483 39.7372897 0 40.8421935 0.660814883 41.284155 1.54218525 42.6083332 1.76274073 43.7123838 1.32162977 44.1543453 2.64325953 45.2583959 2.86381501 46.1406126 3.74603694 46.1406126 4.62655574 46.3624465 5.50792611 47.4656439 7.71177781 48.349567 8.15203721 49.6728919 8.59314817 50.556815 8.37259269 50.7769425 9.03340757 50.9979233 10.1353334 50.9979233 10.7961483 50.556815 11.6775187 50.1148535 12.1177781 49.6728919 13 49.8938727 14.1027774 49.8938727 14.9841478 49.6728919 15.6441111 50.1148535 15.8646666 50.334981 16.0852221 50.9979233 16.5254815 51.6608656 16.5254815 52.5439354 16.304926 53.2051713 16.7460369 52.9841905 17.4068518 52.7632098 18.0676667 52.5439354 18.9490371 52.3221015 19.8304074 52.1011207 20.4920739 51.6608656 21.1528888 51.2180509 22.4745185 51.8801399 23.1353334 53.8672604 24.4569632 54.0882411 25.3391851 54.0882411 26.0008516 53.8672604 26.6608149 54.5293495 27.3216298 55.1914385 27.7618892 56.5164699 28.2030001 56.7383039 28.863815 57.178559 29.304926 58.0616288 29.7451854 59.3866602 30.6274073 60.0504557 31.5087777 60.26973 32.168741 60.0504557 32.8295559 60.0504557 33.4920739 60.7116916 34.1528888 61.3737807 34.5939997 61.5947614 35.4745185 61.8157422 36.1370366 62.0375761 36.7969999 62.0375761 37.6783702 61.8157422 38.3391851 61.5947614 39.2205555 63.3609011 39.2205555 64.2448241 39.6608149 64.6850793 40.3216298 65.7891299 41.4235556 66.2310914 42.0843705 66.4520722 42.7460369 66.4520722 43.6265557 66.2310914 44.2882222 65.7891299 44.9490371 65.7891299 45.609852 66.4520722 46.0501114 66.8931805 46.0501114 67.7762503 45.609852 69.1004285 45.609852 69.3222624 44.7284816 69.7633708 44.2882222 70.6455874 44.0676667 72.1915995 44.0676667 72.8536886 44.5087777 73.2956501 44.9490371 73.9577392 45.1695926 74.8399558 45.3892965 75.9440064 44.9490371 76.6069487 45.1695926 77.0480571 45.609852 77.0480571 45.8304074 77.4891654 46.27237 77.9319801 46.4912223 78.1521077 47.3725927 78.3730884 48.0334076 78.593216 48.6942225 79.2553051 49.1353334 80.1383749 48.9147779 80.8021704 48.4745185 81.9070742 49.5755928 82.5683101 49.5755928 82.7884376 48.9147779 83.6723607 48.4745185 84.1143222 49.1353334 84.5545773 49.5755928 85.4376472 50.0167038 85.6586279 50.6775187 86.5416978 50.8980742 87.2054933 50.6775187 87.6457484 51.1186296 87.8667291 51.7794445 88.7489458 51.558889 89.1909073 52.6616664 89.1909073 53.3224813 89.6328688 53.9824446 89.8529964 54.6441111 90.0739771 55.304926 90.2949579 55.9665924 89.8529964 56.6274073 88.9699265 57.5087777 88.7489458 58.6107035 88.9699265 58.6107035 88.0868567 59.4912223 87.6457484 60.5931482 86.9836593 61.0342591 86.3215702 61.2531115 85.8796087 60.5931482 84.9965388 60.1520372 84.3344498 59.9331849 83.4513799 59.7117778 83.4513799 60.5931482 82.7884376 61.2531115 81.4642595 62.136185 81.2432787 62.7969999 80.5803364 63.0167038 79.6981198 63.0167038 79.4762858 62.5764444 78.593216 62.136185 77.7109993 63.0167038 78.3730884 63.8980742 77.9319801 64.9991484 76.8279295 65.2205555 76.1649872 64.9991484 75.0609366 65.2205555 73.7376117 65.4394078 72.633561 65.4394078 72.4125803 66.1019258 72.4125803 67.6432595 71.9706188 68.3057775 72.1915995 68.5246299 71.3085297 69.4068518 70.6455874 70.2882222 69.1004285 70.2882222 68.2173586 69.8471112 67.5552695 69.6257042 66.8931805 69.6257042 66.4520722 70.0676667 65.127894 70.9481855 63.8028626 70.9481855 63.1416268 71.6081488 63.1416268 72.2706668 62.698812 72.9314817 62.9189396 73.8137037 62.4778313 74.6942225 61.5947614 74.9147779 61.1536531 76.6783702 61.3737807 77.558889 60.7116916 78 59.8277685 77.7811476 59.8277685 77.558889 58.9455519 76.6783702 58.7237179 76.0167038 58.0616288 75.5755928 56.9584314 75.136185 56.5164699 74.6942225 55.855234 74.6942225 55.1914385 74.473667 54.3092219 73.5931482 54.3092219 73.1520372 54.0882411 72.2706668 53.8672604 71.6081488 53.2051713 70.9481855 52.3221015 70.5079261 51.6608656 70.2882222 51.2180509 69.6257042 51.6608656 68.3057775 51.8801399 67.4235556 51.2180509 66.5421852 50.556815 66.3207782 49.6728919 65.4394078 48.5688413 64.9991484 47.6866247 64.7794445 47.0236824 65.4394078 46.5817209 66.3207782 46.3624465 67.2030001 46.3624465 68.7451854 45.9196318 69.4068518 45.4785235 69.8471112 44.8164344 70.9481855 44.1543453 71.3892965 43.491403 72.2706668 43.0511479 72.7109262 42.6083332 73.3725927 41.7252634 73.5931482 41.284155 72.9314817 41.0640275 72.0509629 40.8421935 71.3892965 40.8421935 70.5079261 40.6212128 69.8471112 39.5171621 69.6257042 38.8550731 69.8471112 38.1921308 70.5079261 37.3090609 70.5079261 36.4259911 70.2882222 35.7647552 69.8471112 35.1018129 70.5079261 34.8816854 71.8295559 34.8816854 72.2706668 33.9977623 74.0334076 33.3356732 74.2531115 32.4526034 74.2531115 31.7905143 74.6942225 31.7905143 75.5755928 31.5703868 76.4578148 30.6864637 76.2372593 30.4663362 76.0167038 29.5832663 75.5755928 28.920324 75.136185 28.4800689 74.473667 28.0372542 74.2531115 27.1541844 74.0334076 26.050987 71.3892965 25.1670639 69.6257042 25.1670639 68.3057775 24.9469364 67.2030001 24.2848473 66.1019258 23.621905 65.2205555 22.9598159 64.558889 21.8557653 64.9991484 20.5315871 64.7794445 18.985575 63.6775187 17.6605436 62.3558889 17.2194353 61.2531115 17.2194353 58.8304074 16.1153847 58.1695926 15.4532956 57.5087777 15.2323149 56.4068518 14.1282643 55.7451854 10.5968381 55.7451854 8.82984522 55.5254815 8.3887369 55.5254815 7.94677537 55.304926 7.06370553 53.9824446 6.62259721 53.1010743 5.73952737 52.4402594 4.414496 52.2197039 3.75240692 51.7794445 2.64920953 51.3383336 1.98626724 51.558889 1.76528648 51.3383336 1.54515892 49.7961483 1.32417816 49.1353334 1.32417816 48.9147779 1.76528648 47.8128521 3.09031784 46.9323333 3.09031784 42.5254815 2.64920953 41.2038517 1.76528648 40.3216298 1.76528648 39 1.54515892 37.8980742 1.32417816 37.0175554 1.54515892 35.9156295 2.42822876 35.0342591 2.42822876 34.1528888 1.98626724 32.8295559 2.42822876 31.5087777 2.64920953 29.9657409 2.64920953 28.6432595 2.207248 27.7618892 1.98626724 27.1010743 2.64920953 26.8805188 2.64920953 25.7794445 3.09031784 24.6775187 3.09031784 23.1353334 2.64920953 22.0334076 2.64920953 19.1695926 2.42822876 18.2882222 1.76528648 17.1862963 1.32417816 16.0852221 0.883069842 15.2038517 0.441108317 14.1027774 0 13.2205555 0.441108317 12.1177781 1.1031974 11.2364077 1.54515892 9.9156295 2.64920953 9.4753701 2.64920953 6.38929648 3.31129861 5.72848159 4.19436845 5.72848159 5.51854661 6.16874099 6.62259721 6.82955588 7.50566706 7.71177781 8.3887369 8.15203721 9.4927875 8.37259269 10.3758573 9.03340757 10.3758573 10.1353334 11.0379464 11.0167038 12.1411438 11.6775187 15.2323149 11.6775187 15.2323149 10.3558889 14.7903534 9.25311149 14.5702258 8.37259269 15.0113341 7.27066684 16.1153847 7.49122232 17.2194353 6.82955588 17.4395629 5.94903708 18.101652 5.06766671 19.4266833 5.28737063 20.5315871 4.18629634 21.414657 3.96659243 22.5187076 3.96659243 23.1816499 4.84711123 23.4017774 6.16874099 24.2848473 5.50792611 24.9469364 4.62655574 25.6090254 3.96659243 26.713076 3.30492598 27.5952927 3.52548146 28.6993433 3.74603694 30.0243746 3.74603694 30.9074445 3.08522206 30.2453554 1.98244465 30.0243746 1.54218525"></polyline>
    </g>
</svg>