<?xml version="1.0" encoding="UTF-8"?>
<svg width="93px" height="78px" viewBox="0 0 93 78" version="1.1" xmlns="http://www.w3.org/2000/svg" xmlns:xlink="http://www.w3.org/1999/xlink">
    <!-- Generator: Sketch 50.2 (55047) - http://www.bohemiancoding.com/sketch -->
    <title>Jhansi</title>
    <desc>Created with Sketch.</desc>
    <defs></defs>
    <g id="Page-1" stroke="none" stroke-width="1" fill="none" fill-rule="evenodd">
        <polyline id="Jhansi" fill="#F4DDB5" fill-rule="nonzero" points="56.8375135 0 57.2819789 0.221805007 57.9478189 1.10816864 58.3914263 1.99538867 59.5017317 1.99538867 60.1675718 2.65909091 60.6120372 2.65909091 61.7214845 2.4372859 62.6095573 1.99538867 63.2762554 1.77272727 63.9420954 2.2154809 64.3857028 3.10270092 65.0515428 3.54545455 65.9404736 3.76725955 66.1618483 4.6527668 65.4960082 5.09637681 64.6079355 5.53913043 63.9420954 5.76179183 63.2762554 6.20368906 63.4984881 7.31185771 63.9420954 7.75632411 64.6079355 8.19822134 65.2737755 8.42002635 66.384081 8.19822134 67.049921 7.75632411 67.049921 6.86824769 67.7174771 6.42463768 68.6046918 6.42463768 69.0491572 7.0900527 68.8269245 7.97641634 68.6046918 9.08458498 69.4927646 9.08458498 70.3808373 9.30638999 70.60307 9.97094862 70.3808373 10.6346509 70.3808373 11.3009223 70.1594627 12.1881423 70.1594627 12.8509881 70.8253027 13.0753623 71.7133754 13.2954545 72.3792155 13.2954545 73.0459136 13.5172596 73.7117536 13.5172596 74.155361 13.2954545 74.5989683 13.9591568 75.0434337 14.4036232 76.1537391 14.4036232 77.0418119 13.9591568 77.7076519 13.5172596 79.2615647 13.5172596 80.1496375 13.9591568 80.8154775 13.9591568 81.7035502 14.4036232 82.8138557 14.6245718 82.8138557 13.9591568 83.7019284 13.2954545 84.8122339 13.0753623 85.4780739 13.5172596 85.7003066 14.1826746 85.7003066 14.8455204 85.4780739 15.7327404 85.9216813 16.3972991 86.5875213 16.6191041 87.6986848 16.6191041 88.1431502 16.1754941 88.5876156 15.5109354 89.2534556 15.0690382 89.9192957 14.8455204 90.3637611 15.2899868 90.3637611 15.9545455 91.6954411 16.6191041 91.9168158 16.8417655 91.9168158 19.278195 92.3612812 19.7226614 92.5835139 20.3863636 92.5835139 21.0509223 92.1390485 21.7154809 91.2509758 22.3808959 90.8073684 23.4890646 90.5851357 24.1536232 90.5851357 24.8173254 91.0296011 25.7036891 91.0296011 26.5891963 91.6954411 27.0345191 91.9168158 27.4772727 92.1390485 28.140975 91.2509758 28.5837286 90.5851357 28.80639 90.1415284 29.2491436 90.3637611 29.9137022 90.5851357 30.5782609 90.3637611 31.9082345 90.3637611 32.5736495 90.8073684 33.2382082 91.6954411 33.4608696 92.5835139 33.9019104 92.5835139 34.7891304 92.1390485 35.6754941 92.3612812 36.7836627 92.3612812 37.6700264 92.1390485 38.334585 91.6954411 39.4427536 91.6954411 40.1073123 91.0296011 40.5500659 90.8073684 41.2154809 90.3637611 41.8808959 90.3637611 42.9882082 89.9192957 43.6536232 89.697063 44.0955204 88.8089902 44.7600791 88.3645248 45.4263505 88.3645248 46.3118577 88.5876156 46.9764163 88.3645248 48.0837286 87.9209175 48.5273386 87.0319867 48.9709486 86.3661467 49.1927536 85.9216813 49.8555995 85.9216813 50.7428195 85.7003066 51.4073781 85.2558412 51.8501318 84.8122339 52.5155468 84.5900012 53.1801054 84.1455358 53.8472332 84.1455358 54.0673254 83.7019284 54.5109354 83.7019284 55.1754941 83.9241611 56.0610013 84.3677685 56.9482213 83.7019284 57.16917 83.0360884 58.0555336 82.8138557 59.1637022 82.8138557 60.0500659 82.3702483 61.3783267 82.1480156 62.7091568 82.8138557 63.8173254 82.8138557 65.5883399 83.0360884 66.4755599 83.7019284 67.3619236 83.7019284 68.0264822 84.3677685 69.1346509 84.8122339 70.0210145 85.4780739 70.9065217 85.9216813 71.7937418 86.5875213 72.6801054 86.809754 73.566469 86.809754 74.6746377 86.3661467 75.5618577 85.4780739 75.7828063 84.3677685 75.5618577 83.4796957 74.8972991 82.3702483 74.0075099 81.2599429 74.6746377 81.9257829 75.3400527 82.591623 76.2255599 83.0360884 77.11278 80.3718702 77.11278 78.8179574 77.3337286 77.9298846 77.5555336 77.2631865 77.11278 76.8195792 76.0054677 76.3751138 75.1182477 75.7092738 74.0075099 74.5989683 75.1182477 74.821201 76.2255599 74.5989683 77.3337286 73.7117536 78 72.8236809 77.778195 71.7133754 78 70.60307 77.778195 69.7149973 76.0054677 70.3808373 75.1182477 71.0475354 74.0075099 71.0475354 73.1237154 70.3808373 72.4583004 69.0491572 72.2382082 68.6046918 71.1291831 67.7174771 70.9065217 66.6063136 71.3509881 66.6063136 73.566469 64.8301682 74.0075099 64.8301682 75.1182477 63.9420954 75.5618577 63.0540227 74.8972991 63.0540227 73.566469 63.7198627 72.6801054 64.1643281 70.9065217 63.9420954 69.7974967 64.1643281 68.9137022 65.2737755 68.2482872 66.1618483 68.0264822 66.1618483 67.1401186 65.2737755 66.697365 64.1643281 66.4755599 63.0540227 66.0328063 62.1659499 65.3682477 61.5001099 64.4810277 61.2778772 63.594664 60.3898045 63.1527668 59.279499 63.3737154 58.613659 64.0399868 58.1700516 65.1464427 58.613659 66.0328063 60.3898045 66.91917 61.2778772 67.80639 61.2778772 69.1346509 60.8334118 70.0210145 59.5017317 70.0210145 58.613659 69.5791173 57.7255862 68.9137022 56.8375135 68.6918972 54.6177607 68.6918972 53.9510626 69.3564559 52.8416152 69.5791173 52.6193825 70.6855731 52.3971498 71.7937418 51.7313097 72.9019104 50.3987716 73.3455204 49.2893242 72.9019104 48.6226261 72.2382082 48.4012515 71.1291831 49.0670915 70.0210145 49.7329316 69.3564559 50.6210043 68.6918972 49.9551643 67.584585 49.2893242 66.91917 49.7329316 65.8118577 50.3987716 64.9254941 51.2877024 64.2600791 52.1757751 63.8173254 53.2852225 63.8173254 54.1732953 64.4810277 55.061368 64.7036891 55.9494407 64.0399868 56.1716734 62.9309618 56.1716734 60.9364295 56.3930481 59.8282609 56.8375135 58.5 57.2819789 57.390975 56.8375135 56.5054677 55.9494407 56.2828063 55.061368 56.7272727 54.395528 57.6136364 53.7296879 58.2773386 52.8416152 57.834585 51.9535424 57.6136364 50.843237 57.6136364 49.5115569 58.5 48.6226261 60.2718709 48.8457169 61.3783267 49.0670915 62.4864954 48.4012515 63.594664 47.290946 64.2600791 47.290946 65.3682477 46.625106 66.0328063 45.7361752 65.8118577 44.8481025 64.9254941 44.6258698 64.0399868 44.8481025 62.7091568 45.5139425 62.0445982 46.4028733 61.6009881 46.1797826 60.7146245 45.2917098 60.7146245 44.4036371 61.1590909 43.5155643 61.8227931 42.6274916 61.1590909 42.8497243 60.2718709 43.2933316 59.3863636 45.5139425 58.5 46.4028733 58.2773386 47.290946 57.6136364 47.7354114 56.7272727 47.9567861 55.8400527 47.9567861 54.7327404 48.6226261 53.8472332 49.2893242 53.1801054 49.9551643 52.2937418 51.2877024 51.8501318 54.395528 51.8501318 54.8391353 52.7373518 53.7296879 53.1801054 52.1757751 53.6237154 51.2877024 54.5109354 51.9535424 55.1754941 53.0629898 55.1754941 53.7296879 54.2891304 54.6177607 54.0673254 55.7272081 53.8472332 57.5033535 53.4027668 57.7255862 53.4027668 57.5033535 52.2937418 57.2819789 51.4073781 57.5033535 50.3000659 57.0597462 49.1927536 55.9494407 48.7474308 55.061368 48.9709486 53.9510626 49.1927536 53.2852225 48.30639 53.2852225 47.197365 54.1732953 46.5336627 54.6177607 44.9818841 54.395528 43.8737154 55.5058334 43.4301054 55.7272081 42.5445982 55.061368 41.8808959 54.1732953 41.2154809 53.9510626 40.3282609 55.061368 39.6645586 55.5058334 38.55639 55.061368 37.6700264 54.1732953 37.2281291 53.0629898 37.2281291 51.9535424 37.6700264 51.9535424 37.8918314 50.3987716 37.8918314 49.9551643 38.7773386 49.9551643 39.6645586 49.5115569 40.5500659 48.4012515 40.7718709 47.5131787 40.7718709 46.625106 41.4355731 46.8473387 42.3210804 47.7354114 43.2091568 47.7354114 44.3173254 47.9567861 45.4263505 48.1790188 46.3118577 48.1790188 47.6401186 47.290946 48.30639 46.1797826 48.0837286 45.9575499 46.9764163 45.5139425 46.0900527 44.6258698 45.8682477 43.9600297 45.2036891 43.2933316 44.0955204 42.4061169 44.3173254 41.2958115 44.5399868 39.519666 43.6536232 38.4093606 43.6536232 37.5212878 43.8737154 36.8554478 44.7600791 37.5212878 45.6455863 38.4093606 46.0900527 38.6315933 47.4200264 41.7402769 47.4200264 43.071957 47.6401186 43.737797 48.5273386 43.2933316 49.4137022 42.4061169 49.6363636 41.0735788 49.8555995 38.853826 50.7428195 38.6315933 51.6291831 39.7418987 52.0736495 39.7418987 52.9591568 38.853826 53.8472332 39.7418987 54.2891304 40.8513461 54.5109354 41.0735788 55.3972991 40.6299714 56.5054677 39.7418987 56.9482213 38.6315933 56.9482213 37.5212878 56.2828063 36.1896077 56.2828063 35.5237677 55.6199605 35.301535 54.7327404 34.4134623 54.2891304 33.0817822 54.2891304 30.8611713 53.8472332 30.8611713 50.5210145 31.749244 50.3000659 32.6373168 50.9654809 33.5253895 51.1864295 33.9689969 50.3000659 33.3031568 49.4137022 33.0817822 48.30639 31.9714767 48.30639 31.083404 48.0837286 30.6389386 47.4200264 29.5294912 47.197365 29.0850258 48.0837286 28.4191858 48.9709486 26.4208076 48.9709486 25.3096441 49.8555995 24.4215714 50.5210145 23.7557313 51.4073781 22.2018185 51.6291831 21.9795858 52.0736495 22.4240512 53.1801054 23.5343567 54.0673254 24.2001967 54.7327404 23.5343567 56.2828063 22.4240512 56.5054677 21.5359785 56.2828063 20.8701384 55.6199605 19.759833 55.3972991 20.2034404 56.5054677 20.6479057 57.390975 20.6479057 58.5 19.9820657 59.1637022 18.8717603 59.3863636 17.9836875 59.3863636 17.0956148 58.5 14.8758619 58.0555336 14.4313966 58.9427536 13.5433238 59.3863636 12.4330184 59.6073123 11.1013383 60.2718709 10.8791056 61.1590909 11.7671783 61.8227931 12.8774838 61.8227931 13.9877892 61.3783267 14.8758619 60.9364295 15.7630766 60.7146245 16.8733821 60.9364295 17.3178475 61.8227931 18.4272949 62.0445982 19.3153676 62.0445982 20.4256731 62.4864954 21.0915131 63.594664 22.2018185 63.8173254 23.312124 64.2600791 23.312124 65.5883399 23.0898913 66.91917 22.8676586 67.80639 23.0898913 68.6918972 21.5359785 68.9137022 18.8717603 70.2428195 17.7614548 70.6855731 17.0956148 71.3509881 16.4297747 72.4583004 15.3194693 73.3455204 14.4313966 73.788274 13.7655565 74.8972991 12.8774838 75.3400527 11.5458037 75.1182477 10.6568729 74.6746377 10.4354982 74.4528327 10.6568729 73.566469 10.4354982 72.6801054 11.5458037 72.4583004 11.1013383 71.1291831 10.6568729 70.2428195 9.5474255 70.2428195 8.65935276 70.0210145 7.77128002 69.3564559 7.10458193 68.4700922 7.77128002 67.80639 7.54904732 66.697365 6.66097458 66.4755599 5.5498111 66.0328063 5.32757841 64.9254941 4.88397106 63.8173254 3.99589832 62.9309618 3.55143292 62.0445982 3.77452366 60.9364295 3.10782557 60.0500659 2.44198553 59.3863636 1.55391279 59.3863636 1.1094474 58.0555336 1.77614548 57.16917 2.44198553 56.5054677 2.21975283 55.6199605 1.99752014 54.5109354 0.888072741 54.0673254 0.221374654 53.1801054 0 51.8501318 1.1094474 51.4073781 1.99752014 51.4073781 3.10782557 50.7428195 2.66336018 48.5273386 3.10782557 47.4200264 3.77452366 46.3118577 4.66173836 45.6455863 5.7720438 45.4263505 6.21736723 46.7546113 6.88320728 47.6401186 7.77128002 48.0837286 7.77128002 44.9818841 8.43712006 44.0955204 9.32519281 43.6536232 9.99103285 42.9882082 10.2132655 41.8808959 10.2132655 40.7718709 10.6568729 38.55639 10.6568729 36.1182477 11.7671783 35.4554018 12.4330184 36.1182477 13.5433238 36.5618577 14.4313966 36.3417655 15.541702 35.2327404 16.4297747 35.0100791 17.7614548 34.7891304 18.8717603 35.4554018 19.759833 35.8972991 20.6479057 36.1182477 22.8676586 36.1182477 23.7557313 36.5618577 24.8660368 36.5618577 25.5318768 35.8972991 26.4208076 34.7891304 27.0875057 34.1245718 28.1969531 34.5673254 28.6405604 35.6754941 29.5294912 36.3417655 30.6389386 36.1182477 31.5270113 35.6754941 32.6373168 34.3472332 33.7476222 34.1245718 35.5237677 32.7945982 36.1896077 32.1291831 37.0776805 32.5736495 38.1879859 33.0155468 39.0752006 32.7945982 39.519666 31.6872859 40.4077388 31.2436759 41.7402769 31.4646245 42.6274916 31.6872859 43.737797 31.4646245 44.6258698 31.0218709 45.0703352 29.9137022 45.0703352 27.0345191 44.8481025 26.1472991 44.1822624 25.2617918 43.5155643 24.5955204 42.6274916 23.9309618 42.1838842 23.2664032 41.2958115 22.3808959 40.8513461 21.4945323 39.519666 19.7226614 38.853826 19.05639 39.2974333 17.9499341 40.1855061 17.5054677 41.2958115 17.5054677 43.071957 16.6191041 43.737797 15.5109354 45.0703352 15.0690382 45.2917098 13.7399209 45.0703352 12.6308959 45.2917098 11.7436759 46.4028733 11.9654809 47.0687133 12.8509881 48.6226261 14.4036232 49.0670915 15.2899868 49.9551643 15.5109354 49.9551643 14.4036232 49.5115569 12.6308959 49.0670915 11.7436759 48.4012515 11.0791173 48.4012515 8.86277997 48.8457169 8.19822134 50.6210043 7.31185771 51.0654697 6.42463768 50.843237 5.31732543 51.509077 4.43181818 52.3971498 3.98906456 52.8416152 3.10270092 53.9510626 2.65909091 54.6177607 1.77272727 55.2836007 1.10816864 56.3930481 0.886363636 57.2819789 0.443610013 56.8375135 0"></polyline>
    </g>
</svg>