<?xml version="1.0" encoding="UTF-8"?>
<svg width="112px" height="78px" viewBox="0 0 112 78" version="1.1" xmlns="http://www.w3.org/2000/svg" xmlns:xlink="http://www.w3.org/1999/xlink">
    <!-- Generator: Sketch 50.2 (55047) - http://www.bohemiancoding.com/sketch -->
    <title>Kannauj</title>
    <desc>Created with Sketch.</desc>
    <defs></defs>
    <g id="Page-1" stroke="none" stroke-width="1" fill="none" fill-rule="evenodd">
        <polyline id="Kannauj" fill="#F4DDB5" fill-rule="nonzero" points="61.3763403 1.32162977 62.7005184 0.8805188 64.9086196 1.76274073 66.2327978 2.64325953 68.8811541 3.0843705 70.6490002 4.40600026 71.5312169 6.16874099 73.2973565 8.81200052 74.1812796 9.25311149 75.0634962 9.25311149 78.5957756 9.69422246 85.6620408 9.69422246 87.870142 11.0158522 88.3103971 13.2197039 89.6362816 14.5430368 91.8426764 15.8629634 91.8426764 20.7100747 92.7265995 22.9122232 95.3766622 25.558889 98.4669801 27.7627407 101.115336 28.2038517 103.323438 27.3233329 104.647616 28.6449627 105.9735 30.4077034 107.295972 32.609852 107.737934 34.8154068 107.737934 37.4552601 109.504073 40.9824446 111.712174 46.2706668 110.387996 45.831259 109.062112 45.831259 106.855717 45.390148 105.531539 45.831259 104.647616 46.7100747 104.647616 48.4745185 104.205654 50.2372593 103.765399 51.5605922 101.559004 51.1177781 100.673375 49.7961483 100.231413 48.4745185 98.4669801 48.0334076 98.0250185 49.7961483 98.4669801 51.5605922 98.9072352 53.7627407 98.9072352 55.0843705 98.4669801 56.4060003 98.0250185 58.168741 97.1410955 59.4903708 96.699134 60.8120005 98.4669801 61.2531115 99.7928646 61.2531115 99.7928646 62.5764444 98.4669801 63.896371 96.699134 65.2197039 92.7265995 65.662518 91.4024213 65.2197039 90.5184983 65.2197039 89.1943201 64.778593 87.870142 66.9841478 86.9862189 68.7434822 86.9862189 69.1862963 85.6620408 69.6274073 83.8959011 69.6274073 83.8959011 72.7134809 83.4539395 74.0334076 83.0102716 75.7961483 81.6877999 76.6783702 80.3619153 77.1194812 76.3876744 75.7961483 75.0634962 74.9156295 73.7393181 74.4762217 72.4134335 74.9156295 71.0892553 75.7961483 70.2070387 76.6783702 69.3231156 78 66.2327978 78 66.6747593 77.1194812 66.2327978 74.9156295 65.3505812 73.1511856 63.14248 71.8295559 62.7005184 70.0668151 61.3763403 68.3057775 60.4924172 66.9841478 58.727984 65.662518 56.5198827 64.3408882 55.6359597 62.1353334 53.86982 61.2531115 52.5456419 59.9297786 51.2214637 58.168741 49.0133625 57.2865191 46.3650062 59.0492598 44.156905 59.4903708 41.9470973 60.8120005 40.1809576 61.2531115 37.9745628 61.6942225 35.7664616 62.5764444 34.000322 62.1353334 32.6761438 60.3708896 31.3519656 59.0492598 26.9357632 59.0492598 25.1696235 57.72763 22.9615223 56.8471112 20.313166 56.4060003 20.313166 55.9648893 19.8712045 54.6415564 19.4292429 52.8805188 18.5470263 50.6766671 16.7808866 49.3550373 15.4567085 50.6766671 13.2486073 51.5605922 11.4824676 51.1177781 9.27436636 50.2372593 7.50822668 51.1177781 5.30012547 51.1177781 2.65176915 51.9982969 1.32759099 50.6766671 0 46.2706668 1.76613968 45.390148 3.53398578 46.2706668 6.18404852 44.9490371 7.50822668 43.1879995 7.50822668 38.7802961 9.27436636 37.4552601 10.1582894 35.6959256 11.9244291 34.8154068 11.9244291 32.609852 11.4824676 29.5254815 10.5985445 27.7627407 12.3646842 26 15.0147469 22.4762217 15.0147469 20.7100747 13.2486073 19.8295559 11.040506 20.27237 11.4824676 18.5079261 13.2486073 16.7451854 11.9244291 15.4235556 11.040506 13.2197039 10.5985445 11.4569632 11.040506 9.69422246 11.9244291 7.49037076 12.8066457 5.72763003 13.2486073 4.40600026 15.0147469 3.52718459 16.3389251 1.76274073 18.1050648 0.441110966 20.313166 0 21.1953826 2.64325953 23.4034838 3.52718459 25.1696235 3.0843705 26.9357632 2.20214857 28.7019029 1.76274073 30.9100041 1.32162977 32.6761438 3.0843705 35.3245001 5.28822219 37.0906398 6.16874099 37.9745628 9.25311149 40.1809576 10.1353334 41.9470973 8.81200052 43.7149434 7.05096292 46.3650062 7.05096292 49.0133625 6.16874099 49.8972855 8.37259269 51.6617188 9.25311149 52.985897 7.93148172 54.3117815 9.69422246 56.9601379 8.37259269 59.1682391 5.72763003 59.6102006 3.52718459 60.9343787 1.76274073 61.3763403 1.32162977"></polyline>
    </g>
</svg>