<?xml version="1.0" encoding="UTF-8"?>
<svg width="105px" height="78px" viewBox="0 0 105 78" version="1.1" xmlns="http://www.w3.org/2000/svg" xmlns:xlink="http://www.w3.org/1999/xlink">
    <!-- Generator: Sketch 50.2 (55047) - http://www.bohemiancoding.com/sketch -->
    <title>Kasganj</title>
    <desc>Created with Sketch.</desc>
    <defs></defs>
    <g id="Page-1" stroke="none" stroke-width="1" fill="none" fill-rule="evenodd">
        <polyline id="Kasganj" fill="#F4DDB5" fill-rule="nonzero" points="17.7058471 0.769233698 18.0912055 0.769233698 20.7857391 0 23.8656312 1.15236554 24.6348603 2.68934793 26.5601648 3.45858163 29.2546984 4.22781533 31.1800029 5.38018087 31.9507198 7.3002951 33.8745364 9.22189434 35.4159703 11.1434936 37.3412749 11.5266254 39.65045 11.1434936 40.4211669 13.0636078 40.8065254 14.983722 42.730342 15.3698239 43.8849296 13.8313565 46.1955926 13.4482247 46.580951 13.4482247 48.1208971 14.2159733 49.6608431 14.2159733 50.8154307 16.5221894 53.1246058 18.4423037 54.6645518 17.674555 56.5898563 16.9068063 59.2843899 18.4423037 60.8243359 20.7500048 62.7496404 21.9023703 62.7496404 24.9763351 65.0588155 27.2810662 66.98412 28.0502999 69.294783 28.8180485 71.2200875 27.667168 71.9908045 26.1287006 73.5307505 24.5932032 75.8399256 24.2071014 76.9960011 26.1287006 77.3798717 27.667168 77.7652301 29.9704141 79.3051762 31.1227796 83.1542973 31.1227796 84.6942433 30.3550309 87.0049063 29.9704141 87.3902648 32.2766302 88.1594939 33.8136126 90.0847984 33.8136126 92.008615 33.4289957 93.1646904 31.8920133 95.0885071 31.8920133 94.7046365 33.8136126 97.0138116 35.350595 98.9391161 35.7352118 100.479062 37.655326 99.7083452 39.1923084 99.3229867 41.1139077 100.864421 41.8831414 103.173596 43.4186387 104.328183 44.9556211 104.71503 46.4926035 103.558954 48.4142028 103.173596 48.7988196 101.63365 49.9511851 100.864421 51.4866825 98.5537576 51.8712994 96.2445825 53.7928986 95.4738656 54.9482342 95.0885071 56.8683484 97.3991701 56.8683484 97.7845285 58.7899476 97.7845285 61.4792956 98.1683991 63.4008948 99.7083452 64.5547454 102.404367 64.1686435 104.328183 66.4733746 104.328183 68.010357 104.71503 69.1642075 103.942825 70.6997049 103.558954 71.8520704 103.173596 73.7736697 101.63365 74.5429034 100.093704 73.3905378 98.1683991 74.1597715 97.0138116 74.9260352 94.7046365 76.0798858 93.5485611 76.4630176 92.008615 77.6153832 90.8540275 78 89.3140814 74.5429034 88.5448524 73.7736697 87.3902648 73.005921 85.8503188 72.2366873 84.3088849 71.8520704 82.3850682 70.6997049 80.4597637 68.7795907 79.6905346 67.6257401 78.5344592 65.321009 78.5344592 64.1686435 78.1505886 61.8624274 75.0706966 61.0946787 73.5307505 60.325445 72.7600336 60.7100619 72.376163 63.016278 72.376163 71.4689386 71.9908045 73.7736697 71.9908045 74.9260352 70.8347291 75.3106521 69.6801415 74.5429034 68.1387076 74.1597715 67.3694785 76.0798858 65.8295325 76.4630176 64.2895865 76.0798858 63.5188695 74.9260352 61.9804114 74.9260352 61.593565 73.7736697 60.8243359 72.6213041 59.6697484 71.0843218 58.1298023 69.9319562 56.5898563 69.9319562 55.0499103 70.3165731 48.8901262 70.3165731 46.9648216 69.5473394 43.8849296 68.010357 41.5757545 66.0917277 39.65045 64.5547454 38.4958624 62.6316611 37.3412749 61.4792956 36.1851994 59.9423132 35.0306119 58.0207139 34.2598949 57.2529653 31.9507198 53.4097668 30.7946444 51.8712994 29.6400568 51.1035507 27.3293938 50.7189338 25.4055772 50.334317 23.8656312 49.9511851 22.3256851 48.7988196 21.1710976 47.2603522 18.8604346 44.9556211 16.5512595 43.4186387 15.0113135 42.6508901 13.4713674 42.2662732 11.9314214 41.4970395 10.7768338 41.1139077 10.0061169 40.344674 8.85152934 40.344674 6.54235423 41.1139077 6.15699575 42.6508901 6.15699575 44.5710043 5.3862788 45.7248548 5.00092033 45.7248548 4.23169125 45.340238 1.92102827 44.5710043 0.382570105 43.0355069 -0.00278837078 40.7292908 0.76644071 38.8076916 2.30638674 38.4245597 2.69174522 38.0399429 5.00092033 38.0399429 6.54235423 37.2721942 6.92622483 35.350595 6.54235423 33.0443789 5.77163728 31.1227796 6.15699575 29.2026654 7.69694178 28.0502999 7.69694178 26.1287006 8.46617087 24.2071014 10.0061169 22.2869871 11.9314214 21.9023703 13.4713674 20.7500048 13.8567259 18.4423037 14.625955 16.9068063 15.3951841 14.983722 15.0113135 13.0636078 15.0113135 10.7588767 15.7805425 8.83727749 17.7058471 8.83727749 19.2457931 7.3002951 19.2457931 4.99556402 18.4750761 3.07396478 18.0912055 1.53698239 17.7058471 0.769233698"></polyline>
    </g>
</svg>