<?xml version="1.0" encoding="UTF-8"?>
<svg width="73px" height="78px" viewBox="0 0 73 78" version="1.1" xmlns="http://www.w3.org/2000/svg" xmlns:xlink="http://www.w3.org/1999/xlink">
    <!-- Generator: Sketch 50.2 (55047) - http://www.bohemiancoding.com/sketch -->
    <title>Kaushambi</title>
    <desc>Created with Sketch.</desc>
    <defs></defs>
    <g id="Page-1" stroke="none" stroke-width="1" fill="none" fill-rule="evenodd">
        <polyline id="Kaushambi" fill="#F4DDB5" fill-rule="nonzero" points="21.1599083 0.342266928 21.8404863 0.342266928 22.8653101 0 23.5472071 1.02285155 23.888815 2.0457031 23.888815 3.74782286 24.229104 5.1089921 25.9358248 5.44994262 27.3009376 7.49432931 28.6660504 6.81242827 30.0311633 6.47147776 31.0559871 6.81242827 31.3962761 7.832647 32.079492 9.19644907 32.079492 10.2193006 33.1029969 11.5804699 32.419781 12.9429555 31.0559871 13.2852224 29.3505853 13.9658071 28.3244425 15.6679268 29.6895553 17.0317289 31.0559871 19.0761156 31.3962761 20.0976507 32.079492 20.7769189 33.7848938 21.4601364 34.1278207 22.140721 34.8083987 24.1837913 35.1500066 25.2066428 35.8358604 26.2294944 36.8580464 26.5691285 37.8815512 27.2497131 42.3198166 27.2497131 44.3655074 27.9316141 45.7319392 27.59198 46.7554441 27.2497131 47.097052 28.9531493 47.43866 30.3169513 47.778949 30.655269 49.1440618 32.0177547 50.1675667 33.3802403 51.1910716 34.0621414 53.5810082 34.0621414 54.9448021 33.0406062 54.9448021 32.6996557 55.9696259 32.6996557 57.3334198 33.3802403 58.6998516 34.7440424 60.4065724 38.1482819 61.7716852 39.512084 62.1119742 40.1926686 63.1354791 40.5336191 64.5005919 41.8947884 65.1851268 42.9189563 65.1851268 45.6426112 64.5005919 47.3486802 64.158984 48.3675825 64.158984 50.4119692 65.5254157 51.4348208 66.2073127 52.79599 67.2321365 53.8188416 67.9153524 54.8390603 69.6207542 57.5640316 70.3039701 58.9278337 70.9858671 59.9506852 70.9858671 60.9709039 72.0106909 61.652805 72.3522988 63.0139742 71.327475 63.6958752 70.6455781 63.6958752 69.2804652 65.0583609 67.5737445 65.397995 66.5515585 65.397995 65.5254157 65.7402619 64.158984 65.7402619 63.1354791 65.0583609 61.4287583 65.397995 60.4065724 66.4208466 59.3817485 67.7806994 58.6998516 68.8035509 55.9696259 70.1686694 54.9448021 70.5069871 54.2629052 71.8694728 53.2394003 72.2104233 52.2158954 72.8936407 51.5326795 74.2521771 50.5104936 75.2763451 50.1675667 74.5944441 47.778949 74.5944441 46.7554441 75.2763451 45.7319392 76.2978802 45.0487233 76.2978802 43.6836105 76.9797813 40.9533848 76.9797813 39.588272 77.6590495 38.5647671 78 37.1996543 76.9797813 32.419781 76.9797813 31.0559871 75.9556133 30.7143792 74.5944441 32.079492 71.8694728 31.737884 70.5069871 31.3962761 69.4841356 30.3727712 68.4652332 29.0076584 67.7806994 27.6438645 67.4423817 25.5955358 66.0785796 24.5720309 65.7402619 23.888815 64.7174104 22.5237022 64.3777763 20.8169814 64.7174104 19.4531875 65.0583609 18.0880747 67.1027476 17.0632509 67.7806994 15.3565301 69.4841356 12.9692313 69.4841356 11.2611916 67.7806994 10.2376867 66.0785796 8.87257391 65.397995 7.84906902 65.397995 6.82556414 64.7174104 5.45913236 62.6730237 4.43430853 61.9924391 1.36247493 61.9924391 0.340288995 60.6299534 0 59.6071019 0 57.5640316 0.68057799 56.54118 1.36247493 54.8390603 2.38729876 53.8188416 3.75241159 53.1369405 4.43430853 52.1154054 4.77723542 52.79599 5.80074031 53.4765746 6.82556414 54.5007426 8.19199592 53.8188416 8.87257391 51.0938702 9.55447085 49.7313846 9.89739774 48.3675825 10.9209026 48.0279484 12.2846965 47.0037805 13.9914173 45.6426112 13.6498093 44.281442 12.9692313 43.2585904 12.9692313 42.2357389 13.3108393 41.2142037 13.3108393 40.5336191 12.9692313 39.512084 12.9692313 38.1482819 12.2846965 37.1267468 11.9444075 36.106528 10.9209026 35.0836765 9.21418185 34.0621414 8.87257391 32.6996557 8.19199592 30.655269 8.19199592 28.9531493 8.53096596 27.9316141 7.84906902 25.8885438 8.53096596 24.5260582 9.55447085 23.1648889 9.55447085 22.140721 9.21418185 21.1191859 7.84906902 20.4386012 7.16717208 19.7567002 5.45913236 19.0761156 4.77723542 17.7136299 4.77723542 16.3511443 6.48527515 16.0101937 8.87257391 16.0101937 9.89739774 14.6477081 10.2376867 13.6235401 10.9209026 12.2623709 11.6041185 11.5804699 12.6263044 10.8998852 13.9914173 10.5602511 16.3826729 10.5602511 17.0632509 9.53608317 17.4048588 8.17491393 18.0880747 6.13184365 18.7686527 4.42709107 19.4531875 2.38402079 19.7947955 1.02285155 20.8169814 0.342266928 21.1599083 0.342266928"></polyline>
    </g>
</svg>