<?xml version="1.0" encoding="UTF-8"?>
<svg width="95px" height="87px" viewBox="0 0 95 87" version="1.1" xmlns="http://www.w3.org/2000/svg" xmlns:xlink="http://www.w3.org/1999/xlink">
    <!-- Generator: Sketch 50.2 (55047) - http://www.bohemiancoding.com/sketch -->
    <title>Kushinagar</title>
    <desc>Created with Sketch.</desc>
    <defs></defs>
    <g id="Page-1" stroke="none" stroke-width="1" fill="none" fill-rule="evenodd">
        <polyline id="Kushinagar" fill="#F4DDB5" fill-rule="nonzero" points="23.8017689 23.4575925 24.099564 21.9726297 24.9917998 21.3793331 26.1818308 21.3793331 26.479626 20.4888144 26.7751216 19.5971482 27.0752163 18.4094075 27.3718617 17.8161109 27.6696569 16.9255923 28.5630425 16.033926 28.8585381 15.1434074 28.8585381 14.2528887 27.6696569 13.6595921 26.7751216 14.5501108 26.1818308 14.8473329 24.9917998 14.8473329 24.099564 14.2528887 24.3973592 13.3623701 24.3973592 12.4718514 25.2884452 11.5813328 26.479626 11.2841107 26.7751216 10.393592 27.3718617 9.79914789 28.5630425 9.50192582 29.4541284 8.01581544 29.4541284 6.83036986 28.2640975 5.64262914 28.8585381 4.45488841 30.3463642 4.75096291 29.7507738 2.96877803 30.0508686 1.7810373 30.6441594 0.890518651 32.1319855 0.593296576 35.7032282 0.593296576 37.1899045 0 37.4876997 0 37.7854949 0.2960745 38.9755259 0.890518651 39.8689114 1.48381523 42.2478235 2.67155595 43.1400593 3.85929668 43.7344999 6.23477814 44.3312401 7.12529679 44.6278854 8.61140717 44.3312401 9.79914789 44.3312401 10.9868886 44.0345947 12.4718514 43.1400593 13.3623701 42.8434139 14.5501108 42.2478235 15.7378515 41.9500284 16.9255923 41.3567376 18.4094075 41.0577926 19.5971482 42.2478235 20.7848889 43.4378545 21.082111 47.0090971 21.082111 48.4957735 20.7848889 49.6869542 20.4888144 49.6869542 21.6765552 50.280245 22.8631483 51.1736306 24.050889 51.7669214 24.9425553 54.1492829 26.130296 54.7425737 27.3180367 55.0403688 28.5046299 54.4447785 29.6923706 54.7425737 30.5851844 55.6359592 32.0678521 55.9326046 33.2567404 55.0403688 34.147259 54.4447785 35.3338522 54.4447785 38.0077033 55.3393138 38.8982219 56.2303998 40.0859626 56.528195 41.2737034 56.528195 42.4614441 57.7182259 43.6491848 58.6104617 43.9452593 60.0982878 43.9452593 61.2894686 43.6491848 62.7749952 43.6491848 63.6672309 44.5397035 65.1562068 44.8346304 66.3462378 45.1330001 66.0484426 46.6179629 65.4551518 47.8068512 65.1562068 49.2906664 65.1562068 50.4784071 66.3462378 50.7756292 66.942978 49.5878885 67.8340639 48.6973698 69.0240949 47.8068512 70.2152756 46.6179629 71.4041568 46.0258139 72.5953375 45.7274442 73.7853685 46.3207408 75.2720448 46.3207408 76.460926 46.6179629 77.0565164 48.1029257 77.3543116 49.2906664 77.3543116 50.4784071 78.2476971 51.3689258 78.5443425 52.852741 78.5443425 54.0416293 77.0565164 54.3388514 76.460926 55.5254445 77.0565164 56.7131852 76.460926 58.4953701 75.8664854 59.6831109 75.5686902 60.869704 75.5686902 62.0574447 77.0565164 62.9502585 78.2476971 63.2451855 79.4377281 63.2451855 80.6266092 62.6530365 81.518845 61.7602227 83.0066712 61.1669261 83.9000567 62.0574447 83.9000567 63.2451855 84.1967021 64.4340738 84.4933475 65.6218145 84.7911427 67.1079249 85.6833785 67.6989263 88.0645902 69.4822587 89.2534713 69.1850367 90.4446521 69.1850367 91.6335332 69.7794808 92.8235642 70.0778505 94.0158947 70.9672215 94.6103353 71.8565926 94.6103353 73.0454809 94.0158947 74.2332217 93.7192493 75.4209624 92.8235642 76.6075555 91.3368878 76.9047776 88.9568259 76.9047776 87.4689998 77.2019997 85.0900877 77.7952963 83.3044663 78.0925183 81.8166402 78.3897404 80.3288141 78.3897404 79.1387831 78.6858149 77.650957 79.2802591 76.1642806 78.983037 74.9742497 78.6858149 68.4296543 78.6858149 67.2384736 78.3897404 66.3462378 77.7952963 65.4551518 76.9047776 64.2628213 76.9047776 63.3717353 77.7952963 61.8827594 77.5003693 60.6927284 77.5003693 60.0982878 78.3897404 60.0982878 79.5774811 59.5026975 81.0612964 59.2049023 82.2490371 59.2049023 83.7351475 58.6104617 84.9228882 58.0148713 86.4055558 57.7182259 87 56.82714 86.1094813 55.9326046 85.5150372 53.5525427 84.328444 52.6614567 83.7351475 52.0658664 83.1407033 52.3636615 82.2490371 52.9581021 81.3585184 52.0658664 80.1696301 51.1736306 79.2802591 49.9835996 78.3897404 49.0902141 77.7952963 48.4957735 77.2019997 47.3045928 76.9047776 46.412357 76.3126286 44.9256806 75.7170369 44.3312401 75.4209624 44.0345947 74.2332217 43.4378545 73.3404079 42.2478235 72.7494064 42.2478235 70.6699995 41.653383 69.4822587 40.7611472 68.8889622 39.5699664 68.5917401 38.9755259 67.9972959 38.6777307 67.1079249 38.6777307 66.2151111 38.3799355 65.3234448 37.7854949 64.4340738 36.5943142 63.8396296 35.106488 62.9502585 34.2142523 63.2451855 34.5120474 64.1368517 33.9176069 64.1368517 33.3208667 64.4340738 31.537545 66.2151111 30.6441594 66.2151111 30.0508686 67.1079249 29.7507738 68.294518 29.1551835 69.7794808 28.5630425 70.6699995 28.2640975 71.5616657 26.7751216 71.8565926 25.8851854 71.8565926 24.099564 72.4510368 23.5028239 72.7494064 22.6117379 73.6387775 21.7183524 74.2332217 20.8261166 74.2332217 20.5294712 73.3404079 20.5294712 70.9672215 19.3382904 70.3727774 18.4472045 71.263296 17.8504643 72.1538147 16.0671426 73.0454809 15.4715522 73.9359996 15.1749068 74.8265182 14.5793164 76.014259 13.0926401 77.5003693 12.1992545 78.0925183 11.305869 78.3897404 9.22360223 78.3897404 9.22360223 77.7952963 8.92695684 76.3126286 8.92695684 75.4209624 8.62916165 73.9359996 8.62916165 71.263296 8.92695684 70.0778505 8.92695684 69.1850367 8.62916165 67.9972959 7.4391307 66.8095552 6.84239054 65.6218145 6.84239054 62.9502585 7.73577609 62.0574447 7.4391307 61.1669261 6.54574514 60.869704 5.35571419 60.2764074 5.35571419 59.3858888 5.057919 58.1981481 4.46462821 57.6037039 3.27344746 57.3064818 2.67785709 56.1198887 1.48782614 56.1198887 0.893385557 55.8226666 0.298944974 54.6349259 0 53.4460376 0.298944974 52.2594444 0.298944974 50.4784071 0 49.2906664 0.893385557 48.1029257 0.893385557 47.212407 0.298944974 46.0258139 0.595590371 45.1330001 1.19003095 42.7586662 2.67785709 42.4614441 3.86788805 42.7586662 4.76012381 41.5709254 5.95130456 41.5709254 6.84239054 42.7586662 7.4391307 44.2424814 8.03357128 44.5397035 9.22360223 43.6491848 10.1169878 42.7586662 10.7114284 41.8681475 11.305869 40.9776289 11.0092236 39.7887406 11.305869 38.6009998 12.4970497 38.3049253 14.2838208 39.4915185 14.8771116 39.7887406 15.1749068 38.8982219 15.4715522 37.7093336 16.363788 37.1171846 17.5549687 37.1171846 18.7449997 37.7093336 19.9338808 38.8982219 21.4228567 39.4915185 21.4228567 38.6009998 21.1239118 37.7093336 21.1239118 36.818815 21.4228567 36.2243708 22.3139427 35.3338522 22.6117379 34.147259 22.0172973 33.8500369 20.8261166 32.0678521 20.8261166 30.5851844 20.5294712 29.6923706 19.041645 28.5046299 19.3382904 27.6141112 20.8261166 27.9113333 21.7183524 28.5046299 22.6117379 28.8018519 23.8017689 28.5046299 24.099564 27.6141112 23.8017689 26.4263705 22.9106829 25.5369994 22.0172973 24.9425553 21.7183524 24.050889 22.6117379 23.4575925 23.8017689 23.4575925"></polyline>
    </g>
</svg>