<?xml version="1.0" encoding="UTF-8"?>
<svg width="64px" height="78px" viewBox="0 0 64 78" version="1.1" xmlns="http://www.w3.org/2000/svg" xmlns:xlink="http://www.w3.org/1999/xlink">
    <!-- Generator: Sketch 50.2 (55047) - http://www.bohemiancoding.com/sketch -->
    <title>Lucknow</title>
    <desc>Created with Sketch.</desc>
    <defs></defs>
    <g id="Page-1" stroke="none" stroke-width="1" fill="none" fill-rule="evenodd">
        <polyline id="Lucknow" fill="#F4DDB5" fill-rule="nonzero" points="23.5288038 5.87034036 23.8091922 6.42895732 24.6492746 7.26742301 25.7697454 7.26742301 26.8912988 6.42895732 27.4499103 5.87034036 28.5703811 4.19448947 29.6908519 4.19448947 30.5309343 3.91247974 31.3720993 3.35386278 31.932876 2.79524581 32.2132643 1.67693139 32.7718759 0.838465694 33.8934292 0.558616964 34.7345942 0.278768233 35.2932058 0 35.8528999 0 35.8528999 0.558616964 36.4136765 1.39708266 37.5363125 1.39708266 39.4957831 1.11831442 40.3369482 0.838465694 42.017113 0.838465694 42.2975014 1.67693139 43.1375838 2.79524581 44.2580546 2.79524581 44.2580546 3.91247974 43.9787488 4.75202593 45.379608 5.31172339 45.9393021 6.15018909 46.2186078 6.98865478 46.7804671 8.10696921 47.9009379 8.66666667 48.1802436 9.50513236 48.4595494 10.6223663 47.9009379 11.1831442 46.7804671 11.460832 45.9393021 10.902215 45.098137 10.902215 43.9787488 10.3435981 43.1375838 9.50513236 42.017113 8.66666667 40.8966423 8.9454349 40.8966423 10.0637493 40.3369482 10.902215 40.3369482 11.7406807 40.6162539 12.2992977 41.4574189 12.2992977 42.8582781 12.5791464 42.8582781 13.6985413 42.5768071 14.2571583 42.017113 15.095624 41.7367247 15.9340897 41.7367247 16.7747164 42.2975014 18.171799 43.1375838 18.4494868 44.2580546 18.4494868 45.098137 18.730416 45.379608 19.8465694 45.9393021 20.1296596 46.4989962 20.1296596 47.0597728 20.6893571 49.0203261 20.6893571 49.5800202 21.5267423 49.3007144 22.3641275 48.1802436 22.9249055 47.3390786 23.2036737 45.9393021 23.2036737 46.4989962 24.6018368 47.3390786 25.1626148 47.9009379 26.0010805 49.3007144 27.3981632 50.1407969 27.6758509 50.7015735 27.9567801 51.8209617 29.0750945 52.1024327 29.9135602 51.5405734 31.0318747 51.5405734 32.1512696 52.3806558 32.9875743 52.6610442 34.3868179 52.1024327 36.0637493 51.2612676 36.6223663 50.7015735 37.4619125 51.2612676 37.4619125 51.5405734 37.7417612 52.6610442 37.4619125 53.2218209 37.1809833 54.6237626 37.1809833 55.4627624 38.0216099 56.5832332 39.4186926 57.4243982 40.8179363 59.3838689 40.8179363 59.9446455 41.9351702 59.9446455 42.4927066 60.784728 43.3333333 61.6248104 43.0524041 62.7474464 42.4927066 63.0267521 43.8919503 62.1855871 45.0124257 61.6248104 45.8487304 61.6248104 48.0864398 61.9051988 49.4835224 62.4648929 50.3219881 63.0267521 50.8816856 63.0267521 51.1615343 62.7474464 52.0010805 61.0640338 53.1183144 60.784728 54.2366288 60.5043397 54.7952458 60.5043397 57.0318747 60.2250339 58.4300378 61.3455047 60.1069692 61.0640338 61.2252836 60.784728 62.0637493 60.5043397 63.1820637 60.784728 64.0216099 60.784728 64.3003782 60.5043397 64.3003782 59.1034805 64.8600756 58.2633981 65.1399244 57.1429273 65.9794706 55.7420682 66.2582388 55.1823741 65.6985413 54.9030683 66.537007 54.9030683 67.3754727 54.6237626 68.2150189 53.781515 68.4937871 52.6610442 68.4937871 51.8209617 69.6121016 51.5405734 71.2901135 50.9808793 72.9692058 50.4201026 74.0864398 49.5800202 74.367369 48.4595494 74.6450567 47.9009379 75.4867639 47.3390786 76.6039978 46.2186078 76.8827661 45.6578311 77.441383 44.8177487 78 43.9787488 78 43.1375838 77.7223123 41.7367247 76.6039978 41.7367247 75.7644516 41.4574189 74.9249055 40.8966423 73.5278228 40.6162539 71.8487304 40.6162539 70.730416 39.7761715 69.8919503 36.4136765 69.8919503 36.4136765 69.0534846 36.1343708 67.9351702 36.1343708 67.0967045 34.172735 66.537007 32.7718759 65.9794706 32.7718759 64.8600756 33.0522642 64.0216099 32.7718759 62.9032955 32.2132643 62.0637493 31.6514051 60.9465154 31.3720993 59.8271205 30.8124052 58.9897353 29.9712402 58.4300378 28.8507694 58.1501891 28.2899927 58.1501891 27.4499103 58.7098865 26.6109104 59.5494327 25.7697454 59.8271205 24.6492746 58.9897353 24.0895805 58.4300378 22.9680272 58.1501891 22.1279447 58.1501891 20.7270856 56.7520259 20.4477798 55.9135602 19.0469207 55.3549433 18.767615 56.4732577 19.0469207 57.3117234 18.4872266 58.4300378 17.3667558 58.4300378 16.246285 58.1501891 15.40512 58.1501891 14.5650376 57.5915721 14.2846492 56.193409 14.5650376 54.5164776 15.1258143 53.9567801 16.8059792 52.8384657 16.5255908 51.7201513 15.40512 51.7201513 14.5650376 51.1615343 14.5650376 50.3219881 14.8465085 48.9249055 15.40512 47.806591 16.246285 46.4073474 17.9264499 47.806591 19.0469207 47.2468936 19.6076974 46.4073474 19.6076974 45.5688817 18.4872266 45.0124257 17.6460616 44.4505673 17.6460616 41.095624 17.3667558 40.2582388 17.0863675 39.9773096 15.40512 38.2992977 14.5650376 37.1809833 14.5650376 34.9454349 13.1641785 34.1069692 11.4840136 33.5483522 10.0820719 33.2685035 8.40190699 32.7098865 8.12260123 32.1512696 8.40190699 31.3106429 8.40190699 29.9135602 8.12260123 28.7952458 7.28143621 27.9567801 6.16096543 27.3981632 5.32088299 26.8384657 3.63963553 27.1172339 3.07885884 27.6758509 2.2387764 28.2366288 1.39977654 28.2366288 0 27.3981632 0.55861152 26.2787682 1.6790823 25.7201513 2.80063566 24.8827661 3.63963553 24.6018368 4.47971797 23.7633712 4.20149479 22.6450567 3.63963553 21.806591 3.92110645 20.9670448 2.51916474 19.0091842 2.2387764 18.4494868 1.95947064 18.171799 2.51916474 17.3322528 2.51916474 15.3754727 2.80063566 14.537007 4.20149479 14.537007 5.88057709 14.2571583 7.28143621 13.9773096 8.12260123 14.2571583 9.52346036 13.9773096 10.0820719 12.5791464 9.24198944 11.460832 10.3624602 10.3435981 11.4840136 10.902215 11.7644019 11.460832 12.8848727 11.460832 13.7249551 11.1831442 14.0053435 10.3435981 15.6855084 9.22528363 16.5255908 8.38681794 16.5255908 7.26742301 17.6460616 7.54835224 18.4872266 7.82603998 19.6076974 8.38681794 20.1684741 9.22528363 21.0074739 8.9454349 21.8475564 8.38681794 22.4083331 6.98865478 23.5288038 5.87034036"></polyline>
    </g>
</svg>