<?xml version="1.0" encoding="UTF-8"?>
<svg width="112px" height="87px" viewBox="0 0 112 87" version="1.1" xmlns="http://www.w3.org/2000/svg" xmlns:xlink="http://www.w3.org/1999/xlink">
    <!-- Generator: Sketch 50.2 (55047) - http://www.bohemiancoding.com/sketch -->
    <title>Maharajganj</title>
    <desc>Created with Sketch.</desc>
    <defs></defs>
    <g id="Page-1" stroke="none" stroke-width="1" fill="none" fill-rule="evenodd">
        <polyline id="Maharajganj" fill="#F4DDB5" fill-rule="nonzero" points="78.2969973 3.85182208 82.9254133 6.54467568 92.5653379 7.69918087 101.825151 8.85368606 102.597299 12.3186894 102.983373 13.8585256 102.597299 15.3983617 100.66842 15.782205 101.055984 17.3235289 102.983373 18.0927031 104.527669 17.7073721 106.067493 16.9381979 107.610298 16.9381979 109.539178 17.7073721 110.695909 18.8618773 111.468057 20.4017135 110.312816 21.9415497 109.539178 23.4813858 109.154594 25.0227098 110.695909 25.4080408 110.312816 25.4080408 108.383937 26.1787027 103.75403 26.1787027 101.825151 26.562546 101.055984 27.7170511 100.66842 29.2583751 101.439077 31.5673855 99.5116884 31.1835422 98.7410311 32.7218907 100.282346 34.2617268 100.282346 35.801563 99.1271051 37.7252424 97.5813185 38.1105734 96.8076799 38.8812354 96.4260778 40.0357405 94.8802912 40.4210715 93.7250505 41.5755767 93.7250505 42.7300819 93.3389765 43.8845871 94.4957078 44.6552491 96.0385132 44.6552491 96.8076799 44.2699181 97.9673925 43.1154129 99.5116884 43.8845871 99.5116884 45.0405801 99.1271051 46.1950852 97.9673925 47.3495904 97.5813185 48.5040956 97.1967351 49.2732698 96.8076799 50.8145938 96.4260778 51.969099 96.0385132 53.1236042 94.4957078 53.1236042 93.3389765 53.8927784 92.9529025 55.8179455 91.4100972 55.8179455 90.2533659 56.5871197 90.6394399 57.7431127 91.7976618 58.5137746 92.9529025 59.6697676 93.3389765 61.2096038 92.9529025 62.364109 91.4100972 62.7479522 90.2533659 62.364109 89.0951439 61.593447 87.164774 61.2096038 86.7816812 62.364109 88.7105606 63.9024574 89.0951439 65.0584503 89.0951439 66.9836175 90.6394399 69.2926279 91.4100972 69.6764711 91.0240232 71.217795 89.8687825 72.3723002 89.4812179 73.1414744 89.4812179 74.2944919 89.8687825 75.4504848 89.8687825 76.60499 87.9384126 75.8358158 86.3985885 74.2944919 84.8542926 73.5268054 83.3099966 73.5268054 82.1532653 74.2944919 81.7686819 75.8358158 81.3826079 76.990321 80.6134412 76.60499 78.2969973 75.0666416 76.754192 75.4504848 76.368118 76.990321 76.754192 78.5316449 75.982044 79.6861501 75.2128773 80.8406553 74.0531647 81.9951605 72.51185 83.1496657 71.7411927 82.7658225 70.9690447 80.8406553 69.8123134 79.3008191 68.2680174 79.3008191 67.1112861 80.8406553 65.5684808 80.4553243 63.6396015 80.8406553 63.2550181 82.3790037 62.8689441 83.9203277 62.4828701 85.0763206 60.9385742 85.844007 59.7803522 86.229338 58.2390375 87 55.9255749 87 54.3827695 86.229338 53.2260382 85.844007 52.4538902 85.4586761 51.2986495 84.3056586 50.5250109 83.1496657 50.1374463 81.6098295 50.1374463 78.5316449 48.9822056 77.3771397 47.8269649 77.3771397 46.6672523 78.5316449 45.510521 79.3008191 44.7398636 78.1448262 44.7398636 75.8358158 44.3537896 75.0666416 42.040327 75.0666416 40.4975217 75.4504848 38.570133 75.0666416 36.6427443 73.5268054 35.4830317 73.5268054 34.3263004 74.2944919 32.3974211 75.0666416 31.2421804 74.6813106 30.4700324 73.5268054 30.8531251 72.3723002 31.2421804 70.4486208 31.6267637 69.2926279 32.7849857 68.9072969 32.7849857 67.7527917 32.0113471 66.5982865 33.1710597 64.6746071 33.9402264 63.1347709 33.9402264 61.978778 34.713865 60.437454 36.2551797 60.0536108 37.411911 60.0536108 39.3392997 60.437454 38.9547163 59.6697676 38.570133 58.8976179 38.570133 57.7431127 37.797985 55.8179455 37.025837 54.2781093 35.4830317 54.2781093 33.1710597 55.0472835 31.6267637 55.4326145 30.4700324 55.4326145 28.9272271 56.2032765 28.1550791 57.3577817 27.7690051 58.5137746 26.2247092 58.1284437 25.0679778 58.1284437 24.2973205 59.2829489 24.2973205 61.2096038 24.6804132 62.364109 24.2973205 63.5171264 23.1405892 65.0584503 21.5962932 64.6746071 20.8256359 63.9024574 20.8256359 62.7479522 21.2117099 61.2096038 21.2117099 59.6697676 20.0534879 58.5137746 18.5136638 59.2829489 17.3554419 60.0536108 16.1972199 61.2096038 14.2683406 61.593447 13.4976833 60.437454 13.1116093 59.2829489 12.3409519 58.1284437 11.5688039 57.3577817 9.25683192 56.2032765 8.09711932 56.2032765 3.47019399 55.0472835 2.69804602 54.6634403 1.1552407 53.1236042 0.76916671 52.3544299 1.1552407 50.8145938 0.76916671 49.6586008 0.383092722 47.7349214 0.383092722 47.3495904 0 45.8097543 0.383092722 42.7300819 1.1552407 41.9609077 4.24085134 41.1902457 5.78365666 41.9609077 7.32795261 42.3447509 7.71253596 41.1902457 7.71253596 40.0357405 8.09711932 38.4959044 9.25683192 37.3413992 8.8692673 35.801563 8.48319331 34.6470578 9.63992464 33.8763958 10.7981466 33.4925526 11.9548779 32.7218907 12.7285165 31.1835422 12.7285165 29.6437061 13.4976833 28.1023821 14.2683406 27.3332079 15.8111459 26.562546 16.9678772 25.7933718 18.5136638 24.6388666 18.8967566 22.7122116 18.8967566 18.0927031 19.6689045 16.9381979 21.2117099 16.167536 22.7530245 14.6276998 23.5251725 14.2438566 29.3133011 15.0130308 35.4830317 16.167536 38.9547163 12.3186894 43.1970583 10.0081913 43.5831323 0 55.1549175 1.15450519 64.4132401 0 75.982044 2.31198591 78.2969973 3.85182208"></polyline>
    </g>
</svg>