<?xml version="1.0" encoding="UTF-8"?>
<svg width="100px" height="78px" viewBox="0 0 100 78" version="1.1" xmlns="http://www.w3.org/2000/svg" xmlns:xlink="http://www.w3.org/1999/xlink">
    <!-- Generator: Sketch 50.2 (55047) - http://www.bohemiancoding.com/sketch -->
    <title>Mainpuri</title>
    <desc>Created with Sketch.</desc>
    <defs></defs>
    <g id="Page-1" stroke="none" stroke-width="1" fill="none" fill-rule="evenodd">
        <polyline id="Mainpuri" fill="#F4DDB5" fill-rule="nonzero" points="29.4926798 0.368286725 29.8616766 0 31.7038116 0 33.1783743 0.73657345 35.0219339 0 35.7585029 1.47172494 36.1274998 3.68002333 37.9710594 4.41517483 39.814619 4.41517483 42.3947477 5.15174828 44.2368826 4.78346155 46.4508638 5.15174828 48.2944234 5.51861305 49.7689862 5.51861305 51.6111211 6.2551865 53.4546807 6.62205126 57.1417999 6.62205126 58.9839348 7.72548948 59.7219286 9.19863638 61.1964913 11.038648 63.0400509 12.510373 64.513189 13.2455245 66.3567486 13.2455245 68.2003082 13.6123893 69.674871 15.0841142 70.0424431 18.3958508 70.7804369 19.8689977 74.4661314 21.3407226 76.6786879 21.7090094 79.6278134 21.7090094 80.3658071 22.0772961 81.8403699 23.1807343 83.3149326 23.9158858 86.2640581 26.1241842 87.369624 27.5944872 86.633055 29.4359208 86.633055 31.2745105 87.369624 33.481387 88.4766146 34.9531119 90.3201742 37.5282751 92.1623091 38.2648485 94.0058688 37.8965618 97.6915633 39.7365734 97.6915633 39.3682867 97.3239911 40.4717249 96.5859974 41.9434499 95.8494284 43.7834616 95.4804315 45.2551865 95.8494284 46.7269114 96.5859974 48.5655011 97.6915633 49.6703613 96.2184252 51.1392424 95.8494284 52.6152332 97.6915633 52.2455245 99.1675508 52.980676 99.1675508 54.4524009 96.9549943 57.3972728 95.4804315 58.8689977 96.2184252 60.3393007 96.5859974 62.9158858 96.5859974 64.7573194 95.1114347 65.4924709 94.3748656 66.961352 92.9003029 68.0676341 92.9003029 71.7476574 91.794737 73.2179604 89.5821805 74.3213986 88.1076177 73.5862471 86.633055 74.3213986 87.7386209 78 87.0020519 78 85.1584922 76.1614103 85.1584922 75.4248368 85.5274891 74.6911073 85.896486 74.6911073 85.1584922 74.3213986 85.1584922 72.4828089 84.7894954 72.4828089 83.6839295 71.3779487 83.6839295 71.009662 82.9473605 70.6413753 82.2093667 70.6413753 82.2093667 71.009662 81.8403699 71.3779487 81.4727977 71.009662 81.1038008 70.6413753 79.6278134 70.6413753 78.5222475 71.009662 78.5222475 70.2716666 78.8926691 69.9062238 78.1532506 69.5379371 77.0476847 70.6413753 76.6786879 70.6413753 75.9421189 70.2716666 75.2041251 70.2716666 74.0985592 70.6413753 73.7295624 71.009662 73.3605655 71.009662 72.6239965 71.7476574 71.5170059 71.7476574 70.0424431 72.1131002 69.3058741 72.1131002 68.5693051 71.7476574 68.2003082 71.3779487 68.2003082 70.6413753 67.8313114 69.9062238 68.2003082 69.5379371 67.8313114 69.1696503 67.4623145 68.4344989 65.9877517 67.6993474 65.6187549 67.3310606 64.1456168 67.3310606 63.4076231 67.6993474 62.3020572 67.6993474 61.9330603 66.961352 61.1964913 67.3310606 59.7219286 67.3310606 59.3529317 67.6993474 59.3529317 68.0676341 57.878369 68.4344989 56.4038062 66.961352 55.6658125 67.6993474 54.9292434 67.6993474 54.5602466 67.3310606 54.1926744 67.3310606 54.5602466 68.4344989 54.5602466 68.8027856 53.4546807 69.9062238 52.3491148 69.1696503 52.3491148 68.8027856 51.2421242 68.4344989 50.5055552 68.4344989 48.2944234 69.5379371 48.2944234 69.9062238 47.1874328 70.2716666 46.8198606 71.009662 45.3452979 71.009662 43.8693104 73.2179604 43.1313167 73.2179604 42.7623199 72.8496737 42.3947477 72.1131002 40.9201849 71.3779487 41.2891818 69.9062238 41.2891818 69.1696503 40.5511881 68.8027856 37.9710594 68.0676341 37.6020626 67.6993474 36.4964967 67.6993474 35.7585029 68.8027856 36.1274998 68.8027856 37.2344904 69.5379371 36.8654935 70.6413753 35.7585029 70.6413753 35.0219339 69.9062238 34.2839402 70.2716666 33.1783743 70.2716666 33.1783743 69.1696503 32.4418053 68.0676341 31.7038116 68.0676341 30.9672425 68.8027856 30.9672425 69.5379371 30.5982457 70.6413753 29.1236829 70.6413753 28.3871139 70.2716666 25.8055605 70.2716666 24.6999946 71.009662 23.5944288 70.6413753 22.8578597 70.6413753 22.119866 70.2716666 21.0143001 69.5379371 21.0143001 69.1696503 19.9073095 69.5379371 18.8017436 70.6413753 18.0651746 69.9062238 17.6961777 70.6413753 17.3271809 71.009662 15.8526181 71.009662 15.1160491 70.6413753 13.2724895 71.009662 12.9049173 69.1696503 11.796502 67.3310606 10.3219393 65.4924709 10.3219393 63.6510373 11.796502 60.7090094 11.4275052 58.500711 9.58394555 58.1324243 10.6909361 56.6621213 11.059933 55.1903963 10.6909361 52.980676 11.4275052 50.7737995 12.9049173 50.4055128 14.7470522 50.4055128 14.7470522 48.5655011 15.4836213 47.0937762 17.3271809 47.8317716 18.0651746 47.4620629 19.1707405 46.7269114 16.5906119 44.8868998 15.1160491 44.518613 13.2724895 44.518613 11.059933 44.1503263 9.95294241 42.6800233 9.58394555 42.3117366 8.47837966 41.5765851 7.00381691 39.7365734 8.11080749 38.6345572 9.21637338 36.7931236 7.74181063 35.6896853 5.89825101 33.8496737 4.0546914 31.6427972 2.58012864 31.2745105 0 29.8027856 0 27.9656178 2.21255648 27.5944872 2.21255648 24.2841725 2.94912551 22.4441609 4.42368826 21.3407226 5.16168199 19.8689977 4.79268512 19.1338462 6.26724788 17.6606993 8.11080749 17.6606993 9.95294241 18.028986 11.4275052 17.6606993 13.2724895 16.9241259 14.3780554 15.4524009 16.221615 15.4524009 18.0651746 14.7172494 18.8017436 12.8772378 19.1707405 11.4055128 20.2763064 10.3020746 21.0143001 8.46206293 20.6453032 6.99033799 21.7508691 5.51861305 23.2254319 5.15174828 24.6999946 4.41517483 25.8055605 2.94344989 27.6491202 1.84143362 29.4926798 0.368286725"></polyline>
    </g>
</svg>