<?xml version="1.0" encoding="UTF-8"?>
<svg width="84px" height="87px" viewBox="0 0 84 87" version="1.1" xmlns="http://www.w3.org/2000/svg" xmlns:xlink="http://www.w3.org/1999/xlink">
    <!-- Generator: Sketch 50.2 (55047) - http://www.bohemiancoding.com/sketch -->
    <title>Mau</title>
    <desc>Created with Sketch.</desc>
    <defs></defs>
    <g id="Page-1" stroke="none" stroke-width="1" fill="none" fill-rule="evenodd">
        <polyline id="Mau" fill="#F4DDB5" fill-rule="nonzero" points="34.6890333 0 35.1342052 0.442599677 36.0245491 0.442599677 37.3566272 0.886914856 38.692143 1.77554521 40.4711118 1.77554521 42.2500807 2.21814489 44.0307683 2.21814489 45.8097372 2.66074457 46.6966434 3.55109043 49.3659561 5.32663564 51.144925 7.98738021 52.4787219 8.43169539 54.2594096 8.43169539 55.5914877 7.98738021 56.9270035 6.211835 58.2625192 5.32663564 60.9318319 4.43628978 62.7090819 4.43628978 64.0428789 3.55109043 66.7104728 3.9919746 67.1590823 2.66074457 68.0442697 1.32951453 68.9363324 0.442599677 70.2701293 0.442599677 71.605645 0.886914856 72.4942701 2.21814489 74.2732389 3.9919746 76.050489 3.9919746 78.716364 6.65615018 80.0553174 9.32032575 80.0553174 10.6515558 80.9439424 11.9827858 82.2777394 13.758331 83.1680832 15.5321607 82.2777394 15.9764759 80.9439424 15.5321607 79.1649736 15.9764759 78.716364 16.8651063 78.2746298 18.642367 76.9408328 19.9718815 76.4939421 20.8605119 76.4939421 22.1951729 77.3842859 23.5246875 80.0553174 25.3002327 80.0553174 27.5218086 79.1649736 28.8513231 78.2746298 29.741669 77.3842859 31.9580984 76.9408328 33.7336436 75.6087547 34.1779587 74.2732389 32.400698 72.9360044 31.0711835 71.1587543 31.5154987 70.2701293 32.8450132 69.8249574 34.1779587 68.9363324 35.5091888 69.3815043 36.8404188 68.4911604 38.6176795 67.1590823 39.0619947 65.3766758 38.6176795 63.5994258 37.7290492 61.375285 39.0619947 60.9318319 40.3915092 60.48666 43.0522538 60.48666 45.7181449 60.0397693 47.0493749 60.0397693 50.6004654 59.5945973 52.3760106 60.9318319 52.8186102 62.26391 52.8186102 64.9349415 51.4856647 66.2670197 51.0447805 68.0442697 50.6004654 70.2701293 51.9334109 72.4942701 51.4856647 74.2732389 51.0447805 75.161864 52.8186102 75.161864 55.9253855 76.9408328 55.9253855 79.1649736 56.8140159 79.1649736 58.1435304 78.2746298 59.0355917 77.8311766 60.3651063 76.9408328 61.6963363 76.9408328 63.473597 78.716364 64.8082581 79.6118643 65.2491422 80.4987705 66.5803723 80.0553174 68.357633 78.716364 69.2445479 76.9408328 69.688863 75.161864 67.9116023 73.3846139 68.357633 72.9360044 70.5757779 72.9360044 74.1285838 72.4942701 75.4580984 72.0473793 76.7893284 71.605645 77.2336436 70.2701293 77.6796743 68.0442697 78.5648736 66.2670197 77.6796743 64.9349415 76.7893284 64.4880508 75.0137832 63.5994258 73.6825531 62.26391 73.238238 60.9318319 75.0137832 60.0397693 75.904129 59.5945973 74.569468 59.1511442 73.238238 58.2625192 72.3513231 55.5914877 71.4626927 54.7028627 71.4626927 53.3673469 71.9070079 51.5900969 72.7939228 49.8094092 71.9070079 48.4756123 71.0200931 45.8097372 70.5757779 44.4742215 71.0200931 40.9162837 71.9070079 38.246971 73.6825531 37.3566272 73.238238 36.0245491 72.7939228 32.4666114 72.7939228 31.1328144 73.6825531 28.0183298 74.569468 26.6845329 76.3467287 24.4603921 77.6796743 22.683142 76.7893284 21.3476263 77.2336436 20.0138294 78.1222739 19.1217667 79.453504 17.3445167 79.8961036 15.563829 80.784734 15.1186571 82.5602792 15.1186571 83.8915092 14.675204 85.665339 13.341407 87 12.0093289 86.1113696 10.6720943 84.7784241 8.89312548 84.7784241 8.89312548 84.3358244 8.44795356 81.2290492 7.11415662 80.784734 4.89001585 80.3404188 3.55793772 80.3404188 4.00139082 78.1222739 3.55793772 77.6796743 3.55793772 76.7893284 2.66759388 75.904129 2.22242196 74.569468 2.66759388 73.238238 4.89001585 72.3513231 5.78207849 71.0200931 7.11415662 70.5757779 8.00621927 70.1331782 7.55932854 69.2445479 6.67070351 67.4690026 7.55932854 66.5803723 11.5607194 66.5803723 12.8962351 65.6934574 12.0093289 64.3605119 11.1172663 63.473597 8.89312548 62.1406515 8.00621927 61.6963363 6.2255316 61.6963363 4.89001585 62.1406515 4.00139082 63.473597 2.22242196 64.3605119 0.443453107 64.8082581 0 63.473597 0.443453107 61.6963363 0.888625024 60.3651063 1.77896886 59.0355917 2.22242196 57.7026462 1.77896886 55.9253855 2.66759388 54.1515558 4.89001585 51.9334109 5.78207849 49.715266 4.44656274 48.8249201 3.11104699 48.380605 0.888625024 47.0493749 0.888625024 45.7181449 2.22242196 44.3886304 3.55793772 43.4982845 4.89001585 43.4982845 6.2255316 43.0522538 8.00621927 43.4982845 9.7817505 44.3886304 11.1172663 44.3886304 12.8962351 43.0522538 12.4510632 41.7227393 11.5607194 39.9471941 9.7817505 39.0619947 9.7817505 36.8404188 11.1172663 36.3961036 12.4510632 35.5091888 14.2317509 35.0665891 15.563829 34.6188429 17.3445167 34.1779587 18.6800324 33.7336436 18.6800324 32.400698 18.2348605 30.6251528 17.7896886 30.6251528 16.8976259 29.2956383 18.2348605 28.4052924 20.0138294 27.0757779 18.6800324 25.3002327 18.6800324 21.7474267 19.5686574 20.4179122 21.3476263 18.642367 21.7927982 15.9764759 23.1265952 15.0895611 24.4603921 14.6469614 24.9072828 13.3140159 25.3490171 11.5367551 26.239361 10.2072406 26.6845329 8.87601057 28.0183298 7.10046535 28.9103925 5.32663564 30.2407518 4.43628978 32.9100645 3.10505975 34.2421426 0.886914856 34.6890333 0"></polyline>
    </g>
</svg>