<?xml version="1.0" encoding="UTF-8"?>
<svg width="120px" height="87px" viewBox="0 0 120 87" version="1.1" xmlns="http://www.w3.org/2000/svg" xmlns:xlink="http://www.w3.org/1999/xlink">
    <!-- Generator: Sketch 50.2 (55047) - http://www.bohemiancoding.com/sketch -->
    <title>Mirzapur</title>
    <desc>Created with Sketch.</desc>
    <defs></defs>
    <g id="Page-1" stroke="none" stroke-width="1" fill="none" fill-rule="evenodd">
        <polyline id="Mirzapur" fill="#F4DDB5" fill-rule="nonzero" points="33.3220165 3.86044426 34.5120474 4.74981533 35.9987238 6.23592571 36.8921094 6.82807471 38.0821403 7.42366644 38.9743761 7.71859336 39.8689114 6.82807471 40.4622022 5.93755606 42.2478235 6.82807471 44.0322951 5.04818498 44.9245308 4.74981533 47.0090971 4.74981533 47.6023879 5.64033398 47.9013329 6.82807471 49.3891591 6.53200021 50.2813948 5.64033398 51.1747804 5.34425948 52.0658664 4.74981533 53.2558973 4.15651876 54.4459283 4.15651876 55.637109 4.74981533 56.528195 5.64033398 58.3149661 4.45259326 58.3149661 2.37548145 59.5026975 1.48266765 61.586114 1.18774073 62.7772947 1.18774073 63.3705855 0.890518651 64.2628213 0.890518651 65.454002 1.18774073 66.0484426 1.7810373 66.9418282 2.96763045 68.4296543 3.56207461 70.8085664 2.37548145 71.7008022 1.48266765 71.7008022 0.593296576 72.2952428 0 73.4864235 0.2960745 74.0831637 1.18774073 74.0831637 2.67385111 73.4864235 4.15651876 73.4864235 6.23592571 74.0831637 7.12414921 75.2731946 6.82807471 75.2731946 5.64033398 75.56984 4.45259326 76.1654304 3.86044426 76.7610208 2.67385111 77.9499019 2.07825938 79.1399329 2.37548145 79.7355233 3.86044426 79.7355233 4.74981533 79.1399329 6.23592571 78.8421377 7.42366644 77.6521068 8.31303751 77.0576662 9.20355617 75.56984 9.50077824 74.3798091 9.79800032 74.3798091 10.9845935 74.9742497 12.4707038 75.8664854 12.7656308 77.3554614 13.0640004 77.9499019 12.4707038 78.8421377 12.4707038 80.0321687 13.0640004 80.9255542 13.3600749 81.2221996 12.4707038 82.1144354 12.1734818 83.3044663 11.8762597 83.9000567 10.9845935 84.1978519 9.79800032 85.9823234 9.50077824 88.3623853 9.50077824 89.5535661 10.0952224 90.4446521 9.50077824 91.3368878 9.50077824 92.2302734 9.20355617 93.4203043 9.20355617 94.6091855 8.61140717 95.5025711 8.31303751 98.7748687 8.31303751 99.9637499 6.53200021 100.263845 5.64033398 101.15608 5.04818498 103.238347 2.96763045 107.40403 2.96763045 107.40403 4.45259326 107.999621 5.93755606 109.187352 6.23592571 110.080738 6.23592571 111.568564 6.53200021 112.758595 6.82807471 113.65198 7.12414921 113.948626 8.31303751 114.245271 9.50077824 116.030892 8.31303751 117.816514 9.50077824 118.410954 10.3912969 118.70875 11.8762597 119.006545 12.7656308 119.600985 13.6584446 119.600985 15.1422598 118.70875 16.033926 117.816514 16.033926 116.626483 17.2216668 116.329837 19.2999261 116.329837 20.1915924 116.030892 21.3793331 114.842011 22.2709993 115.733097 24.0497415 114.544216 24.6441856 113.353035 24.9425553 111.866359 24.6441856 110.974123 24.9425553 109.486297 25.5347043 108.592912 26.130296 107.999621 27.0185195 107.700676 27.9113333 107.700676 28.8018519 107.999621 29.9895927 107.700676 30.5828893 106.80844 31.1773334 106.21285 31.77063 105.916204 33.2555928 106.21285 34.7417032 106.511795 35.331557 107.700676 36.5215929 107.999621 37.7093336 107.700676 38.6009998 106.511795 39.1942964 106.511795 40.3808896 107.103936 41.5686303 108.296266 43.3519627 107.40403 43.9429642 105.916204 43.9429642 103.537292 45.4302221 101.749371 46.6168153 100.56049 46.3207408 100.263845 47.5084815 99.9637499 48.9934443 99.3704591 50.7756292 98.4770736 51.3689258 97.5848378 51.3689258 97.5848378 52.2582968 97.882633 53.1499631 97.5848378 54.0404817 96.9903972 54.9310004 96.0970116 55.8238142 94.3136899 56.1187411 93.7180995 55.2270749 92.824714 54.9310004 91.9313284 56.1187411 91.3368878 57.0115549 89.8502115 57.0115549 88.9568259 56.7120377 87.766795 57.0115549 86.875709 57.6037039 85.6845282 58.4942226 84.7922925 58.4942226 83.3044663 57.900926 83.0066712 57.3064818 81.81779 57.6037039 80.9255542 57.6037039 79.7355233 56.7120377 78.8421377 56.4159632 77.0576662 56.4159632 76.1654304 57.0115549 74.0831637 57.0115549 73.4864235 58.4942226 72.2952428 59.0886667 70.8085664 59.3858888 69.6196853 59.3858888 69.0240949 58.4942226 68.1318591 58.1992956 66.9418282 58.1992956 65.454002 59.0886667 65.1550571 59.9791854 64.8584117 61.1669261 64.5606165 62.0585923 64.5606165 63.246333 63.6683807 63.5424075 63.0739401 62.6518889 61.2894686 62.6518889 59.8016424 62.9479634 58.3149661 63.838482 58.0160211 63.246333 57.4215805 62.3535192 57.1237854 61.1669261 57.1237854 60.2764074 56.82714 59.3858888 55.9337544 59.0886667 55.0403688 59.6831109 53.5525427 59.9791854 53.2558973 59.3858888 52.3636615 58.7914446 51.1747804 58.7914446 49.0902141 59.9791854 49.0902141 60.869704 48.4969233 61.7613702 47.9013329 62.3535192 47.9013329 63.5424075 47.6023879 65.3234448 47.6023879 66.2139635 46.711302 66.8095552 46.1157116 68.2933704 46.711302 70.0744077 46.711302 71.2621485 47.3057425 73.0443334 47.3057425 74.2332217 47.0090971 75.4198148 46.412357 76.6075555 45.8179164 76.6075555 42.2478235 77.2019997 40.4622022 76.9059252 39.2721713 76.014259 38.3810853 74.8276658 36.8921094 74.5304437 35.1076378 75.1214452 33.9176069 75.4198148 32.7287257 76.014259 31.8353401 77.2019997 32.7287257 78.3897404 33.3220165 79.5763336 32.1319855 81.6568881 33.9176069 84.6245185 33.3220165 86.4044083 31.5386947 87 30.3463642 86.4044083 29.4541284 84.9194455 27.6696569 84.0300744 25.289595 84.328444 23.8017689 83.7339999 24.099564 81.6568881 24.6951544 80.1707777 24.99065 77.7941487 24.99065 76.3103335 23.5051235 75.7181845 21.7206519 75.7181845 19.6372354 76.9059252 18.4460547 78.0936659 16.6604334 78.3897404 15.4715522 76.9059252 15.7693474 75.4198148 16.6604334 74.2332217 17.2571735 73.0443334 17.5538189 71.2621485 18.1482595 69.7771857 17.5538189 67.9950008 16.363788 67.1067773 15.1726072 67.1067773 14.2803714 68.2933704 13.3881357 69.7771857 12.1981047 70.3716298 11.6048139 69.1827415 11.6048139 67.9950008 12.1981047 66.510038 12.7936951 65.6218145 11.6048139 65.0262228 10.7102786 63.838482 9.52024763 63.5424075 7.73577609 63.5424075 5.95245435 64.1357041 4.46462821 64.7301483 2.67785709 63.838482 1.48782614 62.9479634 1.19118074 61.4641482 0.300094762 61.1669261 0.300094762 59.3858888 0 58.4942226 0 56.7120377 0.595590371 54.3377038 1.19118074 53.1499631 1.19118074 50.7756292 2.97565228 50.7756292 3.57124265 51.9633699 5.057919 51.9633699 6.84354033 50.181185 7.14018572 48.9934443 8.03357128 47.8057036 8.62801186 48.6962222 10.414783 48.4001477 11.0080738 47.2135546 11.0080738 44.8380731 12.7936951 44.5397035 13.983726 43.6480373 13.983726 41.5686303 14.874812 40.9753337 16.363788 41.5686303 16.363788 42.4568538 16.9582285 43.0535931 17.8504643 42.756371 18.7461494 41.8658524 19.041645 41.2725558 19.3382904 40.0848151 19.3382904 38.8970743 19.6372354 37.7093336 20.2339756 36.8165198 22.0172973 35.9294439 22.0172973 34.7417032 21.7206519 33.5528149 22.0172973 32.9583707 21.7206519 31.4734079 21.7206519 29.9895927 22.3139427 29.3962961 23.2073283 29.3962961 23.8017689 28.5057774 23.8017689 27.9113333 23.5051235 27.3180367 23.2073283 26.7235926 23.2073283 26.4263705 22.9106829 25.2386298 22.3139427 24.3481111 21.7206519 22.5659262 21.7206519 21.6754076 20.5294712 21.6754076 21.1239118 20.1915924 20.2339756 20.1915924 19.9350306 19.2999261 19.041645 18.7077771 17.8504643 18.1121854 16.6604334 17.2216668 15.7693474 16.3300005 14.874812 16.033926 13.0926401 14.8461853 12.7936951 13.9545191 13.6859309 13.0640004 15.1726072 13.3600749 16.0671426 13.6584446 16.9582285 13.3600749 16.9582285 10.9845935 16.363788 10.0952224 14.5793164 10.0952224 13.6859309 9.50077824 13.6859309 8.61140717 13.983726 7.71859336 14.2803714 6.82807471 14.2803714 4.45259326 13.983726 3.56207461 13.983726 2.67385111 15.7693474 2.37548145 17.8504643 2.37548145 18.7461494 2.67385111 20.2339756 2.96763045 21.7206519 4.15651876 22.3139427 4.74981533 22.9106829 5.64033398 23.2073283 6.23592571 23.5051235 7.12414921 23.8017689 8.61140717 24.398509 9.50077824 24.99065 10.0952224 25.5873902 10.9845935 26.7774211 10.688519 27.9674521 10.0952224 27.9674521 9.20355617 28.2652473 7.71859336 28.5607429 6.82807471 29.157483 5.64033398 30.3463642 4.74981533 30.9419546 4.15651876 32.4297807 3.56207461 33.3220165 3.86044426"></polyline>
    </g>
</svg>