<?xml version="1.0" encoding="UTF-8"?>
<svg width="45px" height="78px" viewBox="0 0 45 78" version="1.1" xmlns="http://www.w3.org/2000/svg" xmlns:xlink="http://www.w3.org/1999/xlink">
    <!-- Generator: Sketch 50.2 (55047) - http://www.bohemiancoding.com/sketch -->
    <title>Moradabad</title>
    <desc>Created with Sketch.</desc>
    <defs></defs>
    <g id="Page-1" stroke="none" stroke-width="1" fill="none" fill-rule="evenodd">
        <polyline id="Moradabad" fill="#F4DDB5" fill-rule="nonzero" points="27.2713894 0.405865658 27.8817551 0.609191006 28.4929073 0.202540309 28.6958382 0 28.8995556 0.405865658 29.3062038 0.202540309 30.1202869 0.202540309 30.1202869 0.812516355 30.93437 1.01505666 31.5455222 1.21838201 31.3418048 2.03089837 31.9521704 2.43676403 33.1736883 2.84341472 34.598137 2.23422372 34.8010679 2.64008937 35.2085027 2.84341472 35.6159375 2.43676403 36.0225858 2.43676403 36.2263032 2.64008937 36.429234 3.45260573 36.6329514 3.65593108 37.2448902 3.85925643 38.0589733 4.26512208 37.6515384 5.28096379 37.8552559 6.09348014 38.6693389 6.4993458 39.0759872 7.10853681 39.0759872 7.92105316 39.6863528 8.53024417 39.483422 8.73356952 39.6863528 9.14022021 40.0937876 9.74941122 39.6863528 10.156847 39.8900702 10.3586022 40.0937876 10.766038 39.8900702 11.1719036 39.2797046 11.5785543 39.483422 11.7810946 39.483422 11.98442 39.2797046 12.1877453 40.5012225 12.1877453 41.1115881 11.98442 41.7219538 11.5785543 41.9256712 11.375229 42.3323194 11.7810946 43.1464025 11.98442 43.3501199 11.98442 43.5538373 11.375229 44.3671338 11.375229 44.5708512 12.1877453 43.7567682 12.7969363 43.9604856 12.9994766 43.9604856 13.812778 43.3501199 14.0161034 42.7397542 14.8278347 41.9256712 15.6403511 42.128602 15.8436764 41.7219538 16.6554077 41.5182364 17.4687091 40.9078707 17.4687091 40.5012225 17.6720345 41.1115881 18.4837658 40.7041533 19.0929568 40.9078707 19.9062582 40.7041533 20.5154492 40.5012225 20.9213148 40.2975051 20.9213148 39.6863528 21.5305058 39.2797046 21.7338312 38.6693389 22.1396969 38.2619041 22.9529982 39.2797046 23.5621893 39.6863528 23.7655146 39.6863528 25.1864369 40.0937876 25.796413 40.2975051 26.2022786 40.2975051 26.405604 40.9078707 27.014795 39.8900702 28.0306367 39.8900702 28.4380724 39.483422 29.6564544 39.0759872 30.2656454 40.0937876 31.2814871 40.7041533 31.2814871 40.9078707 32.2965438 40.5012225 32.9057348 40.5012225 33.7182512 41.1115881 33.9223616 41.7219538 33.9223616 43.1464025 34.5315526 42.5360368 35.3432839 42.5360368 36.1558002 43.3501199 36.3591256 43.7567682 36.3591256 44.3671338 36.5624509 44.978286 37.1716419 44.978286 37.5782926 44.5708512 37.781618 43.9604856 38.1874836 44.3671338 38.999215 44.164203 39.2025403 43.3501199 39.4066507 42.9426851 39.8117313 43.1464025 40.218382 43.3501199 40.218382 43.5538373 39.609191 44.164203 40.6250327 44.3671338 41.0308984 44.5708512 41.2342237 44.5708512 41.6400894 44.7745686 41.8434147 43.9604856 42.2492804 43.5538373 42.6559311 42.9426851 43.0625818 42.7397542 43.2651221 42.7397542 43.8743131 41.9256712 44.4835041 41.7219538 44.8901548 41.5182364 45.4993458 41.7219538 45.9052115 41.7219538 46.3118622 41.314519 46.7185129 40.0937876 47.1243785 39.483422 46.9210532 38.8722698 47.1243785 38.4656215 47.5302442 38.0589733 47.7335695 37.8552559 47.3284889 36.8374554 47.9384649 36.6329514 47.3284889 36.0225858 47.1243785 35.8188684 46.5144025 36.0225858 46.1093218 36.429234 45.7026711 36.0225858 45.2960205 36.0225858 44.8901548 35.4122201 44.6868294 34.8010679 45.0934801 34.598137 45.7026711 34.8010679 46.3118622 35.0047853 46.7185129 35.0047853 47.3284889 34.8010679 47.3284889 34.3944196 48.1394352 34.1907022 48.547656 34.598137 49.156847 34.3944196 49.766038 34.3944196 50.5785543 34.598137 50.7810946 34.8010679 50.7810946 35.2085027 51.3902856 36.6329514 52.812778 36.6329514 53.421969 37.0411728 54.0319451 37.447821 54.4378107 38.6693389 55.0470018 38.4656215 56.0620584 38.6693389 56.2653838 39.0759872 56.4687091 39.6863528 56.4687091 39.8900702 56.8745748 39.8900702 57.4845508 40.7041533 58.2970672 40.9078707 58.9062582 40.7041533 59.1087985 40.7041533 60.1246402 39.8900702 60.1246402 39.8900702 60.7346162 40.2975051 61.9529982 40.5012225 62.3588639 40.7041533 62.5621893 40.7041533 63.1721653 40.2975051 63.1721653 40.0937876 63.3747056 40.2975051 63.578031 40.0937876 64.187222 39.8900702 64.187222 39.483422 64.3905473 38.8722698 65.6089293 38.8722698 66.2181203 38.4656215 66.623986 38.0589733 66.4214457 38.0589733 66.2181203 37.447821 66.4214457 37.0411728 66.2181203 37.447821 65.8114696 37.447821 65.6089293 36.8374554 65.8114696 36.8374554 66.014795 36.2263032 66.4214457 35.8188684 66.2181203 35.4122201 65.8114696 35.4122201 65.6089293 35.0047853 65.8114696 34.3944196 66.4214457 33.5803366 66.4214457 33.1736883 67.2347471 32.9699709 67.4372874 32.7662535 67.2347471 31.9521704 67.6398277 31.5455222 67.6398277 31.3418048 68.0472634 30.93437 68.2505888 30.7314391 68.4531291 29.917356 68.2505888 29.7136386 68.4531291 29.5099212 69.0631051 29.5099212 69.4689708 29.3062038 69.8748365 28.4929073 70.6873528 28.4929073 71.4998692 28.0854725 72.1098452 27.6788242 72.3123855 27.2713894 72.3123855 27.2713894 72.1098452 26.8639546 71.7031945 26.4573064 71.4998692 26.0506581 71.7031945 26.0506581 71.9065199 26.4573064 72.5164959 26.0506581 73.3282272 25.8469407 73.9374182 25.4395059 74.3440689 25.2357885 74.3440689 25.2357885 74.1407436 24.2187746 74.1407436 24.2187746 73.9374182 23.4046915 74.3440689 22.7943259 74.5466092 22.386891 74.3440689 21.572808 74.7499346 21.1661597 75.1565853 21.1661597 75.3591256 20.9624423 75.7657763 19.5379936 77.1874836 19.1305588 76.9841583 18.7239105 76.9841583 18.1119718 77.5941343 17.7053235 77.7966747 16.0771574 77.7966747 15.6705091 77.5941343 14.856426 78 14.6527086 77.5941343 14.856426 77.1874836 14.2452738 76.5775076 13.6349082 76.7808329 12.006742 76.9841583 11.8038112 76.5775076 11.3963764 76.1716419 10.7860107 76.1716419 9.97192765 76.3749673 9.76821024 75.9683166 9.36156198 75.7657763 8.95412717 75.9683166 8.14004411 75.9683166 7.9363267 75.5624509 7.12224364 74.7499346 7.12224364 74.1407436 6.30894712 73.9374182 5.90151231 73.7340929 6.10522972 73.1249019 6.30894712 72.7190362 6.71559538 71.7031945 6.51187798 71.0940035 6.30894712 70.8906782 5.90151231 70.2814871 5.69779491 70.0781618 5.29114665 69.8748365 4.06962878 69.0631051 3.45926312 68.8597798 3.25554571 68.4531291 3.86669793 67.6398277 3.45926312 66.8280964 3.05261486 66.623986 2.03481439 66.8280964 1.22073132 67.2347471 0.814083066 67.0306367 0 66.4214457 0.814083066 66.014795 1.62737958 65.2022786 1.42444873 64.5930876 1.42444873 63.9838966 1.83109698 63.3747056 1.83109698 62.5621893 1.22073132 62.1555386 1.01701392 61.7496729 1.22073132 61.1404819 1.62737958 60.9371565 2.03481439 60.5305058 2.03481439 60.3279655 2.23853179 60.1246402 2.03481439 59.7187745 2.03481439 58.4996075 2.44146264 58.2970672 2.44146264 58.0945269 2.84889745 56.8745748 3.25554571 56.4687091 2.03481439 55.8595181 2.44146264 54.8436764 2.23853179 54.6411361 2.03481439 54.2344854 1.62737958 54.2344854 1.42444873 54.0319451 1.01701392 54.2344854 1.01701392 53.421969 1.22073132 52.812778 1.01701392 52.4061273 0.814083066 51.7969363 1.01701392 51.3902856 1.01701392 51.1877453 1.22073132 50.375229 1.62737958 49.9685783 1.83109698 49.5627126 1.83109698 48.547656 1.62737958 48.3443306 1.01701392 47.9384649 1.01701392 47.5302442 1.83109698 46.7185129 1.83109698 46.3118622 1.62737958 45.7026711 1.62737958 45.0934801 1.42444873 44.8901548 1.22073132 44.4835041 1.22073132 44.2809638 1.01701392 44.0776384 1.42444873 43.4684474 2.44146264 42.6559311 2.23853179 41.6400894 2.23853179 41.436764 1.62737958 41.436764 1.42444873 40.827573 2.23853179 40.218382 2.84889745 39.8117313 3.05261486 40.4217074 3.45926312 40.6250327 3.66298052 40.4217074 4.27334618 39.609191 4.67999444 40.0158417 4.88371184 40.4217074 5.4940775 40.827573 6.10522972 40.827573 6.51187798 40.6250327 7.12224364 40.218382 7.32596104 40.4217074 7.9363267 40.827573 8.34376151 41.6400894 8.75040977 41.436764 9.15784458 41.436764 9.56449284 41.8434147 10.3785759 42.4526057 10.5822933 42.4526057 11.1934455 42.045955 12.8208251 42.045955 12.8208251 41.2342237 13.0245425 40.827573 13.4319773 40.4217074 14.042343 40.0158417 14.2452738 40.218382 14.6527086 40.4217074 14.856426 40.218382 15.2630743 39.2025403 15.6705091 39.4066507 15.87344 39.8117313 16.687523 39.609191 16.8912404 39.4066507 17.0949578 38.999215 17.5016061 38.999215 17.9090409 38.5933493 17.2986752 37.3741823 17.0949578 36.5624509 17.5016061 36.3591256 18.1119718 35.3432839 18.5201931 35.3432839 18.9268414 35.1407436 18.3164757 34.5315526 17.7053235 33.3123855 18.3164757 31.8906782 17.2986752 31.2814871 16.8912404 30.8748365 17.9090409 29.6564544 17.9090409 29.0464784 18.9268414 28.4380724 18.7239105 28.233177 17.2986752 27.8273113 16.2808748 27.623986 16.4845922 27.2181203 16.2808748 26.6089293 15.6705091 26.405604 15.2630743 27.014795 13.2282599 27.014795 12.8208251 27.2181203 12.6171077 27.8273113 12.4141768 27.8273113 12.006742 27.014795 11.6000938 26.6089293 11.8038112 25.1864369 11.8038112 24.9838966 10.175645 24.9838966 9.97192765 24.5772459 10.175645 23.7655146 10.3785759 23.1563236 10.7860107 22.7488879 11.1934455 22.5463476 11.3963764 21.9371565 12.4141768 22.1396969 12.6171077 21.9371565 13.0245425 21.3279655 13.2282599 21.1246402 13.4319773 20.7187745 13.6349082 20.5154492 13.6349082 20.1095835 13.8386256 19.7029328 13.6349082 19.4996075 13.2282599 18.8904165 13.0245425 18.6870911 12.6171077 18.4837658 12.006742 17.8745748 11.1934455 17.6720345 10.5822933 17.2653838 10.5822933 16.8595181 10.7860107 16.6554077 12.006742 17.0620584 13.4319773 16.2495421 13.8386256 16.0462167 14.2452738 16.0462167 15.4667917 15.8436764 16.0771574 15.8436764 16.2808748 15.6403511 16.687523 15.6403511 17.5016061 15.03116 17.5016061 14.8278347 17.0949578 14.2186437 17.9090409 13.812778 18.1119718 13.4061273 18.5201931 13.4061273 19.5379936 12.9994766 20.3520767 12.1877453 20.7587249 11.5785543 20.9624423 10.9693633 20.9624423 10.766038 20.5557941 10.5619276 19.9454284 10.766038 18.9268414 9.95273657 20.5557941 9.14022021 20.9624423 9.54608587 21.1661597 9.14022021 21.1661597 8.93689487 20.9624423 8.53024417 20.5557941 8.53024417 20.7587249 8.12516355 21.1661597 7.92105316 21.572808 7.10853681 22.386891 7.10853681 23.6084089 6.70267115 24.0150572 6.09348014 24.0150572 5.89015479 24.2187746 5.68682945 24.2187746 5.07763844 23.4046915 5.68682945 22.5906084 6.09348014 22.386891 5.68682945 22.5906084 5.48428914 22.5906084 4.67098774 23.4046915 3.85925643 23.8113398 3.25006542 24.0150572 2.84341472 23.8113398 2.23422372 24.6254228 1.82757302 24.8291402 1.62424767 25.2357885 1.01505666 25.4395059 0.812516355 25.6432233 0.812516355 26.0506581 1.01505666 26.4573064 1.01505666 26.8639546 0.405865658 27.2713894 0.405865658"></polyline>
    </g>
</svg>