<?xml version="1.0" encoding="UTF-8"?>
<svg width="123px" height="78px" viewBox="0 0 123 78" version="1.1" xmlns="http://www.w3.org/2000/svg" xmlns:xlink="http://www.w3.org/1999/xlink">
    <!-- Generator: Sketch 50.2 (55047) - http://www.bohemiancoding.com/sketch -->
    <title>Muraffarnagar</title>
    <desc>Created with Sketch.</desc>
    <defs></defs>
    <g id="Page-1" stroke="none" stroke-width="1" fill="none" fill-rule="evenodd">
        <polyline id="Muraffarnagar" fill="#F4DDB5" fill-rule="nonzero" points="5.09656546 5.08675707 7.8149088 5.42622372 10.1931309 5.42622372 11.8924238 4.7486011 14.9508884 4.7486011 15.9699388 3.73151182 17.3277973 3.39204517 18.6882822 4.40913445 19.7073326 5.76700106 21.7480599 6.10384635 22.7671104 7.46171296 24.4650901 7.12355699 25.4854537 6.443313 25.8242617 6.10384635 27.1834334 8.47880224 27.8636759 9.83535817 29.2228475 10.5129808 31.2609484 10.5129808 32.2813121 10.8524474 32.6201201 11.1906034 33.9792918 12.2090034 36.6976351 10.8524474 38.396928 11.1906034 41.1152713 10.1735141 42.474443 9.15642486 43.8336147 7.79986893 44.5125439 6.443313 45.8717156 5.76700106 49.2703014 9.15642486 50.2893518 10.8524474 51.3097155 12.2090034 53.0090084 12.54847 54.36818 12.886626 56.4062809 13.2260927 59.1246243 11.1906034 61.8429676 13.2260927 63.5422605 13.905026 66.2606038 15.2602712 67.2796543 17.2944498 67.6197755 18.991783 68.9789472 19.329939 69.9979976 21.0272723 69.9979976 22.7246055 72.3762198 22.0443615 73.7353914 21.0272723 74.0755126 19.329939 75.0945631 17.9733831 76.793856 17.2944498 78.1530277 17.2944498 79.5121993 16.2773605 81.2114922 15.6010485 82.2318559 14.5826486 83.5910276 13.905026 84.610078 12.886626 85.6291285 11.5300701 86.6494921 10.5129808 88.0086638 9.83535817 89.3665222 10.5129808 90.0467647 8.81826889 90.7256939 7.46171296 91.7460576 6.10384635 92.4249868 6.443313 93.7841585 6.78277965 96.5025018 5.42622372 98.5406027 5.76700106 99.5609664 4.7486011 100.239896 3.39204517 101.599067 3.05257851 103.29836 3.39204517 104.317411 2.37364521 105.676582 1.35655593 109.075168 0 110.43434 0 110.773148 1.35655593 110.773148 3.05257851 112.132319 4.06966779 112.812562 5.42622372 112.812562 7.12355699 112.472441 8.47880224 112.472441 10.1735141 113.153996 11.5300701 111.792198 12.54847 109.754097 12.54847 109.413976 14.5826486 110.43434 16.2773605 110.773148 16.2773605 111.792198 16.9562938 112.472441 18.311539 113.492804 19.6694057 115.532218 19.6694057 116.89139 20.0088723 118.250562 21.0272723 118.250562 22.7246055 118.58937 22.7246055 117.570319 23.7403841 115.871026 24.4180068 114.851976 25.435096 113.832926 27.1311186 113.832926 28.8271412 114.851976 31.2020971 113.832926 32.5573423 113.832926 37.6440994 114.173047 39.6795886 115.532218 40.6953672 116.89139 41.3743005 117.231511 43.4084791 116.89139 44.765035 116.89139 46.801835 117.231511 48.1583909 118.250562 50.5294147 118.58937 52.5662146 118.58937 56.2964158 118.250562 57.9924384 117.910441 60.3660836 118.929491 61.7226395 120.288663 63.0791954 121.987956 64.0962847 122.328077 66.8093966 122.328077 68.5054192 121.987956 70.2001311 122.328077 70.8790644 121.647834 70.2001311 119.949855 69.8619751 117.910441 70.5395977 116.551269 69.8619751 114.851976 69.8619751 112.132319 69.1830418 110.43434 69.8619751 109.075168 69.1830418 107.375875 69.5225084 106.356825 70.2001311 105.337774 71.8961537 103.29836 72.575087 101.599067 72.575087 99.9010876 73.2527096 98.5406027 73.9303322 96.5025018 73.9303322 95.1433301 72.9132429 93.4440373 72.236931 91.7460576 72.575087 90.3868859 73.2527096 88.687593 73.2527096 87.3284213 73.5921762 85.2890072 74.9487322 83.2509063 76.9829107 81.8904215 77.661844 81.8904215 78 81.5516134 76.3052881 81.8904215 74.6092655 80.871371 73.2527096 79.5121993 73.2527096 77.8129064 72.575087 76.4537348 71.8961537 75.0945631 72.236931 73.3965834 71.8961537 72.0374117 70.5395977 70.6769269 70.2001311 68.638826 69.8619751 66.9395331 71.218531 65.5803614 71.8961537 64.2211897 72.236931 63.2021393 70.8790644 63.5422605 69.1830418 63.2021393 67.8264859 61.5028464 67.1488632 60.1436747 67.8264859 59.4647455 67.8264859 57.7654526 68.5054192 56.4062809 69.5225084 55.0471093 70.8790644 55.0471093 72.236931 53.6892508 73.2527096 51.6498367 73.2527096 50.2893518 74.2697989 49.9492306 75.2868881 47.5710085 72.9132429 45.8717156 72.9132429 44.1724227 72.236931 43.1533722 71.218531 40.4350289 69.8619751 38.0568068 68.8435751 36.6976351 68.8435751 34.319413 69.1830418 32.6201201 69.1830418 30.9208272 68.1659525 29.5629687 68.8435751 28.2024839 67.8264859 26.8433122 67.4883299 25.1453325 66.8093966 23.7861608 67.1488632 22.0868679 67.1488632 20.3888883 66.8093966 19.0270902 65.7923073 17.3277973 64.7739073 15.9699388 64.7739073 14.6107672 65.4528407 12.9114743 65.7923073 9.51420169 65.113374 8.49383803 63.4186621 7.47478758 61.3831729 4.75644424 62.7397288 5.09656546 61.7226395 5.09656546 58.670061 4.75644424 56.2964158 4.75644424 54.9398599 5.09656546 53.245148 5.09656546 50.8688814 4.75644424 49.5123255 4.07751501 47.4781469 5.09656546 46.121591 6.79585835 45.4426577 6.45573713 44.0874124 5.7768079 42.7308565 4.75644424 41.7124565 3.39727257 40.0177446 3.05715135 38.3230327 2.37822212 37.3046328 1.35917167 35.9493875 1.35917167 30.5218531 2.0381009 29.1652972 2.0381009 25.0956294 1.35917167 24.0785401 0.338808011 22.7246055 0 21.3680496 0.338808011 18.311539 0 16.6168271 0 13.5655593 0.678929231 11.8695367 0.678929231 10.1735141 1.01905045 8.47880224 2.0381009 7.12355699 3.73739379 6.443313 5.09656546 5.08675707"></polyline>
    </g>
</svg>