<?xml version="1.0" encoding="UTF-8"?>
<svg width="55px" height="78px" viewBox="0 0 55 78" version="1.1" xmlns="http://www.w3.org/2000/svg" xmlns:xlink="http://www.w3.org/1999/xlink">
    <!-- Generator: Sketch 50.2 (55047) - http://www.bohemiancoding.com/sketch -->
    <title>Rampur</title>
    <desc>Created with Sketch.</desc>
    <defs></defs>
    <g id="Page-1" stroke="none" stroke-width="1" fill="none" fill-rule="evenodd">
        <polyline id="Rampur" fill="#F4DDB5" fill-rule="nonzero" points="13.0259059 2.85982248 13.2866656 2.08005359 13.5474254 1.56054262 14.0679381 1.56054262 14.0679381 2.08005359 14.8492105 3.12008039 15.6314898 2.34031151 16.4127622 3.12008039 17.4547944 2.85982248 17.4547944 1.56054262 17.7145474 0.259253056 19.0173393 0 20.0593715 0.51951097 20.840644 1.81979568 21.8826762 2.59956456 23.7059808 2.85982248 24.7500266 3.37933344 25.0087727 4.67961815 26.0518117 5.45938704 27.0938439 5.45938704 27.8751164 6.49941383 27.8751164 7.79969854 27.6153634 8.83972534 28.1358761 10.14001 29.1779083 10.659521 29.4386681 11.9588009 29.4386681 13.2600904 28.6573956 14.2991124 28.9171486 15.340144 30.2199405 15.5993971 31.0022198 14.8196282 32.3040049 14.2991124 33.8675566 14.8196282 34.3880693 15.5993971 34.9095888 15.8586501 36.9926464 16.3801708 38.2954384 16.9006867 40.118743 18.7204823 40.9010223 19.7605091 41.9430545 20.540278 42.7243269 21.5803048 44.0261121 22.0998158 45.328904 21.8395579 46.3709362 19.7605091 47.9344879 19.5002512 48.7167671 20.020767 50.0195591 20.020767 51.322351 20.2800201 52.1036235 21.3200469 52.8848959 22.0998158 53.4054086 23.4001005 53.6661684 24.4401273 54.1876879 25.999665 54.4484476 27.0406967 54.1876879 28.3399766 53.4054086 29.1197454 52.1036235 29.3800033 50.8008315 29.8995143 51.0615913 31.199799 52.1036235 31.9795679 52.8848959 31.9795679 52.6241362 33.0195947 52.8848959 34.0596215 53.6661684 35.0996483 52.3633764 35.3589014 50.5400718 35.3589014 50.0195591 37.1797019 51.0615913 38.2187238 51.0615913 39.5200134 49.7587993 39.7792665 49.2382866 39.7792665 48.4560074 39.5200134 47.1522086 40.0395244 47.9344879 41.080556 48.4560074 42.1205828 47.4129684 43.1616145 46.1101764 44.2006364 45.069151 44.4598895 43.7663591 44.7201474 42.7243269 45.761179 42.7243269 46.800201 42.2028074 48.1004857 41.1607752 48.8802546 40.6402625 50.9603082 40.118743 52.5198459 39.8579833 54.0803885 38.8169579 54.5998995 37.5141659 55.1204153 36.9926464 56.161447 36.4721337 57.4607268 35.9506142 59.0202646 35.1693418 60.0592866 34.1273096 60.8400603 33.3460371 62.140345 32.5647647 62.9201139 31.5227325 62.9201139 30.4807003 63.9591358 28.9171486 64.2214035 27.6153634 64.2214035 27.6153634 65.7809412 26.8330842 66.820968 26.0518117 67.6007369 25.531299 69.1602747 24.48826 69.6807905 24.2275003 69.6807905 23.1854681 69.9400435 21.8826762 70.2003015 21.1014037 71.2403283 19.5388588 71.5005862 17.7145474 71.2403283 17.1940347 72.280355 16.9332749 73.3203818 16.1520025 74.3604086 14.5894576 74.6216714 13.0259059 74.6216714 11.4623542 77.2202311 10.6810817 78 9.63904953 78 8.85777708 77.7397421 8.33726438 76.4404622 7.55498513 75.4004354 6.25319998 74.3604086 5.47192753 73.5806398 5.99244023 73.0601239 5.99244023 72.280355 6.77371268 70.7208173 7.29523218 70.4605594 7.55498513 70.4605594 7.81574488 69.6807905 7.55498513 69.4205326 7.81574488 69.1602747 8.33726438 69.1602747 8.33726438 68.3805058 8.07650463 68.1212527 7.81574488 67.6007369 7.29523218 66.0411991 7.29523218 65.2604254 8.33726438 65.2604254 8.33726438 63.9591358 8.59701733 63.6998828 8.33726438 62.9201139 7.29523218 61.8800871 7.29523218 61.0993133 7.03447243 60.5798024 6.25319998 60.5798024 5.73168048 60.3195445 5.47192753 60.0592866 5.73168048 58.7600067 4.16913559 57.9802378 3.64761609 57.4607268 3.12710339 56.6799531 3.12710339 55.9001842 1.30379874 54.0803885 0.78127245 53.2996148 0.520512702 53.2996148 0.259752954 53.0403617 0.259752954 52.000335 0.520512702 51.2205661 0 50.4407972 0.259752954 49.9202814 0.78127245 48.8802546 1.04303899 48.8802546 1.04303899 48.1004857 0.78127245 47.5799699 0.520512702 46.800201 0.78127245 46.0204321 1.56355169 45.5009211 2.34482414 45.761179 2.34482414 46.28069 2.86634364 46.800201 2.34482414 47.3207168 2.08507119 47.8402278 2.34482414 48.6199967 3.12710339 48.8802546 3.38786314 49.6610283 4.68964829 48.8802546 4.95040804 49.3997655 5.47192753 49.1405125 5.99244023 48.6199967 6.77371268 48.3597387 7.55498513 48.6199967 9.11853683 48.1004857 9.63904953 47.5799699 9.63904953 47.0604589 9.37929657 46.5409479 9.63904953 45.761179 9.89980928 45.2406632 10.9418415 44.4598895 10.9418415 43.6801206 11.2026012 43.4208675 11.9838737 42.9003517 12.5053932 42.3808407 13.5474254 41.8603249 13.2866656 41.600067 13.2866656 41.080556 13.0259059 40.8202981 12.7651461 40.3007871 11.9838737 38.9994976 11.7231139 39.7792665 11.4623542 39.7792665 11.2026012 39.2597555 11.7231139 38.7402445 12.7651461 38.4789817 13.0259059 38.2187238 12.5053932 37.1797019 13.2866656 36.6601909 13.8071783 36.399933 13.8071783 35.8794172 13.0259059 35.0996483 12.2446334 34.8403952 11.7231139 34.8403952 10.6810817 34.5791325 10.6810817 33.5391057 11.4623542 32.5000837 9.63904953 31.7203149 8.85777708 31.7203149 8.07650463 31.4590521 8.07650463 30.4200301 8.59701733 29.6392564 8.33726438 28.3399766 7.55498513 28.3399766 6.25319998 27.0406967 6.77371268 26.259923 7.29523218 24.7003852 7.29523218 24.1798694 8.59701733 22.8795847 7.81574488 22.0998158 7.81574488 21.8395579 7.55498513 21.3200469 7.03447243 20.540278 7.03447243 18.7204823 6.51395973 18.4602244 5.21116778 17.6804555 5.73168048 16.6404287 6.51395973 16.1209178 7.03447243 15.8586501 7.81574488 15.0798861 8.07650463 15.0798861 8.33726438 14.5593703 8.59701733 13.7796014 8.33726438 12.7385698 8.85777708 11.9588009 8.07650463 10.9197789 8.59701733 10.659521 9.37929657 10.659521 9.63904953 9.61949422 10.160569 8.57946743 9.89980928 8.32021437 10.9418415 7.27918272 11.7231139 6.24016078 12.5053932 5.97990286 12.5053932 4.93987607 12.2446334 4.67961815 13.2866656 3.89984927 13.0259059 2.85982248"></polyline>
    </g>
</svg>