<?xml version="1.0" encoding="UTF-8"?>
<svg width="86px" height="78px" viewBox="0 0 86 78" version="1.1" xmlns="http://www.w3.org/2000/svg" xmlns:xlink="http://www.w3.org/1999/xlink">
    <!-- Generator: Sketch 50.2 (55047) - http://www.bohemiancoding.com/sketch -->
    <title>Shravasti</title>
    <desc>Created with Sketch.</desc>
    <defs></defs>
    <g id="Page-1" stroke="none" stroke-width="1" fill="none" fill-rule="evenodd">
        <polyline id="Shravasti" fill="#F4DDB5" fill-rule="nonzero" points="24.9664594 2.88888889 26.413689 3.61041331 28.2230757 4.69479334 30.031064 5.41631777 32.924125 6.86076221 34.7335117 7.58228663 35.8185843 9.02673108 38.7144419 11.1940955 40.5238286 12.63854 41.9724565 13.3600644 43.7818431 14.4444444 45.5898315 14.4444444 46.6749042 13.3600644 47.7599768 11.1940955 49.2072065 9.02673108 51.3773518 6.13923779 53.1867385 4.69479334 54.6339681 3.61041331 56.4433547 2.88888889 58.6135001 2.52742888 60.4228867 2.16596887 62.5944303 2.16596887 64.403817 2.88888889 66.2118053 2.88888889 67.659035 3.97187332 68.3819507 5.77777778 69.8305786 7.58228663 70.914253 9.38819109 73.0871949 10.4711755 74.8965815 10.8326355 77.0667269 10.8326355 78.8761135 11.91562 80.6841019 12.63854 82.1327298 13.3600644 83.9407181 14.4444444 85.7501048 15.1659689 85.3893461 15.8874933 85.3893461 17.6947933 85.0271891 18.0548578 85.0271891 18.4149222 84.6650321 18.4149222 84.6650321 20.2222222 83.9407181 20.2222222 83.5799594 20.5836822 83.2192008 21.3052067 82.4934885 21.6666667 82.1327298 22.0281267 81.4084158 22.3881911 81.0462588 22.0281267 80.3233432 22.0281267 79.9625845 22.3881911 79.5976309 22.3881911 79.5976309 22.7496511 79.2382705 23.8326355 78.8761135 23.8326355 78.5139565 24.1954911 78.5139565 25.2784756 77.7910408 25.2784756 77.4288839 25.63854 77.4288839 26 77.0667269 26 77.0667269 28.5274289 75.9816542 29.6118089 75.6194972 29.6118089 74.8965815 30.3333333 74.8965815 30.6947933 75.2573402 31.0548578 75.6194972 31.0548578 75.6194972 31.7777778 75.2573402 32.8607622 75.2573402 34.6652711 74.8965815 34.6652711 74.5344245 36.1111111 74.1722676 36.4711755 72.7236396 38.27708 71.638567 38.27708 71.2778083 38.6371444 70.5534943 38.9986044 70.1913373 39.3600644 70.1913373 40.4444444 70.914253 41.1659689 69.4684216 42.6104133 69.4684216 42.9704777 69.1062646 43.6933977 69.1062646 44.4149222 68.7441076 44.7763822 68.021192 46.2208266 67.659035 46.5822866 66.934721 46.9437466 65.8496483 46.9437466 64.403817 48.0267311 62.955189 49.4697799 62.955189 49.8312399 61.8701164 50.9142244 61.1472007 51.27708 60.7850437 51.6371444 60.7850437 52.7201288 61.1472007 53.0815888 61.1472007 53.8031133 61.8701164 54.5260333 61.8701164 54.8888889 62.2308751 55.2503489 62.2308751 56.6933977 62.5944303 57.0548578 62.955189 57.7763822 62.955189 58.1378422 63.679503 58.4993022 63.679503 59.5822866 64.0402617 60.6652711 64.403817 61.0267311 64.403817 61.3895867 64.7645757 61.7496511 64.403817 62.1097155 64.403817 64.6371444 65.1267327 64.9986044 65.4874914 65.3600644 65.4874914 66.4430488 65.1267327 66.8045089 65.1267327 67.5260333 64.7645757 67.8874933 64.7645757 70.0534622 64.403817 70.4163178 64.403817 70.7763822 64.7645757 71.4979066 64.7645757 72.2208266 65.1267327 72.5822866 65.8496483 72.5822866 66.2118053 72.942351 66.934721 73.6652711 66.934721 74.0253355 66.5739623 74.3867955 66.5739623 74.7482555 66.934721 75.1097155 67.296878 75.4711755 68.021192 75.8312399 67.659035 76.1926999 67.659035 76.55416 67.296878 76.9142244 67.296878 77.2756844 66.5739623 78 65.8496483 78 64.0402617 77.6371444 63.317346 76.55416 62.5944303 76.1926999 61.5079594 76.55416 60.0607297 76.9142244 59.337814 76.55416 59.337814 73.6652711 58.2513431 72.5822866 57.8905844 71.4979066 57.1662704 70.7763822 55.7204391 70.0534622 54.6339681 70.0534622 53.1867385 70.4163178 51.7395088 71.4979066 50.2922791 71.8593666 49.5693635 70.0534622 49.2072065 68.9732689 48.8464478 67.1659689 48.1207355 66.0829844 47.0356629 65.7215244 45.2276745 66.4430488 43.4182879 66.0829844 43.7818431 64.9986044 43.4182879 63.55416 41.9724565 63.1926999 40.8845873 63.1926999 39.7995146 63.55416 38.3508867 64.27708 37.265814 63.91562 37.265814 61.0267311 36.5428983 60.3052067 35.0970669 59.9451422 32.924125 61.3895867 32.5633663 62.8326355 32.2012093 63.91562 30.7525814 65.3600644 30.031064 63.91562 28.2230757 64.27708 27.1352064 65.3600644 25.3272181 65.3600644 24.6043024 64.6371444 23.5178314 63.1926999 23.1570727 62.4711755 24.2407471 63.55416 25.6893751 63.55416 25.3272181 62.1097155 25.3272181 59.5822866 24.2407471 58.4993022 18.4532268 58.4993022 17.7289128 57.4163178 16.2830815 57.0548578 13.7493808 57.0548578 11.9399942 56.6933977 10.8549215 55.9718733 10.1306076 54.8888889 10.4927646 53.4430488 11.2184768 52.7201288 11.2184768 52.3600644 11.5792355 50.9142244 11.2184768 49.8312399 10.4927646 48.7482555 9.40909018 48.0267311 7.95906394 45.8593666 8.32261922 44.7763822 9.76984887 44.4149222 10.8549215 44.4149222 10.4927646 42.2489533 10.4927646 41.8874933 10.1306076 41.1659689 10.1306076 40.0829844 10.8549215 38.6371444 12.6657065 37.55416 14.1115378 37.1940955 14.1115378 36.1111111 13.7493808 34.6652711 12.3021512 33.5822866 10.8549215 33.2208266 9.40909018 32.4993022 9.0455349 31.7777778 8.68477621 30.3333333 7.95906394 29.2489533 6.87399128 27.8045089 5.42676163 27.4444444 5.42676163 26 6.1510756 24.9170156 5.06460464 24.1954911 3.97953197 23.8326355 3.255218 23.1111111 3.61737499 21.6666667 3.97953197 20.5836822 3.61737499 19.1378422 1.44583136 15.8874933 1.08507267 14.8045089 0 13.3600644 0 12.27708 1.08507267 11.5555556 2.17014533 11.5555556 3.255218 11.91562 4.34168896 11.91562 5.06460464 11.1940955 7.23754655 11.91562 8.68477621 12.27708 9.40909018 11.5555556 9.40909018 10.4711755 10.1306076 9.38819109 13.0264652 10.1111111 14.8344535 8.30520666 14.8344535 7.22222222 14.4736948 6.13923779 14.4736948 3.97187332 14.8344535 2.16596887 15.9209245 2.16596887 16.2830815 0.722920021 17.0059971 0 18.0924681 0.361460011 18.4532268 1.44444444 18.8139855 3.61041331 19.1761425 5.05485776 20.6233721 5.77777778 22.4327588 5.41631777 24.9664594 2.88888889"></polyline>
    </g>
</svg>