<?xml version="1.0" encoding="UTF-8"?>
<svg width="97px" height="78px" viewBox="0 0 97 78" version="1.1" xmlns="http://www.w3.org/2000/svg" xmlns:xlink="http://www.w3.org/1999/xlink">
    <!-- Generator: Sketch 50.2 (55047) - http://www.bohemiancoding.com/sketch -->
    <title>Sitapur</title>
    <desc>Created with Sketch.</desc>
    <defs></defs>
    <g id="Page-1" stroke="none" stroke-width="1" fill="none" fill-rule="evenodd">
        <polyline id="Sitapur" fill="#F4DDB5" fill-rule="nonzero" points="26.7961218 9.16239694 27.0444649 8.41880153 27.0444649 7.428298 27.5392333 6.6856596 28.5316468 6.19088634 29.2776349 6.43779446 30.2681306 6.6856596 31.260544 6.43779446 31.758189 6.19088634 32.9979867 6.43779446 33.7420571 6.6856596 34.7344705 6.6856596 35.4785409 6.93352473 36.2226113 6.93352473 36.9666816 6.6856596 38.4567401 7.67616313 39.4491535 7.67616313 40.9372943 7.18043286 41.6823235 7.18043286 42.4263938 7.67616313 43.9145346 9.16239694 44.1628777 9.16239694 44.906948 9.65812721 45.9003203 8.91357479 46.6443907 8.41880153 47.1410768 7.92402827 47.3884611 7.18043286 47.6368041 6.43779446 47.8841884 5.69515607 48.3808745 5.1994258 50.1173583 5.1994258 50.6140445 3.96201413 51.1097718 3.21937574 52.1021852 2.72364547 52.8472144 2.97246761 53.838669 3.21937574 55.0794255 2.97246761 56.5685251 1.4852768 57.0642524 0.742638398 57.3116366 0.247865135 58.0566659 0 58.8016951 0.742638398 60.2907947 1.23836867 60.2907947 2.72364547 60.0424516 3.714149 60.5381789 4.4567874 62.2765804 4.4567874 63.0196919 4.70465253 63.7637623 5.1994258 65.251903 5.44824794 65.9969323 4.95251767 66.2452753 4.95251767 66.7410026 4.70465253 67.485073 4.95251767 68.2301022 5.69515607 68.4774864 6.43779446 69.4708587 7.428298 70.2139703 8.66666667 71.2063837 8.41880153 72.1987971 7.67616313 73.1912106 8.1718934 73.4395537 8.91357479 74.6803102 9.90503534 75.4253394 10.1519435 76.1684509 10.1519435 76.9125213 9.90503534 77.9049347 9.65812721 78.6490051 9.65812721 79.3940343 9.90503534 79.8907205 10.6476737 79.8907205 11.8850854 79.1456912 12.3808157 77.9049347 12.3808157 77.1608644 12.8765459 77.1608644 13.6191843 77.9049347 14.1139576 78.6490051 14.3627797 79.8907205 14.3627797 80.6347908 14.1139576 81.1305181 14.3627797 81.8745885 14.6087309 82.3722335 15.1044611 82.3722335 17.0854682 82.8670019 17.8281066 82.8670019 19.3133834 83.8603742 20.0560218 84.8537465 20.0560218 85.1011308 20.8005742 85.1011308 22.5337161 85.5968581 23.2763545 86.5902304 23.5242197 87.3333419 24.0189929 87.3333419 25.0094965 88.327673 26.9905035 88.5740984 27.7340989 88.0783711 29.2193757 88.0783711 31.2003828 88.5740984 32.4377945 88.8224415 33.429255 88.0783711 33.9249853 87.830028 34.6666667 89.0707845 35.9040783 89.3181688 36.8955389 89.0707845 37.6381773 88.327673 38.3808157 87.830028 39.1244111 87.5816849 40.1149146 87.5816849 41.1044611 87.830028 41.6001914 88.0783711 41.8470995 88.8224415 41.6001914 89.5684295 41.8470995 90.5598841 41.6001914 91.0556114 42.0949647 91.3039545 43.0854682 91.5513387 43.8281066 92.2954091 44.0759717 93.2878225 44.570745 93.7845087 45.0674323 94.0328518 45.8100707 94.0328518 46.5527091 94.2811948 47.2963045 95.2726494 47.7910777 95.7693356 48.7815813 96.0176786 49.2763545 96.5143648 50.5156802 96.761749 51.2573616 96.2650629 52.000957 96.2650629 53.7331419 96.761749 53.9810071 96.5143648 54.4767373 95.5219513 55.715106 94.7769221 56.4577444 93.7845087 56.7065665 93.2878225 57.4482479 93.2878225 58.6856596 93.0413972 59.429255 92.5437522 60.1718934 92.0480249 59.9240283 91.8006406 59.6761631 91.0556114 58.9335247 90.3115411 59.429255 89.3181688 59.429255 89.0707845 58.4377945 89.0707845 57.2003828 89.3181688 56.2098793 90.063198 55.4672409 89.8148549 54.4767373 89.3181688 54.2288722 88.5740984 53.9810071 88.0783711 52.9905035 88.327673 52.000957 87.830028 51.7530919 86.8376146 51.7530919 86.0945031 52.4957303 85.5968581 53.2383687 84.3570604 53.4862338 83.61299 53.7331419 83.1163039 54.2288722 82.6196177 55.2193757 82.3722335 55.715106 82.1219727 56.4577444 82.8670019 57.2003828 81.3798201 57.9430212 81.3798201 58.6856596 82.3722335 59.1813899 81.3798201 60.1718934 81.1305181 60.6666667 80.3864478 61.1623969 80.1390635 62.1529005 78.898307 63.143404 77.9049347 62.1529005 77.6585094 60.9145318 76.9125213 60.4188015 76.1684509 60.1718934 75.1760375 60.4188015 74.4319671 60.9145318 73.1912106 59.6761631 71.9514129 59.429255 71.2063837 60.1718934 70.4623133 60.6666667 69.2215568 60.9145318 69.7172841 61.6571702 69.4708587 62.3998086 68.7258295 62.8964959 67.7334161 63.8860424 67.2367299 64.6286808 66.2452753 64.8755889 65.5002461 64.6286808 65.251903 63.8860424 64.5078327 63.8860424 63.5154192 64.6286808 62.2765804 64.3808157 61.5305923 63.8860424 60.5381789 63.3903121 59.7941085 63.3903121 59.5448066 64.1329505 58.8016951 64.3808157 58.0566659 64.1329505 57.5609386 66.1139576 56.8159093 66.6096879 56.071839 66.6096879 55.5761117 67.3523263 55.5761117 68.0949647 55.8234959 68.8395171 55.8234959 69.5831125 55.3287275 71.0674323 55.0794255 71.5631625 54.5827394 71.5631625 54.0879709 71.8100707 53.3429417 72.0579358 52.3505283 72.3058009 51.854801 73.0484393 51.6074168 74.0389429 51.1097718 74.5337161 50.3657014 75.0294464 49.621631 75.2782686 48.6292176 75.2782686 47.6368041 76.7625883 47.1410768 77.2573616 46.1477045 78 45.1552911 78 44.4112207 77.2573616 44.1628777 76.7625883 43.9145346 76.7625883 44.1628777 75.5242197 45.1552911 74.5337161 45.6519772 73.7910777 45.4036342 73.0484393 45.1552911 72.3058009 44.906948 71.5631625 44.4112207 70.8195671 44.4112207 70.0769287 43.9145346 68.8395171 42.92308 69.0873822 42.6747369 68.3428298 42.1790096 67.8490135 41.4339804 68.0949647 40.441567 67.8490135 40.1932239 67.1044611 39.2008104 66.6096879 38.706042 66.1139576 38.208397 65.3713192 37.2150247 65.8670495 36.9666816 66.6096879 36.2226113 66.6096879 34.9818547 65.3713192 34.2377844 65.8670495 33.2453709 66.1139576 32.5013006 65.6191843 32.2539163 64.8755889 32.0055733 64.1329505 31.758189 63.143404 31.260544 62.8964959 30.7648167 62.3998086 30.7648167 62.1529005 30.2681306 61.6571702 29.5240602 61.4093051 28.2833037 61.9050353 27.2918491 61.6571702 26.5468199 61.4093051 26.0510926 60.9145318 25.3060634 60.4188015 23.5695796 60.4188015 22.578125 60.6666667 22.0823977 61.1623969 21.8330958 62.1529005 20.344955 62.1529005 19.3525416 62.6476737 18.8558554 62.6476737 18.1117851 62.1529005 18.1117851 61.4093051 18.6084712 60.6666667 18.8558554 59.9240283 18.8558554 58.9335247 18.6084712 58.1908863 18.1117851 57.4482479 16.8710285 56.2098793 16.3762601 55.4672409 15.3828878 54.9715106 13.3971021 54.9715106 13.6454451 53.9810071 13.8947471 53.2383687 13.8947471 52.2478651 13.6454451 51.5061837 13.3971021 50.7625883 13.148759 49.7720848 12.4046886 49.2763545 11.6615771 48.5337161 11.6615771 47.7910777 11.9089613 47.0484393 11.6615771 46.3048439 10.9165479 45.3152974 9.42744828 44.3247939 8.43503484 43.8281066 7.9402664 43.3323763 7.69096447 42.5897379 6.20186488 42.0949647 5.45779451 41.6001914 4.71372414 40.856596 4.96206722 40.1149146 4.96206722 39.3713192 4.71372414 38.3808157 2.48055418 36.8955389 1.73648381 36.1519435 2.23412881 34.6666667 2.72889726 33.9249853 2.97724033 33.1804329 3.2255834 32.1908863 3.47296762 31.2003828 3.7213107 30.4577444 3.96965377 29.714149 3.2255834 29.2193757 2.23412881 29.4662839 1.48814074 29.4662839 0.744070369 28.9715106 0.495727295 28.7236455 0 28.4757803 0.248343074 27.7340989 0.248343074 26.7445524 0 25.5052267 0.495727295 24.5147232 0.993372297 24.0189929 1.48814074 23.0294464 1.48814074 22.285851 1.24075652 21.0474823 0.993372297 20.3048439 1.73648381 19.8091137 2.72889726 18.3228799 3.2255834 17.0854682 3.7213107 16.3418728 4.46633992 15.8480565 6.20186488 15.1044611 9.18006406 14.1139576 9.67579136 12.6277238 10.9165479 12.1329505 11.9089613 11.8850854 12.1563455 11.3903121 12.6539905 10.8945819 14.1411724 10.3998086 14.3895155 9.40930506 15.3828878 9.16239694 16.1269582 8.91357479 17.1193716 9.16239694 17.6160578 10.1519435 18.1117851 10.8945819 18.3601281 11.3903121 19.1041985 11.8850854 19.6008846 12.8765459 21.8330958 13.6191843 22.578125 13.3713192 23.3231542 12.8765459 24.3146088 12.6277238 25.0586792 10.3998086 25.8037084 9.65812721 26.7961218 9.40930506 26.7961218 9.16239694"></polyline>
    </g>
</svg>