<?xml version="1.0" encoding="UTF-8"?>
<svg width="78px" height="87px" viewBox="0 0 78 87" version="1.1" xmlns="http://www.w3.org/2000/svg" xmlns:xlink="http://www.w3.org/1999/xlink">
    <!-- Generator: Sketch 50.2 (55047) - http://www.bohemiancoding.com/sketch -->
    <title>Sonbhadra</title>
    <desc>Created with Sketch.</desc>
    <defs></defs>
    <g id="Page-1" stroke="none" stroke-width="1" fill="none" fill-rule="evenodd">
        <polyline id="Sonbhadra" fill="#F4DDB5" fill-rule="nonzero" points="36.7970318 2.15938337 37.9780471 1.37304904 39.5522273 0.390890135 40.53628 0.390890135 41.1264075 0 41.7165349 0.588232728 42.1096997 0.785575321 42.503625 1.57115064 42.3066624 2.35520794 42.3066624 2.94495869 42.6998272 3.33888487 42.8975503 4.31952575 42.8975503 6.08650096 43.0937524 7.06865987 43.2907151 7.65841062 44.2747678 7.85271717 45.0618579 8.05081877 45.6535063 8.05081877 46.4405964 8.44398594 47.4238886 8.63981051 48.0140161 9.03373668 47.6200908 9.81931201 44.6686931 9.81931201 44.2747678 10.2109612 43.881603 10.4075447 43.881603 11.1938791 44.8648952 11.9794544 45.6535063 12.3726216 46.0459106 13.549087 46.8330007 14.1395968 48.8011061 14.9251721 49.5874357 15.3168212 50.5722489 15.7115064 51.1631369 16.2989801 52.1464291 16.1031556 52.5395939 15.3168212 53.3259235 15.3168212 54.3099762 15.906572 55.8856774 15.1217557 56.8689696 14.9251721 57.8530223 15.1217557 59.0325168 15.5149228 59.8196068 15.7115064 59.8196068 14.7293475 60.6082179 14.1395968 61.7877123 13.549087 62.9687276 13.3540214 63.9527804 13.1589559 65.3307584 12.9608543 67.1019012 12.9608543 68.0859539 13.1589559 68.6753209 13.7471886 69.0692461 14.5320049 70.0525384 14.9251721 70.840389 14.9251721 71.8236812 14.7293475 72.6100108 15.5149228 73.2008987 16.2989801 73.3978614 17.281898 74.1849515 17.6743062 74.9720415 17.6743062 75.5629295 18.2632979 74.7750789 19.8344486 74.9720415 20.8166075 75.9545733 21.4063582 76.5469822 21.994591 76.7424239 22.7794073 76.9393865 24.1547333 76.9393865 25.1368922 76.7424239 26.1182921 76.9393865 26.9046265 77.3325513 27.8875444 77.3325513 28.8681853 76.9393865 29.6552786 75.9545733 29.8511032 75.5629295 30.6366785 74.7750789 31.4222538 73.2008987 31.814662 72.216846 32.2063111 71.2335538 32.9934045 70.6426658 33.3858126 69.8555758 34.3687305 68.871523 34.3687305 68.2813956 35.3501304 68.4783582 36.3315303 67.6912681 36.9205221 67.1019012 37.902681 67.4943055 38.8840809 67.8882308 39.8662398 68.2813956 41.0457413 68.2813956 42.0263821 68.6753209 42.8119575 69.6586131 43.5975328 70.6426658 44.5796917 71.6267186 45.1694424 71.6267186 45.9550178 71.0365911 47.1314832 69.0692461 49.098078 68.4783582 50.6684697 68.4783582 52.6320285 68.6753209 53.6134284 68.6753209 54.7921709 68.4783582 55.7750888 67.8882308 56.5599051 67.1019012 57.1488968 66.1178485 57.540546 66.3140506 58.5234639 66.7072154 59.5056228 66.7072154 60.4870227 66.1178485 61.4699406 65.9201253 62.4505815 65.1337957 64.0217321 64.3467056 64.6114829 64.3467056 65.5944008 63.9527804 66.5758007 63.7558177 67.361376 61.7877123 68.3435349 61.0006222 69.3249348 60.4097343 70.1105101 60.0165695 70.8960854 59.8196068 71.8782443 59.6234047 72.6638197 59.6234047 73.6459786 58.8363146 74.0383867 57.2613739 74.0383867 56.4750443 74.4315539 56.0811191 75.2148522 56.2773212 76.0019455 56.6712465 76.9856224 55.2947894 78.3586715 55.6879543 79.537414 55.4909916 80.5188139 55.2947894 81.3043892 54.5069389 82.0899645 53.9168114 82.8755398 52.9327587 83.8576987 52.1464291 84.8390986 51.3585786 85.4296084 50.7684511 86.2151837 49.5874357 86.6075918 48.6041435 86.4102493 47.4238886 86.2151837 46.4405964 86.2151837 45.4550227 86.4102493 42.6998272 86.4102493 40.7324822 86.8049344 39.7484295 86.6075918 38.7651372 86.2151837 37.7810845 86.4102493 36.9939944 86.8049344 36.0107022 87 34.6327242 87 33.8456341 86.6075918 33.058544 85.8220165 32.6653792 85.0364412 31.6813265 84.643274 30.8942364 84.643274 29.9101837 84.4474495 29.3200562 84.0535233 28.9268914 83.268707 27.9428387 82.6797152 27.5489134 81.8941399 27.3519508 80.7153974 26.7610628 79.9290631 25.9747332 79.7332385 24.4005531 79.537414 23.4165003 79.3408304 23.2202982 78.3586715 22.6294103 77.5730961 22.0385223 76.9856224 21.4483949 76.1985291 20.8582675 75.6095374 20.0711774 75.0205456 19.0871246 75.0205456 17.7099071 74.6281375 17.7099071 73.6459786 18.300795 72.8611622 19.0871246 71.8782443 18.6939598 70.8960854 17.513705 70.7002609 16.5304127 70.7002609 15.54636 70.3070937 14.9547116 69.718861 14.168382 68.735943 13.5782545 67.9518857 13.1843293 66.9682088 12.5934413 66.1818745 12.3972392 64.8088255 12.7911645 63.8266666 13.7752172 63.629324 15.3486369 64.4148993 16.135727 65.003132 16.922817 64.4148993 16.922817 62.8437486 17.7099071 60.8801898 17.9061093 59.5056228 17.9061093 58.3268803 18.4977577 57.540546 19.2840873 56.9523132 19.2840873 53.4176038 20.0711774 51.453286 19.8742147 50.2753025 19.2840873 49.6863108 19.0871246 48.5075683 19.0871246 47.1314832 19.2840873 46.1508423 18.300795 46.7405931 17.7099071 47.5261684 16.7258544 47.1314832 15.9387643 45.1694424 15.9387643 44.1872835 16.135727 43.2051246 16.5304127 42.0263821 16.7258544 41.2408068 16.922817 39.6688972 17.1197797 38.2950891 16.7258544 37.5095138 16.5304127 36.5281139 15.3486369 36.1364648 15.7425621 35.3501304 15.9387643 34.1713879 15.1524347 33.3858126 14.5623073 32.6002373 15.1524347 31.814662 16.135727 31.814662 18.1038324 32.9934045 20.4651026 33.7782208 21.6453575 33.3858126 22.0385223 32.6002373 21.8423202 31.4222538 21.4483949 30.2435113 21.2529532 29.8511032 21.0552301 29.2613524 20.4651026 28.6723607 19.6772521 28.2791935 19.6772521 27.2970346 19.8742147 26.3156347 19.2840873 25.725125 18.4977577 25.3342348 17.513705 25.1368922 16.5304127 25.1368922 15.54636 24.9403087 14.7592699 24.5486595 13.9714193 23.5657416 13.3812919 21.2090156 12.3972392 20.8166075 11.4131865 20.8166075 10.6260964 20.6207829 9.64204364 20.2276157 9.05267667 21.6021828 7.87166131 21.4063582 6.88684811 21.7980074 6.49368331 22.5835827 5.70583275 23.1733334 4.72330098 23.369158 3.93545042 23.5657416 2.75519553 23.9589088 1.77114281 23.7623252 1.18101536 22.9775089 0.787090084 21.994591 0.196962639 21.994591 0.590887918 21.2090156 0.787090084 20.4241993 0.787090084 19.639383 0.393164805 18.4598815 0.393164805 17.6743062 0 16.4963227 0.393164805 15.5149228 0.984052723 15.1217557 0.984052723 14.5320049 1.18101536 13.3540214 1.18101536 12.5676871 1.57494064 12.176038 1.96734497 11.5862872 1.96734497 10.9972955 3.34532297 10.2109612 4.13241306 10.2109612 4.72330098 10.6041283 4.91950314 10.9972955 5.90279539 10.8007119 6.49368331 10.4075447 7.08381075 10.6041283 7.28153387 11.1938791 7.28153387 11.7828708 7.47697556 12.5676871 7.87166131 13.1589559 8.067103 13.549087 9.05267667 12.9608543 10.0367294 12.7650297 11.2169843 12.7650297 11.6101491 13.3540214 12.2002765 13.1589559 12.2002765 12.3726216 12.3972392 11.7828708 12.5934413 10.9972955 12.7911645 10.4075447 13.7752172 9.81931201 14.5623073 9.81931201 15.1524347 10.0143776 15.54636 10.6041283 16.3326896 10.6041283 17.3159818 10.4075447 18.1038324 10.0143776 18.4977577 9.03373668 19.8742147 9.03373668 20.4651026 8.63981051 21.6453575 8.63981051 22.2362455 8.83563508 23.0225751 9.42538583 23.6127025 9.42538583 24.4005531 9.22880225 24.5967552 9.62196941 25.5800475 10.0143776 26.1709354 10.0143776 26.9595464 9.42538583 27.5489134 9.03373668 28.3360035 8.83563508 28.9268914 9.03373668 29.9101837 9.03373668 30.3033485 8.44398594 30.8942364 7.65841062 31.4851243 7.85271717 31.8790496 8.44398594 33.058544 8.24816136 33.6494319 7.65841062 34.0425967 7.06865987 34.2395594 6.48042714 34.0425967 5.89067639 34.0425967 5.30168465 34.6327242 5.30168465 35.2236121 4.9092765 35.6160164 3.73053401 35.8137395 2.74837511 36.0107022 1.9635588 36.7970318 2.15938337"></polyline>
    </g>
</svg>