<?xml version="1.0" encoding="UTF-8"?>
<svg width="73px" height="78px" viewBox="0 0 73 78" version="1.1" xmlns="http://www.w3.org/2000/svg" xmlns:xlink="http://www.w3.org/1999/xlink">
    <!-- Generator: Sketch 50.2 (55047) - http://www.bohemiancoding.com/sketch -->
    <title>Unnao</title>
    <desc>Created with Sketch.</desc>
    <defs></defs>
    <g id="Page-1" stroke="none" stroke-width="1" fill="none" fill-rule="evenodd">
        <polyline id="Unnao" fill="#F4DDB5" fill-rule="nonzero" points="0 10.4135733 0.203992306 10.617173 1.02233353 10.822351 1.22632584 10.0047956 1.22632584 9.18881841 1.84067476 8.78004067 2.65901599 8.78004067 3.27257424 8.57644095 4.09170614 6.94211916 4.09170614 6.53413057 4.29569844 5.30937566 4.91004737 4.69620906 5.52281495 5.1049868 6.34115618 5.30937566 7.15949741 5.30937566 7.77384633 4.69620906 8.38661392 4.49103105 9.40973812 4.69620906 9.61452109 5.30937566 9.61452109 6.12693113 9.8208854 6.73851944 10.024087 7.55449662 10.433653 8.16766322 11.2519942 7.96327435 11.6607695 7.35010775 12.0703354 6.94211916 12.6846844 6.12693113 13.2974519 5.71736425 13.9118009 4.69620906 14.3205762 4.28822048 14.7309328 3.67584302 14.7309328 2.24748839 14.9341344 1.42993292 15.3437004 0.611588308 15.9572586 0 16.7755998 0.204388867 17.798724 0.611588308 18.6178559 1.42993292 19.2306235 1.63432179 19.8441818 2.45029897 19.6409801 3.26785443 19.2306235 4.49103105 19.6409801 5.1049868 20.2537477 5.30937566 21.0712983 5.71736425 21.6856472 6.32974171 21.8904302 6.94211916 22.0944225 7.75967463 22.0944225 8.16766322 22.9127637 8.98442954 23.5279033 9.18881841 24.1406709 9.18881841 24.5502368 9.59680699 25.5725704 10.0047956 26.1861286 10.4135733 26.3917023 11.0267399 27.2092528 11.8427171 27.2092528 12.047106 28.0283847 12.2514948 28.641943 11.8427171 28.43716 11.0267399 28.8467259 9.39241813 29.6650672 9.18881841 30.0738425 8.37205208 29.8690595 7.55449662 30.2794161 6.94211916 30.2794161 6.32974171 30.8921837 5.71736425 32.1208815 5.71736425 33.3472074 4.90138708 33.7567733 4.49103105 34.3703316 4.49103105 34.9838898 4.69620906 35.802231 5.1049868 37.2341305 5.1049868 37.8484794 4.28822048 38.66603 3.47066501 38.870813 3.87944274 39.8947279 5.30937566 39.6891542 5.92175312 40.0995108 6.53413057 40.3027125 7.35010775 39.6891542 7.96327435 39.0763866 8.16766322 38.2572547 8.78004067 37.4389135 9.18881841 37.0309289 10.0047956 38.0532624 10.617173 38.66603 10.617173 39.2795883 10.2091844 39.6891542 9.80119586 40.9178521 9.59680699 41.5306196 10.0047956 42.3489609 10.4135733 42.9633098 11.0267399 43.1673021 11.8427171 43.1673021 12.8638723 42.9633098 13.4770389 43.1673021 13.8842383 44.3944186 14.2930161 45.4175428 14.4974049 46.6446593 14.9061827 47.6685742 15.517771 47.6685742 17.1513036 48.2821324 17.9680699 49.7148226 19.3972137 49.9188149 20.0103803 49.9188149 22.4614684 50.5331638 22.869457 51.351505 23.2774456 51.351505 23.889823 50.9419391 24.5022005 50.1235979 24.9117674 48.8964814 23.889823 48.2821324 24.9117674 47.8741478 25.7277446 47.6685742 26.7488997 47.6685742 27.3612772 48.2821324 27.7692658 49.1004737 27.7692658 49.3052566 28.5868213 48.0781401 29.4027984 47.6685742 29.8115762 47.4637912 31.0371202 47.6685742 32.0574863 48.2821324 32.466264 48.8964814 32.466264 49.7148226 32.6698637 50.5331638 32.6698637 50.9419391 31.8530974 50.7387375 31.2407199 50.9419391 30.4239536 51.9650633 30.8319422 52.1690556 31.4451088 53.1921798 32.466264 53.8057381 32.466264 54.6248699 32.6698637 55.0336452 33.0786415 55.8519865 33.6910189 56.4663354 33.48663 57.079103 32.8742526 57.6926612 32.466264 58.1022272 32.466264 58.9205684 32.6698637 59.5349173 33.0786415 59.9436926 33.6910189 60.1476849 34.5077852 60.5580415 35.3245516 60.9660261 35.936929 61.1708091 36.7536953 60.9660261 37.3660728 60.9660261 38.1836283 61.9891503 38.5908277 63.4218405 39.0003946 63.4218405 39.612772 63.6258328 40.4295383 63.6258328 41.0419158 66.0808565 41.0419158 66.6944147 41.6542933 66.6944147 42.4710596 66.8999884 43.6966036 67.310345 44.7169697 67.5135466 45.3301363 67.5135466 45.9433029 67.1047713 46.7600692 67.310345 47.5768355 67.5135466 48.3936018 67.310345 49.209579 67.310345 51.2511003 67.9231126 50.8431117 68.7414538 50.6387228 69.355012 50.8431117 69.559795 51.6590888 69.559795 52.2714663 69.9685703 52.885422 71.4012605 52.885422 71.8100357 53.4977995 71.8100357 54.1093878 71.4012605 54.5189547 70.9916945 54.7225544 71.6052528 55.130543 72.423594 55.5393207 72.8331599 56.1524873 72.628377 56.9692536 72.0156094 57.1720642 70.9916945 56.9692536 70.3781362 57.3764531 69.7637873 57.3764531 69.559795 57.9896197 68.7414538 58.3983974 68.1286862 58.6027863 67.7183296 59.0107749 67.5135466 59.8275412 67.5135466 60.4407078 66.6944147 60.8486964 65.8776548 60.8486964 65.0577323 60.6443075 64.4449647 59.8275412 64.4449647 59.0107749 64.648957 58.1932194 64.648957 57.1720642 64.0353987 57.1720642 63.4218405 57.9896197 61.9891503 57.9896197 61.3763827 57.5816311 60.3532585 57.3764531 60.5580415 56.5596868 59.7389096 56.5596868 58.5125838 56.1524873 57.8974442 56.356087 57.6926612 56.356087 57.079103 56.9692536 57.079103 57.78602 57.4894596 58.3983974 58.5125838 59.2151637 59.1253514 59.4187635 59.9436926 60.0319301 60.5580415 60.6443075 61.1708091 61.0522961 60.9660261 61.4610738 60.7620338 62.0742404 60.9660261 62.6866179 60.3532585 63.5025951 59.7389096 63.7069839 59.7389096 65.3405166 59.5349173 65.952894 59.1253514 66.7696604 58.1022272 66.9740492 57.6926612 67.7900264 57.079103 67.9952044 56.8751107 68.8119707 55.6479942 69.6271588 55.2384282 69.6271588 52.7834045 70.4447142 52.1690556 71.2614806 52.1690556 72.2834249 51.761071 72.8950132 51.1467221 73.1001912 50.1235979 72.8950132 49.7148226 72.8950132 49.3052566 73.5066015 49.3052566 74.5285458 48.692489 74.9373236 48.2821324 75.5489119 48.0781401 76.1620785 47.6685742 76.9780557 47.6685742 78 47.2597989 77.5920114 46.0311011 77.3876225 44.5992016 77.3876225 43.986434 76.3648891 43.5760774 75.9576896 43.1673021 75.3453122 42.1441779 74.324157 41.7346119 73.7117795 41.5306196 73.1001912 41.3258367 72.4862355 41.3258367 71.6694691 40.5074954 70.4447142 40.0995108 70.2403254 39.4843712 69.8331259 38.66603 69.6271588 38.66603 65.952894 38.2572547 65.747716 37.8484794 65.3405166 37.8484794 64.1149725 38.0532624 63.2989954 37.8484794 62.4814399 37.0309289 61.2574741 36.6205723 60.4407078 36.0078047 59.4187635 34.7791068 58.6027863 33.9615563 58.1932194 33.5519903 57.3764531 33.5519903 56.7640756 32.9384321 56.356087 32.5288661 55.9473093 31.9153079 55.130543 31.5065326 54.7225544 30.6874007 54.5189547 29.8690595 53.9057881 29.2562919 53.9057881 28.641943 53.7013992 28.2331677 52.885422 28.0283847 52.0678666 27.6180281 51.6590888 27.4148265 51.0475005 27.2092528 50.4343339 26.3917023 50.2315234 25.7773533 49.8219565 26.1861286 48.5964124 25.7773533 47.984035 25.3685781 47.5768355 24.7542291 47.3716575 24.7542291 46.3512915 24.3454539 45.738914 23.5279033 45.3301363 23.1175467 44.9213585 22.9127637 44.1045922 22.5047791 43.083437 22.2992055 42.063071 21.4816549 41.4506935 20.4585307 41.0419158 19.8441818 40.8383161 19.8441818 40.0215498 20.2537477 39.407594 20.2537477 38.7960057 19.8441818 37.5712508 19.6409801 36.957295 19.6409801 36.1405287 19.2306235 35.7325401 18.8210576 35.1201627 17.798724 35.1201627 17.1843751 34.5077852 17.1843751 33.6910189 16.9803828 33.0786415 16.3668246 32.6698637 15.5476927 32.466264 14.5253591 32.466264 13.9118009 32.2618751 13.5022349 31.6494977 13.092669 30.8319422 12.2751184 30.6267642 11.6607695 31.4451088 10.8432189 31.6494977 9.20495514 31.2407199 8.59139689 31.0371202 8.18262161 30.6267642 7.77384633 30.0151759 7.77384633 29.4027984 7.56906336 28.3816432 7.36428038 27.5648769 6.74993146 27.1568883 5.72759793 26.5445109 5.52281495 25.7277446 5.9323809 24.5022005 6.13637321 23.2774456 6.34115618 22.0526907 6.54593915 21.2359244 6.54593915 20.6235469 6.34115618 20.0103803 6.34115618 19.3972137 6.13637321 18.7856254 5.31803198 17.9680699 5.11403967 17.5600813 4.91004737 16.948493 4.49969075 15.3141712 3.47735722 14.4974049 2.65901599 13.6798495 2.0462484 13.2718609 1.43110881 12.4550945 0.81755056 11.8427171 0.203992306 10.617173 0 10.4135733"></polyline>
    </g>
</svg>